G04 #@! TF.FileFunction,Copper,L3,Inr,Signal*
%FSLAX46Y46*%
G04 Gerber Fmt 4.6, Leading zero omitted, Abs format (unit mm)*
G04 Created by KiCad (PCBNEW (2015-11-03 BZR 6296)-product) date Monday, November 09, 2015 'PMt' 11:48:40 PM*
%MOMM*%
G01*
G04 APERTURE LIST*
%ADD10C,0.100000*%
%ADD11C,1.600000*%
%ADD12R,1.727200X1.727200*%
%ADD13O,1.727200X1.727200*%
%ADD14C,0.685800*%
%ADD15C,0.685801*%
%ADD16C,0.152400*%
%ADD17C,0.254000*%
G04 APERTURE END LIST*
D10*
D11*
X139000000Y-91450000D03*
X145600000Y-91450000D03*
D12*
X145200000Y-124900000D03*
D13*
X145200000Y-122360000D03*
X142660000Y-124900000D03*
X142660000Y-122360000D03*
X140120000Y-124900000D03*
X140120000Y-122360000D03*
X137580000Y-124900000D03*
X137580000Y-122360000D03*
D14*
X144900000Y-92704672D03*
X150150000Y-91450000D03*
X156500000Y-91100000D03*
X155650000Y-91100000D03*
X155950000Y-121300000D03*
X147000000Y-123500000D03*
X131297963Y-101109677D03*
X136500000Y-100850000D03*
X134800000Y-99850000D03*
X131200000Y-103250000D03*
X137200000Y-100900000D03*
X148000000Y-116600000D03*
X132942400Y-117000000D03*
D15*
X155484831Y-105661094D03*
D14*
X145000000Y-103600000D03*
X146600000Y-104599956D03*
X154795302Y-91100000D03*
X146150000Y-92700000D03*
X138250000Y-97050000D03*
X148500000Y-121800000D03*
X145800000Y-106000000D03*
X157450000Y-93500000D03*
X153950000Y-93650000D03*
X159900000Y-124900000D03*
X147123669Y-111240000D03*
X138118860Y-100652772D03*
X136700000Y-105500000D03*
X131000000Y-96500000D03*
X133405953Y-101223562D03*
X138150000Y-97750000D03*
X131250000Y-113900000D03*
X131200000Y-107650000D03*
X134103781Y-97226350D03*
X146500000Y-116500000D03*
X151000000Y-104100000D03*
X156000058Y-104999926D03*
X156000057Y-104999927D03*
D15*
X162150000Y-109849998D03*
X162150000Y-106750000D03*
X162150000Y-107500006D03*
X162150000Y-108250000D03*
X162150004Y-109000000D03*
D14*
X132570122Y-101325370D03*
X161650000Y-97100000D03*
X142174351Y-99246033D03*
X141395866Y-96995884D03*
X157200000Y-107450000D03*
X156500000Y-107750000D03*
X157200000Y-108200000D03*
D15*
X157199998Y-109000000D03*
X157199998Y-109850000D03*
X156550004Y-108600000D03*
X156550000Y-109400000D03*
D14*
X144928480Y-108350000D03*
X145450000Y-107650000D03*
X142950000Y-96800000D03*
X135275482Y-111534250D03*
X135211561Y-112386804D03*
X135120000Y-113220000D03*
X134950000Y-114070000D03*
X162718203Y-99409070D03*
X143000000Y-116650000D03*
D15*
X163086722Y-100161927D03*
D14*
X142100000Y-116350000D03*
D15*
X163908480Y-100327191D03*
D14*
X141003006Y-116399407D03*
D15*
X163908480Y-101402757D03*
D14*
X140174437Y-116526186D03*
X155600000Y-124017076D03*
X154928555Y-120647684D03*
X154159917Y-120313327D03*
X154436257Y-123693957D03*
X153623999Y-120957834D03*
X153686037Y-123320099D03*
X152866253Y-123145303D03*
X152466973Y-120604681D03*
X140515673Y-100904688D03*
X158699998Y-98950000D03*
X141252762Y-100505566D03*
X157550000Y-99000000D03*
X156164716Y-110444858D03*
X162152957Y-110738207D03*
X155358534Y-109999543D03*
X162118150Y-111575696D03*
X155028501Y-110807125D03*
X162156514Y-112413029D03*
X154085953Y-113766036D03*
D15*
X155236520Y-113183346D03*
D14*
X154690742Y-114803827D03*
D15*
X155768513Y-114264986D03*
D14*
X153047701Y-106481914D03*
D15*
X155083600Y-115556054D03*
D14*
X153682687Y-105522576D03*
D15*
X155238794Y-116379773D03*
D14*
X152442830Y-111269513D03*
D15*
X156121678Y-116305139D03*
D14*
X151500000Y-110650000D03*
D15*
X156850162Y-116804780D03*
D14*
X138726019Y-115077767D03*
D15*
X157298385Y-116096476D03*
D14*
X139580652Y-115932401D03*
D15*
X158170500Y-116353781D03*
D14*
X133600000Y-103350000D03*
X151800000Y-113100000D03*
D15*
X154573456Y-112664263D03*
D14*
X152821279Y-110275352D03*
X154224771Y-111209680D03*
X143150000Y-109200000D03*
D15*
X155983285Y-112276038D03*
X155175337Y-111971893D03*
D14*
X143667109Y-114677791D03*
X151363221Y-112306208D03*
X143107184Y-114054025D03*
X150639823Y-111836527D03*
X145835271Y-103670153D03*
D15*
X155266806Y-102471889D03*
D14*
X144775386Y-105377364D03*
D15*
X155203574Y-103307713D03*
D14*
X157000000Y-106600000D03*
X152800000Y-108400000D03*
X151754125Y-106645875D03*
D15*
X154050000Y-99750000D03*
X155400000Y-99500000D03*
D14*
X151664487Y-105750346D03*
X152150000Y-101350000D03*
X148350000Y-102250000D03*
X139870000Y-105460000D03*
X132300000Y-103800000D03*
X132300000Y-106152400D03*
X134200000Y-100445302D03*
X132247558Y-106988970D03*
X140930582Y-103462331D03*
X159330000Y-123220000D03*
X151310000Y-123660000D03*
X155590000Y-120110000D03*
X152540000Y-116530000D03*
X148040000Y-114000000D03*
X148000000Y-107400121D03*
D16*
X145104672Y-92704672D02*
X144900000Y-92704672D01*
X145342899Y-92942899D02*
X145104672Y-92704672D01*
X150150000Y-91450000D02*
X150150000Y-91934933D01*
X155950000Y-121300000D02*
X155950000Y-120850000D01*
X147000000Y-123500000D02*
X147000000Y-123015067D01*
X131297963Y-101109677D02*
X130909677Y-101109677D01*
X134800000Y-99850000D02*
X134800000Y-99400000D01*
X131200000Y-103250000D02*
X130715067Y-103250000D01*
X155361094Y-105661094D02*
X155000000Y-105300000D01*
X155484831Y-105661094D02*
X155361094Y-105661094D01*
X154795302Y-91100000D02*
X154795302Y-91595302D01*
D17*
X138250000Y-97050000D02*
X138250000Y-97650000D01*
X138250000Y-97650000D02*
X138150000Y-97750000D01*
G36*
X137891778Y-90708110D02*
X137692228Y-91188681D01*
X137691774Y-91709036D01*
X137890485Y-92189954D01*
X138258110Y-92558222D01*
X138738681Y-92757772D01*
X139259036Y-92758226D01*
X139739954Y-92559515D01*
X140108222Y-92191890D01*
X140307772Y-91711319D01*
X140308226Y-91190964D01*
X140109515Y-90710046D01*
X139982691Y-90583000D01*
X144617107Y-90583000D01*
X144491778Y-90708110D01*
X144292228Y-91188681D01*
X144291774Y-91709036D01*
X144490485Y-92189954D01*
X144858110Y-92558222D01*
X145299064Y-92741322D01*
X145298953Y-92868512D01*
X145428222Y-93181366D01*
X145667375Y-93420937D01*
X145980003Y-93550752D01*
X146318512Y-93551047D01*
X146631366Y-93421778D01*
X146870937Y-93182625D01*
X147000752Y-92869997D01*
X147001047Y-92531488D01*
X146871778Y-92218634D01*
X146748426Y-92095067D01*
X146907772Y-91711319D01*
X146908226Y-91190964D01*
X146709515Y-90710046D01*
X146582691Y-90583000D01*
X163192578Y-90583000D01*
X164074904Y-90758505D01*
X164774225Y-91225777D01*
X165241495Y-91925095D01*
X165417000Y-92807421D01*
X165417000Y-123192579D01*
X165241495Y-124074905D01*
X164774225Y-124774223D01*
X164074904Y-125241495D01*
X163192578Y-125417000D01*
X160586502Y-125417000D01*
X160620937Y-125382625D01*
X160750752Y-125069997D01*
X160751047Y-124731488D01*
X160621778Y-124418634D01*
X160382625Y-124179063D01*
X160069997Y-124049248D01*
X159731488Y-124048953D01*
X159418634Y-124178222D01*
X159179063Y-124417375D01*
X159049248Y-124730003D01*
X159048953Y-125068512D01*
X159178222Y-125381366D01*
X159213794Y-125417000D01*
X146581552Y-125417000D01*
X146581552Y-124036400D01*
X146546130Y-123848147D01*
X146533496Y-123828512D01*
X150458953Y-123828512D01*
X150588222Y-124141366D01*
X150827375Y-124380937D01*
X151140003Y-124510752D01*
X151478512Y-124511047D01*
X151791366Y-124381778D01*
X152030937Y-124142625D01*
X152160752Y-123829997D01*
X152160915Y-123643138D01*
X152383628Y-123866240D01*
X152696256Y-123996055D01*
X153034765Y-123996350D01*
X153122582Y-123960065D01*
X153203412Y-124041036D01*
X153516040Y-124170851D01*
X153712702Y-124171022D01*
X153714479Y-124175323D01*
X153953632Y-124414894D01*
X154266260Y-124544709D01*
X154604769Y-124545004D01*
X154854778Y-124441702D01*
X154878222Y-124498442D01*
X155117375Y-124738013D01*
X155430003Y-124867828D01*
X155768512Y-124868123D01*
X156081366Y-124738854D01*
X156320937Y-124499701D01*
X156450752Y-124187073D01*
X156451047Y-123848564D01*
X156321778Y-123535710D01*
X156174837Y-123388512D01*
X158478953Y-123388512D01*
X158608222Y-123701366D01*
X158847375Y-123940937D01*
X159160003Y-124070752D01*
X159498512Y-124071047D01*
X159811366Y-123941778D01*
X160050937Y-123702625D01*
X160073758Y-123647664D01*
X161241652Y-123647664D01*
X161546708Y-124385955D01*
X162111074Y-124951307D01*
X162848832Y-125257651D01*
X163647664Y-125258348D01*
X164385955Y-124953292D01*
X164951307Y-124388926D01*
X165257651Y-123651168D01*
X165258348Y-122852336D01*
X164953292Y-122114045D01*
X164388926Y-121548693D01*
X163651168Y-121242349D01*
X162852336Y-121241652D01*
X162114045Y-121546708D01*
X161548693Y-122111074D01*
X161242349Y-122848832D01*
X161241652Y-123647664D01*
X160073758Y-123647664D01*
X160180752Y-123389997D01*
X160181047Y-123051488D01*
X160051778Y-122738634D01*
X159812625Y-122499063D01*
X159499997Y-122369248D01*
X159161488Y-122368953D01*
X158848634Y-122498222D01*
X158609063Y-122737375D01*
X158479248Y-123050003D01*
X158478953Y-123388512D01*
X156174837Y-123388512D01*
X156082625Y-123296139D01*
X155769997Y-123166324D01*
X155431488Y-123166029D01*
X155181479Y-123269331D01*
X155158035Y-123212591D01*
X154918882Y-122973020D01*
X154606254Y-122843205D01*
X154409592Y-122843034D01*
X154407815Y-122838733D01*
X154168662Y-122599162D01*
X153856034Y-122469347D01*
X153517525Y-122469052D01*
X153429708Y-122505337D01*
X153348878Y-122424366D01*
X153036250Y-122294551D01*
X152697741Y-122294256D01*
X152384887Y-122423525D01*
X152145316Y-122662678D01*
X152015501Y-122975306D01*
X152015338Y-123162165D01*
X151792625Y-122939063D01*
X151479997Y-122809248D01*
X151141488Y-122808953D01*
X150828634Y-122938222D01*
X150589063Y-123177375D01*
X150459248Y-123490003D01*
X150458953Y-123828512D01*
X146533496Y-123828512D01*
X146434872Y-123675247D01*
X146265112Y-123559255D01*
X146063600Y-123518448D01*
X145927853Y-123518448D01*
X146169868Y-123356739D01*
X146467193Y-122911760D01*
X146571600Y-122386871D01*
X146571600Y-122333129D01*
X146499074Y-121968512D01*
X147648953Y-121968512D01*
X147778222Y-122281366D01*
X148017375Y-122520937D01*
X148330003Y-122650752D01*
X148668512Y-122651047D01*
X148981366Y-122521778D01*
X149220937Y-122282625D01*
X149350752Y-121969997D01*
X149351047Y-121631488D01*
X149221778Y-121318634D01*
X148982625Y-121079063D01*
X148669997Y-120949248D01*
X148331488Y-120948953D01*
X148018634Y-121078222D01*
X147779063Y-121317375D01*
X147649248Y-121630003D01*
X147648953Y-121968512D01*
X146499074Y-121968512D01*
X146467193Y-121808240D01*
X146169868Y-121363261D01*
X145724889Y-121065936D01*
X145200000Y-120961529D01*
X144675111Y-121065936D01*
X144230132Y-121363261D01*
X143932807Y-121808240D01*
X143930000Y-121822352D01*
X143927193Y-121808240D01*
X143629868Y-121363261D01*
X143184889Y-121065936D01*
X142660000Y-120961529D01*
X142135111Y-121065936D01*
X141690132Y-121363261D01*
X141392807Y-121808240D01*
X141390000Y-121822352D01*
X141387193Y-121808240D01*
X141089868Y-121363261D01*
X140644889Y-121065936D01*
X140120000Y-120961529D01*
X139595111Y-121065936D01*
X139150132Y-121363261D01*
X138852807Y-121808240D01*
X138850000Y-121822352D01*
X138847193Y-121808240D01*
X138549868Y-121363261D01*
X138104889Y-121065936D01*
X137580000Y-120961529D01*
X137055111Y-121065936D01*
X136610132Y-121363261D01*
X136312807Y-121808240D01*
X136208400Y-122333129D01*
X136208400Y-122386871D01*
X136312807Y-122911760D01*
X136610132Y-123356739D01*
X137019097Y-123630000D01*
X136610132Y-123903261D01*
X136312807Y-124348240D01*
X136208400Y-124873129D01*
X136208400Y-124926871D01*
X136305893Y-125417000D01*
X132807421Y-125417000D01*
X131925095Y-125241495D01*
X131225777Y-124774225D01*
X130758505Y-124074904D01*
X130673522Y-123647664D01*
X130741652Y-123647664D01*
X131046708Y-124385955D01*
X131611074Y-124951307D01*
X132348832Y-125257651D01*
X133147664Y-125258348D01*
X133885955Y-124953292D01*
X134451307Y-124388926D01*
X134757651Y-123651168D01*
X134758348Y-122852336D01*
X134453292Y-122114045D01*
X133888926Y-121548693D01*
X133151168Y-121242349D01*
X132352336Y-121241652D01*
X131614045Y-121546708D01*
X131048693Y-122111074D01*
X130742349Y-122848832D01*
X130741652Y-123647664D01*
X130673522Y-123647664D01*
X130583000Y-123192578D01*
X130583000Y-120773193D01*
X151615926Y-120773193D01*
X151745195Y-121086047D01*
X151984348Y-121325618D01*
X152296976Y-121455433D01*
X152635485Y-121455728D01*
X152869156Y-121359177D01*
X152902221Y-121439200D01*
X153141374Y-121678771D01*
X153454002Y-121808586D01*
X153792511Y-121808881D01*
X154105365Y-121679612D01*
X154344936Y-121440459D01*
X154395672Y-121318275D01*
X154445930Y-121368621D01*
X154758558Y-121498436D01*
X155097067Y-121498731D01*
X155409921Y-121369462D01*
X155649492Y-121130309D01*
X155719790Y-120961013D01*
X155758512Y-120961047D01*
X156071366Y-120831778D01*
X156310937Y-120592625D01*
X156440752Y-120279997D01*
X156441047Y-119941488D01*
X156311778Y-119628634D01*
X156072625Y-119389063D01*
X155759997Y-119259248D01*
X155421488Y-119258953D01*
X155108634Y-119388222D01*
X154869063Y-119627375D01*
X154812778Y-119762924D01*
X154642542Y-119592390D01*
X154329914Y-119462575D01*
X153991405Y-119462280D01*
X153678551Y-119591549D01*
X153438980Y-119830702D01*
X153309165Y-120143330D01*
X153309144Y-120167255D01*
X153221816Y-120203338D01*
X153188751Y-120123315D01*
X152949598Y-119883744D01*
X152636970Y-119753929D01*
X152298461Y-119753634D01*
X151985607Y-119882903D01*
X151746036Y-120122056D01*
X151616221Y-120434684D01*
X151615926Y-120773193D01*
X130583000Y-120773193D01*
X130583000Y-115246279D01*
X137874972Y-115246279D01*
X138004241Y-115559133D01*
X138243394Y-115798704D01*
X138556022Y-115928519D01*
X138729755Y-115928670D01*
X138729605Y-116100913D01*
X138858874Y-116413767D01*
X139098027Y-116653338D01*
X139349435Y-116757732D01*
X139452659Y-117007552D01*
X139691812Y-117247123D01*
X140004440Y-117376938D01*
X140342949Y-117377233D01*
X140655803Y-117247964D01*
X140706307Y-117197548D01*
X140833009Y-117250159D01*
X141171518Y-117250454D01*
X141484372Y-117121185D01*
X141576114Y-117029603D01*
X141617375Y-117070937D01*
X141930003Y-117200752D01*
X142268512Y-117201047D01*
X142324633Y-117177858D01*
X142517375Y-117370937D01*
X142830003Y-117500752D01*
X143168512Y-117501047D01*
X143481366Y-117371778D01*
X143720937Y-117132625D01*
X143850752Y-116819997D01*
X143850884Y-116668512D01*
X145648953Y-116668512D01*
X145778222Y-116981366D01*
X146017375Y-117220937D01*
X146330003Y-117350752D01*
X146668512Y-117351047D01*
X146981366Y-117221778D01*
X147220937Y-116982625D01*
X147338911Y-116698512D01*
X151688953Y-116698512D01*
X151818222Y-117011366D01*
X152057375Y-117250937D01*
X152370003Y-117380752D01*
X152708512Y-117381047D01*
X153021366Y-117251778D01*
X153260937Y-117012625D01*
X153390752Y-116699997D01*
X153391047Y-116361488D01*
X153261778Y-116048634D01*
X153022625Y-115809063D01*
X152709997Y-115679248D01*
X152371488Y-115678953D01*
X152058634Y-115808222D01*
X151819063Y-116047375D01*
X151689248Y-116360003D01*
X151688953Y-116698512D01*
X147338911Y-116698512D01*
X147350752Y-116669997D01*
X147351047Y-116331488D01*
X147221778Y-116018634D01*
X146982625Y-115779063D01*
X146669997Y-115649248D01*
X146331488Y-115648953D01*
X146018634Y-115778222D01*
X145779063Y-116017375D01*
X145649248Y-116330003D01*
X145648953Y-116668512D01*
X143850884Y-116668512D01*
X143851047Y-116481488D01*
X143721778Y-116168634D01*
X143482625Y-115929063D01*
X143169997Y-115799248D01*
X142831488Y-115798953D01*
X142775367Y-115822142D01*
X142582625Y-115629063D01*
X142269997Y-115499248D01*
X141931488Y-115498953D01*
X141618634Y-115628222D01*
X141526892Y-115719804D01*
X141485631Y-115678470D01*
X141173003Y-115548655D01*
X140834494Y-115548360D01*
X140521640Y-115677629D01*
X140471136Y-115728045D01*
X140405654Y-115700855D01*
X140302430Y-115451035D01*
X140063277Y-115211464D01*
X139750649Y-115081649D01*
X139576916Y-115081498D01*
X139577066Y-114909255D01*
X139447797Y-114596401D01*
X139208644Y-114356830D01*
X138896016Y-114227015D01*
X138557507Y-114226720D01*
X138244653Y-114355989D01*
X138005082Y-114595142D01*
X137875267Y-114907770D01*
X137874972Y-115246279D01*
X130583000Y-115246279D01*
X130583000Y-114436240D01*
X130767375Y-114620937D01*
X131080003Y-114750752D01*
X131418512Y-114751047D01*
X131731366Y-114621778D01*
X131970937Y-114382625D01*
X132030778Y-114238512D01*
X134098953Y-114238512D01*
X134228222Y-114551366D01*
X134467375Y-114790937D01*
X134780003Y-114920752D01*
X135118512Y-114921047D01*
X135431366Y-114791778D01*
X135670937Y-114552625D01*
X135800752Y-114239997D01*
X135800767Y-114222537D01*
X142256137Y-114222537D01*
X142385406Y-114535391D01*
X142624559Y-114774962D01*
X142820141Y-114856175D01*
X142945331Y-115159157D01*
X143184484Y-115398728D01*
X143497112Y-115528543D01*
X143835621Y-115528838D01*
X144148475Y-115399569D01*
X144388046Y-115160416D01*
X144517861Y-114847788D01*
X144518156Y-114509279D01*
X144388887Y-114196425D01*
X144361023Y-114168512D01*
X147188953Y-114168512D01*
X147318222Y-114481366D01*
X147557375Y-114720937D01*
X147870003Y-114850752D01*
X148208512Y-114851047D01*
X148521366Y-114721778D01*
X148760937Y-114482625D01*
X148890752Y-114169997D01*
X148891047Y-113831488D01*
X148761778Y-113518634D01*
X148522625Y-113279063D01*
X148209997Y-113149248D01*
X147871488Y-113148953D01*
X147558634Y-113278222D01*
X147319063Y-113517375D01*
X147189248Y-113830003D01*
X147188953Y-114168512D01*
X144361023Y-114168512D01*
X144149734Y-113956854D01*
X143954152Y-113875641D01*
X143828962Y-113572659D01*
X143589809Y-113333088D01*
X143277181Y-113203273D01*
X142938672Y-113202978D01*
X142625818Y-113332247D01*
X142386247Y-113571400D01*
X142256432Y-113884028D01*
X142256137Y-114222537D01*
X135800767Y-114222537D01*
X135801047Y-113901488D01*
X135754522Y-113788889D01*
X135840937Y-113702625D01*
X135970752Y-113389997D01*
X135971047Y-113051488D01*
X135906532Y-112895350D01*
X135932498Y-112869429D01*
X136062313Y-112556801D01*
X136062608Y-112218292D01*
X135984359Y-112028914D01*
X135996419Y-112016875D01*
X136126234Y-111704247D01*
X136126491Y-111408512D01*
X146272622Y-111408512D01*
X146401891Y-111721366D01*
X146641044Y-111960937D01*
X146953672Y-112090752D01*
X147292181Y-112091047D01*
X147500335Y-112005039D01*
X149788776Y-112005039D01*
X149918045Y-112317893D01*
X150157198Y-112557464D01*
X150469826Y-112687279D01*
X150600049Y-112687392D01*
X150641443Y-112787574D01*
X150880596Y-113027145D01*
X150949139Y-113055606D01*
X150948953Y-113268512D01*
X151078222Y-113581366D01*
X151317375Y-113820937D01*
X151630003Y-113950752D01*
X151968512Y-113951047D01*
X152281366Y-113821778D01*
X152520937Y-113582625D01*
X152650752Y-113269997D01*
X152651047Y-112931488D01*
X152521778Y-112618634D01*
X152282625Y-112379063D01*
X152214082Y-112350602D01*
X152214268Y-112137696D01*
X152193445Y-112087300D01*
X152272833Y-112120265D01*
X152611342Y-112120560D01*
X152924196Y-111991291D01*
X153163767Y-111752138D01*
X153293582Y-111439510D01*
X153293877Y-111101001D01*
X153258496Y-111015372D01*
X153302645Y-110997130D01*
X153454730Y-110845311D01*
X153374019Y-111039683D01*
X153373724Y-111378192D01*
X153502993Y-111691046D01*
X153742146Y-111930617D01*
X153997684Y-112036726D01*
X153852519Y-112181638D01*
X153722704Y-112494266D01*
X153722409Y-112832775D01*
X153779867Y-112971834D01*
X153604587Y-113044258D01*
X153365016Y-113283411D01*
X153235201Y-113596039D01*
X153234906Y-113934548D01*
X153364175Y-114247402D01*
X153603328Y-114486973D01*
X153857198Y-114592389D01*
X153839990Y-114633830D01*
X153839695Y-114972339D01*
X153968964Y-115285193D01*
X154208117Y-115524764D01*
X154232718Y-115534979D01*
X154232553Y-115724566D01*
X154361822Y-116037420D01*
X154430884Y-116106602D01*
X154388042Y-116209776D01*
X154387747Y-116548285D01*
X154517016Y-116861139D01*
X154756169Y-117100710D01*
X155068797Y-117230525D01*
X155407306Y-117230820D01*
X155720160Y-117101551D01*
X155749730Y-117072033D01*
X155951681Y-117155891D01*
X156074608Y-117155998D01*
X156128384Y-117286146D01*
X156367537Y-117525717D01*
X156680165Y-117655532D01*
X157018674Y-117655827D01*
X157331528Y-117526558D01*
X157571099Y-117287405D01*
X157667775Y-117054583D01*
X157687875Y-117074718D01*
X158000503Y-117204533D01*
X158339012Y-117204828D01*
X158651866Y-117075559D01*
X158891437Y-116836406D01*
X159021252Y-116523778D01*
X159021547Y-116185269D01*
X158892278Y-115872415D01*
X158653125Y-115632844D01*
X158340497Y-115503029D01*
X158001988Y-115502734D01*
X157935435Y-115530233D01*
X157781010Y-115375539D01*
X157468382Y-115245724D01*
X157129873Y-115245429D01*
X156817019Y-115374698D01*
X156605723Y-115585625D01*
X156604303Y-115584202D01*
X156291675Y-115454387D01*
X155953166Y-115454092D01*
X155934582Y-115461771D01*
X155934647Y-115387542D01*
X155822420Y-115115933D01*
X155937025Y-115116033D01*
X156249879Y-114986764D01*
X156489450Y-114747611D01*
X156619265Y-114434983D01*
X156619560Y-114096474D01*
X156490291Y-113783620D01*
X156251138Y-113544049D01*
X156043828Y-113457966D01*
X156087272Y-113353343D01*
X156087469Y-113127029D01*
X156151797Y-113127085D01*
X156464651Y-112997816D01*
X156704222Y-112758663D01*
X156834037Y-112446035D01*
X156834332Y-112107526D01*
X156705063Y-111794672D01*
X156654688Y-111744208D01*
X161267103Y-111744208D01*
X161389694Y-112040901D01*
X161305762Y-112243032D01*
X161305467Y-112581541D01*
X161434736Y-112894395D01*
X161673889Y-113133966D01*
X161986517Y-113263781D01*
X162325026Y-113264076D01*
X162637880Y-113134807D01*
X162877451Y-112895654D01*
X163007266Y-112583026D01*
X163007561Y-112244517D01*
X162884970Y-111947824D01*
X162968902Y-111745693D01*
X162969197Y-111407184D01*
X162883068Y-111198738D01*
X163003709Y-110908204D01*
X163004004Y-110569695D01*
X162888536Y-110290241D01*
X163000752Y-110019995D01*
X163001047Y-109681486D01*
X162894969Y-109424759D01*
X163000756Y-109169997D01*
X163001051Y-108831488D01*
X162915679Y-108624874D01*
X163000752Y-108419997D01*
X163001047Y-108081488D01*
X162915679Y-107874881D01*
X163000752Y-107670003D01*
X163001047Y-107331494D01*
X162915676Y-107124881D01*
X163000752Y-106919997D01*
X163001047Y-106581488D01*
X162871778Y-106268634D01*
X162632625Y-106029063D01*
X162319997Y-105899248D01*
X161981488Y-105898953D01*
X161668634Y-106028222D01*
X161429063Y-106267375D01*
X161299248Y-106580003D01*
X161298953Y-106918512D01*
X161384324Y-107125125D01*
X161299248Y-107330009D01*
X161298953Y-107668518D01*
X161384321Y-107875125D01*
X161299248Y-108080003D01*
X161298953Y-108418512D01*
X161384325Y-108625126D01*
X161299252Y-108830003D01*
X161298957Y-109168512D01*
X161405035Y-109425239D01*
X161299248Y-109680001D01*
X161298953Y-110018510D01*
X161414421Y-110297964D01*
X161302205Y-110568210D01*
X161301910Y-110906719D01*
X161388039Y-111115165D01*
X161267398Y-111405699D01*
X161267103Y-111744208D01*
X156654688Y-111744208D01*
X156465910Y-111555101D01*
X156153282Y-111425286D01*
X155831708Y-111425006D01*
X155723017Y-111316125D01*
X155749438Y-111289750D01*
X155783435Y-111207877D01*
X155994719Y-111295610D01*
X156333228Y-111295905D01*
X156646082Y-111166636D01*
X156885653Y-110927483D01*
X156987183Y-110682972D01*
X157030001Y-110700752D01*
X157368510Y-110701047D01*
X157681364Y-110571778D01*
X157920935Y-110332625D01*
X158050750Y-110019997D01*
X158051045Y-109681488D01*
X157944965Y-109424755D01*
X158050750Y-109169997D01*
X158051045Y-108831488D01*
X157955321Y-108599819D01*
X158050752Y-108369997D01*
X158051047Y-108031488D01*
X157965677Y-107824878D01*
X158050752Y-107619997D01*
X158051047Y-107281488D01*
X157921778Y-106968634D01*
X157813366Y-106860032D01*
X157850752Y-106769997D01*
X157851047Y-106431488D01*
X157721778Y-106118634D01*
X157482625Y-105879063D01*
X157169997Y-105749248D01*
X156831488Y-105748953D01*
X156518634Y-105878222D01*
X156279063Y-106117375D01*
X156149248Y-106430003D01*
X156148953Y-106768512D01*
X156221610Y-106944354D01*
X156018634Y-107028222D01*
X155779063Y-107267375D01*
X155649248Y-107580003D01*
X155648953Y-107918512D01*
X155778222Y-108231366D01*
X155780702Y-108233850D01*
X155699252Y-108430003D01*
X155698957Y-108768512D01*
X155794680Y-109000178D01*
X155702904Y-109221197D01*
X155528531Y-109148791D01*
X155190022Y-109148496D01*
X154877168Y-109277765D01*
X154637597Y-109516918D01*
X154507782Y-109829546D01*
X154507525Y-110124888D01*
X154307564Y-110324500D01*
X154293305Y-110358840D01*
X154056259Y-110358633D01*
X153743405Y-110487902D01*
X153591320Y-110639721D01*
X153672031Y-110445349D01*
X153672326Y-110106840D01*
X153543057Y-109793986D01*
X153303904Y-109554415D01*
X152991276Y-109424600D01*
X152652767Y-109424305D01*
X152339913Y-109553574D01*
X152100342Y-109792727D01*
X152025779Y-109972293D01*
X151982625Y-109929063D01*
X151669997Y-109799248D01*
X151331488Y-109798953D01*
X151018634Y-109928222D01*
X150779063Y-110167375D01*
X150649248Y-110480003D01*
X150648953Y-110818512D01*
X150718032Y-110985695D01*
X150471311Y-110985480D01*
X150158457Y-111114749D01*
X149918886Y-111353902D01*
X149789071Y-111666530D01*
X149788776Y-112005039D01*
X147500335Y-112005039D01*
X147605035Y-111961778D01*
X147844606Y-111722625D01*
X147974421Y-111409997D01*
X147974716Y-111071488D01*
X147845447Y-110758634D01*
X147606294Y-110519063D01*
X147293666Y-110389248D01*
X146955157Y-110388953D01*
X146642303Y-110518222D01*
X146402732Y-110757375D01*
X146272917Y-111070003D01*
X146272622Y-111408512D01*
X136126491Y-111408512D01*
X136126529Y-111365738D01*
X135997260Y-111052884D01*
X135758107Y-110813313D01*
X135445479Y-110683498D01*
X135106970Y-110683203D01*
X134794116Y-110812472D01*
X134554545Y-111051625D01*
X134424730Y-111364253D01*
X134424435Y-111702762D01*
X134502684Y-111892140D01*
X134490624Y-111904179D01*
X134360809Y-112216807D01*
X134360514Y-112555316D01*
X134425029Y-112711454D01*
X134399063Y-112737375D01*
X134269248Y-113050003D01*
X134268953Y-113388512D01*
X134315478Y-113501111D01*
X134229063Y-113587375D01*
X134099248Y-113900003D01*
X134098953Y-114238512D01*
X132030778Y-114238512D01*
X132100752Y-114069997D01*
X132101047Y-113731488D01*
X131971778Y-113418634D01*
X131732625Y-113179063D01*
X131419997Y-113049248D01*
X131081488Y-113048953D01*
X130768634Y-113178222D01*
X130583000Y-113363532D01*
X130583000Y-109368512D01*
X142298953Y-109368512D01*
X142428222Y-109681366D01*
X142667375Y-109920937D01*
X142980003Y-110050752D01*
X143318512Y-110051047D01*
X143631366Y-109921778D01*
X143870937Y-109682625D01*
X144000752Y-109369997D01*
X144001047Y-109031488D01*
X143871778Y-108718634D01*
X143632625Y-108479063D01*
X143319997Y-108349248D01*
X142981488Y-108348953D01*
X142668634Y-108478222D01*
X142429063Y-108717375D01*
X142299248Y-109030003D01*
X142298953Y-109368512D01*
X130583000Y-109368512D01*
X130583000Y-108236327D01*
X130717375Y-108370937D01*
X131030003Y-108500752D01*
X131368512Y-108501047D01*
X131681366Y-108371778D01*
X131920937Y-108132625D01*
X132047709Y-107827326D01*
X132077561Y-107839722D01*
X132416070Y-107840017D01*
X132728924Y-107710748D01*
X132968495Y-107471595D01*
X133098310Y-107158967D01*
X133098605Y-106820458D01*
X133021463Y-106633759D01*
X133150752Y-106322397D01*
X133151047Y-105983888D01*
X133021778Y-105671034D01*
X133019261Y-105668512D01*
X135848953Y-105668512D01*
X135978222Y-105981366D01*
X136217375Y-106220937D01*
X136530003Y-106350752D01*
X136868512Y-106351047D01*
X137181366Y-106221778D01*
X137420937Y-105982625D01*
X137550752Y-105669997D01*
X137550788Y-105628512D01*
X139018953Y-105628512D01*
X139148222Y-105941366D01*
X139387375Y-106180937D01*
X139700003Y-106310752D01*
X140038512Y-106311047D01*
X140351366Y-106181778D01*
X140590937Y-105942625D01*
X140720752Y-105629997D01*
X140720825Y-105545876D01*
X143924339Y-105545876D01*
X144053608Y-105858730D01*
X144292761Y-106098301D01*
X144605389Y-106228116D01*
X144943898Y-106228411D01*
X144969356Y-106217892D01*
X145078222Y-106481366D01*
X145317375Y-106720937D01*
X145505728Y-106799148D01*
X145281488Y-106798953D01*
X144968634Y-106928222D01*
X144729063Y-107167375D01*
X144599248Y-107480003D01*
X144599174Y-107565392D01*
X144447114Y-107628222D01*
X144207543Y-107867375D01*
X144077728Y-108180003D01*
X144077433Y-108518512D01*
X144206702Y-108831366D01*
X144445855Y-109070937D01*
X144758483Y-109200752D01*
X145096992Y-109201047D01*
X145409846Y-109071778D01*
X145649417Y-108832625D01*
X145759086Y-108568512D01*
X151948953Y-108568512D01*
X152078222Y-108881366D01*
X152317375Y-109120937D01*
X152630003Y-109250752D01*
X152968512Y-109251047D01*
X153281366Y-109121778D01*
X153520937Y-108882625D01*
X153650752Y-108569997D01*
X153651047Y-108231488D01*
X153521778Y-107918634D01*
X153282625Y-107679063D01*
X152969997Y-107549248D01*
X152631488Y-107548953D01*
X152318634Y-107678222D01*
X152079063Y-107917375D01*
X151949248Y-108230003D01*
X151948953Y-108568512D01*
X145759086Y-108568512D01*
X145779232Y-108519997D01*
X145779306Y-108434608D01*
X145931366Y-108371778D01*
X146170937Y-108132625D01*
X146300752Y-107819997D01*
X146300971Y-107568633D01*
X147148953Y-107568633D01*
X147278222Y-107881487D01*
X147517375Y-108121058D01*
X147830003Y-108250873D01*
X148168512Y-108251168D01*
X148481366Y-108121899D01*
X148720937Y-107882746D01*
X148850752Y-107570118D01*
X148851047Y-107231609D01*
X148721778Y-106918755D01*
X148482625Y-106679184D01*
X148169997Y-106549369D01*
X147831488Y-106549074D01*
X147518634Y-106678343D01*
X147279063Y-106917496D01*
X147149248Y-107230124D01*
X147148953Y-107568633D01*
X146300971Y-107568633D01*
X146301047Y-107481488D01*
X146171778Y-107168634D01*
X145932625Y-106929063D01*
X145744272Y-106850852D01*
X145968512Y-106851047D01*
X146281366Y-106721778D01*
X146520937Y-106482625D01*
X146650752Y-106169997D01*
X146650970Y-105918858D01*
X150813440Y-105918858D01*
X150942709Y-106231712D01*
X150986531Y-106275611D01*
X150903373Y-106475878D01*
X150903078Y-106814387D01*
X151032347Y-107127241D01*
X151271500Y-107366812D01*
X151584128Y-107496627D01*
X151922637Y-107496922D01*
X152235491Y-107367653D01*
X152475062Y-107128500D01*
X152479701Y-107117327D01*
X152565076Y-107202851D01*
X152877704Y-107332666D01*
X153216213Y-107332961D01*
X153529067Y-107203692D01*
X153768638Y-106964539D01*
X153898453Y-106651911D01*
X153898713Y-106353991D01*
X154164053Y-106244354D01*
X154403624Y-106005201D01*
X154533439Y-105692573D01*
X154533734Y-105354064D01*
X154457036Y-105168439D01*
X155149010Y-105168439D01*
X155278279Y-105481293D01*
X155517432Y-105720864D01*
X155830060Y-105850679D01*
X156168569Y-105850974D01*
X156481423Y-105721705D01*
X156720994Y-105482552D01*
X156720995Y-105482551D01*
X156850810Y-105169923D01*
X156851105Y-104831414D01*
X156721836Y-104518560D01*
X156482683Y-104278989D01*
X156170055Y-104149174D01*
X155831546Y-104148879D01*
X155518692Y-104278148D01*
X155518691Y-104278149D01*
X155279120Y-104517302D01*
X155149305Y-104829930D01*
X155149010Y-105168439D01*
X154457036Y-105168439D01*
X154404465Y-105041210D01*
X154165312Y-104801639D01*
X153852684Y-104671824D01*
X153514175Y-104671529D01*
X153201321Y-104800798D01*
X152961750Y-105039951D01*
X152831935Y-105352579D01*
X152831675Y-105650499D01*
X152566335Y-105760136D01*
X152515334Y-105811048D01*
X152515534Y-105581834D01*
X152386265Y-105268980D01*
X152147112Y-105029409D01*
X151834484Y-104899594D01*
X151495975Y-104899299D01*
X151183121Y-105028568D01*
X150943550Y-105267721D01*
X150813735Y-105580349D01*
X150813440Y-105918858D01*
X146650970Y-105918858D01*
X146651047Y-105831488D01*
X146521778Y-105518634D01*
X146282625Y-105279063D01*
X145969997Y-105149248D01*
X145631488Y-105148953D01*
X145606030Y-105159472D01*
X145497164Y-104895998D01*
X145258011Y-104656427D01*
X144945383Y-104526612D01*
X144606874Y-104526317D01*
X144294020Y-104655586D01*
X144054449Y-104894739D01*
X143924634Y-105207367D01*
X143924339Y-105545876D01*
X140720825Y-105545876D01*
X140721047Y-105291488D01*
X140591778Y-104978634D01*
X140352625Y-104739063D01*
X140039997Y-104609248D01*
X139701488Y-104608953D01*
X139388634Y-104738222D01*
X139149063Y-104977375D01*
X139019248Y-105290003D01*
X139018953Y-105628512D01*
X137550788Y-105628512D01*
X137551047Y-105331488D01*
X137421778Y-105018634D01*
X137182625Y-104779063D01*
X136869997Y-104649248D01*
X136531488Y-104648953D01*
X136218634Y-104778222D01*
X135979063Y-105017375D01*
X135849248Y-105330003D01*
X135848953Y-105668512D01*
X133019261Y-105668512D01*
X132782625Y-105431463D01*
X132469997Y-105301648D01*
X132131488Y-105301353D01*
X131818634Y-105430622D01*
X131579063Y-105669775D01*
X131449248Y-105982403D01*
X131448953Y-106320912D01*
X131526095Y-106507611D01*
X131399849Y-106811644D01*
X131369997Y-106799248D01*
X131031488Y-106798953D01*
X130718634Y-106928222D01*
X130583000Y-107063619D01*
X130583000Y-103968512D01*
X131448953Y-103968512D01*
X131578222Y-104281366D01*
X131817375Y-104520937D01*
X132130003Y-104650752D01*
X132468512Y-104651047D01*
X132781366Y-104521778D01*
X133020937Y-104282625D01*
X133111346Y-104064897D01*
X133117375Y-104070937D01*
X133430003Y-104200752D01*
X133768512Y-104201047D01*
X134081366Y-104071778D01*
X134320937Y-103832625D01*
X134404724Y-103630843D01*
X140079535Y-103630843D01*
X140208804Y-103943697D01*
X140447957Y-104183268D01*
X140760585Y-104313083D01*
X141099094Y-104313378D01*
X141411948Y-104184109D01*
X141651519Y-103944956D01*
X141695655Y-103838665D01*
X144984224Y-103838665D01*
X145113493Y-104151519D01*
X145352646Y-104391090D01*
X145665274Y-104520905D01*
X146003783Y-104521200D01*
X146316637Y-104391931D01*
X146440271Y-104268512D01*
X150148953Y-104268512D01*
X150278222Y-104581366D01*
X150517375Y-104820937D01*
X150830003Y-104950752D01*
X151168512Y-104951047D01*
X151481366Y-104821778D01*
X151720937Y-104582625D01*
X151850752Y-104269997D01*
X151851047Y-103931488D01*
X151721778Y-103618634D01*
X151579618Y-103476225D01*
X154352527Y-103476225D01*
X154481796Y-103789079D01*
X154720949Y-104028650D01*
X155033577Y-104158465D01*
X155372086Y-104158760D01*
X155684940Y-104029491D01*
X155924511Y-103790338D01*
X156054326Y-103477710D01*
X156054621Y-103139201D01*
X155981064Y-102961181D01*
X155987743Y-102954514D01*
X156117558Y-102641886D01*
X156117853Y-102303377D01*
X155988584Y-101990523D01*
X155749431Y-101750952D01*
X155436803Y-101621137D01*
X155098294Y-101620842D01*
X154785440Y-101750111D01*
X154545869Y-101989264D01*
X154416054Y-102301892D01*
X154415759Y-102640401D01*
X154489316Y-102818421D01*
X154482637Y-102825088D01*
X154352822Y-103137716D01*
X154352527Y-103476225D01*
X151579618Y-103476225D01*
X151482625Y-103379063D01*
X151169997Y-103249248D01*
X150831488Y-103248953D01*
X150518634Y-103378222D01*
X150279063Y-103617375D01*
X150149248Y-103930003D01*
X150148953Y-104268512D01*
X146440271Y-104268512D01*
X146556208Y-104152778D01*
X146686023Y-103840150D01*
X146686318Y-103501641D01*
X146557049Y-103188787D01*
X146317896Y-102949216D01*
X146005268Y-102819401D01*
X145666759Y-102819106D01*
X145353905Y-102948375D01*
X145114334Y-103187528D01*
X144984519Y-103500156D01*
X144984224Y-103838665D01*
X141695655Y-103838665D01*
X141781334Y-103632328D01*
X141781629Y-103293819D01*
X141652360Y-102980965D01*
X141413207Y-102741394D01*
X141100579Y-102611579D01*
X140762070Y-102611284D01*
X140449216Y-102740553D01*
X140209645Y-102979706D01*
X140079830Y-103292334D01*
X140079535Y-103630843D01*
X134404724Y-103630843D01*
X134450752Y-103519997D01*
X134451047Y-103181488D01*
X134321778Y-102868634D01*
X134082625Y-102629063D01*
X133769997Y-102499248D01*
X133431488Y-102498953D01*
X133118634Y-102628222D01*
X132879063Y-102867375D01*
X132788654Y-103085103D01*
X132782625Y-103079063D01*
X132469997Y-102949248D01*
X132131488Y-102948953D01*
X131818634Y-103078222D01*
X131579063Y-103317375D01*
X131449248Y-103630003D01*
X131448953Y-103968512D01*
X130583000Y-103968512D01*
X130583000Y-102418512D01*
X147498953Y-102418512D01*
X147628222Y-102731366D01*
X147867375Y-102970937D01*
X148180003Y-103100752D01*
X148518512Y-103101047D01*
X148831366Y-102971778D01*
X149070937Y-102732625D01*
X149200752Y-102419997D01*
X149201047Y-102081488D01*
X149071778Y-101768634D01*
X148832625Y-101529063D01*
X148807216Y-101518512D01*
X151298953Y-101518512D01*
X151428222Y-101831366D01*
X151667375Y-102070937D01*
X151980003Y-102200752D01*
X152318512Y-102201047D01*
X152631366Y-102071778D01*
X152870937Y-101832625D01*
X153000752Y-101519997D01*
X153001047Y-101181488D01*
X152871778Y-100868634D01*
X152632625Y-100629063D01*
X152319997Y-100499248D01*
X151981488Y-100498953D01*
X151668634Y-100628222D01*
X151429063Y-100867375D01*
X151299248Y-101180003D01*
X151298953Y-101518512D01*
X148807216Y-101518512D01*
X148519997Y-101399248D01*
X148181488Y-101398953D01*
X147868634Y-101528222D01*
X147629063Y-101767375D01*
X147499248Y-102080003D01*
X147498953Y-102418512D01*
X130583000Y-102418512D01*
X130583000Y-101493882D01*
X131719075Y-101493882D01*
X131848344Y-101806736D01*
X132087497Y-102046307D01*
X132400125Y-102176122D01*
X132738634Y-102176417D01*
X133051488Y-102047148D01*
X133086460Y-102012237D01*
X133235956Y-102074314D01*
X133574465Y-102074609D01*
X133887319Y-101945340D01*
X134126890Y-101706187D01*
X134256705Y-101393559D01*
X134256790Y-101296252D01*
X134368512Y-101296349D01*
X134681366Y-101167080D01*
X134920937Y-100927927D01*
X134965219Y-100821284D01*
X137267813Y-100821284D01*
X137397082Y-101134138D01*
X137636235Y-101373709D01*
X137948863Y-101503524D01*
X138287372Y-101503819D01*
X138600226Y-101374550D01*
X138839797Y-101135397D01*
X138865623Y-101073200D01*
X139664626Y-101073200D01*
X139793895Y-101386054D01*
X140033048Y-101625625D01*
X140345676Y-101755440D01*
X140684185Y-101755735D01*
X140997039Y-101626466D01*
X141236610Y-101387313D01*
X141249420Y-101356463D01*
X141421274Y-101356613D01*
X141734128Y-101227344D01*
X141973699Y-100988191D01*
X142103514Y-100675563D01*
X142103809Y-100337054D01*
X142004532Y-100096785D01*
X142342863Y-100097080D01*
X142655717Y-99967811D01*
X142705102Y-99918512D01*
X153198953Y-99918512D01*
X153328222Y-100231366D01*
X153567375Y-100470937D01*
X153880003Y-100600752D01*
X154218512Y-100601047D01*
X154531366Y-100471778D01*
X154770937Y-100232625D01*
X154817383Y-100120770D01*
X154917375Y-100220937D01*
X155230003Y-100350752D01*
X155568512Y-100351047D01*
X155881366Y-100221778D01*
X156120937Y-99982625D01*
X156250752Y-99669997D01*
X156251047Y-99331488D01*
X156183707Y-99168512D01*
X156698953Y-99168512D01*
X156828222Y-99481366D01*
X157067375Y-99720937D01*
X157380003Y-99850752D01*
X157718512Y-99851047D01*
X158031366Y-99721778D01*
X158149952Y-99603399D01*
X158217373Y-99670937D01*
X158530001Y-99800752D01*
X158868510Y-99801047D01*
X159181364Y-99671778D01*
X159275724Y-99577582D01*
X161867156Y-99577582D01*
X161996425Y-99890436D01*
X162235578Y-100130007D01*
X162235850Y-100130120D01*
X162235675Y-100330439D01*
X162364944Y-100643293D01*
X162604097Y-100882864D01*
X162916725Y-101012679D01*
X163149030Y-101012881D01*
X163057728Y-101232760D01*
X163057433Y-101571269D01*
X163186702Y-101884123D01*
X163425855Y-102123694D01*
X163738483Y-102253509D01*
X164076992Y-102253804D01*
X164389846Y-102124535D01*
X164629417Y-101885382D01*
X164759232Y-101572754D01*
X164759527Y-101234245D01*
X164630258Y-100921391D01*
X164574051Y-100865086D01*
X164629417Y-100809816D01*
X164759232Y-100497188D01*
X164759527Y-100158679D01*
X164630258Y-99845825D01*
X164391105Y-99606254D01*
X164078477Y-99476439D01*
X163739968Y-99476144D01*
X163644017Y-99515790D01*
X163569347Y-99440990D01*
X163569075Y-99440877D01*
X163569250Y-99240558D01*
X163439981Y-98927704D01*
X163200828Y-98688133D01*
X162888200Y-98558318D01*
X162549691Y-98558023D01*
X162236837Y-98687292D01*
X161997266Y-98926445D01*
X161867451Y-99239073D01*
X161867156Y-99577582D01*
X159275724Y-99577582D01*
X159420935Y-99432625D01*
X159550750Y-99119997D01*
X159551045Y-98781488D01*
X159421776Y-98468634D01*
X159182623Y-98229063D01*
X158869995Y-98099248D01*
X158531486Y-98098953D01*
X158218632Y-98228222D01*
X158100046Y-98346601D01*
X158032625Y-98279063D01*
X157719997Y-98149248D01*
X157381488Y-98148953D01*
X157068634Y-98278222D01*
X156829063Y-98517375D01*
X156699248Y-98830003D01*
X156698953Y-99168512D01*
X156183707Y-99168512D01*
X156121778Y-99018634D01*
X155882625Y-98779063D01*
X155569997Y-98649248D01*
X155231488Y-98648953D01*
X154918634Y-98778222D01*
X154679063Y-99017375D01*
X154632617Y-99129230D01*
X154532625Y-99029063D01*
X154219997Y-98899248D01*
X153881488Y-98898953D01*
X153568634Y-99028222D01*
X153329063Y-99267375D01*
X153199248Y-99580003D01*
X153198953Y-99918512D01*
X142705102Y-99918512D01*
X142895288Y-99728658D01*
X143025103Y-99416030D01*
X143025398Y-99077521D01*
X142896129Y-98764667D01*
X142656976Y-98525096D01*
X142344348Y-98395281D01*
X142005839Y-98394986D01*
X141692985Y-98524255D01*
X141453414Y-98763408D01*
X141323599Y-99076036D01*
X141323304Y-99414545D01*
X141422581Y-99654814D01*
X141084250Y-99654519D01*
X140771396Y-99783788D01*
X140531825Y-100022941D01*
X140519015Y-100053791D01*
X140347161Y-100053641D01*
X140034307Y-100182910D01*
X139794736Y-100422063D01*
X139664921Y-100734691D01*
X139664626Y-101073200D01*
X138865623Y-101073200D01*
X138969612Y-100822769D01*
X138969907Y-100484260D01*
X138840638Y-100171406D01*
X138601485Y-99931835D01*
X138288857Y-99802020D01*
X137950348Y-99801725D01*
X137637494Y-99930994D01*
X137397923Y-100170147D01*
X137268108Y-100482775D01*
X137267813Y-100821284D01*
X134965219Y-100821284D01*
X135050752Y-100615299D01*
X135051047Y-100276790D01*
X134921778Y-99963936D01*
X134682625Y-99724365D01*
X134369997Y-99594550D01*
X134031488Y-99594255D01*
X133718634Y-99723524D01*
X133479063Y-99962677D01*
X133349248Y-100275305D01*
X133349163Y-100372612D01*
X133237441Y-100372515D01*
X132924587Y-100501784D01*
X132889615Y-100536695D01*
X132740119Y-100474618D01*
X132401610Y-100474323D01*
X132088756Y-100603592D01*
X131849185Y-100842745D01*
X131719370Y-101155373D01*
X131719075Y-101493882D01*
X130583000Y-101493882D01*
X130583000Y-97394862D01*
X133252734Y-97394862D01*
X133382003Y-97707716D01*
X133621156Y-97947287D01*
X133933784Y-98077102D01*
X134272293Y-98077397D01*
X134585147Y-97948128D01*
X134614814Y-97918512D01*
X137298953Y-97918512D01*
X137428222Y-98231366D01*
X137667375Y-98470937D01*
X137980003Y-98600752D01*
X138318512Y-98601047D01*
X138631366Y-98471778D01*
X138870937Y-98232625D01*
X139000752Y-97919997D01*
X139001047Y-97581488D01*
X138975909Y-97520650D01*
X139100752Y-97219997D01*
X139100800Y-97164396D01*
X140544819Y-97164396D01*
X140674088Y-97477250D01*
X140913241Y-97716821D01*
X141225869Y-97846636D01*
X141564378Y-97846931D01*
X141877232Y-97717662D01*
X142116803Y-97478509D01*
X142213480Y-97245687D01*
X142228222Y-97281366D01*
X142467375Y-97520937D01*
X142780003Y-97650752D01*
X143118512Y-97651047D01*
X143431366Y-97521778D01*
X143670937Y-97282625D01*
X143676797Y-97268512D01*
X160798953Y-97268512D01*
X160928222Y-97581366D01*
X161167375Y-97820937D01*
X161480003Y-97950752D01*
X161818512Y-97951047D01*
X162131366Y-97821778D01*
X162370937Y-97582625D01*
X162500752Y-97269997D01*
X162501047Y-96931488D01*
X162371778Y-96618634D01*
X162132625Y-96379063D01*
X161819997Y-96249248D01*
X161481488Y-96248953D01*
X161168634Y-96378222D01*
X160929063Y-96617375D01*
X160799248Y-96930003D01*
X160798953Y-97268512D01*
X143676797Y-97268512D01*
X143800752Y-96969997D01*
X143801047Y-96631488D01*
X143671778Y-96318634D01*
X143432625Y-96079063D01*
X143119997Y-95949248D01*
X142781488Y-95948953D01*
X142468634Y-96078222D01*
X142229063Y-96317375D01*
X142132386Y-96550197D01*
X142117644Y-96514518D01*
X141878491Y-96274947D01*
X141565863Y-96145132D01*
X141227354Y-96144837D01*
X140914500Y-96274106D01*
X140674929Y-96513259D01*
X140545114Y-96825887D01*
X140544819Y-97164396D01*
X139100800Y-97164396D01*
X139101047Y-96881488D01*
X138971778Y-96568634D01*
X138732625Y-96329063D01*
X138419997Y-96199248D01*
X138081488Y-96198953D01*
X137768634Y-96328222D01*
X137529063Y-96567375D01*
X137399248Y-96880003D01*
X137398953Y-97218512D01*
X137424091Y-97279350D01*
X137299248Y-97580003D01*
X137298953Y-97918512D01*
X134614814Y-97918512D01*
X134824718Y-97708975D01*
X134954533Y-97396347D01*
X134954828Y-97057838D01*
X134825559Y-96744984D01*
X134586406Y-96505413D01*
X134273778Y-96375598D01*
X133935269Y-96375303D01*
X133622415Y-96504572D01*
X133382844Y-96743725D01*
X133253029Y-97056353D01*
X133252734Y-97394862D01*
X130583000Y-97394862D01*
X130583000Y-97248187D01*
X130830003Y-97350752D01*
X131168512Y-97351047D01*
X131481366Y-97221778D01*
X131720937Y-96982625D01*
X131850752Y-96669997D01*
X131851047Y-96331488D01*
X131721778Y-96018634D01*
X131482625Y-95779063D01*
X131169997Y-95649248D01*
X130831488Y-95648953D01*
X130583000Y-95751626D01*
X130583000Y-93147664D01*
X130741652Y-93147664D01*
X131046708Y-93885955D01*
X131611074Y-94451307D01*
X132348832Y-94757651D01*
X133147664Y-94758348D01*
X133885955Y-94453292D01*
X134451307Y-93888926D01*
X134480545Y-93818512D01*
X153098953Y-93818512D01*
X153228222Y-94131366D01*
X153467375Y-94370937D01*
X153780003Y-94500752D01*
X154118512Y-94501047D01*
X154431366Y-94371778D01*
X154670937Y-94132625D01*
X154800752Y-93819997D01*
X154800884Y-93668512D01*
X156598953Y-93668512D01*
X156728222Y-93981366D01*
X156967375Y-94220937D01*
X157280003Y-94350752D01*
X157618512Y-94351047D01*
X157931366Y-94221778D01*
X158170937Y-93982625D01*
X158300752Y-93669997D01*
X158301047Y-93331488D01*
X158225093Y-93147664D01*
X161241652Y-93147664D01*
X161546708Y-93885955D01*
X162111074Y-94451307D01*
X162848832Y-94757651D01*
X163647664Y-94758348D01*
X164385955Y-94453292D01*
X164951307Y-93888926D01*
X165257651Y-93151168D01*
X165258348Y-92352336D01*
X164953292Y-91614045D01*
X164388926Y-91048693D01*
X163651168Y-90742349D01*
X162852336Y-90741652D01*
X162114045Y-91046708D01*
X161548693Y-91611074D01*
X161242349Y-92348832D01*
X161241652Y-93147664D01*
X158225093Y-93147664D01*
X158171778Y-93018634D01*
X157932625Y-92779063D01*
X157619997Y-92649248D01*
X157281488Y-92648953D01*
X156968634Y-92778222D01*
X156729063Y-93017375D01*
X156599248Y-93330003D01*
X156598953Y-93668512D01*
X154800884Y-93668512D01*
X154801047Y-93481488D01*
X154671778Y-93168634D01*
X154432625Y-92929063D01*
X154119997Y-92799248D01*
X153781488Y-92798953D01*
X153468634Y-92928222D01*
X153229063Y-93167375D01*
X153099248Y-93480003D01*
X153098953Y-93818512D01*
X134480545Y-93818512D01*
X134757651Y-93151168D01*
X134758348Y-92352336D01*
X134453292Y-91614045D01*
X133888926Y-91048693D01*
X133151168Y-90742349D01*
X132352336Y-90741652D01*
X131614045Y-91046708D01*
X131048693Y-91611074D01*
X130742349Y-92348832D01*
X130741652Y-93147664D01*
X130583000Y-93147664D01*
X130583000Y-92807422D01*
X130758505Y-91925096D01*
X131225777Y-91225775D01*
X131925095Y-90758505D01*
X132807421Y-90583000D01*
X138017107Y-90583000D01*
X137891778Y-90708110D01*
X137891778Y-90708110D01*
G37*
X137891778Y-90708110D02*
X137692228Y-91188681D01*
X137691774Y-91709036D01*
X137890485Y-92189954D01*
X138258110Y-92558222D01*
X138738681Y-92757772D01*
X139259036Y-92758226D01*
X139739954Y-92559515D01*
X140108222Y-92191890D01*
X140307772Y-91711319D01*
X140308226Y-91190964D01*
X140109515Y-90710046D01*
X139982691Y-90583000D01*
X144617107Y-90583000D01*
X144491778Y-90708110D01*
X144292228Y-91188681D01*
X144291774Y-91709036D01*
X144490485Y-92189954D01*
X144858110Y-92558222D01*
X145299064Y-92741322D01*
X145298953Y-92868512D01*
X145428222Y-93181366D01*
X145667375Y-93420937D01*
X145980003Y-93550752D01*
X146318512Y-93551047D01*
X146631366Y-93421778D01*
X146870937Y-93182625D01*
X147000752Y-92869997D01*
X147001047Y-92531488D01*
X146871778Y-92218634D01*
X146748426Y-92095067D01*
X146907772Y-91711319D01*
X146908226Y-91190964D01*
X146709515Y-90710046D01*
X146582691Y-90583000D01*
X163192578Y-90583000D01*
X164074904Y-90758505D01*
X164774225Y-91225777D01*
X165241495Y-91925095D01*
X165417000Y-92807421D01*
X165417000Y-123192579D01*
X165241495Y-124074905D01*
X164774225Y-124774223D01*
X164074904Y-125241495D01*
X163192578Y-125417000D01*
X160586502Y-125417000D01*
X160620937Y-125382625D01*
X160750752Y-125069997D01*
X160751047Y-124731488D01*
X160621778Y-124418634D01*
X160382625Y-124179063D01*
X160069997Y-124049248D01*
X159731488Y-124048953D01*
X159418634Y-124178222D01*
X159179063Y-124417375D01*
X159049248Y-124730003D01*
X159048953Y-125068512D01*
X159178222Y-125381366D01*
X159213794Y-125417000D01*
X146581552Y-125417000D01*
X146581552Y-124036400D01*
X146546130Y-123848147D01*
X146533496Y-123828512D01*
X150458953Y-123828512D01*
X150588222Y-124141366D01*
X150827375Y-124380937D01*
X151140003Y-124510752D01*
X151478512Y-124511047D01*
X151791366Y-124381778D01*
X152030937Y-124142625D01*
X152160752Y-123829997D01*
X152160915Y-123643138D01*
X152383628Y-123866240D01*
X152696256Y-123996055D01*
X153034765Y-123996350D01*
X153122582Y-123960065D01*
X153203412Y-124041036D01*
X153516040Y-124170851D01*
X153712702Y-124171022D01*
X153714479Y-124175323D01*
X153953632Y-124414894D01*
X154266260Y-124544709D01*
X154604769Y-124545004D01*
X154854778Y-124441702D01*
X154878222Y-124498442D01*
X155117375Y-124738013D01*
X155430003Y-124867828D01*
X155768512Y-124868123D01*
X156081366Y-124738854D01*
X156320937Y-124499701D01*
X156450752Y-124187073D01*
X156451047Y-123848564D01*
X156321778Y-123535710D01*
X156174837Y-123388512D01*
X158478953Y-123388512D01*
X158608222Y-123701366D01*
X158847375Y-123940937D01*
X159160003Y-124070752D01*
X159498512Y-124071047D01*
X159811366Y-123941778D01*
X160050937Y-123702625D01*
X160073758Y-123647664D01*
X161241652Y-123647664D01*
X161546708Y-124385955D01*
X162111074Y-124951307D01*
X162848832Y-125257651D01*
X163647664Y-125258348D01*
X164385955Y-124953292D01*
X164951307Y-124388926D01*
X165257651Y-123651168D01*
X165258348Y-122852336D01*
X164953292Y-122114045D01*
X164388926Y-121548693D01*
X163651168Y-121242349D01*
X162852336Y-121241652D01*
X162114045Y-121546708D01*
X161548693Y-122111074D01*
X161242349Y-122848832D01*
X161241652Y-123647664D01*
X160073758Y-123647664D01*
X160180752Y-123389997D01*
X160181047Y-123051488D01*
X160051778Y-122738634D01*
X159812625Y-122499063D01*
X159499997Y-122369248D01*
X159161488Y-122368953D01*
X158848634Y-122498222D01*
X158609063Y-122737375D01*
X158479248Y-123050003D01*
X158478953Y-123388512D01*
X156174837Y-123388512D01*
X156082625Y-123296139D01*
X155769997Y-123166324D01*
X155431488Y-123166029D01*
X155181479Y-123269331D01*
X155158035Y-123212591D01*
X154918882Y-122973020D01*
X154606254Y-122843205D01*
X154409592Y-122843034D01*
X154407815Y-122838733D01*
X154168662Y-122599162D01*
X153856034Y-122469347D01*
X153517525Y-122469052D01*
X153429708Y-122505337D01*
X153348878Y-122424366D01*
X153036250Y-122294551D01*
X152697741Y-122294256D01*
X152384887Y-122423525D01*
X152145316Y-122662678D01*
X152015501Y-122975306D01*
X152015338Y-123162165D01*
X151792625Y-122939063D01*
X151479997Y-122809248D01*
X151141488Y-122808953D01*
X150828634Y-122938222D01*
X150589063Y-123177375D01*
X150459248Y-123490003D01*
X150458953Y-123828512D01*
X146533496Y-123828512D01*
X146434872Y-123675247D01*
X146265112Y-123559255D01*
X146063600Y-123518448D01*
X145927853Y-123518448D01*
X146169868Y-123356739D01*
X146467193Y-122911760D01*
X146571600Y-122386871D01*
X146571600Y-122333129D01*
X146499074Y-121968512D01*
X147648953Y-121968512D01*
X147778222Y-122281366D01*
X148017375Y-122520937D01*
X148330003Y-122650752D01*
X148668512Y-122651047D01*
X148981366Y-122521778D01*
X149220937Y-122282625D01*
X149350752Y-121969997D01*
X149351047Y-121631488D01*
X149221778Y-121318634D01*
X148982625Y-121079063D01*
X148669997Y-120949248D01*
X148331488Y-120948953D01*
X148018634Y-121078222D01*
X147779063Y-121317375D01*
X147649248Y-121630003D01*
X147648953Y-121968512D01*
X146499074Y-121968512D01*
X146467193Y-121808240D01*
X146169868Y-121363261D01*
X145724889Y-121065936D01*
X145200000Y-120961529D01*
X144675111Y-121065936D01*
X144230132Y-121363261D01*
X143932807Y-121808240D01*
X143930000Y-121822352D01*
X143927193Y-121808240D01*
X143629868Y-121363261D01*
X143184889Y-121065936D01*
X142660000Y-120961529D01*
X142135111Y-121065936D01*
X141690132Y-121363261D01*
X141392807Y-121808240D01*
X141390000Y-121822352D01*
X141387193Y-121808240D01*
X141089868Y-121363261D01*
X140644889Y-121065936D01*
X140120000Y-120961529D01*
X139595111Y-121065936D01*
X139150132Y-121363261D01*
X138852807Y-121808240D01*
X138850000Y-121822352D01*
X138847193Y-121808240D01*
X138549868Y-121363261D01*
X138104889Y-121065936D01*
X137580000Y-120961529D01*
X137055111Y-121065936D01*
X136610132Y-121363261D01*
X136312807Y-121808240D01*
X136208400Y-122333129D01*
X136208400Y-122386871D01*
X136312807Y-122911760D01*
X136610132Y-123356739D01*
X137019097Y-123630000D01*
X136610132Y-123903261D01*
X136312807Y-124348240D01*
X136208400Y-124873129D01*
X136208400Y-124926871D01*
X136305893Y-125417000D01*
X132807421Y-125417000D01*
X131925095Y-125241495D01*
X131225777Y-124774225D01*
X130758505Y-124074904D01*
X130673522Y-123647664D01*
X130741652Y-123647664D01*
X131046708Y-124385955D01*
X131611074Y-124951307D01*
X132348832Y-125257651D01*
X133147664Y-125258348D01*
X133885955Y-124953292D01*
X134451307Y-124388926D01*
X134757651Y-123651168D01*
X134758348Y-122852336D01*
X134453292Y-122114045D01*
X133888926Y-121548693D01*
X133151168Y-121242349D01*
X132352336Y-121241652D01*
X131614045Y-121546708D01*
X131048693Y-122111074D01*
X130742349Y-122848832D01*
X130741652Y-123647664D01*
X130673522Y-123647664D01*
X130583000Y-123192578D01*
X130583000Y-120773193D01*
X151615926Y-120773193D01*
X151745195Y-121086047D01*
X151984348Y-121325618D01*
X152296976Y-121455433D01*
X152635485Y-121455728D01*
X152869156Y-121359177D01*
X152902221Y-121439200D01*
X153141374Y-121678771D01*
X153454002Y-121808586D01*
X153792511Y-121808881D01*
X154105365Y-121679612D01*
X154344936Y-121440459D01*
X154395672Y-121318275D01*
X154445930Y-121368621D01*
X154758558Y-121498436D01*
X155097067Y-121498731D01*
X155409921Y-121369462D01*
X155649492Y-121130309D01*
X155719790Y-120961013D01*
X155758512Y-120961047D01*
X156071366Y-120831778D01*
X156310937Y-120592625D01*
X156440752Y-120279997D01*
X156441047Y-119941488D01*
X156311778Y-119628634D01*
X156072625Y-119389063D01*
X155759997Y-119259248D01*
X155421488Y-119258953D01*
X155108634Y-119388222D01*
X154869063Y-119627375D01*
X154812778Y-119762924D01*
X154642542Y-119592390D01*
X154329914Y-119462575D01*
X153991405Y-119462280D01*
X153678551Y-119591549D01*
X153438980Y-119830702D01*
X153309165Y-120143330D01*
X153309144Y-120167255D01*
X153221816Y-120203338D01*
X153188751Y-120123315D01*
X152949598Y-119883744D01*
X152636970Y-119753929D01*
X152298461Y-119753634D01*
X151985607Y-119882903D01*
X151746036Y-120122056D01*
X151616221Y-120434684D01*
X151615926Y-120773193D01*
X130583000Y-120773193D01*
X130583000Y-115246279D01*
X137874972Y-115246279D01*
X138004241Y-115559133D01*
X138243394Y-115798704D01*
X138556022Y-115928519D01*
X138729755Y-115928670D01*
X138729605Y-116100913D01*
X138858874Y-116413767D01*
X139098027Y-116653338D01*
X139349435Y-116757732D01*
X139452659Y-117007552D01*
X139691812Y-117247123D01*
X140004440Y-117376938D01*
X140342949Y-117377233D01*
X140655803Y-117247964D01*
X140706307Y-117197548D01*
X140833009Y-117250159D01*
X141171518Y-117250454D01*
X141484372Y-117121185D01*
X141576114Y-117029603D01*
X141617375Y-117070937D01*
X141930003Y-117200752D01*
X142268512Y-117201047D01*
X142324633Y-117177858D01*
X142517375Y-117370937D01*
X142830003Y-117500752D01*
X143168512Y-117501047D01*
X143481366Y-117371778D01*
X143720937Y-117132625D01*
X143850752Y-116819997D01*
X143850884Y-116668512D01*
X145648953Y-116668512D01*
X145778222Y-116981366D01*
X146017375Y-117220937D01*
X146330003Y-117350752D01*
X146668512Y-117351047D01*
X146981366Y-117221778D01*
X147220937Y-116982625D01*
X147338911Y-116698512D01*
X151688953Y-116698512D01*
X151818222Y-117011366D01*
X152057375Y-117250937D01*
X152370003Y-117380752D01*
X152708512Y-117381047D01*
X153021366Y-117251778D01*
X153260937Y-117012625D01*
X153390752Y-116699997D01*
X153391047Y-116361488D01*
X153261778Y-116048634D01*
X153022625Y-115809063D01*
X152709997Y-115679248D01*
X152371488Y-115678953D01*
X152058634Y-115808222D01*
X151819063Y-116047375D01*
X151689248Y-116360003D01*
X151688953Y-116698512D01*
X147338911Y-116698512D01*
X147350752Y-116669997D01*
X147351047Y-116331488D01*
X147221778Y-116018634D01*
X146982625Y-115779063D01*
X146669997Y-115649248D01*
X146331488Y-115648953D01*
X146018634Y-115778222D01*
X145779063Y-116017375D01*
X145649248Y-116330003D01*
X145648953Y-116668512D01*
X143850884Y-116668512D01*
X143851047Y-116481488D01*
X143721778Y-116168634D01*
X143482625Y-115929063D01*
X143169997Y-115799248D01*
X142831488Y-115798953D01*
X142775367Y-115822142D01*
X142582625Y-115629063D01*
X142269997Y-115499248D01*
X141931488Y-115498953D01*
X141618634Y-115628222D01*
X141526892Y-115719804D01*
X141485631Y-115678470D01*
X141173003Y-115548655D01*
X140834494Y-115548360D01*
X140521640Y-115677629D01*
X140471136Y-115728045D01*
X140405654Y-115700855D01*
X140302430Y-115451035D01*
X140063277Y-115211464D01*
X139750649Y-115081649D01*
X139576916Y-115081498D01*
X139577066Y-114909255D01*
X139447797Y-114596401D01*
X139208644Y-114356830D01*
X138896016Y-114227015D01*
X138557507Y-114226720D01*
X138244653Y-114355989D01*
X138005082Y-114595142D01*
X137875267Y-114907770D01*
X137874972Y-115246279D01*
X130583000Y-115246279D01*
X130583000Y-114436240D01*
X130767375Y-114620937D01*
X131080003Y-114750752D01*
X131418512Y-114751047D01*
X131731366Y-114621778D01*
X131970937Y-114382625D01*
X132030778Y-114238512D01*
X134098953Y-114238512D01*
X134228222Y-114551366D01*
X134467375Y-114790937D01*
X134780003Y-114920752D01*
X135118512Y-114921047D01*
X135431366Y-114791778D01*
X135670937Y-114552625D01*
X135800752Y-114239997D01*
X135800767Y-114222537D01*
X142256137Y-114222537D01*
X142385406Y-114535391D01*
X142624559Y-114774962D01*
X142820141Y-114856175D01*
X142945331Y-115159157D01*
X143184484Y-115398728D01*
X143497112Y-115528543D01*
X143835621Y-115528838D01*
X144148475Y-115399569D01*
X144388046Y-115160416D01*
X144517861Y-114847788D01*
X144518156Y-114509279D01*
X144388887Y-114196425D01*
X144361023Y-114168512D01*
X147188953Y-114168512D01*
X147318222Y-114481366D01*
X147557375Y-114720937D01*
X147870003Y-114850752D01*
X148208512Y-114851047D01*
X148521366Y-114721778D01*
X148760937Y-114482625D01*
X148890752Y-114169997D01*
X148891047Y-113831488D01*
X148761778Y-113518634D01*
X148522625Y-113279063D01*
X148209997Y-113149248D01*
X147871488Y-113148953D01*
X147558634Y-113278222D01*
X147319063Y-113517375D01*
X147189248Y-113830003D01*
X147188953Y-114168512D01*
X144361023Y-114168512D01*
X144149734Y-113956854D01*
X143954152Y-113875641D01*
X143828962Y-113572659D01*
X143589809Y-113333088D01*
X143277181Y-113203273D01*
X142938672Y-113202978D01*
X142625818Y-113332247D01*
X142386247Y-113571400D01*
X142256432Y-113884028D01*
X142256137Y-114222537D01*
X135800767Y-114222537D01*
X135801047Y-113901488D01*
X135754522Y-113788889D01*
X135840937Y-113702625D01*
X135970752Y-113389997D01*
X135971047Y-113051488D01*
X135906532Y-112895350D01*
X135932498Y-112869429D01*
X136062313Y-112556801D01*
X136062608Y-112218292D01*
X135984359Y-112028914D01*
X135996419Y-112016875D01*
X136126234Y-111704247D01*
X136126491Y-111408512D01*
X146272622Y-111408512D01*
X146401891Y-111721366D01*
X146641044Y-111960937D01*
X146953672Y-112090752D01*
X147292181Y-112091047D01*
X147500335Y-112005039D01*
X149788776Y-112005039D01*
X149918045Y-112317893D01*
X150157198Y-112557464D01*
X150469826Y-112687279D01*
X150600049Y-112687392D01*
X150641443Y-112787574D01*
X150880596Y-113027145D01*
X150949139Y-113055606D01*
X150948953Y-113268512D01*
X151078222Y-113581366D01*
X151317375Y-113820937D01*
X151630003Y-113950752D01*
X151968512Y-113951047D01*
X152281366Y-113821778D01*
X152520937Y-113582625D01*
X152650752Y-113269997D01*
X152651047Y-112931488D01*
X152521778Y-112618634D01*
X152282625Y-112379063D01*
X152214082Y-112350602D01*
X152214268Y-112137696D01*
X152193445Y-112087300D01*
X152272833Y-112120265D01*
X152611342Y-112120560D01*
X152924196Y-111991291D01*
X153163767Y-111752138D01*
X153293582Y-111439510D01*
X153293877Y-111101001D01*
X153258496Y-111015372D01*
X153302645Y-110997130D01*
X153454730Y-110845311D01*
X153374019Y-111039683D01*
X153373724Y-111378192D01*
X153502993Y-111691046D01*
X153742146Y-111930617D01*
X153997684Y-112036726D01*
X153852519Y-112181638D01*
X153722704Y-112494266D01*
X153722409Y-112832775D01*
X153779867Y-112971834D01*
X153604587Y-113044258D01*
X153365016Y-113283411D01*
X153235201Y-113596039D01*
X153234906Y-113934548D01*
X153364175Y-114247402D01*
X153603328Y-114486973D01*
X153857198Y-114592389D01*
X153839990Y-114633830D01*
X153839695Y-114972339D01*
X153968964Y-115285193D01*
X154208117Y-115524764D01*
X154232718Y-115534979D01*
X154232553Y-115724566D01*
X154361822Y-116037420D01*
X154430884Y-116106602D01*
X154388042Y-116209776D01*
X154387747Y-116548285D01*
X154517016Y-116861139D01*
X154756169Y-117100710D01*
X155068797Y-117230525D01*
X155407306Y-117230820D01*
X155720160Y-117101551D01*
X155749730Y-117072033D01*
X155951681Y-117155891D01*
X156074608Y-117155998D01*
X156128384Y-117286146D01*
X156367537Y-117525717D01*
X156680165Y-117655532D01*
X157018674Y-117655827D01*
X157331528Y-117526558D01*
X157571099Y-117287405D01*
X157667775Y-117054583D01*
X157687875Y-117074718D01*
X158000503Y-117204533D01*
X158339012Y-117204828D01*
X158651866Y-117075559D01*
X158891437Y-116836406D01*
X159021252Y-116523778D01*
X159021547Y-116185269D01*
X158892278Y-115872415D01*
X158653125Y-115632844D01*
X158340497Y-115503029D01*
X158001988Y-115502734D01*
X157935435Y-115530233D01*
X157781010Y-115375539D01*
X157468382Y-115245724D01*
X157129873Y-115245429D01*
X156817019Y-115374698D01*
X156605723Y-115585625D01*
X156604303Y-115584202D01*
X156291675Y-115454387D01*
X155953166Y-115454092D01*
X155934582Y-115461771D01*
X155934647Y-115387542D01*
X155822420Y-115115933D01*
X155937025Y-115116033D01*
X156249879Y-114986764D01*
X156489450Y-114747611D01*
X156619265Y-114434983D01*
X156619560Y-114096474D01*
X156490291Y-113783620D01*
X156251138Y-113544049D01*
X156043828Y-113457966D01*
X156087272Y-113353343D01*
X156087469Y-113127029D01*
X156151797Y-113127085D01*
X156464651Y-112997816D01*
X156704222Y-112758663D01*
X156834037Y-112446035D01*
X156834332Y-112107526D01*
X156705063Y-111794672D01*
X156654688Y-111744208D01*
X161267103Y-111744208D01*
X161389694Y-112040901D01*
X161305762Y-112243032D01*
X161305467Y-112581541D01*
X161434736Y-112894395D01*
X161673889Y-113133966D01*
X161986517Y-113263781D01*
X162325026Y-113264076D01*
X162637880Y-113134807D01*
X162877451Y-112895654D01*
X163007266Y-112583026D01*
X163007561Y-112244517D01*
X162884970Y-111947824D01*
X162968902Y-111745693D01*
X162969197Y-111407184D01*
X162883068Y-111198738D01*
X163003709Y-110908204D01*
X163004004Y-110569695D01*
X162888536Y-110290241D01*
X163000752Y-110019995D01*
X163001047Y-109681486D01*
X162894969Y-109424759D01*
X163000756Y-109169997D01*
X163001051Y-108831488D01*
X162915679Y-108624874D01*
X163000752Y-108419997D01*
X163001047Y-108081488D01*
X162915679Y-107874881D01*
X163000752Y-107670003D01*
X163001047Y-107331494D01*
X162915676Y-107124881D01*
X163000752Y-106919997D01*
X163001047Y-106581488D01*
X162871778Y-106268634D01*
X162632625Y-106029063D01*
X162319997Y-105899248D01*
X161981488Y-105898953D01*
X161668634Y-106028222D01*
X161429063Y-106267375D01*
X161299248Y-106580003D01*
X161298953Y-106918512D01*
X161384324Y-107125125D01*
X161299248Y-107330009D01*
X161298953Y-107668518D01*
X161384321Y-107875125D01*
X161299248Y-108080003D01*
X161298953Y-108418512D01*
X161384325Y-108625126D01*
X161299252Y-108830003D01*
X161298957Y-109168512D01*
X161405035Y-109425239D01*
X161299248Y-109680001D01*
X161298953Y-110018510D01*
X161414421Y-110297964D01*
X161302205Y-110568210D01*
X161301910Y-110906719D01*
X161388039Y-111115165D01*
X161267398Y-111405699D01*
X161267103Y-111744208D01*
X156654688Y-111744208D01*
X156465910Y-111555101D01*
X156153282Y-111425286D01*
X155831708Y-111425006D01*
X155723017Y-111316125D01*
X155749438Y-111289750D01*
X155783435Y-111207877D01*
X155994719Y-111295610D01*
X156333228Y-111295905D01*
X156646082Y-111166636D01*
X156885653Y-110927483D01*
X156987183Y-110682972D01*
X157030001Y-110700752D01*
X157368510Y-110701047D01*
X157681364Y-110571778D01*
X157920935Y-110332625D01*
X158050750Y-110019997D01*
X158051045Y-109681488D01*
X157944965Y-109424755D01*
X158050750Y-109169997D01*
X158051045Y-108831488D01*
X157955321Y-108599819D01*
X158050752Y-108369997D01*
X158051047Y-108031488D01*
X157965677Y-107824878D01*
X158050752Y-107619997D01*
X158051047Y-107281488D01*
X157921778Y-106968634D01*
X157813366Y-106860032D01*
X157850752Y-106769997D01*
X157851047Y-106431488D01*
X157721778Y-106118634D01*
X157482625Y-105879063D01*
X157169997Y-105749248D01*
X156831488Y-105748953D01*
X156518634Y-105878222D01*
X156279063Y-106117375D01*
X156149248Y-106430003D01*
X156148953Y-106768512D01*
X156221610Y-106944354D01*
X156018634Y-107028222D01*
X155779063Y-107267375D01*
X155649248Y-107580003D01*
X155648953Y-107918512D01*
X155778222Y-108231366D01*
X155780702Y-108233850D01*
X155699252Y-108430003D01*
X155698957Y-108768512D01*
X155794680Y-109000178D01*
X155702904Y-109221197D01*
X155528531Y-109148791D01*
X155190022Y-109148496D01*
X154877168Y-109277765D01*
X154637597Y-109516918D01*
X154507782Y-109829546D01*
X154507525Y-110124888D01*
X154307564Y-110324500D01*
X154293305Y-110358840D01*
X154056259Y-110358633D01*
X153743405Y-110487902D01*
X153591320Y-110639721D01*
X153672031Y-110445349D01*
X153672326Y-110106840D01*
X153543057Y-109793986D01*
X153303904Y-109554415D01*
X152991276Y-109424600D01*
X152652767Y-109424305D01*
X152339913Y-109553574D01*
X152100342Y-109792727D01*
X152025779Y-109972293D01*
X151982625Y-109929063D01*
X151669997Y-109799248D01*
X151331488Y-109798953D01*
X151018634Y-109928222D01*
X150779063Y-110167375D01*
X150649248Y-110480003D01*
X150648953Y-110818512D01*
X150718032Y-110985695D01*
X150471311Y-110985480D01*
X150158457Y-111114749D01*
X149918886Y-111353902D01*
X149789071Y-111666530D01*
X149788776Y-112005039D01*
X147500335Y-112005039D01*
X147605035Y-111961778D01*
X147844606Y-111722625D01*
X147974421Y-111409997D01*
X147974716Y-111071488D01*
X147845447Y-110758634D01*
X147606294Y-110519063D01*
X147293666Y-110389248D01*
X146955157Y-110388953D01*
X146642303Y-110518222D01*
X146402732Y-110757375D01*
X146272917Y-111070003D01*
X146272622Y-111408512D01*
X136126491Y-111408512D01*
X136126529Y-111365738D01*
X135997260Y-111052884D01*
X135758107Y-110813313D01*
X135445479Y-110683498D01*
X135106970Y-110683203D01*
X134794116Y-110812472D01*
X134554545Y-111051625D01*
X134424730Y-111364253D01*
X134424435Y-111702762D01*
X134502684Y-111892140D01*
X134490624Y-111904179D01*
X134360809Y-112216807D01*
X134360514Y-112555316D01*
X134425029Y-112711454D01*
X134399063Y-112737375D01*
X134269248Y-113050003D01*
X134268953Y-113388512D01*
X134315478Y-113501111D01*
X134229063Y-113587375D01*
X134099248Y-113900003D01*
X134098953Y-114238512D01*
X132030778Y-114238512D01*
X132100752Y-114069997D01*
X132101047Y-113731488D01*
X131971778Y-113418634D01*
X131732625Y-113179063D01*
X131419997Y-113049248D01*
X131081488Y-113048953D01*
X130768634Y-113178222D01*
X130583000Y-113363532D01*
X130583000Y-109368512D01*
X142298953Y-109368512D01*
X142428222Y-109681366D01*
X142667375Y-109920937D01*
X142980003Y-110050752D01*
X143318512Y-110051047D01*
X143631366Y-109921778D01*
X143870937Y-109682625D01*
X144000752Y-109369997D01*
X144001047Y-109031488D01*
X143871778Y-108718634D01*
X143632625Y-108479063D01*
X143319997Y-108349248D01*
X142981488Y-108348953D01*
X142668634Y-108478222D01*
X142429063Y-108717375D01*
X142299248Y-109030003D01*
X142298953Y-109368512D01*
X130583000Y-109368512D01*
X130583000Y-108236327D01*
X130717375Y-108370937D01*
X131030003Y-108500752D01*
X131368512Y-108501047D01*
X131681366Y-108371778D01*
X131920937Y-108132625D01*
X132047709Y-107827326D01*
X132077561Y-107839722D01*
X132416070Y-107840017D01*
X132728924Y-107710748D01*
X132968495Y-107471595D01*
X133098310Y-107158967D01*
X133098605Y-106820458D01*
X133021463Y-106633759D01*
X133150752Y-106322397D01*
X133151047Y-105983888D01*
X133021778Y-105671034D01*
X133019261Y-105668512D01*
X135848953Y-105668512D01*
X135978222Y-105981366D01*
X136217375Y-106220937D01*
X136530003Y-106350752D01*
X136868512Y-106351047D01*
X137181366Y-106221778D01*
X137420937Y-105982625D01*
X137550752Y-105669997D01*
X137550788Y-105628512D01*
X139018953Y-105628512D01*
X139148222Y-105941366D01*
X139387375Y-106180937D01*
X139700003Y-106310752D01*
X140038512Y-106311047D01*
X140351366Y-106181778D01*
X140590937Y-105942625D01*
X140720752Y-105629997D01*
X140720825Y-105545876D01*
X143924339Y-105545876D01*
X144053608Y-105858730D01*
X144292761Y-106098301D01*
X144605389Y-106228116D01*
X144943898Y-106228411D01*
X144969356Y-106217892D01*
X145078222Y-106481366D01*
X145317375Y-106720937D01*
X145505728Y-106799148D01*
X145281488Y-106798953D01*
X144968634Y-106928222D01*
X144729063Y-107167375D01*
X144599248Y-107480003D01*
X144599174Y-107565392D01*
X144447114Y-107628222D01*
X144207543Y-107867375D01*
X144077728Y-108180003D01*
X144077433Y-108518512D01*
X144206702Y-108831366D01*
X144445855Y-109070937D01*
X144758483Y-109200752D01*
X145096992Y-109201047D01*
X145409846Y-109071778D01*
X145649417Y-108832625D01*
X145759086Y-108568512D01*
X151948953Y-108568512D01*
X152078222Y-108881366D01*
X152317375Y-109120937D01*
X152630003Y-109250752D01*
X152968512Y-109251047D01*
X153281366Y-109121778D01*
X153520937Y-108882625D01*
X153650752Y-108569997D01*
X153651047Y-108231488D01*
X153521778Y-107918634D01*
X153282625Y-107679063D01*
X152969997Y-107549248D01*
X152631488Y-107548953D01*
X152318634Y-107678222D01*
X152079063Y-107917375D01*
X151949248Y-108230003D01*
X151948953Y-108568512D01*
X145759086Y-108568512D01*
X145779232Y-108519997D01*
X145779306Y-108434608D01*
X145931366Y-108371778D01*
X146170937Y-108132625D01*
X146300752Y-107819997D01*
X146300971Y-107568633D01*
X147148953Y-107568633D01*
X147278222Y-107881487D01*
X147517375Y-108121058D01*
X147830003Y-108250873D01*
X148168512Y-108251168D01*
X148481366Y-108121899D01*
X148720937Y-107882746D01*
X148850752Y-107570118D01*
X148851047Y-107231609D01*
X148721778Y-106918755D01*
X148482625Y-106679184D01*
X148169997Y-106549369D01*
X147831488Y-106549074D01*
X147518634Y-106678343D01*
X147279063Y-106917496D01*
X147149248Y-107230124D01*
X147148953Y-107568633D01*
X146300971Y-107568633D01*
X146301047Y-107481488D01*
X146171778Y-107168634D01*
X145932625Y-106929063D01*
X145744272Y-106850852D01*
X145968512Y-106851047D01*
X146281366Y-106721778D01*
X146520937Y-106482625D01*
X146650752Y-106169997D01*
X146650970Y-105918858D01*
X150813440Y-105918858D01*
X150942709Y-106231712D01*
X150986531Y-106275611D01*
X150903373Y-106475878D01*
X150903078Y-106814387D01*
X151032347Y-107127241D01*
X151271500Y-107366812D01*
X151584128Y-107496627D01*
X151922637Y-107496922D01*
X152235491Y-107367653D01*
X152475062Y-107128500D01*
X152479701Y-107117327D01*
X152565076Y-107202851D01*
X152877704Y-107332666D01*
X153216213Y-107332961D01*
X153529067Y-107203692D01*
X153768638Y-106964539D01*
X153898453Y-106651911D01*
X153898713Y-106353991D01*
X154164053Y-106244354D01*
X154403624Y-106005201D01*
X154533439Y-105692573D01*
X154533734Y-105354064D01*
X154457036Y-105168439D01*
X155149010Y-105168439D01*
X155278279Y-105481293D01*
X155517432Y-105720864D01*
X155830060Y-105850679D01*
X156168569Y-105850974D01*
X156481423Y-105721705D01*
X156720994Y-105482552D01*
X156720995Y-105482551D01*
X156850810Y-105169923D01*
X156851105Y-104831414D01*
X156721836Y-104518560D01*
X156482683Y-104278989D01*
X156170055Y-104149174D01*
X155831546Y-104148879D01*
X155518692Y-104278148D01*
X155518691Y-104278149D01*
X155279120Y-104517302D01*
X155149305Y-104829930D01*
X155149010Y-105168439D01*
X154457036Y-105168439D01*
X154404465Y-105041210D01*
X154165312Y-104801639D01*
X153852684Y-104671824D01*
X153514175Y-104671529D01*
X153201321Y-104800798D01*
X152961750Y-105039951D01*
X152831935Y-105352579D01*
X152831675Y-105650499D01*
X152566335Y-105760136D01*
X152515334Y-105811048D01*
X152515534Y-105581834D01*
X152386265Y-105268980D01*
X152147112Y-105029409D01*
X151834484Y-104899594D01*
X151495975Y-104899299D01*
X151183121Y-105028568D01*
X150943550Y-105267721D01*
X150813735Y-105580349D01*
X150813440Y-105918858D01*
X146650970Y-105918858D01*
X146651047Y-105831488D01*
X146521778Y-105518634D01*
X146282625Y-105279063D01*
X145969997Y-105149248D01*
X145631488Y-105148953D01*
X145606030Y-105159472D01*
X145497164Y-104895998D01*
X145258011Y-104656427D01*
X144945383Y-104526612D01*
X144606874Y-104526317D01*
X144294020Y-104655586D01*
X144054449Y-104894739D01*
X143924634Y-105207367D01*
X143924339Y-105545876D01*
X140720825Y-105545876D01*
X140721047Y-105291488D01*
X140591778Y-104978634D01*
X140352625Y-104739063D01*
X140039997Y-104609248D01*
X139701488Y-104608953D01*
X139388634Y-104738222D01*
X139149063Y-104977375D01*
X139019248Y-105290003D01*
X139018953Y-105628512D01*
X137550788Y-105628512D01*
X137551047Y-105331488D01*
X137421778Y-105018634D01*
X137182625Y-104779063D01*
X136869997Y-104649248D01*
X136531488Y-104648953D01*
X136218634Y-104778222D01*
X135979063Y-105017375D01*
X135849248Y-105330003D01*
X135848953Y-105668512D01*
X133019261Y-105668512D01*
X132782625Y-105431463D01*
X132469997Y-105301648D01*
X132131488Y-105301353D01*
X131818634Y-105430622D01*
X131579063Y-105669775D01*
X131449248Y-105982403D01*
X131448953Y-106320912D01*
X131526095Y-106507611D01*
X131399849Y-106811644D01*
X131369997Y-106799248D01*
X131031488Y-106798953D01*
X130718634Y-106928222D01*
X130583000Y-107063619D01*
X130583000Y-103968512D01*
X131448953Y-103968512D01*
X131578222Y-104281366D01*
X131817375Y-104520937D01*
X132130003Y-104650752D01*
X132468512Y-104651047D01*
X132781366Y-104521778D01*
X133020937Y-104282625D01*
X133111346Y-104064897D01*
X133117375Y-104070937D01*
X133430003Y-104200752D01*
X133768512Y-104201047D01*
X134081366Y-104071778D01*
X134320937Y-103832625D01*
X134404724Y-103630843D01*
X140079535Y-103630843D01*
X140208804Y-103943697D01*
X140447957Y-104183268D01*
X140760585Y-104313083D01*
X141099094Y-104313378D01*
X141411948Y-104184109D01*
X141651519Y-103944956D01*
X141695655Y-103838665D01*
X144984224Y-103838665D01*
X145113493Y-104151519D01*
X145352646Y-104391090D01*
X145665274Y-104520905D01*
X146003783Y-104521200D01*
X146316637Y-104391931D01*
X146440271Y-104268512D01*
X150148953Y-104268512D01*
X150278222Y-104581366D01*
X150517375Y-104820937D01*
X150830003Y-104950752D01*
X151168512Y-104951047D01*
X151481366Y-104821778D01*
X151720937Y-104582625D01*
X151850752Y-104269997D01*
X151851047Y-103931488D01*
X151721778Y-103618634D01*
X151579618Y-103476225D01*
X154352527Y-103476225D01*
X154481796Y-103789079D01*
X154720949Y-104028650D01*
X155033577Y-104158465D01*
X155372086Y-104158760D01*
X155684940Y-104029491D01*
X155924511Y-103790338D01*
X156054326Y-103477710D01*
X156054621Y-103139201D01*
X155981064Y-102961181D01*
X155987743Y-102954514D01*
X156117558Y-102641886D01*
X156117853Y-102303377D01*
X155988584Y-101990523D01*
X155749431Y-101750952D01*
X155436803Y-101621137D01*
X155098294Y-101620842D01*
X154785440Y-101750111D01*
X154545869Y-101989264D01*
X154416054Y-102301892D01*
X154415759Y-102640401D01*
X154489316Y-102818421D01*
X154482637Y-102825088D01*
X154352822Y-103137716D01*
X154352527Y-103476225D01*
X151579618Y-103476225D01*
X151482625Y-103379063D01*
X151169997Y-103249248D01*
X150831488Y-103248953D01*
X150518634Y-103378222D01*
X150279063Y-103617375D01*
X150149248Y-103930003D01*
X150148953Y-104268512D01*
X146440271Y-104268512D01*
X146556208Y-104152778D01*
X146686023Y-103840150D01*
X146686318Y-103501641D01*
X146557049Y-103188787D01*
X146317896Y-102949216D01*
X146005268Y-102819401D01*
X145666759Y-102819106D01*
X145353905Y-102948375D01*
X145114334Y-103187528D01*
X144984519Y-103500156D01*
X144984224Y-103838665D01*
X141695655Y-103838665D01*
X141781334Y-103632328D01*
X141781629Y-103293819D01*
X141652360Y-102980965D01*
X141413207Y-102741394D01*
X141100579Y-102611579D01*
X140762070Y-102611284D01*
X140449216Y-102740553D01*
X140209645Y-102979706D01*
X140079830Y-103292334D01*
X140079535Y-103630843D01*
X134404724Y-103630843D01*
X134450752Y-103519997D01*
X134451047Y-103181488D01*
X134321778Y-102868634D01*
X134082625Y-102629063D01*
X133769997Y-102499248D01*
X133431488Y-102498953D01*
X133118634Y-102628222D01*
X132879063Y-102867375D01*
X132788654Y-103085103D01*
X132782625Y-103079063D01*
X132469997Y-102949248D01*
X132131488Y-102948953D01*
X131818634Y-103078222D01*
X131579063Y-103317375D01*
X131449248Y-103630003D01*
X131448953Y-103968512D01*
X130583000Y-103968512D01*
X130583000Y-102418512D01*
X147498953Y-102418512D01*
X147628222Y-102731366D01*
X147867375Y-102970937D01*
X148180003Y-103100752D01*
X148518512Y-103101047D01*
X148831366Y-102971778D01*
X149070937Y-102732625D01*
X149200752Y-102419997D01*
X149201047Y-102081488D01*
X149071778Y-101768634D01*
X148832625Y-101529063D01*
X148807216Y-101518512D01*
X151298953Y-101518512D01*
X151428222Y-101831366D01*
X151667375Y-102070937D01*
X151980003Y-102200752D01*
X152318512Y-102201047D01*
X152631366Y-102071778D01*
X152870937Y-101832625D01*
X153000752Y-101519997D01*
X153001047Y-101181488D01*
X152871778Y-100868634D01*
X152632625Y-100629063D01*
X152319997Y-100499248D01*
X151981488Y-100498953D01*
X151668634Y-100628222D01*
X151429063Y-100867375D01*
X151299248Y-101180003D01*
X151298953Y-101518512D01*
X148807216Y-101518512D01*
X148519997Y-101399248D01*
X148181488Y-101398953D01*
X147868634Y-101528222D01*
X147629063Y-101767375D01*
X147499248Y-102080003D01*
X147498953Y-102418512D01*
X130583000Y-102418512D01*
X130583000Y-101493882D01*
X131719075Y-101493882D01*
X131848344Y-101806736D01*
X132087497Y-102046307D01*
X132400125Y-102176122D01*
X132738634Y-102176417D01*
X133051488Y-102047148D01*
X133086460Y-102012237D01*
X133235956Y-102074314D01*
X133574465Y-102074609D01*
X133887319Y-101945340D01*
X134126890Y-101706187D01*
X134256705Y-101393559D01*
X134256790Y-101296252D01*
X134368512Y-101296349D01*
X134681366Y-101167080D01*
X134920937Y-100927927D01*
X134965219Y-100821284D01*
X137267813Y-100821284D01*
X137397082Y-101134138D01*
X137636235Y-101373709D01*
X137948863Y-101503524D01*
X138287372Y-101503819D01*
X138600226Y-101374550D01*
X138839797Y-101135397D01*
X138865623Y-101073200D01*
X139664626Y-101073200D01*
X139793895Y-101386054D01*
X140033048Y-101625625D01*
X140345676Y-101755440D01*
X140684185Y-101755735D01*
X140997039Y-101626466D01*
X141236610Y-101387313D01*
X141249420Y-101356463D01*
X141421274Y-101356613D01*
X141734128Y-101227344D01*
X141973699Y-100988191D01*
X142103514Y-100675563D01*
X142103809Y-100337054D01*
X142004532Y-100096785D01*
X142342863Y-100097080D01*
X142655717Y-99967811D01*
X142705102Y-99918512D01*
X153198953Y-99918512D01*
X153328222Y-100231366D01*
X153567375Y-100470937D01*
X153880003Y-100600752D01*
X154218512Y-100601047D01*
X154531366Y-100471778D01*
X154770937Y-100232625D01*
X154817383Y-100120770D01*
X154917375Y-100220937D01*
X155230003Y-100350752D01*
X155568512Y-100351047D01*
X155881366Y-100221778D01*
X156120937Y-99982625D01*
X156250752Y-99669997D01*
X156251047Y-99331488D01*
X156183707Y-99168512D01*
X156698953Y-99168512D01*
X156828222Y-99481366D01*
X157067375Y-99720937D01*
X157380003Y-99850752D01*
X157718512Y-99851047D01*
X158031366Y-99721778D01*
X158149952Y-99603399D01*
X158217373Y-99670937D01*
X158530001Y-99800752D01*
X158868510Y-99801047D01*
X159181364Y-99671778D01*
X159275724Y-99577582D01*
X161867156Y-99577582D01*
X161996425Y-99890436D01*
X162235578Y-100130007D01*
X162235850Y-100130120D01*
X162235675Y-100330439D01*
X162364944Y-100643293D01*
X162604097Y-100882864D01*
X162916725Y-101012679D01*
X163149030Y-101012881D01*
X163057728Y-101232760D01*
X163057433Y-101571269D01*
X163186702Y-101884123D01*
X163425855Y-102123694D01*
X163738483Y-102253509D01*
X164076992Y-102253804D01*
X164389846Y-102124535D01*
X164629417Y-101885382D01*
X164759232Y-101572754D01*
X164759527Y-101234245D01*
X164630258Y-100921391D01*
X164574051Y-100865086D01*
X164629417Y-100809816D01*
X164759232Y-100497188D01*
X164759527Y-100158679D01*
X164630258Y-99845825D01*
X164391105Y-99606254D01*
X164078477Y-99476439D01*
X163739968Y-99476144D01*
X163644017Y-99515790D01*
X163569347Y-99440990D01*
X163569075Y-99440877D01*
X163569250Y-99240558D01*
X163439981Y-98927704D01*
X163200828Y-98688133D01*
X162888200Y-98558318D01*
X162549691Y-98558023D01*
X162236837Y-98687292D01*
X161997266Y-98926445D01*
X161867451Y-99239073D01*
X161867156Y-99577582D01*
X159275724Y-99577582D01*
X159420935Y-99432625D01*
X159550750Y-99119997D01*
X159551045Y-98781488D01*
X159421776Y-98468634D01*
X159182623Y-98229063D01*
X158869995Y-98099248D01*
X158531486Y-98098953D01*
X158218632Y-98228222D01*
X158100046Y-98346601D01*
X158032625Y-98279063D01*
X157719997Y-98149248D01*
X157381488Y-98148953D01*
X157068634Y-98278222D01*
X156829063Y-98517375D01*
X156699248Y-98830003D01*
X156698953Y-99168512D01*
X156183707Y-99168512D01*
X156121778Y-99018634D01*
X155882625Y-98779063D01*
X155569997Y-98649248D01*
X155231488Y-98648953D01*
X154918634Y-98778222D01*
X154679063Y-99017375D01*
X154632617Y-99129230D01*
X154532625Y-99029063D01*
X154219997Y-98899248D01*
X153881488Y-98898953D01*
X153568634Y-99028222D01*
X153329063Y-99267375D01*
X153199248Y-99580003D01*
X153198953Y-99918512D01*
X142705102Y-99918512D01*
X142895288Y-99728658D01*
X143025103Y-99416030D01*
X143025398Y-99077521D01*
X142896129Y-98764667D01*
X142656976Y-98525096D01*
X142344348Y-98395281D01*
X142005839Y-98394986D01*
X141692985Y-98524255D01*
X141453414Y-98763408D01*
X141323599Y-99076036D01*
X141323304Y-99414545D01*
X141422581Y-99654814D01*
X141084250Y-99654519D01*
X140771396Y-99783788D01*
X140531825Y-100022941D01*
X140519015Y-100053791D01*
X140347161Y-100053641D01*
X140034307Y-100182910D01*
X139794736Y-100422063D01*
X139664921Y-100734691D01*
X139664626Y-101073200D01*
X138865623Y-101073200D01*
X138969612Y-100822769D01*
X138969907Y-100484260D01*
X138840638Y-100171406D01*
X138601485Y-99931835D01*
X138288857Y-99802020D01*
X137950348Y-99801725D01*
X137637494Y-99930994D01*
X137397923Y-100170147D01*
X137268108Y-100482775D01*
X137267813Y-100821284D01*
X134965219Y-100821284D01*
X135050752Y-100615299D01*
X135051047Y-100276790D01*
X134921778Y-99963936D01*
X134682625Y-99724365D01*
X134369997Y-99594550D01*
X134031488Y-99594255D01*
X133718634Y-99723524D01*
X133479063Y-99962677D01*
X133349248Y-100275305D01*
X133349163Y-100372612D01*
X133237441Y-100372515D01*
X132924587Y-100501784D01*
X132889615Y-100536695D01*
X132740119Y-100474618D01*
X132401610Y-100474323D01*
X132088756Y-100603592D01*
X131849185Y-100842745D01*
X131719370Y-101155373D01*
X131719075Y-101493882D01*
X130583000Y-101493882D01*
X130583000Y-97394862D01*
X133252734Y-97394862D01*
X133382003Y-97707716D01*
X133621156Y-97947287D01*
X133933784Y-98077102D01*
X134272293Y-98077397D01*
X134585147Y-97948128D01*
X134614814Y-97918512D01*
X137298953Y-97918512D01*
X137428222Y-98231366D01*
X137667375Y-98470937D01*
X137980003Y-98600752D01*
X138318512Y-98601047D01*
X138631366Y-98471778D01*
X138870937Y-98232625D01*
X139000752Y-97919997D01*
X139001047Y-97581488D01*
X138975909Y-97520650D01*
X139100752Y-97219997D01*
X139100800Y-97164396D01*
X140544819Y-97164396D01*
X140674088Y-97477250D01*
X140913241Y-97716821D01*
X141225869Y-97846636D01*
X141564378Y-97846931D01*
X141877232Y-97717662D01*
X142116803Y-97478509D01*
X142213480Y-97245687D01*
X142228222Y-97281366D01*
X142467375Y-97520937D01*
X142780003Y-97650752D01*
X143118512Y-97651047D01*
X143431366Y-97521778D01*
X143670937Y-97282625D01*
X143676797Y-97268512D01*
X160798953Y-97268512D01*
X160928222Y-97581366D01*
X161167375Y-97820937D01*
X161480003Y-97950752D01*
X161818512Y-97951047D01*
X162131366Y-97821778D01*
X162370937Y-97582625D01*
X162500752Y-97269997D01*
X162501047Y-96931488D01*
X162371778Y-96618634D01*
X162132625Y-96379063D01*
X161819997Y-96249248D01*
X161481488Y-96248953D01*
X161168634Y-96378222D01*
X160929063Y-96617375D01*
X160799248Y-96930003D01*
X160798953Y-97268512D01*
X143676797Y-97268512D01*
X143800752Y-96969997D01*
X143801047Y-96631488D01*
X143671778Y-96318634D01*
X143432625Y-96079063D01*
X143119997Y-95949248D01*
X142781488Y-95948953D01*
X142468634Y-96078222D01*
X142229063Y-96317375D01*
X142132386Y-96550197D01*
X142117644Y-96514518D01*
X141878491Y-96274947D01*
X141565863Y-96145132D01*
X141227354Y-96144837D01*
X140914500Y-96274106D01*
X140674929Y-96513259D01*
X140545114Y-96825887D01*
X140544819Y-97164396D01*
X139100800Y-97164396D01*
X139101047Y-96881488D01*
X138971778Y-96568634D01*
X138732625Y-96329063D01*
X138419997Y-96199248D01*
X138081488Y-96198953D01*
X137768634Y-96328222D01*
X137529063Y-96567375D01*
X137399248Y-96880003D01*
X137398953Y-97218512D01*
X137424091Y-97279350D01*
X137299248Y-97580003D01*
X137298953Y-97918512D01*
X134614814Y-97918512D01*
X134824718Y-97708975D01*
X134954533Y-97396347D01*
X134954828Y-97057838D01*
X134825559Y-96744984D01*
X134586406Y-96505413D01*
X134273778Y-96375598D01*
X133935269Y-96375303D01*
X133622415Y-96504572D01*
X133382844Y-96743725D01*
X133253029Y-97056353D01*
X133252734Y-97394862D01*
X130583000Y-97394862D01*
X130583000Y-97248187D01*
X130830003Y-97350752D01*
X131168512Y-97351047D01*
X131481366Y-97221778D01*
X131720937Y-96982625D01*
X131850752Y-96669997D01*
X131851047Y-96331488D01*
X131721778Y-96018634D01*
X131482625Y-95779063D01*
X131169997Y-95649248D01*
X130831488Y-95648953D01*
X130583000Y-95751626D01*
X130583000Y-93147664D01*
X130741652Y-93147664D01*
X131046708Y-93885955D01*
X131611074Y-94451307D01*
X132348832Y-94757651D01*
X133147664Y-94758348D01*
X133885955Y-94453292D01*
X134451307Y-93888926D01*
X134480545Y-93818512D01*
X153098953Y-93818512D01*
X153228222Y-94131366D01*
X153467375Y-94370937D01*
X153780003Y-94500752D01*
X154118512Y-94501047D01*
X154431366Y-94371778D01*
X154670937Y-94132625D01*
X154800752Y-93819997D01*
X154800884Y-93668512D01*
X156598953Y-93668512D01*
X156728222Y-93981366D01*
X156967375Y-94220937D01*
X157280003Y-94350752D01*
X157618512Y-94351047D01*
X157931366Y-94221778D01*
X158170937Y-93982625D01*
X158300752Y-93669997D01*
X158301047Y-93331488D01*
X158225093Y-93147664D01*
X161241652Y-93147664D01*
X161546708Y-93885955D01*
X162111074Y-94451307D01*
X162848832Y-94757651D01*
X163647664Y-94758348D01*
X164385955Y-94453292D01*
X164951307Y-93888926D01*
X165257651Y-93151168D01*
X165258348Y-92352336D01*
X164953292Y-91614045D01*
X164388926Y-91048693D01*
X163651168Y-90742349D01*
X162852336Y-90741652D01*
X162114045Y-91046708D01*
X161548693Y-91611074D01*
X161242349Y-92348832D01*
X161241652Y-93147664D01*
X158225093Y-93147664D01*
X158171778Y-93018634D01*
X157932625Y-92779063D01*
X157619997Y-92649248D01*
X157281488Y-92648953D01*
X156968634Y-92778222D01*
X156729063Y-93017375D01*
X156599248Y-93330003D01*
X156598953Y-93668512D01*
X154800884Y-93668512D01*
X154801047Y-93481488D01*
X154671778Y-93168634D01*
X154432625Y-92929063D01*
X154119997Y-92799248D01*
X153781488Y-92798953D01*
X153468634Y-92928222D01*
X153229063Y-93167375D01*
X153099248Y-93480003D01*
X153098953Y-93818512D01*
X134480545Y-93818512D01*
X134757651Y-93151168D01*
X134758348Y-92352336D01*
X134453292Y-91614045D01*
X133888926Y-91048693D01*
X133151168Y-90742349D01*
X132352336Y-90741652D01*
X131614045Y-91046708D01*
X131048693Y-91611074D01*
X130742349Y-92348832D01*
X130741652Y-93147664D01*
X130583000Y-93147664D01*
X130583000Y-92807422D01*
X130758505Y-91925096D01*
X131225777Y-91225775D01*
X131925095Y-90758505D01*
X132807421Y-90583000D01*
X138017107Y-90583000D01*
X137891778Y-90708110D01*
M02*
