G04 #@! TF.FileFunction,Legend,Bot*
%FSLAX46Y46*%
G04 Gerber Fmt 4.6, Leading zero omitted, Abs format (unit mm)*
G04 Created by KiCad (PCBNEW (2015-11-03 BZR 6296)-product) date Monday, November 09, 2015 'PMt' 11:48:40 PM*
%MOMM*%
G01*
G04 APERTURE LIST*
%ADD10C,0.100000*%
%ADD11C,0.150000*%
%ADD12C,0.300000*%
G04 APERTURE END LIST*
D10*
D11*
X152935714Y-99252381D02*
X152316666Y-99252381D01*
X152650000Y-99633333D01*
X152507142Y-99633333D01*
X152411904Y-99680952D01*
X152364285Y-99728571D01*
X152316666Y-99823810D01*
X152316666Y-100061905D01*
X152364285Y-100157143D01*
X152411904Y-100204762D01*
X152507142Y-100252381D01*
X152792857Y-100252381D01*
X152888095Y-100204762D01*
X152935714Y-100157143D01*
X151697619Y-99252381D02*
X151602380Y-99252381D01*
X151507142Y-99300000D01*
X151459523Y-99347619D01*
X151411904Y-99442857D01*
X151364285Y-99633333D01*
X151364285Y-99871429D01*
X151411904Y-100061905D01*
X151459523Y-100157143D01*
X151507142Y-100204762D01*
X151602380Y-100252381D01*
X151697619Y-100252381D01*
X151792857Y-100204762D01*
X151840476Y-100157143D01*
X151888095Y-100061905D01*
X151935714Y-99871429D01*
X151935714Y-99633333D01*
X151888095Y-99442857D01*
X151840476Y-99347619D01*
X151792857Y-99300000D01*
X151697619Y-99252381D01*
X150745238Y-99252381D02*
X150649999Y-99252381D01*
X150554761Y-99300000D01*
X150507142Y-99347619D01*
X150459523Y-99442857D01*
X150411904Y-99633333D01*
X150411904Y-99871429D01*
X150459523Y-100061905D01*
X150507142Y-100157143D01*
X150554761Y-100204762D01*
X150649999Y-100252381D01*
X150745238Y-100252381D01*
X150840476Y-100204762D01*
X150888095Y-100157143D01*
X150935714Y-100061905D01*
X150983333Y-99871429D01*
X150983333Y-99633333D01*
X150935714Y-99442857D01*
X150888095Y-99347619D01*
X150840476Y-99300000D01*
X150745238Y-99252381D01*
X149983333Y-100252381D02*
X149983333Y-99585714D01*
X149983333Y-99680952D02*
X149935714Y-99633333D01*
X149840476Y-99585714D01*
X149697618Y-99585714D01*
X149602380Y-99633333D01*
X149554761Y-99728571D01*
X149554761Y-100252381D01*
X149554761Y-99728571D02*
X149507142Y-99633333D01*
X149411904Y-99585714D01*
X149269047Y-99585714D01*
X149173809Y-99633333D01*
X149126190Y-99728571D01*
X149126190Y-100252381D01*
X148697619Y-99966667D02*
X148221428Y-99966667D01*
X148792857Y-100252381D02*
X148459524Y-99252381D01*
X148126190Y-100252381D01*
X147030952Y-100252381D02*
X147030952Y-99585714D01*
X147030952Y-99680952D02*
X146983333Y-99633333D01*
X146888095Y-99585714D01*
X146745237Y-99585714D01*
X146649999Y-99633333D01*
X146602380Y-99728571D01*
X146602380Y-100252381D01*
X146602380Y-99728571D02*
X146554761Y-99633333D01*
X146459523Y-99585714D01*
X146316666Y-99585714D01*
X146221428Y-99633333D01*
X146173809Y-99728571D01*
X146173809Y-100252381D01*
X145269047Y-100252381D02*
X145269047Y-99728571D01*
X145316666Y-99633333D01*
X145411904Y-99585714D01*
X145602381Y-99585714D01*
X145697619Y-99633333D01*
X145269047Y-100204762D02*
X145364285Y-100252381D01*
X145602381Y-100252381D01*
X145697619Y-100204762D01*
X145745238Y-100109524D01*
X145745238Y-100014286D01*
X145697619Y-99919048D01*
X145602381Y-99871429D01*
X145364285Y-99871429D01*
X145269047Y-99823810D01*
X144888095Y-100252381D02*
X144364285Y-99585714D01*
X144888095Y-99585714D02*
X144364285Y-100252381D01*
X131178571Y-109342857D02*
X131178571Y-109009523D01*
X131702381Y-109009523D02*
X130702381Y-109009523D01*
X130702381Y-109485714D01*
X131702381Y-109866666D02*
X131035714Y-109866666D01*
X131226190Y-109866666D02*
X131130952Y-109914285D01*
X131083333Y-109961904D01*
X131035714Y-110057142D01*
X131035714Y-110152381D01*
X131702381Y-110628571D02*
X131654762Y-110533333D01*
X131607143Y-110485714D01*
X131511905Y-110438095D01*
X131226190Y-110438095D01*
X131130952Y-110485714D01*
X131083333Y-110533333D01*
X131035714Y-110628571D01*
X131035714Y-110771429D01*
X131083333Y-110866667D01*
X131130952Y-110914286D01*
X131226190Y-110961905D01*
X131511905Y-110961905D01*
X131607143Y-110914286D01*
X131654762Y-110866667D01*
X131702381Y-110771429D01*
X131702381Y-110628571D01*
X131035714Y-111390476D02*
X131702381Y-111390476D01*
X131130952Y-111390476D02*
X131083333Y-111438095D01*
X131035714Y-111533333D01*
X131035714Y-111676191D01*
X131083333Y-111771429D01*
X131178571Y-111819048D01*
X131702381Y-111819048D01*
X131035714Y-112152381D02*
X131035714Y-112533333D01*
X130702381Y-112295238D02*
X131559524Y-112295238D01*
X131654762Y-112342857D01*
X131702381Y-112438095D01*
X131702381Y-112533333D01*
D12*
X165307143Y-98950000D02*
X165378571Y-98807143D01*
X165378571Y-98521429D01*
X165307143Y-98378571D01*
X165235714Y-98307143D01*
X165092857Y-98235714D01*
X164664286Y-98235714D01*
X164521429Y-98307143D01*
X164450000Y-98378571D01*
X164378571Y-98521429D01*
X164378571Y-98807143D01*
X164450000Y-98950000D01*
X165378571Y-99592857D02*
X163878571Y-99592857D01*
X164807143Y-99735714D02*
X165378571Y-100164285D01*
X164378571Y-100164285D02*
X164950000Y-99592857D01*
X165378571Y-101450000D02*
X163878571Y-101450000D01*
X165307143Y-101450000D02*
X165378571Y-101307143D01*
X165378571Y-101021429D01*
X165307143Y-100878571D01*
X165235714Y-100807143D01*
X165092857Y-100735714D01*
X164664286Y-100735714D01*
X164521429Y-100807143D01*
X164450000Y-100878571D01*
X164378571Y-101021429D01*
X164378571Y-101307143D01*
X164450000Y-101450000D01*
X165235714Y-102164286D02*
X165307143Y-102235714D01*
X165378571Y-102164286D01*
X165307143Y-102092857D01*
X165235714Y-102164286D01*
X165378571Y-102164286D01*
X164378571Y-102664286D02*
X164378571Y-103235715D01*
X163878571Y-102878572D02*
X165164286Y-102878572D01*
X165307143Y-102950000D01*
X165378571Y-103092858D01*
X165378571Y-103235715D01*
X165307143Y-104307143D02*
X165378571Y-104164286D01*
X165378571Y-103878572D01*
X165307143Y-103735715D01*
X165164286Y-103664286D01*
X164592857Y-103664286D01*
X164450000Y-103735715D01*
X164378571Y-103878572D01*
X164378571Y-104164286D01*
X164450000Y-104307143D01*
X164592857Y-104378572D01*
X164735714Y-104378572D01*
X164878571Y-103664286D01*
X165307143Y-105664286D02*
X165378571Y-105521429D01*
X165378571Y-105235715D01*
X165307143Y-105092857D01*
X165235714Y-105021429D01*
X165092857Y-104950000D01*
X164664286Y-104950000D01*
X164521429Y-105021429D01*
X164450000Y-105092857D01*
X164378571Y-105235715D01*
X164378571Y-105521429D01*
X164450000Y-105664286D01*
X165378571Y-106307143D02*
X163878571Y-106307143D01*
X165378571Y-106950000D02*
X164592857Y-106950000D01*
X164450000Y-106878571D01*
X164378571Y-106735714D01*
X164378571Y-106521429D01*
X164450000Y-106378571D01*
X164521429Y-106307143D01*
X163807143Y-108735714D02*
X165735714Y-107450000D01*
X164378571Y-109021429D02*
X164378571Y-109592858D01*
X165378571Y-109235715D02*
X164092857Y-109235715D01*
X163950000Y-109307143D01*
X163878571Y-109450001D01*
X163878571Y-109592858D01*
X163878571Y-109950001D02*
X163878571Y-110878572D01*
X164450000Y-110378572D01*
X164450000Y-110592858D01*
X164521429Y-110735715D01*
X164592857Y-110807144D01*
X164735714Y-110878572D01*
X165092857Y-110878572D01*
X165235714Y-110807144D01*
X165307143Y-110735715D01*
X165378571Y-110592858D01*
X165378571Y-110164286D01*
X165307143Y-110021429D01*
X165235714Y-109950001D01*
X164378571Y-111307143D02*
X164378571Y-111878572D01*
X165378571Y-111521429D02*
X164092857Y-111521429D01*
X163950000Y-111592857D01*
X163878571Y-111735715D01*
X163878571Y-111878572D01*
X165307143Y-113021429D02*
X165378571Y-112878572D01*
X165378571Y-112592858D01*
X165307143Y-112450000D01*
X165235714Y-112378572D01*
X165092857Y-112307143D01*
X164664286Y-112307143D01*
X164521429Y-112378572D01*
X164450000Y-112450000D01*
X164378571Y-112592858D01*
X164378571Y-112878572D01*
X164450000Y-113021429D01*
X163807143Y-114735714D02*
X165735714Y-113450000D01*
X164378571Y-115092858D02*
X165378571Y-115450001D01*
X164378571Y-115807143D01*
X165378571Y-117164286D02*
X165378571Y-116307143D01*
X165378571Y-116735715D02*
X163878571Y-116735715D01*
X164092857Y-116592858D01*
X164235714Y-116450000D01*
X164307143Y-116307143D01*
D11*
X136223809Y-122904762D02*
X136080952Y-122952381D01*
X135842856Y-122952381D01*
X135747618Y-122904762D01*
X135699999Y-122857143D01*
X135652380Y-122761905D01*
X135652380Y-122666667D01*
X135699999Y-122571429D01*
X135747618Y-122523810D01*
X135842856Y-122476190D01*
X136033333Y-122428571D01*
X136128571Y-122380952D01*
X136176190Y-122333333D01*
X136223809Y-122238095D01*
X136223809Y-122142857D01*
X136176190Y-122047619D01*
X136128571Y-122000000D01*
X136033333Y-121952381D01*
X135795237Y-121952381D01*
X135652380Y-122000000D01*
X135223809Y-122952381D02*
X135223809Y-121952381D01*
X134223809Y-122000000D02*
X134319047Y-121952381D01*
X134461904Y-121952381D01*
X134604762Y-122000000D01*
X134700000Y-122095238D01*
X134747619Y-122190476D01*
X134795238Y-122380952D01*
X134795238Y-122523810D01*
X134747619Y-122714286D01*
X134700000Y-122809524D01*
X134604762Y-122904762D01*
X134461904Y-122952381D01*
X134366666Y-122952381D01*
X134223809Y-122904762D01*
X134176190Y-122857143D01*
X134176190Y-122523810D01*
X134366666Y-122523810D01*
D12*
X137314285Y-119278571D02*
X137314285Y-120278571D01*
X137671428Y-118707143D02*
X138028571Y-119778571D01*
X137099999Y-119778571D01*
X140549999Y-118828571D02*
X139621428Y-118828571D01*
X140121428Y-119400000D01*
X139907142Y-119400000D01*
X139764285Y-119471429D01*
X139692856Y-119542857D01*
X139621428Y-119685714D01*
X139621428Y-120042857D01*
X139692856Y-120185714D01*
X139764285Y-120257143D01*
X139907142Y-120328571D01*
X140335714Y-120328571D01*
X140478571Y-120257143D01*
X140549999Y-120185714D01*
X143078571Y-118921429D02*
X143007142Y-118850000D01*
X142864285Y-118778571D01*
X142507142Y-118778571D01*
X142364285Y-118850000D01*
X142292856Y-118921429D01*
X142221428Y-119064286D01*
X142221428Y-119207143D01*
X142292856Y-119421429D01*
X143149999Y-120278571D01*
X142221428Y-120278571D01*
X144721428Y-120278571D02*
X145578571Y-120278571D01*
X145149999Y-120278571D02*
X145149999Y-118778571D01*
X145292856Y-118992857D01*
X145435714Y-119135714D01*
X145578571Y-119207143D01*
D11*
X135761904Y-124500000D02*
X135857142Y-124452381D01*
X135999999Y-124452381D01*
X136142857Y-124500000D01*
X136238095Y-124595238D01*
X136285714Y-124690476D01*
X136333333Y-124880952D01*
X136333333Y-125023810D01*
X136285714Y-125214286D01*
X136238095Y-125309524D01*
X136142857Y-125404762D01*
X135999999Y-125452381D01*
X135904761Y-125452381D01*
X135761904Y-125404762D01*
X135714285Y-125357143D01*
X135714285Y-125023810D01*
X135904761Y-125023810D01*
X135285714Y-125452381D02*
X135285714Y-124452381D01*
X134714285Y-125452381D01*
X134714285Y-124452381D01*
X134238095Y-125452381D02*
X134238095Y-124452381D01*
X134000000Y-124452381D01*
X133857142Y-124500000D01*
X133761904Y-124595238D01*
X133714285Y-124690476D01*
X133666666Y-124880952D01*
X133666666Y-125023810D01*
X133714285Y-125214286D01*
X133761904Y-125309524D01*
X133857142Y-125404762D01*
X134000000Y-125452381D01*
X134238095Y-125452381D01*
X155869050Y-94479762D02*
X155726193Y-94527381D01*
X155488097Y-94527381D01*
X155392859Y-94479762D01*
X155345240Y-94432143D01*
X155297621Y-94336905D01*
X155297621Y-94241667D01*
X155345240Y-94146429D01*
X155392859Y-94098810D01*
X155488097Y-94051190D01*
X155678574Y-94003571D01*
X155773812Y-93955952D01*
X155821431Y-93908333D01*
X155869050Y-93813095D01*
X155869050Y-93717857D01*
X155821431Y-93622619D01*
X155773812Y-93575000D01*
X155678574Y-93527381D01*
X155440478Y-93527381D01*
X155297621Y-93575000D01*
X154869050Y-94527381D02*
X154869050Y-93527381D01*
X154440478Y-94527381D02*
X154440478Y-94003571D01*
X154488097Y-93908333D01*
X154583335Y-93860714D01*
X154726193Y-93860714D01*
X154821431Y-93908333D01*
X154869050Y-93955952D01*
X153821431Y-94527381D02*
X153916669Y-94479762D01*
X153964288Y-94432143D01*
X154011907Y-94336905D01*
X154011907Y-94051190D01*
X153964288Y-93955952D01*
X153916669Y-93908333D01*
X153821431Y-93860714D01*
X153678573Y-93860714D01*
X153583335Y-93908333D01*
X153535716Y-93955952D01*
X153488097Y-94051190D01*
X153488097Y-94336905D01*
X153535716Y-94432143D01*
X153583335Y-94479762D01*
X153678573Y-94527381D01*
X153821431Y-94527381D01*
X153059526Y-94527381D02*
X153059526Y-93860714D01*
X153059526Y-94051190D02*
X153011907Y-93955952D01*
X152964288Y-93908333D01*
X152869050Y-93860714D01*
X152773811Y-93860714D01*
X152583335Y-93860714D02*
X152202383Y-93860714D01*
X152440478Y-93527381D02*
X152440478Y-94384524D01*
X152392859Y-94479762D01*
X152297621Y-94527381D01*
X152202383Y-94527381D01*
X150535715Y-94527381D02*
X150869049Y-94051190D01*
X151107144Y-94527381D02*
X151107144Y-93527381D01*
X150726191Y-93527381D01*
X150630953Y-93575000D01*
X150583334Y-93622619D01*
X150535715Y-93717857D01*
X150535715Y-93860714D01*
X150583334Y-93955952D01*
X150630953Y-94003571D01*
X150726191Y-94051190D01*
X151107144Y-94051190D01*
X149726191Y-94479762D02*
X149821429Y-94527381D01*
X150011906Y-94527381D01*
X150107144Y-94479762D01*
X150154763Y-94384524D01*
X150154763Y-94003571D01*
X150107144Y-93908333D01*
X150011906Y-93860714D01*
X149821429Y-93860714D01*
X149726191Y-93908333D01*
X149678572Y-94003571D01*
X149678572Y-94098810D01*
X150154763Y-94194048D01*
X149297620Y-94479762D02*
X149202382Y-94527381D01*
X149011906Y-94527381D01*
X148916667Y-94479762D01*
X148869048Y-94384524D01*
X148869048Y-94336905D01*
X148916667Y-94241667D01*
X149011906Y-94194048D01*
X149154763Y-94194048D01*
X149250001Y-94146429D01*
X149297620Y-94051190D01*
X149297620Y-94003571D01*
X149250001Y-93908333D01*
X149154763Y-93860714D01*
X149011906Y-93860714D01*
X148916667Y-93908333D01*
X148059524Y-94479762D02*
X148154762Y-94527381D01*
X148345239Y-94527381D01*
X148440477Y-94479762D01*
X148488096Y-94384524D01*
X148488096Y-94003571D01*
X148440477Y-93908333D01*
X148345239Y-93860714D01*
X148154762Y-93860714D01*
X148059524Y-93908333D01*
X148011905Y-94003571D01*
X148011905Y-94098810D01*
X148488096Y-94194048D01*
X147726191Y-93860714D02*
X147345239Y-93860714D01*
X147583334Y-93527381D02*
X147583334Y-94384524D01*
X147535715Y-94479762D01*
X147440477Y-94527381D01*
X147345239Y-94527381D01*
X158916669Y-96077381D02*
X159392860Y-96077381D01*
X159392860Y-95077381D01*
X158440479Y-96077381D02*
X158535717Y-96029762D01*
X158583336Y-95982143D01*
X158630955Y-95886905D01*
X158630955Y-95601190D01*
X158583336Y-95505952D01*
X158535717Y-95458333D01*
X158440479Y-95410714D01*
X158297621Y-95410714D01*
X158202383Y-95458333D01*
X158154764Y-95505952D01*
X158107145Y-95601190D01*
X158107145Y-95886905D01*
X158154764Y-95982143D01*
X158202383Y-96029762D01*
X158297621Y-96077381D01*
X158440479Y-96077381D01*
X157678574Y-95410714D02*
X157678574Y-96077381D01*
X157678574Y-95505952D02*
X157630955Y-95458333D01*
X157535717Y-95410714D01*
X157392859Y-95410714D01*
X157297621Y-95458333D01*
X157250002Y-95553571D01*
X157250002Y-96077381D01*
X156345240Y-95410714D02*
X156345240Y-96220238D01*
X156392859Y-96315476D01*
X156440478Y-96363095D01*
X156535717Y-96410714D01*
X156678574Y-96410714D01*
X156773812Y-96363095D01*
X156345240Y-96029762D02*
X156440478Y-96077381D01*
X156630955Y-96077381D01*
X156726193Y-96029762D01*
X156773812Y-95982143D01*
X156821431Y-95886905D01*
X156821431Y-95601190D01*
X156773812Y-95505952D01*
X156726193Y-95458333D01*
X156630955Y-95410714D01*
X156440478Y-95410714D01*
X156345240Y-95458333D01*
X154773811Y-95553571D02*
X154630954Y-95601190D01*
X154583335Y-95648810D01*
X154535716Y-95744048D01*
X154535716Y-95886905D01*
X154583335Y-95982143D01*
X154630954Y-96029762D01*
X154726192Y-96077381D01*
X155107145Y-96077381D01*
X155107145Y-95077381D01*
X154773811Y-95077381D01*
X154678573Y-95125000D01*
X154630954Y-95172619D01*
X154583335Y-95267857D01*
X154583335Y-95363095D01*
X154630954Y-95458333D01*
X154678573Y-95505952D01*
X154773811Y-95553571D01*
X155107145Y-95553571D01*
X153964288Y-96077381D02*
X154059526Y-96029762D01*
X154107145Y-95982143D01*
X154154764Y-95886905D01*
X154154764Y-95601190D01*
X154107145Y-95505952D01*
X154059526Y-95458333D01*
X153964288Y-95410714D01*
X153821430Y-95410714D01*
X153726192Y-95458333D01*
X153678573Y-95505952D01*
X153630954Y-95601190D01*
X153630954Y-95886905D01*
X153678573Y-95982143D01*
X153726192Y-96029762D01*
X153821430Y-96077381D01*
X153964288Y-96077381D01*
X153059526Y-96077381D02*
X153154764Y-96029762D01*
X153202383Y-95982143D01*
X153250002Y-95886905D01*
X153250002Y-95601190D01*
X153202383Y-95505952D01*
X153154764Y-95458333D01*
X153059526Y-95410714D01*
X152916668Y-95410714D01*
X152821430Y-95458333D01*
X152773811Y-95505952D01*
X152726192Y-95601190D01*
X152726192Y-95886905D01*
X152773811Y-95982143D01*
X152821430Y-96029762D01*
X152916668Y-96077381D01*
X153059526Y-96077381D01*
X152440478Y-95410714D02*
X152059526Y-95410714D01*
X152297621Y-95077381D02*
X152297621Y-95934524D01*
X152250002Y-96029762D01*
X152154764Y-96077381D01*
X152059526Y-96077381D01*
X151583335Y-96077381D02*
X151678573Y-96029762D01*
X151726192Y-95934524D01*
X151726192Y-95077381D01*
X151059525Y-96077381D02*
X151154763Y-96029762D01*
X151202382Y-95982143D01*
X151250001Y-95886905D01*
X151250001Y-95601190D01*
X151202382Y-95505952D01*
X151154763Y-95458333D01*
X151059525Y-95410714D01*
X150916667Y-95410714D01*
X150821429Y-95458333D01*
X150773810Y-95505952D01*
X150726191Y-95601190D01*
X150726191Y-95886905D01*
X150773810Y-95982143D01*
X150821429Y-96029762D01*
X150916667Y-96077381D01*
X151059525Y-96077381D01*
X149869048Y-96077381D02*
X149869048Y-95553571D01*
X149916667Y-95458333D01*
X150011905Y-95410714D01*
X150202382Y-95410714D01*
X150297620Y-95458333D01*
X149869048Y-96029762D02*
X149964286Y-96077381D01*
X150202382Y-96077381D01*
X150297620Y-96029762D01*
X150345239Y-95934524D01*
X150345239Y-95839286D01*
X150297620Y-95744048D01*
X150202382Y-95696429D01*
X149964286Y-95696429D01*
X149869048Y-95648810D01*
X148964286Y-96077381D02*
X148964286Y-95077381D01*
X148964286Y-96029762D02*
X149059524Y-96077381D01*
X149250001Y-96077381D01*
X149345239Y-96029762D01*
X149392858Y-95982143D01*
X149440477Y-95886905D01*
X149440477Y-95601190D01*
X149392858Y-95505952D01*
X149345239Y-95458333D01*
X149250001Y-95410714D01*
X149059524Y-95410714D01*
X148964286Y-95458333D01*
X148107143Y-96029762D02*
X148202381Y-96077381D01*
X148392858Y-96077381D01*
X148488096Y-96029762D01*
X148535715Y-95934524D01*
X148535715Y-95553571D01*
X148488096Y-95458333D01*
X148392858Y-95410714D01*
X148202381Y-95410714D01*
X148107143Y-95458333D01*
X148059524Y-95553571D01*
X148059524Y-95648810D01*
X148535715Y-95744048D01*
X147630953Y-96077381D02*
X147630953Y-95410714D01*
X147630953Y-95601190D02*
X147583334Y-95505952D01*
X147535715Y-95458333D01*
X147440477Y-95410714D01*
X147345238Y-95410714D01*
X158725000Y-105240000D02*
X160575000Y-105240000D01*
X158725000Y-110760000D02*
X160575000Y-110760000D01*
X159650000Y-109800000D02*
X159650000Y-106200000D01*
X131900000Y-99100000D02*
X131900000Y-98400000D01*
X130700000Y-98400000D02*
X130700000Y-99100000D01*
X133600000Y-99100000D02*
X133600000Y-98400000D01*
X132400000Y-98400000D02*
X132400000Y-99100000D01*
X136600000Y-98350000D02*
X136600000Y-99050000D01*
X137800000Y-99050000D02*
X137800000Y-98350000D01*
X148200000Y-105400000D02*
X148200000Y-104700000D01*
X147000000Y-104700000D02*
X147000000Y-105400000D01*
X148800000Y-114800000D02*
X148100000Y-114800000D01*
X148100000Y-116000000D02*
X148800000Y-116000000D01*
X146750000Y-124900000D02*
X146750000Y-126050000D01*
X146750000Y-126050000D02*
X145200000Y-126050000D01*
X137326000Y-123376000D02*
X137326000Y-123884000D01*
X137834000Y-123376000D02*
X137834000Y-123884000D01*
X139866000Y-123376000D02*
X139866000Y-123884000D01*
X140374000Y-123376000D02*
X140374000Y-123884000D01*
X142406000Y-123376000D02*
X142406000Y-123884000D01*
X142914000Y-123376000D02*
X142914000Y-123884000D01*
X144946000Y-123376000D02*
X144946000Y-123884000D01*
X145454000Y-123376000D02*
X145454000Y-123884000D01*
X145454000Y-120836000D02*
X145454000Y-121344000D01*
X144946000Y-120836000D02*
X144946000Y-121344000D01*
X142914000Y-120836000D02*
X142914000Y-121344000D01*
X142406000Y-120836000D02*
X142406000Y-121344000D01*
X137326000Y-120836000D02*
X137326000Y-121344000D01*
X137834000Y-120836000D02*
X137834000Y-121344000D01*
X139866000Y-120836000D02*
X139866000Y-121344000D01*
X140374000Y-120836000D02*
X140374000Y-121344000D01*
X145327000Y-118296000D02*
X145327000Y-112327000D01*
X145327000Y-112327000D02*
X145073000Y-112327000D01*
X145073000Y-112327000D02*
X145073000Y-118169000D01*
X145073000Y-118169000D02*
X145200000Y-118169000D01*
X145200000Y-118169000D02*
X145200000Y-112327000D01*
X136310000Y-120836000D02*
X136310000Y-118296000D01*
X141390000Y-120836000D02*
X141390000Y-118296000D01*
X141390000Y-120836000D02*
X138850000Y-120836000D01*
X138850000Y-120836000D02*
X138850000Y-118296000D01*
X140374000Y-118296000D02*
X140374000Y-112200000D01*
X140374000Y-112200000D02*
X139866000Y-112200000D01*
X139866000Y-112200000D02*
X139866000Y-118296000D01*
X138850000Y-118296000D02*
X141390000Y-118296000D01*
X136310000Y-118296000D02*
X138850000Y-118296000D01*
X137326000Y-112200000D02*
X137326000Y-118296000D01*
X137834000Y-112200000D02*
X137326000Y-112200000D01*
X137834000Y-118296000D02*
X137834000Y-112200000D01*
X136310000Y-120836000D02*
X136310000Y-118296000D01*
X138850000Y-120836000D02*
X136310000Y-120836000D01*
X138850000Y-120836000D02*
X138850000Y-118296000D01*
X143930000Y-120836000D02*
X143930000Y-118296000D01*
X143930000Y-120836000D02*
X141390000Y-120836000D01*
X141390000Y-120836000D02*
X141390000Y-118296000D01*
X142914000Y-118296000D02*
X142914000Y-112200000D01*
X142914000Y-112200000D02*
X142406000Y-112200000D01*
X142406000Y-112200000D02*
X142406000Y-118296000D01*
X141390000Y-118296000D02*
X143930000Y-118296000D01*
X143930000Y-118296000D02*
X146470000Y-118296000D01*
X144946000Y-112200000D02*
X144946000Y-118296000D01*
X145454000Y-112200000D02*
X144946000Y-112200000D01*
X145454000Y-118296000D02*
X145454000Y-112200000D01*
X143930000Y-120836000D02*
X143930000Y-118296000D01*
X146470000Y-120836000D02*
X143930000Y-120836000D01*
X146470000Y-120836000D02*
X146470000Y-118296000D01*
X146125000Y-108550000D02*
X146125000Y-109550000D01*
X147475000Y-109550000D02*
X147475000Y-108550000D01*
X142100000Y-107375000D02*
X143100000Y-107375000D01*
X143100000Y-106025000D02*
X142100000Y-106025000D01*
X137950000Y-107375000D02*
X138950000Y-107375000D01*
X138950000Y-106025000D02*
X137950000Y-106025000D01*
X142350000Y-105120000D02*
X143050000Y-105120000D01*
X143050000Y-103920000D02*
X142350000Y-103920000D01*
X161629200Y-99619820D02*
X162330240Y-99619820D01*
X162330240Y-99619820D02*
X162330240Y-99370900D01*
X162330240Y-96820840D02*
X162330240Y-96620180D01*
X162330240Y-96620180D02*
X161629200Y-96620180D01*
X150879820Y-122609660D02*
X150879820Y-121908620D01*
X150879820Y-121908620D02*
X150630900Y-121908620D01*
X148080840Y-121908620D02*
X147880180Y-121908620D01*
X147880180Y-121908620D02*
X147880180Y-122609660D01*
X156330180Y-122490340D02*
X156330180Y-123191380D01*
X156330180Y-123191380D02*
X156579100Y-123191380D01*
X159129160Y-123191380D02*
X159329820Y-123191380D01*
X159329820Y-123191380D02*
X159329820Y-122490340D01*
X150840000Y-89985000D02*
X150840000Y-89435000D01*
X150840000Y-89435000D02*
X149140000Y-89435000D01*
X149140000Y-89435000D02*
X149140000Y-89985000D01*
X148240000Y-93085000D02*
X151740000Y-93085000D01*
X151740000Y-89985000D02*
X148240000Y-89985000D01*
X138750000Y-97350000D02*
X138750000Y-98050000D01*
X139950000Y-98050000D02*
X139950000Y-97350000D01*
X160248095Y-104652381D02*
X160248095Y-103652381D01*
X159867142Y-103652381D01*
X159771904Y-103700000D01*
X159724285Y-103747619D01*
X159676666Y-103842857D01*
X159676666Y-103985714D01*
X159724285Y-104080952D01*
X159771904Y-104128571D01*
X159867142Y-104176190D01*
X160248095Y-104176190D01*
X158771904Y-103652381D02*
X159248095Y-103652381D01*
X159295714Y-104128571D01*
X159248095Y-104080952D01*
X159152857Y-104033333D01*
X158914761Y-104033333D01*
X158819523Y-104080952D01*
X158771904Y-104128571D01*
X158724285Y-104223810D01*
X158724285Y-104461905D01*
X158771904Y-104557143D01*
X158819523Y-104604762D01*
X158914761Y-104652381D01*
X159152857Y-104652381D01*
X159248095Y-104604762D01*
X159295714Y-104557143D01*
X131657143Y-95383334D02*
X131704762Y-95335715D01*
X131752381Y-95192858D01*
X131752381Y-95097620D01*
X131704762Y-94954762D01*
X131609524Y-94859524D01*
X131514286Y-94811905D01*
X131323810Y-94764286D01*
X131180952Y-94764286D01*
X130990476Y-94811905D01*
X130895238Y-94859524D01*
X130800000Y-94954762D01*
X130752381Y-95097620D01*
X130752381Y-95192858D01*
X130800000Y-95335715D01*
X130847619Y-95383334D01*
X131752381Y-96335715D02*
X131752381Y-95764286D01*
X131752381Y-96050000D02*
X130752381Y-96050000D01*
X130895238Y-95954762D01*
X130990476Y-95859524D01*
X131038095Y-95764286D01*
X133357143Y-95383334D02*
X133404762Y-95335715D01*
X133452381Y-95192858D01*
X133452381Y-95097620D01*
X133404762Y-94954762D01*
X133309524Y-94859524D01*
X133214286Y-94811905D01*
X133023810Y-94764286D01*
X132880952Y-94764286D01*
X132690476Y-94811905D01*
X132595238Y-94859524D01*
X132500000Y-94954762D01*
X132452381Y-95097620D01*
X132452381Y-95192858D01*
X132500000Y-95335715D01*
X132547619Y-95383334D01*
X132785714Y-96240477D02*
X133452381Y-96240477D01*
X132404762Y-96002381D02*
X133119048Y-95764286D01*
X133119048Y-96383334D01*
X137707143Y-101983334D02*
X137754762Y-101935715D01*
X137802381Y-101792858D01*
X137802381Y-101697620D01*
X137754762Y-101554762D01*
X137659524Y-101459524D01*
X137564286Y-101411905D01*
X137373810Y-101364286D01*
X137230952Y-101364286D01*
X137040476Y-101411905D01*
X136945238Y-101459524D01*
X136850000Y-101554762D01*
X136802381Y-101697620D01*
X136802381Y-101792858D01*
X136850000Y-101935715D01*
X136897619Y-101983334D01*
X136802381Y-102888096D02*
X136802381Y-102411905D01*
X137278571Y-102364286D01*
X137230952Y-102411905D01*
X137183333Y-102507143D01*
X137183333Y-102745239D01*
X137230952Y-102840477D01*
X137278571Y-102888096D01*
X137373810Y-102935715D01*
X137611905Y-102935715D01*
X137707143Y-102888096D01*
X137754762Y-102840477D01*
X137802381Y-102745239D01*
X137802381Y-102507143D01*
X137754762Y-102411905D01*
X137707143Y-102364286D01*
X149857143Y-104883334D02*
X149904762Y-104835715D01*
X149952381Y-104692858D01*
X149952381Y-104597620D01*
X149904762Y-104454762D01*
X149809524Y-104359524D01*
X149714286Y-104311905D01*
X149523810Y-104264286D01*
X149380952Y-104264286D01*
X149190476Y-104311905D01*
X149095238Y-104359524D01*
X149000000Y-104454762D01*
X148952381Y-104597620D01*
X148952381Y-104692858D01*
X149000000Y-104835715D01*
X149047619Y-104883334D01*
X148952381Y-105216667D02*
X148952381Y-105883334D01*
X149952381Y-105454762D01*
X149092857Y-113857143D02*
X149140476Y-113904762D01*
X149283333Y-113952381D01*
X149378571Y-113952381D01*
X149521429Y-113904762D01*
X149616667Y-113809524D01*
X149664286Y-113714286D01*
X149711905Y-113523810D01*
X149711905Y-113380952D01*
X149664286Y-113190476D01*
X149616667Y-113095238D01*
X149521429Y-113000000D01*
X149378571Y-112952381D01*
X149283333Y-112952381D01*
X149140476Y-113000000D01*
X149092857Y-113047619D01*
X148140476Y-113952381D02*
X148711905Y-113952381D01*
X148426191Y-113952381D02*
X148426191Y-112952381D01*
X148521429Y-113095238D01*
X148616667Y-113190476D01*
X148711905Y-113238095D01*
X147521429Y-112952381D02*
X147426190Y-112952381D01*
X147330952Y-113000000D01*
X147283333Y-113047619D01*
X147235714Y-113142857D01*
X147188095Y-113333333D01*
X147188095Y-113571429D01*
X147235714Y-113761905D01*
X147283333Y-113857143D01*
X147330952Y-113904762D01*
X147426190Y-113952381D01*
X147521429Y-113952381D01*
X147616667Y-113904762D01*
X147664286Y-113857143D01*
X147711905Y-113761905D01*
X147759524Y-113571429D01*
X147759524Y-113333333D01*
X147711905Y-113142857D01*
X147664286Y-113047619D01*
X147616667Y-113000000D01*
X147521429Y-112952381D01*
X149152381Y-108883334D02*
X148676190Y-108550000D01*
X149152381Y-108311905D02*
X148152381Y-108311905D01*
X148152381Y-108692858D01*
X148200000Y-108788096D01*
X148247619Y-108835715D01*
X148342857Y-108883334D01*
X148485714Y-108883334D01*
X148580952Y-108835715D01*
X148628571Y-108788096D01*
X148676190Y-108692858D01*
X148676190Y-108311905D01*
X148152381Y-109788096D02*
X148152381Y-109311905D01*
X148628571Y-109264286D01*
X148580952Y-109311905D01*
X148533333Y-109407143D01*
X148533333Y-109645239D01*
X148580952Y-109740477D01*
X148628571Y-109788096D01*
X148723810Y-109835715D01*
X148961905Y-109835715D01*
X149057143Y-109788096D01*
X149104762Y-109740477D01*
X149152381Y-109645239D01*
X149152381Y-109407143D01*
X149104762Y-109311905D01*
X149057143Y-109264286D01*
X142716666Y-103602381D02*
X143050000Y-103126190D01*
X143288095Y-103602381D02*
X143288095Y-102602381D01*
X142907142Y-102602381D01*
X142811904Y-102650000D01*
X142764285Y-102697619D01*
X142716666Y-102792857D01*
X142716666Y-102935714D01*
X142764285Y-103030952D01*
X142811904Y-103078571D01*
X142907142Y-103126190D01*
X143288095Y-103126190D01*
X142383333Y-102602381D02*
X141716666Y-102602381D01*
X142145238Y-103602381D01*
X138616666Y-105702381D02*
X138950000Y-105226190D01*
X139188095Y-105702381D02*
X139188095Y-104702381D01*
X138807142Y-104702381D01*
X138711904Y-104750000D01*
X138664285Y-104797619D01*
X138616666Y-104892857D01*
X138616666Y-105035714D01*
X138664285Y-105130952D01*
X138711904Y-105178571D01*
X138807142Y-105226190D01*
X139188095Y-105226190D01*
X138045238Y-105130952D02*
X138140476Y-105083333D01*
X138188095Y-105035714D01*
X138235714Y-104940476D01*
X138235714Y-104892857D01*
X138188095Y-104797619D01*
X138140476Y-104750000D01*
X138045238Y-104702381D01*
X137854761Y-104702381D01*
X137759523Y-104750000D01*
X137711904Y-104797619D01*
X137664285Y-104892857D01*
X137664285Y-104940476D01*
X137711904Y-105035714D01*
X137759523Y-105083333D01*
X137854761Y-105130952D01*
X138045238Y-105130952D01*
X138140476Y-105178571D01*
X138188095Y-105226190D01*
X138235714Y-105321429D01*
X138235714Y-105511905D01*
X138188095Y-105607143D01*
X138140476Y-105654762D01*
X138045238Y-105702381D01*
X137854761Y-105702381D01*
X137759523Y-105654762D01*
X137711904Y-105607143D01*
X137664285Y-105511905D01*
X137664285Y-105321429D01*
X137711904Y-105226190D01*
X137759523Y-105178571D01*
X137854761Y-105130952D01*
X143392857Y-108557143D02*
X143440476Y-108604762D01*
X143583333Y-108652381D01*
X143678571Y-108652381D01*
X143821429Y-108604762D01*
X143916667Y-108509524D01*
X143964286Y-108414286D01*
X144011905Y-108223810D01*
X144011905Y-108080952D01*
X143964286Y-107890476D01*
X143916667Y-107795238D01*
X143821429Y-107700000D01*
X143678571Y-107652381D01*
X143583333Y-107652381D01*
X143440476Y-107700000D01*
X143392857Y-107747619D01*
X142440476Y-108652381D02*
X143011905Y-108652381D01*
X142726191Y-108652381D02*
X142726191Y-107652381D01*
X142821429Y-107795238D01*
X142916667Y-107890476D01*
X143011905Y-107938095D01*
X142107143Y-107652381D02*
X141488095Y-107652381D01*
X141821429Y-108033333D01*
X141678571Y-108033333D01*
X141583333Y-108080952D01*
X141535714Y-108128571D01*
X141488095Y-108223810D01*
X141488095Y-108461905D01*
X141535714Y-108557143D01*
X141583333Y-108604762D01*
X141678571Y-108652381D01*
X141964286Y-108652381D01*
X142059524Y-108604762D01*
X142107143Y-108557143D01*
X161202381Y-94811905D02*
X160202381Y-94811905D01*
X160202381Y-95050000D01*
X160250000Y-95192858D01*
X160345238Y-95288096D01*
X160440476Y-95335715D01*
X160630952Y-95383334D01*
X160773810Y-95383334D01*
X160964286Y-95335715D01*
X161059524Y-95288096D01*
X161154762Y-95192858D01*
X161202381Y-95050000D01*
X161202381Y-94811905D01*
X160535714Y-96240477D02*
X161202381Y-96240477D01*
X160154762Y-96002381D02*
X160869048Y-95764286D01*
X160869048Y-96383334D01*
X149495238Y-119597619D02*
X149590476Y-119550000D01*
X149685714Y-119454762D01*
X149828571Y-119311905D01*
X149923810Y-119264286D01*
X150019048Y-119264286D01*
X149971429Y-119502381D02*
X150066667Y-119454762D01*
X150161905Y-119359524D01*
X150209524Y-119169048D01*
X150209524Y-118835714D01*
X150161905Y-118645238D01*
X150066667Y-118550000D01*
X149971429Y-118502381D01*
X149780952Y-118502381D01*
X149685714Y-118550000D01*
X149590476Y-118645238D01*
X149542857Y-118835714D01*
X149542857Y-119169048D01*
X149590476Y-119359524D01*
X149685714Y-119454762D01*
X149780952Y-119502381D01*
X149971429Y-119502381D01*
X149209524Y-118502381D02*
X148590476Y-118502381D01*
X148923810Y-118883333D01*
X148780952Y-118883333D01*
X148685714Y-118930952D01*
X148638095Y-118978571D01*
X148590476Y-119073810D01*
X148590476Y-119311905D01*
X148638095Y-119407143D01*
X148685714Y-119454762D01*
X148780952Y-119502381D01*
X149066667Y-119502381D01*
X149161905Y-119454762D01*
X149209524Y-119407143D01*
X157895238Y-119647619D02*
X157990476Y-119600000D01*
X158085714Y-119504762D01*
X158228571Y-119361905D01*
X158323810Y-119314286D01*
X158419048Y-119314286D01*
X158371429Y-119552381D02*
X158466667Y-119504762D01*
X158561905Y-119409524D01*
X158609524Y-119219048D01*
X158609524Y-118885714D01*
X158561905Y-118695238D01*
X158466667Y-118600000D01*
X158371429Y-118552381D01*
X158180952Y-118552381D01*
X158085714Y-118600000D01*
X157990476Y-118695238D01*
X157942857Y-118885714D01*
X157942857Y-119219048D01*
X157990476Y-119409524D01*
X158085714Y-119504762D01*
X158180952Y-119552381D01*
X158371429Y-119552381D01*
X157085714Y-118885714D02*
X157085714Y-119552381D01*
X157323810Y-118504762D02*
X157561905Y-119219048D01*
X156942857Y-119219048D01*
X139707143Y-100357143D02*
X139754762Y-100309524D01*
X139802381Y-100166667D01*
X139802381Y-100071429D01*
X139754762Y-99928571D01*
X139659524Y-99833333D01*
X139564286Y-99785714D01*
X139373810Y-99738095D01*
X139230952Y-99738095D01*
X139040476Y-99785714D01*
X138945238Y-99833333D01*
X138850000Y-99928571D01*
X138802381Y-100071429D01*
X138802381Y-100166667D01*
X138850000Y-100309524D01*
X138897619Y-100357143D01*
X139802381Y-101309524D02*
X139802381Y-100738095D01*
X139802381Y-101023809D02*
X138802381Y-101023809D01*
X138945238Y-100928571D01*
X139040476Y-100833333D01*
X139088095Y-100738095D01*
X139135714Y-102166667D02*
X139802381Y-102166667D01*
X138754762Y-101928571D02*
X139469048Y-101690476D01*
X139469048Y-102309524D01*
M02*
