M48
INCH,TZ
T1C0.013
T2C0.013
T3C0.040
T4C0.047
T5C0.118
%
G90
G05
T1
X51575Y-37992
X51654Y-40650
X51654Y-42382
X51673Y-44843
X51692Y-39807
X52066Y-42122
X52087Y-40866
X52087Y-41792
X52193Y-39892
X52340Y-46063
X52522Y-39852
X52598Y-40689
X52797Y-38278
X52835Y-39545
X53071Y-39311
X53130Y-44909
X53197Y-44575
X53233Y-44247
X53258Y-43911
X53740Y-39705
X53819Y-41535
X54016Y-39724
X54378Y-39627
X54390Y-38484
X54429Y-38209
X54617Y-45306
X54953Y-45643
X55067Y-41520
X55187Y-45876
X55321Y-39726
X55484Y-40733
X55513Y-45827
X55611Y-39569
X55668Y-38187
X55945Y-45807
X55974Y-39073
X56280Y-38110
X56299Y-45925
X56341Y-44903
X56358Y-42992
X56562Y-45149
X56998Y-41487
X57047Y-36498
X57058Y-42657
X57087Y-40787
X57264Y-42382
X57402Y-41732
X57415Y-40815
X57539Y-36496
X57677Y-45866
X57717Y-41181
X57874Y-48622
X57923Y-43795
X58268Y-42284
X58268Y-45906
X58283Y-44882
X58406Y-40256
X58465Y-47953
X59114Y-36004
X59307Y-44030
X59449Y-40984
X59571Y-48685
X59592Y-44215
X59646Y-43563
X59710Y-41634
X59746Y-41987
X59764Y-44528
X59902Y-39902
X60017Y-43807
X60026Y-47482
X60055Y-45878
X60157Y-42677
X60166Y-43415
X60184Y-48482
X60255Y-41922
X60482Y-47621
X60505Y-41544
X60506Y-48551
X60610Y-36870
X60664Y-44790
X60693Y-47367
X60718Y-43783
X60802Y-48698
X60902Y-45198
X60943Y-35866
X60995Y-47499
X61035Y-43625
X61165Y-43307
X61256Y-47287
X61260Y-48826
X61280Y-35866
X61398Y-47756
X61417Y-41339
X61417Y-41339
X61482Y-43482
X61614Y-35866
X61614Y-42421
X61811Y-41969
X61890Y-42303
X61890Y-42598
X61988Y-36811
X62028Y-38976
X62480Y-38957
X62728Y-48512
X62953Y-49173
X63642Y-38228
X63826Y-43927
X63840Y-43598
X63841Y-44257
X64062Y-39137
T2
X60650Y-39272
X60856Y-44356
X61057Y-45495
X61093Y-44083
X61104Y-40672
X61117Y-44560
X61118Y-45819
X61129Y-40343
X61181Y-39173
X61215Y-41599
X61326Y-44986
X61411Y-44203
X61465Y-45789
X61634Y-43071
X61634Y-42756
X61752Y-45986
X61890Y-42913
X61890Y-43248
X61928Y-45707
X62272Y-45809
X63839Y-42028
X63839Y-42323
X63839Y-42618
X63839Y-43248
X63839Y-42913
X64207Y-39434
X64531Y-39499
X64531Y-39922
T3
X54165Y-48173
X54165Y-49173
X55165Y-48173
X55165Y-49173
X56165Y-48173
X56165Y-49173
X57165Y-48173
X57165Y-49173
T4
X54724Y-36004
X57323Y-36004
T5
X52264Y-36516
X52264Y-48524
X64272Y-36516
X64272Y-48524
T0
M30
