G04 #@! TF.FileFunction,Copper,L2,Inr,Signal*
%FSLAX46Y46*%
G04 Gerber Fmt 4.6, Leading zero omitted, Abs format (unit mm)*
G04 Created by KiCad (PCBNEW 4.0.1-stable) date Friday, February 19, 2016 'PMt' 12:28:47 PM*
%MOMM*%
G01*
G04 APERTURE LIST*
%ADD10C,0.100000*%
%ADD11R,1.727200X1.727200*%
%ADD12O,1.727200X1.727200*%
%ADD13C,1.600000*%
%ADD14C,0.685800*%
%ADD15C,0.685801*%
%ADD16C,0.152400*%
%ADD17C,0.254000*%
G04 APERTURE END LIST*
D10*
D11*
X146700000Y-124900000D03*
D12*
X146700000Y-122360000D03*
X144160000Y-124900000D03*
X144160000Y-122360000D03*
X141620000Y-124900000D03*
X141620000Y-122360000D03*
X139080000Y-124900000D03*
X139080000Y-122360000D03*
D13*
X139000000Y-91450000D03*
X145600000Y-91450000D03*
D14*
X148150000Y-123025000D03*
X159900000Y-121600000D03*
X148096331Y-105082274D03*
X138060000Y-97440000D03*
X136860000Y-91140000D03*
X130920000Y-96180000D03*
X132252297Y-109155135D03*
X130940000Y-103140000D03*
X149450000Y-117162320D03*
X152740000Y-102460000D03*
X154795302Y-91020880D03*
X156500000Y-91020880D03*
X155650000Y-91020880D03*
X144789150Y-103608420D03*
X144900000Y-92704672D03*
X150150000Y-91450000D03*
X132942400Y-117000000D03*
D15*
X155484831Y-105661094D03*
D14*
X159523865Y-125200572D03*
X145050000Y-104690000D03*
X131030000Y-108710000D03*
X150920000Y-116980000D03*
X138530000Y-96360000D03*
X140450000Y-99330000D03*
X133430000Y-95030000D03*
X157550000Y-97760000D03*
X130890000Y-100610000D03*
X152750000Y-104140000D03*
X146150000Y-92700000D03*
X157450000Y-93500000D03*
X153950000Y-93650000D03*
X131250000Y-113900000D03*
X156000058Y-104999926D03*
X156000057Y-104999927D03*
D15*
X162150000Y-109849998D03*
X162150000Y-106750000D03*
X162150000Y-107500006D03*
X162150000Y-108250000D03*
X162150004Y-109000000D03*
D14*
X161650000Y-97100000D03*
X144336625Y-96146625D03*
X139740000Y-96250000D03*
D15*
X156533480Y-109382218D03*
D14*
X157200000Y-107450000D03*
X156500000Y-107750000D03*
X157200000Y-108200000D03*
D15*
X157199998Y-109000000D03*
X156550004Y-108600000D03*
D14*
X137913185Y-113696704D03*
X137138634Y-114127893D03*
X136417894Y-113583603D03*
X135550000Y-114100000D03*
X162110236Y-100071520D03*
X143000000Y-116650000D03*
D15*
X163112236Y-100200276D03*
D14*
X142100000Y-116350000D03*
D15*
X163939920Y-100332709D03*
D14*
X141003006Y-116399407D03*
D15*
X163908480Y-101402757D03*
D14*
X140174437Y-116526186D03*
X154163213Y-119869803D03*
X152934821Y-123092626D03*
X152262672Y-122591812D03*
X153326477Y-119809768D03*
X152393929Y-119801218D03*
X150304638Y-122896631D03*
X151542115Y-119924743D03*
X148925540Y-121613280D03*
X140567692Y-104110458D03*
X158699998Y-98950000D03*
X139696520Y-103550000D03*
X157620588Y-98912234D03*
X156105760Y-110569805D03*
X162152957Y-110738207D03*
X154733771Y-110026331D03*
X162118150Y-111575696D03*
X154962739Y-110832653D03*
X162156514Y-112413029D03*
X154085953Y-113766036D03*
D15*
X155236520Y-113183346D03*
D14*
X154690742Y-114803827D03*
D15*
X155768513Y-114264986D03*
D14*
X153687488Y-107382303D03*
D15*
X155083600Y-115556054D03*
D14*
X152364334Y-106589079D03*
D15*
X155238794Y-116379773D03*
D14*
X152358616Y-111507398D03*
D15*
X156121678Y-116305139D03*
D14*
X151500000Y-110650000D03*
D15*
X156850162Y-116804780D03*
D14*
X138726019Y-115077767D03*
D15*
X157298385Y-116096476D03*
D14*
X139580652Y-115932401D03*
D15*
X158170500Y-116353781D03*
D14*
X137988623Y-108849879D03*
X141400000Y-113250000D03*
X133600000Y-103350000D03*
X151800000Y-113100000D03*
X152666160Y-110727644D03*
X154216302Y-111214007D03*
X157070000Y-101080000D03*
X143100000Y-113000000D03*
D15*
X155983285Y-112276038D03*
D14*
X143667109Y-114677791D03*
X151363221Y-112306208D03*
X143107184Y-114054025D03*
X150639823Y-111836527D03*
X144370158Y-110363541D03*
D15*
X154991864Y-102801273D03*
D14*
X145599819Y-103395312D03*
X144100000Y-105670000D03*
D15*
X155228192Y-103605480D03*
D14*
X142798800Y-111099600D03*
X140352086Y-105253480D03*
X152689370Y-108036912D03*
X156935875Y-106535875D03*
X151476488Y-107978160D03*
X156984125Y-99925875D03*
X151166989Y-107199180D03*
X156030000Y-99780000D03*
X159749414Y-123677148D03*
X142544659Y-103544659D03*
X150275000Y-123848805D03*
X160000000Y-111100000D03*
X153925000Y-125000000D03*
X159071954Y-122700019D03*
X156740608Y-119564992D03*
X155597587Y-119869803D03*
X152540000Y-116530000D03*
X148040000Y-114000000D03*
X148096331Y-107400121D03*
X161450000Y-121000000D03*
X146071520Y-109543211D03*
X148138480Y-102624464D03*
X153175516Y-100164047D03*
X151200000Y-125050000D03*
X134587355Y-95360282D03*
X132120000Y-106320000D03*
X132190000Y-96250000D03*
X132250000Y-108210000D03*
X135470000Y-95260000D03*
X134120000Y-101470000D03*
X146456400Y-111404400D03*
X140665200Y-109728000D03*
X141579600Y-110794800D03*
X148380000Y-101620000D03*
X150090000Y-100390000D03*
X142825000Y-105975000D03*
X152375000Y-108975000D03*
X157100000Y-110000000D03*
X144600000Y-108994100D03*
X142925000Y-95450000D03*
X144600000Y-108155900D03*
D16*
X160008798Y-125200572D02*
X159523865Y-125200572D01*
X160324428Y-125200572D02*
X160008798Y-125200572D01*
X160525000Y-125000000D02*
X160324428Y-125200572D01*
X145050000Y-104690000D02*
X145050000Y-105174933D01*
X131030000Y-108225067D02*
X131030000Y-108710000D01*
X131120134Y-108134933D02*
X131030000Y-108225067D01*
X131200000Y-108134933D02*
X131120134Y-108134933D01*
D17*
X150920000Y-117104933D02*
X150920000Y-116980000D01*
X150955067Y-117140000D02*
X150920000Y-117104933D01*
X151440000Y-117140000D02*
X150955067Y-117140000D01*
X151820000Y-117140000D02*
X151440000Y-117140000D01*
D16*
X138530000Y-96360000D02*
X138045067Y-96360000D01*
X138045067Y-96360000D02*
X138035067Y-96370000D01*
X140450000Y-99330000D02*
X140450000Y-98760000D01*
X133430000Y-95030000D02*
X132945067Y-95030000D01*
X157550000Y-97760000D02*
X158150000Y-97760000D01*
X130890000Y-100610000D02*
X130890000Y-101190000D01*
D17*
X152750000Y-104140000D02*
X153092899Y-103797101D01*
D16*
X146150000Y-92700000D02*
X146150000Y-92000000D01*
X146150000Y-92000000D02*
X145600000Y-91450000D01*
X145600000Y-91450000D02*
X144997600Y-91450000D01*
X144997600Y-91450000D02*
X144947600Y-91400000D01*
X131250000Y-113900000D02*
X131250000Y-113415067D01*
X155657101Y-104657101D02*
X155999926Y-104999926D01*
X155999926Y-104999926D02*
X156000058Y-104999926D01*
D17*
G36*
X136139063Y-90657375D02*
X136009248Y-90970003D01*
X136008953Y-91308512D01*
X136138222Y-91621366D01*
X136377375Y-91860937D01*
X136690003Y-91990752D01*
X137028512Y-91991047D01*
X137341366Y-91861778D01*
X137580937Y-91622625D01*
X137707308Y-91318289D01*
X137907362Y-91318289D01*
X137940131Y-91746450D01*
X138040938Y-91989819D01*
X138186938Y-92083457D01*
X138820395Y-91450000D01*
X139179605Y-91450000D01*
X139813062Y-92083457D01*
X139959062Y-91989819D01*
X140092638Y-91581711D01*
X140059869Y-91153550D01*
X139959062Y-90910181D01*
X139813062Y-90816543D01*
X139179605Y-91450000D01*
X138820395Y-91450000D01*
X138186938Y-90816543D01*
X138040938Y-90910181D01*
X137907362Y-91318289D01*
X137707308Y-91318289D01*
X137710752Y-91309997D01*
X137711047Y-90971488D01*
X137581778Y-90658634D01*
X137506276Y-90583000D01*
X138401136Y-90583000D01*
X138366543Y-90636938D01*
X139000000Y-91270395D01*
X139633457Y-90636938D01*
X139598864Y-90583000D01*
X145001136Y-90583000D01*
X144966543Y-90636938D01*
X145600000Y-91270395D01*
X146233457Y-90636938D01*
X146198864Y-90583000D01*
X154055785Y-90583000D01*
X153944550Y-90850883D01*
X153944255Y-91189392D01*
X154073524Y-91502246D01*
X154312677Y-91741817D01*
X154625305Y-91871632D01*
X154963814Y-91871927D01*
X155222902Y-91764874D01*
X155480003Y-91871632D01*
X155818512Y-91871927D01*
X156075245Y-91765847D01*
X156330003Y-91871632D01*
X156668512Y-91871927D01*
X156981366Y-91742658D01*
X157220937Y-91503505D01*
X157350752Y-91190877D01*
X157351047Y-90852368D01*
X157239746Y-90583000D01*
X163192578Y-90583000D01*
X164074904Y-90758505D01*
X164774225Y-91225777D01*
X165241495Y-91925095D01*
X165417000Y-92807421D01*
X165417000Y-123192579D01*
X165241495Y-124074905D01*
X164774225Y-124774223D01*
X164074904Y-125241495D01*
X163192578Y-125417000D01*
X154673187Y-125417000D01*
X154775752Y-125169997D01*
X154776047Y-124831488D01*
X154646778Y-124518634D01*
X154407625Y-124279063D01*
X154094997Y-124149248D01*
X153756488Y-124148953D01*
X153443634Y-124278222D01*
X153204063Y-124517375D01*
X153074248Y-124830003D01*
X153073953Y-125168512D01*
X153176626Y-125417000D01*
X151968949Y-125417000D01*
X152050752Y-125219997D01*
X152051047Y-124881488D01*
X151921778Y-124568634D01*
X151682625Y-124329063D01*
X151369997Y-124199248D01*
X151050939Y-124198970D01*
X151125752Y-124018802D01*
X151126047Y-123680293D01*
X151008644Y-123396157D01*
X151025575Y-123379256D01*
X151155390Y-123066628D01*
X151155656Y-122760324D01*
X151411625Y-122760324D01*
X151540894Y-123073178D01*
X151780047Y-123312749D01*
X152092675Y-123442564D01*
X152158762Y-123442622D01*
X152213043Y-123573992D01*
X152452196Y-123813563D01*
X152764824Y-123943378D01*
X153103333Y-123943673D01*
X153416187Y-123814404D01*
X153655758Y-123575251D01*
X153785573Y-123262623D01*
X153785868Y-122924114D01*
X153762902Y-122868531D01*
X158220907Y-122868531D01*
X158350176Y-123181385D01*
X158589329Y-123420956D01*
X158898625Y-123549388D01*
X158898367Y-123845660D01*
X159027636Y-124158514D01*
X159266789Y-124398085D01*
X159579417Y-124527900D01*
X159917926Y-124528195D01*
X160230780Y-124398926D01*
X160470351Y-124159773D01*
X160600166Y-123847145D01*
X160600339Y-123647664D01*
X161241652Y-123647664D01*
X161546708Y-124385955D01*
X162111074Y-124951307D01*
X162848832Y-125257651D01*
X163647664Y-125258348D01*
X164385955Y-124953292D01*
X164951307Y-124388926D01*
X165257651Y-123651168D01*
X165258348Y-122852336D01*
X164953292Y-122114045D01*
X164388926Y-121548693D01*
X163651168Y-121242349D01*
X162852336Y-121241652D01*
X162114045Y-121546708D01*
X161548693Y-122111074D01*
X161242349Y-122848832D01*
X161241652Y-123647664D01*
X160600339Y-123647664D01*
X160600461Y-123508636D01*
X160471192Y-123195782D01*
X160232039Y-122956211D01*
X159922743Y-122827779D01*
X159923001Y-122531507D01*
X159889691Y-122450891D01*
X160068512Y-122451047D01*
X160381366Y-122321778D01*
X160620937Y-122082625D01*
X160750752Y-121769997D01*
X160750984Y-121504167D01*
X160967375Y-121720937D01*
X161280003Y-121850752D01*
X161618512Y-121851047D01*
X161931366Y-121721778D01*
X162170937Y-121482625D01*
X162300752Y-121169997D01*
X162301047Y-120831488D01*
X162171778Y-120518634D01*
X161932625Y-120279063D01*
X161619997Y-120149248D01*
X161281488Y-120148953D01*
X160968634Y-120278222D01*
X160729063Y-120517375D01*
X160599248Y-120830003D01*
X160599016Y-121095833D01*
X160382625Y-120879063D01*
X160069997Y-120749248D01*
X159731488Y-120748953D01*
X159418634Y-120878222D01*
X159179063Y-121117375D01*
X159049248Y-121430003D01*
X159048953Y-121768512D01*
X159082263Y-121849128D01*
X158903442Y-121848972D01*
X158590588Y-121978241D01*
X158351017Y-122217394D01*
X158221202Y-122530022D01*
X158220907Y-122868531D01*
X153762902Y-122868531D01*
X153656599Y-122611260D01*
X153417446Y-122371689D01*
X153104818Y-122241874D01*
X153038731Y-122241816D01*
X152984450Y-122110446D01*
X152745297Y-121870875D01*
X152432669Y-121741060D01*
X152094160Y-121740765D01*
X151781306Y-121870034D01*
X151541735Y-122109187D01*
X151411920Y-122421815D01*
X151411625Y-122760324D01*
X151155656Y-122760324D01*
X151155685Y-122728119D01*
X151026416Y-122415265D01*
X150787263Y-122175694D01*
X150474635Y-122045879D01*
X150136126Y-122045584D01*
X149823272Y-122174853D01*
X149583701Y-122414006D01*
X149453886Y-122726634D01*
X149453591Y-123065143D01*
X149570994Y-123349279D01*
X149554063Y-123366180D01*
X149424248Y-123678808D01*
X149423953Y-124017317D01*
X149553222Y-124330171D01*
X149792375Y-124569742D01*
X150105003Y-124699557D01*
X150424061Y-124699835D01*
X150349248Y-124880003D01*
X150348953Y-125218512D01*
X150430967Y-125417000D01*
X147843000Y-125417000D01*
X147843000Y-125096850D01*
X147773150Y-125027000D01*
X146827000Y-125027000D01*
X146827000Y-125047000D01*
X146573000Y-125047000D01*
X146573000Y-125027000D01*
X145626850Y-125027000D01*
X145557000Y-125096850D01*
X145557000Y-125417000D01*
X145154851Y-125417000D01*
X145262083Y-125203136D01*
X145226085Y-125027000D01*
X144287000Y-125027000D01*
X144287000Y-125047000D01*
X144033000Y-125047000D01*
X144033000Y-125027000D01*
X143093915Y-125027000D01*
X143057917Y-125203136D01*
X143165149Y-125417000D01*
X142614851Y-125417000D01*
X142722083Y-125203136D01*
X142686085Y-125027000D01*
X141747000Y-125027000D01*
X141747000Y-125047000D01*
X141493000Y-125047000D01*
X141493000Y-125027000D01*
X140553915Y-125027000D01*
X140517917Y-125203136D01*
X140625149Y-125417000D01*
X140074851Y-125417000D01*
X140182083Y-125203136D01*
X140146085Y-125027000D01*
X139207000Y-125027000D01*
X139207000Y-125047000D01*
X138953000Y-125047000D01*
X138953000Y-125027000D01*
X138013915Y-125027000D01*
X137977917Y-125203136D01*
X138085149Y-125417000D01*
X132807421Y-125417000D01*
X131925095Y-125241495D01*
X131225777Y-124774225D01*
X130758505Y-124074904D01*
X130673522Y-123647664D01*
X130741652Y-123647664D01*
X131046708Y-124385955D01*
X131611074Y-124951307D01*
X132348832Y-125257651D01*
X133147664Y-125258348D01*
X133885955Y-124953292D01*
X134451307Y-124388926D01*
X134757651Y-123651168D01*
X134758348Y-122852336D01*
X134543816Y-122333129D01*
X137708400Y-122333129D01*
X137708400Y-122386871D01*
X137812807Y-122911760D01*
X138110132Y-123356739D01*
X138555111Y-123654064D01*
X139072605Y-123757000D01*
X138952998Y-123757000D01*
X138952998Y-123834391D01*
X138776866Y-123797929D01*
X138515059Y-123906360D01*
X138177813Y-124198190D01*
X137977917Y-124596864D01*
X138013915Y-124773000D01*
X138953000Y-124773000D01*
X138953000Y-124753000D01*
X139207000Y-124753000D01*
X139207000Y-124773000D01*
X140146085Y-124773000D01*
X140182083Y-124596864D01*
X139982187Y-124198190D01*
X139644941Y-123906360D01*
X139383134Y-123797929D01*
X139207002Y-123834391D01*
X139207002Y-123757000D01*
X139087395Y-123757000D01*
X139604889Y-123654064D01*
X140049868Y-123356739D01*
X140347193Y-122911760D01*
X140350000Y-122897648D01*
X140352807Y-122911760D01*
X140650132Y-123356739D01*
X141095111Y-123654064D01*
X141612605Y-123757000D01*
X141492998Y-123757000D01*
X141492998Y-123834391D01*
X141316866Y-123797929D01*
X141055059Y-123906360D01*
X140717813Y-124198190D01*
X140517917Y-124596864D01*
X140553915Y-124773000D01*
X141493000Y-124773000D01*
X141493000Y-124753000D01*
X141747000Y-124753000D01*
X141747000Y-124773000D01*
X142686085Y-124773000D01*
X142722083Y-124596864D01*
X142522187Y-124198190D01*
X142184941Y-123906360D01*
X141923134Y-123797929D01*
X141747002Y-123834391D01*
X141747002Y-123757000D01*
X141627395Y-123757000D01*
X142144889Y-123654064D01*
X142589868Y-123356739D01*
X142887193Y-122911760D01*
X142890000Y-122897648D01*
X142892807Y-122911760D01*
X143190132Y-123356739D01*
X143635111Y-123654064D01*
X144152605Y-123757000D01*
X144032998Y-123757000D01*
X144032998Y-123834391D01*
X143856866Y-123797929D01*
X143595059Y-123906360D01*
X143257813Y-124198190D01*
X143057917Y-124596864D01*
X143093915Y-124773000D01*
X144033000Y-124773000D01*
X144033000Y-124753000D01*
X144287000Y-124753000D01*
X144287000Y-124773000D01*
X145226085Y-124773000D01*
X145262083Y-124596864D01*
X145062187Y-124198190D01*
X144724941Y-123906360D01*
X144463134Y-123797929D01*
X144287002Y-123834391D01*
X144287002Y-123757000D01*
X144167395Y-123757000D01*
X144684889Y-123654064D01*
X145129868Y-123356739D01*
X145427193Y-122911760D01*
X145430000Y-122897648D01*
X145432807Y-122911760D01*
X145730132Y-123356739D01*
X146175111Y-123654064D01*
X146692605Y-123757000D01*
X146572998Y-123757000D01*
X146572998Y-123826848D01*
X146503150Y-123757000D01*
X145780824Y-123757000D01*
X145678133Y-123799536D01*
X145599536Y-123878133D01*
X145557000Y-123980824D01*
X145557000Y-124703150D01*
X145626850Y-124773000D01*
X146573000Y-124773000D01*
X146573000Y-124753000D01*
X146827000Y-124753000D01*
X146827000Y-124773000D01*
X147773150Y-124773000D01*
X147843000Y-124703150D01*
X147843000Y-123980824D01*
X147800464Y-123878133D01*
X147721867Y-123799536D01*
X147619176Y-123757000D01*
X146896850Y-123757000D01*
X146827002Y-123826848D01*
X146827002Y-123757000D01*
X146707395Y-123757000D01*
X147224889Y-123654064D01*
X147435309Y-123513466D01*
X147667375Y-123745937D01*
X147980003Y-123875752D01*
X148318512Y-123876047D01*
X148631366Y-123746778D01*
X148870937Y-123507625D01*
X149000752Y-123194997D01*
X149001047Y-122856488D01*
X148871778Y-122543634D01*
X148792347Y-122464064D01*
X149094052Y-122464327D01*
X149406906Y-122335058D01*
X149646477Y-122095905D01*
X149776292Y-121783277D01*
X149776587Y-121444768D01*
X149647318Y-121131914D01*
X149408165Y-120892343D01*
X149095537Y-120762528D01*
X148757028Y-120762233D01*
X148444174Y-120891502D01*
X148204603Y-121130655D01*
X148074788Y-121443283D01*
X148074493Y-121781792D01*
X148203762Y-122094646D01*
X148283193Y-122174216D01*
X148039948Y-122174004D01*
X147967193Y-121808240D01*
X147669868Y-121363261D01*
X147224889Y-121065936D01*
X146700000Y-120961529D01*
X146175111Y-121065936D01*
X145730132Y-121363261D01*
X145432807Y-121808240D01*
X145430000Y-121822352D01*
X145427193Y-121808240D01*
X145129868Y-121363261D01*
X144684889Y-121065936D01*
X144160000Y-120961529D01*
X143635111Y-121065936D01*
X143190132Y-121363261D01*
X142892807Y-121808240D01*
X142890000Y-121822352D01*
X142887193Y-121808240D01*
X142589868Y-121363261D01*
X142144889Y-121065936D01*
X141620000Y-120961529D01*
X141095111Y-121065936D01*
X140650132Y-121363261D01*
X140352807Y-121808240D01*
X140350000Y-121822352D01*
X140347193Y-121808240D01*
X140049868Y-121363261D01*
X139604889Y-121065936D01*
X139080000Y-120961529D01*
X138555111Y-121065936D01*
X138110132Y-121363261D01*
X137812807Y-121808240D01*
X137708400Y-122333129D01*
X134543816Y-122333129D01*
X134453292Y-122114045D01*
X133888926Y-121548693D01*
X133151168Y-121242349D01*
X132352336Y-121241652D01*
X131614045Y-121546708D01*
X131048693Y-122111074D01*
X130742349Y-122848832D01*
X130741652Y-123647664D01*
X130673522Y-123647664D01*
X130583000Y-123192578D01*
X130583000Y-120093255D01*
X150691068Y-120093255D01*
X150820337Y-120406109D01*
X151059490Y-120645680D01*
X151372118Y-120775495D01*
X151710627Y-120775790D01*
X152023481Y-120646521D01*
X152078512Y-120591586D01*
X152223932Y-120651970D01*
X152562441Y-120652265D01*
X152850229Y-120533353D01*
X153156480Y-120660520D01*
X153494989Y-120660815D01*
X153675914Y-120586058D01*
X153680588Y-120590740D01*
X153993216Y-120720555D01*
X154331725Y-120720850D01*
X154644579Y-120591581D01*
X154880602Y-120355970D01*
X155114962Y-120590740D01*
X155427590Y-120720555D01*
X155766099Y-120720850D01*
X156078953Y-120591581D01*
X156318524Y-120352428D01*
X156333173Y-120317151D01*
X156570611Y-120415744D01*
X156909120Y-120416039D01*
X157221974Y-120286770D01*
X157461545Y-120047617D01*
X157591360Y-119734989D01*
X157591655Y-119396480D01*
X157462386Y-119083626D01*
X157223233Y-118844055D01*
X156910605Y-118714240D01*
X156572096Y-118713945D01*
X156259242Y-118843214D01*
X156019671Y-119082367D01*
X156005022Y-119117644D01*
X155767584Y-119019051D01*
X155429075Y-119018756D01*
X155116221Y-119148025D01*
X154880198Y-119383636D01*
X154645838Y-119148866D01*
X154333210Y-119019051D01*
X153994701Y-119018756D01*
X153813776Y-119093513D01*
X153809102Y-119088831D01*
X153496474Y-118959016D01*
X153157965Y-118958721D01*
X152870177Y-119077633D01*
X152563926Y-118950466D01*
X152225417Y-118950171D01*
X151912563Y-119079440D01*
X151857532Y-119134375D01*
X151712112Y-119073991D01*
X151373603Y-119073696D01*
X151060749Y-119202965D01*
X150821178Y-119442118D01*
X150691363Y-119754746D01*
X150691068Y-120093255D01*
X130583000Y-120093255D01*
X130583000Y-117168512D01*
X132091353Y-117168512D01*
X132220622Y-117481366D01*
X132459775Y-117720937D01*
X132772403Y-117850752D01*
X133110912Y-117851047D01*
X133423766Y-117721778D01*
X133663337Y-117482625D01*
X133793152Y-117169997D01*
X133793447Y-116831488D01*
X133664178Y-116518634D01*
X133425025Y-116279063D01*
X133112397Y-116149248D01*
X132773888Y-116148953D01*
X132461034Y-116278222D01*
X132221463Y-116517375D01*
X132091648Y-116830003D01*
X132091353Y-117168512D01*
X130583000Y-117168512D01*
X130583000Y-114268512D01*
X134698953Y-114268512D01*
X134828222Y-114581366D01*
X135067375Y-114820937D01*
X135380003Y-114950752D01*
X135718512Y-114951047D01*
X136031366Y-114821778D01*
X136270937Y-114582625D01*
X136332474Y-114434429D01*
X136344622Y-114434439D01*
X136416856Y-114609259D01*
X136656009Y-114848830D01*
X136968637Y-114978645D01*
X137307146Y-114978940D01*
X137620000Y-114849671D01*
X137859571Y-114610518D01*
X137885705Y-114547580D01*
X138052581Y-114547726D01*
X138005082Y-114595142D01*
X137875267Y-114907770D01*
X137874972Y-115246279D01*
X138004241Y-115559133D01*
X138243394Y-115798704D01*
X138556022Y-115928519D01*
X138729755Y-115928670D01*
X138729605Y-116100913D01*
X138858874Y-116413767D01*
X139098027Y-116653338D01*
X139349435Y-116757732D01*
X139452659Y-117007552D01*
X139691812Y-117247123D01*
X140004440Y-117376938D01*
X140342949Y-117377233D01*
X140655803Y-117247964D01*
X140706307Y-117197548D01*
X140833009Y-117250159D01*
X141171518Y-117250454D01*
X141484372Y-117121185D01*
X141576114Y-117029603D01*
X141617375Y-117070937D01*
X141930003Y-117200752D01*
X142268512Y-117201047D01*
X142324633Y-117177858D01*
X142517375Y-117370937D01*
X142830003Y-117500752D01*
X143168512Y-117501047D01*
X143481366Y-117371778D01*
X143522383Y-117330832D01*
X148598953Y-117330832D01*
X148728222Y-117643686D01*
X148967375Y-117883257D01*
X149280003Y-118013072D01*
X149618512Y-118013367D01*
X149931366Y-117884098D01*
X150170937Y-117644945D01*
X150300752Y-117332317D01*
X150301047Y-116993808D01*
X150179033Y-116698512D01*
X151688953Y-116698512D01*
X151818222Y-117011366D01*
X152057375Y-117250937D01*
X152370003Y-117380752D01*
X152708512Y-117381047D01*
X153021366Y-117251778D01*
X153260937Y-117012625D01*
X153390752Y-116699997D01*
X153391047Y-116361488D01*
X153261778Y-116048634D01*
X153022625Y-115809063D01*
X152709997Y-115679248D01*
X152371488Y-115678953D01*
X152058634Y-115808222D01*
X151819063Y-116047375D01*
X151689248Y-116360003D01*
X151688953Y-116698512D01*
X150179033Y-116698512D01*
X150171778Y-116680954D01*
X149932625Y-116441383D01*
X149619997Y-116311568D01*
X149281488Y-116311273D01*
X148968634Y-116440542D01*
X148729063Y-116679695D01*
X148599248Y-116992323D01*
X148598953Y-117330832D01*
X143522383Y-117330832D01*
X143720937Y-117132625D01*
X143850752Y-116819997D01*
X143851047Y-116481488D01*
X143721778Y-116168634D01*
X143482625Y-115929063D01*
X143169997Y-115799248D01*
X142831488Y-115798953D01*
X142775367Y-115822142D01*
X142582625Y-115629063D01*
X142269997Y-115499248D01*
X141931488Y-115498953D01*
X141618634Y-115628222D01*
X141526892Y-115719804D01*
X141485631Y-115678470D01*
X141173003Y-115548655D01*
X140834494Y-115548360D01*
X140521640Y-115677629D01*
X140471136Y-115728045D01*
X140405654Y-115700855D01*
X140302430Y-115451035D01*
X140063277Y-115211464D01*
X139750649Y-115081649D01*
X139576916Y-115081498D01*
X139577066Y-114909255D01*
X139447797Y-114596401D01*
X139208644Y-114356830D01*
X138896016Y-114227015D01*
X138586623Y-114226745D01*
X138634122Y-114179329D01*
X138763937Y-113866701D01*
X138764232Y-113528192D01*
X138718914Y-113418512D01*
X140548953Y-113418512D01*
X140678222Y-113731366D01*
X140917375Y-113970937D01*
X141230003Y-114100752D01*
X141568512Y-114101047D01*
X141881366Y-113971778D01*
X142120937Y-113732625D01*
X142250752Y-113419997D01*
X142250967Y-113173386D01*
X142378222Y-113481366D01*
X142427244Y-113530474D01*
X142386247Y-113571400D01*
X142256432Y-113884028D01*
X142256137Y-114222537D01*
X142385406Y-114535391D01*
X142624559Y-114774962D01*
X142820141Y-114856175D01*
X142945331Y-115159157D01*
X143184484Y-115398728D01*
X143497112Y-115528543D01*
X143835621Y-115528838D01*
X144148475Y-115399569D01*
X144388046Y-115160416D01*
X144517861Y-114847788D01*
X144518156Y-114509279D01*
X144388887Y-114196425D01*
X144361023Y-114168512D01*
X147188953Y-114168512D01*
X147318222Y-114481366D01*
X147557375Y-114720937D01*
X147870003Y-114850752D01*
X148208512Y-114851047D01*
X148521366Y-114721778D01*
X148760937Y-114482625D01*
X148890752Y-114169997D01*
X148891047Y-113831488D01*
X148761778Y-113518634D01*
X148522625Y-113279063D01*
X148209997Y-113149248D01*
X147871488Y-113148953D01*
X147558634Y-113278222D01*
X147319063Y-113517375D01*
X147189248Y-113830003D01*
X147188953Y-114168512D01*
X144361023Y-114168512D01*
X144149734Y-113956854D01*
X143954152Y-113875641D01*
X143828962Y-113572659D01*
X143779940Y-113523551D01*
X143820937Y-113482625D01*
X143950752Y-113169997D01*
X143951047Y-112831488D01*
X143821778Y-112518634D01*
X143582625Y-112279063D01*
X143269997Y-112149248D01*
X142931488Y-112148953D01*
X142618634Y-112278222D01*
X142379063Y-112517375D01*
X142249248Y-112830003D01*
X142249033Y-113076614D01*
X142121778Y-112768634D01*
X141882625Y-112529063D01*
X141569997Y-112399248D01*
X141231488Y-112398953D01*
X140918634Y-112528222D01*
X140679063Y-112767375D01*
X140549248Y-113080003D01*
X140548953Y-113418512D01*
X138718914Y-113418512D01*
X138634963Y-113215338D01*
X138395810Y-112975767D01*
X138083182Y-112845952D01*
X137744673Y-112845657D01*
X137431819Y-112974926D01*
X137192248Y-113214079D01*
X137189058Y-113221761D01*
X137139672Y-113102237D01*
X136900519Y-112862666D01*
X136587891Y-112732851D01*
X136249382Y-112732556D01*
X135936528Y-112861825D01*
X135696957Y-113100978D01*
X135635420Y-113249174D01*
X135381488Y-113248953D01*
X135068634Y-113378222D01*
X134829063Y-113617375D01*
X134699248Y-113930003D01*
X134698953Y-114268512D01*
X130583000Y-114268512D01*
X130583000Y-108378512D01*
X131398953Y-108378512D01*
X131525882Y-108685703D01*
X131401545Y-108985138D01*
X131401250Y-109323647D01*
X131530519Y-109636501D01*
X131769672Y-109876072D01*
X132082300Y-110005887D01*
X132420809Y-110006182D01*
X132686229Y-109896512D01*
X139814153Y-109896512D01*
X139943422Y-110209366D01*
X140182575Y-110448937D01*
X140495203Y-110578752D01*
X140747879Y-110578972D01*
X140728848Y-110624803D01*
X140728553Y-110963312D01*
X140857822Y-111276166D01*
X141096975Y-111515737D01*
X141409603Y-111645552D01*
X141748112Y-111645847D01*
X142051956Y-111520301D01*
X142077022Y-111580966D01*
X142316175Y-111820537D01*
X142628803Y-111950352D01*
X142967312Y-111950647D01*
X143280166Y-111821378D01*
X143519737Y-111582225D01*
X143523604Y-111572912D01*
X145605353Y-111572912D01*
X145734622Y-111885766D01*
X145973775Y-112125337D01*
X146286403Y-112255152D01*
X146624912Y-112255447D01*
X146937766Y-112126178D01*
X147059116Y-112005039D01*
X149788776Y-112005039D01*
X149918045Y-112317893D01*
X150157198Y-112557464D01*
X150469826Y-112687279D01*
X150600049Y-112687392D01*
X150641443Y-112787574D01*
X150880596Y-113027145D01*
X150949139Y-113055606D01*
X150948953Y-113268512D01*
X151078222Y-113581366D01*
X151317375Y-113820937D01*
X151630003Y-113950752D01*
X151968512Y-113951047D01*
X152008442Y-113934548D01*
X153234906Y-113934548D01*
X153364175Y-114247402D01*
X153603328Y-114486973D01*
X153857198Y-114592389D01*
X153839990Y-114633830D01*
X153839695Y-114972339D01*
X153968964Y-115285193D01*
X154208117Y-115524764D01*
X154232718Y-115534979D01*
X154232553Y-115724566D01*
X154361822Y-116037420D01*
X154430884Y-116106602D01*
X154388042Y-116209776D01*
X154387747Y-116548285D01*
X154517016Y-116861139D01*
X154756169Y-117100710D01*
X155068797Y-117230525D01*
X155407306Y-117230820D01*
X155720160Y-117101551D01*
X155749730Y-117072033D01*
X155951681Y-117155891D01*
X156074608Y-117155998D01*
X156128384Y-117286146D01*
X156367537Y-117525717D01*
X156680165Y-117655532D01*
X157018674Y-117655827D01*
X157331528Y-117526558D01*
X157571099Y-117287405D01*
X157667775Y-117054583D01*
X157687875Y-117074718D01*
X158000503Y-117204533D01*
X158339012Y-117204828D01*
X158651866Y-117075559D01*
X158891437Y-116836406D01*
X159021252Y-116523778D01*
X159021547Y-116185269D01*
X158892278Y-115872415D01*
X158653125Y-115632844D01*
X158340497Y-115503029D01*
X158001988Y-115502734D01*
X157935435Y-115530233D01*
X157781010Y-115375539D01*
X157468382Y-115245724D01*
X157129873Y-115245429D01*
X156817019Y-115374698D01*
X156605723Y-115585625D01*
X156604303Y-115584202D01*
X156291675Y-115454387D01*
X155953166Y-115454092D01*
X155934582Y-115461771D01*
X155934647Y-115387542D01*
X155822420Y-115115933D01*
X155937025Y-115116033D01*
X156249879Y-114986764D01*
X156489450Y-114747611D01*
X156619265Y-114434983D01*
X156619560Y-114096474D01*
X156490291Y-113783620D01*
X156251138Y-113544049D01*
X156043828Y-113457966D01*
X156087272Y-113353343D01*
X156087469Y-113127029D01*
X156151797Y-113127085D01*
X156464651Y-112997816D01*
X156704222Y-112758663D01*
X156834037Y-112446035D01*
X156834332Y-112107526D01*
X156705063Y-111794672D01*
X156465910Y-111555101D01*
X156153282Y-111425286D01*
X155814773Y-111424991D01*
X155501919Y-111554260D01*
X155262348Y-111793413D01*
X155132533Y-112106041D01*
X155132336Y-112332355D01*
X155068008Y-112332299D01*
X154755154Y-112461568D01*
X154515583Y-112700721D01*
X154401408Y-112975684D01*
X154255950Y-112915284D01*
X153917441Y-112914989D01*
X153604587Y-113044258D01*
X153365016Y-113283411D01*
X153235201Y-113596039D01*
X153234906Y-113934548D01*
X152008442Y-113934548D01*
X152281366Y-113821778D01*
X152520937Y-113582625D01*
X152650752Y-113269997D01*
X152651047Y-112931488D01*
X152521778Y-112618634D01*
X152282625Y-112379063D01*
X152232353Y-112358188D01*
X152527128Y-112358445D01*
X152839982Y-112229176D01*
X153079553Y-111990023D01*
X153209368Y-111677395D01*
X153209621Y-111387436D01*
X153365386Y-111231942D01*
X153365255Y-111382519D01*
X153494524Y-111695373D01*
X153733677Y-111934944D01*
X154046305Y-112064759D01*
X154384814Y-112065054D01*
X154697668Y-111935785D01*
X154937239Y-111696632D01*
X154942677Y-111683536D01*
X155131251Y-111683700D01*
X155444105Y-111554431D01*
X155683249Y-111315704D01*
X155935763Y-111420557D01*
X156274272Y-111420852D01*
X156587126Y-111291583D01*
X156610237Y-111268512D01*
X159148953Y-111268512D01*
X159278222Y-111581366D01*
X159517375Y-111820937D01*
X159830003Y-111950752D01*
X160168512Y-111951047D01*
X160481366Y-111821778D01*
X160559071Y-111744208D01*
X161267103Y-111744208D01*
X161389694Y-112040901D01*
X161305762Y-112243032D01*
X161305467Y-112581541D01*
X161434736Y-112894395D01*
X161673889Y-113133966D01*
X161986517Y-113263781D01*
X162325026Y-113264076D01*
X162637880Y-113134807D01*
X162877451Y-112895654D01*
X163007266Y-112583026D01*
X163007561Y-112244517D01*
X162884970Y-111947824D01*
X162968902Y-111745693D01*
X162969197Y-111407184D01*
X162883068Y-111198738D01*
X163003709Y-110908204D01*
X163004004Y-110569695D01*
X162874735Y-110256841D01*
X162635582Y-110017270D01*
X162322954Y-109887455D01*
X161984445Y-109887160D01*
X161671591Y-110016429D01*
X161432020Y-110255582D01*
X161302205Y-110568210D01*
X161301910Y-110906719D01*
X161388039Y-111115165D01*
X161267398Y-111405699D01*
X161267103Y-111744208D01*
X160559071Y-111744208D01*
X160720937Y-111582625D01*
X160850752Y-111269997D01*
X160851047Y-110931488D01*
X160721778Y-110618634D01*
X160482625Y-110379063D01*
X160169997Y-110249248D01*
X159831488Y-110248953D01*
X159518634Y-110378222D01*
X159279063Y-110617375D01*
X159149248Y-110930003D01*
X159148953Y-111268512D01*
X156610237Y-111268512D01*
X156826697Y-111052430D01*
X156913318Y-110843824D01*
X156930003Y-110850752D01*
X157268512Y-110851047D01*
X157581366Y-110721778D01*
X157820937Y-110482625D01*
X157950752Y-110169997D01*
X157951047Y-109831488D01*
X157840200Y-109563219D01*
X157920935Y-109482625D01*
X158050750Y-109169997D01*
X158051045Y-108831488D01*
X157955321Y-108599819D01*
X158050752Y-108369997D01*
X158051047Y-108031488D01*
X157965677Y-107824878D01*
X158050752Y-107619997D01*
X158051047Y-107281488D01*
X157921778Y-106968634D01*
X157749274Y-106795828D01*
X157786627Y-106705872D01*
X157786922Y-106367363D01*
X157657653Y-106054509D01*
X157418500Y-105814938D01*
X157105872Y-105685123D01*
X156767363Y-105684828D01*
X156454509Y-105814097D01*
X156263438Y-106004835D01*
X156335583Y-105831091D01*
X156335878Y-105492582D01*
X156206609Y-105179728D01*
X155967456Y-104940157D01*
X155654828Y-104810342D01*
X155316319Y-104810047D01*
X155003465Y-104939316D01*
X154763894Y-105178469D01*
X154634079Y-105491097D01*
X154633784Y-105829606D01*
X154763053Y-106142460D01*
X155002206Y-106382031D01*
X155314834Y-106511846D01*
X155653343Y-106512141D01*
X155966197Y-106382872D01*
X156157268Y-106192134D01*
X156085123Y-106365878D01*
X156084828Y-106704387D01*
X156189468Y-106957635D01*
X156018634Y-107028222D01*
X155779063Y-107267375D01*
X155649248Y-107580003D01*
X155648953Y-107918512D01*
X155778222Y-108231366D01*
X155780702Y-108233850D01*
X155699252Y-108430003D01*
X155698957Y-108768512D01*
X155782758Y-108971324D01*
X155682728Y-109212221D01*
X155682433Y-109550730D01*
X155778896Y-109784188D01*
X155624394Y-109848027D01*
X155584792Y-109887560D01*
X155584818Y-109857819D01*
X155455549Y-109544965D01*
X155216396Y-109305394D01*
X154903768Y-109175579D01*
X154565259Y-109175284D01*
X154252405Y-109304553D01*
X154012834Y-109543706D01*
X153883019Y-109856334D01*
X153882724Y-110194843D01*
X153966130Y-110396701D01*
X153734936Y-110492229D01*
X153517076Y-110709709D01*
X153517207Y-110559132D01*
X153387938Y-110246278D01*
X153148785Y-110006707D01*
X152836157Y-109876892D01*
X152497648Y-109876597D01*
X152184794Y-110005866D01*
X152121934Y-110068616D01*
X151982625Y-109929063D01*
X151669997Y-109799248D01*
X151331488Y-109798953D01*
X151018634Y-109928222D01*
X150779063Y-110167375D01*
X150649248Y-110480003D01*
X150648953Y-110818512D01*
X150718032Y-110985695D01*
X150471311Y-110985480D01*
X150158457Y-111114749D01*
X149918886Y-111353902D01*
X149789071Y-111666530D01*
X149788776Y-112005039D01*
X147059116Y-112005039D01*
X147177337Y-111887025D01*
X147307152Y-111574397D01*
X147307447Y-111235888D01*
X147178178Y-110923034D01*
X146939025Y-110683463D01*
X146626397Y-110553648D01*
X146287888Y-110553353D01*
X145975034Y-110682622D01*
X145735463Y-110921775D01*
X145605648Y-111234403D01*
X145605353Y-111572912D01*
X143523604Y-111572912D01*
X143649552Y-111269597D01*
X143649847Y-110931088D01*
X143520578Y-110618234D01*
X143434548Y-110532053D01*
X143519111Y-110532053D01*
X143648380Y-110844907D01*
X143887533Y-111084478D01*
X144200161Y-111214293D01*
X144538670Y-111214588D01*
X144851524Y-111085319D01*
X145091095Y-110846166D01*
X145220910Y-110533538D01*
X145221205Y-110195029D01*
X145091936Y-109882175D01*
X144971320Y-109761348D01*
X145081366Y-109715878D01*
X145220590Y-109576896D01*
X145220473Y-109711723D01*
X145349742Y-110024577D01*
X145588895Y-110264148D01*
X145901523Y-110393963D01*
X146240032Y-110394258D01*
X146552886Y-110264989D01*
X146792457Y-110025836D01*
X146922272Y-109713208D01*
X146922567Y-109374699D01*
X146793298Y-109061845D01*
X146554145Y-108822274D01*
X146241517Y-108692459D01*
X145903008Y-108692164D01*
X145590154Y-108821433D01*
X145450930Y-108960415D01*
X145451047Y-108825588D01*
X145347411Y-108574770D01*
X145450752Y-108325897D01*
X145451047Y-107987388D01*
X145321778Y-107674534D01*
X145216062Y-107568633D01*
X147245284Y-107568633D01*
X147374553Y-107881487D01*
X147613706Y-108121058D01*
X147926334Y-108250873D01*
X148264843Y-108251168D01*
X148577697Y-108121899D01*
X148817268Y-107882746D01*
X148947083Y-107570118D01*
X148947259Y-107367692D01*
X150315942Y-107367692D01*
X150445211Y-107680546D01*
X150625690Y-107861340D01*
X150625441Y-108146672D01*
X150754710Y-108459526D01*
X150993863Y-108699097D01*
X151306491Y-108828912D01*
X151524227Y-108829102D01*
X151523953Y-109143512D01*
X151653222Y-109456366D01*
X151892375Y-109695937D01*
X152205003Y-109825752D01*
X152543512Y-109826047D01*
X152856366Y-109696778D01*
X153095937Y-109457625D01*
X153225752Y-109144997D01*
X153226047Y-108806488D01*
X153195913Y-108733557D01*
X153410307Y-108519537D01*
X153529261Y-108233065D01*
X153856000Y-108233350D01*
X154168854Y-108104081D01*
X154408425Y-107864928D01*
X154538240Y-107552300D01*
X154538535Y-107213791D01*
X154409266Y-106900937D01*
X154170113Y-106661366D01*
X153857485Y-106531551D01*
X153518976Y-106531256D01*
X153215175Y-106656784D01*
X153215381Y-106420567D01*
X153086112Y-106107713D01*
X152846959Y-105868142D01*
X152534331Y-105738327D01*
X152195822Y-105738032D01*
X151882968Y-105867301D01*
X151643397Y-106106454D01*
X151513582Y-106419082D01*
X151513580Y-106421756D01*
X151336986Y-106348428D01*
X150998477Y-106348133D01*
X150685623Y-106477402D01*
X150446052Y-106716555D01*
X150316237Y-107029183D01*
X150315942Y-107367692D01*
X148947259Y-107367692D01*
X148947378Y-107231609D01*
X148818109Y-106918755D01*
X148578956Y-106679184D01*
X148266328Y-106549369D01*
X147927819Y-106549074D01*
X147614965Y-106678343D01*
X147375394Y-106917496D01*
X147245579Y-107230124D01*
X147245284Y-107568633D01*
X145216062Y-107568633D01*
X145082625Y-107434963D01*
X144769997Y-107305148D01*
X144431488Y-107304853D01*
X144118634Y-107434122D01*
X143879063Y-107673275D01*
X143749248Y-107985903D01*
X143748953Y-108324412D01*
X143852589Y-108575230D01*
X143749248Y-108824103D01*
X143748953Y-109162612D01*
X143878222Y-109475466D01*
X143998838Y-109596293D01*
X143888792Y-109641763D01*
X143649221Y-109880916D01*
X143519406Y-110193544D01*
X143519111Y-110532053D01*
X143434548Y-110532053D01*
X143281425Y-110378663D01*
X142968797Y-110248848D01*
X142630288Y-110248553D01*
X142326444Y-110374099D01*
X142301378Y-110313434D01*
X142062225Y-110073863D01*
X141749597Y-109944048D01*
X141496921Y-109943828D01*
X141515952Y-109897997D01*
X141516247Y-109559488D01*
X141386978Y-109246634D01*
X141147825Y-109007063D01*
X140835197Y-108877248D01*
X140496688Y-108876953D01*
X140183834Y-109006222D01*
X139944263Y-109245375D01*
X139814448Y-109558003D01*
X139814153Y-109896512D01*
X132686229Y-109896512D01*
X132733663Y-109876913D01*
X132973234Y-109637760D01*
X133103049Y-109325132D01*
X133103316Y-109018391D01*
X137137576Y-109018391D01*
X137266845Y-109331245D01*
X137505998Y-109570816D01*
X137818626Y-109700631D01*
X138157135Y-109700926D01*
X138469989Y-109571657D01*
X138709560Y-109332504D01*
X138839375Y-109019876D01*
X138839670Y-108681367D01*
X138710401Y-108368513D01*
X138471248Y-108128942D01*
X138158620Y-107999127D01*
X137820111Y-107998832D01*
X137507257Y-108128101D01*
X137267686Y-108367254D01*
X137137871Y-108679882D01*
X137137576Y-109018391D01*
X133103316Y-109018391D01*
X133103344Y-108986623D01*
X132976415Y-108679432D01*
X133100752Y-108379997D01*
X133101047Y-108041488D01*
X132971778Y-107728634D01*
X132732625Y-107489063D01*
X132419997Y-107359248D01*
X132081488Y-107358953D01*
X131768634Y-107488222D01*
X131529063Y-107727375D01*
X131399248Y-108040003D01*
X131398953Y-108378512D01*
X130583000Y-108378512D01*
X130583000Y-106488512D01*
X131268953Y-106488512D01*
X131398222Y-106801366D01*
X131637375Y-107040937D01*
X131950003Y-107170752D01*
X132288512Y-107171047D01*
X132601366Y-107041778D01*
X132840937Y-106802625D01*
X132970752Y-106489997D01*
X132971047Y-106151488D01*
X132967752Y-106143512D01*
X141973953Y-106143512D01*
X142103222Y-106456366D01*
X142342375Y-106695937D01*
X142655003Y-106825752D01*
X142993512Y-106826047D01*
X143306366Y-106696778D01*
X143545937Y-106457625D01*
X143586480Y-106359988D01*
X143617375Y-106390937D01*
X143930003Y-106520752D01*
X144268512Y-106521047D01*
X144581366Y-106391778D01*
X144820937Y-106152625D01*
X144950752Y-105839997D01*
X144951047Y-105501488D01*
X144847459Y-105250786D01*
X147245284Y-105250786D01*
X147374553Y-105563640D01*
X147613706Y-105803211D01*
X147926334Y-105933026D01*
X148264843Y-105933321D01*
X148577697Y-105804052D01*
X148817268Y-105564899D01*
X148947083Y-105252271D01*
X148947378Y-104913762D01*
X148818109Y-104600908D01*
X148578956Y-104361337D01*
X148266328Y-104231522D01*
X147927819Y-104231227D01*
X147614965Y-104360496D01*
X147375394Y-104599649D01*
X147245579Y-104912277D01*
X147245284Y-105250786D01*
X144847459Y-105250786D01*
X144821778Y-105188634D01*
X144582625Y-104949063D01*
X144269997Y-104819248D01*
X143931488Y-104818953D01*
X143618634Y-104948222D01*
X143379063Y-105187375D01*
X143338520Y-105285012D01*
X143307625Y-105254063D01*
X142994997Y-105124248D01*
X142656488Y-105123953D01*
X142343634Y-105253222D01*
X142104063Y-105492375D01*
X141974248Y-105805003D01*
X141973953Y-106143512D01*
X132967752Y-106143512D01*
X132841778Y-105838634D01*
X132602625Y-105599063D01*
X132289997Y-105469248D01*
X131951488Y-105468953D01*
X131638634Y-105598222D01*
X131399063Y-105837375D01*
X131269248Y-106150003D01*
X131268953Y-106488512D01*
X130583000Y-106488512D01*
X130583000Y-103913101D01*
X130770003Y-103990752D01*
X131108512Y-103991047D01*
X131421366Y-103861778D01*
X131660937Y-103622625D01*
X131704168Y-103518512D01*
X132748953Y-103518512D01*
X132878222Y-103831366D01*
X133117375Y-104070937D01*
X133430003Y-104200752D01*
X133768512Y-104201047D01*
X134081366Y-104071778D01*
X134320937Y-103832625D01*
X134368321Y-103718512D01*
X138845473Y-103718512D01*
X138974742Y-104031366D01*
X139213895Y-104270937D01*
X139526523Y-104400752D01*
X139767051Y-104400962D01*
X139835570Y-104566790D01*
X139631149Y-104770855D01*
X139501334Y-105083483D01*
X139501039Y-105421992D01*
X139630308Y-105734846D01*
X139869461Y-105974417D01*
X140182089Y-106104232D01*
X140520598Y-106104527D01*
X140833452Y-105975258D01*
X141073023Y-105736105D01*
X141202838Y-105423477D01*
X141203133Y-105084968D01*
X141084208Y-104797148D01*
X141288629Y-104593083D01*
X141418444Y-104280455D01*
X141418739Y-103941946D01*
X141324211Y-103713171D01*
X141693612Y-103713171D01*
X141822881Y-104026025D01*
X142062034Y-104265596D01*
X142374662Y-104395411D01*
X142713171Y-104395706D01*
X143026025Y-104266437D01*
X143265596Y-104027284D01*
X143369551Y-103776932D01*
X143938103Y-103776932D01*
X144067372Y-104089786D01*
X144306525Y-104329357D01*
X144619153Y-104459172D01*
X144957662Y-104459467D01*
X145270516Y-104330198D01*
X145376837Y-104224063D01*
X145429822Y-104246064D01*
X145768331Y-104246359D01*
X146081185Y-104117090D01*
X146320756Y-103877937D01*
X146450571Y-103565309D01*
X146450866Y-103226800D01*
X146321597Y-102913946D01*
X146200839Y-102792976D01*
X147287433Y-102792976D01*
X147416702Y-103105830D01*
X147655855Y-103345401D01*
X147968483Y-103475216D01*
X148306992Y-103475511D01*
X148619846Y-103346242D01*
X148859417Y-103107089D01*
X148989232Y-102794461D01*
X148989376Y-102628512D01*
X151888953Y-102628512D01*
X152018222Y-102941366D01*
X152257375Y-103180937D01*
X152570003Y-103310752D01*
X152908512Y-103311047D01*
X153221366Y-103181778D01*
X153433729Y-102969785D01*
X154140817Y-102969785D01*
X154270086Y-103282639D01*
X154390725Y-103403489D01*
X154377440Y-103435483D01*
X154377145Y-103773992D01*
X154506414Y-104086846D01*
X154745567Y-104326417D01*
X155058195Y-104456232D01*
X155396704Y-104456527D01*
X155709558Y-104327258D01*
X155949129Y-104088105D01*
X156078944Y-103775477D01*
X156079239Y-103436968D01*
X155949970Y-103124114D01*
X155829331Y-103003264D01*
X155842616Y-102971270D01*
X155842911Y-102632761D01*
X155713642Y-102319907D01*
X155474489Y-102080336D01*
X155161861Y-101950521D01*
X154823352Y-101950226D01*
X154510498Y-102079495D01*
X154270927Y-102318648D01*
X154141112Y-102631276D01*
X154140817Y-102969785D01*
X153433729Y-102969785D01*
X153460937Y-102942625D01*
X153590752Y-102629997D01*
X153591047Y-102291488D01*
X153461778Y-101978634D01*
X153222625Y-101739063D01*
X152909997Y-101609248D01*
X152571488Y-101608953D01*
X152258634Y-101738222D01*
X152019063Y-101977375D01*
X151889248Y-102290003D01*
X151888953Y-102628512D01*
X148989376Y-102628512D01*
X148989527Y-102455952D01*
X148918702Y-102284542D01*
X149100937Y-102102625D01*
X149230752Y-101789997D01*
X149231047Y-101451488D01*
X149101778Y-101138634D01*
X148862625Y-100899063D01*
X148549997Y-100769248D01*
X148211488Y-100768953D01*
X147898634Y-100898222D01*
X147659063Y-101137375D01*
X147529248Y-101450003D01*
X147528953Y-101788512D01*
X147599778Y-101959922D01*
X147417543Y-102141839D01*
X147287728Y-102454467D01*
X147287433Y-102792976D01*
X146200839Y-102792976D01*
X146082444Y-102674375D01*
X145769816Y-102544560D01*
X145431307Y-102544265D01*
X145118453Y-102673534D01*
X145012132Y-102779669D01*
X144959147Y-102757668D01*
X144620638Y-102757373D01*
X144307784Y-102886642D01*
X144068213Y-103125795D01*
X143938398Y-103438423D01*
X143938103Y-103776932D01*
X143369551Y-103776932D01*
X143395411Y-103714656D01*
X143395706Y-103376147D01*
X143266437Y-103063293D01*
X143027284Y-102823722D01*
X142714656Y-102693907D01*
X142376147Y-102693612D01*
X142063293Y-102822881D01*
X141823722Y-103062034D01*
X141693907Y-103374662D01*
X141693612Y-103713171D01*
X141324211Y-103713171D01*
X141289470Y-103629092D01*
X141050317Y-103389521D01*
X140737689Y-103259706D01*
X140497161Y-103259496D01*
X140418298Y-103068634D01*
X140179145Y-102829063D01*
X139866517Y-102699248D01*
X139528008Y-102698953D01*
X139215154Y-102828222D01*
X138975583Y-103067375D01*
X138845768Y-103380003D01*
X138845473Y-103718512D01*
X134368321Y-103718512D01*
X134450752Y-103519997D01*
X134451047Y-103181488D01*
X134321778Y-102868634D01*
X134082625Y-102629063D01*
X133769997Y-102499248D01*
X133431488Y-102498953D01*
X133118634Y-102628222D01*
X132879063Y-102867375D01*
X132749248Y-103180003D01*
X132748953Y-103518512D01*
X131704168Y-103518512D01*
X131790752Y-103309997D01*
X131791047Y-102971488D01*
X131661778Y-102658634D01*
X131422625Y-102419063D01*
X131109997Y-102289248D01*
X130771488Y-102288953D01*
X130583000Y-102366835D01*
X130583000Y-101638512D01*
X133268953Y-101638512D01*
X133398222Y-101951366D01*
X133637375Y-102190937D01*
X133950003Y-102320752D01*
X134288512Y-102321047D01*
X134601366Y-102191778D01*
X134840937Y-101952625D01*
X134970752Y-101639997D01*
X134971047Y-101301488D01*
X134841778Y-100988634D01*
X134602625Y-100749063D01*
X134289997Y-100619248D01*
X133951488Y-100618953D01*
X133638634Y-100748222D01*
X133399063Y-100987375D01*
X133269248Y-101300003D01*
X133268953Y-101638512D01*
X130583000Y-101638512D01*
X130583000Y-100558512D01*
X149238953Y-100558512D01*
X149368222Y-100871366D01*
X149607375Y-101110937D01*
X149920003Y-101240752D01*
X150258512Y-101241047D01*
X150571366Y-101111778D01*
X150810937Y-100872625D01*
X150940752Y-100559997D01*
X150940950Y-100332559D01*
X152324469Y-100332559D01*
X152453738Y-100645413D01*
X152692891Y-100884984D01*
X153005519Y-101014799D01*
X153344028Y-101015094D01*
X153656882Y-100885825D01*
X153896453Y-100646672D01*
X154026268Y-100334044D01*
X154026563Y-99995535D01*
X154007134Y-99948512D01*
X155178953Y-99948512D01*
X155308222Y-100261366D01*
X155547375Y-100500937D01*
X155860003Y-100630752D01*
X156198512Y-100631047D01*
X156397835Y-100548688D01*
X156349063Y-100597375D01*
X156219248Y-100910003D01*
X156218953Y-101248512D01*
X156348222Y-101561366D01*
X156587375Y-101800937D01*
X156900003Y-101930752D01*
X157238512Y-101931047D01*
X157551366Y-101801778D01*
X157790937Y-101562625D01*
X157920752Y-101249997D01*
X157921047Y-100911488D01*
X157791778Y-100598634D01*
X157653429Y-100460043D01*
X157705062Y-100408500D01*
X157775016Y-100240032D01*
X161259189Y-100240032D01*
X161388458Y-100552886D01*
X161627611Y-100792457D01*
X161940239Y-100922272D01*
X162278748Y-100922567D01*
X162528108Y-100819533D01*
X162629611Y-100921213D01*
X162942239Y-101051028D01*
X163133121Y-101051194D01*
X163057728Y-101232760D01*
X163057433Y-101571269D01*
X163186702Y-101884123D01*
X163425855Y-102123694D01*
X163738483Y-102253509D01*
X164076992Y-102253804D01*
X164389846Y-102124535D01*
X164629417Y-101885382D01*
X164759232Y-101572754D01*
X164759527Y-101234245D01*
X164630258Y-100921391D01*
X164592502Y-100883569D01*
X164660857Y-100815334D01*
X164790672Y-100502706D01*
X164790967Y-100164197D01*
X164661698Y-99851343D01*
X164422545Y-99611772D01*
X164109917Y-99481957D01*
X163771408Y-99481662D01*
X163648058Y-99532629D01*
X163594861Y-99479339D01*
X163282233Y-99349524D01*
X162943724Y-99349229D01*
X162694364Y-99452263D01*
X162592861Y-99350583D01*
X162280233Y-99220768D01*
X161941724Y-99220473D01*
X161628870Y-99349742D01*
X161389299Y-99588895D01*
X161259484Y-99901523D01*
X161259189Y-100240032D01*
X157775016Y-100240032D01*
X157834877Y-100095872D01*
X157835172Y-99757363D01*
X157830542Y-99746157D01*
X158101954Y-99634012D01*
X158141302Y-99594733D01*
X158217373Y-99670937D01*
X158530001Y-99800752D01*
X158868510Y-99801047D01*
X159181364Y-99671778D01*
X159420935Y-99432625D01*
X159550750Y-99119997D01*
X159551045Y-98781488D01*
X159421776Y-98468634D01*
X159182623Y-98229063D01*
X158869995Y-98099248D01*
X158531486Y-98098953D01*
X158218632Y-98228222D01*
X158179284Y-98267501D01*
X158103213Y-98191297D01*
X157790585Y-98061482D01*
X157452076Y-98061187D01*
X157139222Y-98190456D01*
X156899651Y-98429609D01*
X156769836Y-98742237D01*
X156769541Y-99080746D01*
X156774171Y-99091952D01*
X156612246Y-99158858D01*
X156512625Y-99059063D01*
X156199997Y-98929248D01*
X155861488Y-98928953D01*
X155548634Y-99058222D01*
X155309063Y-99297375D01*
X155179248Y-99610003D01*
X155178953Y-99948512D01*
X154007134Y-99948512D01*
X153897294Y-99682681D01*
X153658141Y-99443110D01*
X153345513Y-99313295D01*
X153007004Y-99313000D01*
X152694150Y-99442269D01*
X152454579Y-99681422D01*
X152324764Y-99994050D01*
X152324469Y-100332559D01*
X150940950Y-100332559D01*
X150941047Y-100221488D01*
X150811778Y-99908634D01*
X150572625Y-99669063D01*
X150259997Y-99539248D01*
X149921488Y-99538953D01*
X149608634Y-99668222D01*
X149369063Y-99907375D01*
X149239248Y-100220003D01*
X149238953Y-100558512D01*
X130583000Y-100558512D01*
X130583000Y-97608512D01*
X137208953Y-97608512D01*
X137338222Y-97921366D01*
X137577375Y-98160937D01*
X137890003Y-98290752D01*
X138228512Y-98291047D01*
X138541366Y-98161778D01*
X138780937Y-97922625D01*
X138910752Y-97609997D01*
X138911047Y-97271488D01*
X138909818Y-97268512D01*
X160798953Y-97268512D01*
X160928222Y-97581366D01*
X161167375Y-97820937D01*
X161480003Y-97950752D01*
X161818512Y-97951047D01*
X162131366Y-97821778D01*
X162370937Y-97582625D01*
X162500752Y-97269997D01*
X162501047Y-96931488D01*
X162371778Y-96618634D01*
X162132625Y-96379063D01*
X161819997Y-96249248D01*
X161481488Y-96248953D01*
X161168634Y-96378222D01*
X160929063Y-96617375D01*
X160799248Y-96930003D01*
X160798953Y-97268512D01*
X138909818Y-97268512D01*
X138781778Y-96958634D01*
X138542625Y-96719063D01*
X138229997Y-96589248D01*
X137891488Y-96588953D01*
X137578634Y-96718222D01*
X137339063Y-96957375D01*
X137209248Y-97270003D01*
X137208953Y-97608512D01*
X130583000Y-97608512D01*
X130583000Y-96961406D01*
X130750003Y-97030752D01*
X131088512Y-97031047D01*
X131401366Y-96901778D01*
X131520058Y-96783293D01*
X131707375Y-96970937D01*
X132020003Y-97100752D01*
X132358512Y-97101047D01*
X132671366Y-96971778D01*
X132910937Y-96732625D01*
X133040752Y-96419997D01*
X133040753Y-96418512D01*
X138888953Y-96418512D01*
X139018222Y-96731366D01*
X139257375Y-96970937D01*
X139570003Y-97100752D01*
X139908512Y-97101047D01*
X140221366Y-96971778D01*
X140460937Y-96732625D01*
X140590752Y-96419997D01*
X140591047Y-96081488D01*
X140461778Y-95768634D01*
X140311918Y-95618512D01*
X142073953Y-95618512D01*
X142203222Y-95931366D01*
X142442375Y-96170937D01*
X142755003Y-96300752D01*
X143093512Y-96301047D01*
X143406366Y-96171778D01*
X143485772Y-96092511D01*
X143485578Y-96315137D01*
X143614847Y-96627991D01*
X143854000Y-96867562D01*
X144166628Y-96997377D01*
X144505137Y-96997672D01*
X144817991Y-96868403D01*
X145057562Y-96629250D01*
X145187377Y-96316622D01*
X145187672Y-95978113D01*
X145058403Y-95665259D01*
X144819250Y-95425688D01*
X144506622Y-95295873D01*
X144168113Y-95295578D01*
X143855259Y-95424847D01*
X143775853Y-95504114D01*
X143776047Y-95281488D01*
X143646778Y-94968634D01*
X143407625Y-94729063D01*
X143094997Y-94599248D01*
X142756488Y-94598953D01*
X142443634Y-94728222D01*
X142204063Y-94967375D01*
X142074248Y-95280003D01*
X142073953Y-95618512D01*
X140311918Y-95618512D01*
X140222625Y-95529063D01*
X139909997Y-95399248D01*
X139571488Y-95398953D01*
X139258634Y-95528222D01*
X139019063Y-95767375D01*
X138889248Y-96080003D01*
X138888953Y-96418512D01*
X133040753Y-96418512D01*
X133041047Y-96081488D01*
X132911778Y-95768634D01*
X132672625Y-95529063D01*
X132671978Y-95528794D01*
X133736308Y-95528794D01*
X133865577Y-95841648D01*
X134104730Y-96081219D01*
X134417358Y-96211034D01*
X134755867Y-96211329D01*
X135068721Y-96082060D01*
X135116365Y-96034499D01*
X135300003Y-96110752D01*
X135638512Y-96111047D01*
X135951366Y-95981778D01*
X136190937Y-95742625D01*
X136320752Y-95429997D01*
X136321047Y-95091488D01*
X136191778Y-94778634D01*
X135952625Y-94539063D01*
X135639997Y-94409248D01*
X135301488Y-94408953D01*
X134988634Y-94538222D01*
X134940990Y-94585783D01*
X134757352Y-94509530D01*
X134418843Y-94509235D01*
X134105989Y-94638504D01*
X133866418Y-94877657D01*
X133736603Y-95190285D01*
X133736308Y-95528794D01*
X132671978Y-95528794D01*
X132359997Y-95399248D01*
X132021488Y-95398953D01*
X131708634Y-95528222D01*
X131589942Y-95646707D01*
X131402625Y-95459063D01*
X131089997Y-95329248D01*
X130751488Y-95328953D01*
X130583000Y-95398571D01*
X130583000Y-93147664D01*
X130741652Y-93147664D01*
X131046708Y-93885955D01*
X131611074Y-94451307D01*
X132348832Y-94757651D01*
X133147664Y-94758348D01*
X133885955Y-94453292D01*
X134451307Y-93888926D01*
X134757651Y-93151168D01*
X134757893Y-92873184D01*
X144048953Y-92873184D01*
X144178222Y-93186038D01*
X144417375Y-93425609D01*
X144730003Y-93555424D01*
X145068512Y-93555719D01*
X145381366Y-93426450D01*
X145620937Y-93187297D01*
X145637394Y-93147664D01*
X161241652Y-93147664D01*
X161546708Y-93885955D01*
X162111074Y-94451307D01*
X162848832Y-94757651D01*
X163647664Y-94758348D01*
X164385955Y-94453292D01*
X164951307Y-93888926D01*
X165257651Y-93151168D01*
X165258348Y-92352336D01*
X164953292Y-91614045D01*
X164388926Y-91048693D01*
X163651168Y-90742349D01*
X162852336Y-90741652D01*
X162114045Y-91046708D01*
X161548693Y-91611074D01*
X161242349Y-92348832D01*
X161241652Y-93147664D01*
X145637394Y-93147664D01*
X145750752Y-92874669D01*
X145751047Y-92536160D01*
X145744974Y-92521462D01*
X145896450Y-92509869D01*
X146139819Y-92409062D01*
X146233457Y-92263062D01*
X145600000Y-91629605D01*
X145585858Y-91643748D01*
X145406253Y-91464143D01*
X145420395Y-91450000D01*
X145779605Y-91450000D01*
X146413062Y-92083457D01*
X146559062Y-91989819D01*
X146680592Y-91618512D01*
X149298953Y-91618512D01*
X149428222Y-91931366D01*
X149667375Y-92170937D01*
X149980003Y-92300752D01*
X150318512Y-92301047D01*
X150631366Y-92171778D01*
X150870937Y-91932625D01*
X151000752Y-91619997D01*
X151001047Y-91281488D01*
X150871778Y-90968634D01*
X150632625Y-90729063D01*
X150319997Y-90599248D01*
X149981488Y-90598953D01*
X149668634Y-90728222D01*
X149429063Y-90967375D01*
X149299248Y-91280003D01*
X149298953Y-91618512D01*
X146680592Y-91618512D01*
X146692638Y-91581711D01*
X146659869Y-91153550D01*
X146559062Y-90910181D01*
X146413062Y-90816543D01*
X145779605Y-91450000D01*
X145420395Y-91450000D01*
X144786938Y-90816543D01*
X144640938Y-90910181D01*
X144507362Y-91318289D01*
X144540131Y-91746450D01*
X144606002Y-91905475D01*
X144418634Y-91982894D01*
X144179063Y-92222047D01*
X144049248Y-92534675D01*
X144048953Y-92873184D01*
X134757893Y-92873184D01*
X134758348Y-92352336D01*
X134721461Y-92263062D01*
X138366543Y-92263062D01*
X138460181Y-92409062D01*
X138868289Y-92542638D01*
X139296450Y-92509869D01*
X139539819Y-92409062D01*
X139633457Y-92263062D01*
X139000000Y-91629605D01*
X138366543Y-92263062D01*
X134721461Y-92263062D01*
X134453292Y-91614045D01*
X133888926Y-91048693D01*
X133151168Y-90742349D01*
X132352336Y-90741652D01*
X131614045Y-91046708D01*
X131048693Y-91611074D01*
X130742349Y-92348832D01*
X130741652Y-93147664D01*
X130583000Y-93147664D01*
X130583000Y-92807422D01*
X130758505Y-91925096D01*
X131225777Y-91225775D01*
X131925095Y-90758505D01*
X132807421Y-90583000D01*
X136213568Y-90583000D01*
X136139063Y-90657375D01*
X136139063Y-90657375D01*
G37*
X136139063Y-90657375D02*
X136009248Y-90970003D01*
X136008953Y-91308512D01*
X136138222Y-91621366D01*
X136377375Y-91860937D01*
X136690003Y-91990752D01*
X137028512Y-91991047D01*
X137341366Y-91861778D01*
X137580937Y-91622625D01*
X137707308Y-91318289D01*
X137907362Y-91318289D01*
X137940131Y-91746450D01*
X138040938Y-91989819D01*
X138186938Y-92083457D01*
X138820395Y-91450000D01*
X139179605Y-91450000D01*
X139813062Y-92083457D01*
X139959062Y-91989819D01*
X140092638Y-91581711D01*
X140059869Y-91153550D01*
X139959062Y-90910181D01*
X139813062Y-90816543D01*
X139179605Y-91450000D01*
X138820395Y-91450000D01*
X138186938Y-90816543D01*
X138040938Y-90910181D01*
X137907362Y-91318289D01*
X137707308Y-91318289D01*
X137710752Y-91309997D01*
X137711047Y-90971488D01*
X137581778Y-90658634D01*
X137506276Y-90583000D01*
X138401136Y-90583000D01*
X138366543Y-90636938D01*
X139000000Y-91270395D01*
X139633457Y-90636938D01*
X139598864Y-90583000D01*
X145001136Y-90583000D01*
X144966543Y-90636938D01*
X145600000Y-91270395D01*
X146233457Y-90636938D01*
X146198864Y-90583000D01*
X154055785Y-90583000D01*
X153944550Y-90850883D01*
X153944255Y-91189392D01*
X154073524Y-91502246D01*
X154312677Y-91741817D01*
X154625305Y-91871632D01*
X154963814Y-91871927D01*
X155222902Y-91764874D01*
X155480003Y-91871632D01*
X155818512Y-91871927D01*
X156075245Y-91765847D01*
X156330003Y-91871632D01*
X156668512Y-91871927D01*
X156981366Y-91742658D01*
X157220937Y-91503505D01*
X157350752Y-91190877D01*
X157351047Y-90852368D01*
X157239746Y-90583000D01*
X163192578Y-90583000D01*
X164074904Y-90758505D01*
X164774225Y-91225777D01*
X165241495Y-91925095D01*
X165417000Y-92807421D01*
X165417000Y-123192579D01*
X165241495Y-124074905D01*
X164774225Y-124774223D01*
X164074904Y-125241495D01*
X163192578Y-125417000D01*
X154673187Y-125417000D01*
X154775752Y-125169997D01*
X154776047Y-124831488D01*
X154646778Y-124518634D01*
X154407625Y-124279063D01*
X154094997Y-124149248D01*
X153756488Y-124148953D01*
X153443634Y-124278222D01*
X153204063Y-124517375D01*
X153074248Y-124830003D01*
X153073953Y-125168512D01*
X153176626Y-125417000D01*
X151968949Y-125417000D01*
X152050752Y-125219997D01*
X152051047Y-124881488D01*
X151921778Y-124568634D01*
X151682625Y-124329063D01*
X151369997Y-124199248D01*
X151050939Y-124198970D01*
X151125752Y-124018802D01*
X151126047Y-123680293D01*
X151008644Y-123396157D01*
X151025575Y-123379256D01*
X151155390Y-123066628D01*
X151155656Y-122760324D01*
X151411625Y-122760324D01*
X151540894Y-123073178D01*
X151780047Y-123312749D01*
X152092675Y-123442564D01*
X152158762Y-123442622D01*
X152213043Y-123573992D01*
X152452196Y-123813563D01*
X152764824Y-123943378D01*
X153103333Y-123943673D01*
X153416187Y-123814404D01*
X153655758Y-123575251D01*
X153785573Y-123262623D01*
X153785868Y-122924114D01*
X153762902Y-122868531D01*
X158220907Y-122868531D01*
X158350176Y-123181385D01*
X158589329Y-123420956D01*
X158898625Y-123549388D01*
X158898367Y-123845660D01*
X159027636Y-124158514D01*
X159266789Y-124398085D01*
X159579417Y-124527900D01*
X159917926Y-124528195D01*
X160230780Y-124398926D01*
X160470351Y-124159773D01*
X160600166Y-123847145D01*
X160600339Y-123647664D01*
X161241652Y-123647664D01*
X161546708Y-124385955D01*
X162111074Y-124951307D01*
X162848832Y-125257651D01*
X163647664Y-125258348D01*
X164385955Y-124953292D01*
X164951307Y-124388926D01*
X165257651Y-123651168D01*
X165258348Y-122852336D01*
X164953292Y-122114045D01*
X164388926Y-121548693D01*
X163651168Y-121242349D01*
X162852336Y-121241652D01*
X162114045Y-121546708D01*
X161548693Y-122111074D01*
X161242349Y-122848832D01*
X161241652Y-123647664D01*
X160600339Y-123647664D01*
X160600461Y-123508636D01*
X160471192Y-123195782D01*
X160232039Y-122956211D01*
X159922743Y-122827779D01*
X159923001Y-122531507D01*
X159889691Y-122450891D01*
X160068512Y-122451047D01*
X160381366Y-122321778D01*
X160620937Y-122082625D01*
X160750752Y-121769997D01*
X160750984Y-121504167D01*
X160967375Y-121720937D01*
X161280003Y-121850752D01*
X161618512Y-121851047D01*
X161931366Y-121721778D01*
X162170937Y-121482625D01*
X162300752Y-121169997D01*
X162301047Y-120831488D01*
X162171778Y-120518634D01*
X161932625Y-120279063D01*
X161619997Y-120149248D01*
X161281488Y-120148953D01*
X160968634Y-120278222D01*
X160729063Y-120517375D01*
X160599248Y-120830003D01*
X160599016Y-121095833D01*
X160382625Y-120879063D01*
X160069997Y-120749248D01*
X159731488Y-120748953D01*
X159418634Y-120878222D01*
X159179063Y-121117375D01*
X159049248Y-121430003D01*
X159048953Y-121768512D01*
X159082263Y-121849128D01*
X158903442Y-121848972D01*
X158590588Y-121978241D01*
X158351017Y-122217394D01*
X158221202Y-122530022D01*
X158220907Y-122868531D01*
X153762902Y-122868531D01*
X153656599Y-122611260D01*
X153417446Y-122371689D01*
X153104818Y-122241874D01*
X153038731Y-122241816D01*
X152984450Y-122110446D01*
X152745297Y-121870875D01*
X152432669Y-121741060D01*
X152094160Y-121740765D01*
X151781306Y-121870034D01*
X151541735Y-122109187D01*
X151411920Y-122421815D01*
X151411625Y-122760324D01*
X151155656Y-122760324D01*
X151155685Y-122728119D01*
X151026416Y-122415265D01*
X150787263Y-122175694D01*
X150474635Y-122045879D01*
X150136126Y-122045584D01*
X149823272Y-122174853D01*
X149583701Y-122414006D01*
X149453886Y-122726634D01*
X149453591Y-123065143D01*
X149570994Y-123349279D01*
X149554063Y-123366180D01*
X149424248Y-123678808D01*
X149423953Y-124017317D01*
X149553222Y-124330171D01*
X149792375Y-124569742D01*
X150105003Y-124699557D01*
X150424061Y-124699835D01*
X150349248Y-124880003D01*
X150348953Y-125218512D01*
X150430967Y-125417000D01*
X147843000Y-125417000D01*
X147843000Y-125096850D01*
X147773150Y-125027000D01*
X146827000Y-125027000D01*
X146827000Y-125047000D01*
X146573000Y-125047000D01*
X146573000Y-125027000D01*
X145626850Y-125027000D01*
X145557000Y-125096850D01*
X145557000Y-125417000D01*
X145154851Y-125417000D01*
X145262083Y-125203136D01*
X145226085Y-125027000D01*
X144287000Y-125027000D01*
X144287000Y-125047000D01*
X144033000Y-125047000D01*
X144033000Y-125027000D01*
X143093915Y-125027000D01*
X143057917Y-125203136D01*
X143165149Y-125417000D01*
X142614851Y-125417000D01*
X142722083Y-125203136D01*
X142686085Y-125027000D01*
X141747000Y-125027000D01*
X141747000Y-125047000D01*
X141493000Y-125047000D01*
X141493000Y-125027000D01*
X140553915Y-125027000D01*
X140517917Y-125203136D01*
X140625149Y-125417000D01*
X140074851Y-125417000D01*
X140182083Y-125203136D01*
X140146085Y-125027000D01*
X139207000Y-125027000D01*
X139207000Y-125047000D01*
X138953000Y-125047000D01*
X138953000Y-125027000D01*
X138013915Y-125027000D01*
X137977917Y-125203136D01*
X138085149Y-125417000D01*
X132807421Y-125417000D01*
X131925095Y-125241495D01*
X131225777Y-124774225D01*
X130758505Y-124074904D01*
X130673522Y-123647664D01*
X130741652Y-123647664D01*
X131046708Y-124385955D01*
X131611074Y-124951307D01*
X132348832Y-125257651D01*
X133147664Y-125258348D01*
X133885955Y-124953292D01*
X134451307Y-124388926D01*
X134757651Y-123651168D01*
X134758348Y-122852336D01*
X134543816Y-122333129D01*
X137708400Y-122333129D01*
X137708400Y-122386871D01*
X137812807Y-122911760D01*
X138110132Y-123356739D01*
X138555111Y-123654064D01*
X139072605Y-123757000D01*
X138952998Y-123757000D01*
X138952998Y-123834391D01*
X138776866Y-123797929D01*
X138515059Y-123906360D01*
X138177813Y-124198190D01*
X137977917Y-124596864D01*
X138013915Y-124773000D01*
X138953000Y-124773000D01*
X138953000Y-124753000D01*
X139207000Y-124753000D01*
X139207000Y-124773000D01*
X140146085Y-124773000D01*
X140182083Y-124596864D01*
X139982187Y-124198190D01*
X139644941Y-123906360D01*
X139383134Y-123797929D01*
X139207002Y-123834391D01*
X139207002Y-123757000D01*
X139087395Y-123757000D01*
X139604889Y-123654064D01*
X140049868Y-123356739D01*
X140347193Y-122911760D01*
X140350000Y-122897648D01*
X140352807Y-122911760D01*
X140650132Y-123356739D01*
X141095111Y-123654064D01*
X141612605Y-123757000D01*
X141492998Y-123757000D01*
X141492998Y-123834391D01*
X141316866Y-123797929D01*
X141055059Y-123906360D01*
X140717813Y-124198190D01*
X140517917Y-124596864D01*
X140553915Y-124773000D01*
X141493000Y-124773000D01*
X141493000Y-124753000D01*
X141747000Y-124753000D01*
X141747000Y-124773000D01*
X142686085Y-124773000D01*
X142722083Y-124596864D01*
X142522187Y-124198190D01*
X142184941Y-123906360D01*
X141923134Y-123797929D01*
X141747002Y-123834391D01*
X141747002Y-123757000D01*
X141627395Y-123757000D01*
X142144889Y-123654064D01*
X142589868Y-123356739D01*
X142887193Y-122911760D01*
X142890000Y-122897648D01*
X142892807Y-122911760D01*
X143190132Y-123356739D01*
X143635111Y-123654064D01*
X144152605Y-123757000D01*
X144032998Y-123757000D01*
X144032998Y-123834391D01*
X143856866Y-123797929D01*
X143595059Y-123906360D01*
X143257813Y-124198190D01*
X143057917Y-124596864D01*
X143093915Y-124773000D01*
X144033000Y-124773000D01*
X144033000Y-124753000D01*
X144287000Y-124753000D01*
X144287000Y-124773000D01*
X145226085Y-124773000D01*
X145262083Y-124596864D01*
X145062187Y-124198190D01*
X144724941Y-123906360D01*
X144463134Y-123797929D01*
X144287002Y-123834391D01*
X144287002Y-123757000D01*
X144167395Y-123757000D01*
X144684889Y-123654064D01*
X145129868Y-123356739D01*
X145427193Y-122911760D01*
X145430000Y-122897648D01*
X145432807Y-122911760D01*
X145730132Y-123356739D01*
X146175111Y-123654064D01*
X146692605Y-123757000D01*
X146572998Y-123757000D01*
X146572998Y-123826848D01*
X146503150Y-123757000D01*
X145780824Y-123757000D01*
X145678133Y-123799536D01*
X145599536Y-123878133D01*
X145557000Y-123980824D01*
X145557000Y-124703150D01*
X145626850Y-124773000D01*
X146573000Y-124773000D01*
X146573000Y-124753000D01*
X146827000Y-124753000D01*
X146827000Y-124773000D01*
X147773150Y-124773000D01*
X147843000Y-124703150D01*
X147843000Y-123980824D01*
X147800464Y-123878133D01*
X147721867Y-123799536D01*
X147619176Y-123757000D01*
X146896850Y-123757000D01*
X146827002Y-123826848D01*
X146827002Y-123757000D01*
X146707395Y-123757000D01*
X147224889Y-123654064D01*
X147435309Y-123513466D01*
X147667375Y-123745937D01*
X147980003Y-123875752D01*
X148318512Y-123876047D01*
X148631366Y-123746778D01*
X148870937Y-123507625D01*
X149000752Y-123194997D01*
X149001047Y-122856488D01*
X148871778Y-122543634D01*
X148792347Y-122464064D01*
X149094052Y-122464327D01*
X149406906Y-122335058D01*
X149646477Y-122095905D01*
X149776292Y-121783277D01*
X149776587Y-121444768D01*
X149647318Y-121131914D01*
X149408165Y-120892343D01*
X149095537Y-120762528D01*
X148757028Y-120762233D01*
X148444174Y-120891502D01*
X148204603Y-121130655D01*
X148074788Y-121443283D01*
X148074493Y-121781792D01*
X148203762Y-122094646D01*
X148283193Y-122174216D01*
X148039948Y-122174004D01*
X147967193Y-121808240D01*
X147669868Y-121363261D01*
X147224889Y-121065936D01*
X146700000Y-120961529D01*
X146175111Y-121065936D01*
X145730132Y-121363261D01*
X145432807Y-121808240D01*
X145430000Y-121822352D01*
X145427193Y-121808240D01*
X145129868Y-121363261D01*
X144684889Y-121065936D01*
X144160000Y-120961529D01*
X143635111Y-121065936D01*
X143190132Y-121363261D01*
X142892807Y-121808240D01*
X142890000Y-121822352D01*
X142887193Y-121808240D01*
X142589868Y-121363261D01*
X142144889Y-121065936D01*
X141620000Y-120961529D01*
X141095111Y-121065936D01*
X140650132Y-121363261D01*
X140352807Y-121808240D01*
X140350000Y-121822352D01*
X140347193Y-121808240D01*
X140049868Y-121363261D01*
X139604889Y-121065936D01*
X139080000Y-120961529D01*
X138555111Y-121065936D01*
X138110132Y-121363261D01*
X137812807Y-121808240D01*
X137708400Y-122333129D01*
X134543816Y-122333129D01*
X134453292Y-122114045D01*
X133888926Y-121548693D01*
X133151168Y-121242349D01*
X132352336Y-121241652D01*
X131614045Y-121546708D01*
X131048693Y-122111074D01*
X130742349Y-122848832D01*
X130741652Y-123647664D01*
X130673522Y-123647664D01*
X130583000Y-123192578D01*
X130583000Y-120093255D01*
X150691068Y-120093255D01*
X150820337Y-120406109D01*
X151059490Y-120645680D01*
X151372118Y-120775495D01*
X151710627Y-120775790D01*
X152023481Y-120646521D01*
X152078512Y-120591586D01*
X152223932Y-120651970D01*
X152562441Y-120652265D01*
X152850229Y-120533353D01*
X153156480Y-120660520D01*
X153494989Y-120660815D01*
X153675914Y-120586058D01*
X153680588Y-120590740D01*
X153993216Y-120720555D01*
X154331725Y-120720850D01*
X154644579Y-120591581D01*
X154880602Y-120355970D01*
X155114962Y-120590740D01*
X155427590Y-120720555D01*
X155766099Y-120720850D01*
X156078953Y-120591581D01*
X156318524Y-120352428D01*
X156333173Y-120317151D01*
X156570611Y-120415744D01*
X156909120Y-120416039D01*
X157221974Y-120286770D01*
X157461545Y-120047617D01*
X157591360Y-119734989D01*
X157591655Y-119396480D01*
X157462386Y-119083626D01*
X157223233Y-118844055D01*
X156910605Y-118714240D01*
X156572096Y-118713945D01*
X156259242Y-118843214D01*
X156019671Y-119082367D01*
X156005022Y-119117644D01*
X155767584Y-119019051D01*
X155429075Y-119018756D01*
X155116221Y-119148025D01*
X154880198Y-119383636D01*
X154645838Y-119148866D01*
X154333210Y-119019051D01*
X153994701Y-119018756D01*
X153813776Y-119093513D01*
X153809102Y-119088831D01*
X153496474Y-118959016D01*
X153157965Y-118958721D01*
X152870177Y-119077633D01*
X152563926Y-118950466D01*
X152225417Y-118950171D01*
X151912563Y-119079440D01*
X151857532Y-119134375D01*
X151712112Y-119073991D01*
X151373603Y-119073696D01*
X151060749Y-119202965D01*
X150821178Y-119442118D01*
X150691363Y-119754746D01*
X150691068Y-120093255D01*
X130583000Y-120093255D01*
X130583000Y-117168512D01*
X132091353Y-117168512D01*
X132220622Y-117481366D01*
X132459775Y-117720937D01*
X132772403Y-117850752D01*
X133110912Y-117851047D01*
X133423766Y-117721778D01*
X133663337Y-117482625D01*
X133793152Y-117169997D01*
X133793447Y-116831488D01*
X133664178Y-116518634D01*
X133425025Y-116279063D01*
X133112397Y-116149248D01*
X132773888Y-116148953D01*
X132461034Y-116278222D01*
X132221463Y-116517375D01*
X132091648Y-116830003D01*
X132091353Y-117168512D01*
X130583000Y-117168512D01*
X130583000Y-114268512D01*
X134698953Y-114268512D01*
X134828222Y-114581366D01*
X135067375Y-114820937D01*
X135380003Y-114950752D01*
X135718512Y-114951047D01*
X136031366Y-114821778D01*
X136270937Y-114582625D01*
X136332474Y-114434429D01*
X136344622Y-114434439D01*
X136416856Y-114609259D01*
X136656009Y-114848830D01*
X136968637Y-114978645D01*
X137307146Y-114978940D01*
X137620000Y-114849671D01*
X137859571Y-114610518D01*
X137885705Y-114547580D01*
X138052581Y-114547726D01*
X138005082Y-114595142D01*
X137875267Y-114907770D01*
X137874972Y-115246279D01*
X138004241Y-115559133D01*
X138243394Y-115798704D01*
X138556022Y-115928519D01*
X138729755Y-115928670D01*
X138729605Y-116100913D01*
X138858874Y-116413767D01*
X139098027Y-116653338D01*
X139349435Y-116757732D01*
X139452659Y-117007552D01*
X139691812Y-117247123D01*
X140004440Y-117376938D01*
X140342949Y-117377233D01*
X140655803Y-117247964D01*
X140706307Y-117197548D01*
X140833009Y-117250159D01*
X141171518Y-117250454D01*
X141484372Y-117121185D01*
X141576114Y-117029603D01*
X141617375Y-117070937D01*
X141930003Y-117200752D01*
X142268512Y-117201047D01*
X142324633Y-117177858D01*
X142517375Y-117370937D01*
X142830003Y-117500752D01*
X143168512Y-117501047D01*
X143481366Y-117371778D01*
X143522383Y-117330832D01*
X148598953Y-117330832D01*
X148728222Y-117643686D01*
X148967375Y-117883257D01*
X149280003Y-118013072D01*
X149618512Y-118013367D01*
X149931366Y-117884098D01*
X150170937Y-117644945D01*
X150300752Y-117332317D01*
X150301047Y-116993808D01*
X150179033Y-116698512D01*
X151688953Y-116698512D01*
X151818222Y-117011366D01*
X152057375Y-117250937D01*
X152370003Y-117380752D01*
X152708512Y-117381047D01*
X153021366Y-117251778D01*
X153260937Y-117012625D01*
X153390752Y-116699997D01*
X153391047Y-116361488D01*
X153261778Y-116048634D01*
X153022625Y-115809063D01*
X152709997Y-115679248D01*
X152371488Y-115678953D01*
X152058634Y-115808222D01*
X151819063Y-116047375D01*
X151689248Y-116360003D01*
X151688953Y-116698512D01*
X150179033Y-116698512D01*
X150171778Y-116680954D01*
X149932625Y-116441383D01*
X149619997Y-116311568D01*
X149281488Y-116311273D01*
X148968634Y-116440542D01*
X148729063Y-116679695D01*
X148599248Y-116992323D01*
X148598953Y-117330832D01*
X143522383Y-117330832D01*
X143720937Y-117132625D01*
X143850752Y-116819997D01*
X143851047Y-116481488D01*
X143721778Y-116168634D01*
X143482625Y-115929063D01*
X143169997Y-115799248D01*
X142831488Y-115798953D01*
X142775367Y-115822142D01*
X142582625Y-115629063D01*
X142269997Y-115499248D01*
X141931488Y-115498953D01*
X141618634Y-115628222D01*
X141526892Y-115719804D01*
X141485631Y-115678470D01*
X141173003Y-115548655D01*
X140834494Y-115548360D01*
X140521640Y-115677629D01*
X140471136Y-115728045D01*
X140405654Y-115700855D01*
X140302430Y-115451035D01*
X140063277Y-115211464D01*
X139750649Y-115081649D01*
X139576916Y-115081498D01*
X139577066Y-114909255D01*
X139447797Y-114596401D01*
X139208644Y-114356830D01*
X138896016Y-114227015D01*
X138586623Y-114226745D01*
X138634122Y-114179329D01*
X138763937Y-113866701D01*
X138764232Y-113528192D01*
X138718914Y-113418512D01*
X140548953Y-113418512D01*
X140678222Y-113731366D01*
X140917375Y-113970937D01*
X141230003Y-114100752D01*
X141568512Y-114101047D01*
X141881366Y-113971778D01*
X142120937Y-113732625D01*
X142250752Y-113419997D01*
X142250967Y-113173386D01*
X142378222Y-113481366D01*
X142427244Y-113530474D01*
X142386247Y-113571400D01*
X142256432Y-113884028D01*
X142256137Y-114222537D01*
X142385406Y-114535391D01*
X142624559Y-114774962D01*
X142820141Y-114856175D01*
X142945331Y-115159157D01*
X143184484Y-115398728D01*
X143497112Y-115528543D01*
X143835621Y-115528838D01*
X144148475Y-115399569D01*
X144388046Y-115160416D01*
X144517861Y-114847788D01*
X144518156Y-114509279D01*
X144388887Y-114196425D01*
X144361023Y-114168512D01*
X147188953Y-114168512D01*
X147318222Y-114481366D01*
X147557375Y-114720937D01*
X147870003Y-114850752D01*
X148208512Y-114851047D01*
X148521366Y-114721778D01*
X148760937Y-114482625D01*
X148890752Y-114169997D01*
X148891047Y-113831488D01*
X148761778Y-113518634D01*
X148522625Y-113279063D01*
X148209997Y-113149248D01*
X147871488Y-113148953D01*
X147558634Y-113278222D01*
X147319063Y-113517375D01*
X147189248Y-113830003D01*
X147188953Y-114168512D01*
X144361023Y-114168512D01*
X144149734Y-113956854D01*
X143954152Y-113875641D01*
X143828962Y-113572659D01*
X143779940Y-113523551D01*
X143820937Y-113482625D01*
X143950752Y-113169997D01*
X143951047Y-112831488D01*
X143821778Y-112518634D01*
X143582625Y-112279063D01*
X143269997Y-112149248D01*
X142931488Y-112148953D01*
X142618634Y-112278222D01*
X142379063Y-112517375D01*
X142249248Y-112830003D01*
X142249033Y-113076614D01*
X142121778Y-112768634D01*
X141882625Y-112529063D01*
X141569997Y-112399248D01*
X141231488Y-112398953D01*
X140918634Y-112528222D01*
X140679063Y-112767375D01*
X140549248Y-113080003D01*
X140548953Y-113418512D01*
X138718914Y-113418512D01*
X138634963Y-113215338D01*
X138395810Y-112975767D01*
X138083182Y-112845952D01*
X137744673Y-112845657D01*
X137431819Y-112974926D01*
X137192248Y-113214079D01*
X137189058Y-113221761D01*
X137139672Y-113102237D01*
X136900519Y-112862666D01*
X136587891Y-112732851D01*
X136249382Y-112732556D01*
X135936528Y-112861825D01*
X135696957Y-113100978D01*
X135635420Y-113249174D01*
X135381488Y-113248953D01*
X135068634Y-113378222D01*
X134829063Y-113617375D01*
X134699248Y-113930003D01*
X134698953Y-114268512D01*
X130583000Y-114268512D01*
X130583000Y-108378512D01*
X131398953Y-108378512D01*
X131525882Y-108685703D01*
X131401545Y-108985138D01*
X131401250Y-109323647D01*
X131530519Y-109636501D01*
X131769672Y-109876072D01*
X132082300Y-110005887D01*
X132420809Y-110006182D01*
X132686229Y-109896512D01*
X139814153Y-109896512D01*
X139943422Y-110209366D01*
X140182575Y-110448937D01*
X140495203Y-110578752D01*
X140747879Y-110578972D01*
X140728848Y-110624803D01*
X140728553Y-110963312D01*
X140857822Y-111276166D01*
X141096975Y-111515737D01*
X141409603Y-111645552D01*
X141748112Y-111645847D01*
X142051956Y-111520301D01*
X142077022Y-111580966D01*
X142316175Y-111820537D01*
X142628803Y-111950352D01*
X142967312Y-111950647D01*
X143280166Y-111821378D01*
X143519737Y-111582225D01*
X143523604Y-111572912D01*
X145605353Y-111572912D01*
X145734622Y-111885766D01*
X145973775Y-112125337D01*
X146286403Y-112255152D01*
X146624912Y-112255447D01*
X146937766Y-112126178D01*
X147059116Y-112005039D01*
X149788776Y-112005039D01*
X149918045Y-112317893D01*
X150157198Y-112557464D01*
X150469826Y-112687279D01*
X150600049Y-112687392D01*
X150641443Y-112787574D01*
X150880596Y-113027145D01*
X150949139Y-113055606D01*
X150948953Y-113268512D01*
X151078222Y-113581366D01*
X151317375Y-113820937D01*
X151630003Y-113950752D01*
X151968512Y-113951047D01*
X152008442Y-113934548D01*
X153234906Y-113934548D01*
X153364175Y-114247402D01*
X153603328Y-114486973D01*
X153857198Y-114592389D01*
X153839990Y-114633830D01*
X153839695Y-114972339D01*
X153968964Y-115285193D01*
X154208117Y-115524764D01*
X154232718Y-115534979D01*
X154232553Y-115724566D01*
X154361822Y-116037420D01*
X154430884Y-116106602D01*
X154388042Y-116209776D01*
X154387747Y-116548285D01*
X154517016Y-116861139D01*
X154756169Y-117100710D01*
X155068797Y-117230525D01*
X155407306Y-117230820D01*
X155720160Y-117101551D01*
X155749730Y-117072033D01*
X155951681Y-117155891D01*
X156074608Y-117155998D01*
X156128384Y-117286146D01*
X156367537Y-117525717D01*
X156680165Y-117655532D01*
X157018674Y-117655827D01*
X157331528Y-117526558D01*
X157571099Y-117287405D01*
X157667775Y-117054583D01*
X157687875Y-117074718D01*
X158000503Y-117204533D01*
X158339012Y-117204828D01*
X158651866Y-117075559D01*
X158891437Y-116836406D01*
X159021252Y-116523778D01*
X159021547Y-116185269D01*
X158892278Y-115872415D01*
X158653125Y-115632844D01*
X158340497Y-115503029D01*
X158001988Y-115502734D01*
X157935435Y-115530233D01*
X157781010Y-115375539D01*
X157468382Y-115245724D01*
X157129873Y-115245429D01*
X156817019Y-115374698D01*
X156605723Y-115585625D01*
X156604303Y-115584202D01*
X156291675Y-115454387D01*
X155953166Y-115454092D01*
X155934582Y-115461771D01*
X155934647Y-115387542D01*
X155822420Y-115115933D01*
X155937025Y-115116033D01*
X156249879Y-114986764D01*
X156489450Y-114747611D01*
X156619265Y-114434983D01*
X156619560Y-114096474D01*
X156490291Y-113783620D01*
X156251138Y-113544049D01*
X156043828Y-113457966D01*
X156087272Y-113353343D01*
X156087469Y-113127029D01*
X156151797Y-113127085D01*
X156464651Y-112997816D01*
X156704222Y-112758663D01*
X156834037Y-112446035D01*
X156834332Y-112107526D01*
X156705063Y-111794672D01*
X156465910Y-111555101D01*
X156153282Y-111425286D01*
X155814773Y-111424991D01*
X155501919Y-111554260D01*
X155262348Y-111793413D01*
X155132533Y-112106041D01*
X155132336Y-112332355D01*
X155068008Y-112332299D01*
X154755154Y-112461568D01*
X154515583Y-112700721D01*
X154401408Y-112975684D01*
X154255950Y-112915284D01*
X153917441Y-112914989D01*
X153604587Y-113044258D01*
X153365016Y-113283411D01*
X153235201Y-113596039D01*
X153234906Y-113934548D01*
X152008442Y-113934548D01*
X152281366Y-113821778D01*
X152520937Y-113582625D01*
X152650752Y-113269997D01*
X152651047Y-112931488D01*
X152521778Y-112618634D01*
X152282625Y-112379063D01*
X152232353Y-112358188D01*
X152527128Y-112358445D01*
X152839982Y-112229176D01*
X153079553Y-111990023D01*
X153209368Y-111677395D01*
X153209621Y-111387436D01*
X153365386Y-111231942D01*
X153365255Y-111382519D01*
X153494524Y-111695373D01*
X153733677Y-111934944D01*
X154046305Y-112064759D01*
X154384814Y-112065054D01*
X154697668Y-111935785D01*
X154937239Y-111696632D01*
X154942677Y-111683536D01*
X155131251Y-111683700D01*
X155444105Y-111554431D01*
X155683249Y-111315704D01*
X155935763Y-111420557D01*
X156274272Y-111420852D01*
X156587126Y-111291583D01*
X156610237Y-111268512D01*
X159148953Y-111268512D01*
X159278222Y-111581366D01*
X159517375Y-111820937D01*
X159830003Y-111950752D01*
X160168512Y-111951047D01*
X160481366Y-111821778D01*
X160559071Y-111744208D01*
X161267103Y-111744208D01*
X161389694Y-112040901D01*
X161305762Y-112243032D01*
X161305467Y-112581541D01*
X161434736Y-112894395D01*
X161673889Y-113133966D01*
X161986517Y-113263781D01*
X162325026Y-113264076D01*
X162637880Y-113134807D01*
X162877451Y-112895654D01*
X163007266Y-112583026D01*
X163007561Y-112244517D01*
X162884970Y-111947824D01*
X162968902Y-111745693D01*
X162969197Y-111407184D01*
X162883068Y-111198738D01*
X163003709Y-110908204D01*
X163004004Y-110569695D01*
X162874735Y-110256841D01*
X162635582Y-110017270D01*
X162322954Y-109887455D01*
X161984445Y-109887160D01*
X161671591Y-110016429D01*
X161432020Y-110255582D01*
X161302205Y-110568210D01*
X161301910Y-110906719D01*
X161388039Y-111115165D01*
X161267398Y-111405699D01*
X161267103Y-111744208D01*
X160559071Y-111744208D01*
X160720937Y-111582625D01*
X160850752Y-111269997D01*
X160851047Y-110931488D01*
X160721778Y-110618634D01*
X160482625Y-110379063D01*
X160169997Y-110249248D01*
X159831488Y-110248953D01*
X159518634Y-110378222D01*
X159279063Y-110617375D01*
X159149248Y-110930003D01*
X159148953Y-111268512D01*
X156610237Y-111268512D01*
X156826697Y-111052430D01*
X156913318Y-110843824D01*
X156930003Y-110850752D01*
X157268512Y-110851047D01*
X157581366Y-110721778D01*
X157820937Y-110482625D01*
X157950752Y-110169997D01*
X157951047Y-109831488D01*
X157840200Y-109563219D01*
X157920935Y-109482625D01*
X158050750Y-109169997D01*
X158051045Y-108831488D01*
X157955321Y-108599819D01*
X158050752Y-108369997D01*
X158051047Y-108031488D01*
X157965677Y-107824878D01*
X158050752Y-107619997D01*
X158051047Y-107281488D01*
X157921778Y-106968634D01*
X157749274Y-106795828D01*
X157786627Y-106705872D01*
X157786922Y-106367363D01*
X157657653Y-106054509D01*
X157418500Y-105814938D01*
X157105872Y-105685123D01*
X156767363Y-105684828D01*
X156454509Y-105814097D01*
X156263438Y-106004835D01*
X156335583Y-105831091D01*
X156335878Y-105492582D01*
X156206609Y-105179728D01*
X155967456Y-104940157D01*
X155654828Y-104810342D01*
X155316319Y-104810047D01*
X155003465Y-104939316D01*
X154763894Y-105178469D01*
X154634079Y-105491097D01*
X154633784Y-105829606D01*
X154763053Y-106142460D01*
X155002206Y-106382031D01*
X155314834Y-106511846D01*
X155653343Y-106512141D01*
X155966197Y-106382872D01*
X156157268Y-106192134D01*
X156085123Y-106365878D01*
X156084828Y-106704387D01*
X156189468Y-106957635D01*
X156018634Y-107028222D01*
X155779063Y-107267375D01*
X155649248Y-107580003D01*
X155648953Y-107918512D01*
X155778222Y-108231366D01*
X155780702Y-108233850D01*
X155699252Y-108430003D01*
X155698957Y-108768512D01*
X155782758Y-108971324D01*
X155682728Y-109212221D01*
X155682433Y-109550730D01*
X155778896Y-109784188D01*
X155624394Y-109848027D01*
X155584792Y-109887560D01*
X155584818Y-109857819D01*
X155455549Y-109544965D01*
X155216396Y-109305394D01*
X154903768Y-109175579D01*
X154565259Y-109175284D01*
X154252405Y-109304553D01*
X154012834Y-109543706D01*
X153883019Y-109856334D01*
X153882724Y-110194843D01*
X153966130Y-110396701D01*
X153734936Y-110492229D01*
X153517076Y-110709709D01*
X153517207Y-110559132D01*
X153387938Y-110246278D01*
X153148785Y-110006707D01*
X152836157Y-109876892D01*
X152497648Y-109876597D01*
X152184794Y-110005866D01*
X152121934Y-110068616D01*
X151982625Y-109929063D01*
X151669997Y-109799248D01*
X151331488Y-109798953D01*
X151018634Y-109928222D01*
X150779063Y-110167375D01*
X150649248Y-110480003D01*
X150648953Y-110818512D01*
X150718032Y-110985695D01*
X150471311Y-110985480D01*
X150158457Y-111114749D01*
X149918886Y-111353902D01*
X149789071Y-111666530D01*
X149788776Y-112005039D01*
X147059116Y-112005039D01*
X147177337Y-111887025D01*
X147307152Y-111574397D01*
X147307447Y-111235888D01*
X147178178Y-110923034D01*
X146939025Y-110683463D01*
X146626397Y-110553648D01*
X146287888Y-110553353D01*
X145975034Y-110682622D01*
X145735463Y-110921775D01*
X145605648Y-111234403D01*
X145605353Y-111572912D01*
X143523604Y-111572912D01*
X143649552Y-111269597D01*
X143649847Y-110931088D01*
X143520578Y-110618234D01*
X143434548Y-110532053D01*
X143519111Y-110532053D01*
X143648380Y-110844907D01*
X143887533Y-111084478D01*
X144200161Y-111214293D01*
X144538670Y-111214588D01*
X144851524Y-111085319D01*
X145091095Y-110846166D01*
X145220910Y-110533538D01*
X145221205Y-110195029D01*
X145091936Y-109882175D01*
X144971320Y-109761348D01*
X145081366Y-109715878D01*
X145220590Y-109576896D01*
X145220473Y-109711723D01*
X145349742Y-110024577D01*
X145588895Y-110264148D01*
X145901523Y-110393963D01*
X146240032Y-110394258D01*
X146552886Y-110264989D01*
X146792457Y-110025836D01*
X146922272Y-109713208D01*
X146922567Y-109374699D01*
X146793298Y-109061845D01*
X146554145Y-108822274D01*
X146241517Y-108692459D01*
X145903008Y-108692164D01*
X145590154Y-108821433D01*
X145450930Y-108960415D01*
X145451047Y-108825588D01*
X145347411Y-108574770D01*
X145450752Y-108325897D01*
X145451047Y-107987388D01*
X145321778Y-107674534D01*
X145216062Y-107568633D01*
X147245284Y-107568633D01*
X147374553Y-107881487D01*
X147613706Y-108121058D01*
X147926334Y-108250873D01*
X148264843Y-108251168D01*
X148577697Y-108121899D01*
X148817268Y-107882746D01*
X148947083Y-107570118D01*
X148947259Y-107367692D01*
X150315942Y-107367692D01*
X150445211Y-107680546D01*
X150625690Y-107861340D01*
X150625441Y-108146672D01*
X150754710Y-108459526D01*
X150993863Y-108699097D01*
X151306491Y-108828912D01*
X151524227Y-108829102D01*
X151523953Y-109143512D01*
X151653222Y-109456366D01*
X151892375Y-109695937D01*
X152205003Y-109825752D01*
X152543512Y-109826047D01*
X152856366Y-109696778D01*
X153095937Y-109457625D01*
X153225752Y-109144997D01*
X153226047Y-108806488D01*
X153195913Y-108733557D01*
X153410307Y-108519537D01*
X153529261Y-108233065D01*
X153856000Y-108233350D01*
X154168854Y-108104081D01*
X154408425Y-107864928D01*
X154538240Y-107552300D01*
X154538535Y-107213791D01*
X154409266Y-106900937D01*
X154170113Y-106661366D01*
X153857485Y-106531551D01*
X153518976Y-106531256D01*
X153215175Y-106656784D01*
X153215381Y-106420567D01*
X153086112Y-106107713D01*
X152846959Y-105868142D01*
X152534331Y-105738327D01*
X152195822Y-105738032D01*
X151882968Y-105867301D01*
X151643397Y-106106454D01*
X151513582Y-106419082D01*
X151513580Y-106421756D01*
X151336986Y-106348428D01*
X150998477Y-106348133D01*
X150685623Y-106477402D01*
X150446052Y-106716555D01*
X150316237Y-107029183D01*
X150315942Y-107367692D01*
X148947259Y-107367692D01*
X148947378Y-107231609D01*
X148818109Y-106918755D01*
X148578956Y-106679184D01*
X148266328Y-106549369D01*
X147927819Y-106549074D01*
X147614965Y-106678343D01*
X147375394Y-106917496D01*
X147245579Y-107230124D01*
X147245284Y-107568633D01*
X145216062Y-107568633D01*
X145082625Y-107434963D01*
X144769997Y-107305148D01*
X144431488Y-107304853D01*
X144118634Y-107434122D01*
X143879063Y-107673275D01*
X143749248Y-107985903D01*
X143748953Y-108324412D01*
X143852589Y-108575230D01*
X143749248Y-108824103D01*
X143748953Y-109162612D01*
X143878222Y-109475466D01*
X143998838Y-109596293D01*
X143888792Y-109641763D01*
X143649221Y-109880916D01*
X143519406Y-110193544D01*
X143519111Y-110532053D01*
X143434548Y-110532053D01*
X143281425Y-110378663D01*
X142968797Y-110248848D01*
X142630288Y-110248553D01*
X142326444Y-110374099D01*
X142301378Y-110313434D01*
X142062225Y-110073863D01*
X141749597Y-109944048D01*
X141496921Y-109943828D01*
X141515952Y-109897997D01*
X141516247Y-109559488D01*
X141386978Y-109246634D01*
X141147825Y-109007063D01*
X140835197Y-108877248D01*
X140496688Y-108876953D01*
X140183834Y-109006222D01*
X139944263Y-109245375D01*
X139814448Y-109558003D01*
X139814153Y-109896512D01*
X132686229Y-109896512D01*
X132733663Y-109876913D01*
X132973234Y-109637760D01*
X133103049Y-109325132D01*
X133103316Y-109018391D01*
X137137576Y-109018391D01*
X137266845Y-109331245D01*
X137505998Y-109570816D01*
X137818626Y-109700631D01*
X138157135Y-109700926D01*
X138469989Y-109571657D01*
X138709560Y-109332504D01*
X138839375Y-109019876D01*
X138839670Y-108681367D01*
X138710401Y-108368513D01*
X138471248Y-108128942D01*
X138158620Y-107999127D01*
X137820111Y-107998832D01*
X137507257Y-108128101D01*
X137267686Y-108367254D01*
X137137871Y-108679882D01*
X137137576Y-109018391D01*
X133103316Y-109018391D01*
X133103344Y-108986623D01*
X132976415Y-108679432D01*
X133100752Y-108379997D01*
X133101047Y-108041488D01*
X132971778Y-107728634D01*
X132732625Y-107489063D01*
X132419997Y-107359248D01*
X132081488Y-107358953D01*
X131768634Y-107488222D01*
X131529063Y-107727375D01*
X131399248Y-108040003D01*
X131398953Y-108378512D01*
X130583000Y-108378512D01*
X130583000Y-106488512D01*
X131268953Y-106488512D01*
X131398222Y-106801366D01*
X131637375Y-107040937D01*
X131950003Y-107170752D01*
X132288512Y-107171047D01*
X132601366Y-107041778D01*
X132840937Y-106802625D01*
X132970752Y-106489997D01*
X132971047Y-106151488D01*
X132967752Y-106143512D01*
X141973953Y-106143512D01*
X142103222Y-106456366D01*
X142342375Y-106695937D01*
X142655003Y-106825752D01*
X142993512Y-106826047D01*
X143306366Y-106696778D01*
X143545937Y-106457625D01*
X143586480Y-106359988D01*
X143617375Y-106390937D01*
X143930003Y-106520752D01*
X144268512Y-106521047D01*
X144581366Y-106391778D01*
X144820937Y-106152625D01*
X144950752Y-105839997D01*
X144951047Y-105501488D01*
X144847459Y-105250786D01*
X147245284Y-105250786D01*
X147374553Y-105563640D01*
X147613706Y-105803211D01*
X147926334Y-105933026D01*
X148264843Y-105933321D01*
X148577697Y-105804052D01*
X148817268Y-105564899D01*
X148947083Y-105252271D01*
X148947378Y-104913762D01*
X148818109Y-104600908D01*
X148578956Y-104361337D01*
X148266328Y-104231522D01*
X147927819Y-104231227D01*
X147614965Y-104360496D01*
X147375394Y-104599649D01*
X147245579Y-104912277D01*
X147245284Y-105250786D01*
X144847459Y-105250786D01*
X144821778Y-105188634D01*
X144582625Y-104949063D01*
X144269997Y-104819248D01*
X143931488Y-104818953D01*
X143618634Y-104948222D01*
X143379063Y-105187375D01*
X143338520Y-105285012D01*
X143307625Y-105254063D01*
X142994997Y-105124248D01*
X142656488Y-105123953D01*
X142343634Y-105253222D01*
X142104063Y-105492375D01*
X141974248Y-105805003D01*
X141973953Y-106143512D01*
X132967752Y-106143512D01*
X132841778Y-105838634D01*
X132602625Y-105599063D01*
X132289997Y-105469248D01*
X131951488Y-105468953D01*
X131638634Y-105598222D01*
X131399063Y-105837375D01*
X131269248Y-106150003D01*
X131268953Y-106488512D01*
X130583000Y-106488512D01*
X130583000Y-103913101D01*
X130770003Y-103990752D01*
X131108512Y-103991047D01*
X131421366Y-103861778D01*
X131660937Y-103622625D01*
X131704168Y-103518512D01*
X132748953Y-103518512D01*
X132878222Y-103831366D01*
X133117375Y-104070937D01*
X133430003Y-104200752D01*
X133768512Y-104201047D01*
X134081366Y-104071778D01*
X134320937Y-103832625D01*
X134368321Y-103718512D01*
X138845473Y-103718512D01*
X138974742Y-104031366D01*
X139213895Y-104270937D01*
X139526523Y-104400752D01*
X139767051Y-104400962D01*
X139835570Y-104566790D01*
X139631149Y-104770855D01*
X139501334Y-105083483D01*
X139501039Y-105421992D01*
X139630308Y-105734846D01*
X139869461Y-105974417D01*
X140182089Y-106104232D01*
X140520598Y-106104527D01*
X140833452Y-105975258D01*
X141073023Y-105736105D01*
X141202838Y-105423477D01*
X141203133Y-105084968D01*
X141084208Y-104797148D01*
X141288629Y-104593083D01*
X141418444Y-104280455D01*
X141418739Y-103941946D01*
X141324211Y-103713171D01*
X141693612Y-103713171D01*
X141822881Y-104026025D01*
X142062034Y-104265596D01*
X142374662Y-104395411D01*
X142713171Y-104395706D01*
X143026025Y-104266437D01*
X143265596Y-104027284D01*
X143369551Y-103776932D01*
X143938103Y-103776932D01*
X144067372Y-104089786D01*
X144306525Y-104329357D01*
X144619153Y-104459172D01*
X144957662Y-104459467D01*
X145270516Y-104330198D01*
X145376837Y-104224063D01*
X145429822Y-104246064D01*
X145768331Y-104246359D01*
X146081185Y-104117090D01*
X146320756Y-103877937D01*
X146450571Y-103565309D01*
X146450866Y-103226800D01*
X146321597Y-102913946D01*
X146200839Y-102792976D01*
X147287433Y-102792976D01*
X147416702Y-103105830D01*
X147655855Y-103345401D01*
X147968483Y-103475216D01*
X148306992Y-103475511D01*
X148619846Y-103346242D01*
X148859417Y-103107089D01*
X148989232Y-102794461D01*
X148989376Y-102628512D01*
X151888953Y-102628512D01*
X152018222Y-102941366D01*
X152257375Y-103180937D01*
X152570003Y-103310752D01*
X152908512Y-103311047D01*
X153221366Y-103181778D01*
X153433729Y-102969785D01*
X154140817Y-102969785D01*
X154270086Y-103282639D01*
X154390725Y-103403489D01*
X154377440Y-103435483D01*
X154377145Y-103773992D01*
X154506414Y-104086846D01*
X154745567Y-104326417D01*
X155058195Y-104456232D01*
X155396704Y-104456527D01*
X155709558Y-104327258D01*
X155949129Y-104088105D01*
X156078944Y-103775477D01*
X156079239Y-103436968D01*
X155949970Y-103124114D01*
X155829331Y-103003264D01*
X155842616Y-102971270D01*
X155842911Y-102632761D01*
X155713642Y-102319907D01*
X155474489Y-102080336D01*
X155161861Y-101950521D01*
X154823352Y-101950226D01*
X154510498Y-102079495D01*
X154270927Y-102318648D01*
X154141112Y-102631276D01*
X154140817Y-102969785D01*
X153433729Y-102969785D01*
X153460937Y-102942625D01*
X153590752Y-102629997D01*
X153591047Y-102291488D01*
X153461778Y-101978634D01*
X153222625Y-101739063D01*
X152909997Y-101609248D01*
X152571488Y-101608953D01*
X152258634Y-101738222D01*
X152019063Y-101977375D01*
X151889248Y-102290003D01*
X151888953Y-102628512D01*
X148989376Y-102628512D01*
X148989527Y-102455952D01*
X148918702Y-102284542D01*
X149100937Y-102102625D01*
X149230752Y-101789997D01*
X149231047Y-101451488D01*
X149101778Y-101138634D01*
X148862625Y-100899063D01*
X148549997Y-100769248D01*
X148211488Y-100768953D01*
X147898634Y-100898222D01*
X147659063Y-101137375D01*
X147529248Y-101450003D01*
X147528953Y-101788512D01*
X147599778Y-101959922D01*
X147417543Y-102141839D01*
X147287728Y-102454467D01*
X147287433Y-102792976D01*
X146200839Y-102792976D01*
X146082444Y-102674375D01*
X145769816Y-102544560D01*
X145431307Y-102544265D01*
X145118453Y-102673534D01*
X145012132Y-102779669D01*
X144959147Y-102757668D01*
X144620638Y-102757373D01*
X144307784Y-102886642D01*
X144068213Y-103125795D01*
X143938398Y-103438423D01*
X143938103Y-103776932D01*
X143369551Y-103776932D01*
X143395411Y-103714656D01*
X143395706Y-103376147D01*
X143266437Y-103063293D01*
X143027284Y-102823722D01*
X142714656Y-102693907D01*
X142376147Y-102693612D01*
X142063293Y-102822881D01*
X141823722Y-103062034D01*
X141693907Y-103374662D01*
X141693612Y-103713171D01*
X141324211Y-103713171D01*
X141289470Y-103629092D01*
X141050317Y-103389521D01*
X140737689Y-103259706D01*
X140497161Y-103259496D01*
X140418298Y-103068634D01*
X140179145Y-102829063D01*
X139866517Y-102699248D01*
X139528008Y-102698953D01*
X139215154Y-102828222D01*
X138975583Y-103067375D01*
X138845768Y-103380003D01*
X138845473Y-103718512D01*
X134368321Y-103718512D01*
X134450752Y-103519997D01*
X134451047Y-103181488D01*
X134321778Y-102868634D01*
X134082625Y-102629063D01*
X133769997Y-102499248D01*
X133431488Y-102498953D01*
X133118634Y-102628222D01*
X132879063Y-102867375D01*
X132749248Y-103180003D01*
X132748953Y-103518512D01*
X131704168Y-103518512D01*
X131790752Y-103309997D01*
X131791047Y-102971488D01*
X131661778Y-102658634D01*
X131422625Y-102419063D01*
X131109997Y-102289248D01*
X130771488Y-102288953D01*
X130583000Y-102366835D01*
X130583000Y-101638512D01*
X133268953Y-101638512D01*
X133398222Y-101951366D01*
X133637375Y-102190937D01*
X133950003Y-102320752D01*
X134288512Y-102321047D01*
X134601366Y-102191778D01*
X134840937Y-101952625D01*
X134970752Y-101639997D01*
X134971047Y-101301488D01*
X134841778Y-100988634D01*
X134602625Y-100749063D01*
X134289997Y-100619248D01*
X133951488Y-100618953D01*
X133638634Y-100748222D01*
X133399063Y-100987375D01*
X133269248Y-101300003D01*
X133268953Y-101638512D01*
X130583000Y-101638512D01*
X130583000Y-100558512D01*
X149238953Y-100558512D01*
X149368222Y-100871366D01*
X149607375Y-101110937D01*
X149920003Y-101240752D01*
X150258512Y-101241047D01*
X150571366Y-101111778D01*
X150810937Y-100872625D01*
X150940752Y-100559997D01*
X150940950Y-100332559D01*
X152324469Y-100332559D01*
X152453738Y-100645413D01*
X152692891Y-100884984D01*
X153005519Y-101014799D01*
X153344028Y-101015094D01*
X153656882Y-100885825D01*
X153896453Y-100646672D01*
X154026268Y-100334044D01*
X154026563Y-99995535D01*
X154007134Y-99948512D01*
X155178953Y-99948512D01*
X155308222Y-100261366D01*
X155547375Y-100500937D01*
X155860003Y-100630752D01*
X156198512Y-100631047D01*
X156397835Y-100548688D01*
X156349063Y-100597375D01*
X156219248Y-100910003D01*
X156218953Y-101248512D01*
X156348222Y-101561366D01*
X156587375Y-101800937D01*
X156900003Y-101930752D01*
X157238512Y-101931047D01*
X157551366Y-101801778D01*
X157790937Y-101562625D01*
X157920752Y-101249997D01*
X157921047Y-100911488D01*
X157791778Y-100598634D01*
X157653429Y-100460043D01*
X157705062Y-100408500D01*
X157775016Y-100240032D01*
X161259189Y-100240032D01*
X161388458Y-100552886D01*
X161627611Y-100792457D01*
X161940239Y-100922272D01*
X162278748Y-100922567D01*
X162528108Y-100819533D01*
X162629611Y-100921213D01*
X162942239Y-101051028D01*
X163133121Y-101051194D01*
X163057728Y-101232760D01*
X163057433Y-101571269D01*
X163186702Y-101884123D01*
X163425855Y-102123694D01*
X163738483Y-102253509D01*
X164076992Y-102253804D01*
X164389846Y-102124535D01*
X164629417Y-101885382D01*
X164759232Y-101572754D01*
X164759527Y-101234245D01*
X164630258Y-100921391D01*
X164592502Y-100883569D01*
X164660857Y-100815334D01*
X164790672Y-100502706D01*
X164790967Y-100164197D01*
X164661698Y-99851343D01*
X164422545Y-99611772D01*
X164109917Y-99481957D01*
X163771408Y-99481662D01*
X163648058Y-99532629D01*
X163594861Y-99479339D01*
X163282233Y-99349524D01*
X162943724Y-99349229D01*
X162694364Y-99452263D01*
X162592861Y-99350583D01*
X162280233Y-99220768D01*
X161941724Y-99220473D01*
X161628870Y-99349742D01*
X161389299Y-99588895D01*
X161259484Y-99901523D01*
X161259189Y-100240032D01*
X157775016Y-100240032D01*
X157834877Y-100095872D01*
X157835172Y-99757363D01*
X157830542Y-99746157D01*
X158101954Y-99634012D01*
X158141302Y-99594733D01*
X158217373Y-99670937D01*
X158530001Y-99800752D01*
X158868510Y-99801047D01*
X159181364Y-99671778D01*
X159420935Y-99432625D01*
X159550750Y-99119997D01*
X159551045Y-98781488D01*
X159421776Y-98468634D01*
X159182623Y-98229063D01*
X158869995Y-98099248D01*
X158531486Y-98098953D01*
X158218632Y-98228222D01*
X158179284Y-98267501D01*
X158103213Y-98191297D01*
X157790585Y-98061482D01*
X157452076Y-98061187D01*
X157139222Y-98190456D01*
X156899651Y-98429609D01*
X156769836Y-98742237D01*
X156769541Y-99080746D01*
X156774171Y-99091952D01*
X156612246Y-99158858D01*
X156512625Y-99059063D01*
X156199997Y-98929248D01*
X155861488Y-98928953D01*
X155548634Y-99058222D01*
X155309063Y-99297375D01*
X155179248Y-99610003D01*
X155178953Y-99948512D01*
X154007134Y-99948512D01*
X153897294Y-99682681D01*
X153658141Y-99443110D01*
X153345513Y-99313295D01*
X153007004Y-99313000D01*
X152694150Y-99442269D01*
X152454579Y-99681422D01*
X152324764Y-99994050D01*
X152324469Y-100332559D01*
X150940950Y-100332559D01*
X150941047Y-100221488D01*
X150811778Y-99908634D01*
X150572625Y-99669063D01*
X150259997Y-99539248D01*
X149921488Y-99538953D01*
X149608634Y-99668222D01*
X149369063Y-99907375D01*
X149239248Y-100220003D01*
X149238953Y-100558512D01*
X130583000Y-100558512D01*
X130583000Y-97608512D01*
X137208953Y-97608512D01*
X137338222Y-97921366D01*
X137577375Y-98160937D01*
X137890003Y-98290752D01*
X138228512Y-98291047D01*
X138541366Y-98161778D01*
X138780937Y-97922625D01*
X138910752Y-97609997D01*
X138911047Y-97271488D01*
X138909818Y-97268512D01*
X160798953Y-97268512D01*
X160928222Y-97581366D01*
X161167375Y-97820937D01*
X161480003Y-97950752D01*
X161818512Y-97951047D01*
X162131366Y-97821778D01*
X162370937Y-97582625D01*
X162500752Y-97269997D01*
X162501047Y-96931488D01*
X162371778Y-96618634D01*
X162132625Y-96379063D01*
X161819997Y-96249248D01*
X161481488Y-96248953D01*
X161168634Y-96378222D01*
X160929063Y-96617375D01*
X160799248Y-96930003D01*
X160798953Y-97268512D01*
X138909818Y-97268512D01*
X138781778Y-96958634D01*
X138542625Y-96719063D01*
X138229997Y-96589248D01*
X137891488Y-96588953D01*
X137578634Y-96718222D01*
X137339063Y-96957375D01*
X137209248Y-97270003D01*
X137208953Y-97608512D01*
X130583000Y-97608512D01*
X130583000Y-96961406D01*
X130750003Y-97030752D01*
X131088512Y-97031047D01*
X131401366Y-96901778D01*
X131520058Y-96783293D01*
X131707375Y-96970937D01*
X132020003Y-97100752D01*
X132358512Y-97101047D01*
X132671366Y-96971778D01*
X132910937Y-96732625D01*
X133040752Y-96419997D01*
X133040753Y-96418512D01*
X138888953Y-96418512D01*
X139018222Y-96731366D01*
X139257375Y-96970937D01*
X139570003Y-97100752D01*
X139908512Y-97101047D01*
X140221366Y-96971778D01*
X140460937Y-96732625D01*
X140590752Y-96419997D01*
X140591047Y-96081488D01*
X140461778Y-95768634D01*
X140311918Y-95618512D01*
X142073953Y-95618512D01*
X142203222Y-95931366D01*
X142442375Y-96170937D01*
X142755003Y-96300752D01*
X143093512Y-96301047D01*
X143406366Y-96171778D01*
X143485772Y-96092511D01*
X143485578Y-96315137D01*
X143614847Y-96627991D01*
X143854000Y-96867562D01*
X144166628Y-96997377D01*
X144505137Y-96997672D01*
X144817991Y-96868403D01*
X145057562Y-96629250D01*
X145187377Y-96316622D01*
X145187672Y-95978113D01*
X145058403Y-95665259D01*
X144819250Y-95425688D01*
X144506622Y-95295873D01*
X144168113Y-95295578D01*
X143855259Y-95424847D01*
X143775853Y-95504114D01*
X143776047Y-95281488D01*
X143646778Y-94968634D01*
X143407625Y-94729063D01*
X143094997Y-94599248D01*
X142756488Y-94598953D01*
X142443634Y-94728222D01*
X142204063Y-94967375D01*
X142074248Y-95280003D01*
X142073953Y-95618512D01*
X140311918Y-95618512D01*
X140222625Y-95529063D01*
X139909997Y-95399248D01*
X139571488Y-95398953D01*
X139258634Y-95528222D01*
X139019063Y-95767375D01*
X138889248Y-96080003D01*
X138888953Y-96418512D01*
X133040753Y-96418512D01*
X133041047Y-96081488D01*
X132911778Y-95768634D01*
X132672625Y-95529063D01*
X132671978Y-95528794D01*
X133736308Y-95528794D01*
X133865577Y-95841648D01*
X134104730Y-96081219D01*
X134417358Y-96211034D01*
X134755867Y-96211329D01*
X135068721Y-96082060D01*
X135116365Y-96034499D01*
X135300003Y-96110752D01*
X135638512Y-96111047D01*
X135951366Y-95981778D01*
X136190937Y-95742625D01*
X136320752Y-95429997D01*
X136321047Y-95091488D01*
X136191778Y-94778634D01*
X135952625Y-94539063D01*
X135639997Y-94409248D01*
X135301488Y-94408953D01*
X134988634Y-94538222D01*
X134940990Y-94585783D01*
X134757352Y-94509530D01*
X134418843Y-94509235D01*
X134105989Y-94638504D01*
X133866418Y-94877657D01*
X133736603Y-95190285D01*
X133736308Y-95528794D01*
X132671978Y-95528794D01*
X132359997Y-95399248D01*
X132021488Y-95398953D01*
X131708634Y-95528222D01*
X131589942Y-95646707D01*
X131402625Y-95459063D01*
X131089997Y-95329248D01*
X130751488Y-95328953D01*
X130583000Y-95398571D01*
X130583000Y-93147664D01*
X130741652Y-93147664D01*
X131046708Y-93885955D01*
X131611074Y-94451307D01*
X132348832Y-94757651D01*
X133147664Y-94758348D01*
X133885955Y-94453292D01*
X134451307Y-93888926D01*
X134757651Y-93151168D01*
X134757893Y-92873184D01*
X144048953Y-92873184D01*
X144178222Y-93186038D01*
X144417375Y-93425609D01*
X144730003Y-93555424D01*
X145068512Y-93555719D01*
X145381366Y-93426450D01*
X145620937Y-93187297D01*
X145637394Y-93147664D01*
X161241652Y-93147664D01*
X161546708Y-93885955D01*
X162111074Y-94451307D01*
X162848832Y-94757651D01*
X163647664Y-94758348D01*
X164385955Y-94453292D01*
X164951307Y-93888926D01*
X165257651Y-93151168D01*
X165258348Y-92352336D01*
X164953292Y-91614045D01*
X164388926Y-91048693D01*
X163651168Y-90742349D01*
X162852336Y-90741652D01*
X162114045Y-91046708D01*
X161548693Y-91611074D01*
X161242349Y-92348832D01*
X161241652Y-93147664D01*
X145637394Y-93147664D01*
X145750752Y-92874669D01*
X145751047Y-92536160D01*
X145744974Y-92521462D01*
X145896450Y-92509869D01*
X146139819Y-92409062D01*
X146233457Y-92263062D01*
X145600000Y-91629605D01*
X145585858Y-91643748D01*
X145406253Y-91464143D01*
X145420395Y-91450000D01*
X145779605Y-91450000D01*
X146413062Y-92083457D01*
X146559062Y-91989819D01*
X146680592Y-91618512D01*
X149298953Y-91618512D01*
X149428222Y-91931366D01*
X149667375Y-92170937D01*
X149980003Y-92300752D01*
X150318512Y-92301047D01*
X150631366Y-92171778D01*
X150870937Y-91932625D01*
X151000752Y-91619997D01*
X151001047Y-91281488D01*
X150871778Y-90968634D01*
X150632625Y-90729063D01*
X150319997Y-90599248D01*
X149981488Y-90598953D01*
X149668634Y-90728222D01*
X149429063Y-90967375D01*
X149299248Y-91280003D01*
X149298953Y-91618512D01*
X146680592Y-91618512D01*
X146692638Y-91581711D01*
X146659869Y-91153550D01*
X146559062Y-90910181D01*
X146413062Y-90816543D01*
X145779605Y-91450000D01*
X145420395Y-91450000D01*
X144786938Y-90816543D01*
X144640938Y-90910181D01*
X144507362Y-91318289D01*
X144540131Y-91746450D01*
X144606002Y-91905475D01*
X144418634Y-91982894D01*
X144179063Y-92222047D01*
X144049248Y-92534675D01*
X144048953Y-92873184D01*
X134757893Y-92873184D01*
X134758348Y-92352336D01*
X134721461Y-92263062D01*
X138366543Y-92263062D01*
X138460181Y-92409062D01*
X138868289Y-92542638D01*
X139296450Y-92509869D01*
X139539819Y-92409062D01*
X139633457Y-92263062D01*
X139000000Y-91629605D01*
X138366543Y-92263062D01*
X134721461Y-92263062D01*
X134453292Y-91614045D01*
X133888926Y-91048693D01*
X133151168Y-90742349D01*
X132352336Y-90741652D01*
X131614045Y-91046708D01*
X131048693Y-91611074D01*
X130742349Y-92348832D01*
X130741652Y-93147664D01*
X130583000Y-93147664D01*
X130583000Y-92807422D01*
X130758505Y-91925096D01*
X131225777Y-91225775D01*
X131925095Y-90758505D01*
X132807421Y-90583000D01*
X136213568Y-90583000D01*
X136139063Y-90657375D01*
M02*
