G04 #@! TF.FileFunction,Copper,L1,Top,Signal*
%FSLAX46Y46*%
G04 Gerber Fmt 4.6, Leading zero omitted, Abs format (unit mm)*
G04 Created by KiCad (PCBNEW (2015-11-03 BZR 6296)-product) date Tuesday, November 10, 2015 'PMt' 12:05:32 PM*
%MOMM*%
G01*
G04 APERTURE LIST*
%ADD10C,0.100000*%
%ADD11C,1.600000*%
%ADD12R,0.550000X0.200000*%
%ADD13R,0.200000X0.550000*%
%ADD14R,0.875000X0.800000*%
%ADD15R,1.200000X0.750000*%
%ADD16R,0.750000X1.200000*%
%ADD17R,0.797560X0.797560*%
%ADD18R,1.727200X1.727200*%
%ADD19O,1.727200X1.727200*%
%ADD20R,0.900000X1.200000*%
%ADD21R,1.200000X0.900000*%
%ADD22R,0.280000X1.500000*%
%ADD23R,1.500000X0.280000*%
%ADD24R,1.900000X2.600000*%
%ADD25R,0.700000X0.200000*%
%ADD26R,0.650000X1.060000*%
%ADD27C,1.000000*%
%ADD28R,0.500000X0.600000*%
%ADD29R,2.000000X1.600000*%
%ADD30C,0.685800*%
%ADD31C,0.685801*%
%ADD32C,0.152400*%
%ADD33C,0.254000*%
%ADD34C,0.175000*%
G04 APERTURE END LIST*
D10*
D11*
X139000000Y-91450000D03*
X145600000Y-91450000D03*
D12*
X131000000Y-97850000D03*
X131000000Y-98250000D03*
X131000000Y-98650000D03*
X131000000Y-99050000D03*
X131000000Y-99450000D03*
X131000000Y-99850000D03*
D13*
X131500000Y-100350000D03*
X131900000Y-100350000D03*
X132300000Y-100350000D03*
X132700000Y-100350000D03*
X133100000Y-100350000D03*
X133500000Y-100350000D03*
D12*
X134000000Y-99850000D03*
X134000000Y-99450000D03*
X134000000Y-99050000D03*
X134000000Y-98650000D03*
X134000000Y-98250000D03*
X134000000Y-97850000D03*
D13*
X133500000Y-97350000D03*
X133100000Y-97350000D03*
X132700000Y-97350000D03*
X132300000Y-97350000D03*
X131900000Y-97350000D03*
X131500000Y-97350000D03*
D14*
X132935000Y-99250000D03*
X132935000Y-98450000D03*
X132065000Y-99250000D03*
X132065000Y-98450000D03*
D15*
X131350000Y-102300000D03*
X133250000Y-102300000D03*
D16*
X131200000Y-104550000D03*
X131200000Y-106450000D03*
X131250000Y-117000000D03*
X131250000Y-115100000D03*
X155070000Y-92640000D03*
X155070000Y-94540000D03*
D17*
X153300000Y-91100000D03*
X153300000Y-92598600D03*
X151150000Y-91100000D03*
X151150000Y-92598600D03*
X149100000Y-91100000D03*
X149100000Y-92598600D03*
D18*
X145200000Y-124900000D03*
D19*
X145200000Y-122360000D03*
X142660000Y-124900000D03*
X142660000Y-122360000D03*
X140120000Y-124900000D03*
X140120000Y-122360000D03*
X137580000Y-124900000D03*
X137580000Y-122360000D03*
D20*
X153450000Y-98000000D03*
X153450000Y-95800000D03*
X151250000Y-98000000D03*
X151250000Y-95800000D03*
X149050000Y-98000000D03*
X149050000Y-95800000D03*
D21*
X141250000Y-93200000D03*
X143450000Y-93200000D03*
D22*
X147500000Y-102150000D03*
X147000000Y-102150000D03*
X146500000Y-102150000D03*
X146000000Y-102150000D03*
X145500000Y-102150000D03*
X145000000Y-102150000D03*
X144500000Y-102150000D03*
X144000000Y-102150000D03*
X143500000Y-102150000D03*
X143000000Y-102150000D03*
X142500000Y-102150000D03*
X142000000Y-102150000D03*
X141500000Y-102150000D03*
X141000000Y-102150000D03*
X140500000Y-102150000D03*
X140000000Y-102150000D03*
X139500000Y-102150000D03*
X139000000Y-102150000D03*
X138500000Y-102150000D03*
X138000000Y-102150000D03*
X137500000Y-102150000D03*
X137000000Y-102150000D03*
X136500000Y-102150000D03*
X136000000Y-102150000D03*
X135500000Y-102150000D03*
D23*
X133600000Y-104050000D03*
X133600000Y-104550000D03*
X133600000Y-105050000D03*
X133600000Y-105550000D03*
X133600000Y-106050000D03*
X133600000Y-106550000D03*
X133600000Y-107050000D03*
X133600000Y-107550000D03*
X133600000Y-108050000D03*
X133600000Y-108550000D03*
X133600000Y-109050000D03*
X133600000Y-109550000D03*
X133600000Y-110050000D03*
X133600000Y-110550000D03*
X133600000Y-111050000D03*
X133600000Y-111550000D03*
X133600000Y-112050000D03*
X133600000Y-112550000D03*
X133600000Y-113050000D03*
X133600000Y-113550000D03*
X133600000Y-114050000D03*
X133600000Y-114550000D03*
X133600000Y-115050000D03*
X133600000Y-115550000D03*
X133600000Y-116050000D03*
D22*
X135500000Y-117950000D03*
X136000000Y-117950000D03*
X136500000Y-117950000D03*
X137000000Y-117950000D03*
X137500000Y-117950000D03*
X138000000Y-117950000D03*
X138500000Y-117950000D03*
X139000000Y-117950000D03*
X139500000Y-117950000D03*
X140000000Y-117950000D03*
X140500000Y-117950000D03*
X141000000Y-117950000D03*
X141500000Y-117950000D03*
X142000000Y-117950000D03*
X142500000Y-117950000D03*
X143000000Y-117950000D03*
X143500000Y-117950000D03*
X144000000Y-117950000D03*
X144500000Y-117950000D03*
X145000000Y-117950000D03*
X145500000Y-117950000D03*
X146000000Y-117950000D03*
X146500000Y-117950000D03*
X147000000Y-117950000D03*
X147500000Y-117950000D03*
D23*
X149400000Y-116050000D03*
X149400000Y-115550000D03*
X149400000Y-115050000D03*
X149400000Y-114550000D03*
X149400000Y-114050000D03*
X149400000Y-113550000D03*
X149400000Y-113050000D03*
X149400000Y-112550000D03*
X149400000Y-112050000D03*
X149400000Y-111550000D03*
X149400000Y-111050000D03*
X149400000Y-110550000D03*
X149400000Y-110050000D03*
X149400000Y-109550000D03*
X149400000Y-109050000D03*
X149400000Y-108550000D03*
X149400000Y-108050000D03*
X149400000Y-107550000D03*
X149400000Y-107050000D03*
X149400000Y-106550000D03*
X149400000Y-106050000D03*
X149400000Y-105550000D03*
X149400000Y-105050000D03*
X149400000Y-104550000D03*
X149400000Y-104050000D03*
D24*
X139800000Y-98600000D03*
X144100000Y-98600000D03*
D15*
X156780000Y-124900000D03*
X158680000Y-124900000D03*
D25*
X161190000Y-100200000D03*
X161190000Y-100600000D03*
X161190000Y-101000000D03*
X161190000Y-101400000D03*
X161190000Y-101800000D03*
X161190000Y-102200000D03*
X161190000Y-102600000D03*
X161190000Y-103000000D03*
X161190000Y-103400000D03*
X161190000Y-103800000D03*
X161190000Y-107800000D03*
X161190000Y-107400000D03*
X161190000Y-107000000D03*
X161190000Y-106600000D03*
X161190000Y-106200000D03*
X161190000Y-105800000D03*
X161190000Y-105400000D03*
X161190000Y-105000000D03*
X161190000Y-104600000D03*
X161190000Y-104200000D03*
X161190000Y-108200000D03*
X161190000Y-108600000D03*
X161190000Y-109000000D03*
X161190000Y-109400000D03*
X161190000Y-109800000D03*
X161190000Y-110200000D03*
X161190000Y-110600000D03*
X161190000Y-111000000D03*
X161190000Y-111400000D03*
X161190000Y-111800000D03*
X161190000Y-115800000D03*
X161190000Y-115400000D03*
X161190000Y-115000000D03*
X161190000Y-114600000D03*
X161190000Y-114200000D03*
X161190000Y-113800000D03*
X161190000Y-113400000D03*
X161190000Y-113000000D03*
X161190000Y-112600000D03*
X161190000Y-112200000D03*
X158110000Y-112200000D03*
X158110000Y-112600000D03*
X158110000Y-113000000D03*
X158110000Y-113400000D03*
X158110000Y-113800000D03*
X158110000Y-114200000D03*
X158110000Y-114600000D03*
X158110000Y-115000000D03*
X158110000Y-115400000D03*
X158110000Y-115800000D03*
X158110000Y-111800000D03*
X158110000Y-111400000D03*
X158110000Y-111000000D03*
X158110000Y-110600000D03*
X158110000Y-110200000D03*
X158110000Y-109800000D03*
X158110000Y-109400000D03*
X158110000Y-109000000D03*
X158110000Y-108600000D03*
X158110000Y-108200000D03*
X158110000Y-104200000D03*
X158110000Y-104600000D03*
X158110000Y-105000000D03*
X158110000Y-105400000D03*
X158110000Y-105800000D03*
X158110000Y-106200000D03*
X158110000Y-106600000D03*
X158110000Y-107000000D03*
X158110000Y-107400000D03*
X158110000Y-107800000D03*
X158110000Y-103800000D03*
X158110000Y-103400000D03*
X158110000Y-103000000D03*
X158110000Y-102600000D03*
X158110000Y-102200000D03*
X158110000Y-101800000D03*
X158110000Y-101400000D03*
X158110000Y-101000000D03*
X158110000Y-100600000D03*
X158110000Y-100200000D03*
D21*
X147860000Y-124950000D03*
X150060000Y-124950000D03*
X154290000Y-124960000D03*
X152090000Y-124960000D03*
D26*
X156580000Y-94660000D03*
X157530000Y-94660000D03*
X158480000Y-94660000D03*
X158480000Y-92460000D03*
X156580000Y-92460000D03*
D27*
X132750000Y-119700000D03*
X163250000Y-119700000D03*
X163250000Y-95900000D03*
D28*
X146550000Y-97150000D03*
X146550000Y-98250000D03*
X137200000Y-99250000D03*
X137200000Y-98150000D03*
D29*
X159800000Y-96900000D03*
X155800000Y-96900000D03*
D30*
X131450000Y-108650000D03*
X144900000Y-92704672D03*
X150150000Y-91450000D03*
X156500000Y-91100000D03*
X155650000Y-91100000D03*
X155950000Y-121300000D03*
X147000000Y-123500000D03*
X131297963Y-101109677D03*
X136500000Y-100850000D03*
X134800000Y-99850000D03*
X131200000Y-103250000D03*
X137200000Y-100900000D03*
X148000000Y-116600000D03*
X132942400Y-117000000D03*
D31*
X155484831Y-105661094D03*
D30*
X145000000Y-103600000D03*
X146600000Y-104599956D03*
X154795302Y-91100000D03*
X147150000Y-110728480D03*
X146150000Y-92700000D03*
X138250000Y-97050000D03*
X148500000Y-121800000D03*
X145800000Y-106000000D03*
X157450000Y-93500000D03*
X153950000Y-93650000D03*
X159900000Y-124900000D03*
X138118860Y-100652772D03*
X136700000Y-105500000D03*
X131000000Y-96500000D03*
X133405953Y-101223562D03*
X138150000Y-97750000D03*
X131250000Y-113900000D03*
X131200000Y-107650000D03*
X134103781Y-97226350D03*
X146500000Y-116500000D03*
X151000000Y-104100000D03*
X156000058Y-104999926D03*
X156000057Y-104999927D03*
D31*
X162150000Y-109849998D03*
X162150000Y-106750000D03*
X162150000Y-107500006D03*
X162150000Y-108250000D03*
X162150004Y-109000000D03*
D30*
X132570122Y-101325370D03*
X161650000Y-97100000D03*
X142174351Y-99246033D03*
X141395866Y-96995884D03*
X157200000Y-107450000D03*
X156500000Y-107750000D03*
X157200000Y-108200000D03*
D31*
X157199998Y-109000000D03*
X157199998Y-109850000D03*
X156550004Y-108600000D03*
X156550000Y-109400000D03*
D30*
X144347689Y-108563319D03*
X144800000Y-107850000D03*
X142950000Y-96800000D03*
X137913185Y-113696704D03*
X137138634Y-114127893D03*
X136417894Y-113583603D03*
X135550000Y-114100000D03*
X162718203Y-99409070D03*
X143000000Y-116650000D03*
D31*
X163086722Y-100161927D03*
D30*
X142100000Y-116350000D03*
D31*
X163908480Y-100327191D03*
D30*
X141003006Y-116399407D03*
D31*
X163908480Y-101402757D03*
D30*
X140174437Y-116526186D03*
X155600000Y-124017076D03*
X154928555Y-120647684D03*
X154159917Y-120313327D03*
X154436257Y-123693957D03*
X153623999Y-120957834D03*
X153686037Y-123320099D03*
X152866253Y-123145303D03*
X152466973Y-120604681D03*
X140515673Y-100904688D03*
X158699998Y-98950000D03*
X141252762Y-100505566D03*
X157550000Y-99000000D03*
X156164716Y-110444858D03*
X162152957Y-110738207D03*
X155358534Y-109999543D03*
X162118150Y-111575696D03*
X155028501Y-110807125D03*
X162156514Y-112413029D03*
X154085953Y-113766036D03*
D31*
X155236520Y-113183346D03*
D30*
X154690742Y-114803827D03*
D31*
X155768513Y-114264986D03*
D30*
X153047701Y-106481914D03*
D31*
X155083600Y-115556054D03*
D30*
X153682687Y-105522576D03*
D31*
X155238794Y-116379773D03*
D30*
X152442830Y-111269513D03*
D31*
X156121678Y-116305139D03*
D30*
X151500000Y-110650000D03*
D31*
X156850162Y-116804780D03*
D30*
X138726019Y-115077767D03*
D31*
X157298385Y-116096476D03*
D30*
X139580652Y-115932401D03*
D31*
X158170500Y-116353781D03*
D30*
X137988623Y-108849879D03*
X141400000Y-113250000D03*
X133600000Y-103350000D03*
X151800000Y-113100000D03*
D31*
X154573456Y-112664263D03*
D30*
X143100000Y-113000000D03*
X152821279Y-110275352D03*
X154224771Y-111209680D03*
D31*
X155983285Y-112276038D03*
X155175337Y-111971893D03*
D30*
X143667109Y-114677791D03*
X151363221Y-112306208D03*
X143107184Y-114054025D03*
X150639823Y-111836527D03*
X144050000Y-110400000D03*
X145835271Y-103670153D03*
D31*
X155266806Y-102471889D03*
D30*
X142850000Y-111400000D03*
X144775386Y-105377364D03*
D31*
X155203574Y-103307713D03*
D30*
X157000000Y-106600000D03*
X152800000Y-108400000D03*
X147816870Y-109067998D03*
X147820284Y-108229793D03*
X151754125Y-106645875D03*
D31*
X154050000Y-99750000D03*
X155400000Y-99500000D03*
D30*
X151664487Y-105750346D03*
X152150000Y-101350000D03*
X148350000Y-102250000D03*
X139770341Y-105559659D03*
X132300000Y-103800000D03*
X132300000Y-106152400D03*
X134200000Y-100445302D03*
X132247558Y-106988970D03*
X140930582Y-103462331D03*
X159330000Y-123220000D03*
X151310000Y-123660000D03*
X155590000Y-120110000D03*
X152540000Y-116530000D03*
X148040000Y-114000000D03*
X148000000Y-107400121D03*
D32*
X144557101Y-93047571D02*
X144900000Y-92704672D01*
X144404672Y-93200000D02*
X144557101Y-93047571D01*
X143450000Y-93200000D02*
X144404672Y-93200000D01*
X150150000Y-91450000D02*
X149450000Y-91450000D01*
X149450000Y-91450000D02*
X149100000Y-91100000D01*
X151150000Y-91100000D02*
X150500000Y-91100000D01*
X150500000Y-91100000D02*
X150150000Y-91450000D01*
X155650000Y-91100000D02*
X156500000Y-91100000D01*
X154795302Y-91100000D02*
X155650000Y-91100000D01*
X155070000Y-92640000D02*
X155070000Y-91680000D01*
X155070000Y-91680000D02*
X155650000Y-91100000D01*
X156580000Y-92460000D02*
X156580000Y-91180000D01*
X156580000Y-91180000D02*
X156500000Y-91100000D01*
X156580000Y-92460000D02*
X156580000Y-92255000D01*
X156580000Y-92255000D02*
X155650000Y-91325000D01*
X155650000Y-91325000D02*
X155650000Y-91100000D01*
X155070000Y-92640000D02*
X156400000Y-92640000D01*
X156400000Y-92640000D02*
X156580000Y-92460000D01*
X154795302Y-91100000D02*
X154795302Y-92365302D01*
X154795302Y-92365302D02*
X155070000Y-92640000D01*
X147860000Y-124950000D02*
X147710000Y-124950000D01*
X147710000Y-124950000D02*
X147000000Y-124240000D01*
X147000000Y-124240000D02*
X147000000Y-123500000D01*
X156906916Y-105661094D02*
X156184730Y-105661094D01*
X157445822Y-106200000D02*
X156906916Y-105661094D01*
X158110000Y-106200000D02*
X157445822Y-106200000D01*
X131900000Y-100350000D02*
X131900000Y-100736482D01*
X131900000Y-100736482D02*
X131782881Y-100853601D01*
X131782881Y-100853601D02*
X131396399Y-100853601D01*
X131396399Y-100853601D02*
X131300000Y-100950000D01*
X131300000Y-100950000D02*
X131297963Y-101109677D01*
X131297963Y-101109677D02*
X131300000Y-102200000D01*
X131300000Y-102200000D02*
X131350000Y-102250000D01*
X153300000Y-91100000D02*
X152748820Y-91100000D01*
X152748820Y-91100000D02*
X151150000Y-91100000D01*
X136500000Y-100850000D02*
X137000000Y-101350000D01*
X137000000Y-101350000D02*
X137000000Y-102150000D01*
X136500000Y-100850000D02*
X137150000Y-100850000D01*
X137150000Y-100850000D02*
X137200000Y-100900000D01*
X134000000Y-99850000D02*
X134800000Y-99850000D01*
X131200000Y-104400000D02*
X131200000Y-103250000D01*
X131200000Y-103250000D02*
X131200000Y-102400000D01*
X131200000Y-102400000D02*
X131350000Y-102250000D01*
X133600000Y-105050000D02*
X132697600Y-105050000D01*
X132047600Y-104400000D02*
X131200000Y-104400000D01*
X132697600Y-105050000D02*
X132047600Y-104400000D01*
X137000000Y-102150000D02*
X137000000Y-101100000D01*
X137000000Y-101100000D02*
X137200000Y-100900000D01*
X137500000Y-102150000D02*
X137500000Y-101200000D01*
X137500000Y-101200000D02*
X137200000Y-100900000D01*
X148000000Y-116840000D02*
X148000000Y-116600000D01*
X147500000Y-117950000D02*
X147500000Y-117340000D01*
X147500000Y-117340000D02*
X148000000Y-116840000D01*
X157273744Y-105704811D02*
X156968933Y-105400000D01*
X155969764Y-105661094D02*
X155484831Y-105661094D01*
X156445824Y-105400000D02*
X156184730Y-105661094D01*
X156968933Y-105400000D02*
X156445824Y-105400000D01*
X156184730Y-105661094D02*
X155969764Y-105661094D01*
X158110000Y-105823800D02*
X157728933Y-105823800D01*
X157728933Y-105823800D02*
X157609944Y-105704811D01*
X157609944Y-105704811D02*
X157273744Y-105704811D01*
X145000000Y-102150000D02*
X145000000Y-103600000D01*
X146942899Y-104257057D02*
X146600000Y-104599956D01*
X147149956Y-104050000D02*
X146942899Y-104257057D01*
X149400000Y-104050000D02*
X147149956Y-104050000D01*
X153300000Y-91100000D02*
X154795302Y-91100000D01*
X153300000Y-91100000D02*
X153350000Y-91150000D01*
X131250000Y-117000000D02*
X132942400Y-117000000D01*
X132942400Y-117000000D02*
X133600000Y-116342400D01*
X133600000Y-116342400D02*
X133600000Y-116050000D01*
X158110000Y-106223800D02*
X158072517Y-106186317D01*
D33*
X155070000Y-94540000D02*
X155070000Y-96170000D01*
X155070000Y-96170000D02*
X155800000Y-96900000D01*
D32*
X155790000Y-94732600D02*
X155597400Y-94540000D01*
X155597400Y-94540000D02*
X155070000Y-94540000D01*
X138150000Y-97750000D02*
X137200000Y-97750000D01*
X137200000Y-97750000D02*
X137200000Y-97975000D01*
X157530000Y-94660000D02*
X157530000Y-93580000D01*
X157530000Y-93580000D02*
X157450000Y-93500000D01*
X155070000Y-94315000D02*
X154405000Y-93650000D01*
X154405000Y-93650000D02*
X153950000Y-93650000D01*
X157530000Y-94660000D02*
X157530000Y-93977600D01*
X157530000Y-93977600D02*
X157340000Y-93787600D01*
X157340000Y-93787600D02*
X155597400Y-93787600D01*
X155597400Y-93787600D02*
X155070000Y-94315000D01*
X155070000Y-94315000D02*
X155070000Y-94540000D01*
X158680000Y-124900000D02*
X159900000Y-124900000D01*
D33*
X161190000Y-107400000D02*
X162049994Y-107400000D01*
X162049994Y-107400000D02*
X162150000Y-107500006D01*
X161190000Y-107800000D02*
X161850006Y-107800000D01*
X161850006Y-107800000D02*
X162150000Y-107500006D01*
X161190000Y-108200000D02*
X162100000Y-108200000D01*
X162100000Y-108200000D02*
X162150000Y-108250000D01*
X161190000Y-108600000D02*
X161800000Y-108600000D01*
X161800000Y-108600000D02*
X162150000Y-108250000D01*
X161190000Y-109000000D02*
X162150004Y-109000000D01*
X161190000Y-109400000D02*
X161700002Y-109400000D01*
X161700002Y-109400000D02*
X162150000Y-109849998D01*
D32*
X138000000Y-102150000D02*
X138000000Y-100771632D01*
X138000000Y-100771632D02*
X138118860Y-100652772D01*
X133100000Y-100350000D02*
X133100000Y-100917609D01*
X133100000Y-100917609D02*
X133405953Y-101223562D01*
X133405953Y-101708495D02*
X133405953Y-101223562D01*
X133250000Y-102250000D02*
X133405953Y-102094047D01*
X133405953Y-102094047D02*
X133405953Y-101708495D01*
X133100000Y-96922600D02*
X133100000Y-97350000D01*
X134103781Y-97226350D02*
X133691864Y-96814433D01*
X133208167Y-96814433D02*
X133100000Y-96922600D01*
X133691864Y-96814433D02*
X133208167Y-96814433D01*
X131250000Y-115100000D02*
X131250000Y-113900000D01*
X131200000Y-106300000D02*
X131200000Y-107650000D01*
X134000000Y-97330131D02*
X134103781Y-97226350D01*
X134000000Y-97850000D02*
X134000000Y-97330131D01*
X134000000Y-97850000D02*
X133996399Y-97853601D01*
X147000000Y-117000000D02*
X146842899Y-116842899D01*
X147000000Y-117950000D02*
X147000000Y-117000000D01*
X146842899Y-116842899D02*
X146500000Y-116500000D01*
X149400000Y-104550000D02*
X150550000Y-104550000D01*
X150550000Y-104550000D02*
X151000000Y-104100000D01*
X158110000Y-105000000D02*
X157000000Y-105000000D01*
X157000000Y-105000000D02*
X156000132Y-105000000D01*
X157400000Y-105400000D02*
X157000000Y-105000000D01*
X158110000Y-105400000D02*
X157400000Y-105400000D01*
X156000132Y-105000000D02*
X156000058Y-104999926D01*
X162150000Y-107565067D02*
X162150000Y-109849998D01*
D34*
X161190000Y-106600000D02*
X162000000Y-106600000D01*
X162000000Y-106600000D02*
X162150000Y-106750000D01*
X161190000Y-107000000D02*
X161649994Y-107000000D01*
X161649994Y-107000000D02*
X162150000Y-107500006D01*
X161190000Y-107000000D02*
X161900000Y-107000000D01*
X161900000Y-107000000D02*
X162150000Y-106750000D01*
D32*
X162150000Y-106783800D02*
X162150000Y-107765067D01*
X162150000Y-107765067D02*
X162150000Y-108250000D01*
X162150004Y-108515067D02*
X162150004Y-109000000D01*
X162150004Y-107583804D02*
X162150004Y-108515067D01*
X131250000Y-115100000D02*
X131777400Y-115100000D01*
X131777400Y-115100000D02*
X132227400Y-115550000D01*
X132227400Y-115550000D02*
X132697600Y-115550000D01*
X132697600Y-115550000D02*
X133600000Y-115550000D01*
X146550000Y-98250000D02*
X144450000Y-98250000D01*
X144450000Y-98250000D02*
X144100000Y-98600000D01*
X144100000Y-98950000D02*
X142000000Y-101050000D01*
X144100000Y-98600000D02*
X144100000Y-98950000D01*
X142000000Y-101050000D02*
X142000000Y-101247600D01*
X142000000Y-101247600D02*
X142000000Y-102150000D01*
X144150000Y-98650000D02*
X144100000Y-98600000D01*
X141824264Y-100779888D02*
X141824264Y-100231244D01*
X141500000Y-102150000D02*
X141500000Y-101104152D01*
X141824264Y-100231244D02*
X140193020Y-98600000D01*
X141500000Y-101104152D02*
X141824264Y-100779888D01*
X140193020Y-98600000D02*
X139800000Y-98600000D01*
X137200000Y-99250000D02*
X139150000Y-99250000D01*
X139150000Y-99250000D02*
X139800000Y-98600000D01*
X132700000Y-100350000D02*
X132700000Y-101195492D01*
X132700000Y-101195492D02*
X132570122Y-101325370D01*
D33*
X161650000Y-97100000D02*
X160000000Y-97100000D01*
X160000000Y-97100000D02*
X159800000Y-96900000D01*
X156580000Y-94660000D02*
X156580000Y-95444000D01*
X156580000Y-95444000D02*
X158036000Y-96900000D01*
X158036000Y-96900000D02*
X158546000Y-96900000D01*
X158546000Y-96900000D02*
X159800000Y-96900000D01*
X158480000Y-94660000D02*
X158480000Y-95780000D01*
X158480000Y-95780000D02*
X159600000Y-96900000D01*
X159600000Y-96900000D02*
X159800000Y-96900000D01*
D32*
X156600000Y-95000000D02*
X156375000Y-95000000D01*
X153350000Y-92648600D02*
X153350000Y-95700000D01*
X153350000Y-95700000D02*
X153450000Y-95800000D01*
X151150000Y-92598600D02*
X151150000Y-95700000D01*
X151150000Y-95700000D02*
X151250000Y-95800000D01*
X149100000Y-92598600D02*
X149100000Y-95750000D01*
X149100000Y-95750000D02*
X149050000Y-95800000D01*
D33*
X141395866Y-98467548D02*
X141831452Y-98903134D01*
X141831452Y-98903134D02*
X142174351Y-99246033D01*
X141395866Y-96995884D02*
X141395866Y-98467548D01*
X157200000Y-108200000D02*
X156950000Y-108200000D01*
X156950000Y-108200000D02*
X156500000Y-107750000D01*
X157199998Y-109000000D02*
X157199998Y-108200002D01*
X157199998Y-108200002D02*
X157200000Y-108200000D01*
X156550000Y-109400000D02*
X156749998Y-109400000D01*
X156749998Y-109400000D02*
X157199998Y-109850000D01*
X156550004Y-108600000D02*
X156550004Y-109399996D01*
X156550004Y-109399996D02*
X156550000Y-109400000D01*
X156500000Y-107750000D02*
X156500000Y-108549996D01*
X156500000Y-108549996D02*
X156550004Y-108600000D01*
X157200000Y-107450000D02*
X156800000Y-107450000D01*
X156800000Y-107450000D02*
X156500000Y-107750000D01*
D32*
X157199998Y-109000000D02*
X156950000Y-109000000D01*
X156950000Y-109000000D02*
X156550000Y-109400000D01*
X157200000Y-108200000D02*
X157710000Y-108200000D01*
X157710000Y-108200000D02*
X158110000Y-107800000D01*
X158110000Y-107800000D02*
X157550000Y-107800000D01*
X157550000Y-107800000D02*
X157200000Y-107450000D01*
X157200000Y-107450000D02*
X158060000Y-107450000D01*
X158060000Y-107450000D02*
X158110000Y-107400000D01*
X158110000Y-107423800D02*
X157833800Y-107700000D01*
X157684931Y-109000000D02*
X157199998Y-109000000D01*
X158110000Y-108576200D02*
X157686200Y-109000000D01*
X157686200Y-109000000D02*
X157684931Y-109000000D01*
X157542897Y-109507101D02*
X157199998Y-109850000D01*
X157673798Y-109376200D02*
X157542897Y-109507101D01*
X158110000Y-109376200D02*
X157673798Y-109376200D01*
X157034937Y-108600000D02*
X156550004Y-108600000D01*
X157686200Y-108600000D02*
X157034937Y-108600000D01*
X158110000Y-108176200D02*
X157686200Y-108600000D01*
X157034933Y-109400000D02*
X156550000Y-109400000D01*
X157686200Y-109400000D02*
X157034933Y-109400000D01*
X158110000Y-108976200D02*
X157686200Y-109400000D01*
X145000000Y-109215630D02*
X144690588Y-108906218D01*
X145000000Y-117950000D02*
X145000000Y-109215630D01*
X144690588Y-108906218D02*
X144347689Y-108563319D01*
X145142899Y-108192899D02*
X144800000Y-107850000D01*
X145500000Y-108550000D02*
X145142899Y-108192899D01*
X145500000Y-117950000D02*
X145500000Y-108550000D01*
X141250000Y-93200000D02*
X141250000Y-95100000D01*
X141250000Y-95100000D02*
X142950000Y-96800000D01*
X135266481Y-111050000D02*
X137570286Y-113353805D01*
X137570286Y-113353805D02*
X137913185Y-113696704D01*
X133600000Y-111050000D02*
X135266481Y-111050000D01*
X133600000Y-112050000D02*
X135745824Y-112050000D01*
X137138634Y-113442810D02*
X137138634Y-113642960D01*
X137138634Y-113642960D02*
X137138634Y-114127893D01*
X135745824Y-112050000D02*
X137138634Y-113442810D01*
X136074995Y-113240704D02*
X136417894Y-113583603D01*
X135884291Y-113050000D02*
X136074995Y-113240704D01*
X133600000Y-113050000D02*
X135884291Y-113050000D01*
X135000000Y-113550000D02*
X135207101Y-113757101D01*
X133600000Y-113550000D02*
X135000000Y-113550000D01*
X135207101Y-113757101D02*
X135550000Y-114100000D01*
X161927273Y-100200000D02*
X162375304Y-99751969D01*
X162375304Y-99751969D02*
X162718203Y-99409070D01*
X161190000Y-100200000D02*
X161927273Y-100200000D01*
X143000000Y-117950000D02*
X143000000Y-116650000D01*
X162624849Y-100623800D02*
X162743823Y-100504826D01*
X161190000Y-100623800D02*
X162624849Y-100623800D01*
X162743823Y-100504826D02*
X163086722Y-100161927D01*
X142100000Y-116647600D02*
X142100000Y-116350000D01*
X142500000Y-117950000D02*
X142500000Y-117047600D01*
X142500000Y-117047600D02*
X142100000Y-116647600D01*
X163211871Y-101023800D02*
X163565581Y-100670090D01*
X161190000Y-101023800D02*
X163211871Y-101023800D01*
X163565581Y-100670090D02*
X163908480Y-100327191D01*
X142000000Y-117145824D02*
X141253583Y-116399407D01*
X141253583Y-116399407D02*
X141003006Y-116399407D01*
X142000000Y-117950000D02*
X142000000Y-117145824D01*
X161211043Y-101402757D02*
X163423547Y-101402757D01*
X161190000Y-101423800D02*
X161211043Y-101402757D01*
X163423547Y-101402757D02*
X163908480Y-101402757D01*
X141500000Y-117176891D02*
X141294509Y-116971399D01*
X141500000Y-117950000D02*
X141500000Y-117176891D01*
X140619650Y-116971399D02*
X140517336Y-116869085D01*
X140517336Y-116869085D02*
X140174437Y-116526186D01*
X141294509Y-116971399D02*
X140619650Y-116971399D01*
X162600003Y-101800000D02*
X164350000Y-103549997D01*
X164350000Y-103549997D02*
X164350000Y-116432224D01*
X156084933Y-124017076D02*
X155600000Y-124017076D01*
X161190000Y-101800000D02*
X162600003Y-101800000D01*
X156765148Y-124017076D02*
X156084933Y-124017076D01*
X164350000Y-116432224D02*
X156765148Y-124017076D01*
X154928555Y-120162751D02*
X154928555Y-120647684D01*
X153765804Y-119000000D02*
X154928555Y-120162751D01*
X141248518Y-119000000D02*
X153765804Y-119000000D01*
X141000000Y-118751482D02*
X141248518Y-119000000D01*
X141000000Y-117950000D02*
X141000000Y-118751482D01*
X164045189Y-116305968D02*
X156905601Y-123445556D01*
X164045189Y-103676253D02*
X164045189Y-116305968D01*
X162568936Y-102200000D02*
X164045189Y-103676253D01*
X156905601Y-123445556D02*
X155169591Y-123445556D01*
X154921190Y-123693957D02*
X154436257Y-123693957D01*
X155169591Y-123445556D02*
X154921190Y-123693957D01*
X161190000Y-102200000D02*
X162568936Y-102200000D01*
X140500000Y-118682549D02*
X141122262Y-119304811D01*
X141122262Y-119304811D02*
X153151401Y-119304811D01*
X140500000Y-117950000D02*
X140500000Y-118682549D01*
X153817018Y-119970428D02*
X154159917Y-120313327D01*
X153151401Y-119304811D02*
X153817018Y-119970428D01*
X155170655Y-123090745D02*
X153915391Y-123090745D01*
X162430880Y-102600000D02*
X163735935Y-103905055D01*
X153915391Y-123090745D02*
X153686037Y-123320099D01*
X163735935Y-103905055D02*
X163735935Y-116184155D01*
X156779345Y-123140745D02*
X155220655Y-123140745D01*
X161190000Y-102600000D02*
X162430880Y-102600000D01*
X155220655Y-123140745D02*
X155170655Y-123090745D01*
X163735935Y-116184155D02*
X156779345Y-123140745D01*
X140927073Y-119609622D02*
X152280322Y-119609622D01*
X152280322Y-119609622D02*
X153281100Y-120610400D01*
X153281100Y-120614935D02*
X153623999Y-120957834D01*
X153281100Y-120610400D02*
X153281100Y-120614935D01*
X140000000Y-118682549D02*
X140927073Y-119609622D01*
X155259575Y-122748598D02*
X153262958Y-122748598D01*
X163431124Y-116057899D02*
X156653089Y-122835934D01*
X155346911Y-122835934D02*
X155259575Y-122748598D01*
X153209152Y-122802404D02*
X152866253Y-123145303D01*
X163431124Y-104063271D02*
X163431124Y-116057899D01*
X153262958Y-122748598D02*
X153209152Y-122802404D01*
X161190000Y-103023800D02*
X162391653Y-103023800D01*
X162391653Y-103023800D02*
X163431124Y-104063271D01*
X156653089Y-122835934D02*
X155346911Y-122835934D01*
X139500000Y-117950000D02*
X139500000Y-118852400D01*
X152124074Y-120261782D02*
X152466973Y-120604681D01*
X151776725Y-119914433D02*
X152124074Y-120261782D01*
X140800817Y-119914433D02*
X151776725Y-119914433D01*
X140153696Y-119267312D02*
X140800817Y-119914433D01*
X139914912Y-119267312D02*
X140153696Y-119267312D01*
X139500000Y-118852400D02*
X139914912Y-119267312D01*
X140000000Y-102150000D02*
X140000000Y-101247600D01*
X140000000Y-101247600D02*
X140342912Y-100904688D01*
X140342912Y-100904688D02*
X140515673Y-100904688D01*
X161190000Y-103400000D02*
X160200000Y-103400000D01*
X160200000Y-103400000D02*
X159909622Y-103109622D01*
X159909622Y-103109622D02*
X159909622Y-100159624D01*
X159909622Y-100159624D02*
X159042897Y-99292899D01*
X159042897Y-99292899D02*
X158699998Y-98950000D01*
X140909863Y-100162667D02*
X141252762Y-100505566D01*
X140209738Y-100162667D02*
X140909863Y-100162667D01*
X139500000Y-102150000D02*
X139500000Y-100872405D01*
X139500000Y-100872405D02*
X140209738Y-100162667D01*
X158556434Y-99521501D02*
X158071501Y-99521501D01*
X157892899Y-99342899D02*
X157550000Y-99000000D01*
X159604811Y-103285878D02*
X159604811Y-100569878D01*
X159604811Y-100569878D02*
X158556434Y-99521501D01*
X160118933Y-103800000D02*
X159604811Y-103285878D01*
X161190000Y-103800000D02*
X160118933Y-103800000D01*
X158071501Y-99521501D02*
X157892899Y-99342899D01*
X160940000Y-115800000D02*
X161190000Y-115800000D01*
X156011501Y-120728499D02*
X160940000Y-115800000D01*
X140067001Y-119611683D02*
X140674562Y-120219244D01*
X155675679Y-120728499D02*
X156011501Y-120728499D01*
X151223422Y-120219244D02*
X152533532Y-121529354D01*
X140674562Y-120219244D02*
X151223422Y-120219244D01*
X137759283Y-119611683D02*
X140067001Y-119611683D01*
X137000000Y-117950000D02*
X137000000Y-118852400D01*
X137000000Y-118852400D02*
X137759283Y-119611683D01*
X152533532Y-121529354D02*
X154874824Y-121529354D01*
X154874824Y-121529354D02*
X155675679Y-120728499D01*
X139940745Y-119916494D02*
X140548306Y-120524055D01*
X155638343Y-121834165D02*
X155725679Y-121921501D01*
X161768601Y-116427221D02*
X161768601Y-115604801D01*
X136500000Y-117950000D02*
X136500000Y-118852400D01*
X161540000Y-115376200D02*
X161190000Y-115376200D01*
X152407276Y-121834165D02*
X155638343Y-121834165D01*
X155725679Y-121921501D02*
X156274321Y-121921501D01*
X161768601Y-115604801D02*
X161540000Y-115376200D01*
X151097166Y-120524055D02*
X152407276Y-121834165D01*
X156274321Y-121921501D02*
X161768601Y-116427221D01*
X140548306Y-120524055D02*
X151097166Y-120524055D01*
X136500000Y-118852400D02*
X137564094Y-119916494D01*
X137564094Y-119916494D02*
X139940745Y-119916494D01*
X161707774Y-114976200D02*
X161190000Y-114976200D01*
X136000000Y-117950000D02*
X136000000Y-118852400D01*
X150970910Y-120828866D02*
X152281020Y-122138976D01*
X140422050Y-120828866D02*
X150970910Y-120828866D01*
X136000000Y-118852400D02*
X137368905Y-120221305D01*
X137368905Y-120221305D02*
X139814489Y-120221305D01*
X139814489Y-120221305D02*
X140422050Y-120828866D01*
X152281020Y-122138976D02*
X155512087Y-122138976D01*
X155512087Y-122138976D02*
X155599423Y-122226312D01*
X156400577Y-122226312D02*
X162073412Y-116553477D01*
X162073412Y-115341838D02*
X161707774Y-114976200D01*
X155599423Y-122226312D02*
X156400577Y-122226312D01*
X162073412Y-116553477D02*
X162073412Y-115341838D01*
X137200690Y-120553090D02*
X139715206Y-120553090D01*
X162378223Y-115215582D02*
X161738841Y-114576200D01*
X140295794Y-121133677D02*
X148778072Y-121133677D01*
X161738841Y-114576200D02*
X161190000Y-114576200D01*
X150088182Y-122443787D02*
X155385831Y-122443787D01*
X139715206Y-120553090D02*
X140295794Y-121133677D01*
X135500000Y-117950000D02*
X135500000Y-118852400D01*
X135500000Y-118852400D02*
X137200690Y-120553090D01*
X148778072Y-121133677D02*
X150088182Y-122443787D01*
X155473167Y-122531123D02*
X156526833Y-122531123D01*
X156526833Y-122531123D02*
X162378223Y-116679733D01*
X162378223Y-116679733D02*
X162378223Y-115215582D01*
X155385831Y-122443787D02*
X155473167Y-122531123D01*
X152104176Y-108550000D02*
X152525678Y-108971502D01*
X156164716Y-109959925D02*
X156164716Y-110444858D01*
X155929114Y-109724323D02*
X156164716Y-109959925D01*
X155928498Y-109724323D02*
X155929114Y-109724323D01*
X155175677Y-108971502D02*
X155928498Y-109724323D01*
X152525678Y-108971502D02*
X155175677Y-108971502D01*
X149400000Y-108550000D02*
X152104176Y-108550000D01*
X163126313Y-112787302D02*
X163126313Y-111849422D01*
X162495856Y-111081106D02*
X162152957Y-110738207D01*
X162697618Y-111282868D02*
X162495856Y-111081106D01*
X163126313Y-111849422D02*
X162697618Y-111420727D01*
X161190000Y-114200000D02*
X161713615Y-114200000D01*
X161713615Y-114200000D02*
X163126313Y-112787302D01*
X162697618Y-111420727D02*
X162697618Y-111282868D01*
X155015635Y-109656644D02*
X155358534Y-109999543D01*
X154635304Y-109276313D02*
X155015635Y-109656644D01*
X152399422Y-109276313D02*
X154635304Y-109276313D01*
X149400000Y-109050000D02*
X152173109Y-109050000D01*
X152173109Y-109050000D02*
X152399422Y-109276313D01*
X161190000Y-113776200D02*
X161706349Y-113776200D01*
X162821502Y-112123459D02*
X162616638Y-111918595D01*
X161706349Y-113776200D02*
X162821502Y-112661047D01*
X162461049Y-111918595D02*
X162118150Y-111575696D01*
X162616638Y-111918595D02*
X162461049Y-111918595D01*
X162821502Y-112661047D02*
X162821502Y-112123459D01*
X154685602Y-110464226D02*
X155028501Y-110807125D01*
X152273166Y-109581124D02*
X153802500Y-109581124D01*
X153802500Y-109581124D02*
X154685602Y-110464226D01*
X149400000Y-109550000D02*
X152242042Y-109550000D01*
X152242042Y-109550000D02*
X152273166Y-109581124D01*
X161602477Y-113400000D02*
X161813615Y-113188862D01*
X161813615Y-112755928D02*
X162156514Y-112413029D01*
X161190000Y-113400000D02*
X161602477Y-113400000D01*
X161813615Y-113188862D02*
X161813615Y-112755928D01*
X159700000Y-115632531D02*
X159700000Y-113987600D01*
X153563198Y-115550000D02*
X155389480Y-117376282D01*
X149400000Y-115550000D02*
X153563198Y-115550000D01*
X159700000Y-113987600D02*
X160687600Y-113000000D01*
X155389480Y-117376282D02*
X157956249Y-117376282D01*
X160687600Y-113000000D02*
X161190000Y-113000000D01*
X157956249Y-117376282D02*
X159700000Y-115632531D01*
X149400000Y-114050000D02*
X153801989Y-114050000D01*
X153801989Y-114050000D02*
X154085953Y-113766036D01*
X156156017Y-113388673D02*
X155441847Y-113388673D01*
X158110000Y-112176200D02*
X157368490Y-112176200D01*
X155441847Y-113388673D02*
X155236520Y-113183346D01*
X157368490Y-112176200D02*
X156156017Y-113388673D01*
X151423902Y-113671502D02*
X150302400Y-112550000D01*
X152551289Y-113194535D02*
X152074322Y-113671502D01*
X154360274Y-113194535D02*
X152551289Y-113194535D01*
X157403398Y-112576200D02*
X156286114Y-113693484D01*
X150302400Y-112550000D02*
X149400000Y-112550000D01*
X158110000Y-112576200D02*
X157403398Y-112576200D01*
X155494191Y-113693484D02*
X155293580Y-113894095D01*
X155293580Y-113894095D02*
X155059834Y-113894095D01*
X155059834Y-113894095D02*
X154360274Y-113194535D01*
X152074322Y-113671502D02*
X151423902Y-113671502D01*
X156286114Y-113693484D02*
X155494191Y-113693484D01*
X149400000Y-115050000D02*
X154444569Y-115050000D01*
X154444569Y-115050000D02*
X154690742Y-114803827D01*
X156145680Y-114264986D02*
X155768513Y-114264986D01*
X157434466Y-112976200D02*
X156145680Y-114264986D01*
X158110000Y-112976200D02*
X157434466Y-112976200D01*
X150302400Y-114550000D02*
X149400000Y-114550000D01*
X154054177Y-114550000D02*
X150302400Y-114550000D01*
X154495245Y-114202566D02*
X154360274Y-114337537D01*
X154266640Y-114337537D02*
X154054177Y-114550000D01*
X154950254Y-114202566D02*
X154495245Y-114202566D01*
X155247434Y-114674553D02*
X155247434Y-114499746D01*
X155799307Y-115042427D02*
X155615308Y-115042427D01*
X158110000Y-113376200D02*
X157465534Y-113376200D01*
X155615308Y-115042427D02*
X155247434Y-114674553D01*
X154360274Y-114337537D02*
X154266640Y-114337537D01*
X157465534Y-113376200D02*
X155799307Y-115042427D01*
X155247434Y-114499746D02*
X154950254Y-114202566D01*
X151019011Y-105550000D02*
X151390166Y-105178845D01*
X149400000Y-105550000D02*
X151019011Y-105550000D01*
X152229565Y-105178845D02*
X153047701Y-105996981D01*
X153047701Y-105996981D02*
X153047701Y-106481914D01*
X151390166Y-105178845D02*
X152229565Y-105178845D01*
X155568533Y-115556054D02*
X155083600Y-115556054D01*
X155692818Y-115431769D02*
X155568533Y-115556054D01*
X155811863Y-115431769D02*
X155692818Y-115431769D01*
X156006107Y-115266694D02*
X155811863Y-115431769D01*
X157496601Y-113776200D02*
X156006107Y-115266694D01*
X158110000Y-113776200D02*
X157496601Y-113776200D01*
X151263910Y-104874034D02*
X153034145Y-104874034D01*
X153339788Y-105179677D02*
X153682687Y-105522576D01*
X153034145Y-104874034D02*
X153339788Y-105179677D01*
X149400000Y-105050000D02*
X151087944Y-105050000D01*
X151087944Y-105050000D02*
X151263910Y-104874034D01*
X155581693Y-116036874D02*
X155238794Y-116379773D01*
X155881987Y-115736580D02*
X155581693Y-116036874D01*
X155923887Y-115736580D02*
X155881987Y-115736580D01*
X158110000Y-114176200D02*
X157527667Y-114176200D01*
X156212897Y-115490970D02*
X155923887Y-115736580D01*
X157527667Y-114176200D02*
X156212897Y-115490970D01*
X149400000Y-111050000D02*
X151054176Y-111050000D01*
X151273689Y-111269513D02*
X151957897Y-111269513D01*
X151054176Y-111050000D02*
X151273689Y-111269513D01*
X151957897Y-111269513D02*
X152442830Y-111269513D01*
X157558734Y-114576200D02*
X156121678Y-116013256D01*
X158110000Y-114576200D02*
X157558734Y-114576200D01*
X156121678Y-116013256D02*
X156121678Y-116305139D01*
X151400000Y-110550000D02*
X151500000Y-110650000D01*
X149400000Y-110550000D02*
X151400000Y-110550000D01*
X158110000Y-114976200D02*
X157589801Y-114976200D01*
X156693198Y-115872803D02*
X156693198Y-116647816D01*
X156693198Y-116647816D02*
X156850162Y-116804780D01*
X157589801Y-114976200D02*
X156693198Y-115872803D01*
X137500000Y-116303786D02*
X138383120Y-115420666D01*
X137500000Y-117950000D02*
X137500000Y-116303786D01*
X138383120Y-115420666D02*
X138726019Y-115077767D01*
X158110000Y-115376200D02*
X157760000Y-115376200D01*
X157760000Y-115376200D02*
X157298385Y-115837815D01*
X157298385Y-115837815D02*
X157298385Y-116096476D01*
X139115199Y-115932401D02*
X139580652Y-115932401D01*
X138000000Y-117950000D02*
X138000000Y-117047600D01*
X138000000Y-117047600D02*
X139115199Y-115932401D01*
X158255301Y-115800000D02*
X158239348Y-115800000D01*
X158170500Y-115868848D02*
X158170500Y-116353781D01*
X158239348Y-115800000D02*
X158170500Y-115868848D01*
X137988623Y-109334812D02*
X137988623Y-108849879D01*
X137988623Y-109838623D02*
X137988623Y-109334812D01*
X141400000Y-113250000D02*
X137988623Y-109838623D01*
X133600000Y-104050000D02*
X133600000Y-103350000D01*
X152235737Y-112664263D02*
X151800000Y-113100000D01*
X154573456Y-112664263D02*
X152235737Y-112664263D01*
X155808022Y-112909025D02*
X155510842Y-112611845D01*
X158110000Y-111776200D02*
X157321518Y-111776200D01*
X156188693Y-112909025D02*
X155808022Y-112909025D01*
X154625874Y-112611845D02*
X154573456Y-112664263D01*
X157321518Y-111776200D02*
X156188693Y-112909025D01*
X155510842Y-112611845D02*
X154625874Y-112611845D01*
X142228498Y-112128498D02*
X142757101Y-112657101D01*
X135500000Y-102150000D02*
X135500000Y-103200000D01*
X135500000Y-103200000D02*
X142228498Y-109928498D01*
X142228498Y-109928498D02*
X142228498Y-112128498D01*
X142757101Y-112657101D02*
X143100000Y-113000000D01*
X156384392Y-111933139D02*
X156326184Y-111933139D01*
X156326184Y-111933139D02*
X155983285Y-112276038D01*
X156941331Y-111376200D02*
X156384392Y-111933139D01*
X158110000Y-111376200D02*
X156941331Y-111376200D01*
X152821279Y-110275352D02*
X153755607Y-111209680D01*
X153755607Y-111209680D02*
X154224771Y-111209680D01*
X136150577Y-115126312D02*
X136226889Y-115050000D01*
X134578712Y-115126312D02*
X136150577Y-115126312D01*
X134502400Y-115050000D02*
X134578712Y-115126312D01*
X133600000Y-115050000D02*
X134502400Y-115050000D01*
X139151865Y-114677791D02*
X143182176Y-114677791D01*
X138980339Y-114506265D02*
X139151865Y-114677791D01*
X143182176Y-114677791D02*
X143667109Y-114677791D01*
X137907962Y-115050000D02*
X138451697Y-114506265D01*
X138451697Y-114506265D02*
X138980339Y-114506265D01*
X136226889Y-115050000D02*
X137907962Y-115050000D01*
X156565294Y-111321171D02*
X155826059Y-111321171D01*
X156910151Y-110976314D02*
X156565294Y-111321171D01*
X155826059Y-111321171D02*
X155518236Y-111628994D01*
X158110000Y-110976200D02*
X158109886Y-110976314D01*
X158109886Y-110976314D02*
X156910151Y-110976314D01*
X155061237Y-112085993D02*
X155175337Y-111971893D01*
X155518236Y-111628994D02*
X155175337Y-111971893D01*
X153824193Y-112085993D02*
X155061237Y-112085993D01*
X153603978Y-112306208D02*
X153824193Y-112085993D01*
X151363221Y-112306208D02*
X153603978Y-112306208D01*
X142622251Y-114054025D02*
X143107184Y-114054025D01*
X138472870Y-114054025D02*
X142622251Y-114054025D01*
X135004176Y-114550000D02*
X135275677Y-114821501D01*
X136024321Y-114821501D02*
X136146427Y-114699395D01*
X135275677Y-114821501D02*
X136024321Y-114821501D01*
X136146427Y-114699395D02*
X137827500Y-114699395D01*
X133600000Y-114550000D02*
X135004176Y-114550000D01*
X137827500Y-114699395D02*
X138472870Y-114054025D01*
X151637543Y-111734706D02*
X150741644Y-111734706D01*
X155672356Y-111016360D02*
X155310072Y-111378644D01*
X154901631Y-111378644D02*
X154499093Y-111781182D01*
X157474323Y-110671503D02*
X156783895Y-110671503D01*
X156439038Y-111016360D02*
X155672356Y-111016360D01*
X156783895Y-110671503D02*
X156439038Y-111016360D01*
X152776984Y-111781182D02*
X152556769Y-112001397D01*
X157569626Y-110576200D02*
X157474323Y-110671503D01*
X158110000Y-110576200D02*
X157569626Y-110576200D01*
X152556769Y-112001397D02*
X151904234Y-112001397D01*
X155310072Y-111378644D02*
X154901631Y-111378644D01*
X151904234Y-112001397D02*
X151637543Y-111734706D01*
X154499093Y-111781182D02*
X152776984Y-111781182D01*
X150741644Y-111734706D02*
X150639823Y-111836527D01*
X159300000Y-102087600D02*
X159300000Y-103581066D01*
X159650000Y-103931066D02*
X159650000Y-110150000D01*
X159650000Y-110150000D02*
X159200000Y-110600000D01*
X158110000Y-101400000D02*
X158612400Y-101400000D01*
X158612400Y-101400000D02*
X159300000Y-102087600D01*
X159300000Y-103581066D02*
X159650000Y-103931066D01*
X159200000Y-110600000D02*
X158612400Y-110600000D01*
X158612400Y-110600000D02*
X158110000Y-110600000D01*
X144543421Y-110500000D02*
X144543421Y-109613721D01*
X144543421Y-110500000D02*
X144150000Y-110500000D01*
X144150000Y-110500000D02*
X144050000Y-110400000D01*
X144543421Y-117004179D02*
X144543421Y-110500000D01*
X143926312Y-108996612D02*
X143926312Y-108949423D01*
X143771571Y-108794682D02*
X143771571Y-107341020D01*
X144543421Y-109613721D02*
X143926312Y-108996612D01*
X145492372Y-105461806D02*
X145492372Y-104013052D01*
X143771571Y-107341020D02*
X145228499Y-105884092D01*
X144500000Y-117047600D02*
X144543421Y-117004179D01*
X145228499Y-105884092D02*
X145228499Y-105725679D01*
X144500000Y-117950000D02*
X144500000Y-117047600D01*
X143926312Y-108949423D02*
X143771571Y-108794682D01*
X145492372Y-104013052D02*
X145835271Y-103670153D01*
X145228499Y-105725679D02*
X145492372Y-105461806D01*
X158110000Y-104223800D02*
X157018717Y-104223800D01*
X155609705Y-102814788D02*
X155266806Y-102471889D01*
X157018717Y-104223800D02*
X155609705Y-102814788D01*
X143466760Y-111400000D02*
X143466760Y-106685990D01*
X143466760Y-111555340D02*
X143466760Y-111400000D01*
X143466760Y-111400000D02*
X142850000Y-111400000D01*
X144432487Y-105720263D02*
X144775386Y-105377364D01*
X143466760Y-106685990D02*
X144432487Y-105720263D01*
X144028621Y-112117201D02*
X143466760Y-111555340D01*
X144028621Y-114193481D02*
X144028621Y-112117201D01*
X144000000Y-117950000D02*
X144000000Y-115191034D01*
X144238610Y-114403470D02*
X144028621Y-114193481D01*
X144238610Y-114952424D02*
X144238610Y-114403470D01*
X144000000Y-115191034D02*
X144238610Y-114952424D01*
X158076578Y-104590378D02*
X156486239Y-104590378D01*
X155546473Y-103650612D02*
X155203574Y-103307713D01*
X158110000Y-104623800D02*
X158076578Y-104590378D01*
X156486239Y-104590378D02*
X155546473Y-103650612D01*
X156921501Y-106878499D02*
X156800000Y-107000000D01*
X157474321Y-106878499D02*
X156921501Y-106878499D01*
X157595822Y-107000000D02*
X157474321Y-106878499D01*
X158110000Y-107000000D02*
X157595822Y-107000000D01*
X156800000Y-107000000D02*
X154200000Y-107000000D01*
X157000000Y-106600000D02*
X156800000Y-106800000D01*
X156800000Y-106800000D02*
X156800000Y-107000000D01*
X154200000Y-107000000D02*
X152800000Y-108400000D01*
X158110000Y-107023800D02*
X158109993Y-107023793D01*
X148598518Y-108050000D02*
X148421399Y-108227119D01*
X148421399Y-108463469D02*
X148159769Y-108725099D01*
X149400000Y-108050000D02*
X148598518Y-108050000D01*
X148159769Y-108725099D02*
X147816870Y-109067998D01*
X148421399Y-108227119D02*
X148421399Y-108463469D01*
X154563819Y-106205114D02*
X154563819Y-105120167D01*
X152940435Y-107828498D02*
X154563819Y-106205114D01*
X152304176Y-108050000D02*
X152525678Y-107828498D01*
X154515062Y-105071410D02*
X154515062Y-102283144D01*
X154515062Y-102283144D02*
X154897837Y-101900369D01*
X154897837Y-101900369D02*
X155530394Y-101900369D01*
X149400000Y-108050000D02*
X152304176Y-108050000D01*
X157453825Y-103823800D02*
X158110000Y-103823800D01*
X154563819Y-105120167D02*
X154515062Y-105071410D01*
X155530394Y-101900369D02*
X157453825Y-103823800D01*
X152525678Y-107828498D02*
X152940435Y-107828498D01*
X147984101Y-108229793D02*
X147820284Y-108229793D01*
X149400000Y-107550000D02*
X148663894Y-107550000D01*
X148663894Y-107550000D02*
X147984101Y-108229793D01*
X154724534Y-101595558D02*
X155714234Y-101595558D01*
X152373109Y-107550000D02*
X152399422Y-107523687D01*
X156890089Y-102814601D02*
X157499288Y-103423800D01*
X152814179Y-107523687D02*
X154259008Y-106078858D01*
X154210251Y-105197666D02*
X154210251Y-102109841D01*
X154210251Y-102109841D02*
X154724534Y-101595558D01*
X156674158Y-102555482D02*
X156890089Y-102814601D01*
X157499288Y-103423800D02*
X158110000Y-103423800D01*
X155714234Y-101595558D02*
X156674158Y-102555482D01*
X152399422Y-107523687D02*
X152814179Y-107523687D01*
X154259008Y-106078858D02*
X154259008Y-105246423D01*
X149400000Y-107550000D02*
X152373109Y-107550000D01*
X154259008Y-105246423D02*
X154210251Y-105197666D01*
X149931759Y-102985935D02*
X148624322Y-101678498D01*
X157544750Y-103023800D02*
X157043425Y-102522475D01*
X148624322Y-101678498D02*
X147971502Y-101678498D01*
X156899469Y-102349727D02*
X155840489Y-101290747D01*
X158110000Y-103023800D02*
X157544750Y-103023800D01*
X152903090Y-102985935D02*
X149931759Y-102985935D01*
X147971502Y-101678498D02*
X147500000Y-102150000D01*
X155840489Y-101290747D02*
X154598278Y-101290747D01*
X157043425Y-102522475D02*
X156899469Y-102349727D01*
X154598278Y-101290747D02*
X152903090Y-102985935D01*
X147000000Y-102150000D02*
X147000000Y-101247600D01*
X147000000Y-101247600D02*
X147076201Y-101171399D01*
X147076201Y-101171399D02*
X150063441Y-101171399D01*
X155966753Y-100985936D02*
X157604617Y-102623800D01*
X154472022Y-100985936D02*
X155966753Y-100985936D01*
X152826834Y-102631124D02*
X154472022Y-100985936D01*
X150063441Y-101171399D02*
X151523166Y-102631124D01*
X151523166Y-102631124D02*
X152826834Y-102631124D01*
X157604617Y-102623800D02*
X158110000Y-102623800D01*
X151649422Y-102326313D02*
X152700578Y-102326313D01*
X156093010Y-100681125D02*
X157635685Y-102223800D01*
X146881012Y-100866588D02*
X150189697Y-100866588D01*
X150189697Y-100866588D02*
X151649422Y-102326313D01*
X146500000Y-101247600D02*
X146881012Y-100866588D01*
X146500000Y-102150000D02*
X146500000Y-101247600D01*
X154345766Y-100681125D02*
X156093010Y-100681125D01*
X157635685Y-102223800D02*
X158110000Y-102223800D01*
X152700578Y-102326313D02*
X154345766Y-100681125D01*
X146000000Y-101247600D02*
X146000000Y-102150000D01*
X157666752Y-101823800D02*
X156219266Y-100376314D01*
X146854566Y-100393034D02*
X146000000Y-101247600D01*
X147966325Y-99913358D02*
X147486649Y-100393034D01*
X149667534Y-99913358D02*
X147966325Y-99913358D01*
X151775678Y-102021502D02*
X149667534Y-99913358D01*
X158110000Y-101823800D02*
X157666752Y-101823800D01*
X152574322Y-102021502D02*
X151775678Y-102021502D01*
X156219266Y-100376314D02*
X154219510Y-100376314D01*
X154219510Y-100376314D02*
X152574322Y-102021502D01*
X147486649Y-100393034D02*
X146854566Y-100393034D01*
X151658250Y-106550000D02*
X151754125Y-106645875D01*
X149400000Y-106550000D02*
X151658250Y-106550000D01*
X154856436Y-100071503D02*
X154534933Y-99750000D01*
X158110000Y-101023800D02*
X157377975Y-101023800D01*
X154534933Y-99750000D02*
X154050000Y-99750000D01*
X157377975Y-101023800D02*
X156425678Y-100071503D01*
X156425678Y-100071503D02*
X154856436Y-100071503D01*
X155884933Y-99500000D02*
X155400000Y-99500000D01*
X157758733Y-100623800D02*
X156634933Y-99500000D01*
X156634933Y-99500000D02*
X155884933Y-99500000D01*
X158110000Y-100623800D02*
X157758733Y-100623800D01*
X151364833Y-106050000D02*
X151664487Y-105750346D01*
X149400000Y-106050000D02*
X151364833Y-106050000D01*
X147721502Y-110275680D02*
X146923687Y-109477865D01*
X147468498Y-115020898D02*
X147468498Y-111427324D01*
X146923687Y-109477865D02*
X146923687Y-106169509D01*
X149400000Y-116050000D02*
X148497600Y-116050000D01*
X146722748Y-103628498D02*
X147456435Y-103628498D01*
X147468498Y-111427324D02*
X147721501Y-111174321D01*
X147721501Y-111174321D02*
X147721502Y-110275680D01*
X146028499Y-105274321D02*
X146028499Y-104322747D01*
X147456435Y-103628498D02*
X148350000Y-102734933D01*
X146028499Y-104322747D02*
X146722748Y-103628498D01*
X148350000Y-102734933D02*
X148350000Y-102250000D01*
X148497600Y-116050000D02*
X147468498Y-115020898D01*
X146923687Y-106169509D02*
X146028499Y-105274321D01*
X158255301Y-100200000D02*
X157904176Y-100200000D01*
X156054176Y-98350000D02*
X154604176Y-98350000D01*
X152150000Y-100865067D02*
X152150000Y-101350000D01*
X157904176Y-100200000D02*
X156054176Y-98350000D01*
X154604176Y-98350000D02*
X152150000Y-100804176D01*
X152150000Y-100804176D02*
X152150000Y-100865067D01*
X152847600Y-98000000D02*
X153450000Y-98000000D01*
X151402411Y-99445189D02*
X152847600Y-98000000D01*
X146728310Y-100088223D02*
X147360393Y-100088223D01*
X147360393Y-100088223D02*
X148003427Y-99445189D01*
X146078312Y-100738221D02*
X146728310Y-100088223D01*
X144500000Y-101247600D02*
X145009379Y-100738221D01*
X145009379Y-100738221D02*
X146078312Y-100738221D01*
X144500000Y-102150000D02*
X144500000Y-101247600D01*
X148003427Y-99445189D02*
X151402411Y-99445189D01*
X146602054Y-99783412D02*
X147234137Y-99783412D01*
X150647600Y-98000000D02*
X151250000Y-98000000D01*
X149507222Y-99140378D02*
X150647600Y-98000000D01*
X147877171Y-99140378D02*
X149507222Y-99140378D01*
X147234137Y-99783412D02*
X147877171Y-99140378D01*
X144000000Y-102150000D02*
X144000000Y-101247600D01*
X144814190Y-100433410D02*
X145952056Y-100433410D01*
X144000000Y-101247600D02*
X144814190Y-100433410D01*
X145952056Y-100433410D02*
X146602054Y-99783412D01*
X147834082Y-98752400D02*
X148447600Y-98752400D01*
X144618999Y-100128601D02*
X145825798Y-100128601D01*
X148447600Y-98752400D02*
X149050000Y-98150000D01*
X143500000Y-101247600D02*
X144618999Y-100128601D01*
X145825798Y-100128601D02*
X146475798Y-99478601D01*
X149050000Y-98150000D02*
X149050000Y-98000000D01*
X146475798Y-99478601D02*
X147107881Y-99478601D01*
X147107881Y-99478601D02*
X147834082Y-98752400D01*
X143500000Y-102150000D02*
X143500000Y-101247600D01*
X139770341Y-103782059D02*
X139770341Y-105074726D01*
X140500000Y-103052400D02*
X139770341Y-103782059D01*
X139770341Y-105074726D02*
X139770341Y-105559659D01*
X140500000Y-102150000D02*
X140500000Y-103052400D01*
X132300000Y-100777400D02*
X132300000Y-100350000D01*
X131928498Y-101492016D02*
X131928498Y-101148902D01*
X131928498Y-101148902D02*
X132300000Y-100777400D01*
X132300000Y-101863518D02*
X131928498Y-101492016D01*
X132300000Y-103800000D02*
X132300000Y-101863518D01*
X133600000Y-106550000D02*
X132697600Y-106550000D01*
X132697600Y-106550000D02*
X132300000Y-106152400D01*
X133752400Y-100350000D02*
X134104698Y-100350000D01*
X134104698Y-100350000D02*
X134200000Y-100445302D01*
X133500000Y-100350000D02*
X133752400Y-100350000D01*
X132247558Y-107099958D02*
X132247558Y-106988970D01*
X132697600Y-107550000D02*
X132247558Y-107099958D01*
X133600000Y-107550000D02*
X132697600Y-107550000D01*
X134650000Y-105402400D02*
X134650000Y-103650000D01*
X134502400Y-105550000D02*
X134650000Y-105402400D01*
X132753894Y-96509622D02*
X132300000Y-96963516D01*
X134279113Y-96509622D02*
X132753894Y-96509622D01*
X135371502Y-100114882D02*
X135371502Y-97602011D01*
X134521777Y-100964607D02*
X135371502Y-100114882D01*
X134521777Y-103521777D02*
X134521777Y-100964607D01*
X133600000Y-105550000D02*
X134502400Y-105550000D01*
X134650000Y-103650000D02*
X134521777Y-103521777D01*
X135371502Y-97602011D02*
X134279113Y-96509622D01*
X132300000Y-96963516D02*
X132300000Y-97350000D01*
X134405369Y-96204811D02*
X132627639Y-96204811D01*
X134826588Y-101090863D02*
X135676313Y-100241138D01*
X134826588Y-103395521D02*
X134826588Y-101090863D01*
X134954811Y-103523744D02*
X134826588Y-103395521D01*
X134954811Y-105597589D02*
X134954811Y-103523744D01*
X134502400Y-106050000D02*
X134954811Y-105597589D01*
X135676313Y-100241138D02*
X135676313Y-97475755D01*
X133600000Y-106050000D02*
X134502400Y-106050000D01*
X132627639Y-96204811D02*
X131900000Y-96932450D01*
X135676313Y-97475755D02*
X134405369Y-96204811D01*
X131900000Y-96932450D02*
X131900000Y-97350000D01*
X135131399Y-103269265D02*
X135131399Y-101226559D01*
X131500000Y-96922600D02*
X131500000Y-97350000D01*
X133600000Y-107050000D02*
X134502400Y-107050000D01*
X131500000Y-96901384D02*
X131500000Y-96922600D01*
X135981124Y-97349499D02*
X134531625Y-95900000D01*
X132501382Y-95900000D02*
X131500000Y-96901384D01*
X134502400Y-107050000D02*
X135259622Y-106292778D01*
X134531625Y-95900000D02*
X132501382Y-95900000D01*
X135981124Y-100376834D02*
X135981124Y-97349499D01*
X135259622Y-103397488D02*
X135131399Y-103269265D01*
X135259622Y-106292778D02*
X135259622Y-103397488D01*
X135131399Y-101226559D02*
X135981124Y-100376834D01*
X141000000Y-103392913D02*
X140930582Y-103462331D01*
X141000000Y-102150000D02*
X141000000Y-103392913D01*
X156780000Y-124900000D02*
X157005000Y-124900000D01*
X157005000Y-124900000D02*
X158685000Y-123220000D01*
X158685000Y-123220000D02*
X159330000Y-123220000D01*
X156780000Y-124900000D02*
X154350000Y-124900000D01*
X154350000Y-124900000D02*
X154290000Y-124960000D01*
X151310000Y-123660000D02*
X150060000Y-124910000D01*
X150060000Y-124910000D02*
X150060000Y-124950000D01*
X151310000Y-123660000D02*
X151310000Y-124330000D01*
X151310000Y-124330000D02*
X151940000Y-124960000D01*
X151940000Y-124960000D02*
X152090000Y-124960000D01*
X152090000Y-124960000D02*
X150070000Y-124960000D01*
X150070000Y-124960000D02*
X150060000Y-124950000D01*
X148040000Y-110936889D02*
X148040000Y-113515067D01*
X147515067Y-107400121D02*
X147228498Y-107686690D01*
X148000000Y-107400121D02*
X147515067Y-107400121D01*
X148040000Y-113515067D02*
X148040000Y-114000000D01*
X147450577Y-109573688D02*
X147550577Y-109573688D01*
X148076312Y-110900577D02*
X148040000Y-110936889D01*
X148076312Y-110099423D02*
X148076312Y-110900577D01*
X147228498Y-109351609D02*
X147450577Y-109573688D01*
X147228498Y-107686690D02*
X147228498Y-109351609D01*
X147550577Y-109573688D02*
X148076312Y-110099423D01*
X152540000Y-117060000D02*
X155590000Y-120110000D01*
X152540000Y-116530000D02*
X152540000Y-117060000D01*
X149400000Y-107050000D02*
X148350121Y-107050000D01*
X148350121Y-107050000D02*
X148000000Y-107400121D01*
D33*
G36*
X165298000Y-122636685D02*
X165054234Y-122046726D01*
X164456422Y-121447869D01*
X163674943Y-121123370D01*
X162828770Y-121122632D01*
X162046726Y-121445766D01*
X161447869Y-122043578D01*
X161123370Y-122825057D01*
X161122632Y-123671230D01*
X161445766Y-124453274D01*
X162043578Y-125052131D01*
X162635695Y-125298000D01*
X159915000Y-125298000D01*
X159915000Y-125185750D01*
X159756250Y-125027000D01*
X158807000Y-125027000D01*
X158807000Y-125047000D01*
X158553000Y-125047000D01*
X158553000Y-125027000D01*
X158533000Y-125027000D01*
X158533000Y-124773000D01*
X158553000Y-124773000D01*
X158553000Y-124753000D01*
X158807000Y-124753000D01*
X158807000Y-124773000D01*
X159756250Y-124773000D01*
X159915000Y-124614250D01*
X159915000Y-124398690D01*
X159818327Y-124165301D01*
X159749234Y-124096209D01*
X159878686Y-124042720D01*
X160151761Y-123770121D01*
X160299731Y-123413771D01*
X160300068Y-123027921D01*
X160152720Y-122671314D01*
X159880121Y-122398239D01*
X159525649Y-122251049D01*
X161852804Y-119923895D01*
X161852758Y-119976661D01*
X162064990Y-120490303D01*
X162457630Y-120883629D01*
X162970900Y-121096757D01*
X163526661Y-121097242D01*
X164040303Y-120885010D01*
X164433629Y-120492370D01*
X164646757Y-119979100D01*
X164647242Y-119423339D01*
X164435010Y-118909697D01*
X164042370Y-118516371D01*
X163529100Y-118303243D01*
X163473504Y-118303194D01*
X164847238Y-116929461D01*
X164999672Y-116701327D01*
X165053200Y-116432224D01*
X165053200Y-103549997D01*
X164999672Y-103280894D01*
X164982626Y-103255383D01*
X164847237Y-103052759D01*
X164147788Y-102353310D01*
X164457166Y-102225477D01*
X164730241Y-101952878D01*
X164878211Y-101596528D01*
X164878548Y-101210678D01*
X164735535Y-100864563D01*
X164878211Y-100520962D01*
X164878548Y-100135112D01*
X164731200Y-99778505D01*
X164458601Y-99505430D01*
X164102251Y-99357460D01*
X163716401Y-99357123D01*
X163688138Y-99368801D01*
X163688271Y-99216991D01*
X163540923Y-98860384D01*
X163268324Y-98587309D01*
X162911974Y-98439339D01*
X162526124Y-98439002D01*
X162169517Y-98586350D01*
X161896442Y-98858949D01*
X161748472Y-99215299D01*
X161748324Y-99384474D01*
X161649839Y-99482960D01*
X161540000Y-99460717D01*
X160840000Y-99460717D01*
X160607648Y-99504437D01*
X160394247Y-99641757D01*
X160390993Y-99646520D01*
X159669920Y-98925448D01*
X159670066Y-98757921D01*
X159522718Y-98401314D01*
X159460795Y-98339283D01*
X160800000Y-98339283D01*
X161032352Y-98295563D01*
X161245753Y-98158243D01*
X161339383Y-98021212D01*
X161456229Y-98069731D01*
X161842079Y-98070068D01*
X162198686Y-97922720D01*
X162471761Y-97650121D01*
X162619731Y-97293771D01*
X162619856Y-97150991D01*
X162970900Y-97296757D01*
X163526661Y-97297242D01*
X164040303Y-97085010D01*
X164433629Y-96692370D01*
X164646757Y-96179100D01*
X164647242Y-95623339D01*
X164435010Y-95109697D01*
X164047773Y-94721784D01*
X164453274Y-94554234D01*
X165052131Y-93956422D01*
X165298000Y-93364305D01*
X165298000Y-122636685D01*
X165298000Y-122636685D01*
G37*
X165298000Y-122636685D02*
X165054234Y-122046726D01*
X164456422Y-121447869D01*
X163674943Y-121123370D01*
X162828770Y-121122632D01*
X162046726Y-121445766D01*
X161447869Y-122043578D01*
X161123370Y-122825057D01*
X161122632Y-123671230D01*
X161445766Y-124453274D01*
X162043578Y-125052131D01*
X162635695Y-125298000D01*
X159915000Y-125298000D01*
X159915000Y-125185750D01*
X159756250Y-125027000D01*
X158807000Y-125027000D01*
X158807000Y-125047000D01*
X158553000Y-125047000D01*
X158553000Y-125027000D01*
X158533000Y-125027000D01*
X158533000Y-124773000D01*
X158553000Y-124773000D01*
X158553000Y-124753000D01*
X158807000Y-124753000D01*
X158807000Y-124773000D01*
X159756250Y-124773000D01*
X159915000Y-124614250D01*
X159915000Y-124398690D01*
X159818327Y-124165301D01*
X159749234Y-124096209D01*
X159878686Y-124042720D01*
X160151761Y-123770121D01*
X160299731Y-123413771D01*
X160300068Y-123027921D01*
X160152720Y-122671314D01*
X159880121Y-122398239D01*
X159525649Y-122251049D01*
X161852804Y-119923895D01*
X161852758Y-119976661D01*
X162064990Y-120490303D01*
X162457630Y-120883629D01*
X162970900Y-121096757D01*
X163526661Y-121097242D01*
X164040303Y-120885010D01*
X164433629Y-120492370D01*
X164646757Y-119979100D01*
X164647242Y-119423339D01*
X164435010Y-118909697D01*
X164042370Y-118516371D01*
X163529100Y-118303243D01*
X163473504Y-118303194D01*
X164847238Y-116929461D01*
X164999672Y-116701327D01*
X165053200Y-116432224D01*
X165053200Y-103549997D01*
X164999672Y-103280894D01*
X164982626Y-103255383D01*
X164847237Y-103052759D01*
X164147788Y-102353310D01*
X164457166Y-102225477D01*
X164730241Y-101952878D01*
X164878211Y-101596528D01*
X164878548Y-101210678D01*
X164735535Y-100864563D01*
X164878211Y-100520962D01*
X164878548Y-100135112D01*
X164731200Y-99778505D01*
X164458601Y-99505430D01*
X164102251Y-99357460D01*
X163716401Y-99357123D01*
X163688138Y-99368801D01*
X163688271Y-99216991D01*
X163540923Y-98860384D01*
X163268324Y-98587309D01*
X162911974Y-98439339D01*
X162526124Y-98439002D01*
X162169517Y-98586350D01*
X161896442Y-98858949D01*
X161748472Y-99215299D01*
X161748324Y-99384474D01*
X161649839Y-99482960D01*
X161540000Y-99460717D01*
X160840000Y-99460717D01*
X160607648Y-99504437D01*
X160394247Y-99641757D01*
X160390993Y-99646520D01*
X159669920Y-98925448D01*
X159670066Y-98757921D01*
X159522718Y-98401314D01*
X159460795Y-98339283D01*
X160800000Y-98339283D01*
X161032352Y-98295563D01*
X161245753Y-98158243D01*
X161339383Y-98021212D01*
X161456229Y-98069731D01*
X161842079Y-98070068D01*
X162198686Y-97922720D01*
X162471761Y-97650121D01*
X162619731Y-97293771D01*
X162619856Y-97150991D01*
X162970900Y-97296757D01*
X163526661Y-97297242D01*
X164040303Y-97085010D01*
X164433629Y-96692370D01*
X164646757Y-96179100D01*
X164647242Y-95623339D01*
X164435010Y-95109697D01*
X164047773Y-94721784D01*
X164453274Y-94554234D01*
X165052131Y-93956422D01*
X165298000Y-93364305D01*
X165298000Y-122636685D01*
G36*
X137002763Y-115806549D02*
X136850328Y-116034683D01*
X136796800Y-116303786D01*
X136796800Y-116572609D01*
X136745962Y-116582175D01*
X136640000Y-116560717D01*
X136360000Y-116560717D01*
X136245962Y-116582175D01*
X136140000Y-116560717D01*
X135860000Y-116560717D01*
X135745962Y-116582175D01*
X135640000Y-116560717D01*
X135360000Y-116560717D01*
X135127648Y-116604437D01*
X134914247Y-116741757D01*
X134771083Y-116951283D01*
X134720717Y-117200000D01*
X134720717Y-118700000D01*
X134764437Y-118932352D01*
X134834299Y-119040921D01*
X134838034Y-119059698D01*
X134850328Y-119121503D01*
X135002763Y-119349637D01*
X136703453Y-121050328D01*
X136784177Y-121104266D01*
X136525987Y-121276784D01*
X136202865Y-121760369D01*
X136089400Y-122330797D01*
X136089400Y-122389203D01*
X136202865Y-122959631D01*
X136525987Y-123443216D01*
X136797228Y-123624454D01*
X136373179Y-124011510D01*
X136125032Y-124540973D01*
X136245531Y-124773000D01*
X137453000Y-124773000D01*
X137453000Y-124753000D01*
X137707000Y-124753000D01*
X137707000Y-124773000D01*
X139993000Y-124773000D01*
X139993000Y-124753000D01*
X140247000Y-124753000D01*
X140247000Y-124773000D01*
X142533000Y-124773000D01*
X142533000Y-124753000D01*
X142787000Y-124753000D01*
X142787000Y-124773000D01*
X145073000Y-124773000D01*
X145073000Y-124753000D01*
X145327000Y-124753000D01*
X145327000Y-124773000D01*
X145347000Y-124773000D01*
X145347000Y-125027000D01*
X145327000Y-125027000D01*
X145327000Y-125047000D01*
X145073000Y-125047000D01*
X145073000Y-125027000D01*
X142787000Y-125027000D01*
X142787000Y-125047000D01*
X142533000Y-125047000D01*
X142533000Y-125027000D01*
X140247000Y-125027000D01*
X140247000Y-125047000D01*
X139993000Y-125047000D01*
X139993000Y-125027000D01*
X137707000Y-125027000D01*
X137707000Y-125047000D01*
X137453000Y-125047000D01*
X137453000Y-125027000D01*
X136245531Y-125027000D01*
X136125032Y-125259027D01*
X136143298Y-125298000D01*
X133363315Y-125298000D01*
X133953274Y-125054234D01*
X134552131Y-124456422D01*
X134876630Y-123674943D01*
X134877368Y-122828770D01*
X134554234Y-122046726D01*
X133956422Y-121447869D01*
X133174943Y-121123370D01*
X132328770Y-121122632D01*
X131546726Y-121445766D01*
X130947869Y-122043578D01*
X130702000Y-122635695D01*
X130702000Y-119976661D01*
X131352758Y-119976661D01*
X131564990Y-120490303D01*
X131957630Y-120883629D01*
X132470900Y-121096757D01*
X133026661Y-121097242D01*
X133540303Y-120885010D01*
X133933629Y-120492370D01*
X134146757Y-119979100D01*
X134147242Y-119423339D01*
X133935010Y-118909697D01*
X133542370Y-118516371D01*
X133029100Y-118303243D01*
X132473339Y-118302758D01*
X131959697Y-118514990D01*
X131566371Y-118907630D01*
X131353243Y-119420900D01*
X131352758Y-119976661D01*
X130702000Y-119976661D01*
X130702000Y-118204250D01*
X130875000Y-118239283D01*
X131625000Y-118239283D01*
X131857352Y-118195563D01*
X132070753Y-118058243D01*
X132213917Y-117848717D01*
X132243385Y-117703200D01*
X132273925Y-117703200D01*
X132392279Y-117821761D01*
X132748629Y-117969731D01*
X133134479Y-117970068D01*
X133491086Y-117822720D01*
X133764161Y-117550121D01*
X133912131Y-117193771D01*
X133912279Y-117024596D01*
X134097238Y-116839637D01*
X134104156Y-116829283D01*
X134350000Y-116829283D01*
X134582352Y-116785563D01*
X134795753Y-116648243D01*
X134938917Y-116438717D01*
X134989283Y-116190000D01*
X134989283Y-115910000D01*
X134975823Y-115838466D01*
X134979532Y-115829512D01*
X136150577Y-115829512D01*
X136419680Y-115775984D01*
X136453779Y-115753200D01*
X137056112Y-115753200D01*
X137002763Y-115806549D01*
X137002763Y-115806549D01*
G37*
X137002763Y-115806549D02*
X136850328Y-116034683D01*
X136796800Y-116303786D01*
X136796800Y-116572609D01*
X136745962Y-116582175D01*
X136640000Y-116560717D01*
X136360000Y-116560717D01*
X136245962Y-116582175D01*
X136140000Y-116560717D01*
X135860000Y-116560717D01*
X135745962Y-116582175D01*
X135640000Y-116560717D01*
X135360000Y-116560717D01*
X135127648Y-116604437D01*
X134914247Y-116741757D01*
X134771083Y-116951283D01*
X134720717Y-117200000D01*
X134720717Y-118700000D01*
X134764437Y-118932352D01*
X134834299Y-119040921D01*
X134838034Y-119059698D01*
X134850328Y-119121503D01*
X135002763Y-119349637D01*
X136703453Y-121050328D01*
X136784177Y-121104266D01*
X136525987Y-121276784D01*
X136202865Y-121760369D01*
X136089400Y-122330797D01*
X136089400Y-122389203D01*
X136202865Y-122959631D01*
X136525987Y-123443216D01*
X136797228Y-123624454D01*
X136373179Y-124011510D01*
X136125032Y-124540973D01*
X136245531Y-124773000D01*
X137453000Y-124773000D01*
X137453000Y-124753000D01*
X137707000Y-124753000D01*
X137707000Y-124773000D01*
X139993000Y-124773000D01*
X139993000Y-124753000D01*
X140247000Y-124753000D01*
X140247000Y-124773000D01*
X142533000Y-124773000D01*
X142533000Y-124753000D01*
X142787000Y-124753000D01*
X142787000Y-124773000D01*
X145073000Y-124773000D01*
X145073000Y-124753000D01*
X145327000Y-124753000D01*
X145327000Y-124773000D01*
X145347000Y-124773000D01*
X145347000Y-125027000D01*
X145327000Y-125027000D01*
X145327000Y-125047000D01*
X145073000Y-125047000D01*
X145073000Y-125027000D01*
X142787000Y-125027000D01*
X142787000Y-125047000D01*
X142533000Y-125047000D01*
X142533000Y-125027000D01*
X140247000Y-125027000D01*
X140247000Y-125047000D01*
X139993000Y-125047000D01*
X139993000Y-125027000D01*
X137707000Y-125027000D01*
X137707000Y-125047000D01*
X137453000Y-125047000D01*
X137453000Y-125027000D01*
X136245531Y-125027000D01*
X136125032Y-125259027D01*
X136143298Y-125298000D01*
X133363315Y-125298000D01*
X133953274Y-125054234D01*
X134552131Y-124456422D01*
X134876630Y-123674943D01*
X134877368Y-122828770D01*
X134554234Y-122046726D01*
X133956422Y-121447869D01*
X133174943Y-121123370D01*
X132328770Y-121122632D01*
X131546726Y-121445766D01*
X130947869Y-122043578D01*
X130702000Y-122635695D01*
X130702000Y-119976661D01*
X131352758Y-119976661D01*
X131564990Y-120490303D01*
X131957630Y-120883629D01*
X132470900Y-121096757D01*
X133026661Y-121097242D01*
X133540303Y-120885010D01*
X133933629Y-120492370D01*
X134146757Y-119979100D01*
X134147242Y-119423339D01*
X133935010Y-118909697D01*
X133542370Y-118516371D01*
X133029100Y-118303243D01*
X132473339Y-118302758D01*
X131959697Y-118514990D01*
X131566371Y-118907630D01*
X131353243Y-119420900D01*
X131352758Y-119976661D01*
X130702000Y-119976661D01*
X130702000Y-118204250D01*
X130875000Y-118239283D01*
X131625000Y-118239283D01*
X131857352Y-118195563D01*
X132070753Y-118058243D01*
X132213917Y-117848717D01*
X132243385Y-117703200D01*
X132273925Y-117703200D01*
X132392279Y-117821761D01*
X132748629Y-117969731D01*
X133134479Y-117970068D01*
X133491086Y-117822720D01*
X133764161Y-117550121D01*
X133912131Y-117193771D01*
X133912279Y-117024596D01*
X134097238Y-116839637D01*
X134104156Y-116829283D01*
X134350000Y-116829283D01*
X134582352Y-116785563D01*
X134795753Y-116648243D01*
X134938917Y-116438717D01*
X134989283Y-116190000D01*
X134989283Y-115910000D01*
X134975823Y-115838466D01*
X134979532Y-115829512D01*
X136150577Y-115829512D01*
X136419680Y-115775984D01*
X136453779Y-115753200D01*
X137056112Y-115753200D01*
X137002763Y-115806549D01*
G36*
X146220487Y-106460783D02*
X146220487Y-109477865D01*
X146265309Y-109703199D01*
X146274015Y-109746968D01*
X146426450Y-109975102D01*
X147018302Y-110566954D01*
X147018301Y-110883046D01*
X146971261Y-110930087D01*
X146818826Y-111158221D01*
X146765298Y-111427324D01*
X146765298Y-115020898D01*
X146815595Y-115273756D01*
X146818826Y-115290001D01*
X146971261Y-115518135D01*
X147340764Y-115887638D01*
X147178239Y-116049879D01*
X147030269Y-116406229D01*
X147030041Y-116667245D01*
X146999590Y-116686840D01*
X146888717Y-116611083D01*
X146799207Y-116592957D01*
X146771250Y-116565000D01*
X146733690Y-116565000D01*
X146709871Y-116574866D01*
X146640000Y-116560717D01*
X146360000Y-116560717D01*
X146245962Y-116582175D01*
X146203200Y-116573515D01*
X146203200Y-108550000D01*
X146149672Y-108280897D01*
X146144208Y-108272720D01*
X145997237Y-108052762D01*
X145769922Y-107825447D01*
X145770068Y-107657921D01*
X145622720Y-107301314D01*
X145350121Y-107028239D01*
X145158426Y-106948640D01*
X145725736Y-106381330D01*
X145878171Y-106153195D01*
X145883933Y-106124229D01*
X146220487Y-106460783D01*
X146220487Y-106460783D01*
G37*
X146220487Y-106460783D02*
X146220487Y-109477865D01*
X146265309Y-109703199D01*
X146274015Y-109746968D01*
X146426450Y-109975102D01*
X147018302Y-110566954D01*
X147018301Y-110883046D01*
X146971261Y-110930087D01*
X146818826Y-111158221D01*
X146765298Y-111427324D01*
X146765298Y-115020898D01*
X146815595Y-115273756D01*
X146818826Y-115290001D01*
X146971261Y-115518135D01*
X147340764Y-115887638D01*
X147178239Y-116049879D01*
X147030269Y-116406229D01*
X147030041Y-116667245D01*
X146999590Y-116686840D01*
X146888717Y-116611083D01*
X146799207Y-116592957D01*
X146771250Y-116565000D01*
X146733690Y-116565000D01*
X146709871Y-116574866D01*
X146640000Y-116560717D01*
X146360000Y-116560717D01*
X146245962Y-116582175D01*
X146203200Y-116573515D01*
X146203200Y-108550000D01*
X146149672Y-108280897D01*
X146144208Y-108272720D01*
X145997237Y-108052762D01*
X145769922Y-107825447D01*
X145770068Y-107657921D01*
X145622720Y-107301314D01*
X145350121Y-107028239D01*
X145158426Y-106948640D01*
X145725736Y-106381330D01*
X145878171Y-106153195D01*
X145883933Y-106124229D01*
X146220487Y-106460783D01*
G36*
X132232175Y-109304038D02*
X132210717Y-109410000D01*
X132210717Y-109690000D01*
X132232175Y-109804038D01*
X132210717Y-109910000D01*
X132210717Y-110190000D01*
X132232175Y-110304038D01*
X132210717Y-110410000D01*
X132210717Y-110690000D01*
X132232175Y-110804038D01*
X132210717Y-110910000D01*
X132210717Y-111190000D01*
X132232175Y-111304038D01*
X132210717Y-111410000D01*
X132210717Y-111690000D01*
X132232175Y-111804038D01*
X132210717Y-111910000D01*
X132210717Y-112190000D01*
X132232175Y-112304038D01*
X132210717Y-112410000D01*
X132210717Y-112690000D01*
X132232175Y-112804038D01*
X132210717Y-112910000D01*
X132210717Y-113190000D01*
X132232175Y-113304038D01*
X132210717Y-113410000D01*
X132210717Y-113690000D01*
X132232175Y-113804038D01*
X132210717Y-113910000D01*
X132210717Y-114190000D01*
X132232175Y-114304038D01*
X132231838Y-114305701D01*
X132163327Y-114140302D01*
X131984699Y-113961673D01*
X131751310Y-113865000D01*
X131535750Y-113865000D01*
X131377000Y-114023750D01*
X131377000Y-114973000D01*
X131397000Y-114973000D01*
X131397000Y-115227000D01*
X131377000Y-115227000D01*
X131377000Y-115247000D01*
X131123000Y-115247000D01*
X131123000Y-115227000D01*
X131103000Y-115227000D01*
X131103000Y-114973000D01*
X131123000Y-114973000D01*
X131123000Y-114023750D01*
X130964250Y-113865000D01*
X130748690Y-113865000D01*
X130702000Y-113884340D01*
X130702000Y-109273536D01*
X130899879Y-109471761D01*
X131256229Y-109619731D01*
X131642079Y-109620068D01*
X131998686Y-109472720D01*
X132221973Y-109249822D01*
X132232175Y-109304038D01*
X132232175Y-109304038D01*
G37*
X132232175Y-109304038D02*
X132210717Y-109410000D01*
X132210717Y-109690000D01*
X132232175Y-109804038D01*
X132210717Y-109910000D01*
X132210717Y-110190000D01*
X132232175Y-110304038D01*
X132210717Y-110410000D01*
X132210717Y-110690000D01*
X132232175Y-110804038D01*
X132210717Y-110910000D01*
X132210717Y-111190000D01*
X132232175Y-111304038D01*
X132210717Y-111410000D01*
X132210717Y-111690000D01*
X132232175Y-111804038D01*
X132210717Y-111910000D01*
X132210717Y-112190000D01*
X132232175Y-112304038D01*
X132210717Y-112410000D01*
X132210717Y-112690000D01*
X132232175Y-112804038D01*
X132210717Y-112910000D01*
X132210717Y-113190000D01*
X132232175Y-113304038D01*
X132210717Y-113410000D01*
X132210717Y-113690000D01*
X132232175Y-113804038D01*
X132210717Y-113910000D01*
X132210717Y-114190000D01*
X132232175Y-114304038D01*
X132231838Y-114305701D01*
X132163327Y-114140302D01*
X131984699Y-113961673D01*
X131751310Y-113865000D01*
X131535750Y-113865000D01*
X131377000Y-114023750D01*
X131377000Y-114973000D01*
X131397000Y-114973000D01*
X131397000Y-115227000D01*
X131377000Y-115227000D01*
X131377000Y-115247000D01*
X131123000Y-115247000D01*
X131123000Y-115227000D01*
X131103000Y-115227000D01*
X131103000Y-114973000D01*
X131123000Y-114973000D01*
X131123000Y-114023750D01*
X130964250Y-113865000D01*
X130748690Y-113865000D01*
X130702000Y-113884340D01*
X130702000Y-109273536D01*
X130899879Y-109471761D01*
X131256229Y-109619731D01*
X131642079Y-109620068D01*
X131998686Y-109472720D01*
X132221973Y-109249822D01*
X132232175Y-109304038D01*
G36*
X141525298Y-110219773D02*
X141525298Y-112128498D01*
X141555481Y-112280236D01*
X141424596Y-112280121D01*
X138691823Y-109547349D01*
X138691823Y-109518354D01*
X138810384Y-109400000D01*
X138958354Y-109043650D01*
X138958691Y-108657800D01*
X138811343Y-108301193D01*
X138538744Y-108028118D01*
X138182394Y-107880148D01*
X137796544Y-107879811D01*
X137439937Y-108027159D01*
X137166862Y-108299758D01*
X137018892Y-108656108D01*
X137018555Y-109041958D01*
X137165903Y-109398565D01*
X137285423Y-109518294D01*
X137285423Y-109838623D01*
X137334087Y-110083273D01*
X137338951Y-110107726D01*
X137491386Y-110335860D01*
X140430078Y-113274553D01*
X140430012Y-113350825D01*
X138819704Y-113350825D01*
X138735905Y-113148018D01*
X138463306Y-112874943D01*
X138106956Y-112726973D01*
X137937781Y-112726825D01*
X135763718Y-110552763D01*
X135535584Y-110400328D01*
X135527329Y-110398686D01*
X135266481Y-110346800D01*
X134977391Y-110346800D01*
X134967825Y-110295962D01*
X134989283Y-110190000D01*
X134989283Y-109910000D01*
X134967825Y-109795962D01*
X134989283Y-109690000D01*
X134989283Y-109410000D01*
X134967825Y-109295962D01*
X134989283Y-109190000D01*
X134989283Y-108910000D01*
X134967825Y-108795962D01*
X134989283Y-108690000D01*
X134989283Y-108410000D01*
X134967825Y-108295962D01*
X134989283Y-108190000D01*
X134989283Y-107910000D01*
X134967825Y-107795962D01*
X134989283Y-107690000D01*
X134989283Y-107554155D01*
X134999637Y-107547237D01*
X135756860Y-106790015D01*
X135909294Y-106561881D01*
X135962822Y-106292778D01*
X135962822Y-104657296D01*
X141525298Y-110219773D01*
X141525298Y-110219773D01*
G37*
X141525298Y-110219773D02*
X141525298Y-112128498D01*
X141555481Y-112280236D01*
X141424596Y-112280121D01*
X138691823Y-109547349D01*
X138691823Y-109518354D01*
X138810384Y-109400000D01*
X138958354Y-109043650D01*
X138958691Y-108657800D01*
X138811343Y-108301193D01*
X138538744Y-108028118D01*
X138182394Y-107880148D01*
X137796544Y-107879811D01*
X137439937Y-108027159D01*
X137166862Y-108299758D01*
X137018892Y-108656108D01*
X137018555Y-109041958D01*
X137165903Y-109398565D01*
X137285423Y-109518294D01*
X137285423Y-109838623D01*
X137334087Y-110083273D01*
X137338951Y-110107726D01*
X137491386Y-110335860D01*
X140430078Y-113274553D01*
X140430012Y-113350825D01*
X138819704Y-113350825D01*
X138735905Y-113148018D01*
X138463306Y-112874943D01*
X138106956Y-112726973D01*
X137937781Y-112726825D01*
X135763718Y-110552763D01*
X135535584Y-110400328D01*
X135527329Y-110398686D01*
X135266481Y-110346800D01*
X134977391Y-110346800D01*
X134967825Y-110295962D01*
X134989283Y-110190000D01*
X134989283Y-109910000D01*
X134967825Y-109795962D01*
X134989283Y-109690000D01*
X134989283Y-109410000D01*
X134967825Y-109295962D01*
X134989283Y-109190000D01*
X134989283Y-108910000D01*
X134967825Y-108795962D01*
X134989283Y-108690000D01*
X134989283Y-108410000D01*
X134967825Y-108295962D01*
X134989283Y-108190000D01*
X134989283Y-107910000D01*
X134967825Y-107795962D01*
X134989283Y-107690000D01*
X134989283Y-107554155D01*
X134999637Y-107547237D01*
X135756860Y-106790015D01*
X135909294Y-106561881D01*
X135962822Y-106292778D01*
X135962822Y-104657296D01*
X141525298Y-110219773D01*
G36*
X162727924Y-104354545D02*
X162727924Y-109941335D01*
X162703078Y-109916446D01*
X162346728Y-109768476D01*
X162179283Y-109768330D01*
X162179283Y-109700000D01*
X162168411Y-109642218D01*
X162175000Y-109626310D01*
X162175000Y-109608750D01*
X162159126Y-109592876D01*
X162135563Y-109467648D01*
X162098739Y-109410421D01*
X162175000Y-109226310D01*
X162175000Y-109208750D01*
X162166250Y-109200000D01*
X162175000Y-109191250D01*
X162175000Y-109173690D01*
X162103055Y-109000000D01*
X162175000Y-108826310D01*
X162175000Y-108808750D01*
X162166250Y-108800000D01*
X162175000Y-108791250D01*
X162175000Y-108773690D01*
X162103055Y-108600000D01*
X162175000Y-108426310D01*
X162175000Y-108408750D01*
X162166250Y-108400000D01*
X162175000Y-108391250D01*
X162175000Y-108373690D01*
X162103055Y-108200000D01*
X162175000Y-108026310D01*
X162175000Y-108008750D01*
X162166250Y-108000000D01*
X162175000Y-107991250D01*
X162175000Y-107973690D01*
X162103055Y-107800000D01*
X162175000Y-107626310D01*
X162175000Y-107608750D01*
X162166250Y-107600000D01*
X162175000Y-107591250D01*
X162175000Y-107573690D01*
X162103055Y-107400000D01*
X162175000Y-107226310D01*
X162175000Y-107208750D01*
X162166250Y-107200000D01*
X162175000Y-107191250D01*
X162175000Y-107173690D01*
X162103055Y-107000000D01*
X162175000Y-106826310D01*
X162175000Y-106808750D01*
X162166250Y-106800000D01*
X162175000Y-106791250D01*
X162175000Y-106773690D01*
X162099591Y-106591637D01*
X162128917Y-106548717D01*
X162157200Y-106409050D01*
X162175000Y-106391250D01*
X162175000Y-106373690D01*
X162167854Y-106356438D01*
X162179283Y-106300000D01*
X162179283Y-106100000D01*
X162159776Y-105996329D01*
X162179283Y-105900000D01*
X162179283Y-105700000D01*
X162159776Y-105596329D01*
X162179283Y-105500000D01*
X162179283Y-105300000D01*
X162159776Y-105196329D01*
X162179283Y-105100000D01*
X162179283Y-104900000D01*
X162159776Y-104796329D01*
X162179283Y-104700000D01*
X162179283Y-104500000D01*
X162159776Y-104396329D01*
X162179283Y-104300000D01*
X162179283Y-104100000D01*
X162159776Y-103996329D01*
X162179283Y-103900000D01*
X162179283Y-103805904D01*
X162727924Y-104354545D01*
X162727924Y-104354545D01*
G37*
X162727924Y-104354545D02*
X162727924Y-109941335D01*
X162703078Y-109916446D01*
X162346728Y-109768476D01*
X162179283Y-109768330D01*
X162179283Y-109700000D01*
X162168411Y-109642218D01*
X162175000Y-109626310D01*
X162175000Y-109608750D01*
X162159126Y-109592876D01*
X162135563Y-109467648D01*
X162098739Y-109410421D01*
X162175000Y-109226310D01*
X162175000Y-109208750D01*
X162166250Y-109200000D01*
X162175000Y-109191250D01*
X162175000Y-109173690D01*
X162103055Y-109000000D01*
X162175000Y-108826310D01*
X162175000Y-108808750D01*
X162166250Y-108800000D01*
X162175000Y-108791250D01*
X162175000Y-108773690D01*
X162103055Y-108600000D01*
X162175000Y-108426310D01*
X162175000Y-108408750D01*
X162166250Y-108400000D01*
X162175000Y-108391250D01*
X162175000Y-108373690D01*
X162103055Y-108200000D01*
X162175000Y-108026310D01*
X162175000Y-108008750D01*
X162166250Y-108000000D01*
X162175000Y-107991250D01*
X162175000Y-107973690D01*
X162103055Y-107800000D01*
X162175000Y-107626310D01*
X162175000Y-107608750D01*
X162166250Y-107600000D01*
X162175000Y-107591250D01*
X162175000Y-107573690D01*
X162103055Y-107400000D01*
X162175000Y-107226310D01*
X162175000Y-107208750D01*
X162166250Y-107200000D01*
X162175000Y-107191250D01*
X162175000Y-107173690D01*
X162103055Y-107000000D01*
X162175000Y-106826310D01*
X162175000Y-106808750D01*
X162166250Y-106800000D01*
X162175000Y-106791250D01*
X162175000Y-106773690D01*
X162099591Y-106591637D01*
X162128917Y-106548717D01*
X162157200Y-106409050D01*
X162175000Y-106391250D01*
X162175000Y-106373690D01*
X162167854Y-106356438D01*
X162179283Y-106300000D01*
X162179283Y-106100000D01*
X162159776Y-105996329D01*
X162179283Y-105900000D01*
X162179283Y-105700000D01*
X162159776Y-105596329D01*
X162179283Y-105500000D01*
X162179283Y-105300000D01*
X162159776Y-105196329D01*
X162179283Y-105100000D01*
X162179283Y-104900000D01*
X162159776Y-104796329D01*
X162179283Y-104700000D01*
X162179283Y-104500000D01*
X162159776Y-104396329D01*
X162179283Y-104300000D01*
X162179283Y-104100000D01*
X162159776Y-103996329D01*
X162179283Y-103900000D01*
X162179283Y-103805904D01*
X162727924Y-104354545D01*
G36*
X161317000Y-108700000D02*
X161063000Y-108700000D01*
X161063000Y-107300000D01*
X161317000Y-107300000D01*
X161317000Y-108700000D01*
X161317000Y-108700000D01*
G37*
X161317000Y-108700000D02*
X161063000Y-108700000D01*
X161063000Y-107300000D01*
X161317000Y-107300000D01*
X161317000Y-108700000D01*
G36*
X131327000Y-106323000D02*
X131329951Y-106323000D01*
X131329932Y-106344479D01*
X131347000Y-106385786D01*
X131347000Y-106577000D01*
X131327000Y-106577000D01*
X131327000Y-106676778D01*
X131277827Y-106795199D01*
X131277490Y-107181049D01*
X131327000Y-107300872D01*
X131327000Y-107526250D01*
X131480877Y-107680127D01*
X131257921Y-107679932D01*
X130901314Y-107827280D01*
X130702000Y-108026247D01*
X130702000Y-107685000D01*
X130914250Y-107685000D01*
X131073000Y-107526250D01*
X131073000Y-106577000D01*
X131053000Y-106577000D01*
X131053000Y-106323000D01*
X131073000Y-106323000D01*
X131073000Y-106303000D01*
X131327000Y-106303000D01*
X131327000Y-106323000D01*
X131327000Y-106323000D01*
G37*
X131327000Y-106323000D02*
X131329951Y-106323000D01*
X131329932Y-106344479D01*
X131347000Y-106385786D01*
X131347000Y-106577000D01*
X131327000Y-106577000D01*
X131327000Y-106676778D01*
X131277827Y-106795199D01*
X131277490Y-107181049D01*
X131327000Y-107300872D01*
X131327000Y-107526250D01*
X131480877Y-107680127D01*
X131257921Y-107679932D01*
X130901314Y-107827280D01*
X130702000Y-108026247D01*
X130702000Y-107685000D01*
X130914250Y-107685000D01*
X131073000Y-107526250D01*
X131073000Y-106577000D01*
X131053000Y-106577000D01*
X131053000Y-106323000D01*
X131073000Y-106323000D01*
X131073000Y-106303000D01*
X131327000Y-106303000D01*
X131327000Y-106323000D01*
G36*
X153507051Y-104360539D02*
X153303248Y-104224362D01*
X153282696Y-104220274D01*
X153034145Y-104170834D01*
X151263910Y-104170834D01*
X150994807Y-104224362D01*
X150811565Y-104346800D01*
X150759450Y-104346800D01*
X150785000Y-104321250D01*
X150785000Y-104283690D01*
X150775134Y-104259871D01*
X150789283Y-104190000D01*
X150789283Y-103910000D01*
X150747724Y-103689135D01*
X152903090Y-103689135D01*
X153172193Y-103635607D01*
X153400327Y-103483172D01*
X153507051Y-103376448D01*
X153507051Y-104360539D01*
X153507051Y-104360539D01*
G37*
X153507051Y-104360539D02*
X153303248Y-104224362D01*
X153282696Y-104220274D01*
X153034145Y-104170834D01*
X151263910Y-104170834D01*
X150994807Y-104224362D01*
X150811565Y-104346800D01*
X150759450Y-104346800D01*
X150785000Y-104321250D01*
X150785000Y-104283690D01*
X150775134Y-104259871D01*
X150789283Y-104190000D01*
X150789283Y-103910000D01*
X150747724Y-103689135D01*
X152903090Y-103689135D01*
X153172193Y-103635607D01*
X153400327Y-103483172D01*
X153507051Y-103376448D01*
X153507051Y-104360539D01*
G36*
X133377000Y-102173000D02*
X133397000Y-102173000D01*
X133397000Y-102384445D01*
X133245605Y-102447000D01*
X133123000Y-102447000D01*
X133123000Y-102427000D01*
X133103000Y-102427000D01*
X133103000Y-102173000D01*
X133123000Y-102173000D01*
X133123000Y-102153000D01*
X133377000Y-102153000D01*
X133377000Y-102173000D01*
X133377000Y-102173000D01*
G37*
X133377000Y-102173000D02*
X133397000Y-102173000D01*
X133397000Y-102384445D01*
X133245605Y-102447000D01*
X133123000Y-102447000D01*
X133123000Y-102427000D01*
X133103000Y-102427000D01*
X133103000Y-102173000D01*
X133123000Y-102173000D01*
X133123000Y-102153000D01*
X133377000Y-102153000D01*
X133377000Y-102173000D01*
G36*
X137553035Y-91233223D02*
X137580222Y-91803454D01*
X137746136Y-92204005D01*
X137992255Y-92278139D01*
X138820395Y-91450000D01*
X138806252Y-91435858D01*
X138985858Y-91256252D01*
X139000000Y-91270395D01*
X139014142Y-91256252D01*
X139193748Y-91435858D01*
X139179605Y-91450000D01*
X140007745Y-92278139D01*
X140253864Y-92204005D01*
X140446965Y-91666777D01*
X140419778Y-91096546D01*
X140256351Y-90702000D01*
X144343978Y-90702000D01*
X144153035Y-91233223D01*
X144180222Y-91803454D01*
X144253275Y-91979820D01*
X144109982Y-92122864D01*
X144050000Y-92110717D01*
X142850000Y-92110717D01*
X142617648Y-92154437D01*
X142404247Y-92291757D01*
X142350666Y-92370174D01*
X142308243Y-92304247D01*
X142098717Y-92161083D01*
X141850000Y-92110717D01*
X140650000Y-92110717D01*
X140417648Y-92154437D01*
X140204247Y-92291757D01*
X140061083Y-92501283D01*
X140010717Y-92750000D01*
X140010717Y-93650000D01*
X140054437Y-93882352D01*
X140191757Y-94095753D01*
X140401283Y-94238917D01*
X140546800Y-94268385D01*
X140546800Y-95100000D01*
X140579881Y-95266309D01*
X140600328Y-95369103D01*
X140752763Y-95597237D01*
X141187904Y-96032379D01*
X140847180Y-96173164D01*
X140574105Y-96445763D01*
X140484848Y-96660717D01*
X138850000Y-96660717D01*
X138617648Y-96704437D01*
X138404247Y-96841757D01*
X138261083Y-97051283D01*
X138210717Y-97300000D01*
X138210717Y-98546800D01*
X138085000Y-98546800D01*
X138085000Y-98435750D01*
X137926250Y-98277000D01*
X137325000Y-98277000D01*
X137325000Y-98297000D01*
X137075000Y-98297000D01*
X137075000Y-98277000D01*
X137053000Y-98277000D01*
X137053000Y-98023000D01*
X137075000Y-98023000D01*
X137075000Y-97373750D01*
X137325000Y-97373750D01*
X137325000Y-98023000D01*
X137926250Y-98023000D01*
X138085000Y-97864250D01*
X138085000Y-97723691D01*
X137988327Y-97490302D01*
X137809699Y-97311673D01*
X137576310Y-97215000D01*
X137483750Y-97215000D01*
X137325000Y-97373750D01*
X137075000Y-97373750D01*
X136916250Y-97215000D01*
X136823690Y-97215000D01*
X136670216Y-97278571D01*
X136630796Y-97080396D01*
X136478361Y-96852261D01*
X135028862Y-95402763D01*
X134800728Y-95250328D01*
X134531625Y-95196800D01*
X132501382Y-95196800D01*
X132232279Y-95250328D01*
X132156579Y-95300909D01*
X132004144Y-95402763D01*
X131002762Y-96404147D01*
X130918071Y-96530897D01*
X130850328Y-96632281D01*
X130812008Y-96824930D01*
X130811083Y-96826283D01*
X130760717Y-97075000D01*
X130760717Y-97110717D01*
X130725000Y-97110717D01*
X130702000Y-97115045D01*
X130702000Y-93363315D01*
X130945766Y-93953274D01*
X131543578Y-94552131D01*
X132325057Y-94876630D01*
X133171230Y-94877368D01*
X133953274Y-94554234D01*
X134552131Y-93956422D01*
X134876630Y-93174943D01*
X134877255Y-92457745D01*
X138171861Y-92457745D01*
X138245995Y-92703864D01*
X138783223Y-92896965D01*
X139353454Y-92869778D01*
X139754005Y-92703864D01*
X139828139Y-92457745D01*
X139000000Y-91629605D01*
X138171861Y-92457745D01*
X134877255Y-92457745D01*
X134877368Y-92328770D01*
X134554234Y-91546726D01*
X133956422Y-90947869D01*
X133364305Y-90702000D01*
X137743978Y-90702000D01*
X137553035Y-91233223D01*
X137553035Y-91233223D01*
G37*
X137553035Y-91233223D02*
X137580222Y-91803454D01*
X137746136Y-92204005D01*
X137992255Y-92278139D01*
X138820395Y-91450000D01*
X138806252Y-91435858D01*
X138985858Y-91256252D01*
X139000000Y-91270395D01*
X139014142Y-91256252D01*
X139193748Y-91435858D01*
X139179605Y-91450000D01*
X140007745Y-92278139D01*
X140253864Y-92204005D01*
X140446965Y-91666777D01*
X140419778Y-91096546D01*
X140256351Y-90702000D01*
X144343978Y-90702000D01*
X144153035Y-91233223D01*
X144180222Y-91803454D01*
X144253275Y-91979820D01*
X144109982Y-92122864D01*
X144050000Y-92110717D01*
X142850000Y-92110717D01*
X142617648Y-92154437D01*
X142404247Y-92291757D01*
X142350666Y-92370174D01*
X142308243Y-92304247D01*
X142098717Y-92161083D01*
X141850000Y-92110717D01*
X140650000Y-92110717D01*
X140417648Y-92154437D01*
X140204247Y-92291757D01*
X140061083Y-92501283D01*
X140010717Y-92750000D01*
X140010717Y-93650000D01*
X140054437Y-93882352D01*
X140191757Y-94095753D01*
X140401283Y-94238917D01*
X140546800Y-94268385D01*
X140546800Y-95100000D01*
X140579881Y-95266309D01*
X140600328Y-95369103D01*
X140752763Y-95597237D01*
X141187904Y-96032379D01*
X140847180Y-96173164D01*
X140574105Y-96445763D01*
X140484848Y-96660717D01*
X138850000Y-96660717D01*
X138617648Y-96704437D01*
X138404247Y-96841757D01*
X138261083Y-97051283D01*
X138210717Y-97300000D01*
X138210717Y-98546800D01*
X138085000Y-98546800D01*
X138085000Y-98435750D01*
X137926250Y-98277000D01*
X137325000Y-98277000D01*
X137325000Y-98297000D01*
X137075000Y-98297000D01*
X137075000Y-98277000D01*
X137053000Y-98277000D01*
X137053000Y-98023000D01*
X137075000Y-98023000D01*
X137075000Y-97373750D01*
X137325000Y-97373750D01*
X137325000Y-98023000D01*
X137926250Y-98023000D01*
X138085000Y-97864250D01*
X138085000Y-97723691D01*
X137988327Y-97490302D01*
X137809699Y-97311673D01*
X137576310Y-97215000D01*
X137483750Y-97215000D01*
X137325000Y-97373750D01*
X137075000Y-97373750D01*
X136916250Y-97215000D01*
X136823690Y-97215000D01*
X136670216Y-97278571D01*
X136630796Y-97080396D01*
X136478361Y-96852261D01*
X135028862Y-95402763D01*
X134800728Y-95250328D01*
X134531625Y-95196800D01*
X132501382Y-95196800D01*
X132232279Y-95250328D01*
X132156579Y-95300909D01*
X132004144Y-95402763D01*
X131002762Y-96404147D01*
X130918071Y-96530897D01*
X130850328Y-96632281D01*
X130812008Y-96824930D01*
X130811083Y-96826283D01*
X130760717Y-97075000D01*
X130760717Y-97110717D01*
X130725000Y-97110717D01*
X130702000Y-97115045D01*
X130702000Y-93363315D01*
X130945766Y-93953274D01*
X131543578Y-94552131D01*
X132325057Y-94876630D01*
X133171230Y-94877368D01*
X133953274Y-94554234D01*
X134552131Y-93956422D01*
X134876630Y-93174943D01*
X134877255Y-92457745D01*
X138171861Y-92457745D01*
X138245995Y-92703864D01*
X138783223Y-92896965D01*
X139353454Y-92869778D01*
X139754005Y-92703864D01*
X139828139Y-92457745D01*
X139000000Y-91629605D01*
X138171861Y-92457745D01*
X134877255Y-92457745D01*
X134877368Y-92328770D01*
X134554234Y-91546726D01*
X133956422Y-90947869D01*
X133364305Y-90702000D01*
X137743978Y-90702000D01*
X137553035Y-91233223D01*
G36*
X148061937Y-91498780D02*
X148105657Y-91731132D01*
X148181777Y-91849425D01*
X148112303Y-91951103D01*
X148061937Y-92199820D01*
X148061937Y-92997380D01*
X148105657Y-93229732D01*
X148242977Y-93443133D01*
X148396800Y-93548237D01*
X148396800Y-94598952D01*
X148367648Y-94604437D01*
X148154247Y-94741757D01*
X148011083Y-94951283D01*
X147960717Y-95200000D01*
X147960717Y-96400000D01*
X148004437Y-96632352D01*
X148141757Y-96845753D01*
X148220174Y-96899334D01*
X148154247Y-96941757D01*
X148011083Y-97151283D01*
X147960717Y-97400000D01*
X147960717Y-98049200D01*
X147834082Y-98049200D01*
X147564979Y-98102728D01*
X147439283Y-98186715D01*
X147439283Y-97950000D01*
X147395563Y-97717648D01*
X147383938Y-97699583D01*
X147435000Y-97576309D01*
X147435000Y-97435750D01*
X147276250Y-97277000D01*
X146675000Y-97277000D01*
X146675000Y-97297000D01*
X146425000Y-97297000D01*
X146425000Y-97277000D01*
X145823750Y-97277000D01*
X145689283Y-97411467D01*
X145689283Y-97300000D01*
X145645563Y-97067648D01*
X145508243Y-96854247D01*
X145317170Y-96723691D01*
X145665000Y-96723691D01*
X145665000Y-96864250D01*
X145823750Y-97023000D01*
X146425000Y-97023000D01*
X146425000Y-96373750D01*
X146675000Y-96373750D01*
X146675000Y-97023000D01*
X147276250Y-97023000D01*
X147435000Y-96864250D01*
X147435000Y-96723691D01*
X147338327Y-96490302D01*
X147159699Y-96311673D01*
X146926310Y-96215000D01*
X146833750Y-96215000D01*
X146675000Y-96373750D01*
X146425000Y-96373750D01*
X146266250Y-96215000D01*
X146173690Y-96215000D01*
X145940301Y-96311673D01*
X145761673Y-96490302D01*
X145665000Y-96723691D01*
X145317170Y-96723691D01*
X145298717Y-96711083D01*
X145050000Y-96660717D01*
X143920022Y-96660717D01*
X143920068Y-96607921D01*
X143772720Y-96251314D01*
X143500121Y-95978239D01*
X143143771Y-95830269D01*
X142974596Y-95830121D01*
X141953200Y-94808726D01*
X141953200Y-94269865D01*
X142082352Y-94245563D01*
X142295753Y-94108243D01*
X142349334Y-94029826D01*
X142391757Y-94095753D01*
X142601283Y-94238917D01*
X142850000Y-94289283D01*
X144050000Y-94289283D01*
X144282352Y-94245563D01*
X144495753Y-94108243D01*
X144638917Y-93898717D01*
X144647803Y-93854838D01*
X144673775Y-93849672D01*
X144901909Y-93697237D01*
X144924552Y-93674594D01*
X145092079Y-93674740D01*
X145448686Y-93527392D01*
X145721761Y-93254793D01*
X145869731Y-92898443D01*
X145869753Y-92873769D01*
X145953454Y-92869778D01*
X146354005Y-92703864D01*
X146428139Y-92457745D01*
X145600000Y-91629605D01*
X145585858Y-91643748D01*
X145406253Y-91464143D01*
X145420395Y-91450000D01*
X145406252Y-91435858D01*
X145585858Y-91256252D01*
X145600000Y-91270395D01*
X145614142Y-91256252D01*
X145793748Y-91435858D01*
X145779605Y-91450000D01*
X146607745Y-92278139D01*
X146853864Y-92204005D01*
X147046965Y-91666777D01*
X147019778Y-91096546D01*
X146856351Y-90702000D01*
X148061937Y-90702000D01*
X148061937Y-91498780D01*
X148061937Y-91498780D01*
G37*
X148061937Y-91498780D02*
X148105657Y-91731132D01*
X148181777Y-91849425D01*
X148112303Y-91951103D01*
X148061937Y-92199820D01*
X148061937Y-92997380D01*
X148105657Y-93229732D01*
X148242977Y-93443133D01*
X148396800Y-93548237D01*
X148396800Y-94598952D01*
X148367648Y-94604437D01*
X148154247Y-94741757D01*
X148011083Y-94951283D01*
X147960717Y-95200000D01*
X147960717Y-96400000D01*
X148004437Y-96632352D01*
X148141757Y-96845753D01*
X148220174Y-96899334D01*
X148154247Y-96941757D01*
X148011083Y-97151283D01*
X147960717Y-97400000D01*
X147960717Y-98049200D01*
X147834082Y-98049200D01*
X147564979Y-98102728D01*
X147439283Y-98186715D01*
X147439283Y-97950000D01*
X147395563Y-97717648D01*
X147383938Y-97699583D01*
X147435000Y-97576309D01*
X147435000Y-97435750D01*
X147276250Y-97277000D01*
X146675000Y-97277000D01*
X146675000Y-97297000D01*
X146425000Y-97297000D01*
X146425000Y-97277000D01*
X145823750Y-97277000D01*
X145689283Y-97411467D01*
X145689283Y-97300000D01*
X145645563Y-97067648D01*
X145508243Y-96854247D01*
X145317170Y-96723691D01*
X145665000Y-96723691D01*
X145665000Y-96864250D01*
X145823750Y-97023000D01*
X146425000Y-97023000D01*
X146425000Y-96373750D01*
X146675000Y-96373750D01*
X146675000Y-97023000D01*
X147276250Y-97023000D01*
X147435000Y-96864250D01*
X147435000Y-96723691D01*
X147338327Y-96490302D01*
X147159699Y-96311673D01*
X146926310Y-96215000D01*
X146833750Y-96215000D01*
X146675000Y-96373750D01*
X146425000Y-96373750D01*
X146266250Y-96215000D01*
X146173690Y-96215000D01*
X145940301Y-96311673D01*
X145761673Y-96490302D01*
X145665000Y-96723691D01*
X145317170Y-96723691D01*
X145298717Y-96711083D01*
X145050000Y-96660717D01*
X143920022Y-96660717D01*
X143920068Y-96607921D01*
X143772720Y-96251314D01*
X143500121Y-95978239D01*
X143143771Y-95830269D01*
X142974596Y-95830121D01*
X141953200Y-94808726D01*
X141953200Y-94269865D01*
X142082352Y-94245563D01*
X142295753Y-94108243D01*
X142349334Y-94029826D01*
X142391757Y-94095753D01*
X142601283Y-94238917D01*
X142850000Y-94289283D01*
X144050000Y-94289283D01*
X144282352Y-94245563D01*
X144495753Y-94108243D01*
X144638917Y-93898717D01*
X144647803Y-93854838D01*
X144673775Y-93849672D01*
X144901909Y-93697237D01*
X144924552Y-93674594D01*
X145092079Y-93674740D01*
X145448686Y-93527392D01*
X145721761Y-93254793D01*
X145869731Y-92898443D01*
X145869753Y-92873769D01*
X145953454Y-92869778D01*
X146354005Y-92703864D01*
X146428139Y-92457745D01*
X145600000Y-91629605D01*
X145585858Y-91643748D01*
X145406253Y-91464143D01*
X145420395Y-91450000D01*
X145406252Y-91435858D01*
X145585858Y-91256252D01*
X145600000Y-91270395D01*
X145614142Y-91256252D01*
X145793748Y-91435858D01*
X145779605Y-91450000D01*
X146607745Y-92278139D01*
X146853864Y-92204005D01*
X147046965Y-91666777D01*
X147019778Y-91096546D01*
X146856351Y-90702000D01*
X148061937Y-90702000D01*
X148061937Y-91498780D01*
G36*
X155927000Y-96773000D02*
X155947000Y-96773000D01*
X155947000Y-97027000D01*
X155927000Y-97027000D01*
X155927000Y-97047000D01*
X155673000Y-97047000D01*
X155673000Y-97027000D01*
X155653000Y-97027000D01*
X155653000Y-96773000D01*
X155673000Y-96773000D01*
X155673000Y-96753000D01*
X155927000Y-96753000D01*
X155927000Y-96773000D01*
X155927000Y-96773000D01*
G37*
X155927000Y-96773000D02*
X155947000Y-96773000D01*
X155947000Y-97027000D01*
X155927000Y-97027000D01*
X155927000Y-97047000D01*
X155673000Y-97047000D01*
X155673000Y-97027000D01*
X155653000Y-97027000D01*
X155653000Y-96773000D01*
X155673000Y-96773000D01*
X155673000Y-96753000D01*
X155927000Y-96753000D01*
X155927000Y-96773000D01*
G36*
X154164113Y-93572862D02*
X154156673Y-93580302D01*
X154060000Y-93813691D01*
X154060000Y-94254250D01*
X154218750Y-94413000D01*
X154943000Y-94413000D01*
X154943000Y-94393000D01*
X155197000Y-94393000D01*
X155197000Y-94413000D01*
X155217000Y-94413000D01*
X155217000Y-94667000D01*
X155197000Y-94667000D01*
X155197000Y-94687000D01*
X154943000Y-94687000D01*
X154943000Y-94667000D01*
X154230554Y-94667000D01*
X154148717Y-94611083D01*
X154053200Y-94591740D01*
X154053200Y-93514394D01*
X154105029Y-93481043D01*
X154164113Y-93572862D01*
X154164113Y-93572862D01*
G37*
X154164113Y-93572862D02*
X154156673Y-93580302D01*
X154060000Y-93813691D01*
X154060000Y-94254250D01*
X154218750Y-94413000D01*
X154943000Y-94413000D01*
X154943000Y-94393000D01*
X155197000Y-94393000D01*
X155197000Y-94413000D01*
X155217000Y-94413000D01*
X155217000Y-94667000D01*
X155197000Y-94667000D01*
X155197000Y-94687000D01*
X154943000Y-94687000D01*
X154943000Y-94667000D01*
X154230554Y-94667000D01*
X154148717Y-94611083D01*
X154053200Y-94591740D01*
X154053200Y-93514394D01*
X154105029Y-93481043D01*
X154164113Y-93572862D01*
G36*
X157559437Y-93222352D02*
X157696757Y-93435753D01*
X157802646Y-93508104D01*
X157657000Y-93653750D01*
X157657000Y-93748222D01*
X157566083Y-93881283D01*
X157530524Y-94056879D01*
X157500563Y-93897648D01*
X157403000Y-93746031D01*
X157403000Y-93653750D01*
X157257500Y-93508250D01*
X157350753Y-93448243D01*
X157493917Y-93238717D01*
X157529476Y-93063121D01*
X157559437Y-93222352D01*
X157559437Y-93222352D01*
G37*
X157559437Y-93222352D02*
X157696757Y-93435753D01*
X157802646Y-93508104D01*
X157657000Y-93653750D01*
X157657000Y-93748222D01*
X157566083Y-93881283D01*
X157530524Y-94056879D01*
X157500563Y-93897648D01*
X157403000Y-93746031D01*
X157403000Y-93653750D01*
X157257500Y-93508250D01*
X157350753Y-93448243D01*
X157493917Y-93238717D01*
X157529476Y-93063121D01*
X157559437Y-93222352D01*
M02*
