G04 #@! TF.FileFunction,Soldermask,Bot*
%FSLAX46Y46*%
G04 Gerber Fmt 4.6, Leading zero omitted, Abs format (unit mm)*
G04 Created by KiCad (PCBNEW 4.0.1-stable) date Friday, February 19, 2016 'PMt' 12:33:15 PM*
%MOMM*%
G01*
G04 APERTURE LIST*
%ADD10C,0.100000*%
%ADD11C,2.000000*%
%ADD12R,1.060000X0.630000*%
%ADD13R,1.060000X0.750000*%
%ADD14R,2.127200X2.127200*%
%ADD15O,2.127200X2.127200*%
%ADD16R,1.300000X1.600000*%
%ADD17R,1.600000X1.150000*%
%ADD18R,1.800000X1.450000*%
%ADD19R,1.197560X1.197560*%
%ADD20R,2.000000X1.800000*%
%ADD21R,0.800000X1.750000*%
%ADD22R,2.300000X2.300000*%
%ADD23C,1.924000*%
%ADD24R,1.600000X1.300000*%
%ADD25R,1.200100X1.200100*%
G04 APERTURE END LIST*
D10*
D11*
X134475000Y-120725000D03*
X160725000Y-124600000D03*
X164575000Y-95300000D03*
D12*
X161005000Y-106200000D03*
X158295000Y-106200000D03*
X161005000Y-109800000D03*
X158295000Y-109800000D03*
D13*
X161005000Y-105725000D03*
X158295000Y-105725000D03*
X161005000Y-110275000D03*
X158295000Y-110275000D03*
D12*
X158295000Y-109400000D03*
X161005000Y-109400000D03*
X158295000Y-109000000D03*
X161005000Y-109000000D03*
X158295000Y-108600000D03*
X161005000Y-108600000D03*
X158295000Y-108200000D03*
X161005000Y-108200000D03*
X158295000Y-107800000D03*
X161005000Y-107800000D03*
X158295000Y-107400000D03*
X161005000Y-107400000D03*
X158295000Y-107000000D03*
X161005000Y-107000000D03*
X158295000Y-106600000D03*
X161005000Y-106600000D03*
D14*
X146700000Y-124900000D03*
D15*
X146700000Y-122360000D03*
X144160000Y-124900000D03*
X144160000Y-122360000D03*
X141620000Y-124900000D03*
X141620000Y-122360000D03*
X139080000Y-124900000D03*
X139080000Y-122360000D03*
D16*
X146400000Y-104910000D03*
X146400000Y-107110000D03*
D17*
X141750000Y-104520000D03*
X143650000Y-104520000D03*
D18*
X151790000Y-92260000D03*
X148190000Y-92260000D03*
X151790000Y-90810000D03*
X148190000Y-90810000D03*
D19*
X158450000Y-91100000D03*
X158450000Y-92598600D03*
D20*
X139100000Y-93900000D03*
X145500000Y-93900000D03*
D21*
X141000000Y-94125000D03*
X141650000Y-94125000D03*
X142300000Y-94125000D03*
X142950000Y-94125000D03*
X143600000Y-94125000D03*
D22*
X141100000Y-91450000D03*
X143500000Y-91450000D03*
D11*
X139000000Y-91450000D03*
X145600000Y-91450000D03*
D23*
X164100000Y-120450000D03*
X164100000Y-118400000D03*
D24*
X132800000Y-110350000D03*
X135000000Y-110350000D03*
X132800000Y-112150000D03*
X135000000Y-112150000D03*
X156514800Y-92354400D03*
X154314800Y-92354400D03*
D23*
X141732000Y-108813600D03*
X139598400Y-108813600D03*
D25*
X156375000Y-122999240D03*
X158275000Y-122999240D03*
X157325000Y-124998220D03*
D24*
X158425000Y-121350000D03*
X156225000Y-121350000D03*
D25*
X160700380Y-99050000D03*
X160700380Y-97150000D03*
X162699360Y-98100000D03*
X154875000Y-125000760D03*
X152975000Y-125000760D03*
X153925000Y-123001780D03*
X149300000Y-123050000D03*
X151200000Y-123050000D03*
X150250000Y-125048980D03*
M02*
