G04 #@! TF.FileFunction,Copper,L4,Bot,Signal*
%FSLAX46Y46*%
G04 Gerber Fmt 4.6, Leading zero omitted, Abs format (unit mm)*
G04 Created by KiCad (PCBNEW 4.0.1-stable) date Monday, March 07, 2016 'PMt' 11:58:59 PM*
%MOMM*%
G01*
G04 APERTURE LIST*
%ADD10C,0.100000*%
%ADD11C,0.010000*%
%ADD12C,1.000000*%
%ADD13R,0.660000X0.230000*%
%ADD14R,0.660000X0.350000*%
%ADD15R,1.727200X1.727200*%
%ADD16O,1.727200X1.727200*%
%ADD17R,0.900000X1.200000*%
%ADD18R,1.200000X0.750000*%
%ADD19R,1.400000X1.050000*%
%ADD20R,0.797560X0.797560*%
%ADD21R,1.600000X1.400000*%
%ADD22R,0.400000X1.350000*%
%ADD23R,1.900000X1.900000*%
%ADD24C,1.600000*%
%ADD25C,1.524000*%
%ADD26R,1.200000X0.900000*%
%ADD27R,0.800100X0.800100*%
%ADD28R,1.501140X1.501140*%
%ADD29C,0.685800*%
%ADD30C,0.685801*%
%ADD31C,0.152400*%
%ADD32C,0.175000*%
%ADD33C,0.254000*%
G04 APERTURE END LIST*
D10*
D11*
G36*
X132708088Y-117859328D02*
X132670913Y-117859340D01*
X132638179Y-117859366D01*
X132609594Y-117859411D01*
X132584863Y-117859481D01*
X132563694Y-117859581D01*
X132545792Y-117859715D01*
X132530864Y-117859889D01*
X132518616Y-117860109D01*
X132508753Y-117860379D01*
X132500983Y-117860705D01*
X132495012Y-117861092D01*
X132490546Y-117861544D01*
X132487291Y-117862067D01*
X132484954Y-117862667D01*
X132483240Y-117863349D01*
X132481968Y-117864048D01*
X132475783Y-117869369D01*
X132471483Y-117875738D01*
X132471382Y-117875984D01*
X132470532Y-117879432D01*
X132468838Y-117887481D01*
X132466367Y-117899785D01*
X132463184Y-117915999D01*
X132459356Y-117935777D01*
X132454948Y-117958772D01*
X132450028Y-117984640D01*
X132444661Y-118013034D01*
X132438913Y-118043609D01*
X132432850Y-118076019D01*
X132426539Y-118109918D01*
X132423112Y-118128396D01*
X132416679Y-118163102D01*
X132410465Y-118196614D01*
X132404534Y-118228574D01*
X132398954Y-118258625D01*
X132393791Y-118286411D01*
X132389111Y-118311572D01*
X132384982Y-118333753D01*
X132381469Y-118352596D01*
X132378638Y-118367743D01*
X132376557Y-118378837D01*
X132375292Y-118385522D01*
X132374987Y-118387096D01*
X132374115Y-118391591D01*
X132373215Y-118395572D01*
X132371984Y-118399199D01*
X132370121Y-118402631D01*
X132367322Y-118406027D01*
X132363285Y-118409546D01*
X132357708Y-118413349D01*
X132350288Y-118417593D01*
X132340723Y-118422440D01*
X132328710Y-118428046D01*
X132313946Y-118434573D01*
X132296129Y-118442180D01*
X132274957Y-118451025D01*
X132250127Y-118461268D01*
X132221337Y-118473068D01*
X132188284Y-118486586D01*
X132178372Y-118490639D01*
X132143924Y-118504740D01*
X132113812Y-118517060D01*
X132087706Y-118527692D01*
X132065273Y-118536727D01*
X132046184Y-118544258D01*
X132030106Y-118550378D01*
X132016708Y-118555177D01*
X132005659Y-118558748D01*
X131996628Y-118561184D01*
X131989283Y-118562576D01*
X131983293Y-118563017D01*
X131978327Y-118562599D01*
X131974053Y-118561413D01*
X131970140Y-118559553D01*
X131966257Y-118557110D01*
X131962073Y-118554176D01*
X131958610Y-118551759D01*
X131954105Y-118548675D01*
X131945766Y-118542960D01*
X131933906Y-118534828D01*
X131918839Y-118524496D01*
X131900877Y-118512176D01*
X131880334Y-118498085D01*
X131857523Y-118482437D01*
X131832756Y-118465447D01*
X131806348Y-118447329D01*
X131778612Y-118428299D01*
X131749860Y-118408571D01*
X131738633Y-118400867D01*
X131705033Y-118377819D01*
X131675322Y-118357457D01*
X131649244Y-118339616D01*
X131626546Y-118324130D01*
X131606972Y-118310833D01*
X131590268Y-118299561D01*
X131576181Y-118290146D01*
X131564454Y-118282424D01*
X131554834Y-118276229D01*
X131547066Y-118271394D01*
X131540896Y-118267754D01*
X131536069Y-118265144D01*
X131532331Y-118263398D01*
X131529427Y-118262350D01*
X131527103Y-118261833D01*
X131525105Y-118261684D01*
X131524890Y-118261683D01*
X131513989Y-118261683D01*
X131327242Y-118448429D01*
X131297418Y-118478256D01*
X131270952Y-118504738D01*
X131247642Y-118528086D01*
X131227288Y-118548513D01*
X131209690Y-118566229D01*
X131194648Y-118581445D01*
X131181960Y-118594372D01*
X131171427Y-118605223D01*
X131162848Y-118614207D01*
X131156023Y-118621537D01*
X131150751Y-118627423D01*
X131146832Y-118632076D01*
X131144065Y-118635708D01*
X131142251Y-118638530D01*
X131141188Y-118640754D01*
X131140677Y-118642589D01*
X131140516Y-118644249D01*
X131140505Y-118645217D01*
X131141751Y-118654021D01*
X131144785Y-118662217D01*
X131145227Y-118662985D01*
X131147314Y-118666153D01*
X131152042Y-118673162D01*
X131159202Y-118683709D01*
X131168586Y-118697491D01*
X131179988Y-118714203D01*
X131193199Y-118733542D01*
X131208013Y-118755204D01*
X131224220Y-118778884D01*
X131241615Y-118804279D01*
X131259988Y-118831086D01*
X131279134Y-118858999D01*
X131281821Y-118862916D01*
X131301241Y-118891219D01*
X131320052Y-118918639D01*
X131338034Y-118944850D01*
X131354963Y-118969529D01*
X131370617Y-118992353D01*
X131384774Y-119012997D01*
X131397213Y-119031137D01*
X131407711Y-119046450D01*
X131416046Y-119058611D01*
X131421995Y-119067297D01*
X131425337Y-119072184D01*
X131425475Y-119072386D01*
X131428729Y-119077029D01*
X131431564Y-119081113D01*
X131433883Y-119084966D01*
X131435590Y-119088916D01*
X131436588Y-119093290D01*
X131436782Y-119098418D01*
X131436073Y-119104628D01*
X131434365Y-119112247D01*
X131431563Y-119121604D01*
X131427569Y-119133027D01*
X131422287Y-119146845D01*
X131415619Y-119163385D01*
X131407471Y-119182975D01*
X131397744Y-119205945D01*
X131386343Y-119232621D01*
X131373170Y-119263333D01*
X131360766Y-119292256D01*
X131348541Y-119320761D01*
X131336819Y-119348056D01*
X131325760Y-119373768D01*
X131315525Y-119397524D01*
X131306277Y-119418952D01*
X131298175Y-119437678D01*
X131291380Y-119453330D01*
X131286055Y-119465536D01*
X131282360Y-119473921D01*
X131280456Y-119478114D01*
X131280329Y-119478370D01*
X131275366Y-119485307D01*
X131268959Y-119491298D01*
X131268916Y-119491329D01*
X131267743Y-119492180D01*
X131266582Y-119492962D01*
X131265165Y-119493728D01*
X131263226Y-119494531D01*
X131260495Y-119495425D01*
X131256706Y-119496463D01*
X131251590Y-119497699D01*
X131244881Y-119499185D01*
X131236309Y-119500974D01*
X131225608Y-119503121D01*
X131212510Y-119505678D01*
X131196747Y-119508699D01*
X131178052Y-119512236D01*
X131156155Y-119516344D01*
X131130791Y-119521075D01*
X131101692Y-119526483D01*
X131068588Y-119532621D01*
X131031214Y-119539543D01*
X130989300Y-119547300D01*
X130965713Y-119551666D01*
X130935098Y-119557339D01*
X130905700Y-119562800D01*
X130877924Y-119567972D01*
X130852180Y-119572779D01*
X130828876Y-119577143D01*
X130808420Y-119580989D01*
X130791218Y-119584240D01*
X130777681Y-119586819D01*
X130768214Y-119588650D01*
X130763227Y-119589656D01*
X130762901Y-119589729D01*
X130754138Y-119592846D01*
X130746800Y-119597326D01*
X130745297Y-119598716D01*
X130739377Y-119605018D01*
X130738738Y-119868246D01*
X130738638Y-119910381D01*
X130738557Y-119947778D01*
X130738500Y-119980730D01*
X130738472Y-120009530D01*
X130738477Y-120034469D01*
X130738519Y-120055841D01*
X130738604Y-120073938D01*
X130738735Y-120089052D01*
X130738917Y-120101475D01*
X130739155Y-120111500D01*
X130739454Y-120119419D01*
X130739817Y-120125525D01*
X130740249Y-120130110D01*
X130740755Y-120133466D01*
X130741340Y-120135886D01*
X130742007Y-120137663D01*
X130742762Y-120139088D01*
X130742944Y-120139389D01*
X130749225Y-120146182D01*
X130756157Y-120150019D01*
X130760028Y-120150937D01*
X130768410Y-120152681D01*
X130780868Y-120155167D01*
X130796965Y-120158312D01*
X130816267Y-120162032D01*
X130838338Y-120166243D01*
X130862742Y-120170861D01*
X130889043Y-120175803D01*
X130916807Y-120180984D01*
X130927990Y-120183062D01*
X130973922Y-120191585D01*
X131015167Y-120199241D01*
X131051983Y-120206081D01*
X131084630Y-120212152D01*
X131113365Y-120217503D01*
X131138447Y-120222184D01*
X131160135Y-120226244D01*
X131178687Y-120229731D01*
X131194363Y-120232695D01*
X131207420Y-120235184D01*
X131218117Y-120237248D01*
X131226713Y-120238935D01*
X131233467Y-120240294D01*
X131238636Y-120241375D01*
X131242480Y-120242226D01*
X131245257Y-120242896D01*
X131247226Y-120243435D01*
X131247923Y-120243649D01*
X131255206Y-120247446D01*
X131261792Y-120253110D01*
X131262073Y-120253437D01*
X131263945Y-120256873D01*
X131267524Y-120264645D01*
X131272671Y-120276416D01*
X131279243Y-120291844D01*
X131287099Y-120310589D01*
X131296099Y-120332313D01*
X131306101Y-120356674D01*
X131316963Y-120383333D01*
X131328546Y-120411951D01*
X131340706Y-120442186D01*
X131346807Y-120457423D01*
X131360741Y-120492282D01*
X131372919Y-120522781D01*
X131383457Y-120549233D01*
X131392467Y-120571948D01*
X131400064Y-120591239D01*
X131406361Y-120607415D01*
X131411473Y-120620787D01*
X131415513Y-120631668D01*
X131418594Y-120640367D01*
X131420832Y-120647196D01*
X131422339Y-120652467D01*
X131423230Y-120656489D01*
X131423619Y-120659575D01*
X131423618Y-120662035D01*
X131423343Y-120664180D01*
X131423039Y-120665703D01*
X131422086Y-120668459D01*
X131420024Y-120672672D01*
X131416706Y-120678563D01*
X131411984Y-120686354D01*
X131405712Y-120696268D01*
X131397743Y-120708525D01*
X131387930Y-120723349D01*
X131376125Y-120740961D01*
X131362182Y-120761583D01*
X131345955Y-120785436D01*
X131327295Y-120812743D01*
X131306057Y-120843726D01*
X131282093Y-120878606D01*
X131281380Y-120879643D01*
X131261661Y-120908371D01*
X131242752Y-120936022D01*
X131224849Y-120962303D01*
X131208149Y-120986922D01*
X131192849Y-121009585D01*
X131179143Y-121030000D01*
X131167229Y-121047874D01*
X131157302Y-121062914D01*
X131149559Y-121074828D01*
X131144196Y-121083324D01*
X131141410Y-121088107D01*
X131141049Y-121088972D01*
X131140811Y-121096912D01*
X131141621Y-121102804D01*
X131143555Y-121105722D01*
X131148723Y-121111774D01*
X131157163Y-121121002D01*
X131168914Y-121133444D01*
X131184015Y-121149142D01*
X131202506Y-121168136D01*
X131224425Y-121190466D01*
X131249811Y-121216172D01*
X131278704Y-121245294D01*
X131311142Y-121277873D01*
X131324857Y-121291619D01*
X131350071Y-121316847D01*
X131374379Y-121341107D01*
X131397532Y-121364157D01*
X131419286Y-121385753D01*
X131439392Y-121405654D01*
X131457605Y-121423615D01*
X131473679Y-121439396D01*
X131487366Y-121452752D01*
X131498421Y-121463442D01*
X131506596Y-121471223D01*
X131511646Y-121475851D01*
X131513197Y-121477089D01*
X131523167Y-121480352D01*
X131533388Y-121479312D01*
X131544711Y-121473848D01*
X131546990Y-121472346D01*
X131550864Y-121469695D01*
X131558564Y-121464419D01*
X131569771Y-121456737D01*
X131584164Y-121446870D01*
X131601422Y-121435037D01*
X131621224Y-121421458D01*
X131643251Y-121406352D01*
X131667182Y-121389940D01*
X131692695Y-121372442D01*
X131719471Y-121354077D01*
X131744060Y-121337211D01*
X131771583Y-121318348D01*
X131798062Y-121300232D01*
X131823184Y-121283074D01*
X131846637Y-121267087D01*
X131868108Y-121252482D01*
X131887284Y-121239473D01*
X131903853Y-121228271D01*
X131917502Y-121219088D01*
X131927918Y-121212136D01*
X131934788Y-121207629D01*
X131937703Y-121205825D01*
X131949517Y-121202294D01*
X131955893Y-121202398D01*
X131960598Y-121203917D01*
X131969365Y-121207726D01*
X131981865Y-121213662D01*
X131997769Y-121221562D01*
X132016747Y-121231264D01*
X132038471Y-121242606D01*
X132055441Y-121251596D01*
X132079166Y-121264199D01*
X132098898Y-121274565D01*
X132115058Y-121282860D01*
X132128073Y-121289252D01*
X132138364Y-121293908D01*
X132146356Y-121296995D01*
X132152474Y-121298680D01*
X132157139Y-121299131D01*
X132160777Y-121298513D01*
X132163811Y-121296994D01*
X132166111Y-121295222D01*
X132167691Y-121292374D01*
X132171115Y-121285011D01*
X132176325Y-121273274D01*
X132183263Y-121257305D01*
X132191867Y-121237245D01*
X132202080Y-121213234D01*
X132213841Y-121185413D01*
X132227092Y-121153924D01*
X132241773Y-121118906D01*
X132257825Y-121080501D01*
X132275188Y-121038850D01*
X132293804Y-120994094D01*
X132313612Y-120946374D01*
X132334554Y-120895830D01*
X132351412Y-120855080D01*
X132373293Y-120802154D01*
X132393328Y-120753674D01*
X132411597Y-120709444D01*
X132428179Y-120669263D01*
X132443155Y-120632932D01*
X132456604Y-120600253D01*
X132468605Y-120571026D01*
X132479237Y-120545052D01*
X132488581Y-120522131D01*
X132496715Y-120502066D01*
X132503720Y-120484657D01*
X132509675Y-120469704D01*
X132514658Y-120457009D01*
X132518751Y-120446373D01*
X132522032Y-120437595D01*
X132524581Y-120430478D01*
X132526478Y-120424823D01*
X132527801Y-120420429D01*
X132528631Y-120417099D01*
X132529047Y-120414632D01*
X132529129Y-120412830D01*
X132528955Y-120411494D01*
X132528801Y-120410950D01*
X132526401Y-120405298D01*
X132522758Y-120400243D01*
X132517088Y-120395085D01*
X132508605Y-120389125D01*
X132496525Y-120381663D01*
X132494743Y-120380602D01*
X132482865Y-120373219D01*
X132469948Y-120364680D01*
X132458509Y-120356656D01*
X132457020Y-120355558D01*
X132447351Y-120348368D01*
X132435428Y-120339506D01*
X132423037Y-120330299D01*
X132415525Y-120324719D01*
X132374275Y-120290988D01*
X132336484Y-120253697D01*
X132302402Y-120213121D01*
X132272276Y-120169533D01*
X132266476Y-120160024D01*
X132243699Y-120117314D01*
X132224372Y-120071638D01*
X132208827Y-120023973D01*
X132197393Y-119975300D01*
X132191768Y-119939155D01*
X132190170Y-119920627D01*
X132189306Y-119898600D01*
X132189150Y-119874549D01*
X132189679Y-119849948D01*
X132190871Y-119826271D01*
X132192700Y-119804991D01*
X132194086Y-119794045D01*
X132204253Y-119741737D01*
X132219004Y-119691214D01*
X132238161Y-119642723D01*
X132261544Y-119596508D01*
X132288976Y-119552817D01*
X132320276Y-119511897D01*
X132355268Y-119473992D01*
X132393771Y-119439350D01*
X132435607Y-119408217D01*
X132480597Y-119380840D01*
X132502023Y-119369712D01*
X132549354Y-119348956D01*
X132597538Y-119332984D01*
X132646956Y-119321707D01*
X132697990Y-119315039D01*
X132750000Y-119312891D01*
X132795157Y-119314365D01*
X132837525Y-119318928D01*
X132878438Y-119326788D01*
X132919231Y-119338152D01*
X132926040Y-119340378D01*
X132975295Y-119359370D01*
X133022148Y-119382596D01*
X133066357Y-119409815D01*
X133107681Y-119440788D01*
X133145878Y-119475275D01*
X133180705Y-119513036D01*
X133211922Y-119553832D01*
X133239286Y-119597422D01*
X133262555Y-119643567D01*
X133281488Y-119692026D01*
X133281926Y-119693329D01*
X133293093Y-119730050D01*
X133301334Y-119765126D01*
X133306898Y-119800130D01*
X133310035Y-119836637D01*
X133310996Y-119876084D01*
X133310010Y-119913824D01*
X133306943Y-119948572D01*
X133301524Y-119982030D01*
X133293479Y-120015900D01*
X133283244Y-120049742D01*
X133264300Y-120099412D01*
X133241005Y-120146635D01*
X133213510Y-120191205D01*
X133181962Y-120232917D01*
X133146510Y-120271564D01*
X133107303Y-120306943D01*
X133084476Y-120324723D01*
X133073319Y-120332991D01*
X133062037Y-120341394D01*
X133052162Y-120348788D01*
X133046753Y-120352869D01*
X133038530Y-120358763D01*
X133027668Y-120366081D01*
X133015866Y-120373693D01*
X133009030Y-120377937D01*
X132995831Y-120386145D01*
X132986314Y-120392542D01*
X132979759Y-120397755D01*
X132975450Y-120402410D01*
X132972667Y-120407134D01*
X132971195Y-120410963D01*
X132970925Y-120412144D01*
X132970869Y-120413689D01*
X132971108Y-120415799D01*
X132971720Y-120418672D01*
X132972786Y-120422506D01*
X132974385Y-120427503D01*
X132976596Y-120433860D01*
X132979499Y-120441776D01*
X132983174Y-120451451D01*
X132987700Y-120463084D01*
X132993156Y-120476874D01*
X132999623Y-120493020D01*
X133007179Y-120511722D01*
X133015904Y-120533177D01*
X133025879Y-120557586D01*
X133037181Y-120585148D01*
X133049892Y-120616061D01*
X133064089Y-120650526D01*
X133079854Y-120688740D01*
X133097265Y-120730903D01*
X133116402Y-120777214D01*
X133137345Y-120827873D01*
X133148600Y-120855093D01*
X133170160Y-120907188D01*
X133190674Y-120956673D01*
X133210082Y-121003400D01*
X133228320Y-121047222D01*
X133245326Y-121087990D01*
X133261040Y-121125558D01*
X133275397Y-121159776D01*
X133288336Y-121190499D01*
X133299795Y-121217577D01*
X133309712Y-121240864D01*
X133318024Y-121260211D01*
X133324669Y-121275471D01*
X133329585Y-121286495D01*
X133332710Y-121293138D01*
X133333906Y-121295222D01*
X133340245Y-121298499D01*
X133346575Y-121299623D01*
X133351132Y-121298370D01*
X133359986Y-121294631D01*
X133373076Y-121288434D01*
X133390345Y-121279809D01*
X133411731Y-121268785D01*
X133437177Y-121255390D01*
X133443747Y-121251898D01*
X133463566Y-121241410D01*
X133482263Y-121231640D01*
X133499316Y-121222852D01*
X133514202Y-121215310D01*
X133526397Y-121209279D01*
X133535378Y-121205022D01*
X133540623Y-121202804D01*
X133541425Y-121202569D01*
X133549854Y-121202265D01*
X133557221Y-121203666D01*
X133560416Y-121205468D01*
X133567440Y-121209915D01*
X133577981Y-121216797D01*
X133591729Y-121225905D01*
X133608370Y-121237028D01*
X133627593Y-121249958D01*
X133649086Y-121264484D01*
X133672537Y-121280396D01*
X133697635Y-121297486D01*
X133724067Y-121315542D01*
X133747845Y-121331834D01*
X133775465Y-121350782D01*
X133802206Y-121369127D01*
X133827735Y-121386639D01*
X133851719Y-121403089D01*
X133873823Y-121418249D01*
X133893715Y-121431890D01*
X133911060Y-121443784D01*
X133925525Y-121453700D01*
X133936777Y-121461411D01*
X133944480Y-121466688D01*
X133947857Y-121468997D01*
X133959920Y-121476348D01*
X133969716Y-121480042D01*
X133978244Y-121480249D01*
X133986501Y-121477140D01*
X133988565Y-121475912D01*
X133991364Y-121473496D01*
X133997461Y-121467759D01*
X134006606Y-121458946D01*
X134018552Y-121447303D01*
X134033049Y-121433076D01*
X134049849Y-121416510D01*
X134068703Y-121397851D01*
X134089362Y-121377345D01*
X134111577Y-121355237D01*
X134135100Y-121331772D01*
X134159682Y-121307196D01*
X134176401Y-121290451D01*
X134210136Y-121256593D01*
X134240310Y-121226208D01*
X134266961Y-121199257D01*
X134290126Y-121175702D01*
X134309845Y-121155503D01*
X134326155Y-121138619D01*
X134339095Y-121125013D01*
X134348703Y-121114645D01*
X134355016Y-121107474D01*
X134358074Y-121103463D01*
X134358380Y-121102804D01*
X134359280Y-121094838D01*
X134358965Y-121088972D01*
X134357408Y-121085961D01*
X134353186Y-121079106D01*
X134346496Y-121068700D01*
X134337532Y-121055035D01*
X134326492Y-121038405D01*
X134313572Y-121019102D01*
X134298968Y-120997418D01*
X134282876Y-120973647D01*
X134265493Y-120948081D01*
X134247014Y-120921013D01*
X134227636Y-120892735D01*
X134218640Y-120879643D01*
X134194589Y-120844639D01*
X134173267Y-120813539D01*
X134154530Y-120786121D01*
X134138229Y-120762165D01*
X134124219Y-120741447D01*
X134112352Y-120723747D01*
X134102482Y-120708844D01*
X134094461Y-120696515D01*
X134088144Y-120686539D01*
X134083384Y-120678694D01*
X134080033Y-120672759D01*
X134077946Y-120668513D01*
X134076975Y-120665733D01*
X134076968Y-120665703D01*
X134076564Y-120663591D01*
X134076352Y-120661390D01*
X134076447Y-120658789D01*
X134076963Y-120655475D01*
X134078013Y-120651139D01*
X134079711Y-120645468D01*
X134082171Y-120638151D01*
X134085508Y-120628877D01*
X134089834Y-120617335D01*
X134095264Y-120603213D01*
X134101913Y-120586201D01*
X134109893Y-120565986D01*
X134119318Y-120542258D01*
X134130304Y-120514705D01*
X134142962Y-120483017D01*
X134153095Y-120457669D01*
X134165140Y-120427618D01*
X134176744Y-120398812D01*
X134187761Y-120371606D01*
X134198043Y-120346358D01*
X134207444Y-120323425D01*
X134215815Y-120303164D01*
X134223011Y-120285931D01*
X134228883Y-120272083D01*
X134233284Y-120261977D01*
X134236068Y-120255970D01*
X134236912Y-120254467D01*
X134243162Y-120248611D01*
X134249903Y-120244588D01*
X134253441Y-120243678D01*
X134261575Y-120241925D01*
X134273952Y-120239397D01*
X134290221Y-120236162D01*
X134310030Y-120232289D01*
X134333027Y-120227844D01*
X134358861Y-120222896D01*
X134387180Y-120217512D01*
X134417633Y-120211761D01*
X134449867Y-120205710D01*
X134483532Y-120199427D01*
X134496565Y-120197004D01*
X134530693Y-120190655D01*
X134563535Y-120184523D01*
X134594739Y-120178675D01*
X134623951Y-120173179D01*
X134650819Y-120168101D01*
X134674989Y-120163509D01*
X134696110Y-120159469D01*
X134713829Y-120156049D01*
X134727792Y-120153316D01*
X134737648Y-120151337D01*
X134743042Y-120150179D01*
X134743843Y-120149970D01*
X134751755Y-120145394D01*
X134757057Y-120139389D01*
X134757832Y-120138002D01*
X134758519Y-120136330D01*
X134759121Y-120134080D01*
X134759645Y-120130959D01*
X134760093Y-120126675D01*
X134760471Y-120120936D01*
X134760784Y-120113449D01*
X134761035Y-120103921D01*
X134761229Y-120092061D01*
X134761372Y-120077577D01*
X134761466Y-120060175D01*
X134761518Y-120039563D01*
X134761530Y-120015449D01*
X134761509Y-119987540D01*
X134761459Y-119955545D01*
X134761383Y-119919170D01*
X134761287Y-119878123D01*
X134761263Y-119868246D01*
X134760624Y-119605018D01*
X134754629Y-119598637D01*
X134753751Y-119597558D01*
X134753137Y-119596630D01*
X134752508Y-119595794D01*
X134751588Y-119594993D01*
X134750099Y-119594170D01*
X134747765Y-119593267D01*
X134744308Y-119592228D01*
X134739450Y-119590993D01*
X134732915Y-119589507D01*
X134724425Y-119587712D01*
X134713703Y-119585550D01*
X134700472Y-119582964D01*
X134684454Y-119579897D01*
X134665373Y-119576290D01*
X134642951Y-119572087D01*
X134616911Y-119567231D01*
X134586975Y-119561663D01*
X134552867Y-119555327D01*
X134514309Y-119548165D01*
X134480967Y-119541969D01*
X134440106Y-119534373D01*
X134403896Y-119527633D01*
X134372048Y-119521678D01*
X134344270Y-119516438D01*
X134320271Y-119511841D01*
X134299760Y-119507816D01*
X134282445Y-119504294D01*
X134268036Y-119501202D01*
X134256241Y-119498470D01*
X134246768Y-119496027D01*
X134239328Y-119493802D01*
X134233628Y-119491724D01*
X134229378Y-119489723D01*
X134226286Y-119487728D01*
X134224062Y-119485667D01*
X134222413Y-119483470D01*
X134221049Y-119481066D01*
X134219679Y-119478384D01*
X134219672Y-119478370D01*
X134218068Y-119474878D01*
X134214646Y-119467134D01*
X134209569Y-119455510D01*
X134202998Y-119440381D01*
X134195093Y-119422119D01*
X134186015Y-119401096D01*
X134175927Y-119377685D01*
X134164988Y-119352259D01*
X134153360Y-119325190D01*
X134141205Y-119296853D01*
X134139235Y-119292256D01*
X134124512Y-119257931D01*
X134111642Y-119227914D01*
X134100526Y-119201878D01*
X134091069Y-119179494D01*
X134083174Y-119160435D01*
X134076744Y-119144371D01*
X134071683Y-119130975D01*
X134067893Y-119119918D01*
X134065279Y-119110873D01*
X134063744Y-119103511D01*
X134063191Y-119097503D01*
X134063523Y-119092522D01*
X134064644Y-119088240D01*
X134066457Y-119084328D01*
X134068866Y-119080457D01*
X134071774Y-119076301D01*
X134074506Y-119072386D01*
X134077631Y-119067811D01*
X134083382Y-119059410D01*
X134091537Y-119047505D01*
X134101878Y-119032415D01*
X134114184Y-119014463D01*
X134128234Y-118993969D01*
X134143809Y-118971255D01*
X134160688Y-118946642D01*
X134178652Y-118920451D01*
X134197479Y-118893003D01*
X134216950Y-118864620D01*
X134219970Y-118860217D01*
X134239293Y-118832039D01*
X134257840Y-118804966D01*
X134275408Y-118779298D01*
X134291794Y-118755329D01*
X134306798Y-118733359D01*
X134320215Y-118713683D01*
X134331843Y-118696599D01*
X134341480Y-118682404D01*
X134348923Y-118671394D01*
X134353970Y-118663867D01*
X134356418Y-118660120D01*
X134356593Y-118659823D01*
X134358557Y-118653596D01*
X134359493Y-118645669D01*
X134359505Y-118644753D01*
X134359424Y-118643141D01*
X134359045Y-118641404D01*
X134358169Y-118639332D01*
X134356595Y-118636714D01*
X134354123Y-118633339D01*
X134350552Y-118628996D01*
X134345682Y-118623476D01*
X134339314Y-118616567D01*
X134331246Y-118608059D01*
X134321277Y-118597740D01*
X134309209Y-118585402D01*
X134294840Y-118570832D01*
X134277969Y-118553820D01*
X134258398Y-118534155D01*
X134235924Y-118511628D01*
X134210348Y-118486027D01*
X134181470Y-118457141D01*
X134172759Y-118448429D01*
X133986012Y-118261683D01*
X133975028Y-118261683D01*
X133973631Y-118261594D01*
X133972509Y-118261417D01*
X133971457Y-118261286D01*
X133970273Y-118261335D01*
X133968753Y-118261700D01*
X133966695Y-118262514D01*
X133963895Y-118263912D01*
X133960149Y-118266028D01*
X133955256Y-118268997D01*
X133949011Y-118272953D01*
X133941211Y-118278030D01*
X133931654Y-118284364D01*
X133920136Y-118292087D01*
X133906454Y-118301336D01*
X133890405Y-118312243D01*
X133871785Y-118324944D01*
X133850392Y-118339574D01*
X133826022Y-118356265D01*
X133798472Y-118375153D01*
X133767540Y-118396373D01*
X133733021Y-118420058D01*
X133694713Y-118446344D01*
X133661967Y-118468809D01*
X133634669Y-118487530D01*
X133611196Y-118503605D01*
X133591228Y-118517235D01*
X133574444Y-118528622D01*
X133560525Y-118537967D01*
X133549149Y-118545472D01*
X133539997Y-118551339D01*
X133532747Y-118555769D01*
X133527081Y-118558963D01*
X133522677Y-118561124D01*
X133519214Y-118562454D01*
X133516373Y-118563152D01*
X133513834Y-118563422D01*
X133511549Y-118563465D01*
X133508594Y-118563229D01*
X133504602Y-118562441D01*
X133499258Y-118560979D01*
X133492245Y-118558723D01*
X133483246Y-118555553D01*
X133471946Y-118551347D01*
X133458028Y-118545985D01*
X133441176Y-118539345D01*
X133421073Y-118531308D01*
X133397404Y-118521752D01*
X133369852Y-118510556D01*
X133338100Y-118497600D01*
X133323859Y-118491777D01*
X133295554Y-118480172D01*
X133268505Y-118469031D01*
X133243088Y-118458511D01*
X133219681Y-118448772D01*
X133198659Y-118439970D01*
X133180399Y-118432266D01*
X133165278Y-118425816D01*
X133153673Y-118420779D01*
X133145959Y-118417313D01*
X133142514Y-118415577D01*
X133142473Y-118415547D01*
X133140215Y-118413863D01*
X133138170Y-118412155D01*
X133136271Y-118410136D01*
X133134453Y-118407517D01*
X133132649Y-118404014D01*
X133130793Y-118399338D01*
X133128819Y-118393203D01*
X133126661Y-118385322D01*
X133124253Y-118375407D01*
X133121529Y-118363173D01*
X133118423Y-118348331D01*
X133114869Y-118330596D01*
X133110800Y-118309680D01*
X133106151Y-118285296D01*
X133100856Y-118257158D01*
X133094848Y-118224977D01*
X133088061Y-118188468D01*
X133080430Y-118147344D01*
X133079229Y-118140869D01*
X133072643Y-118105447D01*
X133066272Y-118071329D01*
X133060181Y-118038850D01*
X133054433Y-118008348D01*
X133049093Y-117980159D01*
X133044226Y-117954620D01*
X133039895Y-117932068D01*
X133036166Y-117912838D01*
X133033102Y-117897269D01*
X133030767Y-117885695D01*
X133029227Y-117878455D01*
X133028600Y-117875984D01*
X133024451Y-117869638D01*
X133018299Y-117864214D01*
X133018032Y-117864048D01*
X133016632Y-117863288D01*
X133014877Y-117862614D01*
X133012474Y-117862020D01*
X133009128Y-117861503D01*
X133004546Y-117861056D01*
X132998435Y-117860675D01*
X132990499Y-117860354D01*
X132980447Y-117860089D01*
X132967983Y-117859873D01*
X132952815Y-117859702D01*
X132934649Y-117859571D01*
X132913190Y-117859474D01*
X132888145Y-117859406D01*
X132859221Y-117859363D01*
X132826124Y-117859338D01*
X132788559Y-117859328D01*
X132750000Y-117859325D01*
X132708088Y-117859328D01*
X132708088Y-117859328D01*
G37*
X132708088Y-117859328D02*
X132670913Y-117859340D01*
X132638179Y-117859366D01*
X132609594Y-117859411D01*
X132584863Y-117859481D01*
X132563694Y-117859581D01*
X132545792Y-117859715D01*
X132530864Y-117859889D01*
X132518616Y-117860109D01*
X132508753Y-117860379D01*
X132500983Y-117860705D01*
X132495012Y-117861092D01*
X132490546Y-117861544D01*
X132487291Y-117862067D01*
X132484954Y-117862667D01*
X132483240Y-117863349D01*
X132481968Y-117864048D01*
X132475783Y-117869369D01*
X132471483Y-117875738D01*
X132471382Y-117875984D01*
X132470532Y-117879432D01*
X132468838Y-117887481D01*
X132466367Y-117899785D01*
X132463184Y-117915999D01*
X132459356Y-117935777D01*
X132454948Y-117958772D01*
X132450028Y-117984640D01*
X132444661Y-118013034D01*
X132438913Y-118043609D01*
X132432850Y-118076019D01*
X132426539Y-118109918D01*
X132423112Y-118128396D01*
X132416679Y-118163102D01*
X132410465Y-118196614D01*
X132404534Y-118228574D01*
X132398954Y-118258625D01*
X132393791Y-118286411D01*
X132389111Y-118311572D01*
X132384982Y-118333753D01*
X132381469Y-118352596D01*
X132378638Y-118367743D01*
X132376557Y-118378837D01*
X132375292Y-118385522D01*
X132374987Y-118387096D01*
X132374115Y-118391591D01*
X132373215Y-118395572D01*
X132371984Y-118399199D01*
X132370121Y-118402631D01*
X132367322Y-118406027D01*
X132363285Y-118409546D01*
X132357708Y-118413349D01*
X132350288Y-118417593D01*
X132340723Y-118422440D01*
X132328710Y-118428046D01*
X132313946Y-118434573D01*
X132296129Y-118442180D01*
X132274957Y-118451025D01*
X132250127Y-118461268D01*
X132221337Y-118473068D01*
X132188284Y-118486586D01*
X132178372Y-118490639D01*
X132143924Y-118504740D01*
X132113812Y-118517060D01*
X132087706Y-118527692D01*
X132065273Y-118536727D01*
X132046184Y-118544258D01*
X132030106Y-118550378D01*
X132016708Y-118555177D01*
X132005659Y-118558748D01*
X131996628Y-118561184D01*
X131989283Y-118562576D01*
X131983293Y-118563017D01*
X131978327Y-118562599D01*
X131974053Y-118561413D01*
X131970140Y-118559553D01*
X131966257Y-118557110D01*
X131962073Y-118554176D01*
X131958610Y-118551759D01*
X131954105Y-118548675D01*
X131945766Y-118542960D01*
X131933906Y-118534828D01*
X131918839Y-118524496D01*
X131900877Y-118512176D01*
X131880334Y-118498085D01*
X131857523Y-118482437D01*
X131832756Y-118465447D01*
X131806348Y-118447329D01*
X131778612Y-118428299D01*
X131749860Y-118408571D01*
X131738633Y-118400867D01*
X131705033Y-118377819D01*
X131675322Y-118357457D01*
X131649244Y-118339616D01*
X131626546Y-118324130D01*
X131606972Y-118310833D01*
X131590268Y-118299561D01*
X131576181Y-118290146D01*
X131564454Y-118282424D01*
X131554834Y-118276229D01*
X131547066Y-118271394D01*
X131540896Y-118267754D01*
X131536069Y-118265144D01*
X131532331Y-118263398D01*
X131529427Y-118262350D01*
X131527103Y-118261833D01*
X131525105Y-118261684D01*
X131524890Y-118261683D01*
X131513989Y-118261683D01*
X131327242Y-118448429D01*
X131297418Y-118478256D01*
X131270952Y-118504738D01*
X131247642Y-118528086D01*
X131227288Y-118548513D01*
X131209690Y-118566229D01*
X131194648Y-118581445D01*
X131181960Y-118594372D01*
X131171427Y-118605223D01*
X131162848Y-118614207D01*
X131156023Y-118621537D01*
X131150751Y-118627423D01*
X131146832Y-118632076D01*
X131144065Y-118635708D01*
X131142251Y-118638530D01*
X131141188Y-118640754D01*
X131140677Y-118642589D01*
X131140516Y-118644249D01*
X131140505Y-118645217D01*
X131141751Y-118654021D01*
X131144785Y-118662217D01*
X131145227Y-118662985D01*
X131147314Y-118666153D01*
X131152042Y-118673162D01*
X131159202Y-118683709D01*
X131168586Y-118697491D01*
X131179988Y-118714203D01*
X131193199Y-118733542D01*
X131208013Y-118755204D01*
X131224220Y-118778884D01*
X131241615Y-118804279D01*
X131259988Y-118831086D01*
X131279134Y-118858999D01*
X131281821Y-118862916D01*
X131301241Y-118891219D01*
X131320052Y-118918639D01*
X131338034Y-118944850D01*
X131354963Y-118969529D01*
X131370617Y-118992353D01*
X131384774Y-119012997D01*
X131397213Y-119031137D01*
X131407711Y-119046450D01*
X131416046Y-119058611D01*
X131421995Y-119067297D01*
X131425337Y-119072184D01*
X131425475Y-119072386D01*
X131428729Y-119077029D01*
X131431564Y-119081113D01*
X131433883Y-119084966D01*
X131435590Y-119088916D01*
X131436588Y-119093290D01*
X131436782Y-119098418D01*
X131436073Y-119104628D01*
X131434365Y-119112247D01*
X131431563Y-119121604D01*
X131427569Y-119133027D01*
X131422287Y-119146845D01*
X131415619Y-119163385D01*
X131407471Y-119182975D01*
X131397744Y-119205945D01*
X131386343Y-119232621D01*
X131373170Y-119263333D01*
X131360766Y-119292256D01*
X131348541Y-119320761D01*
X131336819Y-119348056D01*
X131325760Y-119373768D01*
X131315525Y-119397524D01*
X131306277Y-119418952D01*
X131298175Y-119437678D01*
X131291380Y-119453330D01*
X131286055Y-119465536D01*
X131282360Y-119473921D01*
X131280456Y-119478114D01*
X131280329Y-119478370D01*
X131275366Y-119485307D01*
X131268959Y-119491298D01*
X131268916Y-119491329D01*
X131267743Y-119492180D01*
X131266582Y-119492962D01*
X131265165Y-119493728D01*
X131263226Y-119494531D01*
X131260495Y-119495425D01*
X131256706Y-119496463D01*
X131251590Y-119497699D01*
X131244881Y-119499185D01*
X131236309Y-119500974D01*
X131225608Y-119503121D01*
X131212510Y-119505678D01*
X131196747Y-119508699D01*
X131178052Y-119512236D01*
X131156155Y-119516344D01*
X131130791Y-119521075D01*
X131101692Y-119526483D01*
X131068588Y-119532621D01*
X131031214Y-119539543D01*
X130989300Y-119547300D01*
X130965713Y-119551666D01*
X130935098Y-119557339D01*
X130905700Y-119562800D01*
X130877924Y-119567972D01*
X130852180Y-119572779D01*
X130828876Y-119577143D01*
X130808420Y-119580989D01*
X130791218Y-119584240D01*
X130777681Y-119586819D01*
X130768214Y-119588650D01*
X130763227Y-119589656D01*
X130762901Y-119589729D01*
X130754138Y-119592846D01*
X130746800Y-119597326D01*
X130745297Y-119598716D01*
X130739377Y-119605018D01*
X130738738Y-119868246D01*
X130738638Y-119910381D01*
X130738557Y-119947778D01*
X130738500Y-119980730D01*
X130738472Y-120009530D01*
X130738477Y-120034469D01*
X130738519Y-120055841D01*
X130738604Y-120073938D01*
X130738735Y-120089052D01*
X130738917Y-120101475D01*
X130739155Y-120111500D01*
X130739454Y-120119419D01*
X130739817Y-120125525D01*
X130740249Y-120130110D01*
X130740755Y-120133466D01*
X130741340Y-120135886D01*
X130742007Y-120137663D01*
X130742762Y-120139088D01*
X130742944Y-120139389D01*
X130749225Y-120146182D01*
X130756157Y-120150019D01*
X130760028Y-120150937D01*
X130768410Y-120152681D01*
X130780868Y-120155167D01*
X130796965Y-120158312D01*
X130816267Y-120162032D01*
X130838338Y-120166243D01*
X130862742Y-120170861D01*
X130889043Y-120175803D01*
X130916807Y-120180984D01*
X130927990Y-120183062D01*
X130973922Y-120191585D01*
X131015167Y-120199241D01*
X131051983Y-120206081D01*
X131084630Y-120212152D01*
X131113365Y-120217503D01*
X131138447Y-120222184D01*
X131160135Y-120226244D01*
X131178687Y-120229731D01*
X131194363Y-120232695D01*
X131207420Y-120235184D01*
X131218117Y-120237248D01*
X131226713Y-120238935D01*
X131233467Y-120240294D01*
X131238636Y-120241375D01*
X131242480Y-120242226D01*
X131245257Y-120242896D01*
X131247226Y-120243435D01*
X131247923Y-120243649D01*
X131255206Y-120247446D01*
X131261792Y-120253110D01*
X131262073Y-120253437D01*
X131263945Y-120256873D01*
X131267524Y-120264645D01*
X131272671Y-120276416D01*
X131279243Y-120291844D01*
X131287099Y-120310589D01*
X131296099Y-120332313D01*
X131306101Y-120356674D01*
X131316963Y-120383333D01*
X131328546Y-120411951D01*
X131340706Y-120442186D01*
X131346807Y-120457423D01*
X131360741Y-120492282D01*
X131372919Y-120522781D01*
X131383457Y-120549233D01*
X131392467Y-120571948D01*
X131400064Y-120591239D01*
X131406361Y-120607415D01*
X131411473Y-120620787D01*
X131415513Y-120631668D01*
X131418594Y-120640367D01*
X131420832Y-120647196D01*
X131422339Y-120652467D01*
X131423230Y-120656489D01*
X131423619Y-120659575D01*
X131423618Y-120662035D01*
X131423343Y-120664180D01*
X131423039Y-120665703D01*
X131422086Y-120668459D01*
X131420024Y-120672672D01*
X131416706Y-120678563D01*
X131411984Y-120686354D01*
X131405712Y-120696268D01*
X131397743Y-120708525D01*
X131387930Y-120723349D01*
X131376125Y-120740961D01*
X131362182Y-120761583D01*
X131345955Y-120785436D01*
X131327295Y-120812743D01*
X131306057Y-120843726D01*
X131282093Y-120878606D01*
X131281380Y-120879643D01*
X131261661Y-120908371D01*
X131242752Y-120936022D01*
X131224849Y-120962303D01*
X131208149Y-120986922D01*
X131192849Y-121009585D01*
X131179143Y-121030000D01*
X131167229Y-121047874D01*
X131157302Y-121062914D01*
X131149559Y-121074828D01*
X131144196Y-121083324D01*
X131141410Y-121088107D01*
X131141049Y-121088972D01*
X131140811Y-121096912D01*
X131141621Y-121102804D01*
X131143555Y-121105722D01*
X131148723Y-121111774D01*
X131157163Y-121121002D01*
X131168914Y-121133444D01*
X131184015Y-121149142D01*
X131202506Y-121168136D01*
X131224425Y-121190466D01*
X131249811Y-121216172D01*
X131278704Y-121245294D01*
X131311142Y-121277873D01*
X131324857Y-121291619D01*
X131350071Y-121316847D01*
X131374379Y-121341107D01*
X131397532Y-121364157D01*
X131419286Y-121385753D01*
X131439392Y-121405654D01*
X131457605Y-121423615D01*
X131473679Y-121439396D01*
X131487366Y-121452752D01*
X131498421Y-121463442D01*
X131506596Y-121471223D01*
X131511646Y-121475851D01*
X131513197Y-121477089D01*
X131523167Y-121480352D01*
X131533388Y-121479312D01*
X131544711Y-121473848D01*
X131546990Y-121472346D01*
X131550864Y-121469695D01*
X131558564Y-121464419D01*
X131569771Y-121456737D01*
X131584164Y-121446870D01*
X131601422Y-121435037D01*
X131621224Y-121421458D01*
X131643251Y-121406352D01*
X131667182Y-121389940D01*
X131692695Y-121372442D01*
X131719471Y-121354077D01*
X131744060Y-121337211D01*
X131771583Y-121318348D01*
X131798062Y-121300232D01*
X131823184Y-121283074D01*
X131846637Y-121267087D01*
X131868108Y-121252482D01*
X131887284Y-121239473D01*
X131903853Y-121228271D01*
X131917502Y-121219088D01*
X131927918Y-121212136D01*
X131934788Y-121207629D01*
X131937703Y-121205825D01*
X131949517Y-121202294D01*
X131955893Y-121202398D01*
X131960598Y-121203917D01*
X131969365Y-121207726D01*
X131981865Y-121213662D01*
X131997769Y-121221562D01*
X132016747Y-121231264D01*
X132038471Y-121242606D01*
X132055441Y-121251596D01*
X132079166Y-121264199D01*
X132098898Y-121274565D01*
X132115058Y-121282860D01*
X132128073Y-121289252D01*
X132138364Y-121293908D01*
X132146356Y-121296995D01*
X132152474Y-121298680D01*
X132157139Y-121299131D01*
X132160777Y-121298513D01*
X132163811Y-121296994D01*
X132166111Y-121295222D01*
X132167691Y-121292374D01*
X132171115Y-121285011D01*
X132176325Y-121273274D01*
X132183263Y-121257305D01*
X132191867Y-121237245D01*
X132202080Y-121213234D01*
X132213841Y-121185413D01*
X132227092Y-121153924D01*
X132241773Y-121118906D01*
X132257825Y-121080501D01*
X132275188Y-121038850D01*
X132293804Y-120994094D01*
X132313612Y-120946374D01*
X132334554Y-120895830D01*
X132351412Y-120855080D01*
X132373293Y-120802154D01*
X132393328Y-120753674D01*
X132411597Y-120709444D01*
X132428179Y-120669263D01*
X132443155Y-120632932D01*
X132456604Y-120600253D01*
X132468605Y-120571026D01*
X132479237Y-120545052D01*
X132488581Y-120522131D01*
X132496715Y-120502066D01*
X132503720Y-120484657D01*
X132509675Y-120469704D01*
X132514658Y-120457009D01*
X132518751Y-120446373D01*
X132522032Y-120437595D01*
X132524581Y-120430478D01*
X132526478Y-120424823D01*
X132527801Y-120420429D01*
X132528631Y-120417099D01*
X132529047Y-120414632D01*
X132529129Y-120412830D01*
X132528955Y-120411494D01*
X132528801Y-120410950D01*
X132526401Y-120405298D01*
X132522758Y-120400243D01*
X132517088Y-120395085D01*
X132508605Y-120389125D01*
X132496525Y-120381663D01*
X132494743Y-120380602D01*
X132482865Y-120373219D01*
X132469948Y-120364680D01*
X132458509Y-120356656D01*
X132457020Y-120355558D01*
X132447351Y-120348368D01*
X132435428Y-120339506D01*
X132423037Y-120330299D01*
X132415525Y-120324719D01*
X132374275Y-120290988D01*
X132336484Y-120253697D01*
X132302402Y-120213121D01*
X132272276Y-120169533D01*
X132266476Y-120160024D01*
X132243699Y-120117314D01*
X132224372Y-120071638D01*
X132208827Y-120023973D01*
X132197393Y-119975300D01*
X132191768Y-119939155D01*
X132190170Y-119920627D01*
X132189306Y-119898600D01*
X132189150Y-119874549D01*
X132189679Y-119849948D01*
X132190871Y-119826271D01*
X132192700Y-119804991D01*
X132194086Y-119794045D01*
X132204253Y-119741737D01*
X132219004Y-119691214D01*
X132238161Y-119642723D01*
X132261544Y-119596508D01*
X132288976Y-119552817D01*
X132320276Y-119511897D01*
X132355268Y-119473992D01*
X132393771Y-119439350D01*
X132435607Y-119408217D01*
X132480597Y-119380840D01*
X132502023Y-119369712D01*
X132549354Y-119348956D01*
X132597538Y-119332984D01*
X132646956Y-119321707D01*
X132697990Y-119315039D01*
X132750000Y-119312891D01*
X132795157Y-119314365D01*
X132837525Y-119318928D01*
X132878438Y-119326788D01*
X132919231Y-119338152D01*
X132926040Y-119340378D01*
X132975295Y-119359370D01*
X133022148Y-119382596D01*
X133066357Y-119409815D01*
X133107681Y-119440788D01*
X133145878Y-119475275D01*
X133180705Y-119513036D01*
X133211922Y-119553832D01*
X133239286Y-119597422D01*
X133262555Y-119643567D01*
X133281488Y-119692026D01*
X133281926Y-119693329D01*
X133293093Y-119730050D01*
X133301334Y-119765126D01*
X133306898Y-119800130D01*
X133310035Y-119836637D01*
X133310996Y-119876084D01*
X133310010Y-119913824D01*
X133306943Y-119948572D01*
X133301524Y-119982030D01*
X133293479Y-120015900D01*
X133283244Y-120049742D01*
X133264300Y-120099412D01*
X133241005Y-120146635D01*
X133213510Y-120191205D01*
X133181962Y-120232917D01*
X133146510Y-120271564D01*
X133107303Y-120306943D01*
X133084476Y-120324723D01*
X133073319Y-120332991D01*
X133062037Y-120341394D01*
X133052162Y-120348788D01*
X133046753Y-120352869D01*
X133038530Y-120358763D01*
X133027668Y-120366081D01*
X133015866Y-120373693D01*
X133009030Y-120377937D01*
X132995831Y-120386145D01*
X132986314Y-120392542D01*
X132979759Y-120397755D01*
X132975450Y-120402410D01*
X132972667Y-120407134D01*
X132971195Y-120410963D01*
X132970925Y-120412144D01*
X132970869Y-120413689D01*
X132971108Y-120415799D01*
X132971720Y-120418672D01*
X132972786Y-120422506D01*
X132974385Y-120427503D01*
X132976596Y-120433860D01*
X132979499Y-120441776D01*
X132983174Y-120451451D01*
X132987700Y-120463084D01*
X132993156Y-120476874D01*
X132999623Y-120493020D01*
X133007179Y-120511722D01*
X133015904Y-120533177D01*
X133025879Y-120557586D01*
X133037181Y-120585148D01*
X133049892Y-120616061D01*
X133064089Y-120650526D01*
X133079854Y-120688740D01*
X133097265Y-120730903D01*
X133116402Y-120777214D01*
X133137345Y-120827873D01*
X133148600Y-120855093D01*
X133170160Y-120907188D01*
X133190674Y-120956673D01*
X133210082Y-121003400D01*
X133228320Y-121047222D01*
X133245326Y-121087990D01*
X133261040Y-121125558D01*
X133275397Y-121159776D01*
X133288336Y-121190499D01*
X133299795Y-121217577D01*
X133309712Y-121240864D01*
X133318024Y-121260211D01*
X133324669Y-121275471D01*
X133329585Y-121286495D01*
X133332710Y-121293138D01*
X133333906Y-121295222D01*
X133340245Y-121298499D01*
X133346575Y-121299623D01*
X133351132Y-121298370D01*
X133359986Y-121294631D01*
X133373076Y-121288434D01*
X133390345Y-121279809D01*
X133411731Y-121268785D01*
X133437177Y-121255390D01*
X133443747Y-121251898D01*
X133463566Y-121241410D01*
X133482263Y-121231640D01*
X133499316Y-121222852D01*
X133514202Y-121215310D01*
X133526397Y-121209279D01*
X133535378Y-121205022D01*
X133540623Y-121202804D01*
X133541425Y-121202569D01*
X133549854Y-121202265D01*
X133557221Y-121203666D01*
X133560416Y-121205468D01*
X133567440Y-121209915D01*
X133577981Y-121216797D01*
X133591729Y-121225905D01*
X133608370Y-121237028D01*
X133627593Y-121249958D01*
X133649086Y-121264484D01*
X133672537Y-121280396D01*
X133697635Y-121297486D01*
X133724067Y-121315542D01*
X133747845Y-121331834D01*
X133775465Y-121350782D01*
X133802206Y-121369127D01*
X133827735Y-121386639D01*
X133851719Y-121403089D01*
X133873823Y-121418249D01*
X133893715Y-121431890D01*
X133911060Y-121443784D01*
X133925525Y-121453700D01*
X133936777Y-121461411D01*
X133944480Y-121466688D01*
X133947857Y-121468997D01*
X133959920Y-121476348D01*
X133969716Y-121480042D01*
X133978244Y-121480249D01*
X133986501Y-121477140D01*
X133988565Y-121475912D01*
X133991364Y-121473496D01*
X133997461Y-121467759D01*
X134006606Y-121458946D01*
X134018552Y-121447303D01*
X134033049Y-121433076D01*
X134049849Y-121416510D01*
X134068703Y-121397851D01*
X134089362Y-121377345D01*
X134111577Y-121355237D01*
X134135100Y-121331772D01*
X134159682Y-121307196D01*
X134176401Y-121290451D01*
X134210136Y-121256593D01*
X134240310Y-121226208D01*
X134266961Y-121199257D01*
X134290126Y-121175702D01*
X134309845Y-121155503D01*
X134326155Y-121138619D01*
X134339095Y-121125013D01*
X134348703Y-121114645D01*
X134355016Y-121107474D01*
X134358074Y-121103463D01*
X134358380Y-121102804D01*
X134359280Y-121094838D01*
X134358965Y-121088972D01*
X134357408Y-121085961D01*
X134353186Y-121079106D01*
X134346496Y-121068700D01*
X134337532Y-121055035D01*
X134326492Y-121038405D01*
X134313572Y-121019102D01*
X134298968Y-120997418D01*
X134282876Y-120973647D01*
X134265493Y-120948081D01*
X134247014Y-120921013D01*
X134227636Y-120892735D01*
X134218640Y-120879643D01*
X134194589Y-120844639D01*
X134173267Y-120813539D01*
X134154530Y-120786121D01*
X134138229Y-120762165D01*
X134124219Y-120741447D01*
X134112352Y-120723747D01*
X134102482Y-120708844D01*
X134094461Y-120696515D01*
X134088144Y-120686539D01*
X134083384Y-120678694D01*
X134080033Y-120672759D01*
X134077946Y-120668513D01*
X134076975Y-120665733D01*
X134076968Y-120665703D01*
X134076564Y-120663591D01*
X134076352Y-120661390D01*
X134076447Y-120658789D01*
X134076963Y-120655475D01*
X134078013Y-120651139D01*
X134079711Y-120645468D01*
X134082171Y-120638151D01*
X134085508Y-120628877D01*
X134089834Y-120617335D01*
X134095264Y-120603213D01*
X134101913Y-120586201D01*
X134109893Y-120565986D01*
X134119318Y-120542258D01*
X134130304Y-120514705D01*
X134142962Y-120483017D01*
X134153095Y-120457669D01*
X134165140Y-120427618D01*
X134176744Y-120398812D01*
X134187761Y-120371606D01*
X134198043Y-120346358D01*
X134207444Y-120323425D01*
X134215815Y-120303164D01*
X134223011Y-120285931D01*
X134228883Y-120272083D01*
X134233284Y-120261977D01*
X134236068Y-120255970D01*
X134236912Y-120254467D01*
X134243162Y-120248611D01*
X134249903Y-120244588D01*
X134253441Y-120243678D01*
X134261575Y-120241925D01*
X134273952Y-120239397D01*
X134290221Y-120236162D01*
X134310030Y-120232289D01*
X134333027Y-120227844D01*
X134358861Y-120222896D01*
X134387180Y-120217512D01*
X134417633Y-120211761D01*
X134449867Y-120205710D01*
X134483532Y-120199427D01*
X134496565Y-120197004D01*
X134530693Y-120190655D01*
X134563535Y-120184523D01*
X134594739Y-120178675D01*
X134623951Y-120173179D01*
X134650819Y-120168101D01*
X134674989Y-120163509D01*
X134696110Y-120159469D01*
X134713829Y-120156049D01*
X134727792Y-120153316D01*
X134737648Y-120151337D01*
X134743042Y-120150179D01*
X134743843Y-120149970D01*
X134751755Y-120145394D01*
X134757057Y-120139389D01*
X134757832Y-120138002D01*
X134758519Y-120136330D01*
X134759121Y-120134080D01*
X134759645Y-120130959D01*
X134760093Y-120126675D01*
X134760471Y-120120936D01*
X134760784Y-120113449D01*
X134761035Y-120103921D01*
X134761229Y-120092061D01*
X134761372Y-120077577D01*
X134761466Y-120060175D01*
X134761518Y-120039563D01*
X134761530Y-120015449D01*
X134761509Y-119987540D01*
X134761459Y-119955545D01*
X134761383Y-119919170D01*
X134761287Y-119878123D01*
X134761263Y-119868246D01*
X134760624Y-119605018D01*
X134754629Y-119598637D01*
X134753751Y-119597558D01*
X134753137Y-119596630D01*
X134752508Y-119595794D01*
X134751588Y-119594993D01*
X134750099Y-119594170D01*
X134747765Y-119593267D01*
X134744308Y-119592228D01*
X134739450Y-119590993D01*
X134732915Y-119589507D01*
X134724425Y-119587712D01*
X134713703Y-119585550D01*
X134700472Y-119582964D01*
X134684454Y-119579897D01*
X134665373Y-119576290D01*
X134642951Y-119572087D01*
X134616911Y-119567231D01*
X134586975Y-119561663D01*
X134552867Y-119555327D01*
X134514309Y-119548165D01*
X134480967Y-119541969D01*
X134440106Y-119534373D01*
X134403896Y-119527633D01*
X134372048Y-119521678D01*
X134344270Y-119516438D01*
X134320271Y-119511841D01*
X134299760Y-119507816D01*
X134282445Y-119504294D01*
X134268036Y-119501202D01*
X134256241Y-119498470D01*
X134246768Y-119496027D01*
X134239328Y-119493802D01*
X134233628Y-119491724D01*
X134229378Y-119489723D01*
X134226286Y-119487728D01*
X134224062Y-119485667D01*
X134222413Y-119483470D01*
X134221049Y-119481066D01*
X134219679Y-119478384D01*
X134219672Y-119478370D01*
X134218068Y-119474878D01*
X134214646Y-119467134D01*
X134209569Y-119455510D01*
X134202998Y-119440381D01*
X134195093Y-119422119D01*
X134186015Y-119401096D01*
X134175927Y-119377685D01*
X134164988Y-119352259D01*
X134153360Y-119325190D01*
X134141205Y-119296853D01*
X134139235Y-119292256D01*
X134124512Y-119257931D01*
X134111642Y-119227914D01*
X134100526Y-119201878D01*
X134091069Y-119179494D01*
X134083174Y-119160435D01*
X134076744Y-119144371D01*
X134071683Y-119130975D01*
X134067893Y-119119918D01*
X134065279Y-119110873D01*
X134063744Y-119103511D01*
X134063191Y-119097503D01*
X134063523Y-119092522D01*
X134064644Y-119088240D01*
X134066457Y-119084328D01*
X134068866Y-119080457D01*
X134071774Y-119076301D01*
X134074506Y-119072386D01*
X134077631Y-119067811D01*
X134083382Y-119059410D01*
X134091537Y-119047505D01*
X134101878Y-119032415D01*
X134114184Y-119014463D01*
X134128234Y-118993969D01*
X134143809Y-118971255D01*
X134160688Y-118946642D01*
X134178652Y-118920451D01*
X134197479Y-118893003D01*
X134216950Y-118864620D01*
X134219970Y-118860217D01*
X134239293Y-118832039D01*
X134257840Y-118804966D01*
X134275408Y-118779298D01*
X134291794Y-118755329D01*
X134306798Y-118733359D01*
X134320215Y-118713683D01*
X134331843Y-118696599D01*
X134341480Y-118682404D01*
X134348923Y-118671394D01*
X134353970Y-118663867D01*
X134356418Y-118660120D01*
X134356593Y-118659823D01*
X134358557Y-118653596D01*
X134359493Y-118645669D01*
X134359505Y-118644753D01*
X134359424Y-118643141D01*
X134359045Y-118641404D01*
X134358169Y-118639332D01*
X134356595Y-118636714D01*
X134354123Y-118633339D01*
X134350552Y-118628996D01*
X134345682Y-118623476D01*
X134339314Y-118616567D01*
X134331246Y-118608059D01*
X134321277Y-118597740D01*
X134309209Y-118585402D01*
X134294840Y-118570832D01*
X134277969Y-118553820D01*
X134258398Y-118534155D01*
X134235924Y-118511628D01*
X134210348Y-118486027D01*
X134181470Y-118457141D01*
X134172759Y-118448429D01*
X133986012Y-118261683D01*
X133975028Y-118261683D01*
X133973631Y-118261594D01*
X133972509Y-118261417D01*
X133971457Y-118261286D01*
X133970273Y-118261335D01*
X133968753Y-118261700D01*
X133966695Y-118262514D01*
X133963895Y-118263912D01*
X133960149Y-118266028D01*
X133955256Y-118268997D01*
X133949011Y-118272953D01*
X133941211Y-118278030D01*
X133931654Y-118284364D01*
X133920136Y-118292087D01*
X133906454Y-118301336D01*
X133890405Y-118312243D01*
X133871785Y-118324944D01*
X133850392Y-118339574D01*
X133826022Y-118356265D01*
X133798472Y-118375153D01*
X133767540Y-118396373D01*
X133733021Y-118420058D01*
X133694713Y-118446344D01*
X133661967Y-118468809D01*
X133634669Y-118487530D01*
X133611196Y-118503605D01*
X133591228Y-118517235D01*
X133574444Y-118528622D01*
X133560525Y-118537967D01*
X133549149Y-118545472D01*
X133539997Y-118551339D01*
X133532747Y-118555769D01*
X133527081Y-118558963D01*
X133522677Y-118561124D01*
X133519214Y-118562454D01*
X133516373Y-118563152D01*
X133513834Y-118563422D01*
X133511549Y-118563465D01*
X133508594Y-118563229D01*
X133504602Y-118562441D01*
X133499258Y-118560979D01*
X133492245Y-118558723D01*
X133483246Y-118555553D01*
X133471946Y-118551347D01*
X133458028Y-118545985D01*
X133441176Y-118539345D01*
X133421073Y-118531308D01*
X133397404Y-118521752D01*
X133369852Y-118510556D01*
X133338100Y-118497600D01*
X133323859Y-118491777D01*
X133295554Y-118480172D01*
X133268505Y-118469031D01*
X133243088Y-118458511D01*
X133219681Y-118448772D01*
X133198659Y-118439970D01*
X133180399Y-118432266D01*
X133165278Y-118425816D01*
X133153673Y-118420779D01*
X133145959Y-118417313D01*
X133142514Y-118415577D01*
X133142473Y-118415547D01*
X133140215Y-118413863D01*
X133138170Y-118412155D01*
X133136271Y-118410136D01*
X133134453Y-118407517D01*
X133132649Y-118404014D01*
X133130793Y-118399338D01*
X133128819Y-118393203D01*
X133126661Y-118385322D01*
X133124253Y-118375407D01*
X133121529Y-118363173D01*
X133118423Y-118348331D01*
X133114869Y-118330596D01*
X133110800Y-118309680D01*
X133106151Y-118285296D01*
X133100856Y-118257158D01*
X133094848Y-118224977D01*
X133088061Y-118188468D01*
X133080430Y-118147344D01*
X133079229Y-118140869D01*
X133072643Y-118105447D01*
X133066272Y-118071329D01*
X133060181Y-118038850D01*
X133054433Y-118008348D01*
X133049093Y-117980159D01*
X133044226Y-117954620D01*
X133039895Y-117932068D01*
X133036166Y-117912838D01*
X133033102Y-117897269D01*
X133030767Y-117885695D01*
X133029227Y-117878455D01*
X133028600Y-117875984D01*
X133024451Y-117869638D01*
X133018299Y-117864214D01*
X133018032Y-117864048D01*
X133016632Y-117863288D01*
X133014877Y-117862614D01*
X133012474Y-117862020D01*
X133009128Y-117861503D01*
X133004546Y-117861056D01*
X132998435Y-117860675D01*
X132990499Y-117860354D01*
X132980447Y-117860089D01*
X132967983Y-117859873D01*
X132952815Y-117859702D01*
X132934649Y-117859571D01*
X132913190Y-117859474D01*
X132888145Y-117859406D01*
X132859221Y-117859363D01*
X132826124Y-117859338D01*
X132788559Y-117859328D01*
X132750000Y-117859325D01*
X132708088Y-117859328D01*
D12*
X136420000Y-120600000D03*
X160725000Y-124600000D03*
X160260000Y-95260000D03*
D13*
X161005000Y-106200000D03*
X158295000Y-106200000D03*
X161005000Y-109800000D03*
X158295000Y-109800000D03*
D14*
X161005000Y-105725000D03*
X158295000Y-105725000D03*
X161005000Y-110275000D03*
X158295000Y-110275000D03*
D13*
X158295000Y-109400000D03*
X161005000Y-109400000D03*
X158295000Y-109000000D03*
X161005000Y-109000000D03*
X158295000Y-108600000D03*
X161005000Y-108600000D03*
X158295000Y-108200000D03*
X161005000Y-108200000D03*
X158295000Y-107800000D03*
X161005000Y-107800000D03*
X158295000Y-107400000D03*
X161005000Y-107400000D03*
X158295000Y-107000000D03*
X161005000Y-107000000D03*
X158295000Y-106600000D03*
X161005000Y-106600000D03*
D15*
X146700000Y-124900000D03*
D16*
X146700000Y-122360000D03*
X144160000Y-124900000D03*
X144160000Y-122360000D03*
X141620000Y-124900000D03*
X141620000Y-122360000D03*
X139080000Y-124900000D03*
X139080000Y-122360000D03*
D17*
X146400000Y-104910000D03*
X146400000Y-107110000D03*
D18*
X141750000Y-104520000D03*
X143650000Y-104520000D03*
D19*
X151790000Y-92260000D03*
X148190000Y-92260000D03*
X151790000Y-90810000D03*
X148190000Y-90810000D03*
D20*
X158450000Y-91100000D03*
X158450000Y-92598600D03*
D21*
X139100000Y-93900000D03*
X145500000Y-93900000D03*
D22*
X141000000Y-94125000D03*
X141650000Y-94125000D03*
X142300000Y-94125000D03*
X142950000Y-94125000D03*
X143600000Y-94125000D03*
D23*
X141100000Y-91450000D03*
X143500000Y-91450000D03*
D24*
X139000000Y-91450000D03*
X145600000Y-91450000D03*
D25*
X162400000Y-118920000D03*
X164560000Y-118850000D03*
D26*
X132800000Y-110350000D03*
X135000000Y-110350000D03*
X132800000Y-112150000D03*
X135000000Y-112150000D03*
X156514800Y-92354400D03*
X154314800Y-92354400D03*
D25*
X141732000Y-108813600D03*
X139598400Y-108813600D03*
D27*
X156375000Y-122999240D03*
X158275000Y-122999240D03*
X157325000Y-124998220D03*
D26*
X158425000Y-121350000D03*
X156225000Y-121350000D03*
D27*
X160700380Y-99050000D03*
X160700380Y-97150000D03*
X162699360Y-98100000D03*
X154875000Y-125000760D03*
X152975000Y-125000760D03*
X153925000Y-123001780D03*
X149300000Y-123050000D03*
X151200000Y-123050000D03*
X150250000Y-125048980D03*
D28*
X164600000Y-97260000D03*
D29*
X148150000Y-123025000D03*
X159900000Y-121600000D03*
X148096331Y-105082274D03*
X138060000Y-97440000D03*
X136860000Y-91140000D03*
X130920000Y-96180000D03*
X132252297Y-109155135D03*
X130940000Y-103140000D03*
X149450000Y-117162320D03*
X152740000Y-102460000D03*
X154795302Y-91020880D03*
X156500000Y-91020880D03*
X155650000Y-91020880D03*
X144789150Y-103608420D03*
X144900000Y-92704672D03*
X150150000Y-91450000D03*
X132942400Y-117000000D03*
D30*
X155484831Y-105661094D03*
D29*
X165196359Y-94109497D03*
X164762501Y-97287396D03*
X159523865Y-125200572D03*
X145050000Y-104690000D03*
X131030000Y-108710000D03*
X150920000Y-116980000D03*
X138530000Y-96360000D03*
X140450000Y-99330000D03*
X133430000Y-95030000D03*
X157550000Y-97760000D03*
X130890000Y-100610000D03*
X152750000Y-104140000D03*
X146150000Y-92700000D03*
X157450000Y-93500000D03*
X153950000Y-93650000D03*
X131250000Y-113900000D03*
X156000058Y-104999926D03*
X156000057Y-104999927D03*
D30*
X162150000Y-109849998D03*
X162150000Y-106750000D03*
X162150000Y-107500006D03*
X162150000Y-108250000D03*
X162150004Y-109000000D03*
D29*
X161650000Y-97100000D03*
X144336625Y-96146625D03*
X139740000Y-96250000D03*
D30*
X156533480Y-109382218D03*
D29*
X157200000Y-107450000D03*
X156500000Y-107750000D03*
X157200000Y-108200000D03*
D30*
X157199998Y-109000000D03*
X156550004Y-108600000D03*
D29*
X137913185Y-113696704D03*
X137138634Y-114127893D03*
X136417894Y-113583603D03*
X135550000Y-114100000D03*
X162110236Y-100071520D03*
X143000000Y-116650000D03*
D30*
X163112236Y-100200276D03*
D29*
X142100000Y-116350000D03*
D30*
X163939920Y-100332709D03*
D29*
X141003006Y-116399407D03*
D30*
X163908480Y-101402757D03*
D29*
X140174437Y-116526186D03*
X154163213Y-119869803D03*
X152934821Y-123092626D03*
X152262672Y-122591812D03*
X153326477Y-119809768D03*
X152393929Y-119801218D03*
X150304638Y-122896631D03*
X151542115Y-119924743D03*
X148925540Y-121613280D03*
X140567692Y-104110458D03*
X158699998Y-98950000D03*
X139696520Y-103550000D03*
X157620588Y-98912234D03*
X156105760Y-110569805D03*
X162152957Y-110738207D03*
X154733771Y-110026331D03*
X162118150Y-111575696D03*
X154962739Y-110832653D03*
X162156514Y-112413029D03*
X154085953Y-113766036D03*
D30*
X155236520Y-113183346D03*
D29*
X154690742Y-114803827D03*
D30*
X155768513Y-114264986D03*
D29*
X153687488Y-107382303D03*
D30*
X155083600Y-115556054D03*
D29*
X152364334Y-106589079D03*
D30*
X155238794Y-116379773D03*
D29*
X152358616Y-111507398D03*
D30*
X156121678Y-116305139D03*
D29*
X151500000Y-110650000D03*
D30*
X156850162Y-116804780D03*
D29*
X138726019Y-115077767D03*
D30*
X157298385Y-116096476D03*
D29*
X139580652Y-115932401D03*
D30*
X158170500Y-116353781D03*
D29*
X137988623Y-108849879D03*
X141400000Y-113250000D03*
X133600000Y-103350000D03*
X151800000Y-113100000D03*
X152666160Y-110727644D03*
X154216302Y-111214007D03*
X157070000Y-101080000D03*
X143100000Y-113000000D03*
D30*
X155983285Y-112276038D03*
D29*
X143667109Y-114677791D03*
X151363221Y-112306208D03*
X143107184Y-114054025D03*
X150639823Y-111836527D03*
X144370158Y-110363541D03*
D30*
X154991864Y-102801273D03*
D29*
X145599819Y-103395312D03*
X144100000Y-105670000D03*
D30*
X155228192Y-103605480D03*
D29*
X142798800Y-111099600D03*
X140352086Y-105253480D03*
X152689370Y-108036912D03*
X156935875Y-106535875D03*
X151476488Y-107978160D03*
X156984125Y-99925875D03*
X151166989Y-107199180D03*
X156030000Y-99780000D03*
X159470000Y-123110000D03*
X142544659Y-103544659D03*
X150275000Y-123848805D03*
X160000000Y-111100000D03*
X153925000Y-125000000D03*
X156740608Y-119564992D03*
X155597587Y-119869803D03*
X152540000Y-116530000D03*
X148040000Y-114000000D03*
X148096331Y-107400121D03*
X146071520Y-109543211D03*
X148138480Y-102624464D03*
X153175516Y-100164047D03*
X151200000Y-125050000D03*
X134587355Y-95360282D03*
X132120000Y-106320000D03*
X132190000Y-96250000D03*
X132250000Y-108210000D03*
X135470000Y-95260000D03*
X134120000Y-101470000D03*
X146456400Y-111404400D03*
X140665200Y-109728000D03*
X141579600Y-110794800D03*
X148380000Y-101620000D03*
X150090000Y-100390000D03*
X142825000Y-105975000D03*
X152375000Y-108975000D03*
X157100000Y-110000000D03*
X144600000Y-108994100D03*
X142925000Y-95450000D03*
X144600000Y-108155900D03*
D31*
X158275000Y-122999240D02*
X158275000Y-121500000D01*
X158275000Y-121500000D02*
X158425000Y-121350000D01*
X158425000Y-121350000D02*
X159650000Y-121350000D01*
X159650000Y-121350000D02*
X159900000Y-121600000D01*
X144789150Y-103608420D02*
X145190730Y-104010000D01*
X145190730Y-104010000D02*
X147430000Y-104010000D01*
X147430000Y-104010000D02*
X148096331Y-104676331D01*
X148096331Y-104676331D02*
X148096331Y-105082274D01*
X132595196Y-109498034D02*
X132252297Y-109155135D01*
X132800000Y-109702838D02*
X132595196Y-109498034D01*
X132800000Y-110350000D02*
X132800000Y-109702838D01*
X158450000Y-91100000D02*
X156579120Y-91100000D01*
X156579120Y-91100000D02*
X156500000Y-91020880D01*
X132800000Y-110350000D02*
X132800000Y-112150000D01*
X164762501Y-97287396D02*
X164762501Y-94543355D01*
X164762501Y-94543355D02*
X165196359Y-94109497D01*
X164600000Y-97260000D02*
X164735105Y-97260000D01*
X164735105Y-97260000D02*
X164762501Y-97287396D01*
X151200000Y-123820822D02*
X151200000Y-123602450D01*
X149141253Y-124420329D02*
X150600493Y-124420329D01*
X148661582Y-124900000D02*
X149141253Y-124420329D01*
X146700000Y-124900000D02*
X148661582Y-124900000D01*
X150600493Y-124420329D02*
X151200000Y-123820822D01*
X152975000Y-125000760D02*
X152422550Y-125000760D01*
X152422550Y-125000760D02*
X151200000Y-123778210D01*
X151200000Y-123778210D02*
X151200000Y-123602450D01*
X151200000Y-123602450D02*
X151200000Y-123050000D01*
X146400000Y-104910000D02*
X145270000Y-104910000D01*
X145270000Y-104910000D02*
X145050000Y-104690000D01*
X143650000Y-104520000D02*
X144880000Y-104520000D01*
X144880000Y-104520000D02*
X145050000Y-104690000D01*
D32*
X161005000Y-106200000D02*
X161780000Y-106200000D01*
X161780000Y-106200000D02*
X161810000Y-106230000D01*
X161810000Y-106230000D02*
X161810000Y-106410000D01*
X161810000Y-106410000D02*
X162150000Y-106750000D01*
X161005000Y-105800000D02*
X161850000Y-105800000D01*
X161850000Y-105800000D02*
X162150000Y-106100000D01*
X162150000Y-106100000D02*
X162150000Y-106750000D01*
D31*
X153950000Y-93650000D02*
X153950000Y-92719200D01*
X153950000Y-92719200D02*
X154314800Y-92354400D01*
X147037550Y-124900000D02*
X146216000Y-124900000D01*
X146216000Y-124900000D02*
X145200000Y-124900000D01*
X143500000Y-91450000D02*
X145600000Y-91450000D01*
X141100000Y-91450000D02*
X142202400Y-91450000D01*
X142202400Y-91450000D02*
X143500000Y-91450000D01*
X139000000Y-91450000D02*
X141100000Y-91450000D01*
X145500000Y-93047600D02*
X145847600Y-92700000D01*
X145847600Y-92700000D02*
X146150000Y-92700000D01*
X145500000Y-93900000D02*
X145500000Y-93047600D01*
X143600000Y-94125000D02*
X145275000Y-94125000D01*
X145275000Y-94125000D02*
X145500000Y-93900000D01*
X151790000Y-92260000D02*
X148190000Y-92260000D01*
X153950000Y-93650000D02*
X152560000Y-92260000D01*
X152560000Y-92260000D02*
X151790000Y-92260000D01*
X161005000Y-110200000D02*
X161799998Y-110200000D01*
X161799998Y-110200000D02*
X162150000Y-109849998D01*
D32*
X161807101Y-109792899D02*
X162092901Y-109792899D01*
X161005000Y-109800000D02*
X161800000Y-109800000D01*
X161800000Y-109800000D02*
X161807101Y-109792899D01*
X162092901Y-109792899D02*
X162150000Y-109849998D01*
X161005000Y-106600000D02*
X162000000Y-106600000D01*
X162000000Y-106600000D02*
X162150000Y-106750000D01*
X161005000Y-107000000D02*
X161900000Y-107000000D01*
X161900000Y-107000000D02*
X162150000Y-106750000D01*
X161005000Y-107400000D02*
X162049994Y-107400000D01*
X162049994Y-107400000D02*
X162150000Y-107500006D01*
X161005000Y-107800000D02*
X161850006Y-107800000D01*
X161850006Y-107800000D02*
X162150000Y-107500006D01*
X161005000Y-108200000D02*
X162100000Y-108200000D01*
X162100000Y-108200000D02*
X162150000Y-108250000D01*
X161005000Y-108600000D02*
X161800000Y-108600000D01*
X161800000Y-108600000D02*
X162150000Y-108250000D01*
X161005000Y-109000000D02*
X162150004Y-109000000D01*
X161005000Y-109400000D02*
X161750004Y-109400000D01*
X161750004Y-109400000D02*
X162150004Y-109000000D01*
D31*
X162150004Y-108515067D02*
X162150004Y-109000000D01*
X162150004Y-107583804D02*
X162150004Y-108515067D01*
D33*
X162699360Y-98100000D02*
X162699360Y-97445950D01*
X162699360Y-97445950D02*
X162353410Y-97100000D01*
X162353410Y-97100000D02*
X162202280Y-97100000D01*
X161650000Y-97100000D02*
X162202280Y-97100000D01*
X144343249Y-96140001D02*
X144336625Y-96146625D01*
X159036331Y-96140001D02*
X144343249Y-96140001D01*
X160046330Y-97150000D02*
X159036331Y-96140001D01*
X160700380Y-97150000D02*
X160046330Y-97150000D01*
X139740000Y-95860000D02*
X139740000Y-96250000D01*
X141000000Y-94600000D02*
X139740000Y-95860000D01*
X141000000Y-94125000D02*
X141000000Y-94600000D01*
X159950000Y-99050000D02*
X160700380Y-99050000D01*
D31*
X156876379Y-109039319D02*
X156533480Y-109382218D01*
X158295000Y-109000000D02*
X156915698Y-109000000D01*
X156915698Y-109000000D02*
X156876379Y-109039319D01*
X158295000Y-109400000D02*
X159600000Y-109400000D01*
X158295000Y-109000000D02*
X159600000Y-109000000D01*
X158295000Y-108600000D02*
X159600000Y-108600000D01*
X158295000Y-108200000D02*
X159600000Y-108200000D01*
X158295000Y-107800000D02*
X159600000Y-107800000D01*
X158295000Y-107400000D02*
X159550000Y-107400000D01*
X158295000Y-107000000D02*
X159600000Y-107000000D01*
X158295000Y-106600000D02*
X159600000Y-106600000D01*
X158295000Y-106600000D02*
X157680000Y-106600000D01*
X157680000Y-106600000D02*
X157200000Y-107080000D01*
X157200000Y-107080000D02*
X157200000Y-107450000D01*
D33*
X159950000Y-99050000D02*
X159600000Y-99400000D01*
D31*
X156550004Y-108600000D02*
X156799998Y-108600000D01*
X156799998Y-108600000D02*
X157199998Y-109000000D01*
X157200000Y-108200000D02*
X157200000Y-107450000D01*
X158295000Y-107800000D02*
X157550000Y-107800000D01*
X157550000Y-107800000D02*
X157200000Y-107450000D01*
X158295000Y-107000000D02*
X157650000Y-107000000D01*
X157650000Y-107000000D02*
X157200000Y-107450000D01*
X158295000Y-107400000D02*
X157250000Y-107400000D01*
X157250000Y-107400000D02*
X157200000Y-107450000D01*
X158295000Y-108200000D02*
X157200000Y-108200000D01*
D33*
X159600000Y-106600000D02*
X159600000Y-99400000D01*
D31*
X157034937Y-108600000D02*
X156550004Y-108600000D01*
X158295000Y-108200000D02*
X157812600Y-108200000D01*
X157812600Y-108200000D02*
X157412600Y-108600000D01*
X157412600Y-108600000D02*
X157034937Y-108600000D01*
D33*
X159600000Y-109000000D02*
X159600000Y-109400000D01*
X159600000Y-108600000D02*
X159600000Y-109000000D01*
X159600000Y-108200000D02*
X159600000Y-108600000D01*
X159600000Y-107800000D02*
X159600000Y-108200000D01*
D31*
X158295000Y-109400000D02*
X157649998Y-109400000D01*
X157599998Y-108600000D02*
X157542897Y-108657101D01*
X158295000Y-108600000D02*
X157599998Y-108600000D01*
X158295000Y-109400000D02*
X157599998Y-109400000D01*
X157542897Y-108657101D02*
X157199998Y-109000000D01*
X157599998Y-109400000D02*
X157542897Y-109342899D01*
X157542897Y-109342899D02*
X157199998Y-109000000D01*
D33*
X159600000Y-107450000D02*
X159600000Y-107800000D01*
X159600000Y-106600000D02*
X159600000Y-107000000D01*
X159600000Y-107000000D02*
X159600000Y-107450000D01*
D32*
X159550000Y-107400000D02*
X159600000Y-107450000D01*
D31*
X137913185Y-113696704D02*
X137913185Y-115083185D01*
X137913185Y-115083185D02*
X143470000Y-120640000D01*
X143470000Y-120640000D02*
X144980000Y-120640000D01*
X144980000Y-120640000D02*
X146700000Y-122360000D01*
X137138634Y-114127893D02*
X137138634Y-114807567D01*
X137138634Y-114807567D02*
X142660000Y-120328933D01*
X142660000Y-120328933D02*
X142660000Y-120860000D01*
X142660000Y-120860000D02*
X144160000Y-122360000D01*
X136417894Y-113583603D02*
X136417894Y-114517894D01*
X136417894Y-114517894D02*
X140120000Y-118220000D01*
X140120000Y-118220000D02*
X140120000Y-120860000D01*
X140120000Y-120860000D02*
X141620000Y-122360000D01*
X135550000Y-114100000D02*
X137580000Y-116130000D01*
X137580000Y-116130000D02*
X137580000Y-120860000D01*
X137580000Y-120860000D02*
X139080000Y-122360000D01*
X151615512Y-118229470D02*
X155937105Y-118229470D01*
X162110236Y-100556453D02*
X162110236Y-100071520D01*
X155937105Y-118229470D02*
X156087518Y-118079057D01*
X163200000Y-113575736D02*
X163200000Y-102402236D01*
X158696679Y-118079057D02*
X163200000Y-113575736D01*
X156087518Y-118079057D02*
X158696679Y-118079057D01*
X151501539Y-118343443D02*
X151615512Y-118229470D01*
X163200000Y-102402236D02*
X162110236Y-101312471D01*
X148660323Y-118250000D02*
X148753766Y-118343443D01*
X148753766Y-118343443D02*
X151501539Y-118343443D01*
X144600000Y-118250000D02*
X148660323Y-118250000D01*
X162110236Y-101312471D02*
X162110236Y-100556453D01*
X143000000Y-116650000D02*
X144600000Y-118250000D01*
X156213774Y-118383868D02*
X158822934Y-118383868D01*
X148627510Y-118648254D02*
X151627795Y-118648254D01*
X151627795Y-118648254D02*
X151741768Y-118534281D01*
X163504811Y-113701991D02*
X163504811Y-102275979D01*
X162769337Y-100543175D02*
X163112236Y-100200276D01*
X156063361Y-118534281D02*
X156213774Y-118383868D01*
X142100000Y-116834933D02*
X143819878Y-118554811D01*
X162769337Y-101540506D02*
X162769337Y-100543175D01*
X158822934Y-118383868D02*
X163504811Y-113701991D01*
X151741768Y-118534281D02*
X156063361Y-118534281D01*
X148534067Y-118554811D02*
X148627510Y-118648254D01*
X142100000Y-116350000D02*
X142100000Y-116834933D01*
X143819878Y-118554811D02*
X148534067Y-118554811D01*
X163504811Y-102275979D02*
X162769337Y-101540506D01*
X163597021Y-100675608D02*
X163939920Y-100332709D01*
X151868024Y-118839092D02*
X156189617Y-118839092D01*
X163336978Y-101677079D02*
X163336978Y-100935651D01*
X163809622Y-102149723D02*
X163336978Y-101677079D01*
X156340030Y-118688679D02*
X158949189Y-118688679D01*
X141003006Y-116399407D02*
X143556664Y-118953065D01*
X143556664Y-118953065D02*
X151754051Y-118953065D01*
X151754051Y-118953065D02*
X151868024Y-118839092D01*
X156189617Y-118839092D02*
X156340030Y-118688679D01*
X163336978Y-100935651D02*
X163597021Y-100675608D01*
X163809622Y-113828246D02*
X163809622Y-102149723D01*
X158949189Y-118688679D02*
X163809622Y-113828246D01*
X142906127Y-119257876D02*
X151880307Y-119257876D01*
X159075444Y-118993490D02*
X164251379Y-113817555D01*
X151880307Y-119257876D02*
X151994280Y-119143903D01*
X164251379Y-101745656D02*
X163908480Y-101402757D01*
X164251379Y-113817555D02*
X164251379Y-101745656D01*
X156315873Y-119143903D02*
X156466286Y-118993490D01*
X140174437Y-116526186D02*
X142906127Y-119257876D01*
X151994280Y-119143903D02*
X156315873Y-119143903D01*
X156466286Y-118993490D02*
X159075444Y-118993490D01*
X152934821Y-123092626D02*
X152934821Y-121098195D01*
X152934821Y-121098195D02*
X153820314Y-120212702D01*
X153820314Y-120212702D02*
X154163213Y-119869803D01*
X152262672Y-122106879D02*
X152262672Y-122591812D01*
X152262672Y-120873573D02*
X152262672Y-122106879D01*
X153326477Y-119809768D02*
X152262672Y-120873573D01*
X150304638Y-121983000D02*
X152393929Y-119893709D01*
X150304638Y-122896631D02*
X150304638Y-121983000D01*
X152393929Y-119893709D02*
X152393929Y-119801218D01*
X150614077Y-119924743D02*
X151057182Y-119924743D01*
X148925540Y-121613280D02*
X150614077Y-119924743D01*
X151057182Y-119924743D02*
X151542115Y-119924743D01*
X140910591Y-103767559D02*
X140567692Y-104110458D01*
X141513507Y-103767559D02*
X140910591Y-103767559D01*
X146681066Y-98600000D02*
X141513507Y-103767559D01*
X156709804Y-99354374D02*
X155955430Y-98600000D01*
X157258446Y-99354374D02*
X156709804Y-99354374D01*
X155955430Y-98600000D02*
X146681066Y-98600000D01*
X157475573Y-99571501D02*
X157258446Y-99354374D01*
X158078497Y-99571501D02*
X157475573Y-99571501D01*
X158699998Y-98950000D02*
X158078497Y-99571501D01*
X146656915Y-98193085D02*
X141642899Y-103207101D01*
X140039419Y-103207101D02*
X139696520Y-103550000D01*
X141642899Y-103207101D02*
X140039419Y-103207101D01*
X156901439Y-98193085D02*
X146656915Y-98193085D01*
X157620588Y-98912234D02*
X156901439Y-98193085D01*
X156448659Y-110912704D02*
X156105760Y-110569805D01*
X158966880Y-110912704D02*
X156448659Y-110912704D01*
X159725678Y-111671502D02*
X158966880Y-110912704D01*
X161207617Y-110738207D02*
X160274322Y-111671502D01*
X162152957Y-110738207D02*
X161207617Y-110738207D01*
X160274322Y-111671502D02*
X159725678Y-111671502D01*
X156544720Y-111575696D02*
X156110330Y-111141306D01*
X159599422Y-111976313D02*
X159198805Y-111575696D01*
X155534259Y-110844126D02*
X155534259Y-110341886D01*
X161717533Y-111976313D02*
X159599422Y-111976313D01*
X155534259Y-110341886D02*
X155218704Y-110026331D01*
X162118150Y-111575696D02*
X161717533Y-111976313D01*
X156110330Y-111141306D02*
X155831439Y-111141306D01*
X155831439Y-111141306D02*
X155534259Y-110844126D01*
X159198805Y-111575696D02*
X156544720Y-111575696D01*
X155218704Y-110026331D02*
X154733771Y-110026331D01*
X155305638Y-111175552D02*
X154962739Y-110832653D01*
X162156514Y-112413029D02*
X156950540Y-112413029D01*
X155983628Y-111446117D02*
X155576203Y-111446117D01*
X155576203Y-111446117D02*
X155305638Y-111175552D01*
X156950540Y-112413029D02*
X155983628Y-111446117D01*
X154570886Y-113766036D02*
X154085953Y-113766036D01*
X155236520Y-113183346D02*
X154653830Y-113766036D01*
X154653830Y-113766036D02*
X154570886Y-113766036D01*
X155229672Y-114803827D02*
X155175675Y-114803827D01*
X155768513Y-114264986D02*
X155229672Y-114803827D01*
X155175675Y-114803827D02*
X154690742Y-114803827D01*
X154598667Y-115556054D02*
X153514433Y-114471820D01*
X153687488Y-107867236D02*
X153687488Y-107382303D01*
X155083600Y-115556054D02*
X154598667Y-115556054D01*
X153514433Y-114471820D02*
X153514433Y-111081260D01*
X153514433Y-111081260D02*
X153687488Y-110908205D01*
X153687488Y-110908205D02*
X153687488Y-107867236D01*
X152707233Y-106931978D02*
X152364334Y-106589079D01*
X153325081Y-110839545D02*
X153325081Y-107843975D01*
X154753861Y-116379773D02*
X153209622Y-114835534D01*
X153209622Y-110955004D02*
X153325081Y-110839545D01*
X155238794Y-116379773D02*
X154753861Y-116379773D01*
X153209622Y-114835534D02*
X153209622Y-110955004D01*
X152707233Y-107226127D02*
X152707233Y-106931978D01*
X153325081Y-107843975D02*
X152707233Y-107226127D01*
X152701515Y-111850297D02*
X152358616Y-111507398D01*
X156121678Y-116305139D02*
X155446060Y-116980756D01*
X155446060Y-116980756D02*
X154797481Y-116980756D01*
X154797481Y-116980756D02*
X152904811Y-115088086D01*
X152904811Y-112053593D02*
X152701515Y-111850297D01*
X152904811Y-115088086D02*
X152904811Y-112053593D01*
X155708750Y-117164624D02*
X156108017Y-117164624D01*
X155587807Y-117285567D02*
X155708750Y-117164624D01*
X154671226Y-117285567D02*
X155587807Y-117285567D01*
X152600002Y-115214343D02*
X154671226Y-117285567D01*
X152600002Y-112594606D02*
X152600002Y-115214343D01*
X151500000Y-111494604D02*
X152600002Y-112594606D01*
X151500000Y-110650000D02*
X151500000Y-111494604D01*
X156108017Y-117164624D02*
X156659011Y-116613630D01*
X156850162Y-116804780D02*
X156850162Y-116800162D01*
X156850162Y-116800162D02*
X156661321Y-116611321D01*
X144371399Y-116040378D02*
X143790378Y-116040378D01*
X143790378Y-116040378D02*
X142827767Y-115077767D01*
X139210952Y-115077767D02*
X138726019Y-115077767D01*
X142827767Y-115077767D02*
X139210952Y-115077767D01*
X151249027Y-117733821D02*
X149006278Y-117733821D01*
X155684593Y-117619848D02*
X151363000Y-117619848D01*
X155835006Y-117469435D02*
X155684593Y-117619848D01*
X157579501Y-117469435D02*
X155835006Y-117469435D01*
X157598999Y-117449937D02*
X157579501Y-117469435D01*
X157598999Y-116397090D02*
X157598999Y-117449937D01*
X149006278Y-117733821D02*
X148512835Y-117240378D01*
X151363000Y-117619848D02*
X151249027Y-117733821D01*
X157298385Y-116096476D02*
X157598999Y-116397090D01*
X148512835Y-117240378D02*
X145571399Y-117240378D01*
X145571399Y-117240378D02*
X144371399Y-116040378D01*
X151489256Y-117924659D02*
X151375283Y-118038632D01*
X151375283Y-118038632D02*
X148880022Y-118038632D01*
X148880022Y-118038632D02*
X148386579Y-117545189D01*
X155961262Y-117774246D02*
X155810849Y-117924659D01*
X155810849Y-117924659D02*
X151489256Y-117924659D01*
X157705756Y-117774246D02*
X155961262Y-117774246D01*
X158170500Y-117309502D02*
X157705756Y-117774246D01*
X148386579Y-117545189D02*
X145377640Y-117545189D01*
X158170500Y-116353781D02*
X158170500Y-117309502D01*
X144177640Y-116345189D02*
X143576256Y-116345189D01*
X142820569Y-115589502D02*
X139923551Y-115589502D01*
X143576256Y-116345189D02*
X142820569Y-115589502D01*
X145377640Y-117545189D02*
X144177640Y-116345189D01*
X139923551Y-115589502D02*
X139580652Y-115932401D01*
X137645724Y-108506980D02*
X137988623Y-108849879D01*
X133600000Y-104461256D02*
X137645724Y-108506980D01*
X133600000Y-103350000D02*
X133600000Y-104461256D01*
X141981067Y-113800000D02*
X141950000Y-113800000D01*
X141950000Y-113800000D02*
X141400000Y-113250000D01*
X144371399Y-114992119D02*
X143968329Y-115395189D01*
X143968329Y-115395189D02*
X143576256Y-115395189D01*
X143576256Y-115395189D02*
X141981067Y-113800000D01*
X146263518Y-113100000D02*
X144371399Y-114992119D01*
X151800000Y-113100000D02*
X146263518Y-113100000D01*
X144371399Y-114992119D02*
X144357881Y-114992119D01*
X149280391Y-110069609D02*
X152008125Y-110069609D01*
X152008125Y-110069609D02*
X152323261Y-110384745D01*
X152323261Y-110384745D02*
X152666160Y-110727644D01*
X143100000Y-113000000D02*
X144124099Y-111975901D01*
X147374099Y-111975901D02*
X149280391Y-110069609D01*
X144124099Y-111975901D02*
X147374099Y-111975901D01*
X154162269Y-110675041D02*
X154216302Y-110729074D01*
X157070000Y-101080000D02*
X157070000Y-105160000D01*
X154559201Y-111556906D02*
X154216302Y-111214007D01*
X155278333Y-112276038D02*
X154559201Y-111556906D01*
X157070000Y-105160000D02*
X154162269Y-108067731D01*
X154162269Y-108067731D02*
X154162269Y-110675041D01*
X154216302Y-110729074D02*
X154216302Y-111214007D01*
X155983285Y-112276038D02*
X155278333Y-112276038D01*
X144010008Y-114334892D02*
X143667109Y-114677791D01*
X151363221Y-112306208D02*
X151020322Y-112649107D01*
X145695793Y-112649107D02*
X144010008Y-114334892D01*
X151020322Y-112649107D02*
X145695793Y-112649107D01*
X150195638Y-112280712D02*
X144880497Y-112280712D01*
X144880497Y-112280712D02*
X143450083Y-113711126D01*
X143450083Y-113711126D02*
X143107184Y-114054025D01*
X150639823Y-111836527D02*
X150195638Y-112280712D01*
X141128576Y-110400000D02*
X141507934Y-110020642D01*
X144027259Y-110020642D02*
X144370158Y-110363541D01*
X136310000Y-110400000D02*
X141128576Y-110400000D01*
X136260000Y-110350000D02*
X136310000Y-110400000D01*
X141507934Y-110020642D02*
X144027259Y-110020642D01*
X135000000Y-110350000D02*
X136260000Y-110350000D01*
X148934620Y-103144172D02*
X154648965Y-103144172D01*
X154648965Y-103144172D02*
X154991864Y-102801273D01*
X145599819Y-103395312D02*
X148683480Y-103395312D01*
X148683480Y-103395312D02*
X148934620Y-103144172D01*
X148667833Y-105166596D02*
X148667833Y-105356596D01*
X144442899Y-106012899D02*
X144100000Y-105670000D01*
X148011530Y-106012899D02*
X144442899Y-106012899D01*
X150354242Y-103480187D02*
X148667833Y-105166596D01*
X155228192Y-103605480D02*
X154743259Y-103605480D01*
X154743259Y-103605480D02*
X154617966Y-103480187D01*
X154617966Y-103480187D02*
X150354242Y-103480187D01*
X148667833Y-105356596D02*
X148011530Y-106012899D01*
X142455901Y-111442499D02*
X142798800Y-111099600D01*
X141748400Y-112150000D02*
X142455901Y-111442499D01*
X135000000Y-112150000D02*
X141748400Y-112150000D01*
X152149367Y-108379811D02*
X151936261Y-108592917D01*
X143396502Y-105817950D02*
X143396502Y-105700678D01*
X146463908Y-108592917D02*
X144691182Y-106820191D01*
X151936261Y-108592917D02*
X146463908Y-108592917D01*
X144398743Y-106820191D02*
X143396502Y-105817950D01*
X142949304Y-105253480D02*
X140837019Y-105253480D01*
X144691182Y-106820191D02*
X144398743Y-106820191D01*
X152346471Y-108379811D02*
X152149367Y-108379811D01*
X152689370Y-108036912D02*
X152346471Y-108379811D01*
X143396502Y-105700678D02*
X142949304Y-105253480D01*
X140837019Y-105253480D02*
X140352086Y-105253480D01*
X158295000Y-105800000D02*
X157540000Y-105800000D01*
X157540000Y-105800000D02*
X157400000Y-105940000D01*
X157400000Y-105940000D02*
X157400000Y-106200000D01*
X157278774Y-106192976D02*
X156935875Y-106535875D01*
X157392976Y-106192976D02*
X157278774Y-106192976D01*
X157400000Y-106200000D02*
X157392976Y-106192976D01*
X158295000Y-106200000D02*
X157400000Y-106200000D01*
X152217246Y-106035478D02*
X152088380Y-106035478D01*
X155628770Y-104481793D02*
X153770931Y-104481793D01*
X156984125Y-99925875D02*
X156498498Y-100411502D01*
X151738499Y-107716149D02*
X151476488Y-107978160D01*
X153770931Y-104481793D02*
X152217246Y-106035478D01*
X156498498Y-103612065D02*
X155628770Y-104481793D01*
X152088380Y-106035478D02*
X151738499Y-106385359D01*
X151738499Y-106385359D02*
X151738499Y-107716149D01*
X156498498Y-100411502D02*
X156498498Y-103612065D01*
X152085356Y-105730667D02*
X151962124Y-105730667D01*
X151166989Y-106525802D02*
X151166989Y-106714247D01*
X156030000Y-99780000D02*
X156030000Y-103649496D01*
X151962124Y-105730667D02*
X151166989Y-106525802D01*
X156030000Y-103649496D02*
X155502514Y-104176982D01*
X151166989Y-106714247D02*
X151166989Y-107199180D01*
X155502514Y-104176982D02*
X153639041Y-104176982D01*
X153639041Y-104176982D02*
X152085356Y-105730667D01*
X164650000Y-99500000D02*
X164650000Y-116670000D01*
X164650000Y-116670000D02*
X162400000Y-118920000D01*
X159470000Y-123110000D02*
X159470000Y-122870000D01*
X159470000Y-122870000D02*
X160648066Y-121691934D01*
X160648066Y-121691934D02*
X160648066Y-120671934D01*
X160648066Y-120671934D02*
X162400000Y-118920000D01*
X164650000Y-99500000D02*
X163430000Y-98280000D01*
X163430000Y-98280000D02*
X163430000Y-96580000D01*
X163430000Y-96580000D02*
X161150000Y-94300000D01*
X161150000Y-92850000D02*
X160197200Y-91897200D01*
X160197200Y-91897200D02*
X157734000Y-91897200D01*
X157734000Y-91897200D02*
X157429200Y-91592400D01*
X157429200Y-91592400D02*
X153424800Y-91592400D01*
X152642400Y-90810000D02*
X151790000Y-90810000D01*
X161150000Y-94300000D02*
X161150000Y-92850000D01*
X153424800Y-91592400D02*
X152642400Y-90810000D01*
X142750000Y-96925000D02*
X144126501Y-95548499D01*
X144126501Y-95548499D02*
X145734321Y-95548499D01*
X140950000Y-96925000D02*
X142750000Y-96925000D01*
X139140000Y-98735000D02*
X140950000Y-96925000D01*
X139125000Y-98735000D02*
X139140000Y-98735000D01*
X142544659Y-103950341D02*
X142544659Y-103544659D01*
X141750000Y-104520000D02*
X141975000Y-104520000D01*
X141975000Y-104520000D02*
X142544659Y-103950341D01*
X140835622Y-104681978D02*
X140997600Y-104520000D01*
X146721502Y-94561318D02*
X145734321Y-95548499D01*
X140997600Y-104520000D02*
X141750000Y-104520000D01*
X139506154Y-104681978D02*
X140835622Y-104681978D01*
X146721502Y-92103498D02*
X146721502Y-94561318D01*
X148190000Y-90810000D02*
X148015000Y-90810000D01*
X148015000Y-90810000D02*
X146721502Y-92103498D01*
X139125000Y-98735000D02*
X139125000Y-104300824D01*
X139125000Y-104300824D02*
X139506154Y-104681978D01*
X150275000Y-123848805D02*
X150098805Y-123848805D01*
X150098805Y-123848805D02*
X149300000Y-123050000D01*
X141794319Y-104334998D02*
X141794319Y-104264999D01*
X141750000Y-104520000D02*
X141750000Y-104379317D01*
X141750000Y-104379317D02*
X141794319Y-104334998D01*
X161550000Y-99500000D02*
X160000000Y-101050000D01*
X160000000Y-101050000D02*
X160000000Y-111100000D01*
X164650000Y-99500000D02*
X161550000Y-99500000D01*
X151790000Y-90810000D02*
X148190000Y-90810000D01*
X154875000Y-125000760D02*
X153925760Y-125000760D01*
X153925760Y-125000760D02*
X153925000Y-125000000D01*
X157325000Y-124998220D02*
X158411780Y-124998220D01*
X158411780Y-124998220D02*
X164560000Y-118850000D01*
X156740608Y-119564992D02*
X156740608Y-120112090D01*
X157325000Y-122701690D02*
X157325000Y-124998220D01*
X156740608Y-120112090D02*
X157375000Y-120746482D01*
X157375000Y-120746482D02*
X157375000Y-122651690D01*
X157375000Y-122651690D02*
X157325000Y-122701690D01*
X155597587Y-119869803D02*
X156435797Y-119869803D01*
X156435797Y-119869803D02*
X156740608Y-119564992D01*
X149750000Y-114000000D02*
X152280000Y-116530000D01*
X152280000Y-116530000D02*
X152540000Y-116530000D01*
X148040000Y-114000000D02*
X149750000Y-114000000D01*
X146400000Y-107110000D02*
X147806210Y-107110000D01*
X147806210Y-107110000D02*
X148096331Y-107400121D01*
X158450000Y-92598600D02*
X156759000Y-92598600D01*
X156759000Y-92598600D02*
X156514800Y-92354400D01*
X145283772Y-109846026D02*
X145586587Y-109543211D01*
X144631102Y-109846026D02*
X145283772Y-109846026D01*
X145586587Y-109543211D02*
X146071520Y-109543211D01*
X143598676Y-108813600D02*
X144631102Y-109846026D01*
X141732000Y-108813600D02*
X143598676Y-108813600D01*
X148623413Y-102624464D02*
X148138480Y-102624464D01*
X153175516Y-100164047D02*
X150715099Y-102624464D01*
X150715099Y-102624464D02*
X148623413Y-102624464D01*
X150250000Y-125048980D02*
X151198980Y-125048980D01*
X151198980Y-125048980D02*
X151200000Y-125050000D01*
X132120000Y-106320000D02*
X132120000Y-97460000D01*
X132120000Y-97460000D02*
X133876819Y-95703181D01*
X133876819Y-95703181D02*
X134244456Y-95703181D01*
X134244456Y-95703181D02*
X134587355Y-95360282D01*
X131548499Y-96891501D02*
X131847101Y-96592899D01*
X131548499Y-107508499D02*
X131548499Y-96891501D01*
X132250000Y-108210000D02*
X131548499Y-107508499D01*
X131847101Y-96592899D02*
X132190000Y-96250000D01*
X136310000Y-100340000D02*
X136310000Y-96100000D01*
X136310000Y-96100000D02*
X135470000Y-95260000D01*
X135522899Y-101127101D02*
X136310000Y-100340000D01*
X134120000Y-101470000D02*
X134462899Y-101127101D01*
X134462899Y-101127101D02*
X135522899Y-101127101D01*
X146456400Y-111404400D02*
X143949424Y-111404400D01*
X142064533Y-110794800D02*
X141579600Y-110794800D01*
X143949424Y-111404400D02*
X143073122Y-110528098D01*
X143073122Y-110528098D02*
X142331235Y-110528098D01*
X142331235Y-110528098D02*
X142064533Y-110794800D01*
X140665200Y-109728000D02*
X140512800Y-109728000D01*
X140512800Y-109728000D02*
X139598400Y-108813600D01*
X150090000Y-100390000D02*
X148860000Y-101620000D01*
X148860000Y-101620000D02*
X148380000Y-101620000D01*
X143167899Y-106317899D02*
X142825000Y-105975000D01*
X144434398Y-107584398D02*
X143167899Y-106317899D01*
X146264924Y-108975000D02*
X144874322Y-107584398D01*
X152375000Y-108975000D02*
X146264924Y-108975000D01*
X144874322Y-107584398D02*
X144434398Y-107584398D01*
X158295000Y-109800000D02*
X157300000Y-109800000D01*
X157300000Y-109800000D02*
X157100000Y-110000000D01*
X158295000Y-110200000D02*
X157300000Y-110200000D01*
X157300000Y-110200000D02*
X157100000Y-110000000D01*
X156375000Y-122999240D02*
X156375000Y-121500000D01*
X156375000Y-121500000D02*
X156225000Y-121350000D01*
X156375000Y-122999240D02*
X153927540Y-122999240D01*
X153927540Y-122999240D02*
X153925000Y-123001780D01*
X144600000Y-108994100D02*
X144333299Y-108727399D01*
X144333299Y-108727399D02*
X144186873Y-108727399D01*
X144186873Y-108727399D02*
X142861874Y-107402400D01*
X142861874Y-107402400D02*
X140711874Y-107402400D01*
X141650000Y-94600000D02*
X141650000Y-94125000D01*
X140711874Y-107402400D02*
X137722600Y-104413126D01*
X137722600Y-104413126D02*
X137722600Y-99111874D01*
X137722600Y-99111874D02*
X141822600Y-95011874D01*
X141822600Y-95011874D02*
X141822600Y-94772600D01*
X141822600Y-94772600D02*
X141650000Y-94600000D01*
X142925000Y-95450000D02*
X142440067Y-95450000D01*
X142440067Y-95450000D02*
X142128193Y-95138126D01*
X142128193Y-95138126D02*
X142127400Y-95138126D01*
X142300000Y-94125000D02*
X142300000Y-94600000D01*
X142300000Y-94600000D02*
X142127400Y-94772600D01*
X142127400Y-94772600D02*
X142127400Y-95138126D01*
X142988126Y-107097600D02*
X144313127Y-108422601D01*
X144333299Y-108422601D02*
X144600000Y-108155900D01*
X142127400Y-95138126D02*
X138027400Y-99238126D01*
X138027400Y-99238126D02*
X138027400Y-104286874D01*
X138027400Y-104286874D02*
X140838126Y-107097600D01*
X144313127Y-108422601D02*
X144333299Y-108422601D01*
X140838126Y-107097600D02*
X142988126Y-107097600D01*
D33*
G36*
X130770003Y-103990752D02*
X130964299Y-103990921D01*
X130964299Y-107508499D01*
X131008769Y-107732063D01*
X131109452Y-107882746D01*
X131135407Y-107921591D01*
X131399121Y-108185305D01*
X131398953Y-108378512D01*
X131525882Y-108685703D01*
X131401545Y-108985138D01*
X131401250Y-109323647D01*
X131530519Y-109636501D01*
X131700854Y-109807134D01*
X131682048Y-109900000D01*
X131682048Y-110800000D01*
X131717470Y-110988253D01*
X131828728Y-111161153D01*
X131959940Y-111250807D01*
X131838847Y-111328728D01*
X131722855Y-111498488D01*
X131682048Y-111700000D01*
X131682048Y-112600000D01*
X131717470Y-112788253D01*
X131828728Y-112961153D01*
X131998488Y-113077145D01*
X132200000Y-113117952D01*
X133400000Y-113117952D01*
X133588253Y-113082530D01*
X133761153Y-112971272D01*
X133877145Y-112801512D01*
X133899341Y-112691905D01*
X133917470Y-112788253D01*
X134028728Y-112961153D01*
X134198488Y-113077145D01*
X134400000Y-113117952D01*
X135600000Y-113117952D01*
X135698524Y-113099414D01*
X135696957Y-113100978D01*
X135635420Y-113249174D01*
X135381488Y-113248953D01*
X135068634Y-113378222D01*
X134829063Y-113617375D01*
X134699248Y-113930003D01*
X134698953Y-114268512D01*
X134828222Y-114581366D01*
X135067375Y-114820937D01*
X135380003Y-114950752D01*
X135574738Y-114950922D01*
X136995800Y-116371983D01*
X136995800Y-119618795D01*
X136645158Y-119473196D01*
X136196809Y-119472805D01*
X135782440Y-119644019D01*
X135465133Y-119960772D01*
X135293196Y-120374842D01*
X135292805Y-120823191D01*
X135464019Y-121237560D01*
X135780772Y-121554867D01*
X136194842Y-121726804D01*
X136643191Y-121727195D01*
X137057560Y-121555981D01*
X137253850Y-121360034D01*
X137794432Y-121900616D01*
X137708400Y-122333129D01*
X137708400Y-122386871D01*
X137812807Y-122911760D01*
X138110132Y-123356739D01*
X138425466Y-123567438D01*
X138305053Y-123617312D01*
X137873179Y-124011510D01*
X137625032Y-124540973D01*
X137745531Y-124773000D01*
X138953000Y-124773000D01*
X138953000Y-124753000D01*
X139207000Y-124753000D01*
X139207000Y-124773000D01*
X141493000Y-124773000D01*
X141493000Y-124753000D01*
X141747000Y-124753000D01*
X141747000Y-124773000D01*
X144033000Y-124773000D01*
X144033000Y-124753000D01*
X144287000Y-124753000D01*
X144287000Y-124773000D01*
X146573000Y-124773000D01*
X146573000Y-124753000D01*
X146827000Y-124753000D01*
X146827000Y-124773000D01*
X148039850Y-124773000D01*
X148198600Y-124614250D01*
X148198600Y-123910091D01*
X148184450Y-123875930D01*
X148318512Y-123876047D01*
X148517497Y-123793828D01*
X148528678Y-123811203D01*
X148698438Y-123927195D01*
X148899950Y-123968002D01*
X149391818Y-123968002D01*
X149423968Y-124000152D01*
X149423953Y-124017317D01*
X149522550Y-124255939D01*
X149488797Y-124277658D01*
X149372805Y-124447418D01*
X149331998Y-124648930D01*
X149331998Y-125417000D01*
X148198600Y-125417000D01*
X148198600Y-125185750D01*
X148039850Y-125027000D01*
X146827000Y-125027000D01*
X146827000Y-125047000D01*
X146573000Y-125047000D01*
X146573000Y-125027000D01*
X144287000Y-125027000D01*
X144287000Y-125047000D01*
X144033000Y-125047000D01*
X144033000Y-125027000D01*
X141747000Y-125027000D01*
X141747000Y-125047000D01*
X141493000Y-125047000D01*
X141493000Y-125027000D01*
X139207000Y-125027000D01*
X139207000Y-125047000D01*
X138953000Y-125047000D01*
X138953000Y-125027000D01*
X137745531Y-125027000D01*
X137625032Y-125259027D01*
X137699070Y-125417000D01*
X132807421Y-125417000D01*
X131925095Y-125241495D01*
X131225777Y-124774225D01*
X130758505Y-124074904D01*
X130583000Y-123192578D01*
X130583000Y-120624570D01*
X130592054Y-120629452D01*
X130595444Y-120629798D01*
X130637783Y-120649175D01*
X130641654Y-120650093D01*
X130648877Y-120650357D01*
X130655529Y-120653181D01*
X130663911Y-120654925D01*
X130666048Y-120654944D01*
X130668020Y-120655762D01*
X130680478Y-120658248D01*
X130681528Y-120658249D01*
X130682499Y-120658647D01*
X130698596Y-120661792D01*
X130699264Y-120661790D01*
X130699883Y-120662042D01*
X130719185Y-120665762D01*
X130719672Y-120665759D01*
X130720124Y-120665942D01*
X130742195Y-120670153D01*
X130742588Y-120670150D01*
X130742955Y-120670298D01*
X130767359Y-120674916D01*
X130767695Y-120674913D01*
X130768006Y-120675038D01*
X130794307Y-120679980D01*
X130794634Y-120679977D01*
X130794937Y-120680098D01*
X130796226Y-120680338D01*
X130783608Y-120698940D01*
X130783383Y-120699473D01*
X130782971Y-120699881D01*
X130767671Y-120722544D01*
X130767410Y-120723165D01*
X130766934Y-120723639D01*
X130753228Y-120744054D01*
X130752894Y-120744856D01*
X130752279Y-120745472D01*
X130740365Y-120763346D01*
X130739914Y-120764439D01*
X130739082Y-120765280D01*
X130729155Y-120780320D01*
X130728455Y-120782036D01*
X130727162Y-120783363D01*
X130719419Y-120795277D01*
X130718137Y-120798487D01*
X130715756Y-120800995D01*
X130710393Y-120809491D01*
X130707062Y-120818164D01*
X130700913Y-120825121D01*
X130698127Y-120829904D01*
X130689066Y-120856264D01*
X130673194Y-120878543D01*
X130671711Y-120884984D01*
X130667985Y-120890528D01*
X130667624Y-120891392D01*
X130657941Y-120939401D01*
X130644540Y-120966973D01*
X130643551Y-120983516D01*
X130638623Y-120996345D01*
X130638784Y-121002544D01*
X130633060Y-121019196D01*
X130634697Y-121045730D01*
X130628279Y-121073601D01*
X130628041Y-121081542D01*
X130628601Y-121084877D01*
X130628051Y-121087605D01*
X130635062Y-121123347D01*
X130635155Y-121123903D01*
X130632591Y-121166779D01*
X130633401Y-121172671D01*
X130638162Y-121186436D01*
X130638107Y-121201003D01*
X130645368Y-121218720D01*
X130645384Y-121218978D01*
X130645943Y-121220122D01*
X130652258Y-121235530D01*
X130655649Y-121264206D01*
X130660032Y-121272034D01*
X130661192Y-121278941D01*
X130678546Y-121306678D01*
X130681345Y-121311300D01*
X130698824Y-121361840D01*
X130708490Y-121372736D01*
X130714014Y-121386214D01*
X130715948Y-121389133D01*
X130738087Y-121411438D01*
X130753438Y-121438855D01*
X130758606Y-121444907D01*
X130765577Y-121450403D01*
X130770175Y-121457997D01*
X130778615Y-121467225D01*
X130781986Y-121469702D01*
X130784209Y-121473243D01*
X130795960Y-121485685D01*
X130797912Y-121487071D01*
X130799206Y-121489092D01*
X130814307Y-121504789D01*
X130815586Y-121505680D01*
X130816435Y-121506988D01*
X130834926Y-121525982D01*
X130835816Y-121526594D01*
X130836407Y-121527497D01*
X130858326Y-121549827D01*
X130858978Y-121550271D01*
X130859414Y-121550933D01*
X130884800Y-121576639D01*
X130885302Y-121576979D01*
X130885636Y-121577483D01*
X130914529Y-121606605D01*
X130914914Y-121606865D01*
X130915172Y-121607252D01*
X130947610Y-121639831D01*
X130947836Y-121639983D01*
X130947987Y-121640209D01*
X130961702Y-121653955D01*
X130961888Y-121654079D01*
X130962011Y-121654264D01*
X130987225Y-121679492D01*
X130987500Y-121679676D01*
X130987684Y-121679951D01*
X131011992Y-121704211D01*
X131012262Y-121704391D01*
X131012443Y-121704661D01*
X131035596Y-121727711D01*
X131035905Y-121727917D01*
X131036111Y-121728222D01*
X131057865Y-121749818D01*
X131058187Y-121750031D01*
X131058404Y-121750353D01*
X131078510Y-121770254D01*
X131078912Y-121770519D01*
X131079182Y-121770918D01*
X131097395Y-121788879D01*
X131097882Y-121789200D01*
X131098211Y-121789682D01*
X131114285Y-121805463D01*
X131114951Y-121805899D01*
X131115400Y-121806554D01*
X131129087Y-121819910D01*
X131130082Y-121820557D01*
X131130759Y-121821535D01*
X131141814Y-121832225D01*
X131143551Y-121833344D01*
X131144740Y-121835032D01*
X131152915Y-121842813D01*
X131157082Y-121845451D01*
X131159997Y-121849427D01*
X131165047Y-121854055D01*
X131173470Y-121859167D01*
X131179198Y-121866465D01*
X131186263Y-121870441D01*
X131191619Y-121876790D01*
X131193170Y-121878028D01*
X131251781Y-121908340D01*
X131048693Y-122111074D01*
X130742349Y-122848832D01*
X130741652Y-123647664D01*
X131046708Y-124385955D01*
X131611074Y-124951307D01*
X132348832Y-125257651D01*
X133147664Y-125258348D01*
X133885955Y-124953292D01*
X134451307Y-124388926D01*
X134757651Y-123651168D01*
X134758348Y-122852336D01*
X134453292Y-122114045D01*
X134253767Y-121914171D01*
X134284451Y-121886542D01*
X134323767Y-121864253D01*
X134326566Y-121861837D01*
X134332153Y-121854673D01*
X134337235Y-121851512D01*
X134338350Y-121849955D01*
X134342912Y-121847104D01*
X134349009Y-121841367D01*
X134350817Y-121838831D01*
X134353440Y-121837148D01*
X134362584Y-121828335D01*
X134363425Y-121827125D01*
X134364663Y-121826321D01*
X134376609Y-121814678D01*
X134377120Y-121813934D01*
X134377872Y-121813442D01*
X134392369Y-121799215D01*
X134392720Y-121798701D01*
X134393242Y-121798357D01*
X134410042Y-121781791D01*
X134410310Y-121781397D01*
X134410704Y-121781136D01*
X134429558Y-121762478D01*
X134429776Y-121762155D01*
X134430098Y-121761942D01*
X134450757Y-121741437D01*
X134450948Y-121741153D01*
X134451231Y-121740965D01*
X134473446Y-121718858D01*
X134473619Y-121718601D01*
X134473875Y-121718430D01*
X134497398Y-121694965D01*
X134497559Y-121694724D01*
X134497802Y-121694562D01*
X134522384Y-121669986D01*
X134522514Y-121669791D01*
X134522710Y-121669660D01*
X134539429Y-121652915D01*
X134539581Y-121652687D01*
X134539806Y-121652536D01*
X134573542Y-121618678D01*
X134573784Y-121618315D01*
X134574143Y-121618073D01*
X134604317Y-121587688D01*
X134604622Y-121587227D01*
X134605080Y-121586918D01*
X134631731Y-121559967D01*
X134632127Y-121559367D01*
X134632722Y-121558962D01*
X134655887Y-121535407D01*
X134656414Y-121534604D01*
X134657207Y-121534060D01*
X134676926Y-121513861D01*
X134677677Y-121512707D01*
X134678808Y-121511923D01*
X134695118Y-121495039D01*
X134696219Y-121493327D01*
X134697885Y-121492153D01*
X134710825Y-121478547D01*
X134712633Y-121475689D01*
X134715369Y-121473706D01*
X134724977Y-121463338D01*
X134728463Y-121457666D01*
X134733752Y-121453623D01*
X134740065Y-121446452D01*
X134749248Y-121430616D01*
X134762974Y-121418503D01*
X134766033Y-121414492D01*
X134782970Y-121379876D01*
X134807294Y-121351088D01*
X134812724Y-121334069D01*
X134823360Y-121319514D01*
X134823666Y-121318854D01*
X134830596Y-121290336D01*
X134840476Y-121273297D01*
X134841072Y-121268834D01*
X134843075Y-121265458D01*
X134844789Y-121253531D01*
X134854004Y-121234697D01*
X134855785Y-121206160D01*
X134856502Y-121204596D01*
X134856826Y-121195846D01*
X134868137Y-121160396D01*
X134869037Y-121152430D01*
X134867769Y-121137346D01*
X134870927Y-121124351D01*
X134866988Y-121099028D01*
X134871542Y-121067329D01*
X134871227Y-121061464D01*
X134869234Y-121053660D01*
X134870133Y-121045656D01*
X134863269Y-121021867D01*
X134863910Y-121004571D01*
X134858007Y-120988680D01*
X134858020Y-120987937D01*
X134854451Y-120978870D01*
X134852274Y-120952970D01*
X134840811Y-120930764D01*
X134840158Y-120926568D01*
X134834346Y-120917024D01*
X134821706Y-120867523D01*
X134816878Y-120861075D01*
X134814646Y-120853338D01*
X134813089Y-120850326D01*
X134800972Y-120835143D01*
X134794208Y-120816936D01*
X134789986Y-120810081D01*
X134786551Y-120806382D01*
X134784702Y-120801685D01*
X134778012Y-120791279D01*
X134776342Y-120789549D01*
X134775441Y-120787320D01*
X134766477Y-120773654D01*
X134765472Y-120772632D01*
X134764927Y-120771305D01*
X134753887Y-120754675D01*
X134753189Y-120753973D01*
X134752810Y-120753060D01*
X134739890Y-120733756D01*
X134739359Y-120733226D01*
X134739069Y-120732533D01*
X134724465Y-120710849D01*
X134724022Y-120710409D01*
X134723781Y-120709837D01*
X134707689Y-120686066D01*
X134707312Y-120685693D01*
X134707104Y-120685203D01*
X134703687Y-120680178D01*
X134718804Y-120677334D01*
X134719006Y-120677253D01*
X134719220Y-120677255D01*
X134746089Y-120672177D01*
X134746320Y-120672084D01*
X134746570Y-120672086D01*
X134770740Y-120667494D01*
X134771043Y-120667372D01*
X134771368Y-120667374D01*
X134792489Y-120663334D01*
X134792894Y-120663170D01*
X134793331Y-120663172D01*
X134811050Y-120659752D01*
X134811683Y-120659494D01*
X134812369Y-120659496D01*
X134826333Y-120656763D01*
X134827511Y-120656279D01*
X134828782Y-120656277D01*
X134838639Y-120654298D01*
X134841849Y-120652962D01*
X134845327Y-120652909D01*
X134850721Y-120651751D01*
X134861184Y-120647231D01*
X134872560Y-120646560D01*
X134873361Y-120646351D01*
X134930814Y-120618486D01*
X134977103Y-120606249D01*
X134987015Y-120598696D01*
X135000680Y-120594046D01*
X135008592Y-120589470D01*
X135021426Y-120578198D01*
X135023426Y-120577365D01*
X135023829Y-120576961D01*
X135034468Y-120572364D01*
X135042075Y-120564523D01*
X135053459Y-120559002D01*
X135063271Y-120547961D01*
X135075040Y-120541950D01*
X135096858Y-120516354D01*
X135121608Y-120499715D01*
X135126420Y-120492469D01*
X135136312Y-120484931D01*
X135141614Y-120478926D01*
X135149101Y-120466057D01*
X135158982Y-120457379D01*
X135161646Y-120451966D01*
X135165624Y-120448475D01*
X135178184Y-120422982D01*
X135194023Y-120406163D01*
X135196619Y-120399322D01*
X135204889Y-120389620D01*
X135205664Y-120388233D01*
X135209262Y-120377124D01*
X135210606Y-120375506D01*
X135215493Y-120359738D01*
X135220116Y-120353717D01*
X135221170Y-120349789D01*
X135232339Y-120332970D01*
X135233026Y-120331297D01*
X135235828Y-120316999D01*
X135242276Y-120305916D01*
X135244699Y-120287979D01*
X135254088Y-120268922D01*
X135254690Y-120266672D01*
X135256293Y-120242070D01*
X135265040Y-120219021D01*
X135265564Y-120215900D01*
X135265217Y-120204343D01*
X135267334Y-120197806D01*
X135266996Y-120193565D01*
X135269863Y-120184315D01*
X135270311Y-120180031D01*
X135269390Y-120170061D01*
X135271984Y-120160391D01*
X135272362Y-120154652D01*
X135271547Y-120148445D01*
X135273023Y-120142364D01*
X135273336Y-120134876D01*
X135272715Y-120130892D01*
X135273606Y-120126958D01*
X135273857Y-120117431D01*
X135273416Y-120114860D01*
X135273966Y-120112311D01*
X135274160Y-120100451D01*
X135273857Y-120098785D01*
X135274204Y-120097126D01*
X135274347Y-120082641D01*
X135274131Y-120081494D01*
X135274365Y-120080348D01*
X135274459Y-120062946D01*
X135274316Y-120062205D01*
X135274464Y-120061469D01*
X135274516Y-120040857D01*
X135274414Y-120040338D01*
X135274518Y-120039818D01*
X135274530Y-120015704D01*
X135274466Y-120015384D01*
X135274530Y-120015063D01*
X135274509Y-119987154D01*
X135274467Y-119986945D01*
X135274508Y-119986738D01*
X135274458Y-119954743D01*
X135274431Y-119954609D01*
X135274458Y-119954473D01*
X135274382Y-119918098D01*
X135274369Y-119918035D01*
X135274382Y-119917970D01*
X135274286Y-119876923D01*
X135274281Y-119876897D01*
X135274285Y-119876876D01*
X135274261Y-119866999D01*
X135273622Y-119603773D01*
X135257240Y-119522447D01*
X135257343Y-119499760D01*
X135250735Y-119483601D01*
X135249892Y-119468554D01*
X135247215Y-119462993D01*
X135246157Y-119451772D01*
X135244708Y-119449034D01*
X135240464Y-119423572D01*
X135235826Y-119416139D01*
X135234096Y-119407551D01*
X135215022Y-119379154D01*
X135211787Y-119367252D01*
X135200162Y-119352213D01*
X135199570Y-119350281D01*
X135192926Y-119342228D01*
X135181583Y-119314488D01*
X135180969Y-119313560D01*
X135169892Y-119302382D01*
X135163066Y-119288203D01*
X135162437Y-119287367D01*
X135156221Y-119281810D01*
X135152538Y-119274851D01*
X135151660Y-119273773D01*
X135142005Y-119265782D01*
X135134502Y-119253757D01*
X135128507Y-119247376D01*
X135124663Y-119244631D01*
X135122488Y-119241392D01*
X135112454Y-119234723D01*
X135104205Y-119222985D01*
X135096466Y-119218074D01*
X135089367Y-119208890D01*
X135088447Y-119208089D01*
X135076729Y-119201380D01*
X135072192Y-119195880D01*
X135057466Y-119188058D01*
X135051347Y-119181258D01*
X135048529Y-119179913D01*
X135040076Y-119171383D01*
X135026141Y-119165537D01*
X135013202Y-119153971D01*
X135006324Y-119151563D01*
X134999749Y-119146011D01*
X134998260Y-119145188D01*
X134975102Y-119137806D01*
X134965625Y-119131037D01*
X134955704Y-119128740D01*
X134935203Y-119115729D01*
X134932869Y-119114826D01*
X134922361Y-119112992D01*
X134914743Y-119108630D01*
X134905788Y-119107484D01*
X134895422Y-119101977D01*
X134891965Y-119100937D01*
X134880811Y-119099867D01*
X134870703Y-119095043D01*
X134865844Y-119093807D01*
X134859237Y-119093459D01*
X134853198Y-119090763D01*
X134846663Y-119089277D01*
X134842689Y-119089169D01*
X134839031Y-119087602D01*
X134830540Y-119085807D01*
X134828087Y-119085778D01*
X134825826Y-119084834D01*
X134815104Y-119082671D01*
X134813547Y-119082667D01*
X134812107Y-119082076D01*
X134798876Y-119079490D01*
X134797872Y-119079493D01*
X134796945Y-119079117D01*
X134780927Y-119076050D01*
X134780314Y-119076054D01*
X134779742Y-119075824D01*
X134760661Y-119072217D01*
X134760260Y-119072221D01*
X134759889Y-119072072D01*
X134737467Y-119067869D01*
X134737222Y-119067872D01*
X134736995Y-119067781D01*
X134710955Y-119062925D01*
X134710832Y-119062926D01*
X134710718Y-119062881D01*
X134703836Y-119061601D01*
X134715291Y-119044845D01*
X134715340Y-119044730D01*
X134715429Y-119044643D01*
X134730433Y-119022672D01*
X134730505Y-119022504D01*
X134730637Y-119022374D01*
X134744054Y-119002698D01*
X134744142Y-119002491D01*
X134744303Y-119002333D01*
X134755931Y-118985248D01*
X134756052Y-118984963D01*
X134756273Y-118984745D01*
X134765910Y-118970550D01*
X134766111Y-118970075D01*
X134766478Y-118969712D01*
X134773921Y-118958702D01*
X134774304Y-118957790D01*
X134775006Y-118957091D01*
X134780052Y-118949564D01*
X134781252Y-118946679D01*
X134783438Y-118944448D01*
X134785886Y-118940701D01*
X134790378Y-118929530D01*
X134798399Y-118920546D01*
X134798574Y-118920249D01*
X134802809Y-118908126D01*
X134806216Y-118904135D01*
X134818607Y-118865963D01*
X134830831Y-118848178D01*
X134833158Y-118837233D01*
X134845835Y-118814130D01*
X134847799Y-118807904D01*
X134850947Y-118779188D01*
X134856950Y-118764761D01*
X134856951Y-118763988D01*
X134860569Y-118754992D01*
X134860453Y-118743782D01*
X134864330Y-118733910D01*
X134864297Y-118732127D01*
X134864591Y-118731286D01*
X134864254Y-118725346D01*
X134868018Y-118713752D01*
X134868954Y-118705825D01*
X134866824Y-118678853D01*
X134872449Y-118652389D01*
X134872461Y-118651473D01*
X134870950Y-118643320D01*
X134872032Y-118637665D01*
X134870328Y-118629412D01*
X134871859Y-118619008D01*
X134871778Y-118617396D01*
X134864344Y-118587859D01*
X134865514Y-118563372D01*
X134860944Y-118550653D01*
X134860632Y-118533781D01*
X134860253Y-118532044D01*
X134855189Y-118520430D01*
X134854956Y-118515036D01*
X134853667Y-118512267D01*
X134853194Y-118506283D01*
X134845640Y-118491468D01*
X134844894Y-118483965D01*
X134839578Y-118474041D01*
X134835986Y-118454661D01*
X134833428Y-118450722D01*
X134831552Y-118441638D01*
X134830676Y-118439566D01*
X134824869Y-118431011D01*
X134822925Y-118423286D01*
X134807927Y-118403110D01*
X134797826Y-118375001D01*
X134796252Y-118372383D01*
X134785456Y-118360504D01*
X134780250Y-118348564D01*
X134775138Y-118343638D01*
X134770456Y-118333583D01*
X134767984Y-118330209D01*
X134757253Y-118320366D01*
X134750374Y-118307525D01*
X134746802Y-118303182D01*
X134739793Y-118297441D01*
X134735239Y-118289607D01*
X134730369Y-118284087D01*
X134725855Y-118280645D01*
X134722896Y-118275800D01*
X134716528Y-118268891D01*
X134713533Y-118266708D01*
X134711557Y-118263574D01*
X134703490Y-118255066D01*
X134701508Y-118253664D01*
X134700195Y-118251624D01*
X134690226Y-118241305D01*
X134688898Y-118240384D01*
X134688014Y-118239029D01*
X134675945Y-118226691D01*
X134675057Y-118226083D01*
X134674465Y-118225184D01*
X134660096Y-118210614D01*
X134659494Y-118210205D01*
X134659092Y-118209599D01*
X134642221Y-118192587D01*
X134641839Y-118192330D01*
X134641583Y-118191944D01*
X134622012Y-118172279D01*
X134621747Y-118172101D01*
X134621571Y-118171837D01*
X134599097Y-118149310D01*
X134598947Y-118149209D01*
X134598847Y-118149060D01*
X134573271Y-118123458D01*
X134573195Y-118123407D01*
X134573144Y-118123331D01*
X134544266Y-118094445D01*
X134544249Y-118094433D01*
X134544237Y-118094416D01*
X134535526Y-118085704D01*
X134535513Y-118085695D01*
X134535504Y-118085682D01*
X134348757Y-117898936D01*
X134253874Y-117835537D01*
X134241404Y-117824025D01*
X134231836Y-117820502D01*
X134225887Y-117815358D01*
X134221491Y-117813900D01*
X134182329Y-117787733D01*
X134182328Y-117787733D01*
X134182327Y-117787732D01*
X134151126Y-117781526D01*
X134148008Y-117779624D01*
X134131015Y-117776969D01*
X134129198Y-117775932D01*
X134112148Y-117773773D01*
X134107724Y-117772893D01*
X134101327Y-117769663D01*
X134091836Y-117768951D01*
X134053570Y-117754861D01*
X134052448Y-117754684D01*
X134050780Y-117754751D01*
X134050499Y-117754647D01*
X134043642Y-117754917D01*
X134035900Y-117752349D01*
X134034849Y-117752218D01*
X134020851Y-117753234D01*
X134007644Y-117749721D01*
X134006247Y-117749632D01*
X133996994Y-117750867D01*
X133986012Y-117748683D01*
X133975028Y-117748683D01*
X133964007Y-117750875D01*
X133950245Y-117748725D01*
X133949061Y-117748774D01*
X133937283Y-117751628D01*
X133930622Y-117750784D01*
X133913173Y-117755552D01*
X133901725Y-117754693D01*
X133887878Y-117759248D01*
X133882121Y-117758997D01*
X133875117Y-117761546D01*
X133850490Y-117762515D01*
X133848971Y-117762880D01*
X133841686Y-117766239D01*
X133835211Y-117766709D01*
X133819580Y-117774554D01*
X133807844Y-117776121D01*
X133799099Y-117781191D01*
X133780069Y-117784660D01*
X133778011Y-117785474D01*
X133766237Y-117793070D01*
X133754526Y-117795908D01*
X133747972Y-117800691D01*
X133737537Y-117803542D01*
X133734737Y-117804940D01*
X133724224Y-117813090D01*
X133711587Y-117817247D01*
X133707842Y-117819363D01*
X133701674Y-117824670D01*
X133694028Y-117827453D01*
X133689135Y-117830421D01*
X133685425Y-117833820D01*
X133680733Y-117835631D01*
X133674488Y-117839587D01*
X133672153Y-117841811D01*
X133669161Y-117843008D01*
X133661361Y-117848085D01*
X133659812Y-117849597D01*
X133657807Y-117850419D01*
X133648250Y-117856753D01*
X133647255Y-117857741D01*
X133645959Y-117858280D01*
X133634440Y-117866004D01*
X133633745Y-117866701D01*
X133632835Y-117867084D01*
X133619153Y-117876333D01*
X133618698Y-117876793D01*
X133618103Y-117877045D01*
X133602054Y-117887952D01*
X133601739Y-117888271D01*
X133601327Y-117888447D01*
X133582707Y-117901148D01*
X133582488Y-117901372D01*
X133582201Y-117901494D01*
X133560808Y-117916124D01*
X133560680Y-117916255D01*
X133560511Y-117916327D01*
X133559280Y-117917170D01*
X133558560Y-117913347D01*
X133558467Y-117913115D01*
X133558469Y-117912865D01*
X133553129Y-117884677D01*
X133553022Y-117884411D01*
X133553024Y-117884125D01*
X133548157Y-117858585D01*
X133548018Y-117858241D01*
X133548020Y-117857869D01*
X133543689Y-117835317D01*
X133543511Y-117834878D01*
X133543513Y-117834408D01*
X133539785Y-117815178D01*
X133539510Y-117814504D01*
X133539511Y-117813779D01*
X133536447Y-117798210D01*
X133535973Y-117797060D01*
X133535970Y-117795817D01*
X133533635Y-117784244D01*
X133532708Y-117782024D01*
X133532719Y-117780944D01*
X133532562Y-117780554D01*
X133532541Y-117778964D01*
X133531001Y-117771724D01*
X133526998Y-117762409D01*
X133526469Y-117752283D01*
X133525842Y-117749812D01*
X133497378Y-117690104D01*
X133488613Y-117657044D01*
X133663337Y-117482625D01*
X133793152Y-117169997D01*
X133793447Y-116831488D01*
X133664178Y-116518634D01*
X133425025Y-116279063D01*
X133112397Y-116149248D01*
X132773888Y-116148953D01*
X132461034Y-116278222D01*
X132221463Y-116517375D01*
X132091648Y-116830003D01*
X132091353Y-117168512D01*
X132202500Y-117437508D01*
X132192827Y-117441461D01*
X132186288Y-117447938D01*
X132176945Y-117452424D01*
X132165978Y-117464668D01*
X132147403Y-117475158D01*
X132141218Y-117480479D01*
X132133337Y-117490551D01*
X132125609Y-117495559D01*
X132117327Y-117507586D01*
X132107609Y-117514123D01*
X132096650Y-117530636D01*
X132081663Y-117543229D01*
X132074467Y-117557075D01*
X132058198Y-117571932D01*
X132055689Y-117577288D01*
X132050612Y-117582317D01*
X132046312Y-117588686D01*
X132034468Y-117616895D01*
X132017864Y-117638114D01*
X132012485Y-117657453D01*
X131996924Y-117680899D01*
X131996823Y-117681145D01*
X131989491Y-117718618D01*
X131973294Y-117753196D01*
X131972444Y-117756643D01*
X131972039Y-117765565D01*
X131968529Y-117773780D01*
X131966835Y-117781829D01*
X131966808Y-117784245D01*
X131965881Y-117786472D01*
X131963409Y-117798777D01*
X131963407Y-117799914D01*
X131962975Y-117800964D01*
X131959792Y-117817177D01*
X131959794Y-117817874D01*
X131959531Y-117818518D01*
X131955703Y-117838296D01*
X131955705Y-117838762D01*
X131955529Y-117839196D01*
X131951121Y-117862192D01*
X131951124Y-117862569D01*
X131950982Y-117862919D01*
X131946062Y-117888788D01*
X131946065Y-117889086D01*
X131945954Y-117889360D01*
X131940651Y-117917413D01*
X131938906Y-117916219D01*
X131938600Y-117916088D01*
X131938365Y-117915849D01*
X131915666Y-117900363D01*
X131915183Y-117900157D01*
X131914813Y-117899782D01*
X131895240Y-117886485D01*
X131894492Y-117886169D01*
X131893925Y-117885596D01*
X131877222Y-117874324D01*
X131876148Y-117873874D01*
X131875325Y-117873050D01*
X131861238Y-117863635D01*
X131859584Y-117862949D01*
X131858309Y-117861692D01*
X131846582Y-117853970D01*
X131844115Y-117852968D01*
X131842202Y-117851118D01*
X131832582Y-117844923D01*
X131828847Y-117843449D01*
X131825917Y-117840703D01*
X131818149Y-117835868D01*
X131812351Y-117833683D01*
X131807731Y-117829554D01*
X131801560Y-117825913D01*
X131792382Y-117822701D01*
X131784895Y-117816496D01*
X131780068Y-117813886D01*
X131765480Y-117809384D01*
X131762087Y-117806893D01*
X131758124Y-117803795D01*
X131757712Y-117803681D01*
X131753173Y-117800348D01*
X131749435Y-117798602D01*
X131732043Y-117794334D01*
X131723624Y-117788652D01*
X131722125Y-117788347D01*
X131721207Y-117787733D01*
X131716227Y-117786742D01*
X131706470Y-117780858D01*
X131703567Y-117779810D01*
X131670982Y-117774886D01*
X131640827Y-117761591D01*
X131638502Y-117761074D01*
X131614758Y-117760539D01*
X131612633Y-117759795D01*
X131605997Y-117760167D01*
X131588805Y-117754862D01*
X131583607Y-117755349D01*
X131565254Y-117750254D01*
X131563256Y-117750105D01*
X131555612Y-117751042D01*
X131555039Y-117750901D01*
X131548181Y-117751952D01*
X131545258Y-117752310D01*
X131527491Y-117748690D01*
X131527276Y-117748689D01*
X131526084Y-117748920D01*
X131524890Y-117748683D01*
X131513989Y-117748683D01*
X131506910Y-117750091D01*
X131505651Y-117749901D01*
X131496601Y-117752142D01*
X131474379Y-117756562D01*
X131470715Y-117757291D01*
X131438390Y-117756562D01*
X131405091Y-117769483D01*
X131364578Y-117774447D01*
X131353786Y-117780549D01*
X131317674Y-117787732D01*
X131317673Y-117787733D01*
X131317672Y-117787733D01*
X131261728Y-117825113D01*
X131251784Y-117828972D01*
X131242101Y-117838228D01*
X131151243Y-117898937D01*
X131151241Y-117898940D01*
X130964497Y-118085682D01*
X130964489Y-118085693D01*
X130964478Y-118085701D01*
X130934654Y-118115528D01*
X130934616Y-118115584D01*
X130934563Y-118115620D01*
X130908097Y-118142102D01*
X130908023Y-118142213D01*
X130907911Y-118142288D01*
X130884601Y-118165636D01*
X130884460Y-118165848D01*
X130884248Y-118165990D01*
X130863893Y-118186417D01*
X130863668Y-118186755D01*
X130863332Y-118186981D01*
X130845734Y-118204697D01*
X130845386Y-118205222D01*
X130844864Y-118205575D01*
X130829822Y-118220791D01*
X130829306Y-118221573D01*
X130828533Y-118222100D01*
X130815846Y-118235026D01*
X130815053Y-118236237D01*
X130813860Y-118237060D01*
X130803328Y-118247911D01*
X130802167Y-118249706D01*
X130800415Y-118250936D01*
X130791836Y-118259920D01*
X130790071Y-118262699D01*
X130787399Y-118264625D01*
X130780575Y-118271955D01*
X130777926Y-118276243D01*
X130773894Y-118279270D01*
X130768622Y-118285156D01*
X130764580Y-118291991D01*
X130758380Y-118296948D01*
X130754461Y-118301601D01*
X130748312Y-118312760D01*
X130738763Y-118321193D01*
X130735996Y-118324825D01*
X130726905Y-118343421D01*
X130712531Y-118358315D01*
X130710717Y-118361137D01*
X130701312Y-118385034D01*
X130687892Y-118401436D01*
X130685607Y-118409010D01*
X130679403Y-118417304D01*
X130678340Y-118419528D01*
X130674631Y-118434083D01*
X130668827Y-118442559D01*
X130663895Y-118465960D01*
X130657861Y-118476911D01*
X130657187Y-118482960D01*
X130646992Y-118503133D01*
X130646481Y-118504968D01*
X130645896Y-118512732D01*
X130643721Y-118517252D01*
X130642803Y-118533693D01*
X130637411Y-118547394D01*
X130637769Y-118567559D01*
X130630073Y-118593066D01*
X130629912Y-118594727D01*
X130630978Y-118605388D01*
X130628913Y-118613492D01*
X130630493Y-118624451D01*
X130627549Y-118638420D01*
X130627538Y-118639388D01*
X130633818Y-118672946D01*
X130631434Y-118704565D01*
X130633001Y-118709333D01*
X130632567Y-118717104D01*
X130633813Y-118725908D01*
X130640940Y-118746255D01*
X130640963Y-118747524D01*
X130641513Y-118748787D01*
X130641441Y-118759779D01*
X130644612Y-118767579D01*
X130644616Y-118768447D01*
X130648118Y-118776798D01*
X130649828Y-118793896D01*
X130656562Y-118806450D01*
X130660656Y-118832113D01*
X130663690Y-118840309D01*
X130686321Y-118877147D01*
X130700162Y-118918107D01*
X130700604Y-118918875D01*
X130710926Y-118930678D01*
X130716831Y-118945201D01*
X130718919Y-118948370D01*
X130720924Y-118950401D01*
X130722028Y-118953034D01*
X130726756Y-118960044D01*
X130727305Y-118960588D01*
X130727605Y-118961298D01*
X130734765Y-118971845D01*
X130735023Y-118972099D01*
X130735164Y-118972432D01*
X130744548Y-118986213D01*
X130744722Y-118986384D01*
X130744819Y-118986612D01*
X130756221Y-119003324D01*
X130756332Y-119003433D01*
X130756392Y-119003573D01*
X130769603Y-119022913D01*
X130769697Y-119023005D01*
X130769749Y-119023127D01*
X130784563Y-119044789D01*
X130784633Y-119044858D01*
X130784671Y-119044946D01*
X130795946Y-119061420D01*
X130784016Y-119063641D01*
X130783895Y-119063690D01*
X130783763Y-119063688D01*
X130758018Y-119068495D01*
X130757892Y-119068546D01*
X130757755Y-119068544D01*
X130734451Y-119072908D01*
X130734274Y-119072979D01*
X130734086Y-119072977D01*
X130713630Y-119076823D01*
X130713403Y-119076914D01*
X130713155Y-119076912D01*
X130695953Y-119080163D01*
X130695595Y-119080307D01*
X130695210Y-119080304D01*
X130681674Y-119082883D01*
X130680997Y-119083157D01*
X130680267Y-119083153D01*
X130670801Y-119084984D01*
X130668864Y-119085774D01*
X130666772Y-119085780D01*
X130661786Y-119086786D01*
X130656673Y-119088920D01*
X130651129Y-119089053D01*
X130650803Y-119089126D01*
X130622068Y-119101843D01*
X130590979Y-119106395D01*
X130583000Y-119109233D01*
X130583000Y-103913101D01*
X130770003Y-103990752D01*
X130770003Y-103990752D01*
G37*
X130770003Y-103990752D02*
X130964299Y-103990921D01*
X130964299Y-107508499D01*
X131008769Y-107732063D01*
X131109452Y-107882746D01*
X131135407Y-107921591D01*
X131399121Y-108185305D01*
X131398953Y-108378512D01*
X131525882Y-108685703D01*
X131401545Y-108985138D01*
X131401250Y-109323647D01*
X131530519Y-109636501D01*
X131700854Y-109807134D01*
X131682048Y-109900000D01*
X131682048Y-110800000D01*
X131717470Y-110988253D01*
X131828728Y-111161153D01*
X131959940Y-111250807D01*
X131838847Y-111328728D01*
X131722855Y-111498488D01*
X131682048Y-111700000D01*
X131682048Y-112600000D01*
X131717470Y-112788253D01*
X131828728Y-112961153D01*
X131998488Y-113077145D01*
X132200000Y-113117952D01*
X133400000Y-113117952D01*
X133588253Y-113082530D01*
X133761153Y-112971272D01*
X133877145Y-112801512D01*
X133899341Y-112691905D01*
X133917470Y-112788253D01*
X134028728Y-112961153D01*
X134198488Y-113077145D01*
X134400000Y-113117952D01*
X135600000Y-113117952D01*
X135698524Y-113099414D01*
X135696957Y-113100978D01*
X135635420Y-113249174D01*
X135381488Y-113248953D01*
X135068634Y-113378222D01*
X134829063Y-113617375D01*
X134699248Y-113930003D01*
X134698953Y-114268512D01*
X134828222Y-114581366D01*
X135067375Y-114820937D01*
X135380003Y-114950752D01*
X135574738Y-114950922D01*
X136995800Y-116371983D01*
X136995800Y-119618795D01*
X136645158Y-119473196D01*
X136196809Y-119472805D01*
X135782440Y-119644019D01*
X135465133Y-119960772D01*
X135293196Y-120374842D01*
X135292805Y-120823191D01*
X135464019Y-121237560D01*
X135780772Y-121554867D01*
X136194842Y-121726804D01*
X136643191Y-121727195D01*
X137057560Y-121555981D01*
X137253850Y-121360034D01*
X137794432Y-121900616D01*
X137708400Y-122333129D01*
X137708400Y-122386871D01*
X137812807Y-122911760D01*
X138110132Y-123356739D01*
X138425466Y-123567438D01*
X138305053Y-123617312D01*
X137873179Y-124011510D01*
X137625032Y-124540973D01*
X137745531Y-124773000D01*
X138953000Y-124773000D01*
X138953000Y-124753000D01*
X139207000Y-124753000D01*
X139207000Y-124773000D01*
X141493000Y-124773000D01*
X141493000Y-124753000D01*
X141747000Y-124753000D01*
X141747000Y-124773000D01*
X144033000Y-124773000D01*
X144033000Y-124753000D01*
X144287000Y-124753000D01*
X144287000Y-124773000D01*
X146573000Y-124773000D01*
X146573000Y-124753000D01*
X146827000Y-124753000D01*
X146827000Y-124773000D01*
X148039850Y-124773000D01*
X148198600Y-124614250D01*
X148198600Y-123910091D01*
X148184450Y-123875930D01*
X148318512Y-123876047D01*
X148517497Y-123793828D01*
X148528678Y-123811203D01*
X148698438Y-123927195D01*
X148899950Y-123968002D01*
X149391818Y-123968002D01*
X149423968Y-124000152D01*
X149423953Y-124017317D01*
X149522550Y-124255939D01*
X149488797Y-124277658D01*
X149372805Y-124447418D01*
X149331998Y-124648930D01*
X149331998Y-125417000D01*
X148198600Y-125417000D01*
X148198600Y-125185750D01*
X148039850Y-125027000D01*
X146827000Y-125027000D01*
X146827000Y-125047000D01*
X146573000Y-125047000D01*
X146573000Y-125027000D01*
X144287000Y-125027000D01*
X144287000Y-125047000D01*
X144033000Y-125047000D01*
X144033000Y-125027000D01*
X141747000Y-125027000D01*
X141747000Y-125047000D01*
X141493000Y-125047000D01*
X141493000Y-125027000D01*
X139207000Y-125027000D01*
X139207000Y-125047000D01*
X138953000Y-125047000D01*
X138953000Y-125027000D01*
X137745531Y-125027000D01*
X137625032Y-125259027D01*
X137699070Y-125417000D01*
X132807421Y-125417000D01*
X131925095Y-125241495D01*
X131225777Y-124774225D01*
X130758505Y-124074904D01*
X130583000Y-123192578D01*
X130583000Y-120624570D01*
X130592054Y-120629452D01*
X130595444Y-120629798D01*
X130637783Y-120649175D01*
X130641654Y-120650093D01*
X130648877Y-120650357D01*
X130655529Y-120653181D01*
X130663911Y-120654925D01*
X130666048Y-120654944D01*
X130668020Y-120655762D01*
X130680478Y-120658248D01*
X130681528Y-120658249D01*
X130682499Y-120658647D01*
X130698596Y-120661792D01*
X130699264Y-120661790D01*
X130699883Y-120662042D01*
X130719185Y-120665762D01*
X130719672Y-120665759D01*
X130720124Y-120665942D01*
X130742195Y-120670153D01*
X130742588Y-120670150D01*
X130742955Y-120670298D01*
X130767359Y-120674916D01*
X130767695Y-120674913D01*
X130768006Y-120675038D01*
X130794307Y-120679980D01*
X130794634Y-120679977D01*
X130794937Y-120680098D01*
X130796226Y-120680338D01*
X130783608Y-120698940D01*
X130783383Y-120699473D01*
X130782971Y-120699881D01*
X130767671Y-120722544D01*
X130767410Y-120723165D01*
X130766934Y-120723639D01*
X130753228Y-120744054D01*
X130752894Y-120744856D01*
X130752279Y-120745472D01*
X130740365Y-120763346D01*
X130739914Y-120764439D01*
X130739082Y-120765280D01*
X130729155Y-120780320D01*
X130728455Y-120782036D01*
X130727162Y-120783363D01*
X130719419Y-120795277D01*
X130718137Y-120798487D01*
X130715756Y-120800995D01*
X130710393Y-120809491D01*
X130707062Y-120818164D01*
X130700913Y-120825121D01*
X130698127Y-120829904D01*
X130689066Y-120856264D01*
X130673194Y-120878543D01*
X130671711Y-120884984D01*
X130667985Y-120890528D01*
X130667624Y-120891392D01*
X130657941Y-120939401D01*
X130644540Y-120966973D01*
X130643551Y-120983516D01*
X130638623Y-120996345D01*
X130638784Y-121002544D01*
X130633060Y-121019196D01*
X130634697Y-121045730D01*
X130628279Y-121073601D01*
X130628041Y-121081542D01*
X130628601Y-121084877D01*
X130628051Y-121087605D01*
X130635062Y-121123347D01*
X130635155Y-121123903D01*
X130632591Y-121166779D01*
X130633401Y-121172671D01*
X130638162Y-121186436D01*
X130638107Y-121201003D01*
X130645368Y-121218720D01*
X130645384Y-121218978D01*
X130645943Y-121220122D01*
X130652258Y-121235530D01*
X130655649Y-121264206D01*
X130660032Y-121272034D01*
X130661192Y-121278941D01*
X130678546Y-121306678D01*
X130681345Y-121311300D01*
X130698824Y-121361840D01*
X130708490Y-121372736D01*
X130714014Y-121386214D01*
X130715948Y-121389133D01*
X130738087Y-121411438D01*
X130753438Y-121438855D01*
X130758606Y-121444907D01*
X130765577Y-121450403D01*
X130770175Y-121457997D01*
X130778615Y-121467225D01*
X130781986Y-121469702D01*
X130784209Y-121473243D01*
X130795960Y-121485685D01*
X130797912Y-121487071D01*
X130799206Y-121489092D01*
X130814307Y-121504789D01*
X130815586Y-121505680D01*
X130816435Y-121506988D01*
X130834926Y-121525982D01*
X130835816Y-121526594D01*
X130836407Y-121527497D01*
X130858326Y-121549827D01*
X130858978Y-121550271D01*
X130859414Y-121550933D01*
X130884800Y-121576639D01*
X130885302Y-121576979D01*
X130885636Y-121577483D01*
X130914529Y-121606605D01*
X130914914Y-121606865D01*
X130915172Y-121607252D01*
X130947610Y-121639831D01*
X130947836Y-121639983D01*
X130947987Y-121640209D01*
X130961702Y-121653955D01*
X130961888Y-121654079D01*
X130962011Y-121654264D01*
X130987225Y-121679492D01*
X130987500Y-121679676D01*
X130987684Y-121679951D01*
X131011992Y-121704211D01*
X131012262Y-121704391D01*
X131012443Y-121704661D01*
X131035596Y-121727711D01*
X131035905Y-121727917D01*
X131036111Y-121728222D01*
X131057865Y-121749818D01*
X131058187Y-121750031D01*
X131058404Y-121750353D01*
X131078510Y-121770254D01*
X131078912Y-121770519D01*
X131079182Y-121770918D01*
X131097395Y-121788879D01*
X131097882Y-121789200D01*
X131098211Y-121789682D01*
X131114285Y-121805463D01*
X131114951Y-121805899D01*
X131115400Y-121806554D01*
X131129087Y-121819910D01*
X131130082Y-121820557D01*
X131130759Y-121821535D01*
X131141814Y-121832225D01*
X131143551Y-121833344D01*
X131144740Y-121835032D01*
X131152915Y-121842813D01*
X131157082Y-121845451D01*
X131159997Y-121849427D01*
X131165047Y-121854055D01*
X131173470Y-121859167D01*
X131179198Y-121866465D01*
X131186263Y-121870441D01*
X131191619Y-121876790D01*
X131193170Y-121878028D01*
X131251781Y-121908340D01*
X131048693Y-122111074D01*
X130742349Y-122848832D01*
X130741652Y-123647664D01*
X131046708Y-124385955D01*
X131611074Y-124951307D01*
X132348832Y-125257651D01*
X133147664Y-125258348D01*
X133885955Y-124953292D01*
X134451307Y-124388926D01*
X134757651Y-123651168D01*
X134758348Y-122852336D01*
X134453292Y-122114045D01*
X134253767Y-121914171D01*
X134284451Y-121886542D01*
X134323767Y-121864253D01*
X134326566Y-121861837D01*
X134332153Y-121854673D01*
X134337235Y-121851512D01*
X134338350Y-121849955D01*
X134342912Y-121847104D01*
X134349009Y-121841367D01*
X134350817Y-121838831D01*
X134353440Y-121837148D01*
X134362584Y-121828335D01*
X134363425Y-121827125D01*
X134364663Y-121826321D01*
X134376609Y-121814678D01*
X134377120Y-121813934D01*
X134377872Y-121813442D01*
X134392369Y-121799215D01*
X134392720Y-121798701D01*
X134393242Y-121798357D01*
X134410042Y-121781791D01*
X134410310Y-121781397D01*
X134410704Y-121781136D01*
X134429558Y-121762478D01*
X134429776Y-121762155D01*
X134430098Y-121761942D01*
X134450757Y-121741437D01*
X134450948Y-121741153D01*
X134451231Y-121740965D01*
X134473446Y-121718858D01*
X134473619Y-121718601D01*
X134473875Y-121718430D01*
X134497398Y-121694965D01*
X134497559Y-121694724D01*
X134497802Y-121694562D01*
X134522384Y-121669986D01*
X134522514Y-121669791D01*
X134522710Y-121669660D01*
X134539429Y-121652915D01*
X134539581Y-121652687D01*
X134539806Y-121652536D01*
X134573542Y-121618678D01*
X134573784Y-121618315D01*
X134574143Y-121618073D01*
X134604317Y-121587688D01*
X134604622Y-121587227D01*
X134605080Y-121586918D01*
X134631731Y-121559967D01*
X134632127Y-121559367D01*
X134632722Y-121558962D01*
X134655887Y-121535407D01*
X134656414Y-121534604D01*
X134657207Y-121534060D01*
X134676926Y-121513861D01*
X134677677Y-121512707D01*
X134678808Y-121511923D01*
X134695118Y-121495039D01*
X134696219Y-121493327D01*
X134697885Y-121492153D01*
X134710825Y-121478547D01*
X134712633Y-121475689D01*
X134715369Y-121473706D01*
X134724977Y-121463338D01*
X134728463Y-121457666D01*
X134733752Y-121453623D01*
X134740065Y-121446452D01*
X134749248Y-121430616D01*
X134762974Y-121418503D01*
X134766033Y-121414492D01*
X134782970Y-121379876D01*
X134807294Y-121351088D01*
X134812724Y-121334069D01*
X134823360Y-121319514D01*
X134823666Y-121318854D01*
X134830596Y-121290336D01*
X134840476Y-121273297D01*
X134841072Y-121268834D01*
X134843075Y-121265458D01*
X134844789Y-121253531D01*
X134854004Y-121234697D01*
X134855785Y-121206160D01*
X134856502Y-121204596D01*
X134856826Y-121195846D01*
X134868137Y-121160396D01*
X134869037Y-121152430D01*
X134867769Y-121137346D01*
X134870927Y-121124351D01*
X134866988Y-121099028D01*
X134871542Y-121067329D01*
X134871227Y-121061464D01*
X134869234Y-121053660D01*
X134870133Y-121045656D01*
X134863269Y-121021867D01*
X134863910Y-121004571D01*
X134858007Y-120988680D01*
X134858020Y-120987937D01*
X134854451Y-120978870D01*
X134852274Y-120952970D01*
X134840811Y-120930764D01*
X134840158Y-120926568D01*
X134834346Y-120917024D01*
X134821706Y-120867523D01*
X134816878Y-120861075D01*
X134814646Y-120853338D01*
X134813089Y-120850326D01*
X134800972Y-120835143D01*
X134794208Y-120816936D01*
X134789986Y-120810081D01*
X134786551Y-120806382D01*
X134784702Y-120801685D01*
X134778012Y-120791279D01*
X134776342Y-120789549D01*
X134775441Y-120787320D01*
X134766477Y-120773654D01*
X134765472Y-120772632D01*
X134764927Y-120771305D01*
X134753887Y-120754675D01*
X134753189Y-120753973D01*
X134752810Y-120753060D01*
X134739890Y-120733756D01*
X134739359Y-120733226D01*
X134739069Y-120732533D01*
X134724465Y-120710849D01*
X134724022Y-120710409D01*
X134723781Y-120709837D01*
X134707689Y-120686066D01*
X134707312Y-120685693D01*
X134707104Y-120685203D01*
X134703687Y-120680178D01*
X134718804Y-120677334D01*
X134719006Y-120677253D01*
X134719220Y-120677255D01*
X134746089Y-120672177D01*
X134746320Y-120672084D01*
X134746570Y-120672086D01*
X134770740Y-120667494D01*
X134771043Y-120667372D01*
X134771368Y-120667374D01*
X134792489Y-120663334D01*
X134792894Y-120663170D01*
X134793331Y-120663172D01*
X134811050Y-120659752D01*
X134811683Y-120659494D01*
X134812369Y-120659496D01*
X134826333Y-120656763D01*
X134827511Y-120656279D01*
X134828782Y-120656277D01*
X134838639Y-120654298D01*
X134841849Y-120652962D01*
X134845327Y-120652909D01*
X134850721Y-120651751D01*
X134861184Y-120647231D01*
X134872560Y-120646560D01*
X134873361Y-120646351D01*
X134930814Y-120618486D01*
X134977103Y-120606249D01*
X134987015Y-120598696D01*
X135000680Y-120594046D01*
X135008592Y-120589470D01*
X135021426Y-120578198D01*
X135023426Y-120577365D01*
X135023829Y-120576961D01*
X135034468Y-120572364D01*
X135042075Y-120564523D01*
X135053459Y-120559002D01*
X135063271Y-120547961D01*
X135075040Y-120541950D01*
X135096858Y-120516354D01*
X135121608Y-120499715D01*
X135126420Y-120492469D01*
X135136312Y-120484931D01*
X135141614Y-120478926D01*
X135149101Y-120466057D01*
X135158982Y-120457379D01*
X135161646Y-120451966D01*
X135165624Y-120448475D01*
X135178184Y-120422982D01*
X135194023Y-120406163D01*
X135196619Y-120399322D01*
X135204889Y-120389620D01*
X135205664Y-120388233D01*
X135209262Y-120377124D01*
X135210606Y-120375506D01*
X135215493Y-120359738D01*
X135220116Y-120353717D01*
X135221170Y-120349789D01*
X135232339Y-120332970D01*
X135233026Y-120331297D01*
X135235828Y-120316999D01*
X135242276Y-120305916D01*
X135244699Y-120287979D01*
X135254088Y-120268922D01*
X135254690Y-120266672D01*
X135256293Y-120242070D01*
X135265040Y-120219021D01*
X135265564Y-120215900D01*
X135265217Y-120204343D01*
X135267334Y-120197806D01*
X135266996Y-120193565D01*
X135269863Y-120184315D01*
X135270311Y-120180031D01*
X135269390Y-120170061D01*
X135271984Y-120160391D01*
X135272362Y-120154652D01*
X135271547Y-120148445D01*
X135273023Y-120142364D01*
X135273336Y-120134876D01*
X135272715Y-120130892D01*
X135273606Y-120126958D01*
X135273857Y-120117431D01*
X135273416Y-120114860D01*
X135273966Y-120112311D01*
X135274160Y-120100451D01*
X135273857Y-120098785D01*
X135274204Y-120097126D01*
X135274347Y-120082641D01*
X135274131Y-120081494D01*
X135274365Y-120080348D01*
X135274459Y-120062946D01*
X135274316Y-120062205D01*
X135274464Y-120061469D01*
X135274516Y-120040857D01*
X135274414Y-120040338D01*
X135274518Y-120039818D01*
X135274530Y-120015704D01*
X135274466Y-120015384D01*
X135274530Y-120015063D01*
X135274509Y-119987154D01*
X135274467Y-119986945D01*
X135274508Y-119986738D01*
X135274458Y-119954743D01*
X135274431Y-119954609D01*
X135274458Y-119954473D01*
X135274382Y-119918098D01*
X135274369Y-119918035D01*
X135274382Y-119917970D01*
X135274286Y-119876923D01*
X135274281Y-119876897D01*
X135274285Y-119876876D01*
X135274261Y-119866999D01*
X135273622Y-119603773D01*
X135257240Y-119522447D01*
X135257343Y-119499760D01*
X135250735Y-119483601D01*
X135249892Y-119468554D01*
X135247215Y-119462993D01*
X135246157Y-119451772D01*
X135244708Y-119449034D01*
X135240464Y-119423572D01*
X135235826Y-119416139D01*
X135234096Y-119407551D01*
X135215022Y-119379154D01*
X135211787Y-119367252D01*
X135200162Y-119352213D01*
X135199570Y-119350281D01*
X135192926Y-119342228D01*
X135181583Y-119314488D01*
X135180969Y-119313560D01*
X135169892Y-119302382D01*
X135163066Y-119288203D01*
X135162437Y-119287367D01*
X135156221Y-119281810D01*
X135152538Y-119274851D01*
X135151660Y-119273773D01*
X135142005Y-119265782D01*
X135134502Y-119253757D01*
X135128507Y-119247376D01*
X135124663Y-119244631D01*
X135122488Y-119241392D01*
X135112454Y-119234723D01*
X135104205Y-119222985D01*
X135096466Y-119218074D01*
X135089367Y-119208890D01*
X135088447Y-119208089D01*
X135076729Y-119201380D01*
X135072192Y-119195880D01*
X135057466Y-119188058D01*
X135051347Y-119181258D01*
X135048529Y-119179913D01*
X135040076Y-119171383D01*
X135026141Y-119165537D01*
X135013202Y-119153971D01*
X135006324Y-119151563D01*
X134999749Y-119146011D01*
X134998260Y-119145188D01*
X134975102Y-119137806D01*
X134965625Y-119131037D01*
X134955704Y-119128740D01*
X134935203Y-119115729D01*
X134932869Y-119114826D01*
X134922361Y-119112992D01*
X134914743Y-119108630D01*
X134905788Y-119107484D01*
X134895422Y-119101977D01*
X134891965Y-119100937D01*
X134880811Y-119099867D01*
X134870703Y-119095043D01*
X134865844Y-119093807D01*
X134859237Y-119093459D01*
X134853198Y-119090763D01*
X134846663Y-119089277D01*
X134842689Y-119089169D01*
X134839031Y-119087602D01*
X134830540Y-119085807D01*
X134828087Y-119085778D01*
X134825826Y-119084834D01*
X134815104Y-119082671D01*
X134813547Y-119082667D01*
X134812107Y-119082076D01*
X134798876Y-119079490D01*
X134797872Y-119079493D01*
X134796945Y-119079117D01*
X134780927Y-119076050D01*
X134780314Y-119076054D01*
X134779742Y-119075824D01*
X134760661Y-119072217D01*
X134760260Y-119072221D01*
X134759889Y-119072072D01*
X134737467Y-119067869D01*
X134737222Y-119067872D01*
X134736995Y-119067781D01*
X134710955Y-119062925D01*
X134710832Y-119062926D01*
X134710718Y-119062881D01*
X134703836Y-119061601D01*
X134715291Y-119044845D01*
X134715340Y-119044730D01*
X134715429Y-119044643D01*
X134730433Y-119022672D01*
X134730505Y-119022504D01*
X134730637Y-119022374D01*
X134744054Y-119002698D01*
X134744142Y-119002491D01*
X134744303Y-119002333D01*
X134755931Y-118985248D01*
X134756052Y-118984963D01*
X134756273Y-118984745D01*
X134765910Y-118970550D01*
X134766111Y-118970075D01*
X134766478Y-118969712D01*
X134773921Y-118958702D01*
X134774304Y-118957790D01*
X134775006Y-118957091D01*
X134780052Y-118949564D01*
X134781252Y-118946679D01*
X134783438Y-118944448D01*
X134785886Y-118940701D01*
X134790378Y-118929530D01*
X134798399Y-118920546D01*
X134798574Y-118920249D01*
X134802809Y-118908126D01*
X134806216Y-118904135D01*
X134818607Y-118865963D01*
X134830831Y-118848178D01*
X134833158Y-118837233D01*
X134845835Y-118814130D01*
X134847799Y-118807904D01*
X134850947Y-118779188D01*
X134856950Y-118764761D01*
X134856951Y-118763988D01*
X134860569Y-118754992D01*
X134860453Y-118743782D01*
X134864330Y-118733910D01*
X134864297Y-118732127D01*
X134864591Y-118731286D01*
X134864254Y-118725346D01*
X134868018Y-118713752D01*
X134868954Y-118705825D01*
X134866824Y-118678853D01*
X134872449Y-118652389D01*
X134872461Y-118651473D01*
X134870950Y-118643320D01*
X134872032Y-118637665D01*
X134870328Y-118629412D01*
X134871859Y-118619008D01*
X134871778Y-118617396D01*
X134864344Y-118587859D01*
X134865514Y-118563372D01*
X134860944Y-118550653D01*
X134860632Y-118533781D01*
X134860253Y-118532044D01*
X134855189Y-118520430D01*
X134854956Y-118515036D01*
X134853667Y-118512267D01*
X134853194Y-118506283D01*
X134845640Y-118491468D01*
X134844894Y-118483965D01*
X134839578Y-118474041D01*
X134835986Y-118454661D01*
X134833428Y-118450722D01*
X134831552Y-118441638D01*
X134830676Y-118439566D01*
X134824869Y-118431011D01*
X134822925Y-118423286D01*
X134807927Y-118403110D01*
X134797826Y-118375001D01*
X134796252Y-118372383D01*
X134785456Y-118360504D01*
X134780250Y-118348564D01*
X134775138Y-118343638D01*
X134770456Y-118333583D01*
X134767984Y-118330209D01*
X134757253Y-118320366D01*
X134750374Y-118307525D01*
X134746802Y-118303182D01*
X134739793Y-118297441D01*
X134735239Y-118289607D01*
X134730369Y-118284087D01*
X134725855Y-118280645D01*
X134722896Y-118275800D01*
X134716528Y-118268891D01*
X134713533Y-118266708D01*
X134711557Y-118263574D01*
X134703490Y-118255066D01*
X134701508Y-118253664D01*
X134700195Y-118251624D01*
X134690226Y-118241305D01*
X134688898Y-118240384D01*
X134688014Y-118239029D01*
X134675945Y-118226691D01*
X134675057Y-118226083D01*
X134674465Y-118225184D01*
X134660096Y-118210614D01*
X134659494Y-118210205D01*
X134659092Y-118209599D01*
X134642221Y-118192587D01*
X134641839Y-118192330D01*
X134641583Y-118191944D01*
X134622012Y-118172279D01*
X134621747Y-118172101D01*
X134621571Y-118171837D01*
X134599097Y-118149310D01*
X134598947Y-118149209D01*
X134598847Y-118149060D01*
X134573271Y-118123458D01*
X134573195Y-118123407D01*
X134573144Y-118123331D01*
X134544266Y-118094445D01*
X134544249Y-118094433D01*
X134544237Y-118094416D01*
X134535526Y-118085704D01*
X134535513Y-118085695D01*
X134535504Y-118085682D01*
X134348757Y-117898936D01*
X134253874Y-117835537D01*
X134241404Y-117824025D01*
X134231836Y-117820502D01*
X134225887Y-117815358D01*
X134221491Y-117813900D01*
X134182329Y-117787733D01*
X134182328Y-117787733D01*
X134182327Y-117787732D01*
X134151126Y-117781526D01*
X134148008Y-117779624D01*
X134131015Y-117776969D01*
X134129198Y-117775932D01*
X134112148Y-117773773D01*
X134107724Y-117772893D01*
X134101327Y-117769663D01*
X134091836Y-117768951D01*
X134053570Y-117754861D01*
X134052448Y-117754684D01*
X134050780Y-117754751D01*
X134050499Y-117754647D01*
X134043642Y-117754917D01*
X134035900Y-117752349D01*
X134034849Y-117752218D01*
X134020851Y-117753234D01*
X134007644Y-117749721D01*
X134006247Y-117749632D01*
X133996994Y-117750867D01*
X133986012Y-117748683D01*
X133975028Y-117748683D01*
X133964007Y-117750875D01*
X133950245Y-117748725D01*
X133949061Y-117748774D01*
X133937283Y-117751628D01*
X133930622Y-117750784D01*
X133913173Y-117755552D01*
X133901725Y-117754693D01*
X133887878Y-117759248D01*
X133882121Y-117758997D01*
X133875117Y-117761546D01*
X133850490Y-117762515D01*
X133848971Y-117762880D01*
X133841686Y-117766239D01*
X133835211Y-117766709D01*
X133819580Y-117774554D01*
X133807844Y-117776121D01*
X133799099Y-117781191D01*
X133780069Y-117784660D01*
X133778011Y-117785474D01*
X133766237Y-117793070D01*
X133754526Y-117795908D01*
X133747972Y-117800691D01*
X133737537Y-117803542D01*
X133734737Y-117804940D01*
X133724224Y-117813090D01*
X133711587Y-117817247D01*
X133707842Y-117819363D01*
X133701674Y-117824670D01*
X133694028Y-117827453D01*
X133689135Y-117830421D01*
X133685425Y-117833820D01*
X133680733Y-117835631D01*
X133674488Y-117839587D01*
X133672153Y-117841811D01*
X133669161Y-117843008D01*
X133661361Y-117848085D01*
X133659812Y-117849597D01*
X133657807Y-117850419D01*
X133648250Y-117856753D01*
X133647255Y-117857741D01*
X133645959Y-117858280D01*
X133634440Y-117866004D01*
X133633745Y-117866701D01*
X133632835Y-117867084D01*
X133619153Y-117876333D01*
X133618698Y-117876793D01*
X133618103Y-117877045D01*
X133602054Y-117887952D01*
X133601739Y-117888271D01*
X133601327Y-117888447D01*
X133582707Y-117901148D01*
X133582488Y-117901372D01*
X133582201Y-117901494D01*
X133560808Y-117916124D01*
X133560680Y-117916255D01*
X133560511Y-117916327D01*
X133559280Y-117917170D01*
X133558560Y-117913347D01*
X133558467Y-117913115D01*
X133558469Y-117912865D01*
X133553129Y-117884677D01*
X133553022Y-117884411D01*
X133553024Y-117884125D01*
X133548157Y-117858585D01*
X133548018Y-117858241D01*
X133548020Y-117857869D01*
X133543689Y-117835317D01*
X133543511Y-117834878D01*
X133543513Y-117834408D01*
X133539785Y-117815178D01*
X133539510Y-117814504D01*
X133539511Y-117813779D01*
X133536447Y-117798210D01*
X133535973Y-117797060D01*
X133535970Y-117795817D01*
X133533635Y-117784244D01*
X133532708Y-117782024D01*
X133532719Y-117780944D01*
X133532562Y-117780554D01*
X133532541Y-117778964D01*
X133531001Y-117771724D01*
X133526998Y-117762409D01*
X133526469Y-117752283D01*
X133525842Y-117749812D01*
X133497378Y-117690104D01*
X133488613Y-117657044D01*
X133663337Y-117482625D01*
X133793152Y-117169997D01*
X133793447Y-116831488D01*
X133664178Y-116518634D01*
X133425025Y-116279063D01*
X133112397Y-116149248D01*
X132773888Y-116148953D01*
X132461034Y-116278222D01*
X132221463Y-116517375D01*
X132091648Y-116830003D01*
X132091353Y-117168512D01*
X132202500Y-117437508D01*
X132192827Y-117441461D01*
X132186288Y-117447938D01*
X132176945Y-117452424D01*
X132165978Y-117464668D01*
X132147403Y-117475158D01*
X132141218Y-117480479D01*
X132133337Y-117490551D01*
X132125609Y-117495559D01*
X132117327Y-117507586D01*
X132107609Y-117514123D01*
X132096650Y-117530636D01*
X132081663Y-117543229D01*
X132074467Y-117557075D01*
X132058198Y-117571932D01*
X132055689Y-117577288D01*
X132050612Y-117582317D01*
X132046312Y-117588686D01*
X132034468Y-117616895D01*
X132017864Y-117638114D01*
X132012485Y-117657453D01*
X131996924Y-117680899D01*
X131996823Y-117681145D01*
X131989491Y-117718618D01*
X131973294Y-117753196D01*
X131972444Y-117756643D01*
X131972039Y-117765565D01*
X131968529Y-117773780D01*
X131966835Y-117781829D01*
X131966808Y-117784245D01*
X131965881Y-117786472D01*
X131963409Y-117798777D01*
X131963407Y-117799914D01*
X131962975Y-117800964D01*
X131959792Y-117817177D01*
X131959794Y-117817874D01*
X131959531Y-117818518D01*
X131955703Y-117838296D01*
X131955705Y-117838762D01*
X131955529Y-117839196D01*
X131951121Y-117862192D01*
X131951124Y-117862569D01*
X131950982Y-117862919D01*
X131946062Y-117888788D01*
X131946065Y-117889086D01*
X131945954Y-117889360D01*
X131940651Y-117917413D01*
X131938906Y-117916219D01*
X131938600Y-117916088D01*
X131938365Y-117915849D01*
X131915666Y-117900363D01*
X131915183Y-117900157D01*
X131914813Y-117899782D01*
X131895240Y-117886485D01*
X131894492Y-117886169D01*
X131893925Y-117885596D01*
X131877222Y-117874324D01*
X131876148Y-117873874D01*
X131875325Y-117873050D01*
X131861238Y-117863635D01*
X131859584Y-117862949D01*
X131858309Y-117861692D01*
X131846582Y-117853970D01*
X131844115Y-117852968D01*
X131842202Y-117851118D01*
X131832582Y-117844923D01*
X131828847Y-117843449D01*
X131825917Y-117840703D01*
X131818149Y-117835868D01*
X131812351Y-117833683D01*
X131807731Y-117829554D01*
X131801560Y-117825913D01*
X131792382Y-117822701D01*
X131784895Y-117816496D01*
X131780068Y-117813886D01*
X131765480Y-117809384D01*
X131762087Y-117806893D01*
X131758124Y-117803795D01*
X131757712Y-117803681D01*
X131753173Y-117800348D01*
X131749435Y-117798602D01*
X131732043Y-117794334D01*
X131723624Y-117788652D01*
X131722125Y-117788347D01*
X131721207Y-117787733D01*
X131716227Y-117786742D01*
X131706470Y-117780858D01*
X131703567Y-117779810D01*
X131670982Y-117774886D01*
X131640827Y-117761591D01*
X131638502Y-117761074D01*
X131614758Y-117760539D01*
X131612633Y-117759795D01*
X131605997Y-117760167D01*
X131588805Y-117754862D01*
X131583607Y-117755349D01*
X131565254Y-117750254D01*
X131563256Y-117750105D01*
X131555612Y-117751042D01*
X131555039Y-117750901D01*
X131548181Y-117751952D01*
X131545258Y-117752310D01*
X131527491Y-117748690D01*
X131527276Y-117748689D01*
X131526084Y-117748920D01*
X131524890Y-117748683D01*
X131513989Y-117748683D01*
X131506910Y-117750091D01*
X131505651Y-117749901D01*
X131496601Y-117752142D01*
X131474379Y-117756562D01*
X131470715Y-117757291D01*
X131438390Y-117756562D01*
X131405091Y-117769483D01*
X131364578Y-117774447D01*
X131353786Y-117780549D01*
X131317674Y-117787732D01*
X131317673Y-117787733D01*
X131317672Y-117787733D01*
X131261728Y-117825113D01*
X131251784Y-117828972D01*
X131242101Y-117838228D01*
X131151243Y-117898937D01*
X131151241Y-117898940D01*
X130964497Y-118085682D01*
X130964489Y-118085693D01*
X130964478Y-118085701D01*
X130934654Y-118115528D01*
X130934616Y-118115584D01*
X130934563Y-118115620D01*
X130908097Y-118142102D01*
X130908023Y-118142213D01*
X130907911Y-118142288D01*
X130884601Y-118165636D01*
X130884460Y-118165848D01*
X130884248Y-118165990D01*
X130863893Y-118186417D01*
X130863668Y-118186755D01*
X130863332Y-118186981D01*
X130845734Y-118204697D01*
X130845386Y-118205222D01*
X130844864Y-118205575D01*
X130829822Y-118220791D01*
X130829306Y-118221573D01*
X130828533Y-118222100D01*
X130815846Y-118235026D01*
X130815053Y-118236237D01*
X130813860Y-118237060D01*
X130803328Y-118247911D01*
X130802167Y-118249706D01*
X130800415Y-118250936D01*
X130791836Y-118259920D01*
X130790071Y-118262699D01*
X130787399Y-118264625D01*
X130780575Y-118271955D01*
X130777926Y-118276243D01*
X130773894Y-118279270D01*
X130768622Y-118285156D01*
X130764580Y-118291991D01*
X130758380Y-118296948D01*
X130754461Y-118301601D01*
X130748312Y-118312760D01*
X130738763Y-118321193D01*
X130735996Y-118324825D01*
X130726905Y-118343421D01*
X130712531Y-118358315D01*
X130710717Y-118361137D01*
X130701312Y-118385034D01*
X130687892Y-118401436D01*
X130685607Y-118409010D01*
X130679403Y-118417304D01*
X130678340Y-118419528D01*
X130674631Y-118434083D01*
X130668827Y-118442559D01*
X130663895Y-118465960D01*
X130657861Y-118476911D01*
X130657187Y-118482960D01*
X130646992Y-118503133D01*
X130646481Y-118504968D01*
X130645896Y-118512732D01*
X130643721Y-118517252D01*
X130642803Y-118533693D01*
X130637411Y-118547394D01*
X130637769Y-118567559D01*
X130630073Y-118593066D01*
X130629912Y-118594727D01*
X130630978Y-118605388D01*
X130628913Y-118613492D01*
X130630493Y-118624451D01*
X130627549Y-118638420D01*
X130627538Y-118639388D01*
X130633818Y-118672946D01*
X130631434Y-118704565D01*
X130633001Y-118709333D01*
X130632567Y-118717104D01*
X130633813Y-118725908D01*
X130640940Y-118746255D01*
X130640963Y-118747524D01*
X130641513Y-118748787D01*
X130641441Y-118759779D01*
X130644612Y-118767579D01*
X130644616Y-118768447D01*
X130648118Y-118776798D01*
X130649828Y-118793896D01*
X130656562Y-118806450D01*
X130660656Y-118832113D01*
X130663690Y-118840309D01*
X130686321Y-118877147D01*
X130700162Y-118918107D01*
X130700604Y-118918875D01*
X130710926Y-118930678D01*
X130716831Y-118945201D01*
X130718919Y-118948370D01*
X130720924Y-118950401D01*
X130722028Y-118953034D01*
X130726756Y-118960044D01*
X130727305Y-118960588D01*
X130727605Y-118961298D01*
X130734765Y-118971845D01*
X130735023Y-118972099D01*
X130735164Y-118972432D01*
X130744548Y-118986213D01*
X130744722Y-118986384D01*
X130744819Y-118986612D01*
X130756221Y-119003324D01*
X130756332Y-119003433D01*
X130756392Y-119003573D01*
X130769603Y-119022913D01*
X130769697Y-119023005D01*
X130769749Y-119023127D01*
X130784563Y-119044789D01*
X130784633Y-119044858D01*
X130784671Y-119044946D01*
X130795946Y-119061420D01*
X130784016Y-119063641D01*
X130783895Y-119063690D01*
X130783763Y-119063688D01*
X130758018Y-119068495D01*
X130757892Y-119068546D01*
X130757755Y-119068544D01*
X130734451Y-119072908D01*
X130734274Y-119072979D01*
X130734086Y-119072977D01*
X130713630Y-119076823D01*
X130713403Y-119076914D01*
X130713155Y-119076912D01*
X130695953Y-119080163D01*
X130695595Y-119080307D01*
X130695210Y-119080304D01*
X130681674Y-119082883D01*
X130680997Y-119083157D01*
X130680267Y-119083153D01*
X130670801Y-119084984D01*
X130668864Y-119085774D01*
X130666772Y-119085780D01*
X130661786Y-119086786D01*
X130656673Y-119088920D01*
X130651129Y-119089053D01*
X130650803Y-119089126D01*
X130622068Y-119101843D01*
X130590979Y-119106395D01*
X130583000Y-119109233D01*
X130583000Y-103913101D01*
X130770003Y-103990752D01*
G36*
X151678472Y-121972689D02*
X151636137Y-122014950D01*
X151485750Y-122014950D01*
X151327000Y-122173700D01*
X151327000Y-122923000D01*
X151347000Y-122923000D01*
X151347000Y-123177000D01*
X151327000Y-123177000D01*
X151327000Y-123926300D01*
X151485750Y-124085050D01*
X151726359Y-124085050D01*
X151959748Y-123988377D01*
X152138377Y-123809749D01*
X152229290Y-123590267D01*
X152452196Y-123813563D01*
X152764824Y-123943378D01*
X153103333Y-123943673D01*
X153299499Y-123862618D01*
X153323438Y-123878975D01*
X153524950Y-123919782D01*
X154325050Y-123919782D01*
X154513303Y-123884360D01*
X154686203Y-123773102D01*
X154802195Y-123603342D01*
X154806225Y-123583440D01*
X155491648Y-123583440D01*
X155492420Y-123587543D01*
X155603678Y-123760443D01*
X155773438Y-123876435D01*
X155974950Y-123917242D01*
X156740800Y-123917242D01*
X156740800Y-124114868D01*
X156736697Y-124115640D01*
X156563797Y-124226898D01*
X156447805Y-124396658D01*
X156406998Y-124598170D01*
X156406998Y-125398270D01*
X156410522Y-125417000D01*
X155789723Y-125417000D01*
X155793002Y-125400810D01*
X155793002Y-124600710D01*
X155757580Y-124412457D01*
X155646322Y-124239557D01*
X155476562Y-124123565D01*
X155275050Y-124082758D01*
X154474950Y-124082758D01*
X154286697Y-124118180D01*
X154182166Y-124185444D01*
X154094997Y-124149248D01*
X153821375Y-124149010D01*
X153734748Y-124062383D01*
X153501359Y-123965710D01*
X153260750Y-123965710D01*
X153102000Y-124124460D01*
X153102000Y-124763169D01*
X153074248Y-124830003D01*
X153073971Y-125147760D01*
X152848000Y-125147760D01*
X152848000Y-125127760D01*
X152828000Y-125127760D01*
X152828000Y-124873760D01*
X152848000Y-124873760D01*
X152848000Y-124124460D01*
X152689250Y-123965710D01*
X152448641Y-123965710D01*
X152215252Y-124062383D01*
X152036623Y-124241011D01*
X151939950Y-124474400D01*
X151939950Y-124612613D01*
X151921778Y-124568634D01*
X151682625Y-124329063D01*
X151369997Y-124199248D01*
X151050939Y-124198970D01*
X151125752Y-124018802D01*
X151126047Y-123680293D01*
X151073000Y-123551910D01*
X151073000Y-123265044D01*
X151155390Y-123066628D01*
X151155685Y-122728119D01*
X151073000Y-122528007D01*
X151073000Y-122173700D01*
X151006561Y-122107261D01*
X151678472Y-121435350D01*
X151678472Y-121972689D01*
X151678472Y-121972689D01*
G37*
X151678472Y-121972689D02*
X151636137Y-122014950D01*
X151485750Y-122014950D01*
X151327000Y-122173700D01*
X151327000Y-122923000D01*
X151347000Y-122923000D01*
X151347000Y-123177000D01*
X151327000Y-123177000D01*
X151327000Y-123926300D01*
X151485750Y-124085050D01*
X151726359Y-124085050D01*
X151959748Y-123988377D01*
X152138377Y-123809749D01*
X152229290Y-123590267D01*
X152452196Y-123813563D01*
X152764824Y-123943378D01*
X153103333Y-123943673D01*
X153299499Y-123862618D01*
X153323438Y-123878975D01*
X153524950Y-123919782D01*
X154325050Y-123919782D01*
X154513303Y-123884360D01*
X154686203Y-123773102D01*
X154802195Y-123603342D01*
X154806225Y-123583440D01*
X155491648Y-123583440D01*
X155492420Y-123587543D01*
X155603678Y-123760443D01*
X155773438Y-123876435D01*
X155974950Y-123917242D01*
X156740800Y-123917242D01*
X156740800Y-124114868D01*
X156736697Y-124115640D01*
X156563797Y-124226898D01*
X156447805Y-124396658D01*
X156406998Y-124598170D01*
X156406998Y-125398270D01*
X156410522Y-125417000D01*
X155789723Y-125417000D01*
X155793002Y-125400810D01*
X155793002Y-124600710D01*
X155757580Y-124412457D01*
X155646322Y-124239557D01*
X155476562Y-124123565D01*
X155275050Y-124082758D01*
X154474950Y-124082758D01*
X154286697Y-124118180D01*
X154182166Y-124185444D01*
X154094997Y-124149248D01*
X153821375Y-124149010D01*
X153734748Y-124062383D01*
X153501359Y-123965710D01*
X153260750Y-123965710D01*
X153102000Y-124124460D01*
X153102000Y-124763169D01*
X153074248Y-124830003D01*
X153073971Y-125147760D01*
X152848000Y-125147760D01*
X152848000Y-125127760D01*
X152828000Y-125127760D01*
X152828000Y-124873760D01*
X152848000Y-124873760D01*
X152848000Y-124124460D01*
X152689250Y-123965710D01*
X152448641Y-123965710D01*
X152215252Y-124062383D01*
X152036623Y-124241011D01*
X151939950Y-124474400D01*
X151939950Y-124612613D01*
X151921778Y-124568634D01*
X151682625Y-124329063D01*
X151369997Y-124199248D01*
X151050939Y-124198970D01*
X151125752Y-124018802D01*
X151126047Y-123680293D01*
X151073000Y-123551910D01*
X151073000Y-123265044D01*
X151155390Y-123066628D01*
X151155685Y-122728119D01*
X151073000Y-122528007D01*
X151073000Y-122173700D01*
X151006561Y-122107261D01*
X151678472Y-121435350D01*
X151678472Y-121972689D01*
G36*
X159597805Y-124823191D02*
X159769019Y-125237560D01*
X159948146Y-125417000D01*
X158816359Y-125417000D01*
X158824872Y-125411312D01*
X159597966Y-124638218D01*
X159597805Y-124823191D01*
X159597805Y-124823191D01*
G37*
X159597805Y-124823191D02*
X159769019Y-125237560D01*
X159948146Y-125417000D01*
X158816359Y-125417000D01*
X158824872Y-125411312D01*
X159597966Y-124638218D01*
X159597805Y-124823191D01*
G36*
X147189248Y-113830003D02*
X147188953Y-114168512D01*
X147318222Y-114481366D01*
X147557375Y-114720937D01*
X147870003Y-114850752D01*
X148208512Y-114851047D01*
X148521366Y-114721778D01*
X148659184Y-114584200D01*
X149508016Y-114584200D01*
X151735866Y-116812050D01*
X151818222Y-117011366D01*
X151842462Y-117035648D01*
X151363000Y-117035648D01*
X151139436Y-117080118D01*
X151035417Y-117149621D01*
X150300911Y-117149621D01*
X150301047Y-116993808D01*
X150171778Y-116680954D01*
X149932625Y-116441383D01*
X149619997Y-116311568D01*
X149281488Y-116311273D01*
X148968634Y-116440542D01*
X148729063Y-116679695D01*
X148721586Y-116697701D01*
X148512835Y-116656178D01*
X145813383Y-116656178D01*
X144784491Y-115627286D01*
X144708213Y-115576319D01*
X144651367Y-115538335D01*
X146505502Y-113684200D01*
X147249791Y-113684200D01*
X147189248Y-113830003D01*
X147189248Y-113830003D01*
G37*
X147189248Y-113830003D02*
X147188953Y-114168512D01*
X147318222Y-114481366D01*
X147557375Y-114720937D01*
X147870003Y-114850752D01*
X148208512Y-114851047D01*
X148521366Y-114721778D01*
X148659184Y-114584200D01*
X149508016Y-114584200D01*
X151735866Y-116812050D01*
X151818222Y-117011366D01*
X151842462Y-117035648D01*
X151363000Y-117035648D01*
X151139436Y-117080118D01*
X151035417Y-117149621D01*
X150300911Y-117149621D01*
X150301047Y-116993808D01*
X150171778Y-116680954D01*
X149932625Y-116441383D01*
X149619997Y-116311568D01*
X149281488Y-116311273D01*
X148968634Y-116440542D01*
X148729063Y-116679695D01*
X148721586Y-116697701D01*
X148512835Y-116656178D01*
X145813383Y-116656178D01*
X144784491Y-115627286D01*
X144708213Y-115576319D01*
X144651367Y-115538335D01*
X146505502Y-113684200D01*
X147249791Y-113684200D01*
X147189248Y-113830003D01*
G36*
X161388458Y-100552886D02*
X161526036Y-100690704D01*
X161526036Y-101312471D01*
X161570506Y-101536035D01*
X161697144Y-101725563D01*
X162615800Y-102644220D01*
X162615800Y-110009056D01*
X162322954Y-109887455D01*
X161984445Y-109887160D01*
X161941507Y-109904902D01*
X161901162Y-109807500D01*
X161970000Y-109641310D01*
X161970000Y-109616250D01*
X161953750Y-109600000D01*
X161970000Y-109583750D01*
X161970000Y-109558690D01*
X161904268Y-109400000D01*
X161970000Y-109241310D01*
X161970000Y-109216250D01*
X161953750Y-109200000D01*
X161970000Y-109183750D01*
X161970000Y-109158690D01*
X161904268Y-109000000D01*
X161970000Y-108841310D01*
X161970000Y-108816250D01*
X161953750Y-108800000D01*
X161970000Y-108783750D01*
X161970000Y-108758690D01*
X161904268Y-108600000D01*
X161970000Y-108441310D01*
X161970000Y-108416250D01*
X161953750Y-108400000D01*
X161970000Y-108383750D01*
X161970000Y-108358690D01*
X161904268Y-108200000D01*
X161970000Y-108041310D01*
X161970000Y-108016250D01*
X161953750Y-108000000D01*
X161970000Y-107983750D01*
X161970000Y-107958690D01*
X161904268Y-107800000D01*
X161970000Y-107641310D01*
X161970000Y-107616250D01*
X161953750Y-107600000D01*
X161970000Y-107583750D01*
X161970000Y-107558690D01*
X161904268Y-107400000D01*
X161970000Y-107241310D01*
X161970000Y-107216250D01*
X161953750Y-107200000D01*
X161970000Y-107183750D01*
X161970000Y-107158690D01*
X161904268Y-107000000D01*
X161970000Y-106841310D01*
X161970000Y-106816250D01*
X161953750Y-106800000D01*
X161970000Y-106783750D01*
X161970000Y-106758690D01*
X161904268Y-106600000D01*
X161970000Y-106441310D01*
X161970000Y-106416250D01*
X161953750Y-106400000D01*
X161970000Y-106383750D01*
X161970000Y-106358690D01*
X161901162Y-106192500D01*
X161970000Y-106026310D01*
X161970000Y-105958690D01*
X161873327Y-105725301D01*
X161785526Y-105637500D01*
X161811250Y-105637500D01*
X161970000Y-105478750D01*
X161970000Y-105423690D01*
X161873327Y-105190301D01*
X161694698Y-105011673D01*
X161461309Y-104915000D01*
X161290750Y-104915000D01*
X161132000Y-105073750D01*
X161132000Y-105383205D01*
X160878000Y-105434005D01*
X160878000Y-105073750D01*
X160719250Y-104915000D01*
X160584200Y-104915000D01*
X160584200Y-101291984D01*
X161369406Y-100506778D01*
X161388458Y-100552886D01*
X161388458Y-100552886D01*
G37*
X161388458Y-100552886D02*
X161526036Y-100690704D01*
X161526036Y-101312471D01*
X161570506Y-101536035D01*
X161697144Y-101725563D01*
X162615800Y-102644220D01*
X162615800Y-110009056D01*
X162322954Y-109887455D01*
X161984445Y-109887160D01*
X161941507Y-109904902D01*
X161901162Y-109807500D01*
X161970000Y-109641310D01*
X161970000Y-109616250D01*
X161953750Y-109600000D01*
X161970000Y-109583750D01*
X161970000Y-109558690D01*
X161904268Y-109400000D01*
X161970000Y-109241310D01*
X161970000Y-109216250D01*
X161953750Y-109200000D01*
X161970000Y-109183750D01*
X161970000Y-109158690D01*
X161904268Y-109000000D01*
X161970000Y-108841310D01*
X161970000Y-108816250D01*
X161953750Y-108800000D01*
X161970000Y-108783750D01*
X161970000Y-108758690D01*
X161904268Y-108600000D01*
X161970000Y-108441310D01*
X161970000Y-108416250D01*
X161953750Y-108400000D01*
X161970000Y-108383750D01*
X161970000Y-108358690D01*
X161904268Y-108200000D01*
X161970000Y-108041310D01*
X161970000Y-108016250D01*
X161953750Y-108000000D01*
X161970000Y-107983750D01*
X161970000Y-107958690D01*
X161904268Y-107800000D01*
X161970000Y-107641310D01*
X161970000Y-107616250D01*
X161953750Y-107600000D01*
X161970000Y-107583750D01*
X161970000Y-107558690D01*
X161904268Y-107400000D01*
X161970000Y-107241310D01*
X161970000Y-107216250D01*
X161953750Y-107200000D01*
X161970000Y-107183750D01*
X161970000Y-107158690D01*
X161904268Y-107000000D01*
X161970000Y-106841310D01*
X161970000Y-106816250D01*
X161953750Y-106800000D01*
X161970000Y-106783750D01*
X161970000Y-106758690D01*
X161904268Y-106600000D01*
X161970000Y-106441310D01*
X161970000Y-106416250D01*
X161953750Y-106400000D01*
X161970000Y-106383750D01*
X161970000Y-106358690D01*
X161901162Y-106192500D01*
X161970000Y-106026310D01*
X161970000Y-105958690D01*
X161873327Y-105725301D01*
X161785526Y-105637500D01*
X161811250Y-105637500D01*
X161970000Y-105478750D01*
X161970000Y-105423690D01*
X161873327Y-105190301D01*
X161694698Y-105011673D01*
X161461309Y-104915000D01*
X161290750Y-104915000D01*
X161132000Y-105073750D01*
X161132000Y-105383205D01*
X160878000Y-105434005D01*
X160878000Y-105073750D01*
X160719250Y-104915000D01*
X160584200Y-104915000D01*
X160584200Y-101291984D01*
X161369406Y-100506778D01*
X161388458Y-100552886D01*
G36*
X136139063Y-90657375D02*
X136009248Y-90970003D01*
X136008953Y-91308512D01*
X136138222Y-91621366D01*
X136377375Y-91860937D01*
X136690003Y-91990752D01*
X137028512Y-91991047D01*
X137341366Y-91861778D01*
X137572025Y-91631522D01*
X137580222Y-91803454D01*
X137746136Y-92204005D01*
X137992255Y-92278139D01*
X138820395Y-91450000D01*
X138806252Y-91435858D01*
X138985858Y-91256252D01*
X139000000Y-91270395D01*
X139014142Y-91256252D01*
X139193748Y-91435858D01*
X139179605Y-91450000D01*
X139193748Y-91464143D01*
X139014142Y-91643748D01*
X139000000Y-91629605D01*
X138171861Y-92457745D01*
X138204167Y-92565000D01*
X138173691Y-92565000D01*
X137940302Y-92661673D01*
X137761673Y-92840301D01*
X137665000Y-93073690D01*
X137665000Y-93614250D01*
X137823750Y-93773000D01*
X138973000Y-93773000D01*
X138973000Y-93753000D01*
X139227000Y-93753000D01*
X139227000Y-93773000D01*
X139247000Y-93773000D01*
X139247000Y-94027000D01*
X139227000Y-94027000D01*
X139227000Y-95076250D01*
X139385750Y-95235000D01*
X139466974Y-95235000D01*
X139290987Y-95410987D01*
X139153336Y-95616996D01*
X139149280Y-95637385D01*
X139019063Y-95767375D01*
X138889248Y-96080003D01*
X138888953Y-96418512D01*
X139018222Y-96731366D01*
X139147460Y-96860830D01*
X138860101Y-97148189D01*
X138781778Y-96958634D01*
X138542625Y-96719063D01*
X138229997Y-96589248D01*
X137891488Y-96588953D01*
X137578634Y-96718222D01*
X137339063Y-96957375D01*
X137209248Y-97270003D01*
X137208953Y-97608512D01*
X137338222Y-97921366D01*
X137577375Y-98160937D01*
X137768140Y-98240150D01*
X137309508Y-98698782D01*
X137182870Y-98888310D01*
X137138400Y-99111874D01*
X137138400Y-104413126D01*
X137182870Y-104636690D01*
X137266053Y-104761182D01*
X137309508Y-104826218D01*
X140151365Y-107668075D01*
X139852127Y-107543821D01*
X139346890Y-107543380D01*
X138879942Y-107736318D01*
X138522374Y-108093263D01*
X138496892Y-108154631D01*
X138471248Y-108128942D01*
X138158620Y-107999127D01*
X137963885Y-107998957D01*
X134184200Y-104219272D01*
X134184200Y-103969123D01*
X134320937Y-103832625D01*
X134450752Y-103519997D01*
X134451047Y-103181488D01*
X134321778Y-102868634D01*
X134082625Y-102629063D01*
X133769997Y-102499248D01*
X133431488Y-102498953D01*
X133118634Y-102628222D01*
X132879063Y-102867375D01*
X132749248Y-103180003D01*
X132748953Y-103518512D01*
X132878222Y-103831366D01*
X133015800Y-103969184D01*
X133015800Y-104461256D01*
X133060270Y-104684820D01*
X133150092Y-104819248D01*
X133186908Y-104874348D01*
X137137744Y-108825184D01*
X137137576Y-109018391D01*
X137266845Y-109331245D01*
X137505998Y-109570816D01*
X137818626Y-109700631D01*
X138157135Y-109700926D01*
X138469989Y-109571657D01*
X138517771Y-109523958D01*
X138521118Y-109532058D01*
X138804366Y-109815800D01*
X136491840Y-109815800D01*
X136483564Y-109810270D01*
X136260000Y-109765800D01*
X136092701Y-109765800D01*
X136082530Y-109711747D01*
X135971272Y-109538847D01*
X135801512Y-109422855D01*
X135600000Y-109382048D01*
X134400000Y-109382048D01*
X134211747Y-109417470D01*
X134038847Y-109528728D01*
X133922855Y-109698488D01*
X133900659Y-109808095D01*
X133882530Y-109711747D01*
X133771272Y-109538847D01*
X133601512Y-109422855D01*
X133400000Y-109382048D01*
X133274766Y-109382048D01*
X133213092Y-109289746D01*
X133213089Y-109289744D01*
X133103176Y-109179830D01*
X133103344Y-108986623D01*
X132976415Y-108679432D01*
X133100752Y-108379997D01*
X133101047Y-108041488D01*
X132971778Y-107728634D01*
X132732625Y-107489063D01*
X132419997Y-107359248D01*
X132225262Y-107359078D01*
X132132699Y-107266515D01*
X132132699Y-107170911D01*
X132288512Y-107171047D01*
X132601366Y-107041778D01*
X132840937Y-106802625D01*
X132970752Y-106489997D01*
X132971047Y-106151488D01*
X132841778Y-105838634D01*
X132704200Y-105700816D01*
X132704200Y-97701984D01*
X134118803Y-96287381D01*
X134244456Y-96287381D01*
X134468020Y-96242911D01*
X134515599Y-96211120D01*
X134755867Y-96211329D01*
X135068721Y-96082060D01*
X135116365Y-96034499D01*
X135300003Y-96110752D01*
X135494738Y-96110922D01*
X135725800Y-96341984D01*
X135725800Y-100098016D01*
X135280915Y-100542901D01*
X134462899Y-100542901D01*
X134239335Y-100587371D01*
X134191756Y-100619162D01*
X133951488Y-100618953D01*
X133638634Y-100748222D01*
X133399063Y-100987375D01*
X133269248Y-101300003D01*
X133268953Y-101638512D01*
X133398222Y-101951366D01*
X133637375Y-102190937D01*
X133950003Y-102320752D01*
X134288512Y-102321047D01*
X134601366Y-102191778D01*
X134840937Y-101952625D01*
X134941144Y-101711301D01*
X135522899Y-101711301D01*
X135746463Y-101666831D01*
X135935991Y-101540193D01*
X136723092Y-100753092D01*
X136750490Y-100712088D01*
X136849730Y-100563564D01*
X136894200Y-100340000D01*
X136894200Y-96100000D01*
X136849730Y-95876436D01*
X136723092Y-95686908D01*
X136320879Y-95284695D01*
X136321047Y-95091488D01*
X136191778Y-94778634D01*
X135952625Y-94539063D01*
X135639997Y-94409248D01*
X135301488Y-94408953D01*
X134988634Y-94538222D01*
X134940990Y-94585783D01*
X134757352Y-94509530D01*
X134418843Y-94509235D01*
X134105989Y-94638504D01*
X133866418Y-94877657D01*
X133756253Y-95142963D01*
X133653255Y-95163451D01*
X133508759Y-95260000D01*
X133463727Y-95290089D01*
X132933240Y-95820576D01*
X132911778Y-95768634D01*
X132672625Y-95529063D01*
X132359997Y-95399248D01*
X132021488Y-95398953D01*
X131708634Y-95528222D01*
X131589942Y-95646707D01*
X131402625Y-95459063D01*
X131089997Y-95329248D01*
X130751488Y-95328953D01*
X130583000Y-95398571D01*
X130583000Y-93147664D01*
X130741652Y-93147664D01*
X131046708Y-93885955D01*
X131611074Y-94451307D01*
X132348832Y-94757651D01*
X133147664Y-94758348D01*
X133885955Y-94453292D01*
X134153964Y-94185750D01*
X137665000Y-94185750D01*
X137665000Y-94726310D01*
X137761673Y-94959699D01*
X137940302Y-95138327D01*
X138173691Y-95235000D01*
X138814250Y-95235000D01*
X138973000Y-95076250D01*
X138973000Y-94027000D01*
X137823750Y-94027000D01*
X137665000Y-94185750D01*
X134153964Y-94185750D01*
X134451307Y-93888926D01*
X134757651Y-93151168D01*
X134758348Y-92352336D01*
X134453292Y-91614045D01*
X133888926Y-91048693D01*
X133151168Y-90742349D01*
X132352336Y-90741652D01*
X131614045Y-91046708D01*
X131048693Y-91611074D01*
X130742349Y-92348832D01*
X130741652Y-93147664D01*
X130583000Y-93147664D01*
X130583000Y-92807422D01*
X130758505Y-91925096D01*
X131225777Y-91225775D01*
X131925095Y-90758505D01*
X132807421Y-90583000D01*
X136213568Y-90583000D01*
X136139063Y-90657375D01*
X136139063Y-90657375D01*
G37*
X136139063Y-90657375D02*
X136009248Y-90970003D01*
X136008953Y-91308512D01*
X136138222Y-91621366D01*
X136377375Y-91860937D01*
X136690003Y-91990752D01*
X137028512Y-91991047D01*
X137341366Y-91861778D01*
X137572025Y-91631522D01*
X137580222Y-91803454D01*
X137746136Y-92204005D01*
X137992255Y-92278139D01*
X138820395Y-91450000D01*
X138806252Y-91435858D01*
X138985858Y-91256252D01*
X139000000Y-91270395D01*
X139014142Y-91256252D01*
X139193748Y-91435858D01*
X139179605Y-91450000D01*
X139193748Y-91464143D01*
X139014142Y-91643748D01*
X139000000Y-91629605D01*
X138171861Y-92457745D01*
X138204167Y-92565000D01*
X138173691Y-92565000D01*
X137940302Y-92661673D01*
X137761673Y-92840301D01*
X137665000Y-93073690D01*
X137665000Y-93614250D01*
X137823750Y-93773000D01*
X138973000Y-93773000D01*
X138973000Y-93753000D01*
X139227000Y-93753000D01*
X139227000Y-93773000D01*
X139247000Y-93773000D01*
X139247000Y-94027000D01*
X139227000Y-94027000D01*
X139227000Y-95076250D01*
X139385750Y-95235000D01*
X139466974Y-95235000D01*
X139290987Y-95410987D01*
X139153336Y-95616996D01*
X139149280Y-95637385D01*
X139019063Y-95767375D01*
X138889248Y-96080003D01*
X138888953Y-96418512D01*
X139018222Y-96731366D01*
X139147460Y-96860830D01*
X138860101Y-97148189D01*
X138781778Y-96958634D01*
X138542625Y-96719063D01*
X138229997Y-96589248D01*
X137891488Y-96588953D01*
X137578634Y-96718222D01*
X137339063Y-96957375D01*
X137209248Y-97270003D01*
X137208953Y-97608512D01*
X137338222Y-97921366D01*
X137577375Y-98160937D01*
X137768140Y-98240150D01*
X137309508Y-98698782D01*
X137182870Y-98888310D01*
X137138400Y-99111874D01*
X137138400Y-104413126D01*
X137182870Y-104636690D01*
X137266053Y-104761182D01*
X137309508Y-104826218D01*
X140151365Y-107668075D01*
X139852127Y-107543821D01*
X139346890Y-107543380D01*
X138879942Y-107736318D01*
X138522374Y-108093263D01*
X138496892Y-108154631D01*
X138471248Y-108128942D01*
X138158620Y-107999127D01*
X137963885Y-107998957D01*
X134184200Y-104219272D01*
X134184200Y-103969123D01*
X134320937Y-103832625D01*
X134450752Y-103519997D01*
X134451047Y-103181488D01*
X134321778Y-102868634D01*
X134082625Y-102629063D01*
X133769997Y-102499248D01*
X133431488Y-102498953D01*
X133118634Y-102628222D01*
X132879063Y-102867375D01*
X132749248Y-103180003D01*
X132748953Y-103518512D01*
X132878222Y-103831366D01*
X133015800Y-103969184D01*
X133015800Y-104461256D01*
X133060270Y-104684820D01*
X133150092Y-104819248D01*
X133186908Y-104874348D01*
X137137744Y-108825184D01*
X137137576Y-109018391D01*
X137266845Y-109331245D01*
X137505998Y-109570816D01*
X137818626Y-109700631D01*
X138157135Y-109700926D01*
X138469989Y-109571657D01*
X138517771Y-109523958D01*
X138521118Y-109532058D01*
X138804366Y-109815800D01*
X136491840Y-109815800D01*
X136483564Y-109810270D01*
X136260000Y-109765800D01*
X136092701Y-109765800D01*
X136082530Y-109711747D01*
X135971272Y-109538847D01*
X135801512Y-109422855D01*
X135600000Y-109382048D01*
X134400000Y-109382048D01*
X134211747Y-109417470D01*
X134038847Y-109528728D01*
X133922855Y-109698488D01*
X133900659Y-109808095D01*
X133882530Y-109711747D01*
X133771272Y-109538847D01*
X133601512Y-109422855D01*
X133400000Y-109382048D01*
X133274766Y-109382048D01*
X133213092Y-109289746D01*
X133213089Y-109289744D01*
X133103176Y-109179830D01*
X133103344Y-108986623D01*
X132976415Y-108679432D01*
X133100752Y-108379997D01*
X133101047Y-108041488D01*
X132971778Y-107728634D01*
X132732625Y-107489063D01*
X132419997Y-107359248D01*
X132225262Y-107359078D01*
X132132699Y-107266515D01*
X132132699Y-107170911D01*
X132288512Y-107171047D01*
X132601366Y-107041778D01*
X132840937Y-106802625D01*
X132970752Y-106489997D01*
X132971047Y-106151488D01*
X132841778Y-105838634D01*
X132704200Y-105700816D01*
X132704200Y-97701984D01*
X134118803Y-96287381D01*
X134244456Y-96287381D01*
X134468020Y-96242911D01*
X134515599Y-96211120D01*
X134755867Y-96211329D01*
X135068721Y-96082060D01*
X135116365Y-96034499D01*
X135300003Y-96110752D01*
X135494738Y-96110922D01*
X135725800Y-96341984D01*
X135725800Y-100098016D01*
X135280915Y-100542901D01*
X134462899Y-100542901D01*
X134239335Y-100587371D01*
X134191756Y-100619162D01*
X133951488Y-100618953D01*
X133638634Y-100748222D01*
X133399063Y-100987375D01*
X133269248Y-101300003D01*
X133268953Y-101638512D01*
X133398222Y-101951366D01*
X133637375Y-102190937D01*
X133950003Y-102320752D01*
X134288512Y-102321047D01*
X134601366Y-102191778D01*
X134840937Y-101952625D01*
X134941144Y-101711301D01*
X135522899Y-101711301D01*
X135746463Y-101666831D01*
X135935991Y-101540193D01*
X136723092Y-100753092D01*
X136750490Y-100712088D01*
X136849730Y-100563564D01*
X136894200Y-100340000D01*
X136894200Y-96100000D01*
X136849730Y-95876436D01*
X136723092Y-95686908D01*
X136320879Y-95284695D01*
X136321047Y-95091488D01*
X136191778Y-94778634D01*
X135952625Y-94539063D01*
X135639997Y-94409248D01*
X135301488Y-94408953D01*
X134988634Y-94538222D01*
X134940990Y-94585783D01*
X134757352Y-94509530D01*
X134418843Y-94509235D01*
X134105989Y-94638504D01*
X133866418Y-94877657D01*
X133756253Y-95142963D01*
X133653255Y-95163451D01*
X133508759Y-95260000D01*
X133463727Y-95290089D01*
X132933240Y-95820576D01*
X132911778Y-95768634D01*
X132672625Y-95529063D01*
X132359997Y-95399248D01*
X132021488Y-95398953D01*
X131708634Y-95528222D01*
X131589942Y-95646707D01*
X131402625Y-95459063D01*
X131089997Y-95329248D01*
X130751488Y-95328953D01*
X130583000Y-95398571D01*
X130583000Y-93147664D01*
X130741652Y-93147664D01*
X131046708Y-93885955D01*
X131611074Y-94451307D01*
X132348832Y-94757651D01*
X133147664Y-94758348D01*
X133885955Y-94453292D01*
X134153964Y-94185750D01*
X137665000Y-94185750D01*
X137665000Y-94726310D01*
X137761673Y-94959699D01*
X137940302Y-95138327D01*
X138173691Y-95235000D01*
X138814250Y-95235000D01*
X138973000Y-95076250D01*
X138973000Y-94027000D01*
X137823750Y-94027000D01*
X137665000Y-94185750D01*
X134153964Y-94185750D01*
X134451307Y-93888926D01*
X134757651Y-93151168D01*
X134758348Y-92352336D01*
X134453292Y-91614045D01*
X133888926Y-91048693D01*
X133151168Y-90742349D01*
X132352336Y-90741652D01*
X131614045Y-91046708D01*
X131048693Y-91611074D01*
X130742349Y-92348832D01*
X130741652Y-93147664D01*
X130583000Y-93147664D01*
X130583000Y-92807422D01*
X130758505Y-91925096D01*
X131225777Y-91225775D01*
X131925095Y-90758505D01*
X132807421Y-90583000D01*
X136213568Y-90583000D01*
X136139063Y-90657375D01*
G36*
X151813886Y-105175953D02*
X151738561Y-105190936D01*
X151549032Y-105317575D01*
X150753897Y-106112710D01*
X150627259Y-106302238D01*
X150582789Y-106525802D01*
X150582789Y-106580057D01*
X150446052Y-106716555D01*
X150316237Y-107029183D01*
X150315942Y-107367692D01*
X150445211Y-107680546D01*
X150625690Y-107861340D01*
X150625561Y-108008717D01*
X148691077Y-108008717D01*
X148817268Y-107882746D01*
X148947083Y-107570118D01*
X148947378Y-107231609D01*
X148818109Y-106918755D01*
X148578956Y-106679184D01*
X148266328Y-106549369D01*
X148240007Y-106549346D01*
X148424622Y-106425991D01*
X149080925Y-105769688D01*
X149207564Y-105580159D01*
X149239126Y-105421487D01*
X150596225Y-104064387D01*
X152925453Y-104064387D01*
X151813886Y-105175953D01*
X151813886Y-105175953D01*
G37*
X151813886Y-105175953D02*
X151738561Y-105190936D01*
X151549032Y-105317575D01*
X150753897Y-106112710D01*
X150627259Y-106302238D01*
X150582789Y-106525802D01*
X150582789Y-106580057D01*
X150446052Y-106716555D01*
X150316237Y-107029183D01*
X150315942Y-107367692D01*
X150445211Y-107680546D01*
X150625690Y-107861340D01*
X150625561Y-108008717D01*
X148691077Y-108008717D01*
X148817268Y-107882746D01*
X148947083Y-107570118D01*
X148947378Y-107231609D01*
X148818109Y-106918755D01*
X148578956Y-106679184D01*
X148266328Y-106549369D01*
X148240007Y-106549346D01*
X148424622Y-106425991D01*
X149080925Y-105769688D01*
X149207564Y-105580159D01*
X149239126Y-105421487D01*
X150596225Y-104064387D01*
X152925453Y-104064387D01*
X151813886Y-105175953D01*
G36*
X155309063Y-99297375D02*
X155179248Y-99610003D01*
X155178953Y-99948512D01*
X155308222Y-100261366D01*
X155445800Y-100399184D01*
X155445800Y-102068423D01*
X155161861Y-101950521D01*
X154823352Y-101950226D01*
X154510498Y-102079495D01*
X154270927Y-102318648D01*
X154170720Y-102559972D01*
X153590813Y-102559972D01*
X153591047Y-102291488D01*
X153461778Y-101978634D01*
X153222625Y-101739063D01*
X152909997Y-101609248D01*
X152571488Y-101608953D01*
X152546447Y-101619300D01*
X153150821Y-101014926D01*
X153344028Y-101015094D01*
X153656882Y-100885825D01*
X153896453Y-100646672D01*
X154026268Y-100334044D01*
X154026563Y-99995535D01*
X153897294Y-99682681D01*
X153658141Y-99443110D01*
X153345513Y-99313295D01*
X153007004Y-99313000D01*
X152694150Y-99442269D01*
X152454579Y-99681422D01*
X152324764Y-99994050D01*
X152324594Y-100188785D01*
X150473115Y-102040264D01*
X149262358Y-102040264D01*
X149273092Y-102033092D01*
X150065305Y-101240879D01*
X150258512Y-101241047D01*
X150571366Y-101111778D01*
X150810937Y-100872625D01*
X150940752Y-100559997D01*
X150941047Y-100221488D01*
X150811778Y-99908634D01*
X150572625Y-99669063D01*
X150259997Y-99539248D01*
X149921488Y-99538953D01*
X149608634Y-99668222D01*
X149369063Y-99907375D01*
X149239248Y-100220003D01*
X149239078Y-100414738D01*
X148786403Y-100867413D01*
X148549997Y-100769248D01*
X148211488Y-100768953D01*
X147898634Y-100898222D01*
X147659063Y-101137375D01*
X147529248Y-101450003D01*
X147528953Y-101788512D01*
X147599778Y-101959922D01*
X147417543Y-102141839D01*
X147287728Y-102454467D01*
X147287433Y-102792976D01*
X147294927Y-102811112D01*
X146218942Y-102811112D01*
X146082444Y-102674375D01*
X145769816Y-102544560D01*
X145431307Y-102544265D01*
X145118453Y-102673534D01*
X145012132Y-102779669D01*
X144959147Y-102757668D01*
X144620638Y-102757373D01*
X144307784Y-102886642D01*
X144068213Y-103125795D01*
X143938398Y-103438423D01*
X143938336Y-103510000D01*
X143935750Y-103510000D01*
X143777000Y-103668750D01*
X143777000Y-104393000D01*
X144459794Y-104393000D01*
X144619153Y-104459172D01*
X144831913Y-104459357D01*
X144967166Y-104549730D01*
X145190730Y-104594200D01*
X145315000Y-104594200D01*
X145315000Y-104624250D01*
X145473750Y-104783000D01*
X146273000Y-104783000D01*
X146273000Y-104763000D01*
X146527000Y-104763000D01*
X146527000Y-104783000D01*
X146547000Y-104783000D01*
X146547000Y-105037000D01*
X146527000Y-105037000D01*
X146527000Y-105057000D01*
X146273000Y-105057000D01*
X146273000Y-105037000D01*
X145473750Y-105037000D01*
X145315000Y-105195750D01*
X145315000Y-105428699D01*
X144920971Y-105428699D01*
X144821778Y-105188634D01*
X144817477Y-105184325D01*
X144885000Y-105021310D01*
X144885000Y-104805750D01*
X144726250Y-104647000D01*
X143777000Y-104647000D01*
X143777000Y-104667000D01*
X143523000Y-104667000D01*
X143523000Y-104647000D01*
X143503000Y-104647000D01*
X143503000Y-104393000D01*
X143523000Y-104393000D01*
X143523000Y-103668750D01*
X143395562Y-103541312D01*
X143395706Y-103376147D01*
X143266437Y-103063293D01*
X143155294Y-102951956D01*
X146923050Y-99184200D01*
X155422436Y-99184200D01*
X155309063Y-99297375D01*
X155309063Y-99297375D01*
G37*
X155309063Y-99297375D02*
X155179248Y-99610003D01*
X155178953Y-99948512D01*
X155308222Y-100261366D01*
X155445800Y-100399184D01*
X155445800Y-102068423D01*
X155161861Y-101950521D01*
X154823352Y-101950226D01*
X154510498Y-102079495D01*
X154270927Y-102318648D01*
X154170720Y-102559972D01*
X153590813Y-102559972D01*
X153591047Y-102291488D01*
X153461778Y-101978634D01*
X153222625Y-101739063D01*
X152909997Y-101609248D01*
X152571488Y-101608953D01*
X152546447Y-101619300D01*
X153150821Y-101014926D01*
X153344028Y-101015094D01*
X153656882Y-100885825D01*
X153896453Y-100646672D01*
X154026268Y-100334044D01*
X154026563Y-99995535D01*
X153897294Y-99682681D01*
X153658141Y-99443110D01*
X153345513Y-99313295D01*
X153007004Y-99313000D01*
X152694150Y-99442269D01*
X152454579Y-99681422D01*
X152324764Y-99994050D01*
X152324594Y-100188785D01*
X150473115Y-102040264D01*
X149262358Y-102040264D01*
X149273092Y-102033092D01*
X150065305Y-101240879D01*
X150258512Y-101241047D01*
X150571366Y-101111778D01*
X150810937Y-100872625D01*
X150940752Y-100559997D01*
X150941047Y-100221488D01*
X150811778Y-99908634D01*
X150572625Y-99669063D01*
X150259997Y-99539248D01*
X149921488Y-99538953D01*
X149608634Y-99668222D01*
X149369063Y-99907375D01*
X149239248Y-100220003D01*
X149239078Y-100414738D01*
X148786403Y-100867413D01*
X148549997Y-100769248D01*
X148211488Y-100768953D01*
X147898634Y-100898222D01*
X147659063Y-101137375D01*
X147529248Y-101450003D01*
X147528953Y-101788512D01*
X147599778Y-101959922D01*
X147417543Y-102141839D01*
X147287728Y-102454467D01*
X147287433Y-102792976D01*
X147294927Y-102811112D01*
X146218942Y-102811112D01*
X146082444Y-102674375D01*
X145769816Y-102544560D01*
X145431307Y-102544265D01*
X145118453Y-102673534D01*
X145012132Y-102779669D01*
X144959147Y-102757668D01*
X144620638Y-102757373D01*
X144307784Y-102886642D01*
X144068213Y-103125795D01*
X143938398Y-103438423D01*
X143938336Y-103510000D01*
X143935750Y-103510000D01*
X143777000Y-103668750D01*
X143777000Y-104393000D01*
X144459794Y-104393000D01*
X144619153Y-104459172D01*
X144831913Y-104459357D01*
X144967166Y-104549730D01*
X145190730Y-104594200D01*
X145315000Y-104594200D01*
X145315000Y-104624250D01*
X145473750Y-104783000D01*
X146273000Y-104783000D01*
X146273000Y-104763000D01*
X146527000Y-104763000D01*
X146527000Y-104783000D01*
X146547000Y-104783000D01*
X146547000Y-105037000D01*
X146527000Y-105037000D01*
X146527000Y-105057000D01*
X146273000Y-105057000D01*
X146273000Y-105037000D01*
X145473750Y-105037000D01*
X145315000Y-105195750D01*
X145315000Y-105428699D01*
X144920971Y-105428699D01*
X144821778Y-105188634D01*
X144817477Y-105184325D01*
X144885000Y-105021310D01*
X144885000Y-104805750D01*
X144726250Y-104647000D01*
X143777000Y-104647000D01*
X143777000Y-104667000D01*
X143523000Y-104667000D01*
X143523000Y-104647000D01*
X143503000Y-104647000D01*
X143503000Y-104393000D01*
X143523000Y-104393000D01*
X143523000Y-103668750D01*
X143395562Y-103541312D01*
X143395706Y-103376147D01*
X143266437Y-103063293D01*
X143155294Y-102951956D01*
X146923050Y-99184200D01*
X155422436Y-99184200D01*
X155309063Y-99297375D01*
G36*
X143854000Y-96867562D02*
X144166628Y-96997377D01*
X144505137Y-96997672D01*
X144817991Y-96868403D01*
X144911556Y-96775001D01*
X158773305Y-96775001D01*
X159597317Y-97599013D01*
X159803325Y-97736664D01*
X159818715Y-97739725D01*
X159929058Y-97911203D01*
X160098818Y-98027195D01*
X160300330Y-98068002D01*
X161100430Y-98068002D01*
X161288683Y-98032580D01*
X161441010Y-97934561D01*
X161480003Y-97950752D01*
X161781358Y-97951015D01*
X161781358Y-98500050D01*
X161816780Y-98688303D01*
X161928038Y-98861203D01*
X162007943Y-98915800D01*
X161618382Y-98915800D01*
X161618382Y-98649950D01*
X161582960Y-98461697D01*
X161471702Y-98288797D01*
X161301942Y-98172805D01*
X161100430Y-98131998D01*
X160300330Y-98131998D01*
X160112077Y-98167420D01*
X159939177Y-98278678D01*
X159829679Y-98438933D01*
X159706996Y-98463336D01*
X159500987Y-98600987D01*
X159483634Y-98618340D01*
X159421776Y-98468634D01*
X159182623Y-98229063D01*
X158869995Y-98099248D01*
X158531486Y-98098953D01*
X158218632Y-98228222D01*
X158179284Y-98267501D01*
X158103213Y-98191297D01*
X157790585Y-98061482D01*
X157595850Y-98061312D01*
X157314531Y-97779993D01*
X157247194Y-97735000D01*
X157125003Y-97653355D01*
X156901439Y-97608885D01*
X146656915Y-97608885D01*
X146433351Y-97653355D01*
X146243823Y-97779993D01*
X146243821Y-97779996D01*
X141400915Y-102622901D01*
X140039419Y-102622901D01*
X139815855Y-102667371D01*
X139768276Y-102699162D01*
X139709200Y-102699111D01*
X139709200Y-98991984D01*
X141191983Y-97509200D01*
X142750000Y-97509200D01*
X142973564Y-97464730D01*
X143163092Y-97338092D01*
X143743907Y-96757277D01*
X143854000Y-96867562D01*
X143854000Y-96867562D01*
G37*
X143854000Y-96867562D02*
X144166628Y-96997377D01*
X144505137Y-96997672D01*
X144817991Y-96868403D01*
X144911556Y-96775001D01*
X158773305Y-96775001D01*
X159597317Y-97599013D01*
X159803325Y-97736664D01*
X159818715Y-97739725D01*
X159929058Y-97911203D01*
X160098818Y-98027195D01*
X160300330Y-98068002D01*
X161100430Y-98068002D01*
X161288683Y-98032580D01*
X161441010Y-97934561D01*
X161480003Y-97950752D01*
X161781358Y-97951015D01*
X161781358Y-98500050D01*
X161816780Y-98688303D01*
X161928038Y-98861203D01*
X162007943Y-98915800D01*
X161618382Y-98915800D01*
X161618382Y-98649950D01*
X161582960Y-98461697D01*
X161471702Y-98288797D01*
X161301942Y-98172805D01*
X161100430Y-98131998D01*
X160300330Y-98131998D01*
X160112077Y-98167420D01*
X159939177Y-98278678D01*
X159829679Y-98438933D01*
X159706996Y-98463336D01*
X159500987Y-98600987D01*
X159483634Y-98618340D01*
X159421776Y-98468634D01*
X159182623Y-98229063D01*
X158869995Y-98099248D01*
X158531486Y-98098953D01*
X158218632Y-98228222D01*
X158179284Y-98267501D01*
X158103213Y-98191297D01*
X157790585Y-98061482D01*
X157595850Y-98061312D01*
X157314531Y-97779993D01*
X157247194Y-97735000D01*
X157125003Y-97653355D01*
X156901439Y-97608885D01*
X146656915Y-97608885D01*
X146433351Y-97653355D01*
X146243823Y-97779993D01*
X146243821Y-97779996D01*
X141400915Y-102622901D01*
X140039419Y-102622901D01*
X139815855Y-102667371D01*
X139768276Y-102699162D01*
X139709200Y-102699111D01*
X139709200Y-98991984D01*
X141191983Y-97509200D01*
X142750000Y-97509200D01*
X142973564Y-97464730D01*
X143163092Y-97338092D01*
X143743907Y-96757277D01*
X143854000Y-96867562D01*
G36*
X130750003Y-97030752D02*
X130964299Y-97030939D01*
X130964299Y-102289121D01*
X130771488Y-102288953D01*
X130583000Y-102366835D01*
X130583000Y-96961406D01*
X130750003Y-97030752D01*
X130750003Y-97030752D01*
G37*
X130750003Y-97030752D02*
X130964299Y-97030939D01*
X130964299Y-102289121D01*
X130771488Y-102288953D01*
X130583000Y-102366835D01*
X130583000Y-96961406D01*
X130750003Y-97030752D01*
G36*
X164074904Y-90758505D02*
X164774225Y-91225777D01*
X165241495Y-91925095D01*
X165417000Y-92807421D01*
X165417000Y-95874430D01*
X164885750Y-95874430D01*
X164727000Y-96033180D01*
X164727000Y-97133000D01*
X164747000Y-97133000D01*
X164747000Y-97387000D01*
X164727000Y-97387000D01*
X164727000Y-97407000D01*
X164473000Y-97407000D01*
X164473000Y-97387000D01*
X164453000Y-97387000D01*
X164453000Y-97133000D01*
X164473000Y-97133000D01*
X164473000Y-96033180D01*
X164314250Y-95874430D01*
X163723121Y-95874430D01*
X163601140Y-95924956D01*
X162139149Y-94462965D01*
X162848832Y-94757651D01*
X163647664Y-94758348D01*
X164385955Y-94453292D01*
X164951307Y-93888926D01*
X165257651Y-93151168D01*
X165258348Y-92352336D01*
X164953292Y-91614045D01*
X164388926Y-91048693D01*
X163651168Y-90742349D01*
X162852336Y-90741652D01*
X162114045Y-91046708D01*
X161548693Y-91611074D01*
X161310614Y-92184430D01*
X160610292Y-91484108D01*
X160420764Y-91357470D01*
X160197200Y-91313000D01*
X159366732Y-91313000D01*
X159366732Y-90701220D01*
X159344488Y-90583000D01*
X163192578Y-90583000D01*
X164074904Y-90758505D01*
X164074904Y-90758505D01*
G37*
X164074904Y-90758505D02*
X164774225Y-91225777D01*
X165241495Y-91925095D01*
X165417000Y-92807421D01*
X165417000Y-95874430D01*
X164885750Y-95874430D01*
X164727000Y-96033180D01*
X164727000Y-97133000D01*
X164747000Y-97133000D01*
X164747000Y-97387000D01*
X164727000Y-97387000D01*
X164727000Y-97407000D01*
X164473000Y-97407000D01*
X164473000Y-97387000D01*
X164453000Y-97387000D01*
X164453000Y-97133000D01*
X164473000Y-97133000D01*
X164473000Y-96033180D01*
X164314250Y-95874430D01*
X163723121Y-95874430D01*
X163601140Y-95924956D01*
X162139149Y-94462965D01*
X162848832Y-94757651D01*
X163647664Y-94758348D01*
X164385955Y-94453292D01*
X164951307Y-93888926D01*
X165257651Y-93151168D01*
X165258348Y-92352336D01*
X164953292Y-91614045D01*
X164388926Y-91048693D01*
X163651168Y-90742349D01*
X162852336Y-90741652D01*
X162114045Y-91046708D01*
X161548693Y-91611074D01*
X161310614Y-92184430D01*
X160610292Y-91484108D01*
X160420764Y-91357470D01*
X160197200Y-91313000D01*
X159366732Y-91313000D01*
X159366732Y-90701220D01*
X159344488Y-90583000D01*
X163192578Y-90583000D01*
X164074904Y-90758505D01*
G36*
X149667375Y-92170937D02*
X149980003Y-92300752D01*
X150318512Y-92301047D01*
X150631366Y-92171778D01*
X150670212Y-92133000D01*
X151663000Y-92133000D01*
X151663000Y-92113000D01*
X151917000Y-92113000D01*
X151917000Y-92133000D01*
X152966250Y-92133000D01*
X153060893Y-92038357D01*
X153079800Y-92050990D01*
X153079800Y-92068650D01*
X153238550Y-92227400D01*
X154187800Y-92227400D01*
X154187800Y-92207400D01*
X154441800Y-92207400D01*
X154441800Y-92227400D01*
X154461800Y-92227400D01*
X154461800Y-92481400D01*
X154441800Y-92481400D01*
X154441800Y-93280650D01*
X154600550Y-93439400D01*
X155041109Y-93439400D01*
X155274498Y-93342727D01*
X155453127Y-93164099D01*
X155488163Y-93079514D01*
X155543528Y-93165553D01*
X155713288Y-93281545D01*
X155914800Y-93322352D01*
X157114800Y-93322352D01*
X157303053Y-93286930D01*
X157464876Y-93182800D01*
X157568157Y-93182800D01*
X157568690Y-93185633D01*
X157679948Y-93358533D01*
X157849708Y-93474525D01*
X158051220Y-93515332D01*
X158848780Y-93515332D01*
X159037033Y-93479910D01*
X159209933Y-93368652D01*
X159325925Y-93198892D01*
X159366732Y-92997380D01*
X159366732Y-92481400D01*
X159955216Y-92481400D01*
X160565800Y-93091984D01*
X160565800Y-94166682D01*
X160485158Y-94133196D01*
X160036809Y-94132805D01*
X159622440Y-94304019D01*
X159305133Y-94620772D01*
X159133196Y-95034842D01*
X159132805Y-95483191D01*
X159151263Y-95527862D01*
X159036331Y-95505001D01*
X146604003Y-95505001D01*
X147134594Y-94974410D01*
X147261233Y-94784881D01*
X147305702Y-94561318D01*
X147305702Y-93395980D01*
X147363691Y-93420000D01*
X147904250Y-93420000D01*
X148063000Y-93261250D01*
X148063000Y-92387000D01*
X148317000Y-92387000D01*
X148317000Y-93261250D01*
X148475750Y-93420000D01*
X149016309Y-93420000D01*
X149249698Y-93323327D01*
X149428327Y-93144699D01*
X149525000Y-92911310D01*
X149525000Y-92545750D01*
X150455000Y-92545750D01*
X150455000Y-92911310D01*
X150551673Y-93144699D01*
X150730302Y-93323327D01*
X150963691Y-93420000D01*
X151504250Y-93420000D01*
X151663000Y-93261250D01*
X151663000Y-92387000D01*
X151917000Y-92387000D01*
X151917000Y-93261250D01*
X152075750Y-93420000D01*
X152616309Y-93420000D01*
X152849698Y-93323327D01*
X153028327Y-93144699D01*
X153098382Y-92975571D01*
X153176473Y-93164099D01*
X153355102Y-93342727D01*
X153588491Y-93439400D01*
X154029050Y-93439400D01*
X154187800Y-93280650D01*
X154187800Y-92481400D01*
X153238550Y-92481400D01*
X153125000Y-92594950D01*
X153125000Y-92545750D01*
X152966250Y-92387000D01*
X151917000Y-92387000D01*
X151663000Y-92387000D01*
X150613750Y-92387000D01*
X150455000Y-92545750D01*
X149525000Y-92545750D01*
X149366250Y-92387000D01*
X148317000Y-92387000D01*
X148063000Y-92387000D01*
X148043000Y-92387000D01*
X148043000Y-92133000D01*
X148063000Y-92133000D01*
X148063000Y-92113000D01*
X148317000Y-92113000D01*
X148317000Y-92133000D01*
X149366250Y-92133000D01*
X149497992Y-92001258D01*
X149667375Y-92170937D01*
X149667375Y-92170937D01*
G37*
X149667375Y-92170937D02*
X149980003Y-92300752D01*
X150318512Y-92301047D01*
X150631366Y-92171778D01*
X150670212Y-92133000D01*
X151663000Y-92133000D01*
X151663000Y-92113000D01*
X151917000Y-92113000D01*
X151917000Y-92133000D01*
X152966250Y-92133000D01*
X153060893Y-92038357D01*
X153079800Y-92050990D01*
X153079800Y-92068650D01*
X153238550Y-92227400D01*
X154187800Y-92227400D01*
X154187800Y-92207400D01*
X154441800Y-92207400D01*
X154441800Y-92227400D01*
X154461800Y-92227400D01*
X154461800Y-92481400D01*
X154441800Y-92481400D01*
X154441800Y-93280650D01*
X154600550Y-93439400D01*
X155041109Y-93439400D01*
X155274498Y-93342727D01*
X155453127Y-93164099D01*
X155488163Y-93079514D01*
X155543528Y-93165553D01*
X155713288Y-93281545D01*
X155914800Y-93322352D01*
X157114800Y-93322352D01*
X157303053Y-93286930D01*
X157464876Y-93182800D01*
X157568157Y-93182800D01*
X157568690Y-93185633D01*
X157679948Y-93358533D01*
X157849708Y-93474525D01*
X158051220Y-93515332D01*
X158848780Y-93515332D01*
X159037033Y-93479910D01*
X159209933Y-93368652D01*
X159325925Y-93198892D01*
X159366732Y-92997380D01*
X159366732Y-92481400D01*
X159955216Y-92481400D01*
X160565800Y-93091984D01*
X160565800Y-94166682D01*
X160485158Y-94133196D01*
X160036809Y-94132805D01*
X159622440Y-94304019D01*
X159305133Y-94620772D01*
X159133196Y-95034842D01*
X159132805Y-95483191D01*
X159151263Y-95527862D01*
X159036331Y-95505001D01*
X146604003Y-95505001D01*
X147134594Y-94974410D01*
X147261233Y-94784881D01*
X147305702Y-94561318D01*
X147305702Y-93395980D01*
X147363691Y-93420000D01*
X147904250Y-93420000D01*
X148063000Y-93261250D01*
X148063000Y-92387000D01*
X148317000Y-92387000D01*
X148317000Y-93261250D01*
X148475750Y-93420000D01*
X149016309Y-93420000D01*
X149249698Y-93323327D01*
X149428327Y-93144699D01*
X149525000Y-92911310D01*
X149525000Y-92545750D01*
X150455000Y-92545750D01*
X150455000Y-92911310D01*
X150551673Y-93144699D01*
X150730302Y-93323327D01*
X150963691Y-93420000D01*
X151504250Y-93420000D01*
X151663000Y-93261250D01*
X151663000Y-92387000D01*
X151917000Y-92387000D01*
X151917000Y-93261250D01*
X152075750Y-93420000D01*
X152616309Y-93420000D01*
X152849698Y-93323327D01*
X153028327Y-93144699D01*
X153098382Y-92975571D01*
X153176473Y-93164099D01*
X153355102Y-93342727D01*
X153588491Y-93439400D01*
X154029050Y-93439400D01*
X154187800Y-93280650D01*
X154187800Y-92481400D01*
X153238550Y-92481400D01*
X153125000Y-92594950D01*
X153125000Y-92545750D01*
X152966250Y-92387000D01*
X151917000Y-92387000D01*
X151663000Y-92387000D01*
X150613750Y-92387000D01*
X150455000Y-92545750D01*
X149525000Y-92545750D01*
X149366250Y-92387000D01*
X148317000Y-92387000D01*
X148063000Y-92387000D01*
X148043000Y-92387000D01*
X148043000Y-92133000D01*
X148063000Y-92133000D01*
X148063000Y-92113000D01*
X148317000Y-92113000D01*
X148317000Y-92133000D01*
X149366250Y-92133000D01*
X149497992Y-92001258D01*
X149667375Y-92170937D01*
G36*
X141227000Y-91323000D02*
X143373000Y-91323000D01*
X143373000Y-91303000D01*
X143627000Y-91303000D01*
X143627000Y-91323000D01*
X143647000Y-91323000D01*
X143647000Y-91577000D01*
X143627000Y-91577000D01*
X143627000Y-92876250D01*
X143712250Y-92961500D01*
X143700000Y-92973750D01*
X143700000Y-93998000D01*
X143747000Y-93998000D01*
X143747000Y-94252000D01*
X143700000Y-94252000D01*
X143700000Y-94272000D01*
X143667952Y-94272000D01*
X143667952Y-93450000D01*
X143632530Y-93261747D01*
X143521272Y-93088847D01*
X143500000Y-93074312D01*
X143500000Y-92973750D01*
X143373000Y-92846750D01*
X143373000Y-91577000D01*
X141227000Y-91577000D01*
X141227000Y-91597000D01*
X140973000Y-91597000D01*
X140973000Y-91577000D01*
X140953000Y-91577000D01*
X140953000Y-91323000D01*
X140973000Y-91323000D01*
X140973000Y-91303000D01*
X141227000Y-91303000D01*
X141227000Y-91323000D01*
X141227000Y-91323000D01*
G37*
X141227000Y-91323000D02*
X143373000Y-91323000D01*
X143373000Y-91303000D01*
X143627000Y-91303000D01*
X143627000Y-91323000D01*
X143647000Y-91323000D01*
X143647000Y-91577000D01*
X143627000Y-91577000D01*
X143627000Y-92876250D01*
X143712250Y-92961500D01*
X143700000Y-92973750D01*
X143700000Y-93998000D01*
X143747000Y-93998000D01*
X143747000Y-94252000D01*
X143700000Y-94252000D01*
X143700000Y-94272000D01*
X143667952Y-94272000D01*
X143667952Y-93450000D01*
X143632530Y-93261747D01*
X143521272Y-93088847D01*
X143500000Y-93074312D01*
X143500000Y-92973750D01*
X143373000Y-92846750D01*
X143373000Y-91577000D01*
X141227000Y-91577000D01*
X141227000Y-91597000D01*
X140973000Y-91597000D01*
X140973000Y-91577000D01*
X140953000Y-91577000D01*
X140953000Y-91323000D01*
X140973000Y-91323000D01*
X140973000Y-91303000D01*
X141227000Y-91303000D01*
X141227000Y-91323000D01*
G36*
X145627000Y-93773000D02*
X145647000Y-93773000D01*
X145647000Y-94027000D01*
X145627000Y-94027000D01*
X145627000Y-94047000D01*
X145373000Y-94047000D01*
X145373000Y-94027000D01*
X145353000Y-94027000D01*
X145353000Y-93773000D01*
X145373000Y-93773000D01*
X145373000Y-93753000D01*
X145627000Y-93753000D01*
X145627000Y-93773000D01*
X145627000Y-93773000D01*
G37*
X145627000Y-93773000D02*
X145647000Y-93773000D01*
X145647000Y-94027000D01*
X145627000Y-94027000D01*
X145627000Y-94047000D01*
X145373000Y-94047000D01*
X145373000Y-94027000D01*
X145353000Y-94027000D01*
X145353000Y-93773000D01*
X145373000Y-93773000D01*
X145373000Y-93753000D01*
X145627000Y-93753000D01*
X145627000Y-93773000D01*
G36*
X145793748Y-91435858D02*
X145779605Y-91450000D01*
X145793748Y-91464143D01*
X145614142Y-91643748D01*
X145600000Y-91629605D01*
X145585858Y-91643748D01*
X145406253Y-91464143D01*
X145420395Y-91450000D01*
X145406253Y-91435858D01*
X145585858Y-91256252D01*
X145600000Y-91270395D01*
X145614142Y-91256252D01*
X145793748Y-91435858D01*
X145793748Y-91435858D01*
G37*
X145793748Y-91435858D02*
X145779605Y-91450000D01*
X145793748Y-91464143D01*
X145614142Y-91643748D01*
X145600000Y-91629605D01*
X145585858Y-91643748D01*
X145406253Y-91464143D01*
X145420395Y-91450000D01*
X145406253Y-91435858D01*
X145585858Y-91256252D01*
X145600000Y-91270395D01*
X145614142Y-91256252D01*
X145793748Y-91435858D01*
M02*
