G04 #@! TF.FileFunction,Copper,L3,Inr,Signal*
%FSLAX46Y46*%
G04 Gerber Fmt 4.6, Leading zero omitted, Abs format (unit mm)*
G04 Created by KiCad (PCBNEW (2015-11-03 BZR 6296)-product) date Tuesday, November 24, 2015 'PMt' 09:03:28 PM*
%MOMM*%
G01*
G04 APERTURE LIST*
%ADD10C,0.100000*%
%ADD11R,1.727200X1.727200*%
%ADD12O,1.727200X1.727200*%
%ADD13C,1.600000*%
%ADD14C,0.685800*%
%ADD15C,0.685801*%
%ADD16C,0.152400*%
%ADD17C,0.254000*%
G04 APERTURE END LIST*
D10*
D11*
X145200000Y-124900000D03*
D12*
X145200000Y-122360000D03*
X142660000Y-124900000D03*
X142660000Y-122360000D03*
X140120000Y-124900000D03*
X140120000Y-122360000D03*
X137580000Y-124900000D03*
X137580000Y-122360000D03*
D13*
X139000000Y-91450000D03*
X145600000Y-91450000D03*
D14*
X154795302Y-91020880D03*
X156500000Y-91020880D03*
X155650000Y-91020880D03*
X160250000Y-121550000D03*
X147292160Y-104599879D03*
X144789150Y-103608420D03*
X132250000Y-109150000D03*
X144900000Y-92704672D03*
X150150000Y-91450000D03*
X147000000Y-123500000D03*
X136500000Y-100850000D03*
X131200000Y-103250000D03*
X137200000Y-100900000D03*
X148000000Y-116600000D03*
X132942400Y-117000000D03*
D15*
X155484831Y-105661094D03*
D14*
X145278480Y-106106215D03*
X146571520Y-116500000D03*
X159881635Y-124710115D03*
X147150000Y-110728480D03*
X146150000Y-92700000D03*
X138250000Y-97050000D03*
X157450000Y-93500000D03*
X153950000Y-93650000D03*
X138118860Y-100652772D03*
X136700000Y-105500000D03*
X138150000Y-97750000D03*
X131250000Y-113900000D03*
X131200000Y-107650000D03*
X151000000Y-104100000D03*
X156000058Y-104999926D03*
X156000057Y-104999927D03*
D15*
X162150000Y-109849998D03*
X162150000Y-106750000D03*
X162150000Y-107500006D03*
X162150000Y-108250000D03*
X162150004Y-109000000D03*
D14*
X161650000Y-97100000D03*
X142174351Y-99246033D03*
X141395866Y-96995884D03*
X157200000Y-107450000D03*
X156500000Y-107750000D03*
X157200000Y-108200000D03*
D15*
X157199998Y-109000000D03*
X157199998Y-109850000D03*
X156550004Y-108600000D03*
X156550000Y-109400000D03*
D14*
X144347689Y-108563319D03*
X144800000Y-107850000D03*
X142950000Y-96800000D03*
X137913185Y-113696704D03*
X137138634Y-114127893D03*
X136417894Y-113583603D03*
X135550000Y-114100000D03*
X162110236Y-100071520D03*
X143000000Y-116650000D03*
D15*
X163112236Y-100200276D03*
D14*
X142100000Y-116350000D03*
D15*
X163939920Y-100332709D03*
D14*
X141003006Y-116399407D03*
D15*
X163908480Y-101402757D03*
D14*
X140174437Y-116526186D03*
X154920077Y-120654938D03*
X155600000Y-124017076D03*
X154436651Y-123694153D03*
X154155520Y-120311351D03*
X153686037Y-123321089D03*
X153623186Y-120958823D03*
X152866253Y-123145303D03*
X152466973Y-120604681D03*
X140515673Y-100904688D03*
X158699998Y-98950000D03*
X141252762Y-100505566D03*
X157550000Y-99000000D03*
X156164716Y-110444858D03*
X162152957Y-110738207D03*
X155358534Y-109999543D03*
X162118150Y-111575696D03*
X155028501Y-110807125D03*
X162156514Y-112413029D03*
X154085953Y-113766036D03*
D15*
X155236520Y-113183346D03*
D14*
X154690742Y-114803827D03*
D15*
X155768513Y-114264986D03*
D14*
X153047701Y-106481914D03*
D15*
X155083600Y-115556054D03*
D14*
X153682687Y-105522576D03*
D15*
X155238794Y-116379773D03*
D14*
X152442830Y-111269513D03*
D15*
X156121678Y-116305139D03*
D14*
X151500000Y-110650000D03*
D15*
X156850162Y-116804780D03*
D14*
X138726019Y-115077767D03*
D15*
X157298385Y-116096476D03*
D14*
X139580652Y-115932401D03*
D15*
X158170500Y-116353781D03*
D14*
X137988623Y-108849879D03*
X141400000Y-113250000D03*
X133600000Y-103350000D03*
X151800000Y-113100000D03*
D15*
X154573456Y-112664263D03*
D14*
X143100000Y-113000000D03*
X152821279Y-110275352D03*
X154224771Y-111209680D03*
D15*
X155983285Y-112276038D03*
X155175337Y-111971893D03*
D14*
X143667109Y-114677791D03*
X151363221Y-112306208D03*
X143107184Y-114054025D03*
X150639823Y-111836527D03*
X144475196Y-110185200D03*
X145599819Y-103395312D03*
D15*
X155266806Y-102526331D03*
D14*
X142798800Y-111099600D03*
X144724773Y-105036154D03*
D15*
X155199220Y-103361814D03*
D14*
X157000000Y-106600000D03*
X152800000Y-108400000D03*
D15*
X154081183Y-99629332D03*
D14*
X151754125Y-106645875D03*
D15*
X155451029Y-99374208D03*
D14*
X151664487Y-105750346D03*
X139770341Y-105559659D03*
X160000000Y-111100000D03*
X140930582Y-103462331D03*
X159330000Y-123220000D03*
X160024371Y-122519605D03*
X156700000Y-120071482D03*
X161450000Y-121000000D03*
X155556978Y-120110000D03*
X152540000Y-116530000D03*
X148040000Y-114000000D03*
X148000000Y-107400121D03*
X146000000Y-109145302D03*
X153150000Y-100650000D03*
X148400000Y-102350000D03*
X140665200Y-109728000D03*
X141579600Y-110794800D03*
X146456400Y-111404400D03*
X151895875Y-101095875D03*
X148606038Y-101537506D03*
X149400000Y-122550000D03*
D16*
X154795302Y-91595302D02*
X154795302Y-91020880D01*
X160250000Y-121550000D02*
X160250000Y-121065067D01*
X145104672Y-92704672D02*
X144900000Y-92704672D01*
X145342899Y-92942899D02*
X145104672Y-92704672D01*
X150150000Y-91450000D02*
X150150000Y-91934933D01*
X147000000Y-123500000D02*
X147000000Y-123015067D01*
X131200000Y-103250000D02*
X130715067Y-103250000D01*
X155361094Y-105661094D02*
X155000000Y-105300000D01*
X155484831Y-105661094D02*
X155361094Y-105661094D01*
D17*
X138250000Y-97050000D02*
X138250000Y-97650000D01*
X138250000Y-97650000D02*
X138150000Y-97750000D01*
G36*
X137891778Y-90708110D02*
X137692228Y-91188681D01*
X137691774Y-91709036D01*
X137890485Y-92189954D01*
X138258110Y-92558222D01*
X138738681Y-92757772D01*
X139259036Y-92758226D01*
X139739954Y-92559515D01*
X140108222Y-92191890D01*
X140307772Y-91711319D01*
X140308226Y-91190964D01*
X140109515Y-90710046D01*
X139982691Y-90583000D01*
X144617107Y-90583000D01*
X144491778Y-90708110D01*
X144292228Y-91188681D01*
X144291774Y-91709036D01*
X144490485Y-92189954D01*
X144858110Y-92558222D01*
X145299064Y-92741322D01*
X145298953Y-92868512D01*
X145428222Y-93181366D01*
X145667375Y-93420937D01*
X145980003Y-93550752D01*
X146318512Y-93551047D01*
X146631366Y-93421778D01*
X146870937Y-93182625D01*
X147000752Y-92869997D01*
X147001047Y-92531488D01*
X146871778Y-92218634D01*
X146748426Y-92095067D01*
X146907772Y-91711319D01*
X146908226Y-91190964D01*
X146709515Y-90710046D01*
X146582691Y-90583000D01*
X163192578Y-90583000D01*
X164074904Y-90758505D01*
X164774225Y-91225777D01*
X165241495Y-91925095D01*
X165417000Y-92807421D01*
X165417000Y-123192579D01*
X165241495Y-124074905D01*
X164774225Y-124774223D01*
X164074904Y-125241495D01*
X163192578Y-125417000D01*
X160377920Y-125417000D01*
X160602572Y-125192740D01*
X160732387Y-124880112D01*
X160732682Y-124541603D01*
X160603413Y-124228749D01*
X160364260Y-123989178D01*
X160051632Y-123859363D01*
X159894063Y-123859226D01*
X160050937Y-123702625D01*
X160073758Y-123647664D01*
X161241652Y-123647664D01*
X161546708Y-124385955D01*
X162111074Y-124951307D01*
X162848832Y-125257651D01*
X163647664Y-125258348D01*
X164385955Y-124953292D01*
X164951307Y-124388926D01*
X165257651Y-123651168D01*
X165258348Y-122852336D01*
X164953292Y-122114045D01*
X164388926Y-121548693D01*
X163651168Y-121242349D01*
X162852336Y-121241652D01*
X162114045Y-121546708D01*
X161548693Y-122111074D01*
X161242349Y-122848832D01*
X161241652Y-123647664D01*
X160073758Y-123647664D01*
X160180752Y-123389997D01*
X160180769Y-123370641D01*
X160192883Y-123370652D01*
X160505737Y-123241383D01*
X160745308Y-123002230D01*
X160875123Y-122689602D01*
X160875418Y-122351093D01*
X160746149Y-122038239D01*
X160506996Y-121798668D01*
X160194368Y-121668853D01*
X159855859Y-121668558D01*
X159543005Y-121797827D01*
X159303434Y-122036980D01*
X159173619Y-122349608D01*
X159173602Y-122368964D01*
X159161488Y-122368953D01*
X158848634Y-122498222D01*
X158609063Y-122737375D01*
X158479248Y-123050003D01*
X158478953Y-123388512D01*
X158608222Y-123701366D01*
X158847375Y-123940937D01*
X159160003Y-124070752D01*
X159317572Y-124070889D01*
X159160698Y-124227490D01*
X159030883Y-124540118D01*
X159030588Y-124878627D01*
X159159857Y-125191481D01*
X159384983Y-125417000D01*
X146581552Y-125417000D01*
X146581552Y-124036400D01*
X146546130Y-123848147D01*
X146434872Y-123675247D01*
X146265112Y-123559255D01*
X146063600Y-123518448D01*
X145927853Y-123518448D01*
X146169868Y-123356739D01*
X146467193Y-122911760D01*
X146505632Y-122718512D01*
X148548953Y-122718512D01*
X148678222Y-123031366D01*
X148917375Y-123270937D01*
X149230003Y-123400752D01*
X149568512Y-123401047D01*
X149779628Y-123313815D01*
X152015206Y-123313815D01*
X152144475Y-123626669D01*
X152383628Y-123866240D01*
X152696256Y-123996055D01*
X153034765Y-123996350D01*
X153121882Y-123960354D01*
X153203412Y-124042026D01*
X153516040Y-124171841D01*
X153713424Y-124172013D01*
X153714873Y-124175519D01*
X153954026Y-124415090D01*
X154266654Y-124544905D01*
X154605163Y-124545200D01*
X154854904Y-124442009D01*
X154878222Y-124498442D01*
X155117375Y-124738013D01*
X155430003Y-124867828D01*
X155768512Y-124868123D01*
X156081366Y-124738854D01*
X156320937Y-124499701D01*
X156450752Y-124187073D01*
X156451047Y-123848564D01*
X156321778Y-123535710D01*
X156082625Y-123296139D01*
X155769997Y-123166324D01*
X155431488Y-123166029D01*
X155181747Y-123269220D01*
X155158429Y-123212787D01*
X154919276Y-122973216D01*
X154606648Y-122843401D01*
X154409264Y-122843229D01*
X154407815Y-122839723D01*
X154168662Y-122600152D01*
X153856034Y-122470337D01*
X153517525Y-122470042D01*
X153430408Y-122506038D01*
X153348878Y-122424366D01*
X153036250Y-122294551D01*
X152697741Y-122294256D01*
X152384887Y-122423525D01*
X152145316Y-122662678D01*
X152015501Y-122975306D01*
X152015206Y-123313815D01*
X149779628Y-123313815D01*
X149881366Y-123271778D01*
X150120937Y-123032625D01*
X150250752Y-122719997D01*
X150251047Y-122381488D01*
X150121778Y-122068634D01*
X149882625Y-121829063D01*
X149569997Y-121699248D01*
X149231488Y-121698953D01*
X148918634Y-121828222D01*
X148679063Y-122067375D01*
X148549248Y-122380003D01*
X148548953Y-122718512D01*
X146505632Y-122718512D01*
X146571600Y-122386871D01*
X146571600Y-122333129D01*
X146467193Y-121808240D01*
X146169868Y-121363261D01*
X145724889Y-121065936D01*
X145200000Y-120961529D01*
X144675111Y-121065936D01*
X144230132Y-121363261D01*
X143932807Y-121808240D01*
X143930000Y-121822352D01*
X143927193Y-121808240D01*
X143629868Y-121363261D01*
X143184889Y-121065936D01*
X142660000Y-120961529D01*
X142135111Y-121065936D01*
X141690132Y-121363261D01*
X141392807Y-121808240D01*
X141390000Y-121822352D01*
X141387193Y-121808240D01*
X141089868Y-121363261D01*
X140644889Y-121065936D01*
X140120000Y-120961529D01*
X139595111Y-121065936D01*
X139150132Y-121363261D01*
X138852807Y-121808240D01*
X138850000Y-121822352D01*
X138847193Y-121808240D01*
X138549868Y-121363261D01*
X138104889Y-121065936D01*
X137580000Y-120961529D01*
X137055111Y-121065936D01*
X136610132Y-121363261D01*
X136312807Y-121808240D01*
X136208400Y-122333129D01*
X136208400Y-122386871D01*
X136312807Y-122911760D01*
X136610132Y-123356739D01*
X137019097Y-123630000D01*
X136610132Y-123903261D01*
X136312807Y-124348240D01*
X136208400Y-124873129D01*
X136208400Y-124926871D01*
X136305893Y-125417000D01*
X132807421Y-125417000D01*
X131925095Y-125241495D01*
X131225777Y-124774225D01*
X130758505Y-124074904D01*
X130673522Y-123647664D01*
X130741652Y-123647664D01*
X131046708Y-124385955D01*
X131611074Y-124951307D01*
X132348832Y-125257651D01*
X133147664Y-125258348D01*
X133885955Y-124953292D01*
X134451307Y-124388926D01*
X134757651Y-123651168D01*
X134758348Y-122852336D01*
X134453292Y-122114045D01*
X133888926Y-121548693D01*
X133151168Y-121242349D01*
X132352336Y-121241652D01*
X131614045Y-121546708D01*
X131048693Y-122111074D01*
X130742349Y-122848832D01*
X130741652Y-123647664D01*
X130673522Y-123647664D01*
X130583000Y-123192578D01*
X130583000Y-120773193D01*
X151615926Y-120773193D01*
X151745195Y-121086047D01*
X151984348Y-121325618D01*
X152296976Y-121455433D01*
X152635485Y-121455728D01*
X152868113Y-121359608D01*
X152901408Y-121440189D01*
X153140561Y-121679760D01*
X153453189Y-121809575D01*
X153791698Y-121809870D01*
X154104552Y-121680601D01*
X154344123Y-121441448D01*
X154390770Y-121329111D01*
X154437452Y-121375875D01*
X154750080Y-121505690D01*
X155088589Y-121505985D01*
X155401443Y-121376716D01*
X155610010Y-121168512D01*
X160598953Y-121168512D01*
X160728222Y-121481366D01*
X160967375Y-121720937D01*
X161280003Y-121850752D01*
X161618512Y-121851047D01*
X161931366Y-121721778D01*
X162170937Y-121482625D01*
X162300752Y-121169997D01*
X162301047Y-120831488D01*
X162171778Y-120518634D01*
X161932625Y-120279063D01*
X161619997Y-120149248D01*
X161281488Y-120148953D01*
X160968634Y-120278222D01*
X160729063Y-120517375D01*
X160599248Y-120830003D01*
X160598953Y-121168512D01*
X155610010Y-121168512D01*
X155641014Y-121137563D01*
X155714314Y-120961037D01*
X155725490Y-120961047D01*
X156038344Y-120831778D01*
X156147695Y-120722618D01*
X156217375Y-120792419D01*
X156530003Y-120922234D01*
X156868512Y-120922529D01*
X157181366Y-120793260D01*
X157420937Y-120554107D01*
X157550752Y-120241479D01*
X157551047Y-119902970D01*
X157421778Y-119590116D01*
X157182625Y-119350545D01*
X156869997Y-119220730D01*
X156531488Y-119220435D01*
X156218634Y-119349704D01*
X156109283Y-119458864D01*
X156039603Y-119389063D01*
X155726975Y-119259248D01*
X155388466Y-119258953D01*
X155075612Y-119388222D01*
X154836041Y-119627375D01*
X154788745Y-119741277D01*
X154638145Y-119590414D01*
X154325517Y-119460599D01*
X153987008Y-119460304D01*
X153674154Y-119589573D01*
X153434583Y-119828726D01*
X153304768Y-120141354D01*
X153304743Y-120169726D01*
X153222046Y-120203896D01*
X153188751Y-120123315D01*
X152949598Y-119883744D01*
X152636970Y-119753929D01*
X152298461Y-119753634D01*
X151985607Y-119882903D01*
X151746036Y-120122056D01*
X151616221Y-120434684D01*
X151615926Y-120773193D01*
X130583000Y-120773193D01*
X130583000Y-114436240D01*
X130767375Y-114620937D01*
X131080003Y-114750752D01*
X131418512Y-114751047D01*
X131731366Y-114621778D01*
X131970937Y-114382625D01*
X132018321Y-114268512D01*
X134698953Y-114268512D01*
X134828222Y-114581366D01*
X135067375Y-114820937D01*
X135380003Y-114950752D01*
X135718512Y-114951047D01*
X136031366Y-114821778D01*
X136270937Y-114582625D01*
X136332474Y-114434429D01*
X136344622Y-114434439D01*
X136416856Y-114609259D01*
X136656009Y-114848830D01*
X136968637Y-114978645D01*
X137307146Y-114978940D01*
X137620000Y-114849671D01*
X137859571Y-114610518D01*
X137885705Y-114547580D01*
X138052581Y-114547726D01*
X138005082Y-114595142D01*
X137875267Y-114907770D01*
X137874972Y-115246279D01*
X138004241Y-115559133D01*
X138243394Y-115798704D01*
X138556022Y-115928519D01*
X138729755Y-115928670D01*
X138729605Y-116100913D01*
X138858874Y-116413767D01*
X139098027Y-116653338D01*
X139349435Y-116757732D01*
X139452659Y-117007552D01*
X139691812Y-117247123D01*
X140004440Y-117376938D01*
X140342949Y-117377233D01*
X140655803Y-117247964D01*
X140706307Y-117197548D01*
X140833009Y-117250159D01*
X141171518Y-117250454D01*
X141484372Y-117121185D01*
X141576114Y-117029603D01*
X141617375Y-117070937D01*
X141930003Y-117200752D01*
X142268512Y-117201047D01*
X142324633Y-117177858D01*
X142517375Y-117370937D01*
X142830003Y-117500752D01*
X143168512Y-117501047D01*
X143481366Y-117371778D01*
X143720937Y-117132625D01*
X143850752Y-116819997D01*
X143850884Y-116668512D01*
X145720473Y-116668512D01*
X145849742Y-116981366D01*
X146088895Y-117220937D01*
X146401523Y-117350752D01*
X146740032Y-117351047D01*
X147052886Y-117221778D01*
X147292457Y-116982625D01*
X147410431Y-116698512D01*
X151688953Y-116698512D01*
X151818222Y-117011366D01*
X152057375Y-117250937D01*
X152370003Y-117380752D01*
X152708512Y-117381047D01*
X153021366Y-117251778D01*
X153260937Y-117012625D01*
X153390752Y-116699997D01*
X153391047Y-116361488D01*
X153261778Y-116048634D01*
X153022625Y-115809063D01*
X152709997Y-115679248D01*
X152371488Y-115678953D01*
X152058634Y-115808222D01*
X151819063Y-116047375D01*
X151689248Y-116360003D01*
X151688953Y-116698512D01*
X147410431Y-116698512D01*
X147422272Y-116669997D01*
X147422567Y-116331488D01*
X147293298Y-116018634D01*
X147054145Y-115779063D01*
X146741517Y-115649248D01*
X146403008Y-115648953D01*
X146090154Y-115778222D01*
X145850583Y-116017375D01*
X145720768Y-116330003D01*
X145720473Y-116668512D01*
X143850884Y-116668512D01*
X143851047Y-116481488D01*
X143721778Y-116168634D01*
X143482625Y-115929063D01*
X143169997Y-115799248D01*
X142831488Y-115798953D01*
X142775367Y-115822142D01*
X142582625Y-115629063D01*
X142269997Y-115499248D01*
X141931488Y-115498953D01*
X141618634Y-115628222D01*
X141526892Y-115719804D01*
X141485631Y-115678470D01*
X141173003Y-115548655D01*
X140834494Y-115548360D01*
X140521640Y-115677629D01*
X140471136Y-115728045D01*
X140405654Y-115700855D01*
X140302430Y-115451035D01*
X140063277Y-115211464D01*
X139750649Y-115081649D01*
X139576916Y-115081498D01*
X139577066Y-114909255D01*
X139447797Y-114596401D01*
X139208644Y-114356830D01*
X138896016Y-114227015D01*
X138586623Y-114226745D01*
X138634122Y-114179329D01*
X138763937Y-113866701D01*
X138764232Y-113528192D01*
X138718914Y-113418512D01*
X140548953Y-113418512D01*
X140678222Y-113731366D01*
X140917375Y-113970937D01*
X141230003Y-114100752D01*
X141568512Y-114101047D01*
X141881366Y-113971778D01*
X142120937Y-113732625D01*
X142250752Y-113419997D01*
X142250967Y-113173386D01*
X142378222Y-113481366D01*
X142427244Y-113530474D01*
X142386247Y-113571400D01*
X142256432Y-113884028D01*
X142256137Y-114222537D01*
X142385406Y-114535391D01*
X142624559Y-114774962D01*
X142820141Y-114856175D01*
X142945331Y-115159157D01*
X143184484Y-115398728D01*
X143497112Y-115528543D01*
X143835621Y-115528838D01*
X144148475Y-115399569D01*
X144388046Y-115160416D01*
X144517861Y-114847788D01*
X144518156Y-114509279D01*
X144388887Y-114196425D01*
X144361023Y-114168512D01*
X147188953Y-114168512D01*
X147318222Y-114481366D01*
X147557375Y-114720937D01*
X147870003Y-114850752D01*
X148208512Y-114851047D01*
X148521366Y-114721778D01*
X148760937Y-114482625D01*
X148890752Y-114169997D01*
X148891047Y-113831488D01*
X148761778Y-113518634D01*
X148522625Y-113279063D01*
X148209997Y-113149248D01*
X147871488Y-113148953D01*
X147558634Y-113278222D01*
X147319063Y-113517375D01*
X147189248Y-113830003D01*
X147188953Y-114168512D01*
X144361023Y-114168512D01*
X144149734Y-113956854D01*
X143954152Y-113875641D01*
X143828962Y-113572659D01*
X143779940Y-113523551D01*
X143820937Y-113482625D01*
X143950752Y-113169997D01*
X143951047Y-112831488D01*
X143821778Y-112518634D01*
X143582625Y-112279063D01*
X143269997Y-112149248D01*
X142931488Y-112148953D01*
X142618634Y-112278222D01*
X142379063Y-112517375D01*
X142249248Y-112830003D01*
X142249033Y-113076614D01*
X142121778Y-112768634D01*
X141882625Y-112529063D01*
X141569997Y-112399248D01*
X141231488Y-112398953D01*
X140918634Y-112528222D01*
X140679063Y-112767375D01*
X140549248Y-113080003D01*
X140548953Y-113418512D01*
X138718914Y-113418512D01*
X138634963Y-113215338D01*
X138395810Y-112975767D01*
X138083182Y-112845952D01*
X137744673Y-112845657D01*
X137431819Y-112974926D01*
X137192248Y-113214079D01*
X137189058Y-113221761D01*
X137139672Y-113102237D01*
X136900519Y-112862666D01*
X136587891Y-112732851D01*
X136249382Y-112732556D01*
X135936528Y-112861825D01*
X135696957Y-113100978D01*
X135635420Y-113249174D01*
X135381488Y-113248953D01*
X135068634Y-113378222D01*
X134829063Y-113617375D01*
X134699248Y-113930003D01*
X134698953Y-114268512D01*
X132018321Y-114268512D01*
X132100752Y-114069997D01*
X132101047Y-113731488D01*
X131971778Y-113418634D01*
X131732625Y-113179063D01*
X131419997Y-113049248D01*
X131081488Y-113048953D01*
X130768634Y-113178222D01*
X130583000Y-113363532D01*
X130583000Y-109896512D01*
X139814153Y-109896512D01*
X139943422Y-110209366D01*
X140182575Y-110448937D01*
X140495203Y-110578752D01*
X140747879Y-110578972D01*
X140728848Y-110624803D01*
X140728553Y-110963312D01*
X140857822Y-111276166D01*
X141096975Y-111515737D01*
X141409603Y-111645552D01*
X141748112Y-111645847D01*
X142051956Y-111520301D01*
X142077022Y-111580966D01*
X142316175Y-111820537D01*
X142628803Y-111950352D01*
X142967312Y-111950647D01*
X143280166Y-111821378D01*
X143519737Y-111582225D01*
X143523604Y-111572912D01*
X145605353Y-111572912D01*
X145734622Y-111885766D01*
X145973775Y-112125337D01*
X146286403Y-112255152D01*
X146624912Y-112255447D01*
X146937766Y-112126178D01*
X147059116Y-112005039D01*
X149788776Y-112005039D01*
X149918045Y-112317893D01*
X150157198Y-112557464D01*
X150469826Y-112687279D01*
X150600049Y-112687392D01*
X150641443Y-112787574D01*
X150880596Y-113027145D01*
X150949139Y-113055606D01*
X150948953Y-113268512D01*
X151078222Y-113581366D01*
X151317375Y-113820937D01*
X151630003Y-113950752D01*
X151968512Y-113951047D01*
X152281366Y-113821778D01*
X152520937Y-113582625D01*
X152650752Y-113269997D01*
X152651047Y-112931488D01*
X152521778Y-112618634D01*
X152282625Y-112379063D01*
X152214082Y-112350602D01*
X152214268Y-112137696D01*
X152193445Y-112087300D01*
X152272833Y-112120265D01*
X152611342Y-112120560D01*
X152924196Y-111991291D01*
X153163767Y-111752138D01*
X153293582Y-111439510D01*
X153293877Y-111101001D01*
X153258496Y-111015372D01*
X153302645Y-110997130D01*
X153454730Y-110845311D01*
X153374019Y-111039683D01*
X153373724Y-111378192D01*
X153502993Y-111691046D01*
X153742146Y-111930617D01*
X153997684Y-112036726D01*
X153852519Y-112181638D01*
X153722704Y-112494266D01*
X153722409Y-112832775D01*
X153779867Y-112971834D01*
X153604587Y-113044258D01*
X153365016Y-113283411D01*
X153235201Y-113596039D01*
X153234906Y-113934548D01*
X153364175Y-114247402D01*
X153603328Y-114486973D01*
X153857198Y-114592389D01*
X153839990Y-114633830D01*
X153839695Y-114972339D01*
X153968964Y-115285193D01*
X154208117Y-115524764D01*
X154232718Y-115534979D01*
X154232553Y-115724566D01*
X154361822Y-116037420D01*
X154430884Y-116106602D01*
X154388042Y-116209776D01*
X154387747Y-116548285D01*
X154517016Y-116861139D01*
X154756169Y-117100710D01*
X155068797Y-117230525D01*
X155407306Y-117230820D01*
X155720160Y-117101551D01*
X155749730Y-117072033D01*
X155951681Y-117155891D01*
X156074608Y-117155998D01*
X156128384Y-117286146D01*
X156367537Y-117525717D01*
X156680165Y-117655532D01*
X157018674Y-117655827D01*
X157331528Y-117526558D01*
X157571099Y-117287405D01*
X157667775Y-117054583D01*
X157687875Y-117074718D01*
X158000503Y-117204533D01*
X158339012Y-117204828D01*
X158651866Y-117075559D01*
X158891437Y-116836406D01*
X159021252Y-116523778D01*
X159021547Y-116185269D01*
X158892278Y-115872415D01*
X158653125Y-115632844D01*
X158340497Y-115503029D01*
X158001988Y-115502734D01*
X157935435Y-115530233D01*
X157781010Y-115375539D01*
X157468382Y-115245724D01*
X157129873Y-115245429D01*
X156817019Y-115374698D01*
X156605723Y-115585625D01*
X156604303Y-115584202D01*
X156291675Y-115454387D01*
X155953166Y-115454092D01*
X155934582Y-115461771D01*
X155934647Y-115387542D01*
X155822420Y-115115933D01*
X155937025Y-115116033D01*
X156249879Y-114986764D01*
X156489450Y-114747611D01*
X156619265Y-114434983D01*
X156619560Y-114096474D01*
X156490291Y-113783620D01*
X156251138Y-113544049D01*
X156043828Y-113457966D01*
X156087272Y-113353343D01*
X156087469Y-113127029D01*
X156151797Y-113127085D01*
X156464651Y-112997816D01*
X156704222Y-112758663D01*
X156834037Y-112446035D01*
X156834332Y-112107526D01*
X156705063Y-111794672D01*
X156465910Y-111555101D01*
X156153282Y-111425286D01*
X155831708Y-111425006D01*
X155723017Y-111316125D01*
X155749438Y-111289750D01*
X155783435Y-111207877D01*
X155994719Y-111295610D01*
X156333228Y-111295905D01*
X156399523Y-111268512D01*
X159148953Y-111268512D01*
X159278222Y-111581366D01*
X159517375Y-111820937D01*
X159830003Y-111950752D01*
X160168512Y-111951047D01*
X160481366Y-111821778D01*
X160559071Y-111744208D01*
X161267103Y-111744208D01*
X161389694Y-112040901D01*
X161305762Y-112243032D01*
X161305467Y-112581541D01*
X161434736Y-112894395D01*
X161673889Y-113133966D01*
X161986517Y-113263781D01*
X162325026Y-113264076D01*
X162637880Y-113134807D01*
X162877451Y-112895654D01*
X163007266Y-112583026D01*
X163007561Y-112244517D01*
X162884970Y-111947824D01*
X162968902Y-111745693D01*
X162969197Y-111407184D01*
X162883068Y-111198738D01*
X163003709Y-110908204D01*
X163004004Y-110569695D01*
X162888536Y-110290241D01*
X163000752Y-110019995D01*
X163001047Y-109681486D01*
X162894969Y-109424759D01*
X163000756Y-109169997D01*
X163001051Y-108831488D01*
X162915679Y-108624874D01*
X163000752Y-108419997D01*
X163001047Y-108081488D01*
X162915679Y-107874881D01*
X163000752Y-107670003D01*
X163001047Y-107331494D01*
X162915676Y-107124881D01*
X163000752Y-106919997D01*
X163001047Y-106581488D01*
X162871778Y-106268634D01*
X162632625Y-106029063D01*
X162319997Y-105899248D01*
X161981488Y-105898953D01*
X161668634Y-106028222D01*
X161429063Y-106267375D01*
X161299248Y-106580003D01*
X161298953Y-106918512D01*
X161384324Y-107125125D01*
X161299248Y-107330009D01*
X161298953Y-107668518D01*
X161384321Y-107875125D01*
X161299248Y-108080003D01*
X161298953Y-108418512D01*
X161384325Y-108625126D01*
X161299252Y-108830003D01*
X161298957Y-109168512D01*
X161405035Y-109425239D01*
X161299248Y-109680001D01*
X161298953Y-110018510D01*
X161414421Y-110297964D01*
X161302205Y-110568210D01*
X161301910Y-110906719D01*
X161388039Y-111115165D01*
X161267398Y-111405699D01*
X161267103Y-111744208D01*
X160559071Y-111744208D01*
X160720937Y-111582625D01*
X160850752Y-111269997D01*
X160851047Y-110931488D01*
X160721778Y-110618634D01*
X160482625Y-110379063D01*
X160169997Y-110249248D01*
X159831488Y-110248953D01*
X159518634Y-110378222D01*
X159279063Y-110617375D01*
X159149248Y-110930003D01*
X159148953Y-111268512D01*
X156399523Y-111268512D01*
X156646082Y-111166636D01*
X156885653Y-110927483D01*
X156987183Y-110682972D01*
X157030001Y-110700752D01*
X157368510Y-110701047D01*
X157681364Y-110571778D01*
X157920935Y-110332625D01*
X158050750Y-110019997D01*
X158051045Y-109681488D01*
X157944965Y-109424755D01*
X158050750Y-109169997D01*
X158051045Y-108831488D01*
X157955321Y-108599819D01*
X158050752Y-108369997D01*
X158051047Y-108031488D01*
X157965677Y-107824878D01*
X158050752Y-107619997D01*
X158051047Y-107281488D01*
X157921778Y-106968634D01*
X157813366Y-106860032D01*
X157850752Y-106769997D01*
X157851047Y-106431488D01*
X157721778Y-106118634D01*
X157482625Y-105879063D01*
X157169997Y-105749248D01*
X156831488Y-105748953D01*
X156518634Y-105878222D01*
X156279063Y-106117375D01*
X156149248Y-106430003D01*
X156148953Y-106768512D01*
X156221610Y-106944354D01*
X156018634Y-107028222D01*
X155779063Y-107267375D01*
X155649248Y-107580003D01*
X155648953Y-107918512D01*
X155778222Y-108231366D01*
X155780702Y-108233850D01*
X155699252Y-108430003D01*
X155698957Y-108768512D01*
X155794680Y-109000178D01*
X155702904Y-109221197D01*
X155528531Y-109148791D01*
X155190022Y-109148496D01*
X154877168Y-109277765D01*
X154637597Y-109516918D01*
X154507782Y-109829546D01*
X154507525Y-110124888D01*
X154307564Y-110324500D01*
X154293305Y-110358840D01*
X154056259Y-110358633D01*
X153743405Y-110487902D01*
X153591320Y-110639721D01*
X153672031Y-110445349D01*
X153672326Y-110106840D01*
X153543057Y-109793986D01*
X153303904Y-109554415D01*
X152991276Y-109424600D01*
X152652767Y-109424305D01*
X152339913Y-109553574D01*
X152100342Y-109792727D01*
X152025779Y-109972293D01*
X151982625Y-109929063D01*
X151669997Y-109799248D01*
X151331488Y-109798953D01*
X151018634Y-109928222D01*
X150779063Y-110167375D01*
X150649248Y-110480003D01*
X150648953Y-110818512D01*
X150718032Y-110985695D01*
X150471311Y-110985480D01*
X150158457Y-111114749D01*
X149918886Y-111353902D01*
X149789071Y-111666530D01*
X149788776Y-112005039D01*
X147059116Y-112005039D01*
X147177337Y-111887025D01*
X147305027Y-111579515D01*
X147318512Y-111579527D01*
X147631366Y-111450258D01*
X147870937Y-111211105D01*
X148000752Y-110898477D01*
X148001047Y-110559968D01*
X147871778Y-110247114D01*
X147632625Y-110007543D01*
X147319997Y-109877728D01*
X146981488Y-109877433D01*
X146668634Y-110006702D01*
X146429063Y-110245855D01*
X146301373Y-110553365D01*
X146287888Y-110553353D01*
X145975034Y-110682622D01*
X145735463Y-110921775D01*
X145605648Y-111234403D01*
X145605353Y-111572912D01*
X143523604Y-111572912D01*
X143649552Y-111269597D01*
X143649847Y-110931088D01*
X143520578Y-110618234D01*
X143281425Y-110378663D01*
X142968797Y-110248848D01*
X142630288Y-110248553D01*
X142326444Y-110374099D01*
X142301378Y-110313434D01*
X142062225Y-110073863D01*
X141749597Y-109944048D01*
X141496921Y-109943828D01*
X141515952Y-109897997D01*
X141516247Y-109559488D01*
X141386978Y-109246634D01*
X141147825Y-109007063D01*
X140835197Y-108877248D01*
X140496688Y-108876953D01*
X140183834Y-109006222D01*
X139944263Y-109245375D01*
X139814448Y-109558003D01*
X139814153Y-109896512D01*
X130583000Y-109896512D01*
X130583000Y-109018391D01*
X137137576Y-109018391D01*
X137266845Y-109331245D01*
X137505998Y-109570816D01*
X137818626Y-109700631D01*
X138157135Y-109700926D01*
X138469989Y-109571657D01*
X138709560Y-109332504D01*
X138839375Y-109019876D01*
X138839626Y-108731831D01*
X143496642Y-108731831D01*
X143625911Y-109044685D01*
X143865064Y-109284256D01*
X144145560Y-109400728D01*
X143993830Y-109463422D01*
X143754259Y-109702575D01*
X143624444Y-110015203D01*
X143624149Y-110353712D01*
X143753418Y-110666566D01*
X143992571Y-110906137D01*
X144305199Y-111035952D01*
X144643708Y-111036247D01*
X144956562Y-110906978D01*
X145196133Y-110667825D01*
X145325948Y-110355197D01*
X145326243Y-110016688D01*
X145196974Y-109703834D01*
X144957821Y-109464263D01*
X144677325Y-109347791D01*
X144759555Y-109313814D01*
X145148953Y-109313814D01*
X145278222Y-109626668D01*
X145517375Y-109866239D01*
X145830003Y-109996054D01*
X146168512Y-109996349D01*
X146481366Y-109867080D01*
X146720937Y-109627927D01*
X146850752Y-109315299D01*
X146851047Y-108976790D01*
X146721778Y-108663936D01*
X146626521Y-108568512D01*
X151948953Y-108568512D01*
X152078222Y-108881366D01*
X152317375Y-109120937D01*
X152630003Y-109250752D01*
X152968512Y-109251047D01*
X153281366Y-109121778D01*
X153520937Y-108882625D01*
X153650752Y-108569997D01*
X153651047Y-108231488D01*
X153521778Y-107918634D01*
X153282625Y-107679063D01*
X152969997Y-107549248D01*
X152631488Y-107548953D01*
X152318634Y-107678222D01*
X152079063Y-107917375D01*
X151949248Y-108230003D01*
X151948953Y-108568512D01*
X146626521Y-108568512D01*
X146482625Y-108424365D01*
X146169997Y-108294550D01*
X145831488Y-108294255D01*
X145518634Y-108423524D01*
X145279063Y-108662677D01*
X145149248Y-108975305D01*
X145148953Y-109313814D01*
X144759555Y-109313814D01*
X144829055Y-109285097D01*
X145068626Y-109045944D01*
X145198441Y-108733316D01*
X145198552Y-108605996D01*
X145281366Y-108571778D01*
X145520937Y-108332625D01*
X145650752Y-108019997D01*
X145651047Y-107681488D01*
X145604417Y-107568633D01*
X147148953Y-107568633D01*
X147278222Y-107881487D01*
X147517375Y-108121058D01*
X147830003Y-108250873D01*
X148168512Y-108251168D01*
X148481366Y-108121899D01*
X148720937Y-107882746D01*
X148850752Y-107570118D01*
X148851047Y-107231609D01*
X148721778Y-106918755D01*
X148482625Y-106679184D01*
X148169997Y-106549369D01*
X147831488Y-106549074D01*
X147518634Y-106678343D01*
X147279063Y-106917496D01*
X147149248Y-107230124D01*
X147148953Y-107568633D01*
X145604417Y-107568633D01*
X145521778Y-107368634D01*
X145282625Y-107129063D01*
X144969997Y-106999248D01*
X144631488Y-106998953D01*
X144318634Y-107128222D01*
X144079063Y-107367375D01*
X143949248Y-107680003D01*
X143949137Y-107807323D01*
X143866323Y-107841541D01*
X143626752Y-108080694D01*
X143496937Y-108393322D01*
X143496642Y-108731831D01*
X138839626Y-108731831D01*
X138839670Y-108681367D01*
X138710401Y-108368513D01*
X138471248Y-108128942D01*
X138158620Y-107999127D01*
X137820111Y-107998832D01*
X137507257Y-108128101D01*
X137267686Y-108367254D01*
X137137871Y-108679882D01*
X137137576Y-109018391D01*
X130583000Y-109018391D01*
X130583000Y-108236327D01*
X130717375Y-108370937D01*
X131030003Y-108500752D01*
X131368512Y-108501047D01*
X131681366Y-108371778D01*
X131920937Y-108132625D01*
X132050752Y-107819997D01*
X132051047Y-107481488D01*
X131921778Y-107168634D01*
X131682625Y-106929063D01*
X131369997Y-106799248D01*
X131031488Y-106798953D01*
X130718634Y-106928222D01*
X130583000Y-107063619D01*
X130583000Y-105668512D01*
X135848953Y-105668512D01*
X135978222Y-105981366D01*
X136217375Y-106220937D01*
X136530003Y-106350752D01*
X136868512Y-106351047D01*
X137181366Y-106221778D01*
X137420937Y-105982625D01*
X137526595Y-105728171D01*
X138919294Y-105728171D01*
X139048563Y-106041025D01*
X139287716Y-106280596D01*
X139600344Y-106410411D01*
X139938853Y-106410706D01*
X140251707Y-106281437D01*
X140491278Y-106042284D01*
X140621093Y-105729656D01*
X140621388Y-105391147D01*
X140544336Y-105204666D01*
X143873726Y-105204666D01*
X144002995Y-105517520D01*
X144242148Y-105757091D01*
X144463877Y-105849161D01*
X144427728Y-105936218D01*
X144427433Y-106274727D01*
X144556702Y-106587581D01*
X144795855Y-106827152D01*
X145108483Y-106956967D01*
X145446992Y-106957262D01*
X145759846Y-106827993D01*
X145999417Y-106588840D01*
X146129232Y-106276212D01*
X146129527Y-105937703D01*
X146121741Y-105918858D01*
X150813440Y-105918858D01*
X150942709Y-106231712D01*
X150986531Y-106275611D01*
X150903373Y-106475878D01*
X150903078Y-106814387D01*
X151032347Y-107127241D01*
X151271500Y-107366812D01*
X151584128Y-107496627D01*
X151922637Y-107496922D01*
X152235491Y-107367653D01*
X152475062Y-107128500D01*
X152479701Y-107117327D01*
X152565076Y-107202851D01*
X152877704Y-107332666D01*
X153216213Y-107332961D01*
X153529067Y-107203692D01*
X153768638Y-106964539D01*
X153898453Y-106651911D01*
X153898713Y-106353991D01*
X154164053Y-106244354D01*
X154403624Y-106005201D01*
X154533439Y-105692573D01*
X154533734Y-105354064D01*
X154457036Y-105168439D01*
X155149010Y-105168439D01*
X155278279Y-105481293D01*
X155517432Y-105720864D01*
X155830060Y-105850679D01*
X156168569Y-105850974D01*
X156481423Y-105721705D01*
X156720994Y-105482552D01*
X156720995Y-105482551D01*
X156850810Y-105169923D01*
X156851105Y-104831414D01*
X156721836Y-104518560D01*
X156482683Y-104278989D01*
X156170055Y-104149174D01*
X155831546Y-104148879D01*
X155518692Y-104278148D01*
X155518691Y-104278149D01*
X155279120Y-104517302D01*
X155149305Y-104829930D01*
X155149010Y-105168439D01*
X154457036Y-105168439D01*
X154404465Y-105041210D01*
X154165312Y-104801639D01*
X153852684Y-104671824D01*
X153514175Y-104671529D01*
X153201321Y-104800798D01*
X152961750Y-105039951D01*
X152831935Y-105352579D01*
X152831675Y-105650499D01*
X152566335Y-105760136D01*
X152515334Y-105811048D01*
X152515534Y-105581834D01*
X152386265Y-105268980D01*
X152147112Y-105029409D01*
X151834484Y-104899594D01*
X151495975Y-104899299D01*
X151183121Y-105028568D01*
X150943550Y-105267721D01*
X150813735Y-105580349D01*
X150813440Y-105918858D01*
X146121741Y-105918858D01*
X146000258Y-105624849D01*
X145761105Y-105385278D01*
X145539376Y-105293208D01*
X145575525Y-105206151D01*
X145575820Y-104867642D01*
X145446551Y-104554788D01*
X145207398Y-104315217D01*
X145094921Y-104268512D01*
X150148953Y-104268512D01*
X150278222Y-104581366D01*
X150517375Y-104820937D01*
X150830003Y-104950752D01*
X151168512Y-104951047D01*
X151481366Y-104821778D01*
X151720937Y-104582625D01*
X151850752Y-104269997D01*
X151851047Y-103931488D01*
X151721778Y-103618634D01*
X151633625Y-103530326D01*
X154348173Y-103530326D01*
X154477442Y-103843180D01*
X154716595Y-104082751D01*
X155029223Y-104212566D01*
X155367732Y-104212861D01*
X155680586Y-104083592D01*
X155920157Y-103844439D01*
X156049972Y-103531811D01*
X156050267Y-103193302D01*
X155978082Y-103018601D01*
X155987743Y-103008956D01*
X156117558Y-102696328D01*
X156117853Y-102357819D01*
X155988584Y-102044965D01*
X155749431Y-101805394D01*
X155436803Y-101675579D01*
X155098294Y-101675284D01*
X154785440Y-101804553D01*
X154545869Y-102043706D01*
X154416054Y-102356334D01*
X154415759Y-102694843D01*
X154487944Y-102869544D01*
X154478283Y-102879189D01*
X154348468Y-103191817D01*
X154348173Y-103530326D01*
X151633625Y-103530326D01*
X151482625Y-103379063D01*
X151169997Y-103249248D01*
X150831488Y-103248953D01*
X150518634Y-103378222D01*
X150279063Y-103617375D01*
X150149248Y-103930003D01*
X150148953Y-104268512D01*
X145094921Y-104268512D01*
X144894770Y-104185402D01*
X144556261Y-104185107D01*
X144243407Y-104314376D01*
X144003836Y-104553529D01*
X143874021Y-104866157D01*
X143873726Y-105204666D01*
X140544336Y-105204666D01*
X140492119Y-105078293D01*
X140252966Y-104838722D01*
X139940338Y-104708907D01*
X139601829Y-104708612D01*
X139288975Y-104837881D01*
X139049404Y-105077034D01*
X138919589Y-105389662D01*
X138919294Y-105728171D01*
X137526595Y-105728171D01*
X137550752Y-105669997D01*
X137551047Y-105331488D01*
X137421778Y-105018634D01*
X137182625Y-104779063D01*
X136869997Y-104649248D01*
X136531488Y-104648953D01*
X136218634Y-104778222D01*
X135979063Y-105017375D01*
X135849248Y-105330003D01*
X135848953Y-105668512D01*
X130583000Y-105668512D01*
X130583000Y-103518512D01*
X132748953Y-103518512D01*
X132878222Y-103831366D01*
X133117375Y-104070937D01*
X133430003Y-104200752D01*
X133768512Y-104201047D01*
X134081366Y-104071778D01*
X134320937Y-103832625D01*
X134404724Y-103630843D01*
X140079535Y-103630843D01*
X140208804Y-103943697D01*
X140447957Y-104183268D01*
X140760585Y-104313083D01*
X141099094Y-104313378D01*
X141411948Y-104184109D01*
X141651519Y-103944956D01*
X141781334Y-103632328D01*
X141781393Y-103563824D01*
X144748772Y-103563824D01*
X144878041Y-103876678D01*
X145117194Y-104116249D01*
X145429822Y-104246064D01*
X145768331Y-104246359D01*
X146081185Y-104117090D01*
X146320756Y-103877937D01*
X146450571Y-103565309D01*
X146450866Y-103226800D01*
X146321597Y-102913946D01*
X146082444Y-102674375D01*
X145769816Y-102544560D01*
X145431307Y-102544265D01*
X145118453Y-102673534D01*
X144878882Y-102912687D01*
X144749067Y-103225315D01*
X144748772Y-103563824D01*
X141781393Y-103563824D01*
X141781629Y-103293819D01*
X141652360Y-102980965D01*
X141413207Y-102741394D01*
X141100579Y-102611579D01*
X140762070Y-102611284D01*
X140449216Y-102740553D01*
X140209645Y-102979706D01*
X140079830Y-103292334D01*
X140079535Y-103630843D01*
X134404724Y-103630843D01*
X134450752Y-103519997D01*
X134451047Y-103181488D01*
X134321778Y-102868634D01*
X134082625Y-102629063D01*
X133816390Y-102518512D01*
X147548953Y-102518512D01*
X147678222Y-102831366D01*
X147917375Y-103070937D01*
X148230003Y-103200752D01*
X148568512Y-103201047D01*
X148881366Y-103071778D01*
X149120937Y-102832625D01*
X149250752Y-102519997D01*
X149251047Y-102181488D01*
X149226018Y-102120912D01*
X149326975Y-102020131D01*
X149456790Y-101707503D01*
X149457085Y-101368994D01*
X149413863Y-101264387D01*
X151044828Y-101264387D01*
X151174097Y-101577241D01*
X151413250Y-101816812D01*
X151725878Y-101946627D01*
X152064387Y-101946922D01*
X152377241Y-101817653D01*
X152616812Y-101578500D01*
X152697761Y-101383554D01*
X152980003Y-101500752D01*
X153318512Y-101501047D01*
X153631366Y-101371778D01*
X153870937Y-101132625D01*
X154000752Y-100819997D01*
X154001047Y-100481488D01*
X154000499Y-100480162D01*
X154249695Y-100480379D01*
X154562549Y-100351110D01*
X154673821Y-100240032D01*
X161259189Y-100240032D01*
X161388458Y-100552886D01*
X161627611Y-100792457D01*
X161940239Y-100922272D01*
X162278748Y-100922567D01*
X162528108Y-100819533D01*
X162629611Y-100921213D01*
X162942239Y-101051028D01*
X163133121Y-101051194D01*
X163057728Y-101232760D01*
X163057433Y-101571269D01*
X163186702Y-101884123D01*
X163425855Y-102123694D01*
X163738483Y-102253509D01*
X164076992Y-102253804D01*
X164389846Y-102124535D01*
X164629417Y-101885382D01*
X164759232Y-101572754D01*
X164759527Y-101234245D01*
X164630258Y-100921391D01*
X164592502Y-100883569D01*
X164660857Y-100815334D01*
X164790672Y-100502706D01*
X164790967Y-100164197D01*
X164661698Y-99851343D01*
X164422545Y-99611772D01*
X164109917Y-99481957D01*
X163771408Y-99481662D01*
X163648058Y-99532629D01*
X163594861Y-99479339D01*
X163282233Y-99349524D01*
X162943724Y-99349229D01*
X162694364Y-99452263D01*
X162592861Y-99350583D01*
X162280233Y-99220768D01*
X161941724Y-99220473D01*
X161628870Y-99349742D01*
X161389299Y-99588895D01*
X161259484Y-99901523D01*
X161259189Y-100240032D01*
X154673821Y-100240032D01*
X154802120Y-100111957D01*
X154855899Y-99982443D01*
X154968404Y-100095145D01*
X155281032Y-100224960D01*
X155619541Y-100225255D01*
X155932395Y-100095986D01*
X156171966Y-99856833D01*
X156301781Y-99544205D01*
X156302076Y-99205696D01*
X156286712Y-99168512D01*
X156698953Y-99168512D01*
X156828222Y-99481366D01*
X157067375Y-99720937D01*
X157380003Y-99850752D01*
X157718512Y-99851047D01*
X158031366Y-99721778D01*
X158149952Y-99603399D01*
X158217373Y-99670937D01*
X158530001Y-99800752D01*
X158868510Y-99801047D01*
X159181364Y-99671778D01*
X159420935Y-99432625D01*
X159550750Y-99119997D01*
X159551045Y-98781488D01*
X159421776Y-98468634D01*
X159182623Y-98229063D01*
X158869995Y-98099248D01*
X158531486Y-98098953D01*
X158218632Y-98228222D01*
X158100046Y-98346601D01*
X158032625Y-98279063D01*
X157719997Y-98149248D01*
X157381488Y-98148953D01*
X157068634Y-98278222D01*
X156829063Y-98517375D01*
X156699248Y-98830003D01*
X156698953Y-99168512D01*
X156286712Y-99168512D01*
X156172807Y-98892842D01*
X155933654Y-98653271D01*
X155621026Y-98523456D01*
X155282517Y-98523161D01*
X154969663Y-98652430D01*
X154730092Y-98891583D01*
X154676313Y-99021097D01*
X154563808Y-98908395D01*
X154251180Y-98778580D01*
X153912671Y-98778285D01*
X153599817Y-98907554D01*
X153360246Y-99146707D01*
X153230431Y-99459335D01*
X153230136Y-99797844D01*
X153230684Y-99799170D01*
X152981488Y-99798953D01*
X152668634Y-99928222D01*
X152429063Y-100167375D01*
X152348114Y-100362321D01*
X152065872Y-100245123D01*
X151727363Y-100244828D01*
X151414509Y-100374097D01*
X151174938Y-100613250D01*
X151045123Y-100925878D01*
X151044828Y-101264387D01*
X149413863Y-101264387D01*
X149327816Y-101056140D01*
X149088663Y-100816569D01*
X148776035Y-100686754D01*
X148437526Y-100686459D01*
X148124672Y-100815728D01*
X147885101Y-101054881D01*
X147755286Y-101367509D01*
X147754991Y-101706018D01*
X147780020Y-101766594D01*
X147679063Y-101867375D01*
X147549248Y-102180003D01*
X147548953Y-102518512D01*
X133816390Y-102518512D01*
X133769997Y-102499248D01*
X133431488Y-102498953D01*
X133118634Y-102628222D01*
X132879063Y-102867375D01*
X132749248Y-103180003D01*
X132748953Y-103518512D01*
X130583000Y-103518512D01*
X130583000Y-100821284D01*
X137267813Y-100821284D01*
X137397082Y-101134138D01*
X137636235Y-101373709D01*
X137948863Y-101503524D01*
X138287372Y-101503819D01*
X138600226Y-101374550D01*
X138839797Y-101135397D01*
X138865623Y-101073200D01*
X139664626Y-101073200D01*
X139793895Y-101386054D01*
X140033048Y-101625625D01*
X140345676Y-101755440D01*
X140684185Y-101755735D01*
X140997039Y-101626466D01*
X141236610Y-101387313D01*
X141249420Y-101356463D01*
X141421274Y-101356613D01*
X141734128Y-101227344D01*
X141973699Y-100988191D01*
X142103514Y-100675563D01*
X142103809Y-100337054D01*
X142004532Y-100096785D01*
X142342863Y-100097080D01*
X142655717Y-99967811D01*
X142895288Y-99728658D01*
X143025103Y-99416030D01*
X143025398Y-99077521D01*
X142896129Y-98764667D01*
X142656976Y-98525096D01*
X142344348Y-98395281D01*
X142005839Y-98394986D01*
X141692985Y-98524255D01*
X141453414Y-98763408D01*
X141323599Y-99076036D01*
X141323304Y-99414545D01*
X141422581Y-99654814D01*
X141084250Y-99654519D01*
X140771396Y-99783788D01*
X140531825Y-100022941D01*
X140519015Y-100053791D01*
X140347161Y-100053641D01*
X140034307Y-100182910D01*
X139794736Y-100422063D01*
X139664921Y-100734691D01*
X139664626Y-101073200D01*
X138865623Y-101073200D01*
X138969612Y-100822769D01*
X138969907Y-100484260D01*
X138840638Y-100171406D01*
X138601485Y-99931835D01*
X138288857Y-99802020D01*
X137950348Y-99801725D01*
X137637494Y-99930994D01*
X137397923Y-100170147D01*
X137268108Y-100482775D01*
X137267813Y-100821284D01*
X130583000Y-100821284D01*
X130583000Y-97918512D01*
X137298953Y-97918512D01*
X137428222Y-98231366D01*
X137667375Y-98470937D01*
X137980003Y-98600752D01*
X138318512Y-98601047D01*
X138631366Y-98471778D01*
X138870937Y-98232625D01*
X139000752Y-97919997D01*
X139001047Y-97581488D01*
X138975909Y-97520650D01*
X139100752Y-97219997D01*
X139100800Y-97164396D01*
X140544819Y-97164396D01*
X140674088Y-97477250D01*
X140913241Y-97716821D01*
X141225869Y-97846636D01*
X141564378Y-97846931D01*
X141877232Y-97717662D01*
X142116803Y-97478509D01*
X142213480Y-97245687D01*
X142228222Y-97281366D01*
X142467375Y-97520937D01*
X142780003Y-97650752D01*
X143118512Y-97651047D01*
X143431366Y-97521778D01*
X143670937Y-97282625D01*
X143676797Y-97268512D01*
X160798953Y-97268512D01*
X160928222Y-97581366D01*
X161167375Y-97820937D01*
X161480003Y-97950752D01*
X161818512Y-97951047D01*
X162131366Y-97821778D01*
X162370937Y-97582625D01*
X162500752Y-97269997D01*
X162501047Y-96931488D01*
X162371778Y-96618634D01*
X162132625Y-96379063D01*
X161819997Y-96249248D01*
X161481488Y-96248953D01*
X161168634Y-96378222D01*
X160929063Y-96617375D01*
X160799248Y-96930003D01*
X160798953Y-97268512D01*
X143676797Y-97268512D01*
X143800752Y-96969997D01*
X143801047Y-96631488D01*
X143671778Y-96318634D01*
X143432625Y-96079063D01*
X143119997Y-95949248D01*
X142781488Y-95948953D01*
X142468634Y-96078222D01*
X142229063Y-96317375D01*
X142132386Y-96550197D01*
X142117644Y-96514518D01*
X141878491Y-96274947D01*
X141565863Y-96145132D01*
X141227354Y-96144837D01*
X140914500Y-96274106D01*
X140674929Y-96513259D01*
X140545114Y-96825887D01*
X140544819Y-97164396D01*
X139100800Y-97164396D01*
X139101047Y-96881488D01*
X138971778Y-96568634D01*
X138732625Y-96329063D01*
X138419997Y-96199248D01*
X138081488Y-96198953D01*
X137768634Y-96328222D01*
X137529063Y-96567375D01*
X137399248Y-96880003D01*
X137398953Y-97218512D01*
X137424091Y-97279350D01*
X137299248Y-97580003D01*
X137298953Y-97918512D01*
X130583000Y-97918512D01*
X130583000Y-93147664D01*
X130741652Y-93147664D01*
X131046708Y-93885955D01*
X131611074Y-94451307D01*
X132348832Y-94757651D01*
X133147664Y-94758348D01*
X133885955Y-94453292D01*
X134451307Y-93888926D01*
X134480545Y-93818512D01*
X153098953Y-93818512D01*
X153228222Y-94131366D01*
X153467375Y-94370937D01*
X153780003Y-94500752D01*
X154118512Y-94501047D01*
X154431366Y-94371778D01*
X154670937Y-94132625D01*
X154800752Y-93819997D01*
X154800884Y-93668512D01*
X156598953Y-93668512D01*
X156728222Y-93981366D01*
X156967375Y-94220937D01*
X157280003Y-94350752D01*
X157618512Y-94351047D01*
X157931366Y-94221778D01*
X158170937Y-93982625D01*
X158300752Y-93669997D01*
X158301047Y-93331488D01*
X158225093Y-93147664D01*
X161241652Y-93147664D01*
X161546708Y-93885955D01*
X162111074Y-94451307D01*
X162848832Y-94757651D01*
X163647664Y-94758348D01*
X164385955Y-94453292D01*
X164951307Y-93888926D01*
X165257651Y-93151168D01*
X165258348Y-92352336D01*
X164953292Y-91614045D01*
X164388926Y-91048693D01*
X163651168Y-90742349D01*
X162852336Y-90741652D01*
X162114045Y-91046708D01*
X161548693Y-91611074D01*
X161242349Y-92348832D01*
X161241652Y-93147664D01*
X158225093Y-93147664D01*
X158171778Y-93018634D01*
X157932625Y-92779063D01*
X157619997Y-92649248D01*
X157281488Y-92648953D01*
X156968634Y-92778222D01*
X156729063Y-93017375D01*
X156599248Y-93330003D01*
X156598953Y-93668512D01*
X154800884Y-93668512D01*
X154801047Y-93481488D01*
X154671778Y-93168634D01*
X154432625Y-92929063D01*
X154119997Y-92799248D01*
X153781488Y-92798953D01*
X153468634Y-92928222D01*
X153229063Y-93167375D01*
X153099248Y-93480003D01*
X153098953Y-93818512D01*
X134480545Y-93818512D01*
X134757651Y-93151168D01*
X134758348Y-92352336D01*
X134453292Y-91614045D01*
X133888926Y-91048693D01*
X133151168Y-90742349D01*
X132352336Y-90741652D01*
X131614045Y-91046708D01*
X131048693Y-91611074D01*
X130742349Y-92348832D01*
X130741652Y-93147664D01*
X130583000Y-93147664D01*
X130583000Y-92807422D01*
X130758505Y-91925096D01*
X131225777Y-91225775D01*
X131925095Y-90758505D01*
X132807421Y-90583000D01*
X138017107Y-90583000D01*
X137891778Y-90708110D01*
X137891778Y-90708110D01*
G37*
X137891778Y-90708110D02*
X137692228Y-91188681D01*
X137691774Y-91709036D01*
X137890485Y-92189954D01*
X138258110Y-92558222D01*
X138738681Y-92757772D01*
X139259036Y-92758226D01*
X139739954Y-92559515D01*
X140108222Y-92191890D01*
X140307772Y-91711319D01*
X140308226Y-91190964D01*
X140109515Y-90710046D01*
X139982691Y-90583000D01*
X144617107Y-90583000D01*
X144491778Y-90708110D01*
X144292228Y-91188681D01*
X144291774Y-91709036D01*
X144490485Y-92189954D01*
X144858110Y-92558222D01*
X145299064Y-92741322D01*
X145298953Y-92868512D01*
X145428222Y-93181366D01*
X145667375Y-93420937D01*
X145980003Y-93550752D01*
X146318512Y-93551047D01*
X146631366Y-93421778D01*
X146870937Y-93182625D01*
X147000752Y-92869997D01*
X147001047Y-92531488D01*
X146871778Y-92218634D01*
X146748426Y-92095067D01*
X146907772Y-91711319D01*
X146908226Y-91190964D01*
X146709515Y-90710046D01*
X146582691Y-90583000D01*
X163192578Y-90583000D01*
X164074904Y-90758505D01*
X164774225Y-91225777D01*
X165241495Y-91925095D01*
X165417000Y-92807421D01*
X165417000Y-123192579D01*
X165241495Y-124074905D01*
X164774225Y-124774223D01*
X164074904Y-125241495D01*
X163192578Y-125417000D01*
X160377920Y-125417000D01*
X160602572Y-125192740D01*
X160732387Y-124880112D01*
X160732682Y-124541603D01*
X160603413Y-124228749D01*
X160364260Y-123989178D01*
X160051632Y-123859363D01*
X159894063Y-123859226D01*
X160050937Y-123702625D01*
X160073758Y-123647664D01*
X161241652Y-123647664D01*
X161546708Y-124385955D01*
X162111074Y-124951307D01*
X162848832Y-125257651D01*
X163647664Y-125258348D01*
X164385955Y-124953292D01*
X164951307Y-124388926D01*
X165257651Y-123651168D01*
X165258348Y-122852336D01*
X164953292Y-122114045D01*
X164388926Y-121548693D01*
X163651168Y-121242349D01*
X162852336Y-121241652D01*
X162114045Y-121546708D01*
X161548693Y-122111074D01*
X161242349Y-122848832D01*
X161241652Y-123647664D01*
X160073758Y-123647664D01*
X160180752Y-123389997D01*
X160180769Y-123370641D01*
X160192883Y-123370652D01*
X160505737Y-123241383D01*
X160745308Y-123002230D01*
X160875123Y-122689602D01*
X160875418Y-122351093D01*
X160746149Y-122038239D01*
X160506996Y-121798668D01*
X160194368Y-121668853D01*
X159855859Y-121668558D01*
X159543005Y-121797827D01*
X159303434Y-122036980D01*
X159173619Y-122349608D01*
X159173602Y-122368964D01*
X159161488Y-122368953D01*
X158848634Y-122498222D01*
X158609063Y-122737375D01*
X158479248Y-123050003D01*
X158478953Y-123388512D01*
X158608222Y-123701366D01*
X158847375Y-123940937D01*
X159160003Y-124070752D01*
X159317572Y-124070889D01*
X159160698Y-124227490D01*
X159030883Y-124540118D01*
X159030588Y-124878627D01*
X159159857Y-125191481D01*
X159384983Y-125417000D01*
X146581552Y-125417000D01*
X146581552Y-124036400D01*
X146546130Y-123848147D01*
X146434872Y-123675247D01*
X146265112Y-123559255D01*
X146063600Y-123518448D01*
X145927853Y-123518448D01*
X146169868Y-123356739D01*
X146467193Y-122911760D01*
X146505632Y-122718512D01*
X148548953Y-122718512D01*
X148678222Y-123031366D01*
X148917375Y-123270937D01*
X149230003Y-123400752D01*
X149568512Y-123401047D01*
X149779628Y-123313815D01*
X152015206Y-123313815D01*
X152144475Y-123626669D01*
X152383628Y-123866240D01*
X152696256Y-123996055D01*
X153034765Y-123996350D01*
X153121882Y-123960354D01*
X153203412Y-124042026D01*
X153516040Y-124171841D01*
X153713424Y-124172013D01*
X153714873Y-124175519D01*
X153954026Y-124415090D01*
X154266654Y-124544905D01*
X154605163Y-124545200D01*
X154854904Y-124442009D01*
X154878222Y-124498442D01*
X155117375Y-124738013D01*
X155430003Y-124867828D01*
X155768512Y-124868123D01*
X156081366Y-124738854D01*
X156320937Y-124499701D01*
X156450752Y-124187073D01*
X156451047Y-123848564D01*
X156321778Y-123535710D01*
X156082625Y-123296139D01*
X155769997Y-123166324D01*
X155431488Y-123166029D01*
X155181747Y-123269220D01*
X155158429Y-123212787D01*
X154919276Y-122973216D01*
X154606648Y-122843401D01*
X154409264Y-122843229D01*
X154407815Y-122839723D01*
X154168662Y-122600152D01*
X153856034Y-122470337D01*
X153517525Y-122470042D01*
X153430408Y-122506038D01*
X153348878Y-122424366D01*
X153036250Y-122294551D01*
X152697741Y-122294256D01*
X152384887Y-122423525D01*
X152145316Y-122662678D01*
X152015501Y-122975306D01*
X152015206Y-123313815D01*
X149779628Y-123313815D01*
X149881366Y-123271778D01*
X150120937Y-123032625D01*
X150250752Y-122719997D01*
X150251047Y-122381488D01*
X150121778Y-122068634D01*
X149882625Y-121829063D01*
X149569997Y-121699248D01*
X149231488Y-121698953D01*
X148918634Y-121828222D01*
X148679063Y-122067375D01*
X148549248Y-122380003D01*
X148548953Y-122718512D01*
X146505632Y-122718512D01*
X146571600Y-122386871D01*
X146571600Y-122333129D01*
X146467193Y-121808240D01*
X146169868Y-121363261D01*
X145724889Y-121065936D01*
X145200000Y-120961529D01*
X144675111Y-121065936D01*
X144230132Y-121363261D01*
X143932807Y-121808240D01*
X143930000Y-121822352D01*
X143927193Y-121808240D01*
X143629868Y-121363261D01*
X143184889Y-121065936D01*
X142660000Y-120961529D01*
X142135111Y-121065936D01*
X141690132Y-121363261D01*
X141392807Y-121808240D01*
X141390000Y-121822352D01*
X141387193Y-121808240D01*
X141089868Y-121363261D01*
X140644889Y-121065936D01*
X140120000Y-120961529D01*
X139595111Y-121065936D01*
X139150132Y-121363261D01*
X138852807Y-121808240D01*
X138850000Y-121822352D01*
X138847193Y-121808240D01*
X138549868Y-121363261D01*
X138104889Y-121065936D01*
X137580000Y-120961529D01*
X137055111Y-121065936D01*
X136610132Y-121363261D01*
X136312807Y-121808240D01*
X136208400Y-122333129D01*
X136208400Y-122386871D01*
X136312807Y-122911760D01*
X136610132Y-123356739D01*
X137019097Y-123630000D01*
X136610132Y-123903261D01*
X136312807Y-124348240D01*
X136208400Y-124873129D01*
X136208400Y-124926871D01*
X136305893Y-125417000D01*
X132807421Y-125417000D01*
X131925095Y-125241495D01*
X131225777Y-124774225D01*
X130758505Y-124074904D01*
X130673522Y-123647664D01*
X130741652Y-123647664D01*
X131046708Y-124385955D01*
X131611074Y-124951307D01*
X132348832Y-125257651D01*
X133147664Y-125258348D01*
X133885955Y-124953292D01*
X134451307Y-124388926D01*
X134757651Y-123651168D01*
X134758348Y-122852336D01*
X134453292Y-122114045D01*
X133888926Y-121548693D01*
X133151168Y-121242349D01*
X132352336Y-121241652D01*
X131614045Y-121546708D01*
X131048693Y-122111074D01*
X130742349Y-122848832D01*
X130741652Y-123647664D01*
X130673522Y-123647664D01*
X130583000Y-123192578D01*
X130583000Y-120773193D01*
X151615926Y-120773193D01*
X151745195Y-121086047D01*
X151984348Y-121325618D01*
X152296976Y-121455433D01*
X152635485Y-121455728D01*
X152868113Y-121359608D01*
X152901408Y-121440189D01*
X153140561Y-121679760D01*
X153453189Y-121809575D01*
X153791698Y-121809870D01*
X154104552Y-121680601D01*
X154344123Y-121441448D01*
X154390770Y-121329111D01*
X154437452Y-121375875D01*
X154750080Y-121505690D01*
X155088589Y-121505985D01*
X155401443Y-121376716D01*
X155610010Y-121168512D01*
X160598953Y-121168512D01*
X160728222Y-121481366D01*
X160967375Y-121720937D01*
X161280003Y-121850752D01*
X161618512Y-121851047D01*
X161931366Y-121721778D01*
X162170937Y-121482625D01*
X162300752Y-121169997D01*
X162301047Y-120831488D01*
X162171778Y-120518634D01*
X161932625Y-120279063D01*
X161619997Y-120149248D01*
X161281488Y-120148953D01*
X160968634Y-120278222D01*
X160729063Y-120517375D01*
X160599248Y-120830003D01*
X160598953Y-121168512D01*
X155610010Y-121168512D01*
X155641014Y-121137563D01*
X155714314Y-120961037D01*
X155725490Y-120961047D01*
X156038344Y-120831778D01*
X156147695Y-120722618D01*
X156217375Y-120792419D01*
X156530003Y-120922234D01*
X156868512Y-120922529D01*
X157181366Y-120793260D01*
X157420937Y-120554107D01*
X157550752Y-120241479D01*
X157551047Y-119902970D01*
X157421778Y-119590116D01*
X157182625Y-119350545D01*
X156869997Y-119220730D01*
X156531488Y-119220435D01*
X156218634Y-119349704D01*
X156109283Y-119458864D01*
X156039603Y-119389063D01*
X155726975Y-119259248D01*
X155388466Y-119258953D01*
X155075612Y-119388222D01*
X154836041Y-119627375D01*
X154788745Y-119741277D01*
X154638145Y-119590414D01*
X154325517Y-119460599D01*
X153987008Y-119460304D01*
X153674154Y-119589573D01*
X153434583Y-119828726D01*
X153304768Y-120141354D01*
X153304743Y-120169726D01*
X153222046Y-120203896D01*
X153188751Y-120123315D01*
X152949598Y-119883744D01*
X152636970Y-119753929D01*
X152298461Y-119753634D01*
X151985607Y-119882903D01*
X151746036Y-120122056D01*
X151616221Y-120434684D01*
X151615926Y-120773193D01*
X130583000Y-120773193D01*
X130583000Y-114436240D01*
X130767375Y-114620937D01*
X131080003Y-114750752D01*
X131418512Y-114751047D01*
X131731366Y-114621778D01*
X131970937Y-114382625D01*
X132018321Y-114268512D01*
X134698953Y-114268512D01*
X134828222Y-114581366D01*
X135067375Y-114820937D01*
X135380003Y-114950752D01*
X135718512Y-114951047D01*
X136031366Y-114821778D01*
X136270937Y-114582625D01*
X136332474Y-114434429D01*
X136344622Y-114434439D01*
X136416856Y-114609259D01*
X136656009Y-114848830D01*
X136968637Y-114978645D01*
X137307146Y-114978940D01*
X137620000Y-114849671D01*
X137859571Y-114610518D01*
X137885705Y-114547580D01*
X138052581Y-114547726D01*
X138005082Y-114595142D01*
X137875267Y-114907770D01*
X137874972Y-115246279D01*
X138004241Y-115559133D01*
X138243394Y-115798704D01*
X138556022Y-115928519D01*
X138729755Y-115928670D01*
X138729605Y-116100913D01*
X138858874Y-116413767D01*
X139098027Y-116653338D01*
X139349435Y-116757732D01*
X139452659Y-117007552D01*
X139691812Y-117247123D01*
X140004440Y-117376938D01*
X140342949Y-117377233D01*
X140655803Y-117247964D01*
X140706307Y-117197548D01*
X140833009Y-117250159D01*
X141171518Y-117250454D01*
X141484372Y-117121185D01*
X141576114Y-117029603D01*
X141617375Y-117070937D01*
X141930003Y-117200752D01*
X142268512Y-117201047D01*
X142324633Y-117177858D01*
X142517375Y-117370937D01*
X142830003Y-117500752D01*
X143168512Y-117501047D01*
X143481366Y-117371778D01*
X143720937Y-117132625D01*
X143850752Y-116819997D01*
X143850884Y-116668512D01*
X145720473Y-116668512D01*
X145849742Y-116981366D01*
X146088895Y-117220937D01*
X146401523Y-117350752D01*
X146740032Y-117351047D01*
X147052886Y-117221778D01*
X147292457Y-116982625D01*
X147410431Y-116698512D01*
X151688953Y-116698512D01*
X151818222Y-117011366D01*
X152057375Y-117250937D01*
X152370003Y-117380752D01*
X152708512Y-117381047D01*
X153021366Y-117251778D01*
X153260937Y-117012625D01*
X153390752Y-116699997D01*
X153391047Y-116361488D01*
X153261778Y-116048634D01*
X153022625Y-115809063D01*
X152709997Y-115679248D01*
X152371488Y-115678953D01*
X152058634Y-115808222D01*
X151819063Y-116047375D01*
X151689248Y-116360003D01*
X151688953Y-116698512D01*
X147410431Y-116698512D01*
X147422272Y-116669997D01*
X147422567Y-116331488D01*
X147293298Y-116018634D01*
X147054145Y-115779063D01*
X146741517Y-115649248D01*
X146403008Y-115648953D01*
X146090154Y-115778222D01*
X145850583Y-116017375D01*
X145720768Y-116330003D01*
X145720473Y-116668512D01*
X143850884Y-116668512D01*
X143851047Y-116481488D01*
X143721778Y-116168634D01*
X143482625Y-115929063D01*
X143169997Y-115799248D01*
X142831488Y-115798953D01*
X142775367Y-115822142D01*
X142582625Y-115629063D01*
X142269997Y-115499248D01*
X141931488Y-115498953D01*
X141618634Y-115628222D01*
X141526892Y-115719804D01*
X141485631Y-115678470D01*
X141173003Y-115548655D01*
X140834494Y-115548360D01*
X140521640Y-115677629D01*
X140471136Y-115728045D01*
X140405654Y-115700855D01*
X140302430Y-115451035D01*
X140063277Y-115211464D01*
X139750649Y-115081649D01*
X139576916Y-115081498D01*
X139577066Y-114909255D01*
X139447797Y-114596401D01*
X139208644Y-114356830D01*
X138896016Y-114227015D01*
X138586623Y-114226745D01*
X138634122Y-114179329D01*
X138763937Y-113866701D01*
X138764232Y-113528192D01*
X138718914Y-113418512D01*
X140548953Y-113418512D01*
X140678222Y-113731366D01*
X140917375Y-113970937D01*
X141230003Y-114100752D01*
X141568512Y-114101047D01*
X141881366Y-113971778D01*
X142120937Y-113732625D01*
X142250752Y-113419997D01*
X142250967Y-113173386D01*
X142378222Y-113481366D01*
X142427244Y-113530474D01*
X142386247Y-113571400D01*
X142256432Y-113884028D01*
X142256137Y-114222537D01*
X142385406Y-114535391D01*
X142624559Y-114774962D01*
X142820141Y-114856175D01*
X142945331Y-115159157D01*
X143184484Y-115398728D01*
X143497112Y-115528543D01*
X143835621Y-115528838D01*
X144148475Y-115399569D01*
X144388046Y-115160416D01*
X144517861Y-114847788D01*
X144518156Y-114509279D01*
X144388887Y-114196425D01*
X144361023Y-114168512D01*
X147188953Y-114168512D01*
X147318222Y-114481366D01*
X147557375Y-114720937D01*
X147870003Y-114850752D01*
X148208512Y-114851047D01*
X148521366Y-114721778D01*
X148760937Y-114482625D01*
X148890752Y-114169997D01*
X148891047Y-113831488D01*
X148761778Y-113518634D01*
X148522625Y-113279063D01*
X148209997Y-113149248D01*
X147871488Y-113148953D01*
X147558634Y-113278222D01*
X147319063Y-113517375D01*
X147189248Y-113830003D01*
X147188953Y-114168512D01*
X144361023Y-114168512D01*
X144149734Y-113956854D01*
X143954152Y-113875641D01*
X143828962Y-113572659D01*
X143779940Y-113523551D01*
X143820937Y-113482625D01*
X143950752Y-113169997D01*
X143951047Y-112831488D01*
X143821778Y-112518634D01*
X143582625Y-112279063D01*
X143269997Y-112149248D01*
X142931488Y-112148953D01*
X142618634Y-112278222D01*
X142379063Y-112517375D01*
X142249248Y-112830003D01*
X142249033Y-113076614D01*
X142121778Y-112768634D01*
X141882625Y-112529063D01*
X141569997Y-112399248D01*
X141231488Y-112398953D01*
X140918634Y-112528222D01*
X140679063Y-112767375D01*
X140549248Y-113080003D01*
X140548953Y-113418512D01*
X138718914Y-113418512D01*
X138634963Y-113215338D01*
X138395810Y-112975767D01*
X138083182Y-112845952D01*
X137744673Y-112845657D01*
X137431819Y-112974926D01*
X137192248Y-113214079D01*
X137189058Y-113221761D01*
X137139672Y-113102237D01*
X136900519Y-112862666D01*
X136587891Y-112732851D01*
X136249382Y-112732556D01*
X135936528Y-112861825D01*
X135696957Y-113100978D01*
X135635420Y-113249174D01*
X135381488Y-113248953D01*
X135068634Y-113378222D01*
X134829063Y-113617375D01*
X134699248Y-113930003D01*
X134698953Y-114268512D01*
X132018321Y-114268512D01*
X132100752Y-114069997D01*
X132101047Y-113731488D01*
X131971778Y-113418634D01*
X131732625Y-113179063D01*
X131419997Y-113049248D01*
X131081488Y-113048953D01*
X130768634Y-113178222D01*
X130583000Y-113363532D01*
X130583000Y-109896512D01*
X139814153Y-109896512D01*
X139943422Y-110209366D01*
X140182575Y-110448937D01*
X140495203Y-110578752D01*
X140747879Y-110578972D01*
X140728848Y-110624803D01*
X140728553Y-110963312D01*
X140857822Y-111276166D01*
X141096975Y-111515737D01*
X141409603Y-111645552D01*
X141748112Y-111645847D01*
X142051956Y-111520301D01*
X142077022Y-111580966D01*
X142316175Y-111820537D01*
X142628803Y-111950352D01*
X142967312Y-111950647D01*
X143280166Y-111821378D01*
X143519737Y-111582225D01*
X143523604Y-111572912D01*
X145605353Y-111572912D01*
X145734622Y-111885766D01*
X145973775Y-112125337D01*
X146286403Y-112255152D01*
X146624912Y-112255447D01*
X146937766Y-112126178D01*
X147059116Y-112005039D01*
X149788776Y-112005039D01*
X149918045Y-112317893D01*
X150157198Y-112557464D01*
X150469826Y-112687279D01*
X150600049Y-112687392D01*
X150641443Y-112787574D01*
X150880596Y-113027145D01*
X150949139Y-113055606D01*
X150948953Y-113268512D01*
X151078222Y-113581366D01*
X151317375Y-113820937D01*
X151630003Y-113950752D01*
X151968512Y-113951047D01*
X152281366Y-113821778D01*
X152520937Y-113582625D01*
X152650752Y-113269997D01*
X152651047Y-112931488D01*
X152521778Y-112618634D01*
X152282625Y-112379063D01*
X152214082Y-112350602D01*
X152214268Y-112137696D01*
X152193445Y-112087300D01*
X152272833Y-112120265D01*
X152611342Y-112120560D01*
X152924196Y-111991291D01*
X153163767Y-111752138D01*
X153293582Y-111439510D01*
X153293877Y-111101001D01*
X153258496Y-111015372D01*
X153302645Y-110997130D01*
X153454730Y-110845311D01*
X153374019Y-111039683D01*
X153373724Y-111378192D01*
X153502993Y-111691046D01*
X153742146Y-111930617D01*
X153997684Y-112036726D01*
X153852519Y-112181638D01*
X153722704Y-112494266D01*
X153722409Y-112832775D01*
X153779867Y-112971834D01*
X153604587Y-113044258D01*
X153365016Y-113283411D01*
X153235201Y-113596039D01*
X153234906Y-113934548D01*
X153364175Y-114247402D01*
X153603328Y-114486973D01*
X153857198Y-114592389D01*
X153839990Y-114633830D01*
X153839695Y-114972339D01*
X153968964Y-115285193D01*
X154208117Y-115524764D01*
X154232718Y-115534979D01*
X154232553Y-115724566D01*
X154361822Y-116037420D01*
X154430884Y-116106602D01*
X154388042Y-116209776D01*
X154387747Y-116548285D01*
X154517016Y-116861139D01*
X154756169Y-117100710D01*
X155068797Y-117230525D01*
X155407306Y-117230820D01*
X155720160Y-117101551D01*
X155749730Y-117072033D01*
X155951681Y-117155891D01*
X156074608Y-117155998D01*
X156128384Y-117286146D01*
X156367537Y-117525717D01*
X156680165Y-117655532D01*
X157018674Y-117655827D01*
X157331528Y-117526558D01*
X157571099Y-117287405D01*
X157667775Y-117054583D01*
X157687875Y-117074718D01*
X158000503Y-117204533D01*
X158339012Y-117204828D01*
X158651866Y-117075559D01*
X158891437Y-116836406D01*
X159021252Y-116523778D01*
X159021547Y-116185269D01*
X158892278Y-115872415D01*
X158653125Y-115632844D01*
X158340497Y-115503029D01*
X158001988Y-115502734D01*
X157935435Y-115530233D01*
X157781010Y-115375539D01*
X157468382Y-115245724D01*
X157129873Y-115245429D01*
X156817019Y-115374698D01*
X156605723Y-115585625D01*
X156604303Y-115584202D01*
X156291675Y-115454387D01*
X155953166Y-115454092D01*
X155934582Y-115461771D01*
X155934647Y-115387542D01*
X155822420Y-115115933D01*
X155937025Y-115116033D01*
X156249879Y-114986764D01*
X156489450Y-114747611D01*
X156619265Y-114434983D01*
X156619560Y-114096474D01*
X156490291Y-113783620D01*
X156251138Y-113544049D01*
X156043828Y-113457966D01*
X156087272Y-113353343D01*
X156087469Y-113127029D01*
X156151797Y-113127085D01*
X156464651Y-112997816D01*
X156704222Y-112758663D01*
X156834037Y-112446035D01*
X156834332Y-112107526D01*
X156705063Y-111794672D01*
X156465910Y-111555101D01*
X156153282Y-111425286D01*
X155831708Y-111425006D01*
X155723017Y-111316125D01*
X155749438Y-111289750D01*
X155783435Y-111207877D01*
X155994719Y-111295610D01*
X156333228Y-111295905D01*
X156399523Y-111268512D01*
X159148953Y-111268512D01*
X159278222Y-111581366D01*
X159517375Y-111820937D01*
X159830003Y-111950752D01*
X160168512Y-111951047D01*
X160481366Y-111821778D01*
X160559071Y-111744208D01*
X161267103Y-111744208D01*
X161389694Y-112040901D01*
X161305762Y-112243032D01*
X161305467Y-112581541D01*
X161434736Y-112894395D01*
X161673889Y-113133966D01*
X161986517Y-113263781D01*
X162325026Y-113264076D01*
X162637880Y-113134807D01*
X162877451Y-112895654D01*
X163007266Y-112583026D01*
X163007561Y-112244517D01*
X162884970Y-111947824D01*
X162968902Y-111745693D01*
X162969197Y-111407184D01*
X162883068Y-111198738D01*
X163003709Y-110908204D01*
X163004004Y-110569695D01*
X162888536Y-110290241D01*
X163000752Y-110019995D01*
X163001047Y-109681486D01*
X162894969Y-109424759D01*
X163000756Y-109169997D01*
X163001051Y-108831488D01*
X162915679Y-108624874D01*
X163000752Y-108419997D01*
X163001047Y-108081488D01*
X162915679Y-107874881D01*
X163000752Y-107670003D01*
X163001047Y-107331494D01*
X162915676Y-107124881D01*
X163000752Y-106919997D01*
X163001047Y-106581488D01*
X162871778Y-106268634D01*
X162632625Y-106029063D01*
X162319997Y-105899248D01*
X161981488Y-105898953D01*
X161668634Y-106028222D01*
X161429063Y-106267375D01*
X161299248Y-106580003D01*
X161298953Y-106918512D01*
X161384324Y-107125125D01*
X161299248Y-107330009D01*
X161298953Y-107668518D01*
X161384321Y-107875125D01*
X161299248Y-108080003D01*
X161298953Y-108418512D01*
X161384325Y-108625126D01*
X161299252Y-108830003D01*
X161298957Y-109168512D01*
X161405035Y-109425239D01*
X161299248Y-109680001D01*
X161298953Y-110018510D01*
X161414421Y-110297964D01*
X161302205Y-110568210D01*
X161301910Y-110906719D01*
X161388039Y-111115165D01*
X161267398Y-111405699D01*
X161267103Y-111744208D01*
X160559071Y-111744208D01*
X160720937Y-111582625D01*
X160850752Y-111269997D01*
X160851047Y-110931488D01*
X160721778Y-110618634D01*
X160482625Y-110379063D01*
X160169997Y-110249248D01*
X159831488Y-110248953D01*
X159518634Y-110378222D01*
X159279063Y-110617375D01*
X159149248Y-110930003D01*
X159148953Y-111268512D01*
X156399523Y-111268512D01*
X156646082Y-111166636D01*
X156885653Y-110927483D01*
X156987183Y-110682972D01*
X157030001Y-110700752D01*
X157368510Y-110701047D01*
X157681364Y-110571778D01*
X157920935Y-110332625D01*
X158050750Y-110019997D01*
X158051045Y-109681488D01*
X157944965Y-109424755D01*
X158050750Y-109169997D01*
X158051045Y-108831488D01*
X157955321Y-108599819D01*
X158050752Y-108369997D01*
X158051047Y-108031488D01*
X157965677Y-107824878D01*
X158050752Y-107619997D01*
X158051047Y-107281488D01*
X157921778Y-106968634D01*
X157813366Y-106860032D01*
X157850752Y-106769997D01*
X157851047Y-106431488D01*
X157721778Y-106118634D01*
X157482625Y-105879063D01*
X157169997Y-105749248D01*
X156831488Y-105748953D01*
X156518634Y-105878222D01*
X156279063Y-106117375D01*
X156149248Y-106430003D01*
X156148953Y-106768512D01*
X156221610Y-106944354D01*
X156018634Y-107028222D01*
X155779063Y-107267375D01*
X155649248Y-107580003D01*
X155648953Y-107918512D01*
X155778222Y-108231366D01*
X155780702Y-108233850D01*
X155699252Y-108430003D01*
X155698957Y-108768512D01*
X155794680Y-109000178D01*
X155702904Y-109221197D01*
X155528531Y-109148791D01*
X155190022Y-109148496D01*
X154877168Y-109277765D01*
X154637597Y-109516918D01*
X154507782Y-109829546D01*
X154507525Y-110124888D01*
X154307564Y-110324500D01*
X154293305Y-110358840D01*
X154056259Y-110358633D01*
X153743405Y-110487902D01*
X153591320Y-110639721D01*
X153672031Y-110445349D01*
X153672326Y-110106840D01*
X153543057Y-109793986D01*
X153303904Y-109554415D01*
X152991276Y-109424600D01*
X152652767Y-109424305D01*
X152339913Y-109553574D01*
X152100342Y-109792727D01*
X152025779Y-109972293D01*
X151982625Y-109929063D01*
X151669997Y-109799248D01*
X151331488Y-109798953D01*
X151018634Y-109928222D01*
X150779063Y-110167375D01*
X150649248Y-110480003D01*
X150648953Y-110818512D01*
X150718032Y-110985695D01*
X150471311Y-110985480D01*
X150158457Y-111114749D01*
X149918886Y-111353902D01*
X149789071Y-111666530D01*
X149788776Y-112005039D01*
X147059116Y-112005039D01*
X147177337Y-111887025D01*
X147305027Y-111579515D01*
X147318512Y-111579527D01*
X147631366Y-111450258D01*
X147870937Y-111211105D01*
X148000752Y-110898477D01*
X148001047Y-110559968D01*
X147871778Y-110247114D01*
X147632625Y-110007543D01*
X147319997Y-109877728D01*
X146981488Y-109877433D01*
X146668634Y-110006702D01*
X146429063Y-110245855D01*
X146301373Y-110553365D01*
X146287888Y-110553353D01*
X145975034Y-110682622D01*
X145735463Y-110921775D01*
X145605648Y-111234403D01*
X145605353Y-111572912D01*
X143523604Y-111572912D01*
X143649552Y-111269597D01*
X143649847Y-110931088D01*
X143520578Y-110618234D01*
X143281425Y-110378663D01*
X142968797Y-110248848D01*
X142630288Y-110248553D01*
X142326444Y-110374099D01*
X142301378Y-110313434D01*
X142062225Y-110073863D01*
X141749597Y-109944048D01*
X141496921Y-109943828D01*
X141515952Y-109897997D01*
X141516247Y-109559488D01*
X141386978Y-109246634D01*
X141147825Y-109007063D01*
X140835197Y-108877248D01*
X140496688Y-108876953D01*
X140183834Y-109006222D01*
X139944263Y-109245375D01*
X139814448Y-109558003D01*
X139814153Y-109896512D01*
X130583000Y-109896512D01*
X130583000Y-109018391D01*
X137137576Y-109018391D01*
X137266845Y-109331245D01*
X137505998Y-109570816D01*
X137818626Y-109700631D01*
X138157135Y-109700926D01*
X138469989Y-109571657D01*
X138709560Y-109332504D01*
X138839375Y-109019876D01*
X138839626Y-108731831D01*
X143496642Y-108731831D01*
X143625911Y-109044685D01*
X143865064Y-109284256D01*
X144145560Y-109400728D01*
X143993830Y-109463422D01*
X143754259Y-109702575D01*
X143624444Y-110015203D01*
X143624149Y-110353712D01*
X143753418Y-110666566D01*
X143992571Y-110906137D01*
X144305199Y-111035952D01*
X144643708Y-111036247D01*
X144956562Y-110906978D01*
X145196133Y-110667825D01*
X145325948Y-110355197D01*
X145326243Y-110016688D01*
X145196974Y-109703834D01*
X144957821Y-109464263D01*
X144677325Y-109347791D01*
X144759555Y-109313814D01*
X145148953Y-109313814D01*
X145278222Y-109626668D01*
X145517375Y-109866239D01*
X145830003Y-109996054D01*
X146168512Y-109996349D01*
X146481366Y-109867080D01*
X146720937Y-109627927D01*
X146850752Y-109315299D01*
X146851047Y-108976790D01*
X146721778Y-108663936D01*
X146626521Y-108568512D01*
X151948953Y-108568512D01*
X152078222Y-108881366D01*
X152317375Y-109120937D01*
X152630003Y-109250752D01*
X152968512Y-109251047D01*
X153281366Y-109121778D01*
X153520937Y-108882625D01*
X153650752Y-108569997D01*
X153651047Y-108231488D01*
X153521778Y-107918634D01*
X153282625Y-107679063D01*
X152969997Y-107549248D01*
X152631488Y-107548953D01*
X152318634Y-107678222D01*
X152079063Y-107917375D01*
X151949248Y-108230003D01*
X151948953Y-108568512D01*
X146626521Y-108568512D01*
X146482625Y-108424365D01*
X146169997Y-108294550D01*
X145831488Y-108294255D01*
X145518634Y-108423524D01*
X145279063Y-108662677D01*
X145149248Y-108975305D01*
X145148953Y-109313814D01*
X144759555Y-109313814D01*
X144829055Y-109285097D01*
X145068626Y-109045944D01*
X145198441Y-108733316D01*
X145198552Y-108605996D01*
X145281366Y-108571778D01*
X145520937Y-108332625D01*
X145650752Y-108019997D01*
X145651047Y-107681488D01*
X145604417Y-107568633D01*
X147148953Y-107568633D01*
X147278222Y-107881487D01*
X147517375Y-108121058D01*
X147830003Y-108250873D01*
X148168512Y-108251168D01*
X148481366Y-108121899D01*
X148720937Y-107882746D01*
X148850752Y-107570118D01*
X148851047Y-107231609D01*
X148721778Y-106918755D01*
X148482625Y-106679184D01*
X148169997Y-106549369D01*
X147831488Y-106549074D01*
X147518634Y-106678343D01*
X147279063Y-106917496D01*
X147149248Y-107230124D01*
X147148953Y-107568633D01*
X145604417Y-107568633D01*
X145521778Y-107368634D01*
X145282625Y-107129063D01*
X144969997Y-106999248D01*
X144631488Y-106998953D01*
X144318634Y-107128222D01*
X144079063Y-107367375D01*
X143949248Y-107680003D01*
X143949137Y-107807323D01*
X143866323Y-107841541D01*
X143626752Y-108080694D01*
X143496937Y-108393322D01*
X143496642Y-108731831D01*
X138839626Y-108731831D01*
X138839670Y-108681367D01*
X138710401Y-108368513D01*
X138471248Y-108128942D01*
X138158620Y-107999127D01*
X137820111Y-107998832D01*
X137507257Y-108128101D01*
X137267686Y-108367254D01*
X137137871Y-108679882D01*
X137137576Y-109018391D01*
X130583000Y-109018391D01*
X130583000Y-108236327D01*
X130717375Y-108370937D01*
X131030003Y-108500752D01*
X131368512Y-108501047D01*
X131681366Y-108371778D01*
X131920937Y-108132625D01*
X132050752Y-107819997D01*
X132051047Y-107481488D01*
X131921778Y-107168634D01*
X131682625Y-106929063D01*
X131369997Y-106799248D01*
X131031488Y-106798953D01*
X130718634Y-106928222D01*
X130583000Y-107063619D01*
X130583000Y-105668512D01*
X135848953Y-105668512D01*
X135978222Y-105981366D01*
X136217375Y-106220937D01*
X136530003Y-106350752D01*
X136868512Y-106351047D01*
X137181366Y-106221778D01*
X137420937Y-105982625D01*
X137526595Y-105728171D01*
X138919294Y-105728171D01*
X139048563Y-106041025D01*
X139287716Y-106280596D01*
X139600344Y-106410411D01*
X139938853Y-106410706D01*
X140251707Y-106281437D01*
X140491278Y-106042284D01*
X140621093Y-105729656D01*
X140621388Y-105391147D01*
X140544336Y-105204666D01*
X143873726Y-105204666D01*
X144002995Y-105517520D01*
X144242148Y-105757091D01*
X144463877Y-105849161D01*
X144427728Y-105936218D01*
X144427433Y-106274727D01*
X144556702Y-106587581D01*
X144795855Y-106827152D01*
X145108483Y-106956967D01*
X145446992Y-106957262D01*
X145759846Y-106827993D01*
X145999417Y-106588840D01*
X146129232Y-106276212D01*
X146129527Y-105937703D01*
X146121741Y-105918858D01*
X150813440Y-105918858D01*
X150942709Y-106231712D01*
X150986531Y-106275611D01*
X150903373Y-106475878D01*
X150903078Y-106814387D01*
X151032347Y-107127241D01*
X151271500Y-107366812D01*
X151584128Y-107496627D01*
X151922637Y-107496922D01*
X152235491Y-107367653D01*
X152475062Y-107128500D01*
X152479701Y-107117327D01*
X152565076Y-107202851D01*
X152877704Y-107332666D01*
X153216213Y-107332961D01*
X153529067Y-107203692D01*
X153768638Y-106964539D01*
X153898453Y-106651911D01*
X153898713Y-106353991D01*
X154164053Y-106244354D01*
X154403624Y-106005201D01*
X154533439Y-105692573D01*
X154533734Y-105354064D01*
X154457036Y-105168439D01*
X155149010Y-105168439D01*
X155278279Y-105481293D01*
X155517432Y-105720864D01*
X155830060Y-105850679D01*
X156168569Y-105850974D01*
X156481423Y-105721705D01*
X156720994Y-105482552D01*
X156720995Y-105482551D01*
X156850810Y-105169923D01*
X156851105Y-104831414D01*
X156721836Y-104518560D01*
X156482683Y-104278989D01*
X156170055Y-104149174D01*
X155831546Y-104148879D01*
X155518692Y-104278148D01*
X155518691Y-104278149D01*
X155279120Y-104517302D01*
X155149305Y-104829930D01*
X155149010Y-105168439D01*
X154457036Y-105168439D01*
X154404465Y-105041210D01*
X154165312Y-104801639D01*
X153852684Y-104671824D01*
X153514175Y-104671529D01*
X153201321Y-104800798D01*
X152961750Y-105039951D01*
X152831935Y-105352579D01*
X152831675Y-105650499D01*
X152566335Y-105760136D01*
X152515334Y-105811048D01*
X152515534Y-105581834D01*
X152386265Y-105268980D01*
X152147112Y-105029409D01*
X151834484Y-104899594D01*
X151495975Y-104899299D01*
X151183121Y-105028568D01*
X150943550Y-105267721D01*
X150813735Y-105580349D01*
X150813440Y-105918858D01*
X146121741Y-105918858D01*
X146000258Y-105624849D01*
X145761105Y-105385278D01*
X145539376Y-105293208D01*
X145575525Y-105206151D01*
X145575820Y-104867642D01*
X145446551Y-104554788D01*
X145207398Y-104315217D01*
X145094921Y-104268512D01*
X150148953Y-104268512D01*
X150278222Y-104581366D01*
X150517375Y-104820937D01*
X150830003Y-104950752D01*
X151168512Y-104951047D01*
X151481366Y-104821778D01*
X151720937Y-104582625D01*
X151850752Y-104269997D01*
X151851047Y-103931488D01*
X151721778Y-103618634D01*
X151633625Y-103530326D01*
X154348173Y-103530326D01*
X154477442Y-103843180D01*
X154716595Y-104082751D01*
X155029223Y-104212566D01*
X155367732Y-104212861D01*
X155680586Y-104083592D01*
X155920157Y-103844439D01*
X156049972Y-103531811D01*
X156050267Y-103193302D01*
X155978082Y-103018601D01*
X155987743Y-103008956D01*
X156117558Y-102696328D01*
X156117853Y-102357819D01*
X155988584Y-102044965D01*
X155749431Y-101805394D01*
X155436803Y-101675579D01*
X155098294Y-101675284D01*
X154785440Y-101804553D01*
X154545869Y-102043706D01*
X154416054Y-102356334D01*
X154415759Y-102694843D01*
X154487944Y-102869544D01*
X154478283Y-102879189D01*
X154348468Y-103191817D01*
X154348173Y-103530326D01*
X151633625Y-103530326D01*
X151482625Y-103379063D01*
X151169997Y-103249248D01*
X150831488Y-103248953D01*
X150518634Y-103378222D01*
X150279063Y-103617375D01*
X150149248Y-103930003D01*
X150148953Y-104268512D01*
X145094921Y-104268512D01*
X144894770Y-104185402D01*
X144556261Y-104185107D01*
X144243407Y-104314376D01*
X144003836Y-104553529D01*
X143874021Y-104866157D01*
X143873726Y-105204666D01*
X140544336Y-105204666D01*
X140492119Y-105078293D01*
X140252966Y-104838722D01*
X139940338Y-104708907D01*
X139601829Y-104708612D01*
X139288975Y-104837881D01*
X139049404Y-105077034D01*
X138919589Y-105389662D01*
X138919294Y-105728171D01*
X137526595Y-105728171D01*
X137550752Y-105669997D01*
X137551047Y-105331488D01*
X137421778Y-105018634D01*
X137182625Y-104779063D01*
X136869997Y-104649248D01*
X136531488Y-104648953D01*
X136218634Y-104778222D01*
X135979063Y-105017375D01*
X135849248Y-105330003D01*
X135848953Y-105668512D01*
X130583000Y-105668512D01*
X130583000Y-103518512D01*
X132748953Y-103518512D01*
X132878222Y-103831366D01*
X133117375Y-104070937D01*
X133430003Y-104200752D01*
X133768512Y-104201047D01*
X134081366Y-104071778D01*
X134320937Y-103832625D01*
X134404724Y-103630843D01*
X140079535Y-103630843D01*
X140208804Y-103943697D01*
X140447957Y-104183268D01*
X140760585Y-104313083D01*
X141099094Y-104313378D01*
X141411948Y-104184109D01*
X141651519Y-103944956D01*
X141781334Y-103632328D01*
X141781393Y-103563824D01*
X144748772Y-103563824D01*
X144878041Y-103876678D01*
X145117194Y-104116249D01*
X145429822Y-104246064D01*
X145768331Y-104246359D01*
X146081185Y-104117090D01*
X146320756Y-103877937D01*
X146450571Y-103565309D01*
X146450866Y-103226800D01*
X146321597Y-102913946D01*
X146082444Y-102674375D01*
X145769816Y-102544560D01*
X145431307Y-102544265D01*
X145118453Y-102673534D01*
X144878882Y-102912687D01*
X144749067Y-103225315D01*
X144748772Y-103563824D01*
X141781393Y-103563824D01*
X141781629Y-103293819D01*
X141652360Y-102980965D01*
X141413207Y-102741394D01*
X141100579Y-102611579D01*
X140762070Y-102611284D01*
X140449216Y-102740553D01*
X140209645Y-102979706D01*
X140079830Y-103292334D01*
X140079535Y-103630843D01*
X134404724Y-103630843D01*
X134450752Y-103519997D01*
X134451047Y-103181488D01*
X134321778Y-102868634D01*
X134082625Y-102629063D01*
X133816390Y-102518512D01*
X147548953Y-102518512D01*
X147678222Y-102831366D01*
X147917375Y-103070937D01*
X148230003Y-103200752D01*
X148568512Y-103201047D01*
X148881366Y-103071778D01*
X149120937Y-102832625D01*
X149250752Y-102519997D01*
X149251047Y-102181488D01*
X149226018Y-102120912D01*
X149326975Y-102020131D01*
X149456790Y-101707503D01*
X149457085Y-101368994D01*
X149413863Y-101264387D01*
X151044828Y-101264387D01*
X151174097Y-101577241D01*
X151413250Y-101816812D01*
X151725878Y-101946627D01*
X152064387Y-101946922D01*
X152377241Y-101817653D01*
X152616812Y-101578500D01*
X152697761Y-101383554D01*
X152980003Y-101500752D01*
X153318512Y-101501047D01*
X153631366Y-101371778D01*
X153870937Y-101132625D01*
X154000752Y-100819997D01*
X154001047Y-100481488D01*
X154000499Y-100480162D01*
X154249695Y-100480379D01*
X154562549Y-100351110D01*
X154673821Y-100240032D01*
X161259189Y-100240032D01*
X161388458Y-100552886D01*
X161627611Y-100792457D01*
X161940239Y-100922272D01*
X162278748Y-100922567D01*
X162528108Y-100819533D01*
X162629611Y-100921213D01*
X162942239Y-101051028D01*
X163133121Y-101051194D01*
X163057728Y-101232760D01*
X163057433Y-101571269D01*
X163186702Y-101884123D01*
X163425855Y-102123694D01*
X163738483Y-102253509D01*
X164076992Y-102253804D01*
X164389846Y-102124535D01*
X164629417Y-101885382D01*
X164759232Y-101572754D01*
X164759527Y-101234245D01*
X164630258Y-100921391D01*
X164592502Y-100883569D01*
X164660857Y-100815334D01*
X164790672Y-100502706D01*
X164790967Y-100164197D01*
X164661698Y-99851343D01*
X164422545Y-99611772D01*
X164109917Y-99481957D01*
X163771408Y-99481662D01*
X163648058Y-99532629D01*
X163594861Y-99479339D01*
X163282233Y-99349524D01*
X162943724Y-99349229D01*
X162694364Y-99452263D01*
X162592861Y-99350583D01*
X162280233Y-99220768D01*
X161941724Y-99220473D01*
X161628870Y-99349742D01*
X161389299Y-99588895D01*
X161259484Y-99901523D01*
X161259189Y-100240032D01*
X154673821Y-100240032D01*
X154802120Y-100111957D01*
X154855899Y-99982443D01*
X154968404Y-100095145D01*
X155281032Y-100224960D01*
X155619541Y-100225255D01*
X155932395Y-100095986D01*
X156171966Y-99856833D01*
X156301781Y-99544205D01*
X156302076Y-99205696D01*
X156286712Y-99168512D01*
X156698953Y-99168512D01*
X156828222Y-99481366D01*
X157067375Y-99720937D01*
X157380003Y-99850752D01*
X157718512Y-99851047D01*
X158031366Y-99721778D01*
X158149952Y-99603399D01*
X158217373Y-99670937D01*
X158530001Y-99800752D01*
X158868510Y-99801047D01*
X159181364Y-99671778D01*
X159420935Y-99432625D01*
X159550750Y-99119997D01*
X159551045Y-98781488D01*
X159421776Y-98468634D01*
X159182623Y-98229063D01*
X158869995Y-98099248D01*
X158531486Y-98098953D01*
X158218632Y-98228222D01*
X158100046Y-98346601D01*
X158032625Y-98279063D01*
X157719997Y-98149248D01*
X157381488Y-98148953D01*
X157068634Y-98278222D01*
X156829063Y-98517375D01*
X156699248Y-98830003D01*
X156698953Y-99168512D01*
X156286712Y-99168512D01*
X156172807Y-98892842D01*
X155933654Y-98653271D01*
X155621026Y-98523456D01*
X155282517Y-98523161D01*
X154969663Y-98652430D01*
X154730092Y-98891583D01*
X154676313Y-99021097D01*
X154563808Y-98908395D01*
X154251180Y-98778580D01*
X153912671Y-98778285D01*
X153599817Y-98907554D01*
X153360246Y-99146707D01*
X153230431Y-99459335D01*
X153230136Y-99797844D01*
X153230684Y-99799170D01*
X152981488Y-99798953D01*
X152668634Y-99928222D01*
X152429063Y-100167375D01*
X152348114Y-100362321D01*
X152065872Y-100245123D01*
X151727363Y-100244828D01*
X151414509Y-100374097D01*
X151174938Y-100613250D01*
X151045123Y-100925878D01*
X151044828Y-101264387D01*
X149413863Y-101264387D01*
X149327816Y-101056140D01*
X149088663Y-100816569D01*
X148776035Y-100686754D01*
X148437526Y-100686459D01*
X148124672Y-100815728D01*
X147885101Y-101054881D01*
X147755286Y-101367509D01*
X147754991Y-101706018D01*
X147780020Y-101766594D01*
X147679063Y-101867375D01*
X147549248Y-102180003D01*
X147548953Y-102518512D01*
X133816390Y-102518512D01*
X133769997Y-102499248D01*
X133431488Y-102498953D01*
X133118634Y-102628222D01*
X132879063Y-102867375D01*
X132749248Y-103180003D01*
X132748953Y-103518512D01*
X130583000Y-103518512D01*
X130583000Y-100821284D01*
X137267813Y-100821284D01*
X137397082Y-101134138D01*
X137636235Y-101373709D01*
X137948863Y-101503524D01*
X138287372Y-101503819D01*
X138600226Y-101374550D01*
X138839797Y-101135397D01*
X138865623Y-101073200D01*
X139664626Y-101073200D01*
X139793895Y-101386054D01*
X140033048Y-101625625D01*
X140345676Y-101755440D01*
X140684185Y-101755735D01*
X140997039Y-101626466D01*
X141236610Y-101387313D01*
X141249420Y-101356463D01*
X141421274Y-101356613D01*
X141734128Y-101227344D01*
X141973699Y-100988191D01*
X142103514Y-100675563D01*
X142103809Y-100337054D01*
X142004532Y-100096785D01*
X142342863Y-100097080D01*
X142655717Y-99967811D01*
X142895288Y-99728658D01*
X143025103Y-99416030D01*
X143025398Y-99077521D01*
X142896129Y-98764667D01*
X142656976Y-98525096D01*
X142344348Y-98395281D01*
X142005839Y-98394986D01*
X141692985Y-98524255D01*
X141453414Y-98763408D01*
X141323599Y-99076036D01*
X141323304Y-99414545D01*
X141422581Y-99654814D01*
X141084250Y-99654519D01*
X140771396Y-99783788D01*
X140531825Y-100022941D01*
X140519015Y-100053791D01*
X140347161Y-100053641D01*
X140034307Y-100182910D01*
X139794736Y-100422063D01*
X139664921Y-100734691D01*
X139664626Y-101073200D01*
X138865623Y-101073200D01*
X138969612Y-100822769D01*
X138969907Y-100484260D01*
X138840638Y-100171406D01*
X138601485Y-99931835D01*
X138288857Y-99802020D01*
X137950348Y-99801725D01*
X137637494Y-99930994D01*
X137397923Y-100170147D01*
X137268108Y-100482775D01*
X137267813Y-100821284D01*
X130583000Y-100821284D01*
X130583000Y-97918512D01*
X137298953Y-97918512D01*
X137428222Y-98231366D01*
X137667375Y-98470937D01*
X137980003Y-98600752D01*
X138318512Y-98601047D01*
X138631366Y-98471778D01*
X138870937Y-98232625D01*
X139000752Y-97919997D01*
X139001047Y-97581488D01*
X138975909Y-97520650D01*
X139100752Y-97219997D01*
X139100800Y-97164396D01*
X140544819Y-97164396D01*
X140674088Y-97477250D01*
X140913241Y-97716821D01*
X141225869Y-97846636D01*
X141564378Y-97846931D01*
X141877232Y-97717662D01*
X142116803Y-97478509D01*
X142213480Y-97245687D01*
X142228222Y-97281366D01*
X142467375Y-97520937D01*
X142780003Y-97650752D01*
X143118512Y-97651047D01*
X143431366Y-97521778D01*
X143670937Y-97282625D01*
X143676797Y-97268512D01*
X160798953Y-97268512D01*
X160928222Y-97581366D01*
X161167375Y-97820937D01*
X161480003Y-97950752D01*
X161818512Y-97951047D01*
X162131366Y-97821778D01*
X162370937Y-97582625D01*
X162500752Y-97269997D01*
X162501047Y-96931488D01*
X162371778Y-96618634D01*
X162132625Y-96379063D01*
X161819997Y-96249248D01*
X161481488Y-96248953D01*
X161168634Y-96378222D01*
X160929063Y-96617375D01*
X160799248Y-96930003D01*
X160798953Y-97268512D01*
X143676797Y-97268512D01*
X143800752Y-96969997D01*
X143801047Y-96631488D01*
X143671778Y-96318634D01*
X143432625Y-96079063D01*
X143119997Y-95949248D01*
X142781488Y-95948953D01*
X142468634Y-96078222D01*
X142229063Y-96317375D01*
X142132386Y-96550197D01*
X142117644Y-96514518D01*
X141878491Y-96274947D01*
X141565863Y-96145132D01*
X141227354Y-96144837D01*
X140914500Y-96274106D01*
X140674929Y-96513259D01*
X140545114Y-96825887D01*
X140544819Y-97164396D01*
X139100800Y-97164396D01*
X139101047Y-96881488D01*
X138971778Y-96568634D01*
X138732625Y-96329063D01*
X138419997Y-96199248D01*
X138081488Y-96198953D01*
X137768634Y-96328222D01*
X137529063Y-96567375D01*
X137399248Y-96880003D01*
X137398953Y-97218512D01*
X137424091Y-97279350D01*
X137299248Y-97580003D01*
X137298953Y-97918512D01*
X130583000Y-97918512D01*
X130583000Y-93147664D01*
X130741652Y-93147664D01*
X131046708Y-93885955D01*
X131611074Y-94451307D01*
X132348832Y-94757651D01*
X133147664Y-94758348D01*
X133885955Y-94453292D01*
X134451307Y-93888926D01*
X134480545Y-93818512D01*
X153098953Y-93818512D01*
X153228222Y-94131366D01*
X153467375Y-94370937D01*
X153780003Y-94500752D01*
X154118512Y-94501047D01*
X154431366Y-94371778D01*
X154670937Y-94132625D01*
X154800752Y-93819997D01*
X154800884Y-93668512D01*
X156598953Y-93668512D01*
X156728222Y-93981366D01*
X156967375Y-94220937D01*
X157280003Y-94350752D01*
X157618512Y-94351047D01*
X157931366Y-94221778D01*
X158170937Y-93982625D01*
X158300752Y-93669997D01*
X158301047Y-93331488D01*
X158225093Y-93147664D01*
X161241652Y-93147664D01*
X161546708Y-93885955D01*
X162111074Y-94451307D01*
X162848832Y-94757651D01*
X163647664Y-94758348D01*
X164385955Y-94453292D01*
X164951307Y-93888926D01*
X165257651Y-93151168D01*
X165258348Y-92352336D01*
X164953292Y-91614045D01*
X164388926Y-91048693D01*
X163651168Y-90742349D01*
X162852336Y-90741652D01*
X162114045Y-91046708D01*
X161548693Y-91611074D01*
X161242349Y-92348832D01*
X161241652Y-93147664D01*
X158225093Y-93147664D01*
X158171778Y-93018634D01*
X157932625Y-92779063D01*
X157619997Y-92649248D01*
X157281488Y-92648953D01*
X156968634Y-92778222D01*
X156729063Y-93017375D01*
X156599248Y-93330003D01*
X156598953Y-93668512D01*
X154800884Y-93668512D01*
X154801047Y-93481488D01*
X154671778Y-93168634D01*
X154432625Y-92929063D01*
X154119997Y-92799248D01*
X153781488Y-92798953D01*
X153468634Y-92928222D01*
X153229063Y-93167375D01*
X153099248Y-93480003D01*
X153098953Y-93818512D01*
X134480545Y-93818512D01*
X134757651Y-93151168D01*
X134758348Y-92352336D01*
X134453292Y-91614045D01*
X133888926Y-91048693D01*
X133151168Y-90742349D01*
X132352336Y-90741652D01*
X131614045Y-91046708D01*
X131048693Y-91611074D01*
X130742349Y-92348832D01*
X130741652Y-93147664D01*
X130583000Y-93147664D01*
X130583000Y-92807422D01*
X130758505Y-91925096D01*
X131225777Y-91225775D01*
X131925095Y-90758505D01*
X132807421Y-90583000D01*
X138017107Y-90583000D01*
X137891778Y-90708110D01*
M02*
