G04 #@! TF.FileFunction,Legend,Top*
%FSLAX46Y46*%
G04 Gerber Fmt 4.6, Leading zero omitted, Abs format (unit mm)*
G04 Created by KiCad (PCBNEW 4.0.1-stable) date Monday, March 07, 2016 'PMt' 11:58:59 PM*
%MOMM*%
G01*
G04 APERTURE LIST*
%ADD10C,0.100000*%
%ADD11C,0.200000*%
%ADD12C,0.150000*%
%ADD13C,0.175000*%
%ADD14C,0.300000*%
%ADD15C,0.254000*%
%ADD16C,0.010000*%
G04 APERTURE END LIST*
D10*
D11*
X137024264Y-100600000D02*
G75*
G03X137024264Y-100600000I-424264J0D01*
G01*
D12*
X157209048Y-117512381D02*
X157828096Y-117512381D01*
X157494762Y-117893333D01*
X157637620Y-117893333D01*
X157732858Y-117940952D01*
X157780477Y-117988571D01*
X157828096Y-118083810D01*
X157828096Y-118321905D01*
X157780477Y-118417143D01*
X157732858Y-118464762D01*
X157637620Y-118512381D01*
X157351905Y-118512381D01*
X157256667Y-118464762D01*
X157209048Y-118417143D01*
X158256667Y-118417143D02*
X158304286Y-118464762D01*
X158256667Y-118512381D01*
X158209048Y-118464762D01*
X158256667Y-118417143D01*
X158256667Y-118512381D01*
X159209048Y-117512381D02*
X158732857Y-117512381D01*
X158685238Y-117988571D01*
X158732857Y-117940952D01*
X158828095Y-117893333D01*
X159066191Y-117893333D01*
X159161429Y-117940952D01*
X159209048Y-117988571D01*
X159256667Y-118083810D01*
X159256667Y-118321905D01*
X159209048Y-118417143D01*
X159161429Y-118464762D01*
X159066191Y-118512381D01*
X158828095Y-118512381D01*
X158732857Y-118464762D01*
X158685238Y-118417143D01*
X159685238Y-118512381D02*
X159685238Y-117845714D01*
X159685238Y-117940952D02*
X159732857Y-117893333D01*
X159828095Y-117845714D01*
X159970953Y-117845714D01*
X160066191Y-117893333D01*
X160113810Y-117988571D01*
X160113810Y-118512381D01*
X160113810Y-117988571D02*
X160161429Y-117893333D01*
X160256667Y-117845714D01*
X160399524Y-117845714D01*
X160494762Y-117893333D01*
X160542381Y-117988571D01*
X160542381Y-118512381D01*
X161018571Y-118512381D02*
X161018571Y-117845714D01*
X161018571Y-117940952D02*
X161066190Y-117893333D01*
X161161428Y-117845714D01*
X161304286Y-117845714D01*
X161399524Y-117893333D01*
X161447143Y-117988571D01*
X161447143Y-118512381D01*
X161447143Y-117988571D02*
X161494762Y-117893333D01*
X161590000Y-117845714D01*
X161732857Y-117845714D01*
X161828095Y-117893333D01*
X161875714Y-117988571D01*
X161875714Y-118512381D01*
D13*
X161822381Y-98630476D02*
X161822381Y-99106667D01*
X162298571Y-99154286D01*
X162250952Y-99106667D01*
X162203333Y-99011429D01*
X162203333Y-98773333D01*
X162250952Y-98678095D01*
X162298571Y-98630476D01*
X162393810Y-98582857D01*
X162631905Y-98582857D01*
X162727143Y-98630476D01*
X162774762Y-98678095D01*
X162822381Y-98773333D01*
X162822381Y-99011429D01*
X162774762Y-99106667D01*
X162727143Y-99154286D01*
X161822381Y-98297143D02*
X162822381Y-97963810D01*
X161822381Y-97630476D01*
X138078095Y-93337619D02*
X137459047Y-93337619D01*
X137792381Y-92956667D01*
X137649523Y-92956667D01*
X137554285Y-92909048D01*
X137506666Y-92861429D01*
X137459047Y-92766190D01*
X137459047Y-92528095D01*
X137506666Y-92432857D01*
X137554285Y-92385238D01*
X137649523Y-92337619D01*
X137935238Y-92337619D01*
X138030476Y-92385238D01*
X138078095Y-92432857D01*
X137173333Y-93337619D02*
X136840000Y-92337619D01*
X136506666Y-93337619D01*
X136268571Y-93337619D02*
X135649523Y-93337619D01*
X135982857Y-92956667D01*
X135839999Y-92956667D01*
X135744761Y-92909048D01*
X135697142Y-92861429D01*
X135649523Y-92766190D01*
X135649523Y-92528095D01*
X135697142Y-92432857D01*
X135744761Y-92385238D01*
X135839999Y-92337619D01*
X136125714Y-92337619D01*
X136220952Y-92385238D01*
X136268571Y-92432857D01*
D14*
X139385715Y-119878571D02*
X139385715Y-120878571D01*
X139028572Y-119307143D02*
X138671429Y-120378571D01*
X139600001Y-120378571D01*
X141050001Y-119428571D02*
X141978572Y-119428571D01*
X141478572Y-120000000D01*
X141692858Y-120000000D01*
X141835715Y-120071429D01*
X141907144Y-120142857D01*
X141978572Y-120285714D01*
X141978572Y-120642857D01*
X141907144Y-120785714D01*
X141835715Y-120857143D01*
X141692858Y-120928571D01*
X141264286Y-120928571D01*
X141121429Y-120857143D01*
X141050001Y-120785714D01*
X143721429Y-119571429D02*
X143792858Y-119500000D01*
X143935715Y-119428571D01*
X144292858Y-119428571D01*
X144435715Y-119500000D01*
X144507144Y-119571429D01*
X144578572Y-119714286D01*
X144578572Y-119857143D01*
X144507144Y-120071429D01*
X143650001Y-120928571D01*
X144578572Y-120928571D01*
X147078572Y-120928571D02*
X146221429Y-120928571D01*
X146650001Y-120928571D02*
X146650001Y-119428571D01*
X146507144Y-119642857D01*
X146364286Y-119785714D01*
X146221429Y-119857143D01*
D12*
X135738096Y-124500000D02*
X135642858Y-124452381D01*
X135500001Y-124452381D01*
X135357143Y-124500000D01*
X135261905Y-124595238D01*
X135214286Y-124690476D01*
X135166667Y-124880952D01*
X135166667Y-125023810D01*
X135214286Y-125214286D01*
X135261905Y-125309524D01*
X135357143Y-125404762D01*
X135500001Y-125452381D01*
X135595239Y-125452381D01*
X135738096Y-125404762D01*
X135785715Y-125357143D01*
X135785715Y-125023810D01*
X135595239Y-125023810D01*
X136214286Y-125452381D02*
X136214286Y-124452381D01*
X136785715Y-125452381D01*
X136785715Y-124452381D01*
X137261905Y-125452381D02*
X137261905Y-124452381D01*
X137500000Y-124452381D01*
X137642858Y-124500000D01*
X137738096Y-124595238D01*
X137785715Y-124690476D01*
X137833334Y-124880952D01*
X137833334Y-125023810D01*
X137785715Y-125214286D01*
X137738096Y-125309524D01*
X137642858Y-125404762D01*
X137500000Y-125452381D01*
X137261905Y-125452381D01*
X135676191Y-122904762D02*
X135819048Y-122952381D01*
X136057144Y-122952381D01*
X136152382Y-122904762D01*
X136200001Y-122857143D01*
X136247620Y-122761905D01*
X136247620Y-122666667D01*
X136200001Y-122571429D01*
X136152382Y-122523810D01*
X136057144Y-122476190D01*
X135866667Y-122428571D01*
X135771429Y-122380952D01*
X135723810Y-122333333D01*
X135676191Y-122238095D01*
X135676191Y-122142857D01*
X135723810Y-122047619D01*
X135771429Y-122000000D01*
X135866667Y-121952381D01*
X136104763Y-121952381D01*
X136247620Y-122000000D01*
X136676191Y-122952381D02*
X136676191Y-121952381D01*
X137676191Y-122000000D02*
X137580953Y-121952381D01*
X137438096Y-121952381D01*
X137295238Y-122000000D01*
X137200000Y-122095238D01*
X137152381Y-122190476D01*
X137104762Y-122380952D01*
X137104762Y-122523810D01*
X137152381Y-122714286D01*
X137200000Y-122809524D01*
X137295238Y-122904762D01*
X137438096Y-122952381D01*
X137533334Y-122952381D01*
X137676191Y-122904762D01*
X137723810Y-122857143D01*
X137723810Y-122523810D01*
X137533334Y-122523810D01*
X131178571Y-112757143D02*
X131178571Y-113090477D01*
X131702381Y-113090477D02*
X130702381Y-113090477D01*
X130702381Y-112614286D01*
X131702381Y-112233334D02*
X131035714Y-112233334D01*
X131226190Y-112233334D02*
X131130952Y-112185715D01*
X131083333Y-112138096D01*
X131035714Y-112042858D01*
X131035714Y-111947619D01*
X131702381Y-111471429D02*
X131654762Y-111566667D01*
X131607143Y-111614286D01*
X131511905Y-111661905D01*
X131226190Y-111661905D01*
X131130952Y-111614286D01*
X131083333Y-111566667D01*
X131035714Y-111471429D01*
X131035714Y-111328571D01*
X131083333Y-111233333D01*
X131130952Y-111185714D01*
X131226190Y-111138095D01*
X131511905Y-111138095D01*
X131607143Y-111185714D01*
X131654762Y-111233333D01*
X131702381Y-111328571D01*
X131702381Y-111471429D01*
X131035714Y-110709524D02*
X131702381Y-110709524D01*
X131130952Y-110709524D02*
X131083333Y-110661905D01*
X131035714Y-110566667D01*
X131035714Y-110423809D01*
X131083333Y-110328571D01*
X131178571Y-110280952D01*
X131702381Y-110280952D01*
X131035714Y-109947619D02*
X131035714Y-109566667D01*
X130702381Y-109804762D02*
X131559524Y-109804762D01*
X131654762Y-109757143D01*
X131702381Y-109661905D01*
X131702381Y-109566667D01*
D15*
X150503822Y-102260400D02*
G75*
G03X150503822Y-102260400I-694622J0D01*
G01*
D14*
X165307143Y-116450000D02*
X165378571Y-116592857D01*
X165378571Y-116878571D01*
X165307143Y-117021429D01*
X165235714Y-117092857D01*
X165092857Y-117164286D01*
X164664286Y-117164286D01*
X164521429Y-117092857D01*
X164450000Y-117021429D01*
X164378571Y-116878571D01*
X164378571Y-116592857D01*
X164450000Y-116450000D01*
X165378571Y-115807143D02*
X163878571Y-115807143D01*
X164807143Y-115664286D02*
X165378571Y-115235715D01*
X164378571Y-115235715D02*
X164950000Y-115807143D01*
X165378571Y-113950000D02*
X163878571Y-113950000D01*
X165307143Y-113950000D02*
X165378571Y-114092857D01*
X165378571Y-114378571D01*
X165307143Y-114521429D01*
X165235714Y-114592857D01*
X165092857Y-114664286D01*
X164664286Y-114664286D01*
X164521429Y-114592857D01*
X164450000Y-114521429D01*
X164378571Y-114378571D01*
X164378571Y-114092857D01*
X164450000Y-113950000D01*
X165235714Y-113235714D02*
X165307143Y-113164286D01*
X165378571Y-113235714D01*
X165307143Y-113307143D01*
X165235714Y-113235714D01*
X165378571Y-113235714D01*
X164378571Y-112735714D02*
X164378571Y-112164285D01*
X163878571Y-112521428D02*
X165164286Y-112521428D01*
X165307143Y-112450000D01*
X165378571Y-112307142D01*
X165378571Y-112164285D01*
X165307143Y-111092857D02*
X165378571Y-111235714D01*
X165378571Y-111521428D01*
X165307143Y-111664285D01*
X165164286Y-111735714D01*
X164592857Y-111735714D01*
X164450000Y-111664285D01*
X164378571Y-111521428D01*
X164378571Y-111235714D01*
X164450000Y-111092857D01*
X164592857Y-111021428D01*
X164735714Y-111021428D01*
X164878571Y-111735714D01*
X165307143Y-109735714D02*
X165378571Y-109878571D01*
X165378571Y-110164285D01*
X165307143Y-110307143D01*
X165235714Y-110378571D01*
X165092857Y-110450000D01*
X164664286Y-110450000D01*
X164521429Y-110378571D01*
X164450000Y-110307143D01*
X164378571Y-110164285D01*
X164378571Y-109878571D01*
X164450000Y-109735714D01*
X165378571Y-109092857D02*
X163878571Y-109092857D01*
X165378571Y-108450000D02*
X164592857Y-108450000D01*
X164450000Y-108521429D01*
X164378571Y-108664286D01*
X164378571Y-108878571D01*
X164450000Y-109021429D01*
X164521429Y-109092857D01*
X163807143Y-106664286D02*
X165735714Y-107950000D01*
X164378571Y-106378571D02*
X164378571Y-105807142D01*
X165378571Y-106164285D02*
X164092857Y-106164285D01*
X163950000Y-106092857D01*
X163878571Y-105949999D01*
X163878571Y-105807142D01*
X163878571Y-105449999D02*
X163878571Y-104521428D01*
X164450000Y-105021428D01*
X164450000Y-104807142D01*
X164521429Y-104664285D01*
X164592857Y-104592856D01*
X164735714Y-104521428D01*
X165092857Y-104521428D01*
X165235714Y-104592856D01*
X165307143Y-104664285D01*
X165378571Y-104807142D01*
X165378571Y-105235714D01*
X165307143Y-105378571D01*
X165235714Y-105449999D01*
X164378571Y-104092857D02*
X164378571Y-103521428D01*
X165378571Y-103878571D02*
X164092857Y-103878571D01*
X163950000Y-103807143D01*
X163878571Y-103664285D01*
X163878571Y-103521428D01*
X165307143Y-102378571D02*
X165378571Y-102521428D01*
X165378571Y-102807142D01*
X165307143Y-102950000D01*
X165235714Y-103021428D01*
X165092857Y-103092857D01*
X164664286Y-103092857D01*
X164521429Y-103021428D01*
X164450000Y-102950000D01*
X164378571Y-102807142D01*
X164378571Y-102521428D01*
X164450000Y-102378571D01*
X163807143Y-100664286D02*
X165735714Y-101950000D01*
X164378571Y-100307142D02*
X165378571Y-99949999D01*
X164378571Y-99592857D01*
X163878571Y-99164285D02*
X163878571Y-98164285D01*
X165378571Y-98807142D01*
D12*
X153016667Y-93552381D02*
X153635715Y-93552381D01*
X153302381Y-93933333D01*
X153445239Y-93933333D01*
X153540477Y-93980952D01*
X153588096Y-94028571D01*
X153635715Y-94123810D01*
X153635715Y-94361905D01*
X153588096Y-94457143D01*
X153540477Y-94504762D01*
X153445239Y-94552381D01*
X153159524Y-94552381D01*
X153064286Y-94504762D01*
X153016667Y-94457143D01*
X150864286Y-93647619D02*
X150911905Y-93600000D01*
X151007143Y-93552381D01*
X151245239Y-93552381D01*
X151340477Y-93600000D01*
X151388096Y-93647619D01*
X151435715Y-93742857D01*
X151435715Y-93838095D01*
X151388096Y-93980952D01*
X150816667Y-94552381D01*
X151435715Y-94552381D01*
X149385715Y-94552381D02*
X148814286Y-94552381D01*
X149100000Y-94552381D02*
X149100000Y-93552381D01*
X149004762Y-93695238D01*
X148909524Y-93790476D01*
X148814286Y-93838095D01*
X148475000Y-124350000D02*
X148475000Y-123350000D01*
X149825000Y-123350000D02*
X149825000Y-124350000D01*
X148625000Y-102925000D02*
X147865000Y-102925000D01*
X148625000Y-117175000D02*
X147865000Y-117175000D01*
X134375000Y-117175000D02*
X135135000Y-117175000D01*
X134375000Y-102925000D02*
X135135000Y-102925000D01*
X148625000Y-102925000D02*
X148625000Y-103685000D01*
X134375000Y-102925000D02*
X134375000Y-103685000D01*
X134375000Y-117175000D02*
X134375000Y-116415000D01*
X148625000Y-117175000D02*
X148625000Y-116415000D01*
X147865000Y-102925000D02*
X147865000Y-101400000D01*
X139360000Y-100750000D02*
X138660000Y-100750000D01*
X138660000Y-99550000D02*
X139360000Y-99550000D01*
X151010000Y-103960000D02*
X151010000Y-103260000D01*
X152210000Y-103260000D02*
X152210000Y-103960000D01*
X131800000Y-105150000D02*
X131800000Y-105850000D01*
X130600000Y-105850000D02*
X130600000Y-105150000D01*
X130650000Y-116400000D02*
X130650000Y-115700000D01*
X131850000Y-115700000D02*
X131850000Y-116400000D01*
X149660000Y-117540000D02*
X150360000Y-117540000D01*
X150360000Y-118740000D02*
X149660000Y-118740000D01*
X155670000Y-93240000D02*
X155670000Y-93940000D01*
X154470000Y-93940000D02*
X154470000Y-93240000D01*
X153850000Y-92949300D02*
X153850000Y-91049300D01*
X152750000Y-92949300D02*
X152750000Y-91049300D01*
X153300000Y-92049300D02*
X153300000Y-91599300D01*
X153050000Y-92099300D02*
X153550000Y-92099300D01*
X153300000Y-92099300D02*
X153050000Y-91849300D01*
X153050000Y-91849300D02*
X153550000Y-91849300D01*
X153550000Y-91849300D02*
X153300000Y-92099300D01*
X151700000Y-92949300D02*
X151700000Y-91049300D01*
X150600000Y-92949300D02*
X150600000Y-91049300D01*
X151150000Y-92049300D02*
X151150000Y-91599300D01*
X150900000Y-92099300D02*
X151400000Y-92099300D01*
X151150000Y-92099300D02*
X150900000Y-91849300D01*
X150900000Y-91849300D02*
X151400000Y-91849300D01*
X151400000Y-91849300D02*
X151150000Y-92099300D01*
X149650000Y-92949300D02*
X149650000Y-91049300D01*
X148550000Y-92949300D02*
X148550000Y-91049300D01*
X149100000Y-92049300D02*
X149100000Y-91599300D01*
X148850000Y-92099300D02*
X149350000Y-92099300D01*
X149100000Y-92099300D02*
X148850000Y-91849300D01*
X148850000Y-91849300D02*
X149350000Y-91849300D01*
X149350000Y-91849300D02*
X149100000Y-92099300D01*
X154125000Y-96400000D02*
X154125000Y-97400000D01*
X152775000Y-97400000D02*
X152775000Y-96400000D01*
X151925000Y-96400000D02*
X151925000Y-97400000D01*
X150575000Y-97400000D02*
X150575000Y-96400000D01*
X149725000Y-96400000D02*
X149725000Y-97400000D01*
X148375000Y-97400000D02*
X148375000Y-96400000D01*
X142850000Y-93875000D02*
X141850000Y-93875000D01*
X141850000Y-92525000D02*
X142850000Y-92525000D01*
X157275000Y-124400000D02*
X157975000Y-124400000D01*
X157975000Y-125600000D02*
X157275000Y-125600000D01*
X153250000Y-124325000D02*
X154250000Y-124325000D01*
X154250000Y-125675000D02*
X153250000Y-125675000D01*
X155930000Y-93860000D02*
G75*
G03X155930000Y-93860000I-100000J0D01*
G01*
X156080000Y-93310000D02*
X156080000Y-93810000D01*
X158980000Y-93310000D02*
X156080000Y-93310000D01*
X158980000Y-93810000D02*
X158980000Y-93310000D01*
X156080000Y-93810000D02*
X158980000Y-93810000D01*
X156800000Y-97925000D02*
X158800000Y-97925000D01*
X158800000Y-95875000D02*
X156800000Y-95875000D01*
X139360000Y-99110000D02*
X138660000Y-99110000D01*
X138660000Y-97910000D02*
X139360000Y-97910000D01*
X131680000Y-101310000D02*
X132380000Y-101310000D01*
X132380000Y-102510000D02*
X131680000Y-102510000D01*
X138670000Y-94560000D02*
X139370000Y-94560000D01*
X139370000Y-95760000D02*
X138670000Y-95760000D01*
X131520000Y-98050000D02*
X131520000Y-98750000D01*
X130320000Y-98750000D02*
X130320000Y-98050000D01*
X132180000Y-100480000D02*
X132180000Y-99955000D01*
X136480000Y-96180000D02*
X136480000Y-96705000D01*
X132180000Y-96180000D02*
X132180000Y-96705000D01*
X136480000Y-100480000D02*
X135955000Y-100480000D01*
X136480000Y-96180000D02*
X135955000Y-96180000D01*
X132180000Y-96180000D02*
X132705000Y-96180000D01*
X132180000Y-100480000D02*
X132705000Y-100480000D01*
D16*
G36*
X139244710Y-109129742D02*
X139278065Y-109130711D01*
X139301653Y-109132228D01*
X139381789Y-109141955D01*
X139463758Y-109157253D01*
X139545701Y-109177681D01*
X139625758Y-109202796D01*
X139673541Y-109220493D01*
X139716347Y-109237482D01*
X139758596Y-109254539D01*
X139800667Y-109271839D01*
X139842939Y-109289558D01*
X139885789Y-109307874D01*
X139929595Y-109326961D01*
X139974736Y-109346995D01*
X140021589Y-109368154D01*
X140070533Y-109390612D01*
X140121945Y-109414546D01*
X140176204Y-109440132D01*
X140233687Y-109467546D01*
X140294774Y-109496964D01*
X140359841Y-109528562D01*
X140429268Y-109562517D01*
X140503431Y-109599003D01*
X140582710Y-109638198D01*
X140667481Y-109680277D01*
X140758124Y-109725417D01*
X140762153Y-109727426D01*
X140841946Y-109767125D01*
X140916001Y-109803758D01*
X140984816Y-109837553D01*
X141048891Y-109868740D01*
X141108725Y-109897551D01*
X141164817Y-109924213D01*
X141217666Y-109948957D01*
X141267772Y-109972014D01*
X141315634Y-109993612D01*
X141361750Y-110013982D01*
X141406621Y-110033354D01*
X141450745Y-110051956D01*
X141494621Y-110070021D01*
X141538749Y-110087776D01*
X141580598Y-110104269D01*
X141604243Y-110113530D01*
X141625881Y-110122058D01*
X141644594Y-110129487D01*
X141659464Y-110135450D01*
X141669573Y-110139583D01*
X141673972Y-110141501D01*
X141674988Y-110143865D01*
X141672632Y-110148645D01*
X141666411Y-110156483D01*
X141655837Y-110168023D01*
X141645750Y-110178474D01*
X141588555Y-110232600D01*
X141524755Y-110284757D01*
X141454551Y-110334846D01*
X141378140Y-110382769D01*
X141295723Y-110428425D01*
X141207498Y-110471717D01*
X141113665Y-110512546D01*
X141014422Y-110550812D01*
X140909969Y-110586417D01*
X140800504Y-110619262D01*
X140709236Y-110643540D01*
X140601653Y-110669136D01*
X140499570Y-110690398D01*
X140402918Y-110707325D01*
X140311629Y-110719916D01*
X140225636Y-110728170D01*
X140144870Y-110732088D01*
X140069264Y-110731668D01*
X139998748Y-110726910D01*
X139933256Y-110717814D01*
X139872719Y-110704378D01*
X139817069Y-110686602D01*
X139766237Y-110664486D01*
X139720157Y-110638029D01*
X139715283Y-110634792D01*
X139696567Y-110620712D01*
X139675977Y-110602815D01*
X139655462Y-110582989D01*
X139636975Y-110563121D01*
X139622467Y-110545098D01*
X139622249Y-110544796D01*
X139600643Y-110509690D01*
X139582364Y-110469925D01*
X139568068Y-110427369D01*
X139558407Y-110383891D01*
X139554563Y-110351322D01*
X139552125Y-110316075D01*
X139486861Y-110310151D01*
X139465600Y-110308247D01*
X139446304Y-110306565D01*
X139430259Y-110305215D01*
X139418751Y-110304305D01*
X139413228Y-110303947D01*
X139407499Y-110303127D01*
X139407862Y-110300173D01*
X139409700Y-110297780D01*
X139412206Y-110294046D01*
X139410247Y-110293062D01*
X139402652Y-110294302D01*
X139402195Y-110294395D01*
X139373402Y-110300018D01*
X139339443Y-110306305D01*
X139302141Y-110312942D01*
X139263316Y-110319618D01*
X139224791Y-110326019D01*
X139188388Y-110331832D01*
X139155929Y-110336745D01*
X139153486Y-110337100D01*
X139072912Y-110347996D01*
X138998021Y-110356419D01*
X138927880Y-110362343D01*
X138861555Y-110365744D01*
X138798112Y-110366596D01*
X138736617Y-110364874D01*
X138676137Y-110360552D01*
X138615738Y-110353606D01*
X138554486Y-110344011D01*
X138491447Y-110331741D01*
X138429022Y-110317576D01*
X138408781Y-110312551D01*
X138386071Y-110306658D01*
X138361883Y-110300181D01*
X138337209Y-110293404D01*
X138313040Y-110286608D01*
X138290368Y-110280079D01*
X138270185Y-110274099D01*
X138253483Y-110268952D01*
X138241254Y-110264921D01*
X138234488Y-110262289D01*
X138233566Y-110261724D01*
X138232791Y-110257976D01*
X138231361Y-110248155D01*
X138229385Y-110233201D01*
X138226971Y-110214055D01*
X138224230Y-110191658D01*
X138221271Y-110166950D01*
X138218203Y-110140871D01*
X138215135Y-110114363D01*
X138212177Y-110088366D01*
X138209438Y-110063821D01*
X138207027Y-110041668D01*
X138205053Y-110022848D01*
X138203626Y-110008301D01*
X138202856Y-109998969D01*
X138202750Y-109996513D01*
X138205981Y-109994892D01*
X138214738Y-109992314D01*
X138227621Y-109989158D01*
X138240674Y-109986320D01*
X138352843Y-109962094D01*
X138460877Y-109936570D01*
X138564350Y-109909870D01*
X138662836Y-109882119D01*
X138755907Y-109853443D01*
X138843136Y-109823966D01*
X138924097Y-109793812D01*
X138984873Y-109768941D01*
X139081354Y-109724433D01*
X139172826Y-109675507D01*
X139260180Y-109621614D01*
X139344308Y-109562202D01*
X139426008Y-109496801D01*
X139442297Y-109482731D01*
X139459777Y-109467209D01*
X139477670Y-109450973D01*
X139495197Y-109434760D01*
X139511580Y-109419307D01*
X139526041Y-109405349D01*
X139537800Y-109393625D01*
X139546080Y-109384870D01*
X139550101Y-109379822D01*
X139550361Y-109379115D01*
X139547110Y-109376617D01*
X139538072Y-109372803D01*
X139524325Y-109368001D01*
X139506944Y-109362535D01*
X139487005Y-109356732D01*
X139465586Y-109350917D01*
X139443761Y-109345417D01*
X139424184Y-109340901D01*
X139354960Y-109327922D01*
X139288054Y-109319990D01*
X139221839Y-109317067D01*
X139154685Y-109319115D01*
X139084963Y-109326096D01*
X139044493Y-109332096D01*
X138948180Y-109350856D01*
X138856411Y-109374807D01*
X138769248Y-109403917D01*
X138686756Y-109438158D01*
X138608996Y-109477499D01*
X138536032Y-109521909D01*
X138467926Y-109571359D01*
X138404742Y-109625818D01*
X138379139Y-109650731D01*
X138328494Y-109706095D01*
X138284450Y-109763280D01*
X138247101Y-109822148D01*
X138216539Y-109882560D01*
X138202795Y-109916028D01*
X138191307Y-109946432D01*
X138045263Y-110084996D01*
X138018489Y-110110468D01*
X137993372Y-110134499D01*
X137970360Y-110156652D01*
X137949900Y-110176490D01*
X137932438Y-110193575D01*
X137918421Y-110207472D01*
X137908298Y-110217742D01*
X137902514Y-110223950D01*
X137901302Y-110225690D01*
X137904842Y-110227513D01*
X137914198Y-110231927D01*
X137928740Y-110238645D01*
X137947842Y-110247381D01*
X137970876Y-110257849D01*
X137997212Y-110269763D01*
X138026225Y-110282837D01*
X138057286Y-110296784D01*
X138060834Y-110298375D01*
X138218283Y-110368931D01*
X138238397Y-110439486D01*
X138252426Y-110487561D01*
X138266124Y-110531940D01*
X138280476Y-110575693D01*
X138296469Y-110621894D01*
X138301638Y-110636422D01*
X138308304Y-110654496D01*
X138313501Y-110666977D01*
X138317837Y-110675013D01*
X138321920Y-110679755D01*
X138325801Y-110682121D01*
X138332334Y-110683374D01*
X138344938Y-110684399D01*
X138362632Y-110685198D01*
X138384436Y-110685771D01*
X138409368Y-110686120D01*
X138436448Y-110686246D01*
X138464694Y-110686150D01*
X138493127Y-110685833D01*
X138520765Y-110685297D01*
X138546627Y-110684542D01*
X138569733Y-110683570D01*
X138589101Y-110682382D01*
X138596098Y-110681800D01*
X138638615Y-110677639D01*
X138682437Y-110672920D01*
X138726678Y-110667767D01*
X138770449Y-110662304D01*
X138812864Y-110656654D01*
X138853037Y-110650940D01*
X138890079Y-110645287D01*
X138923105Y-110639818D01*
X138951228Y-110634657D01*
X138973560Y-110629927D01*
X138980625Y-110628196D01*
X139037051Y-110610188D01*
X139093259Y-110585555D01*
X139148619Y-110554716D01*
X139202503Y-110518088D01*
X139254283Y-110476091D01*
X139303331Y-110429142D01*
X139339231Y-110389419D01*
X139350382Y-110376365D01*
X139357812Y-110368129D01*
X139362317Y-110364108D01*
X139364696Y-110363703D01*
X139365744Y-110366312D01*
X139366076Y-110369177D01*
X139374928Y-110431029D01*
X139390125Y-110491195D01*
X139411367Y-110549025D01*
X139438355Y-110603868D01*
X139470792Y-110655075D01*
X139508378Y-110701994D01*
X139528870Y-110723506D01*
X139576020Y-110765375D01*
X139627880Y-110802239D01*
X139684477Y-110834103D01*
X139745836Y-110860972D01*
X139811984Y-110882847D01*
X139882947Y-110899735D01*
X139958750Y-110911639D01*
X140039419Y-110918562D01*
X140124981Y-110920510D01*
X140215460Y-110917486D01*
X140310884Y-110909493D01*
X140411277Y-110896537D01*
X140516666Y-110878621D01*
X140518736Y-110878229D01*
X140652040Y-110850715D01*
X140780610Y-110819678D01*
X140904222Y-110785198D01*
X141022650Y-110747354D01*
X141135672Y-110706225D01*
X141243063Y-110661891D01*
X141344597Y-110614429D01*
X141440052Y-110563920D01*
X141486556Y-110536871D01*
X141558432Y-110491622D01*
X141623929Y-110445957D01*
X141683722Y-110399299D01*
X141738486Y-110351071D01*
X141788895Y-110300694D01*
X141835624Y-110247593D01*
X141859292Y-110217935D01*
X141866348Y-110208793D01*
X141899885Y-110215455D01*
X142004889Y-110232936D01*
X142109330Y-110243496D01*
X142213815Y-110247171D01*
X142318949Y-110243997D01*
X142344361Y-110242219D01*
X142433685Y-110234517D01*
X142529546Y-110224773D01*
X142631740Y-110213024D01*
X142740062Y-110199304D01*
X142854307Y-110183649D01*
X142974270Y-110166094D01*
X143099745Y-110146676D01*
X143230528Y-110125428D01*
X143366414Y-110102388D01*
X143507197Y-110077589D01*
X143652673Y-110051068D01*
X143802636Y-110022860D01*
X143956882Y-109993000D01*
X144115205Y-109961525D01*
X144277401Y-109928468D01*
X144443264Y-109893866D01*
X144612589Y-109857754D01*
X144777083Y-109821946D01*
X144812540Y-109814219D01*
X144846328Y-109806982D01*
X144877744Y-109800378D01*
X144906082Y-109794550D01*
X144930639Y-109789638D01*
X144950711Y-109785785D01*
X144965595Y-109783134D01*
X144974586Y-109781825D01*
X144976402Y-109781710D01*
X145000853Y-109785325D01*
X145023020Y-109795489D01*
X145042465Y-109811940D01*
X145055298Y-109828714D01*
X145071220Y-109854601D01*
X145089408Y-109885862D01*
X145109273Y-109921421D01*
X145130229Y-109960199D01*
X145151687Y-110001119D01*
X145173058Y-110043103D01*
X145180724Y-110058486D01*
X145210533Y-110120291D01*
X145236152Y-110177008D01*
X145257736Y-110229113D01*
X145275437Y-110277077D01*
X145289410Y-110321376D01*
X145299807Y-110362481D01*
X145306783Y-110400868D01*
X145310490Y-110437009D01*
X145311223Y-110461017D01*
X145309855Y-110495658D01*
X145305603Y-110524824D01*
X145298245Y-110549574D01*
X145288407Y-110569576D01*
X145275372Y-110588408D01*
X145261151Y-110602507D01*
X145243422Y-110614103D01*
X145240516Y-110615661D01*
X145230170Y-110620668D01*
X145218802Y-110625256D01*
X145206049Y-110629454D01*
X145191542Y-110633295D01*
X145174918Y-110636806D01*
X145155811Y-110640019D01*
X145133854Y-110642964D01*
X145108682Y-110645671D01*
X145079929Y-110648170D01*
X145047230Y-110650491D01*
X145010219Y-110652664D01*
X144968530Y-110654720D01*
X144921798Y-110656689D01*
X144869657Y-110658601D01*
X144811742Y-110660486D01*
X144747685Y-110662374D01*
X144677123Y-110664296D01*
X144639181Y-110665282D01*
X144519555Y-110668512D01*
X144406447Y-110671915D01*
X144299322Y-110675525D01*
X144197645Y-110679372D01*
X144100878Y-110683490D01*
X144008487Y-110687910D01*
X143919937Y-110692664D01*
X143834690Y-110697786D01*
X143752212Y-110703306D01*
X143671967Y-110709258D01*
X143593420Y-110715673D01*
X143516033Y-110722583D01*
X143439273Y-110730022D01*
X143362603Y-110738020D01*
X143285487Y-110746611D01*
X143284514Y-110746723D01*
X143146765Y-110763667D01*
X143013516Y-110782414D01*
X142883549Y-110803216D01*
X142755649Y-110826325D01*
X142628599Y-110851993D01*
X142501181Y-110880474D01*
X142372181Y-110912018D01*
X142240381Y-110946880D01*
X142104564Y-110985310D01*
X142034101Y-111006143D01*
X142006987Y-111014416D01*
X141975101Y-111024394D01*
X141939282Y-111035799D01*
X141900367Y-111048350D01*
X141859195Y-111061768D01*
X141816606Y-111075772D01*
X141773438Y-111090082D01*
X141730530Y-111104419D01*
X141688720Y-111118503D01*
X141648847Y-111132054D01*
X141611751Y-111144791D01*
X141578268Y-111156436D01*
X141549239Y-111166707D01*
X141525502Y-111175326D01*
X141512325Y-111180287D01*
X141465900Y-111198714D01*
X141419052Y-111218455D01*
X141371172Y-111239814D01*
X141321650Y-111263099D01*
X141269877Y-111288614D01*
X141215244Y-111316665D01*
X141157142Y-111347558D01*
X141094962Y-111381598D01*
X141028093Y-111419091D01*
X140968528Y-111453090D01*
X140936877Y-111471282D01*
X140901373Y-111491686D01*
X140863969Y-111513181D01*
X140826618Y-111534643D01*
X140791271Y-111554953D01*
X140759882Y-111572987D01*
X140756861Y-111574722D01*
X140682151Y-111617228D01*
X140612611Y-111655860D01*
X140547666Y-111690832D01*
X140486738Y-111722361D01*
X140429249Y-111750662D01*
X140374623Y-111775950D01*
X140322282Y-111798442D01*
X140271649Y-111818353D01*
X140222146Y-111835898D01*
X140173197Y-111851294D01*
X140124224Y-111864755D01*
X140074649Y-111876498D01*
X140023896Y-111886738D01*
X139971387Y-111895691D01*
X139916545Y-111903573D01*
X139858792Y-111910598D01*
X139857278Y-111910768D01*
X139838693Y-111912405D01*
X139814406Y-111913872D01*
X139785621Y-111915152D01*
X139753537Y-111916227D01*
X139719357Y-111917078D01*
X139684282Y-111917688D01*
X139649513Y-111918037D01*
X139616253Y-111918108D01*
X139585702Y-111917882D01*
X139559062Y-111917342D01*
X139537534Y-111916469D01*
X139527431Y-111915766D01*
X139431437Y-111904796D01*
X139338591Y-111888944D01*
X139249357Y-111868340D01*
X139164199Y-111843112D01*
X139083580Y-111813390D01*
X139007963Y-111779303D01*
X138973570Y-111761423D01*
X138889499Y-111711747D01*
X138808006Y-111655614D01*
X138729071Y-111593003D01*
X138652676Y-111523893D01*
X138578800Y-111448264D01*
X138507424Y-111366095D01*
X138438528Y-111277366D01*
X138372092Y-111182057D01*
X138308098Y-111080145D01*
X138284143Y-111039208D01*
X138234336Y-110947801D01*
X138189157Y-110854995D01*
X138148144Y-110759669D01*
X138110834Y-110660702D01*
X138076764Y-110556973D01*
X138056318Y-110487111D01*
X138038063Y-110421847D01*
X137913150Y-110371265D01*
X137880801Y-110358164D01*
X137846720Y-110344360D01*
X137812371Y-110330446D01*
X137779218Y-110317013D01*
X137748725Y-110304657D01*
X137722356Y-110293970D01*
X137708125Y-110288200D01*
X137628013Y-110255719D01*
X138002699Y-109920903D01*
X138017975Y-109875042D01*
X138037971Y-109822558D01*
X138063359Y-109768304D01*
X138093290Y-109713803D01*
X138126916Y-109660580D01*
X138163391Y-109610159D01*
X138170077Y-109601644D01*
X138185188Y-109583691D01*
X138204455Y-109562394D01*
X138226654Y-109538976D01*
X138250561Y-109514659D01*
X138274953Y-109490663D01*
X138298606Y-109468213D01*
X138320297Y-109448529D01*
X138338802Y-109432834D01*
X138340334Y-109431608D01*
X138416271Y-109375687D01*
X138496675Y-109325202D01*
X138581488Y-109280177D01*
X138670648Y-109240636D01*
X138764097Y-109206603D01*
X138861776Y-109178101D01*
X138963624Y-109155155D01*
X139069582Y-109137789D01*
X139070584Y-109137654D01*
X139099559Y-109134531D01*
X139133508Y-109132131D01*
X139170383Y-109130500D01*
X139208133Y-109129688D01*
X139244710Y-109129742D01*
X139244710Y-109129742D01*
G37*
X139244710Y-109129742D02*
X139278065Y-109130711D01*
X139301653Y-109132228D01*
X139381789Y-109141955D01*
X139463758Y-109157253D01*
X139545701Y-109177681D01*
X139625758Y-109202796D01*
X139673541Y-109220493D01*
X139716347Y-109237482D01*
X139758596Y-109254539D01*
X139800667Y-109271839D01*
X139842939Y-109289558D01*
X139885789Y-109307874D01*
X139929595Y-109326961D01*
X139974736Y-109346995D01*
X140021589Y-109368154D01*
X140070533Y-109390612D01*
X140121945Y-109414546D01*
X140176204Y-109440132D01*
X140233687Y-109467546D01*
X140294774Y-109496964D01*
X140359841Y-109528562D01*
X140429268Y-109562517D01*
X140503431Y-109599003D01*
X140582710Y-109638198D01*
X140667481Y-109680277D01*
X140758124Y-109725417D01*
X140762153Y-109727426D01*
X140841946Y-109767125D01*
X140916001Y-109803758D01*
X140984816Y-109837553D01*
X141048891Y-109868740D01*
X141108725Y-109897551D01*
X141164817Y-109924213D01*
X141217666Y-109948957D01*
X141267772Y-109972014D01*
X141315634Y-109993612D01*
X141361750Y-110013982D01*
X141406621Y-110033354D01*
X141450745Y-110051956D01*
X141494621Y-110070021D01*
X141538749Y-110087776D01*
X141580598Y-110104269D01*
X141604243Y-110113530D01*
X141625881Y-110122058D01*
X141644594Y-110129487D01*
X141659464Y-110135450D01*
X141669573Y-110139583D01*
X141673972Y-110141501D01*
X141674988Y-110143865D01*
X141672632Y-110148645D01*
X141666411Y-110156483D01*
X141655837Y-110168023D01*
X141645750Y-110178474D01*
X141588555Y-110232600D01*
X141524755Y-110284757D01*
X141454551Y-110334846D01*
X141378140Y-110382769D01*
X141295723Y-110428425D01*
X141207498Y-110471717D01*
X141113665Y-110512546D01*
X141014422Y-110550812D01*
X140909969Y-110586417D01*
X140800504Y-110619262D01*
X140709236Y-110643540D01*
X140601653Y-110669136D01*
X140499570Y-110690398D01*
X140402918Y-110707325D01*
X140311629Y-110719916D01*
X140225636Y-110728170D01*
X140144870Y-110732088D01*
X140069264Y-110731668D01*
X139998748Y-110726910D01*
X139933256Y-110717814D01*
X139872719Y-110704378D01*
X139817069Y-110686602D01*
X139766237Y-110664486D01*
X139720157Y-110638029D01*
X139715283Y-110634792D01*
X139696567Y-110620712D01*
X139675977Y-110602815D01*
X139655462Y-110582989D01*
X139636975Y-110563121D01*
X139622467Y-110545098D01*
X139622249Y-110544796D01*
X139600643Y-110509690D01*
X139582364Y-110469925D01*
X139568068Y-110427369D01*
X139558407Y-110383891D01*
X139554563Y-110351322D01*
X139552125Y-110316075D01*
X139486861Y-110310151D01*
X139465600Y-110308247D01*
X139446304Y-110306565D01*
X139430259Y-110305215D01*
X139418751Y-110304305D01*
X139413228Y-110303947D01*
X139407499Y-110303127D01*
X139407862Y-110300173D01*
X139409700Y-110297780D01*
X139412206Y-110294046D01*
X139410247Y-110293062D01*
X139402652Y-110294302D01*
X139402195Y-110294395D01*
X139373402Y-110300018D01*
X139339443Y-110306305D01*
X139302141Y-110312942D01*
X139263316Y-110319618D01*
X139224791Y-110326019D01*
X139188388Y-110331832D01*
X139155929Y-110336745D01*
X139153486Y-110337100D01*
X139072912Y-110347996D01*
X138998021Y-110356419D01*
X138927880Y-110362343D01*
X138861555Y-110365744D01*
X138798112Y-110366596D01*
X138736617Y-110364874D01*
X138676137Y-110360552D01*
X138615738Y-110353606D01*
X138554486Y-110344011D01*
X138491447Y-110331741D01*
X138429022Y-110317576D01*
X138408781Y-110312551D01*
X138386071Y-110306658D01*
X138361883Y-110300181D01*
X138337209Y-110293404D01*
X138313040Y-110286608D01*
X138290368Y-110280079D01*
X138270185Y-110274099D01*
X138253483Y-110268952D01*
X138241254Y-110264921D01*
X138234488Y-110262289D01*
X138233566Y-110261724D01*
X138232791Y-110257976D01*
X138231361Y-110248155D01*
X138229385Y-110233201D01*
X138226971Y-110214055D01*
X138224230Y-110191658D01*
X138221271Y-110166950D01*
X138218203Y-110140871D01*
X138215135Y-110114363D01*
X138212177Y-110088366D01*
X138209438Y-110063821D01*
X138207027Y-110041668D01*
X138205053Y-110022848D01*
X138203626Y-110008301D01*
X138202856Y-109998969D01*
X138202750Y-109996513D01*
X138205981Y-109994892D01*
X138214738Y-109992314D01*
X138227621Y-109989158D01*
X138240674Y-109986320D01*
X138352843Y-109962094D01*
X138460877Y-109936570D01*
X138564350Y-109909870D01*
X138662836Y-109882119D01*
X138755907Y-109853443D01*
X138843136Y-109823966D01*
X138924097Y-109793812D01*
X138984873Y-109768941D01*
X139081354Y-109724433D01*
X139172826Y-109675507D01*
X139260180Y-109621614D01*
X139344308Y-109562202D01*
X139426008Y-109496801D01*
X139442297Y-109482731D01*
X139459777Y-109467209D01*
X139477670Y-109450973D01*
X139495197Y-109434760D01*
X139511580Y-109419307D01*
X139526041Y-109405349D01*
X139537800Y-109393625D01*
X139546080Y-109384870D01*
X139550101Y-109379822D01*
X139550361Y-109379115D01*
X139547110Y-109376617D01*
X139538072Y-109372803D01*
X139524325Y-109368001D01*
X139506944Y-109362535D01*
X139487005Y-109356732D01*
X139465586Y-109350917D01*
X139443761Y-109345417D01*
X139424184Y-109340901D01*
X139354960Y-109327922D01*
X139288054Y-109319990D01*
X139221839Y-109317067D01*
X139154685Y-109319115D01*
X139084963Y-109326096D01*
X139044493Y-109332096D01*
X138948180Y-109350856D01*
X138856411Y-109374807D01*
X138769248Y-109403917D01*
X138686756Y-109438158D01*
X138608996Y-109477499D01*
X138536032Y-109521909D01*
X138467926Y-109571359D01*
X138404742Y-109625818D01*
X138379139Y-109650731D01*
X138328494Y-109706095D01*
X138284450Y-109763280D01*
X138247101Y-109822148D01*
X138216539Y-109882560D01*
X138202795Y-109916028D01*
X138191307Y-109946432D01*
X138045263Y-110084996D01*
X138018489Y-110110468D01*
X137993372Y-110134499D01*
X137970360Y-110156652D01*
X137949900Y-110176490D01*
X137932438Y-110193575D01*
X137918421Y-110207472D01*
X137908298Y-110217742D01*
X137902514Y-110223950D01*
X137901302Y-110225690D01*
X137904842Y-110227513D01*
X137914198Y-110231927D01*
X137928740Y-110238645D01*
X137947842Y-110247381D01*
X137970876Y-110257849D01*
X137997212Y-110269763D01*
X138026225Y-110282837D01*
X138057286Y-110296784D01*
X138060834Y-110298375D01*
X138218283Y-110368931D01*
X138238397Y-110439486D01*
X138252426Y-110487561D01*
X138266124Y-110531940D01*
X138280476Y-110575693D01*
X138296469Y-110621894D01*
X138301638Y-110636422D01*
X138308304Y-110654496D01*
X138313501Y-110666977D01*
X138317837Y-110675013D01*
X138321920Y-110679755D01*
X138325801Y-110682121D01*
X138332334Y-110683374D01*
X138344938Y-110684399D01*
X138362632Y-110685198D01*
X138384436Y-110685771D01*
X138409368Y-110686120D01*
X138436448Y-110686246D01*
X138464694Y-110686150D01*
X138493127Y-110685833D01*
X138520765Y-110685297D01*
X138546627Y-110684542D01*
X138569733Y-110683570D01*
X138589101Y-110682382D01*
X138596098Y-110681800D01*
X138638615Y-110677639D01*
X138682437Y-110672920D01*
X138726678Y-110667767D01*
X138770449Y-110662304D01*
X138812864Y-110656654D01*
X138853037Y-110650940D01*
X138890079Y-110645287D01*
X138923105Y-110639818D01*
X138951228Y-110634657D01*
X138973560Y-110629927D01*
X138980625Y-110628196D01*
X139037051Y-110610188D01*
X139093259Y-110585555D01*
X139148619Y-110554716D01*
X139202503Y-110518088D01*
X139254283Y-110476091D01*
X139303331Y-110429142D01*
X139339231Y-110389419D01*
X139350382Y-110376365D01*
X139357812Y-110368129D01*
X139362317Y-110364108D01*
X139364696Y-110363703D01*
X139365744Y-110366312D01*
X139366076Y-110369177D01*
X139374928Y-110431029D01*
X139390125Y-110491195D01*
X139411367Y-110549025D01*
X139438355Y-110603868D01*
X139470792Y-110655075D01*
X139508378Y-110701994D01*
X139528870Y-110723506D01*
X139576020Y-110765375D01*
X139627880Y-110802239D01*
X139684477Y-110834103D01*
X139745836Y-110860972D01*
X139811984Y-110882847D01*
X139882947Y-110899735D01*
X139958750Y-110911639D01*
X140039419Y-110918562D01*
X140124981Y-110920510D01*
X140215460Y-110917486D01*
X140310884Y-110909493D01*
X140411277Y-110896537D01*
X140516666Y-110878621D01*
X140518736Y-110878229D01*
X140652040Y-110850715D01*
X140780610Y-110819678D01*
X140904222Y-110785198D01*
X141022650Y-110747354D01*
X141135672Y-110706225D01*
X141243063Y-110661891D01*
X141344597Y-110614429D01*
X141440052Y-110563920D01*
X141486556Y-110536871D01*
X141558432Y-110491622D01*
X141623929Y-110445957D01*
X141683722Y-110399299D01*
X141738486Y-110351071D01*
X141788895Y-110300694D01*
X141835624Y-110247593D01*
X141859292Y-110217935D01*
X141866348Y-110208793D01*
X141899885Y-110215455D01*
X142004889Y-110232936D01*
X142109330Y-110243496D01*
X142213815Y-110247171D01*
X142318949Y-110243997D01*
X142344361Y-110242219D01*
X142433685Y-110234517D01*
X142529546Y-110224773D01*
X142631740Y-110213024D01*
X142740062Y-110199304D01*
X142854307Y-110183649D01*
X142974270Y-110166094D01*
X143099745Y-110146676D01*
X143230528Y-110125428D01*
X143366414Y-110102388D01*
X143507197Y-110077589D01*
X143652673Y-110051068D01*
X143802636Y-110022860D01*
X143956882Y-109993000D01*
X144115205Y-109961525D01*
X144277401Y-109928468D01*
X144443264Y-109893866D01*
X144612589Y-109857754D01*
X144777083Y-109821946D01*
X144812540Y-109814219D01*
X144846328Y-109806982D01*
X144877744Y-109800378D01*
X144906082Y-109794550D01*
X144930639Y-109789638D01*
X144950711Y-109785785D01*
X144965595Y-109783134D01*
X144974586Y-109781825D01*
X144976402Y-109781710D01*
X145000853Y-109785325D01*
X145023020Y-109795489D01*
X145042465Y-109811940D01*
X145055298Y-109828714D01*
X145071220Y-109854601D01*
X145089408Y-109885862D01*
X145109273Y-109921421D01*
X145130229Y-109960199D01*
X145151687Y-110001119D01*
X145173058Y-110043103D01*
X145180724Y-110058486D01*
X145210533Y-110120291D01*
X145236152Y-110177008D01*
X145257736Y-110229113D01*
X145275437Y-110277077D01*
X145289410Y-110321376D01*
X145299807Y-110362481D01*
X145306783Y-110400868D01*
X145310490Y-110437009D01*
X145311223Y-110461017D01*
X145309855Y-110495658D01*
X145305603Y-110524824D01*
X145298245Y-110549574D01*
X145288407Y-110569576D01*
X145275372Y-110588408D01*
X145261151Y-110602507D01*
X145243422Y-110614103D01*
X145240516Y-110615661D01*
X145230170Y-110620668D01*
X145218802Y-110625256D01*
X145206049Y-110629454D01*
X145191542Y-110633295D01*
X145174918Y-110636806D01*
X145155811Y-110640019D01*
X145133854Y-110642964D01*
X145108682Y-110645671D01*
X145079929Y-110648170D01*
X145047230Y-110650491D01*
X145010219Y-110652664D01*
X144968530Y-110654720D01*
X144921798Y-110656689D01*
X144869657Y-110658601D01*
X144811742Y-110660486D01*
X144747685Y-110662374D01*
X144677123Y-110664296D01*
X144639181Y-110665282D01*
X144519555Y-110668512D01*
X144406447Y-110671915D01*
X144299322Y-110675525D01*
X144197645Y-110679372D01*
X144100878Y-110683490D01*
X144008487Y-110687910D01*
X143919937Y-110692664D01*
X143834690Y-110697786D01*
X143752212Y-110703306D01*
X143671967Y-110709258D01*
X143593420Y-110715673D01*
X143516033Y-110722583D01*
X143439273Y-110730022D01*
X143362603Y-110738020D01*
X143285487Y-110746611D01*
X143284514Y-110746723D01*
X143146765Y-110763667D01*
X143013516Y-110782414D01*
X142883549Y-110803216D01*
X142755649Y-110826325D01*
X142628599Y-110851993D01*
X142501181Y-110880474D01*
X142372181Y-110912018D01*
X142240381Y-110946880D01*
X142104564Y-110985310D01*
X142034101Y-111006143D01*
X142006987Y-111014416D01*
X141975101Y-111024394D01*
X141939282Y-111035799D01*
X141900367Y-111048350D01*
X141859195Y-111061768D01*
X141816606Y-111075772D01*
X141773438Y-111090082D01*
X141730530Y-111104419D01*
X141688720Y-111118503D01*
X141648847Y-111132054D01*
X141611751Y-111144791D01*
X141578268Y-111156436D01*
X141549239Y-111166707D01*
X141525502Y-111175326D01*
X141512325Y-111180287D01*
X141465900Y-111198714D01*
X141419052Y-111218455D01*
X141371172Y-111239814D01*
X141321650Y-111263099D01*
X141269877Y-111288614D01*
X141215244Y-111316665D01*
X141157142Y-111347558D01*
X141094962Y-111381598D01*
X141028093Y-111419091D01*
X140968528Y-111453090D01*
X140936877Y-111471282D01*
X140901373Y-111491686D01*
X140863969Y-111513181D01*
X140826618Y-111534643D01*
X140791271Y-111554953D01*
X140759882Y-111572987D01*
X140756861Y-111574722D01*
X140682151Y-111617228D01*
X140612611Y-111655860D01*
X140547666Y-111690832D01*
X140486738Y-111722361D01*
X140429249Y-111750662D01*
X140374623Y-111775950D01*
X140322282Y-111798442D01*
X140271649Y-111818353D01*
X140222146Y-111835898D01*
X140173197Y-111851294D01*
X140124224Y-111864755D01*
X140074649Y-111876498D01*
X140023896Y-111886738D01*
X139971387Y-111895691D01*
X139916545Y-111903573D01*
X139858792Y-111910598D01*
X139857278Y-111910768D01*
X139838693Y-111912405D01*
X139814406Y-111913872D01*
X139785621Y-111915152D01*
X139753537Y-111916227D01*
X139719357Y-111917078D01*
X139684282Y-111917688D01*
X139649513Y-111918037D01*
X139616253Y-111918108D01*
X139585702Y-111917882D01*
X139559062Y-111917342D01*
X139537534Y-111916469D01*
X139527431Y-111915766D01*
X139431437Y-111904796D01*
X139338591Y-111888944D01*
X139249357Y-111868340D01*
X139164199Y-111843112D01*
X139083580Y-111813390D01*
X139007963Y-111779303D01*
X138973570Y-111761423D01*
X138889499Y-111711747D01*
X138808006Y-111655614D01*
X138729071Y-111593003D01*
X138652676Y-111523893D01*
X138578800Y-111448264D01*
X138507424Y-111366095D01*
X138438528Y-111277366D01*
X138372092Y-111182057D01*
X138308098Y-111080145D01*
X138284143Y-111039208D01*
X138234336Y-110947801D01*
X138189157Y-110854995D01*
X138148144Y-110759669D01*
X138110834Y-110660702D01*
X138076764Y-110556973D01*
X138056318Y-110487111D01*
X138038063Y-110421847D01*
X137913150Y-110371265D01*
X137880801Y-110358164D01*
X137846720Y-110344360D01*
X137812371Y-110330446D01*
X137779218Y-110317013D01*
X137748725Y-110304657D01*
X137722356Y-110293970D01*
X137708125Y-110288200D01*
X137628013Y-110255719D01*
X138002699Y-109920903D01*
X138017975Y-109875042D01*
X138037971Y-109822558D01*
X138063359Y-109768304D01*
X138093290Y-109713803D01*
X138126916Y-109660580D01*
X138163391Y-109610159D01*
X138170077Y-109601644D01*
X138185188Y-109583691D01*
X138204455Y-109562394D01*
X138226654Y-109538976D01*
X138250561Y-109514659D01*
X138274953Y-109490663D01*
X138298606Y-109468213D01*
X138320297Y-109448529D01*
X138338802Y-109432834D01*
X138340334Y-109431608D01*
X138416271Y-109375687D01*
X138496675Y-109325202D01*
X138581488Y-109280177D01*
X138670648Y-109240636D01*
X138764097Y-109206603D01*
X138861776Y-109178101D01*
X138963624Y-109155155D01*
X139069582Y-109137789D01*
X139070584Y-109137654D01*
X139099559Y-109134531D01*
X139133508Y-109132131D01*
X139170383Y-109130500D01*
X139208133Y-109129688D01*
X139244710Y-109129742D01*
G36*
X159184250Y-119209952D02*
X159231186Y-119213674D01*
X159278923Y-119220308D01*
X159310470Y-119226230D01*
X159327376Y-119229947D01*
X159344424Y-119234096D01*
X159361213Y-119238546D01*
X159377341Y-119243163D01*
X159392408Y-119247817D01*
X159406014Y-119252375D01*
X159417757Y-119256706D01*
X159427236Y-119260677D01*
X159434053Y-119264157D01*
X159437804Y-119267014D01*
X159438418Y-119268338D01*
X159438094Y-119270608D01*
X159437148Y-119276410D01*
X159435614Y-119285542D01*
X159433528Y-119297801D01*
X159430925Y-119312987D01*
X159427840Y-119330897D01*
X159424309Y-119351329D01*
X159420367Y-119374081D01*
X159416050Y-119398952D01*
X159411393Y-119425740D01*
X159406431Y-119454242D01*
X159401200Y-119484258D01*
X159395734Y-119515585D01*
X159390071Y-119548021D01*
X159384244Y-119581365D01*
X159378289Y-119615414D01*
X159372242Y-119649967D01*
X159366137Y-119684822D01*
X159360011Y-119719776D01*
X159353898Y-119754629D01*
X159347835Y-119789179D01*
X159341856Y-119823223D01*
X159335996Y-119856559D01*
X159330292Y-119888986D01*
X159324778Y-119920302D01*
X159319490Y-119950305D01*
X159314463Y-119978793D01*
X159309733Y-120005565D01*
X159305335Y-120030418D01*
X159301304Y-120053151D01*
X159297676Y-120073561D01*
X159294486Y-120091448D01*
X159291769Y-120106608D01*
X159289561Y-120118841D01*
X159287897Y-120127943D01*
X159286813Y-120133715D01*
X159286554Y-120135023D01*
X159276987Y-120178174D01*
X159266334Y-120219393D01*
X159254697Y-120258391D01*
X159242178Y-120294879D01*
X159228877Y-120328570D01*
X159214898Y-120359174D01*
X159200340Y-120386403D01*
X159195100Y-120395127D01*
X159174332Y-120425616D01*
X159151668Y-120453263D01*
X159127299Y-120477879D01*
X159101414Y-120499271D01*
X159074206Y-120517249D01*
X159071656Y-120518718D01*
X159050637Y-120529337D01*
X159026564Y-120539149D01*
X159000122Y-120547957D01*
X158972000Y-120555564D01*
X158942884Y-120561775D01*
X158913460Y-120566392D01*
X158899428Y-120567985D01*
X158885316Y-120569119D01*
X158869006Y-120570002D01*
X158851487Y-120570616D01*
X158833744Y-120570944D01*
X158816764Y-120570968D01*
X158801536Y-120570670D01*
X158789045Y-120570032D01*
X158788511Y-120569991D01*
X158737587Y-120564170D01*
X158686028Y-120554642D01*
X158665992Y-120549983D01*
X158654862Y-120547134D01*
X158643787Y-120544099D01*
X158633482Y-120541094D01*
X158624664Y-120538334D01*
X158618048Y-120536036D01*
X158614351Y-120534417D01*
X158614229Y-120534340D01*
X158613464Y-120533102D01*
X158613204Y-120530393D01*
X158613494Y-120525764D01*
X158614380Y-120518763D01*
X158615906Y-120508941D01*
X158618103Y-120495940D01*
X158624456Y-120459157D01*
X158745687Y-120458107D01*
X158770846Y-120457878D01*
X158792522Y-120457652D01*
X158811024Y-120457420D01*
X158826661Y-120457172D01*
X158839742Y-120456898D01*
X158850574Y-120456588D01*
X158859468Y-120456234D01*
X158866730Y-120455825D01*
X158872671Y-120455351D01*
X158877598Y-120454804D01*
X158881820Y-120454173D01*
X158883977Y-120453782D01*
X158908686Y-120448382D01*
X158930267Y-120442198D01*
X158949344Y-120434999D01*
X158966540Y-120426555D01*
X158979926Y-120418372D01*
X158988839Y-120411612D01*
X158999131Y-120402520D01*
X159010033Y-120391886D01*
X159020778Y-120380503D01*
X159030598Y-120369161D01*
X159038724Y-120358654D01*
X159040838Y-120355602D01*
X159051540Y-120338029D01*
X159062260Y-120317473D01*
X159072653Y-120294721D01*
X159082372Y-120270564D01*
X159091075Y-120245790D01*
X159096308Y-120228740D01*
X159098567Y-120220456D01*
X159101127Y-120210356D01*
X159103831Y-120199145D01*
X159106522Y-120187527D01*
X159109042Y-120176207D01*
X159111234Y-120165889D01*
X159112939Y-120157276D01*
X159114002Y-120151074D01*
X159114283Y-120148326D01*
X159113157Y-120147554D01*
X159109566Y-120148230D01*
X159103192Y-120150443D01*
X159094854Y-120153807D01*
X159066081Y-120164996D01*
X159037373Y-120174545D01*
X159009552Y-120182212D01*
X158983440Y-120187758D01*
X158973067Y-120189412D01*
X158963634Y-120190380D01*
X158951370Y-120191091D01*
X158937159Y-120191546D01*
X158921889Y-120191744D01*
X158906444Y-120191685D01*
X158891711Y-120191368D01*
X158878575Y-120190793D01*
X158867922Y-120189958D01*
X158864052Y-120189480D01*
X158847780Y-120186652D01*
X158830679Y-120182884D01*
X158814106Y-120178516D01*
X158799421Y-120173888D01*
X158794407Y-120172051D01*
X158774388Y-120162428D01*
X158755255Y-120149546D01*
X158737541Y-120133923D01*
X158721781Y-120116074D01*
X158708509Y-120096516D01*
X158700721Y-120081506D01*
X158689927Y-120053613D01*
X158681499Y-120022767D01*
X158675437Y-119988981D01*
X158671743Y-119952266D01*
X158670418Y-119912632D01*
X158671461Y-119870090D01*
X158671630Y-119867836D01*
X158842267Y-119867836D01*
X158842431Y-119899159D01*
X158844198Y-119928773D01*
X158847547Y-119956104D01*
X158852461Y-119980579D01*
X158852781Y-119981848D01*
X158860038Y-120003997D01*
X158869800Y-120023307D01*
X158882069Y-120039780D01*
X158896847Y-120053417D01*
X158914137Y-120064219D01*
X158933941Y-120072188D01*
X158956262Y-120077325D01*
X158981102Y-120079632D01*
X159008464Y-120079109D01*
X159029897Y-120076959D01*
X159042054Y-120074949D01*
X159055242Y-120072046D01*
X159068931Y-120068442D01*
X159082587Y-120064326D01*
X159095678Y-120059889D01*
X159107671Y-120055319D01*
X159118035Y-120050808D01*
X159126237Y-120046546D01*
X159131745Y-120042721D01*
X159133958Y-120039812D01*
X159134395Y-120037595D01*
X159135446Y-120031874D01*
X159137072Y-120022869D01*
X159139235Y-120010802D01*
X159141895Y-119995895D01*
X159145014Y-119978369D01*
X159148552Y-119958444D01*
X159152470Y-119936344D01*
X159156731Y-119912287D01*
X159161293Y-119886497D01*
X159166120Y-119859195D01*
X159171170Y-119830601D01*
X159176407Y-119800938D01*
X159181790Y-119770425D01*
X159187281Y-119739286D01*
X159192840Y-119707741D01*
X159198429Y-119676011D01*
X159204009Y-119644319D01*
X159209540Y-119612884D01*
X159214984Y-119581929D01*
X159220302Y-119551675D01*
X159225454Y-119522343D01*
X159230403Y-119494154D01*
X159235108Y-119467331D01*
X159239531Y-119442093D01*
X159243633Y-119418663D01*
X159247375Y-119397262D01*
X159250717Y-119378112D01*
X159253622Y-119361433D01*
X159256049Y-119347447D01*
X159257961Y-119336375D01*
X159259317Y-119328438D01*
X159260079Y-119323859D01*
X159260239Y-119322770D01*
X159258420Y-119322136D01*
X159253267Y-119321643D01*
X159245233Y-119321286D01*
X159234771Y-119321056D01*
X159222335Y-119320947D01*
X159208378Y-119320951D01*
X159193354Y-119321062D01*
X159177716Y-119321273D01*
X159161918Y-119321577D01*
X159146413Y-119321966D01*
X159131655Y-119322433D01*
X159118098Y-119322972D01*
X159106193Y-119323576D01*
X159096397Y-119324238D01*
X159089160Y-119324950D01*
X159085905Y-119325465D01*
X159062600Y-119331444D01*
X159042051Y-119339166D01*
X159023451Y-119349076D01*
X159005992Y-119361617D01*
X158988869Y-119377233D01*
X158985333Y-119380849D01*
X158968607Y-119400377D01*
X158952563Y-119423354D01*
X158937349Y-119449480D01*
X158923108Y-119478450D01*
X158909987Y-119509964D01*
X158898131Y-119543717D01*
X158887685Y-119579408D01*
X158885182Y-119589112D01*
X158880323Y-119609599D01*
X158875244Y-119633052D01*
X158870088Y-119658667D01*
X158865000Y-119685638D01*
X158860127Y-119713159D01*
X158855611Y-119740423D01*
X158851600Y-119766625D01*
X158848237Y-119790959D01*
X158846822Y-119802358D01*
X158843725Y-119835378D01*
X158842267Y-119867836D01*
X158671630Y-119867836D01*
X158674875Y-119824653D01*
X158678452Y-119792881D01*
X158684267Y-119751114D01*
X158691111Y-119709306D01*
X158698866Y-119667973D01*
X158707414Y-119627631D01*
X158716636Y-119588796D01*
X158726413Y-119551985D01*
X158736627Y-119517714D01*
X158747159Y-119486498D01*
X158751642Y-119474438D01*
X158766718Y-119438077D01*
X158782798Y-119405130D01*
X158800056Y-119375312D01*
X158818667Y-119348338D01*
X158838807Y-119323922D01*
X158852563Y-119309523D01*
X158876335Y-119288099D01*
X158901406Y-119269676D01*
X158928196Y-119254028D01*
X158957123Y-119240930D01*
X158988606Y-119230156D01*
X159010977Y-119224211D01*
X159051479Y-119216269D01*
X159094074Y-119211247D01*
X159138438Y-119209142D01*
X159184250Y-119209952D01*
X159184250Y-119209952D01*
G37*
X159184250Y-119209952D02*
X159231186Y-119213674D01*
X159278923Y-119220308D01*
X159310470Y-119226230D01*
X159327376Y-119229947D01*
X159344424Y-119234096D01*
X159361213Y-119238546D01*
X159377341Y-119243163D01*
X159392408Y-119247817D01*
X159406014Y-119252375D01*
X159417757Y-119256706D01*
X159427236Y-119260677D01*
X159434053Y-119264157D01*
X159437804Y-119267014D01*
X159438418Y-119268338D01*
X159438094Y-119270608D01*
X159437148Y-119276410D01*
X159435614Y-119285542D01*
X159433528Y-119297801D01*
X159430925Y-119312987D01*
X159427840Y-119330897D01*
X159424309Y-119351329D01*
X159420367Y-119374081D01*
X159416050Y-119398952D01*
X159411393Y-119425740D01*
X159406431Y-119454242D01*
X159401200Y-119484258D01*
X159395734Y-119515585D01*
X159390071Y-119548021D01*
X159384244Y-119581365D01*
X159378289Y-119615414D01*
X159372242Y-119649967D01*
X159366137Y-119684822D01*
X159360011Y-119719776D01*
X159353898Y-119754629D01*
X159347835Y-119789179D01*
X159341856Y-119823223D01*
X159335996Y-119856559D01*
X159330292Y-119888986D01*
X159324778Y-119920302D01*
X159319490Y-119950305D01*
X159314463Y-119978793D01*
X159309733Y-120005565D01*
X159305335Y-120030418D01*
X159301304Y-120053151D01*
X159297676Y-120073561D01*
X159294486Y-120091448D01*
X159291769Y-120106608D01*
X159289561Y-120118841D01*
X159287897Y-120127943D01*
X159286813Y-120133715D01*
X159286554Y-120135023D01*
X159276987Y-120178174D01*
X159266334Y-120219393D01*
X159254697Y-120258391D01*
X159242178Y-120294879D01*
X159228877Y-120328570D01*
X159214898Y-120359174D01*
X159200340Y-120386403D01*
X159195100Y-120395127D01*
X159174332Y-120425616D01*
X159151668Y-120453263D01*
X159127299Y-120477879D01*
X159101414Y-120499271D01*
X159074206Y-120517249D01*
X159071656Y-120518718D01*
X159050637Y-120529337D01*
X159026564Y-120539149D01*
X159000122Y-120547957D01*
X158972000Y-120555564D01*
X158942884Y-120561775D01*
X158913460Y-120566392D01*
X158899428Y-120567985D01*
X158885316Y-120569119D01*
X158869006Y-120570002D01*
X158851487Y-120570616D01*
X158833744Y-120570944D01*
X158816764Y-120570968D01*
X158801536Y-120570670D01*
X158789045Y-120570032D01*
X158788511Y-120569991D01*
X158737587Y-120564170D01*
X158686028Y-120554642D01*
X158665992Y-120549983D01*
X158654862Y-120547134D01*
X158643787Y-120544099D01*
X158633482Y-120541094D01*
X158624664Y-120538334D01*
X158618048Y-120536036D01*
X158614351Y-120534417D01*
X158614229Y-120534340D01*
X158613464Y-120533102D01*
X158613204Y-120530393D01*
X158613494Y-120525764D01*
X158614380Y-120518763D01*
X158615906Y-120508941D01*
X158618103Y-120495940D01*
X158624456Y-120459157D01*
X158745687Y-120458107D01*
X158770846Y-120457878D01*
X158792522Y-120457652D01*
X158811024Y-120457420D01*
X158826661Y-120457172D01*
X158839742Y-120456898D01*
X158850574Y-120456588D01*
X158859468Y-120456234D01*
X158866730Y-120455825D01*
X158872671Y-120455351D01*
X158877598Y-120454804D01*
X158881820Y-120454173D01*
X158883977Y-120453782D01*
X158908686Y-120448382D01*
X158930267Y-120442198D01*
X158949344Y-120434999D01*
X158966540Y-120426555D01*
X158979926Y-120418372D01*
X158988839Y-120411612D01*
X158999131Y-120402520D01*
X159010033Y-120391886D01*
X159020778Y-120380503D01*
X159030598Y-120369161D01*
X159038724Y-120358654D01*
X159040838Y-120355602D01*
X159051540Y-120338029D01*
X159062260Y-120317473D01*
X159072653Y-120294721D01*
X159082372Y-120270564D01*
X159091075Y-120245790D01*
X159096308Y-120228740D01*
X159098567Y-120220456D01*
X159101127Y-120210356D01*
X159103831Y-120199145D01*
X159106522Y-120187527D01*
X159109042Y-120176207D01*
X159111234Y-120165889D01*
X159112939Y-120157276D01*
X159114002Y-120151074D01*
X159114283Y-120148326D01*
X159113157Y-120147554D01*
X159109566Y-120148230D01*
X159103192Y-120150443D01*
X159094854Y-120153807D01*
X159066081Y-120164996D01*
X159037373Y-120174545D01*
X159009552Y-120182212D01*
X158983440Y-120187758D01*
X158973067Y-120189412D01*
X158963634Y-120190380D01*
X158951370Y-120191091D01*
X158937159Y-120191546D01*
X158921889Y-120191744D01*
X158906444Y-120191685D01*
X158891711Y-120191368D01*
X158878575Y-120190793D01*
X158867922Y-120189958D01*
X158864052Y-120189480D01*
X158847780Y-120186652D01*
X158830679Y-120182884D01*
X158814106Y-120178516D01*
X158799421Y-120173888D01*
X158794407Y-120172051D01*
X158774388Y-120162428D01*
X158755255Y-120149546D01*
X158737541Y-120133923D01*
X158721781Y-120116074D01*
X158708509Y-120096516D01*
X158700721Y-120081506D01*
X158689927Y-120053613D01*
X158681499Y-120022767D01*
X158675437Y-119988981D01*
X158671743Y-119952266D01*
X158670418Y-119912632D01*
X158671461Y-119870090D01*
X158671630Y-119867836D01*
X158842267Y-119867836D01*
X158842431Y-119899159D01*
X158844198Y-119928773D01*
X158847547Y-119956104D01*
X158852461Y-119980579D01*
X158852781Y-119981848D01*
X158860038Y-120003997D01*
X158869800Y-120023307D01*
X158882069Y-120039780D01*
X158896847Y-120053417D01*
X158914137Y-120064219D01*
X158933941Y-120072188D01*
X158956262Y-120077325D01*
X158981102Y-120079632D01*
X159008464Y-120079109D01*
X159029897Y-120076959D01*
X159042054Y-120074949D01*
X159055242Y-120072046D01*
X159068931Y-120068442D01*
X159082587Y-120064326D01*
X159095678Y-120059889D01*
X159107671Y-120055319D01*
X159118035Y-120050808D01*
X159126237Y-120046546D01*
X159131745Y-120042721D01*
X159133958Y-120039812D01*
X159134395Y-120037595D01*
X159135446Y-120031874D01*
X159137072Y-120022869D01*
X159139235Y-120010802D01*
X159141895Y-119995895D01*
X159145014Y-119978369D01*
X159148552Y-119958444D01*
X159152470Y-119936344D01*
X159156731Y-119912287D01*
X159161293Y-119886497D01*
X159166120Y-119859195D01*
X159171170Y-119830601D01*
X159176407Y-119800938D01*
X159181790Y-119770425D01*
X159187281Y-119739286D01*
X159192840Y-119707741D01*
X159198429Y-119676011D01*
X159204009Y-119644319D01*
X159209540Y-119612884D01*
X159214984Y-119581929D01*
X159220302Y-119551675D01*
X159225454Y-119522343D01*
X159230403Y-119494154D01*
X159235108Y-119467331D01*
X159239531Y-119442093D01*
X159243633Y-119418663D01*
X159247375Y-119397262D01*
X159250717Y-119378112D01*
X159253622Y-119361433D01*
X159256049Y-119347447D01*
X159257961Y-119336375D01*
X159259317Y-119328438D01*
X159260079Y-119323859D01*
X159260239Y-119322770D01*
X159258420Y-119322136D01*
X159253267Y-119321643D01*
X159245233Y-119321286D01*
X159234771Y-119321056D01*
X159222335Y-119320947D01*
X159208378Y-119320951D01*
X159193354Y-119321062D01*
X159177716Y-119321273D01*
X159161918Y-119321577D01*
X159146413Y-119321966D01*
X159131655Y-119322433D01*
X159118098Y-119322972D01*
X159106193Y-119323576D01*
X159096397Y-119324238D01*
X159089160Y-119324950D01*
X159085905Y-119325465D01*
X159062600Y-119331444D01*
X159042051Y-119339166D01*
X159023451Y-119349076D01*
X159005992Y-119361617D01*
X158988869Y-119377233D01*
X158985333Y-119380849D01*
X158968607Y-119400377D01*
X158952563Y-119423354D01*
X158937349Y-119449480D01*
X158923108Y-119478450D01*
X158909987Y-119509964D01*
X158898131Y-119543717D01*
X158887685Y-119579408D01*
X158885182Y-119589112D01*
X158880323Y-119609599D01*
X158875244Y-119633052D01*
X158870088Y-119658667D01*
X158865000Y-119685638D01*
X158860127Y-119713159D01*
X158855611Y-119740423D01*
X158851600Y-119766625D01*
X158848237Y-119790959D01*
X158846822Y-119802358D01*
X158843725Y-119835378D01*
X158842267Y-119867836D01*
X158671630Y-119867836D01*
X158674875Y-119824653D01*
X158678452Y-119792881D01*
X158684267Y-119751114D01*
X158691111Y-119709306D01*
X158698866Y-119667973D01*
X158707414Y-119627631D01*
X158716636Y-119588796D01*
X158726413Y-119551985D01*
X158736627Y-119517714D01*
X158747159Y-119486498D01*
X158751642Y-119474438D01*
X158766718Y-119438077D01*
X158782798Y-119405130D01*
X158800056Y-119375312D01*
X158818667Y-119348338D01*
X158838807Y-119323922D01*
X158852563Y-119309523D01*
X158876335Y-119288099D01*
X158901406Y-119269676D01*
X158928196Y-119254028D01*
X158957123Y-119240930D01*
X158988606Y-119230156D01*
X159010977Y-119224211D01*
X159051479Y-119216269D01*
X159094074Y-119211247D01*
X159138438Y-119209142D01*
X159184250Y-119209952D01*
G36*
X160836412Y-119023773D02*
X160835940Y-119026265D01*
X160834898Y-119032038D01*
X160833356Y-119040694D01*
X160831383Y-119051834D01*
X160829050Y-119065059D01*
X160826425Y-119079971D01*
X160823580Y-119096171D01*
X160820583Y-119113261D01*
X160817504Y-119130842D01*
X160814413Y-119148515D01*
X160811380Y-119165881D01*
X160808475Y-119182543D01*
X160805766Y-119198101D01*
X160803325Y-119212157D01*
X160801220Y-119224312D01*
X160799521Y-119234167D01*
X160798299Y-119241324D01*
X160797622Y-119245385D01*
X160797507Y-119246169D01*
X160799352Y-119246305D01*
X160804684Y-119246447D01*
X160813200Y-119246592D01*
X160824595Y-119246737D01*
X160838567Y-119246880D01*
X160854811Y-119247018D01*
X160873023Y-119247147D01*
X160892900Y-119247265D01*
X160914138Y-119247368D01*
X160929812Y-119247432D01*
X161062117Y-119247918D01*
X161054654Y-119289930D01*
X161047190Y-119331941D01*
X161040345Y-119333799D01*
X161035498Y-119335117D01*
X161028212Y-119337101D01*
X161019708Y-119339419D01*
X161015332Y-119340612D01*
X160976372Y-119350056D01*
X160935704Y-119357701D01*
X160894465Y-119363390D01*
X160853797Y-119366969D01*
X160814840Y-119368281D01*
X160812876Y-119368284D01*
X160775062Y-119368284D01*
X160773993Y-119373497D01*
X160773467Y-119376357D01*
X160772343Y-119382687D01*
X160770668Y-119392222D01*
X160768487Y-119404697D01*
X160765847Y-119419845D01*
X160762793Y-119437401D01*
X160759371Y-119457100D01*
X160755627Y-119478675D01*
X160751607Y-119501861D01*
X160747357Y-119526393D01*
X160742923Y-119552005D01*
X160738350Y-119578431D01*
X160733685Y-119605406D01*
X160728974Y-119632663D01*
X160724261Y-119659938D01*
X160719594Y-119686965D01*
X160715019Y-119713479D01*
X160710580Y-119739212D01*
X160706325Y-119763901D01*
X160702298Y-119787279D01*
X160698546Y-119809081D01*
X160695115Y-119829041D01*
X160692050Y-119846893D01*
X160689398Y-119862372D01*
X160687204Y-119875212D01*
X160685514Y-119885148D01*
X160684375Y-119891914D01*
X160683832Y-119895239D01*
X160681015Y-119920778D01*
X160680265Y-119945796D01*
X160681528Y-119969730D01*
X160684748Y-119992019D01*
X160689871Y-120012102D01*
X160696842Y-120029418D01*
X160697004Y-120029742D01*
X160702422Y-120038638D01*
X160709705Y-120048105D01*
X160717916Y-120057094D01*
X160726115Y-120064561D01*
X160731948Y-120068684D01*
X160736091Y-120071013D01*
X160740160Y-120072990D01*
X160744500Y-120074647D01*
X160749454Y-120076015D01*
X160755367Y-120077127D01*
X160762581Y-120078015D01*
X160771442Y-120078712D01*
X160782292Y-120079248D01*
X160795477Y-120079657D01*
X160811338Y-120079971D01*
X160830221Y-120080221D01*
X160852470Y-120080441D01*
X160858304Y-120080492D01*
X160952272Y-120081303D01*
X160946955Y-120111954D01*
X160944592Y-120125712D01*
X160942748Y-120136233D01*
X160941207Y-120144000D01*
X160939753Y-120149496D01*
X160938171Y-120153203D01*
X160936244Y-120155603D01*
X160933757Y-120157178D01*
X160930493Y-120158412D01*
X160926237Y-120159787D01*
X160925423Y-120160062D01*
X160906571Y-120165829D01*
X160884657Y-120171377D01*
X160860408Y-120176566D01*
X160834550Y-120181253D01*
X160807812Y-120185298D01*
X160780921Y-120188559D01*
X160776270Y-120189037D01*
X160753428Y-120191042D01*
X160733343Y-120192168D01*
X160715092Y-120192431D01*
X160697747Y-120191848D01*
X160683234Y-120190719D01*
X160653440Y-120186692D01*
X160626763Y-120180591D01*
X160603078Y-120172308D01*
X160582261Y-120161737D01*
X160564189Y-120148773D01*
X160548737Y-120133308D01*
X160535782Y-120115236D01*
X160525200Y-120094451D01*
X160516868Y-120070847D01*
X160510660Y-120044316D01*
X160510266Y-120042142D01*
X160508942Y-120031928D01*
X160507993Y-120018811D01*
X160507426Y-120003660D01*
X160507249Y-119987346D01*
X160507469Y-119970738D01*
X160508095Y-119954706D01*
X160509133Y-119940120D01*
X160509347Y-119937888D01*
X160509860Y-119932864D01*
X160510393Y-119927918D01*
X160510980Y-119922847D01*
X160511655Y-119917451D01*
X160512450Y-119911525D01*
X160513399Y-119904870D01*
X160514536Y-119897283D01*
X160515894Y-119888561D01*
X160517506Y-119878504D01*
X160519405Y-119866908D01*
X160521625Y-119853573D01*
X160524199Y-119838296D01*
X160527161Y-119820875D01*
X160530543Y-119801108D01*
X160534380Y-119778793D01*
X160538703Y-119753729D01*
X160543548Y-119725713D01*
X160548947Y-119694544D01*
X160554933Y-119660019D01*
X160560703Y-119626761D01*
X160565963Y-119596417D01*
X160571041Y-119567066D01*
X160575899Y-119538930D01*
X160580500Y-119512228D01*
X160584805Y-119487181D01*
X160588778Y-119464010D01*
X160592380Y-119442934D01*
X160595574Y-119424175D01*
X160598322Y-119407953D01*
X160600587Y-119394489D01*
X160602330Y-119384003D01*
X160603515Y-119376715D01*
X160604104Y-119372846D01*
X160604164Y-119372287D01*
X160604087Y-119371141D01*
X160603589Y-119370238D01*
X160602266Y-119369549D01*
X160599715Y-119369044D01*
X160595533Y-119368695D01*
X160589317Y-119368474D01*
X160580665Y-119368351D01*
X160569173Y-119368297D01*
X160554439Y-119368284D01*
X160548246Y-119368284D01*
X160531495Y-119368250D01*
X160518211Y-119368138D01*
X160508069Y-119367935D01*
X160500745Y-119367626D01*
X160495915Y-119367199D01*
X160493256Y-119366640D01*
X160492442Y-119365934D01*
X160492442Y-119365914D01*
X160492809Y-119363524D01*
X160493793Y-119357880D01*
X160495308Y-119349456D01*
X160497269Y-119338724D01*
X160499589Y-119326157D01*
X160502182Y-119312226D01*
X160503398Y-119305732D01*
X160514238Y-119247918D01*
X160628036Y-119246916D01*
X160647850Y-119133214D01*
X160667664Y-119019511D01*
X160752525Y-119019509D01*
X160837385Y-119019508D01*
X160836412Y-119023773D01*
X160836412Y-119023773D01*
G37*
X160836412Y-119023773D02*
X160835940Y-119026265D01*
X160834898Y-119032038D01*
X160833356Y-119040694D01*
X160831383Y-119051834D01*
X160829050Y-119065059D01*
X160826425Y-119079971D01*
X160823580Y-119096171D01*
X160820583Y-119113261D01*
X160817504Y-119130842D01*
X160814413Y-119148515D01*
X160811380Y-119165881D01*
X160808475Y-119182543D01*
X160805766Y-119198101D01*
X160803325Y-119212157D01*
X160801220Y-119224312D01*
X160799521Y-119234167D01*
X160798299Y-119241324D01*
X160797622Y-119245385D01*
X160797507Y-119246169D01*
X160799352Y-119246305D01*
X160804684Y-119246447D01*
X160813200Y-119246592D01*
X160824595Y-119246737D01*
X160838567Y-119246880D01*
X160854811Y-119247018D01*
X160873023Y-119247147D01*
X160892900Y-119247265D01*
X160914138Y-119247368D01*
X160929812Y-119247432D01*
X161062117Y-119247918D01*
X161054654Y-119289930D01*
X161047190Y-119331941D01*
X161040345Y-119333799D01*
X161035498Y-119335117D01*
X161028212Y-119337101D01*
X161019708Y-119339419D01*
X161015332Y-119340612D01*
X160976372Y-119350056D01*
X160935704Y-119357701D01*
X160894465Y-119363390D01*
X160853797Y-119366969D01*
X160814840Y-119368281D01*
X160812876Y-119368284D01*
X160775062Y-119368284D01*
X160773993Y-119373497D01*
X160773467Y-119376357D01*
X160772343Y-119382687D01*
X160770668Y-119392222D01*
X160768487Y-119404697D01*
X160765847Y-119419845D01*
X160762793Y-119437401D01*
X160759371Y-119457100D01*
X160755627Y-119478675D01*
X160751607Y-119501861D01*
X160747357Y-119526393D01*
X160742923Y-119552005D01*
X160738350Y-119578431D01*
X160733685Y-119605406D01*
X160728974Y-119632663D01*
X160724261Y-119659938D01*
X160719594Y-119686965D01*
X160715019Y-119713479D01*
X160710580Y-119739212D01*
X160706325Y-119763901D01*
X160702298Y-119787279D01*
X160698546Y-119809081D01*
X160695115Y-119829041D01*
X160692050Y-119846893D01*
X160689398Y-119862372D01*
X160687204Y-119875212D01*
X160685514Y-119885148D01*
X160684375Y-119891914D01*
X160683832Y-119895239D01*
X160681015Y-119920778D01*
X160680265Y-119945796D01*
X160681528Y-119969730D01*
X160684748Y-119992019D01*
X160689871Y-120012102D01*
X160696842Y-120029418D01*
X160697004Y-120029742D01*
X160702422Y-120038638D01*
X160709705Y-120048105D01*
X160717916Y-120057094D01*
X160726115Y-120064561D01*
X160731948Y-120068684D01*
X160736091Y-120071013D01*
X160740160Y-120072990D01*
X160744500Y-120074647D01*
X160749454Y-120076015D01*
X160755367Y-120077127D01*
X160762581Y-120078015D01*
X160771442Y-120078712D01*
X160782292Y-120079248D01*
X160795477Y-120079657D01*
X160811338Y-120079971D01*
X160830221Y-120080221D01*
X160852470Y-120080441D01*
X160858304Y-120080492D01*
X160952272Y-120081303D01*
X160946955Y-120111954D01*
X160944592Y-120125712D01*
X160942748Y-120136233D01*
X160941207Y-120144000D01*
X160939753Y-120149496D01*
X160938171Y-120153203D01*
X160936244Y-120155603D01*
X160933757Y-120157178D01*
X160930493Y-120158412D01*
X160926237Y-120159787D01*
X160925423Y-120160062D01*
X160906571Y-120165829D01*
X160884657Y-120171377D01*
X160860408Y-120176566D01*
X160834550Y-120181253D01*
X160807812Y-120185298D01*
X160780921Y-120188559D01*
X160776270Y-120189037D01*
X160753428Y-120191042D01*
X160733343Y-120192168D01*
X160715092Y-120192431D01*
X160697747Y-120191848D01*
X160683234Y-120190719D01*
X160653440Y-120186692D01*
X160626763Y-120180591D01*
X160603078Y-120172308D01*
X160582261Y-120161737D01*
X160564189Y-120148773D01*
X160548737Y-120133308D01*
X160535782Y-120115236D01*
X160525200Y-120094451D01*
X160516868Y-120070847D01*
X160510660Y-120044316D01*
X160510266Y-120042142D01*
X160508942Y-120031928D01*
X160507993Y-120018811D01*
X160507426Y-120003660D01*
X160507249Y-119987346D01*
X160507469Y-119970738D01*
X160508095Y-119954706D01*
X160509133Y-119940120D01*
X160509347Y-119937888D01*
X160509860Y-119932864D01*
X160510393Y-119927918D01*
X160510980Y-119922847D01*
X160511655Y-119917451D01*
X160512450Y-119911525D01*
X160513399Y-119904870D01*
X160514536Y-119897283D01*
X160515894Y-119888561D01*
X160517506Y-119878504D01*
X160519405Y-119866908D01*
X160521625Y-119853573D01*
X160524199Y-119838296D01*
X160527161Y-119820875D01*
X160530543Y-119801108D01*
X160534380Y-119778793D01*
X160538703Y-119753729D01*
X160543548Y-119725713D01*
X160548947Y-119694544D01*
X160554933Y-119660019D01*
X160560703Y-119626761D01*
X160565963Y-119596417D01*
X160571041Y-119567066D01*
X160575899Y-119538930D01*
X160580500Y-119512228D01*
X160584805Y-119487181D01*
X160588778Y-119464010D01*
X160592380Y-119442934D01*
X160595574Y-119424175D01*
X160598322Y-119407953D01*
X160600587Y-119394489D01*
X160602330Y-119384003D01*
X160603515Y-119376715D01*
X160604104Y-119372846D01*
X160604164Y-119372287D01*
X160604087Y-119371141D01*
X160603589Y-119370238D01*
X160602266Y-119369549D01*
X160599715Y-119369044D01*
X160595533Y-119368695D01*
X160589317Y-119368474D01*
X160580665Y-119368351D01*
X160569173Y-119368297D01*
X160554439Y-119368284D01*
X160548246Y-119368284D01*
X160531495Y-119368250D01*
X160518211Y-119368138D01*
X160508069Y-119367935D01*
X160500745Y-119367626D01*
X160495915Y-119367199D01*
X160493256Y-119366640D01*
X160492442Y-119365934D01*
X160492442Y-119365914D01*
X160492809Y-119363524D01*
X160493793Y-119357880D01*
X160495308Y-119349456D01*
X160497269Y-119338724D01*
X160499589Y-119326157D01*
X160502182Y-119312226D01*
X160503398Y-119305732D01*
X160514238Y-119247918D01*
X160628036Y-119246916D01*
X160647850Y-119133214D01*
X160667664Y-119019511D01*
X160752525Y-119019509D01*
X160837385Y-119019508D01*
X160836412Y-119023773D01*
G36*
X161658734Y-118830954D02*
X161693967Y-118832352D01*
X161729370Y-118834848D01*
X161764301Y-118838386D01*
X161798119Y-118842913D01*
X161830185Y-118848371D01*
X161859857Y-118854705D01*
X161886496Y-118861861D01*
X161888007Y-118862322D01*
X161896561Y-118865069D01*
X161901998Y-118867160D01*
X161904875Y-118868880D01*
X161905748Y-118870509D01*
X161905641Y-118871269D01*
X161905103Y-118873812D01*
X161904047Y-118879352D01*
X161902595Y-118887211D01*
X161900868Y-118896711D01*
X161898986Y-118907174D01*
X161897071Y-118917921D01*
X161895243Y-118928274D01*
X161893624Y-118937554D01*
X161892334Y-118945083D01*
X161891495Y-118950184D01*
X161891224Y-118952146D01*
X161889376Y-118952287D01*
X161884025Y-118952437D01*
X161875459Y-118952593D01*
X161863965Y-118952751D01*
X161849832Y-118952910D01*
X161833346Y-118953065D01*
X161814796Y-118953215D01*
X161794470Y-118953355D01*
X161772655Y-118953484D01*
X161749639Y-118953599D01*
X161743847Y-118953624D01*
X161715370Y-118953749D01*
X161690389Y-118953876D01*
X161668611Y-118954024D01*
X161649741Y-118954212D01*
X161633484Y-118954461D01*
X161619547Y-118954788D01*
X161607635Y-118955214D01*
X161597453Y-118955757D01*
X161588708Y-118956438D01*
X161581105Y-118957275D01*
X161574349Y-118958288D01*
X161568147Y-118959495D01*
X161562203Y-118960917D01*
X161556225Y-118962572D01*
X161549917Y-118964480D01*
X161542984Y-118966660D01*
X161542448Y-118966830D01*
X161517004Y-118976187D01*
X161494416Y-118987383D01*
X161474032Y-119000806D01*
X161455205Y-119016846D01*
X161449345Y-119022655D01*
X161430784Y-119044371D01*
X161414756Y-119068740D01*
X161401357Y-119095513D01*
X161390684Y-119124438D01*
X161382834Y-119155265D01*
X161377903Y-119187741D01*
X161376203Y-119212349D01*
X161376015Y-119234774D01*
X161377304Y-119254367D01*
X161380287Y-119271874D01*
X161385181Y-119288038D01*
X161392202Y-119303603D01*
X161401568Y-119319315D01*
X161411442Y-119333217D01*
X161420826Y-119345010D01*
X161430811Y-119356156D01*
X161441684Y-119366852D01*
X161453733Y-119377294D01*
X161467248Y-119387680D01*
X161482515Y-119398206D01*
X161499823Y-119409068D01*
X161519461Y-119420464D01*
X161541717Y-119432591D01*
X161566878Y-119445644D01*
X161595234Y-119459821D01*
X161601209Y-119462757D01*
X161622144Y-119473280D01*
X161640277Y-119483026D01*
X161656381Y-119492481D01*
X161671227Y-119502135D01*
X161685588Y-119512476D01*
X161700235Y-119523992D01*
X161707358Y-119529882D01*
X161726863Y-119547243D01*
X161743426Y-119564351D01*
X161757732Y-119582052D01*
X161770467Y-119601192D01*
X161781978Y-119621954D01*
X161791768Y-119642780D01*
X161799219Y-119662755D01*
X161804546Y-119682816D01*
X161807963Y-119703902D01*
X161809684Y-119726951D01*
X161809996Y-119744545D01*
X161808530Y-119781691D01*
X161804134Y-119819146D01*
X161799456Y-119845145D01*
X161789973Y-119886504D01*
X161779004Y-119924497D01*
X161766435Y-119959292D01*
X161752151Y-119991058D01*
X161736039Y-120019962D01*
X161717984Y-120046174D01*
X161697872Y-120069860D01*
X161675589Y-120091190D01*
X161651022Y-120110332D01*
X161624056Y-120127453D01*
X161599065Y-120140590D01*
X161573394Y-120152064D01*
X161547361Y-120161818D01*
X161520341Y-120170014D01*
X161491708Y-120176815D01*
X161460836Y-120182383D01*
X161427100Y-120186879D01*
X161415448Y-120188133D01*
X161406347Y-120188875D01*
X161394288Y-120189582D01*
X161379931Y-120190237D01*
X161363936Y-120190825D01*
X161346963Y-120191332D01*
X161329671Y-120191742D01*
X161312721Y-120192040D01*
X161296772Y-120192210D01*
X161282483Y-120192238D01*
X161270516Y-120192109D01*
X161261530Y-120191806D01*
X161260015Y-120191715D01*
X161234282Y-120189876D01*
X161211585Y-120188012D01*
X161191168Y-120186033D01*
X161172274Y-120183848D01*
X161154150Y-120181368D01*
X161136039Y-120178503D01*
X161117186Y-120175162D01*
X161110268Y-120173864D01*
X161098772Y-120171552D01*
X161086728Y-120168913D01*
X161074758Y-120166107D01*
X161063483Y-120163292D01*
X161053522Y-120160628D01*
X161045497Y-120158274D01*
X161040029Y-120156390D01*
X161037840Y-120155264D01*
X161037832Y-120153183D01*
X161038397Y-120148025D01*
X161039430Y-120140440D01*
X161040828Y-120131080D01*
X161042484Y-120120597D01*
X161044295Y-120109643D01*
X161046156Y-120098870D01*
X161047962Y-120088929D01*
X161049609Y-120080472D01*
X161050561Y-120076004D01*
X161051471Y-120071956D01*
X161200761Y-120070943D01*
X161230515Y-120070730D01*
X161256787Y-120070511D01*
X161279885Y-120070269D01*
X161300119Y-120069988D01*
X161317797Y-120069651D01*
X161333228Y-120069243D01*
X161346721Y-120068746D01*
X161358585Y-120068145D01*
X161369128Y-120067424D01*
X161378660Y-120066566D01*
X161387490Y-120065555D01*
X161395925Y-120064375D01*
X161404276Y-120063010D01*
X161412850Y-120061443D01*
X161421957Y-120059658D01*
X161424296Y-120059187D01*
X161455056Y-120051748D01*
X161482666Y-120042455D01*
X161507333Y-120031207D01*
X161529267Y-120017905D01*
X161548677Y-120002450D01*
X161553950Y-119997466D01*
X161571455Y-119978402D01*
X161586753Y-119957651D01*
X161600007Y-119934874D01*
X161611380Y-119909732D01*
X161621036Y-119881885D01*
X161629138Y-119850995D01*
X161632787Y-119833635D01*
X161634452Y-119822399D01*
X161635589Y-119809127D01*
X161636199Y-119794734D01*
X161636282Y-119780134D01*
X161635839Y-119766240D01*
X161634869Y-119753968D01*
X161633374Y-119744230D01*
X161632757Y-119741702D01*
X161627441Y-119726159D01*
X161620140Y-119711161D01*
X161610457Y-119696051D01*
X161597997Y-119680170D01*
X161590855Y-119672016D01*
X161579508Y-119660682D01*
X161565326Y-119648732D01*
X161548194Y-119636093D01*
X161527998Y-119622693D01*
X161504623Y-119608458D01*
X161477955Y-119593316D01*
X161447881Y-119577195D01*
X161418291Y-119562031D01*
X161397037Y-119551153D01*
X161378664Y-119541313D01*
X161362538Y-119532129D01*
X161348025Y-119523221D01*
X161334490Y-119514207D01*
X161321299Y-119504708D01*
X161315426Y-119500264D01*
X161289947Y-119478644D01*
X161267750Y-119455287D01*
X161248609Y-119429893D01*
X161232298Y-119402163D01*
X161218702Y-119372075D01*
X161210971Y-119348039D01*
X161205556Y-119321296D01*
X161202454Y-119292140D01*
X161201664Y-119260866D01*
X161203184Y-119227768D01*
X161207012Y-119193138D01*
X161213146Y-119157272D01*
X161220266Y-119125657D01*
X161231623Y-119086293D01*
X161245301Y-119049897D01*
X161261345Y-119016403D01*
X161279801Y-118985746D01*
X161300716Y-118957862D01*
X161324134Y-118932684D01*
X161350102Y-118910148D01*
X161378666Y-118890188D01*
X161391286Y-118882650D01*
X161414558Y-118870896D01*
X161440839Y-118860328D01*
X161469481Y-118851135D01*
X161499836Y-118843501D01*
X161531256Y-118837614D01*
X161560455Y-118833910D01*
X161591337Y-118831678D01*
X161624311Y-118830711D01*
X161658734Y-118830954D01*
X161658734Y-118830954D01*
G37*
X161658734Y-118830954D02*
X161693967Y-118832352D01*
X161729370Y-118834848D01*
X161764301Y-118838386D01*
X161798119Y-118842913D01*
X161830185Y-118848371D01*
X161859857Y-118854705D01*
X161886496Y-118861861D01*
X161888007Y-118862322D01*
X161896561Y-118865069D01*
X161901998Y-118867160D01*
X161904875Y-118868880D01*
X161905748Y-118870509D01*
X161905641Y-118871269D01*
X161905103Y-118873812D01*
X161904047Y-118879352D01*
X161902595Y-118887211D01*
X161900868Y-118896711D01*
X161898986Y-118907174D01*
X161897071Y-118917921D01*
X161895243Y-118928274D01*
X161893624Y-118937554D01*
X161892334Y-118945083D01*
X161891495Y-118950184D01*
X161891224Y-118952146D01*
X161889376Y-118952287D01*
X161884025Y-118952437D01*
X161875459Y-118952593D01*
X161863965Y-118952751D01*
X161849832Y-118952910D01*
X161833346Y-118953065D01*
X161814796Y-118953215D01*
X161794470Y-118953355D01*
X161772655Y-118953484D01*
X161749639Y-118953599D01*
X161743847Y-118953624D01*
X161715370Y-118953749D01*
X161690389Y-118953876D01*
X161668611Y-118954024D01*
X161649741Y-118954212D01*
X161633484Y-118954461D01*
X161619547Y-118954788D01*
X161607635Y-118955214D01*
X161597453Y-118955757D01*
X161588708Y-118956438D01*
X161581105Y-118957275D01*
X161574349Y-118958288D01*
X161568147Y-118959495D01*
X161562203Y-118960917D01*
X161556225Y-118962572D01*
X161549917Y-118964480D01*
X161542984Y-118966660D01*
X161542448Y-118966830D01*
X161517004Y-118976187D01*
X161494416Y-118987383D01*
X161474032Y-119000806D01*
X161455205Y-119016846D01*
X161449345Y-119022655D01*
X161430784Y-119044371D01*
X161414756Y-119068740D01*
X161401357Y-119095513D01*
X161390684Y-119124438D01*
X161382834Y-119155265D01*
X161377903Y-119187741D01*
X161376203Y-119212349D01*
X161376015Y-119234774D01*
X161377304Y-119254367D01*
X161380287Y-119271874D01*
X161385181Y-119288038D01*
X161392202Y-119303603D01*
X161401568Y-119319315D01*
X161411442Y-119333217D01*
X161420826Y-119345010D01*
X161430811Y-119356156D01*
X161441684Y-119366852D01*
X161453733Y-119377294D01*
X161467248Y-119387680D01*
X161482515Y-119398206D01*
X161499823Y-119409068D01*
X161519461Y-119420464D01*
X161541717Y-119432591D01*
X161566878Y-119445644D01*
X161595234Y-119459821D01*
X161601209Y-119462757D01*
X161622144Y-119473280D01*
X161640277Y-119483026D01*
X161656381Y-119492481D01*
X161671227Y-119502135D01*
X161685588Y-119512476D01*
X161700235Y-119523992D01*
X161707358Y-119529882D01*
X161726863Y-119547243D01*
X161743426Y-119564351D01*
X161757732Y-119582052D01*
X161770467Y-119601192D01*
X161781978Y-119621954D01*
X161791768Y-119642780D01*
X161799219Y-119662755D01*
X161804546Y-119682816D01*
X161807963Y-119703902D01*
X161809684Y-119726951D01*
X161809996Y-119744545D01*
X161808530Y-119781691D01*
X161804134Y-119819146D01*
X161799456Y-119845145D01*
X161789973Y-119886504D01*
X161779004Y-119924497D01*
X161766435Y-119959292D01*
X161752151Y-119991058D01*
X161736039Y-120019962D01*
X161717984Y-120046174D01*
X161697872Y-120069860D01*
X161675589Y-120091190D01*
X161651022Y-120110332D01*
X161624056Y-120127453D01*
X161599065Y-120140590D01*
X161573394Y-120152064D01*
X161547361Y-120161818D01*
X161520341Y-120170014D01*
X161491708Y-120176815D01*
X161460836Y-120182383D01*
X161427100Y-120186879D01*
X161415448Y-120188133D01*
X161406347Y-120188875D01*
X161394288Y-120189582D01*
X161379931Y-120190237D01*
X161363936Y-120190825D01*
X161346963Y-120191332D01*
X161329671Y-120191742D01*
X161312721Y-120192040D01*
X161296772Y-120192210D01*
X161282483Y-120192238D01*
X161270516Y-120192109D01*
X161261530Y-120191806D01*
X161260015Y-120191715D01*
X161234282Y-120189876D01*
X161211585Y-120188012D01*
X161191168Y-120186033D01*
X161172274Y-120183848D01*
X161154150Y-120181368D01*
X161136039Y-120178503D01*
X161117186Y-120175162D01*
X161110268Y-120173864D01*
X161098772Y-120171552D01*
X161086728Y-120168913D01*
X161074758Y-120166107D01*
X161063483Y-120163292D01*
X161053522Y-120160628D01*
X161045497Y-120158274D01*
X161040029Y-120156390D01*
X161037840Y-120155264D01*
X161037832Y-120153183D01*
X161038397Y-120148025D01*
X161039430Y-120140440D01*
X161040828Y-120131080D01*
X161042484Y-120120597D01*
X161044295Y-120109643D01*
X161046156Y-120098870D01*
X161047962Y-120088929D01*
X161049609Y-120080472D01*
X161050561Y-120076004D01*
X161051471Y-120071956D01*
X161200761Y-120070943D01*
X161230515Y-120070730D01*
X161256787Y-120070511D01*
X161279885Y-120070269D01*
X161300119Y-120069988D01*
X161317797Y-120069651D01*
X161333228Y-120069243D01*
X161346721Y-120068746D01*
X161358585Y-120068145D01*
X161369128Y-120067424D01*
X161378660Y-120066566D01*
X161387490Y-120065555D01*
X161395925Y-120064375D01*
X161404276Y-120063010D01*
X161412850Y-120061443D01*
X161421957Y-120059658D01*
X161424296Y-120059187D01*
X161455056Y-120051748D01*
X161482666Y-120042455D01*
X161507333Y-120031207D01*
X161529267Y-120017905D01*
X161548677Y-120002450D01*
X161553950Y-119997466D01*
X161571455Y-119978402D01*
X161586753Y-119957651D01*
X161600007Y-119934874D01*
X161611380Y-119909732D01*
X161621036Y-119881885D01*
X161629138Y-119850995D01*
X161632787Y-119833635D01*
X161634452Y-119822399D01*
X161635589Y-119809127D01*
X161636199Y-119794734D01*
X161636282Y-119780134D01*
X161635839Y-119766240D01*
X161634869Y-119753968D01*
X161633374Y-119744230D01*
X161632757Y-119741702D01*
X161627441Y-119726159D01*
X161620140Y-119711161D01*
X161610457Y-119696051D01*
X161597997Y-119680170D01*
X161590855Y-119672016D01*
X161579508Y-119660682D01*
X161565326Y-119648732D01*
X161548194Y-119636093D01*
X161527998Y-119622693D01*
X161504623Y-119608458D01*
X161477955Y-119593316D01*
X161447881Y-119577195D01*
X161418291Y-119562031D01*
X161397037Y-119551153D01*
X161378664Y-119541313D01*
X161362538Y-119532129D01*
X161348025Y-119523221D01*
X161334490Y-119514207D01*
X161321299Y-119504708D01*
X161315426Y-119500264D01*
X161289947Y-119478644D01*
X161267750Y-119455287D01*
X161248609Y-119429893D01*
X161232298Y-119402163D01*
X161218702Y-119372075D01*
X161210971Y-119348039D01*
X161205556Y-119321296D01*
X161202454Y-119292140D01*
X161201664Y-119260866D01*
X161203184Y-119227768D01*
X161207012Y-119193138D01*
X161213146Y-119157272D01*
X161220266Y-119125657D01*
X161231623Y-119086293D01*
X161245301Y-119049897D01*
X161261345Y-119016403D01*
X161279801Y-118985746D01*
X161300716Y-118957862D01*
X161324134Y-118932684D01*
X161350102Y-118910148D01*
X161378666Y-118890188D01*
X161391286Y-118882650D01*
X161414558Y-118870896D01*
X161440839Y-118860328D01*
X161469481Y-118851135D01*
X161499836Y-118843501D01*
X161531256Y-118837614D01*
X161560455Y-118833910D01*
X161591337Y-118831678D01*
X161624311Y-118830711D01*
X161658734Y-118830954D01*
G36*
X162333834Y-119023773D02*
X162333351Y-119026283D01*
X162332298Y-119032077D01*
X162330747Y-119040755D01*
X162328766Y-119051916D01*
X162326425Y-119065163D01*
X162323795Y-119080094D01*
X162320944Y-119096310D01*
X162317944Y-119113412D01*
X162314864Y-119131001D01*
X162311774Y-119148676D01*
X162308743Y-119166038D01*
X162305842Y-119182687D01*
X162303141Y-119198225D01*
X162300708Y-119212251D01*
X162298616Y-119224366D01*
X162296932Y-119234170D01*
X162295727Y-119241264D01*
X162295071Y-119245248D01*
X162294970Y-119245972D01*
X162296815Y-119246141D01*
X162302147Y-119246314D01*
X162310662Y-119246488D01*
X162322057Y-119246660D01*
X162336028Y-119246826D01*
X162352270Y-119246983D01*
X162370481Y-119247128D01*
X162390356Y-119247257D01*
X162411591Y-119247367D01*
X162427202Y-119247432D01*
X162559435Y-119247918D01*
X162551987Y-119289944D01*
X162544540Y-119331970D01*
X162537751Y-119333813D01*
X162532931Y-119335124D01*
X162525669Y-119337102D01*
X162517179Y-119339417D01*
X162512795Y-119340612D01*
X162473835Y-119350056D01*
X162433166Y-119357701D01*
X162391928Y-119363390D01*
X162351260Y-119366969D01*
X162312302Y-119368281D01*
X162310339Y-119368284D01*
X162272525Y-119368284D01*
X162271423Y-119373497D01*
X162270469Y-119378371D01*
X162268948Y-119386625D01*
X162266904Y-119397991D01*
X162264383Y-119412203D01*
X162261431Y-119428994D01*
X162258093Y-119448097D01*
X162254415Y-119469246D01*
X162250442Y-119492174D01*
X162246220Y-119516614D01*
X162241795Y-119542300D01*
X162237211Y-119568965D01*
X162232515Y-119596342D01*
X162227752Y-119624165D01*
X162222968Y-119652167D01*
X162218207Y-119680081D01*
X162213516Y-119707641D01*
X162208941Y-119734579D01*
X162204526Y-119760630D01*
X162200317Y-119785527D01*
X162196360Y-119809002D01*
X162192700Y-119830790D01*
X162189383Y-119850624D01*
X162186454Y-119868236D01*
X162183959Y-119883360D01*
X162181944Y-119895731D01*
X162180453Y-119905080D01*
X162179534Y-119911141D01*
X162179257Y-119913247D01*
X162177650Y-119939963D01*
X162178425Y-119965065D01*
X162181502Y-119988310D01*
X162186805Y-120009458D01*
X162194255Y-120028265D01*
X162203774Y-120044492D01*
X162215284Y-120057896D01*
X162228706Y-120068236D01*
X162229600Y-120068771D01*
X162233695Y-120071082D01*
X162237734Y-120073044D01*
X162242060Y-120074687D01*
X162247016Y-120076045D01*
X162252946Y-120077149D01*
X162260191Y-120078031D01*
X162269096Y-120078723D01*
X162280004Y-120079257D01*
X162293258Y-120079664D01*
X162309200Y-120079977D01*
X162328175Y-120080227D01*
X162350524Y-120080446D01*
X162355729Y-120080492D01*
X162449660Y-120081303D01*
X162443450Y-120116609D01*
X162441459Y-120127805D01*
X162439647Y-120137761D01*
X162438130Y-120145857D01*
X162437024Y-120151470D01*
X162436447Y-120153982D01*
X162436442Y-120153995D01*
X162434325Y-120155424D01*
X162429185Y-120157559D01*
X162421681Y-120160197D01*
X162412472Y-120163136D01*
X162402214Y-120166173D01*
X162391566Y-120169105D01*
X162381187Y-120171729D01*
X162372686Y-120173645D01*
X162336034Y-120180635D01*
X162300862Y-120186022D01*
X162267541Y-120189773D01*
X162236443Y-120191855D01*
X162207940Y-120192233D01*
X162182404Y-120190875D01*
X162181571Y-120190796D01*
X162152001Y-120186812D01*
X162125550Y-120180845D01*
X162102075Y-120172842D01*
X162081432Y-120162748D01*
X162063476Y-120150510D01*
X162056044Y-120144113D01*
X162046942Y-120135032D01*
X162039556Y-120125957D01*
X162032956Y-120115615D01*
X162027047Y-120104429D01*
X162018278Y-120083745D01*
X162011630Y-120061224D01*
X162007082Y-120036638D01*
X162004613Y-120009758D01*
X162004204Y-119980356D01*
X162005834Y-119948204D01*
X162009483Y-119913073D01*
X162009798Y-119910610D01*
X162010466Y-119906090D01*
X162011745Y-119898074D01*
X162013593Y-119886799D01*
X162015971Y-119872506D01*
X162018838Y-119855431D01*
X162022154Y-119835814D01*
X162025877Y-119813893D01*
X162029968Y-119789906D01*
X162034385Y-119764092D01*
X162039089Y-119736690D01*
X162044039Y-119707937D01*
X162049193Y-119678072D01*
X162054512Y-119647334D01*
X162057139Y-119632187D01*
X162062461Y-119601486D01*
X162067601Y-119571781D01*
X162072522Y-119543289D01*
X162077187Y-119516228D01*
X162081559Y-119490815D01*
X162085601Y-119467267D01*
X162089275Y-119445803D01*
X162092544Y-119426639D01*
X162095370Y-119409993D01*
X162097718Y-119396084D01*
X162099549Y-119385127D01*
X162100827Y-119377342D01*
X162101514Y-119372945D01*
X162101627Y-119372026D01*
X162101506Y-119370957D01*
X162100876Y-119370113D01*
X162099335Y-119369468D01*
X162096482Y-119368996D01*
X162091914Y-119368670D01*
X162085230Y-119368462D01*
X162076028Y-119368346D01*
X162063907Y-119368296D01*
X162048465Y-119368284D01*
X161989349Y-119368284D01*
X161990348Y-119363071D01*
X161990936Y-119359921D01*
X161992108Y-119353557D01*
X161993771Y-119344499D01*
X161995830Y-119333262D01*
X161998190Y-119320363D01*
X162000756Y-119306320D01*
X162001469Y-119302415D01*
X162011589Y-119246971D01*
X162068485Y-119246971D01*
X162125380Y-119246970D01*
X162145224Y-119133239D01*
X162165067Y-119019508D01*
X162334848Y-119019508D01*
X162333834Y-119023773D01*
X162333834Y-119023773D01*
G37*
X162333834Y-119023773D02*
X162333351Y-119026283D01*
X162332298Y-119032077D01*
X162330747Y-119040755D01*
X162328766Y-119051916D01*
X162326425Y-119065163D01*
X162323795Y-119080094D01*
X162320944Y-119096310D01*
X162317944Y-119113412D01*
X162314864Y-119131001D01*
X162311774Y-119148676D01*
X162308743Y-119166038D01*
X162305842Y-119182687D01*
X162303141Y-119198225D01*
X162300708Y-119212251D01*
X162298616Y-119224366D01*
X162296932Y-119234170D01*
X162295727Y-119241264D01*
X162295071Y-119245248D01*
X162294970Y-119245972D01*
X162296815Y-119246141D01*
X162302147Y-119246314D01*
X162310662Y-119246488D01*
X162322057Y-119246660D01*
X162336028Y-119246826D01*
X162352270Y-119246983D01*
X162370481Y-119247128D01*
X162390356Y-119247257D01*
X162411591Y-119247367D01*
X162427202Y-119247432D01*
X162559435Y-119247918D01*
X162551987Y-119289944D01*
X162544540Y-119331970D01*
X162537751Y-119333813D01*
X162532931Y-119335124D01*
X162525669Y-119337102D01*
X162517179Y-119339417D01*
X162512795Y-119340612D01*
X162473835Y-119350056D01*
X162433166Y-119357701D01*
X162391928Y-119363390D01*
X162351260Y-119366969D01*
X162312302Y-119368281D01*
X162310339Y-119368284D01*
X162272525Y-119368284D01*
X162271423Y-119373497D01*
X162270469Y-119378371D01*
X162268948Y-119386625D01*
X162266904Y-119397991D01*
X162264383Y-119412203D01*
X162261431Y-119428994D01*
X162258093Y-119448097D01*
X162254415Y-119469246D01*
X162250442Y-119492174D01*
X162246220Y-119516614D01*
X162241795Y-119542300D01*
X162237211Y-119568965D01*
X162232515Y-119596342D01*
X162227752Y-119624165D01*
X162222968Y-119652167D01*
X162218207Y-119680081D01*
X162213516Y-119707641D01*
X162208941Y-119734579D01*
X162204526Y-119760630D01*
X162200317Y-119785527D01*
X162196360Y-119809002D01*
X162192700Y-119830790D01*
X162189383Y-119850624D01*
X162186454Y-119868236D01*
X162183959Y-119883360D01*
X162181944Y-119895731D01*
X162180453Y-119905080D01*
X162179534Y-119911141D01*
X162179257Y-119913247D01*
X162177650Y-119939963D01*
X162178425Y-119965065D01*
X162181502Y-119988310D01*
X162186805Y-120009458D01*
X162194255Y-120028265D01*
X162203774Y-120044492D01*
X162215284Y-120057896D01*
X162228706Y-120068236D01*
X162229600Y-120068771D01*
X162233695Y-120071082D01*
X162237734Y-120073044D01*
X162242060Y-120074687D01*
X162247016Y-120076045D01*
X162252946Y-120077149D01*
X162260191Y-120078031D01*
X162269096Y-120078723D01*
X162280004Y-120079257D01*
X162293258Y-120079664D01*
X162309200Y-120079977D01*
X162328175Y-120080227D01*
X162350524Y-120080446D01*
X162355729Y-120080492D01*
X162449660Y-120081303D01*
X162443450Y-120116609D01*
X162441459Y-120127805D01*
X162439647Y-120137761D01*
X162438130Y-120145857D01*
X162437024Y-120151470D01*
X162436447Y-120153982D01*
X162436442Y-120153995D01*
X162434325Y-120155424D01*
X162429185Y-120157559D01*
X162421681Y-120160197D01*
X162412472Y-120163136D01*
X162402214Y-120166173D01*
X162391566Y-120169105D01*
X162381187Y-120171729D01*
X162372686Y-120173645D01*
X162336034Y-120180635D01*
X162300862Y-120186022D01*
X162267541Y-120189773D01*
X162236443Y-120191855D01*
X162207940Y-120192233D01*
X162182404Y-120190875D01*
X162181571Y-120190796D01*
X162152001Y-120186812D01*
X162125550Y-120180845D01*
X162102075Y-120172842D01*
X162081432Y-120162748D01*
X162063476Y-120150510D01*
X162056044Y-120144113D01*
X162046942Y-120135032D01*
X162039556Y-120125957D01*
X162032956Y-120115615D01*
X162027047Y-120104429D01*
X162018278Y-120083745D01*
X162011630Y-120061224D01*
X162007082Y-120036638D01*
X162004613Y-120009758D01*
X162004204Y-119980356D01*
X162005834Y-119948204D01*
X162009483Y-119913073D01*
X162009798Y-119910610D01*
X162010466Y-119906090D01*
X162011745Y-119898074D01*
X162013593Y-119886799D01*
X162015971Y-119872506D01*
X162018838Y-119855431D01*
X162022154Y-119835814D01*
X162025877Y-119813893D01*
X162029968Y-119789906D01*
X162034385Y-119764092D01*
X162039089Y-119736690D01*
X162044039Y-119707937D01*
X162049193Y-119678072D01*
X162054512Y-119647334D01*
X162057139Y-119632187D01*
X162062461Y-119601486D01*
X162067601Y-119571781D01*
X162072522Y-119543289D01*
X162077187Y-119516228D01*
X162081559Y-119490815D01*
X162085601Y-119467267D01*
X162089275Y-119445803D01*
X162092544Y-119426639D01*
X162095370Y-119409993D01*
X162097718Y-119396084D01*
X162099549Y-119385127D01*
X162100827Y-119377342D01*
X162101514Y-119372945D01*
X162101627Y-119372026D01*
X162101506Y-119370957D01*
X162100876Y-119370113D01*
X162099335Y-119369468D01*
X162096482Y-119368996D01*
X162091914Y-119368670D01*
X162085230Y-119368462D01*
X162076028Y-119368346D01*
X162063907Y-119368296D01*
X162048465Y-119368284D01*
X161989349Y-119368284D01*
X161990348Y-119363071D01*
X161990936Y-119359921D01*
X161992108Y-119353557D01*
X161993771Y-119344499D01*
X161995830Y-119333262D01*
X161998190Y-119320363D01*
X162000756Y-119306320D01*
X162001469Y-119302415D01*
X162011589Y-119246971D01*
X162068485Y-119246971D01*
X162125380Y-119246970D01*
X162145224Y-119133239D01*
X162165067Y-119019508D01*
X162334848Y-119019508D01*
X162333834Y-119023773D01*
G36*
X163097524Y-119210320D02*
X163116762Y-119210863D01*
X163134461Y-119211708D01*
X163149861Y-119212855D01*
X163156485Y-119213544D01*
X163186211Y-119217623D01*
X163216505Y-119222905D01*
X163246652Y-119229213D01*
X163275936Y-119236371D01*
X163303641Y-119244203D01*
X163329053Y-119252532D01*
X163351455Y-119261184D01*
X163353296Y-119261971D01*
X163358622Y-119264470D01*
X163361161Y-119266532D01*
X163361684Y-119269034D01*
X163361345Y-119271136D01*
X163360922Y-119273456D01*
X163359875Y-119279347D01*
X163358234Y-119288642D01*
X163356027Y-119301179D01*
X163353283Y-119316792D01*
X163350030Y-119335316D01*
X163346299Y-119356588D01*
X163342116Y-119380442D01*
X163337513Y-119406714D01*
X163332516Y-119435239D01*
X163327155Y-119465853D01*
X163321460Y-119498391D01*
X163315458Y-119532689D01*
X163309178Y-119568582D01*
X163302650Y-119605906D01*
X163295902Y-119644495D01*
X163288963Y-119684186D01*
X163282554Y-119720851D01*
X163275470Y-119761382D01*
X163268551Y-119800953D01*
X163261826Y-119839400D01*
X163255325Y-119876559D01*
X163249075Y-119912266D01*
X163243107Y-119946356D01*
X163237447Y-119978666D01*
X163232127Y-120009032D01*
X163227173Y-120037289D01*
X163222615Y-120063273D01*
X163218482Y-120086821D01*
X163214802Y-120107767D01*
X163211604Y-120125949D01*
X163208917Y-120141201D01*
X163206770Y-120153360D01*
X163205192Y-120162262D01*
X163204210Y-120167742D01*
X163203861Y-120169616D01*
X163202853Y-120173881D01*
X163062656Y-120173881D01*
X163062656Y-120117015D01*
X163057833Y-120117015D01*
X163053979Y-120118190D01*
X163047749Y-120121517D01*
X163039661Y-120126702D01*
X163034612Y-120130235D01*
X163005103Y-120149134D01*
X162973905Y-120164685D01*
X162941186Y-120176845D01*
X162907118Y-120185570D01*
X162871869Y-120190818D01*
X162835608Y-120192544D01*
X162798740Y-120190727D01*
X162770315Y-120186786D01*
X162743795Y-120180689D01*
X162719529Y-120172561D01*
X162697864Y-120162527D01*
X162679149Y-120150711D01*
X162672806Y-120145715D01*
X162656592Y-120130369D01*
X162642427Y-120113176D01*
X162630202Y-120093887D01*
X162619811Y-120072251D01*
X162611147Y-120048016D01*
X162604102Y-120020932D01*
X162598570Y-119990748D01*
X162595117Y-119963791D01*
X162593242Y-119937692D01*
X162592822Y-119908380D01*
X162593050Y-119901057D01*
X162765043Y-119901057D01*
X162766883Y-119931671D01*
X162770590Y-119959340D01*
X162776160Y-119983959D01*
X162783589Y-120005426D01*
X162788270Y-120015476D01*
X162796366Y-120028602D01*
X162806563Y-120041160D01*
X162817986Y-120052238D01*
X162829756Y-120060924D01*
X162834556Y-120063621D01*
X162852404Y-120070846D01*
X162872856Y-120075983D01*
X162895309Y-120078964D01*
X162919160Y-120079721D01*
X162943807Y-120078188D01*
X162953664Y-120076931D01*
X162983173Y-120070945D01*
X163012912Y-120061705D01*
X163038217Y-120051239D01*
X163056426Y-120042774D01*
X163062499Y-120008339D01*
X163063484Y-120002758D01*
X163065089Y-119993661D01*
X163067277Y-119981265D01*
X163070008Y-119965787D01*
X163073246Y-119947444D01*
X163076951Y-119926453D01*
X163081086Y-119903031D01*
X163085611Y-119877394D01*
X163090489Y-119849761D01*
X163095681Y-119820348D01*
X163101149Y-119789373D01*
X163106855Y-119757051D01*
X163112760Y-119723601D01*
X163118826Y-119689239D01*
X163125014Y-119654183D01*
X163125961Y-119648821D01*
X163132056Y-119614263D01*
X163137963Y-119580709D01*
X163143648Y-119548350D01*
X163149080Y-119517376D01*
X163154224Y-119487978D01*
X163159047Y-119460347D01*
X163163517Y-119434672D01*
X163167601Y-119411144D01*
X163171265Y-119389954D01*
X163174477Y-119371291D01*
X163177203Y-119355347D01*
X163179411Y-119342312D01*
X163181067Y-119332377D01*
X163182138Y-119325731D01*
X163182591Y-119322565D01*
X163182600Y-119322317D01*
X163180546Y-119321901D01*
X163175193Y-119321561D01*
X163167031Y-119321296D01*
X163156552Y-119321105D01*
X163144245Y-119320986D01*
X163130601Y-119320937D01*
X163116112Y-119320957D01*
X163101268Y-119321043D01*
X163086559Y-119321195D01*
X163072477Y-119321409D01*
X163059513Y-119321685D01*
X163048156Y-119322022D01*
X163038899Y-119322416D01*
X163032511Y-119322841D01*
X163006760Y-119326282D01*
X162983686Y-119331946D01*
X162962724Y-119340086D01*
X162943312Y-119350958D01*
X162924885Y-119364815D01*
X162910996Y-119377698D01*
X162902481Y-119386759D01*
X162893690Y-119396997D01*
X162885744Y-119407066D01*
X162880960Y-119413776D01*
X162874660Y-119423922D01*
X162867416Y-119436736D01*
X162859661Y-119451351D01*
X162851827Y-119466902D01*
X162844345Y-119482524D01*
X162837647Y-119497351D01*
X162832165Y-119510517D01*
X162830424Y-119515084D01*
X162821551Y-119541288D01*
X162812874Y-119571147D01*
X162804424Y-119604529D01*
X162796232Y-119641301D01*
X162788326Y-119681332D01*
X162780738Y-119724489D01*
X162776451Y-119751179D01*
X162770774Y-119792556D01*
X162766984Y-119831397D01*
X162765075Y-119867598D01*
X162765043Y-119901057D01*
X162593050Y-119901057D01*
X162593827Y-119876128D01*
X162596230Y-119841214D01*
X162599999Y-119803911D01*
X162605106Y-119764494D01*
X162611523Y-119723238D01*
X162619218Y-119680419D01*
X162628164Y-119636311D01*
X162631637Y-119620388D01*
X162643713Y-119570613D01*
X162657050Y-119524391D01*
X162671661Y-119481697D01*
X162687558Y-119442506D01*
X162704754Y-119406791D01*
X162723260Y-119374528D01*
X162743089Y-119345691D01*
X162764254Y-119320253D01*
X162786361Y-119298546D01*
X162809202Y-119280023D01*
X162833095Y-119263959D01*
X162858430Y-119250194D01*
X162885599Y-119238564D01*
X162914992Y-119228910D01*
X162946999Y-119221069D01*
X162982011Y-119214880D01*
X162992323Y-119213432D01*
X163004841Y-119212153D01*
X163020378Y-119211178D01*
X163038175Y-119210508D01*
X163057471Y-119210142D01*
X163077507Y-119210079D01*
X163097524Y-119210320D01*
X163097524Y-119210320D01*
G37*
X163097524Y-119210320D02*
X163116762Y-119210863D01*
X163134461Y-119211708D01*
X163149861Y-119212855D01*
X163156485Y-119213544D01*
X163186211Y-119217623D01*
X163216505Y-119222905D01*
X163246652Y-119229213D01*
X163275936Y-119236371D01*
X163303641Y-119244203D01*
X163329053Y-119252532D01*
X163351455Y-119261184D01*
X163353296Y-119261971D01*
X163358622Y-119264470D01*
X163361161Y-119266532D01*
X163361684Y-119269034D01*
X163361345Y-119271136D01*
X163360922Y-119273456D01*
X163359875Y-119279347D01*
X163358234Y-119288642D01*
X163356027Y-119301179D01*
X163353283Y-119316792D01*
X163350030Y-119335316D01*
X163346299Y-119356588D01*
X163342116Y-119380442D01*
X163337513Y-119406714D01*
X163332516Y-119435239D01*
X163327155Y-119465853D01*
X163321460Y-119498391D01*
X163315458Y-119532689D01*
X163309178Y-119568582D01*
X163302650Y-119605906D01*
X163295902Y-119644495D01*
X163288963Y-119684186D01*
X163282554Y-119720851D01*
X163275470Y-119761382D01*
X163268551Y-119800953D01*
X163261826Y-119839400D01*
X163255325Y-119876559D01*
X163249075Y-119912266D01*
X163243107Y-119946356D01*
X163237447Y-119978666D01*
X163232127Y-120009032D01*
X163227173Y-120037289D01*
X163222615Y-120063273D01*
X163218482Y-120086821D01*
X163214802Y-120107767D01*
X163211604Y-120125949D01*
X163208917Y-120141201D01*
X163206770Y-120153360D01*
X163205192Y-120162262D01*
X163204210Y-120167742D01*
X163203861Y-120169616D01*
X163202853Y-120173881D01*
X163062656Y-120173881D01*
X163062656Y-120117015D01*
X163057833Y-120117015D01*
X163053979Y-120118190D01*
X163047749Y-120121517D01*
X163039661Y-120126702D01*
X163034612Y-120130235D01*
X163005103Y-120149134D01*
X162973905Y-120164685D01*
X162941186Y-120176845D01*
X162907118Y-120185570D01*
X162871869Y-120190818D01*
X162835608Y-120192544D01*
X162798740Y-120190727D01*
X162770315Y-120186786D01*
X162743795Y-120180689D01*
X162719529Y-120172561D01*
X162697864Y-120162527D01*
X162679149Y-120150711D01*
X162672806Y-120145715D01*
X162656592Y-120130369D01*
X162642427Y-120113176D01*
X162630202Y-120093887D01*
X162619811Y-120072251D01*
X162611147Y-120048016D01*
X162604102Y-120020932D01*
X162598570Y-119990748D01*
X162595117Y-119963791D01*
X162593242Y-119937692D01*
X162592822Y-119908380D01*
X162593050Y-119901057D01*
X162765043Y-119901057D01*
X162766883Y-119931671D01*
X162770590Y-119959340D01*
X162776160Y-119983959D01*
X162783589Y-120005426D01*
X162788270Y-120015476D01*
X162796366Y-120028602D01*
X162806563Y-120041160D01*
X162817986Y-120052238D01*
X162829756Y-120060924D01*
X162834556Y-120063621D01*
X162852404Y-120070846D01*
X162872856Y-120075983D01*
X162895309Y-120078964D01*
X162919160Y-120079721D01*
X162943807Y-120078188D01*
X162953664Y-120076931D01*
X162983173Y-120070945D01*
X163012912Y-120061705D01*
X163038217Y-120051239D01*
X163056426Y-120042774D01*
X163062499Y-120008339D01*
X163063484Y-120002758D01*
X163065089Y-119993661D01*
X163067277Y-119981265D01*
X163070008Y-119965787D01*
X163073246Y-119947444D01*
X163076951Y-119926453D01*
X163081086Y-119903031D01*
X163085611Y-119877394D01*
X163090489Y-119849761D01*
X163095681Y-119820348D01*
X163101149Y-119789373D01*
X163106855Y-119757051D01*
X163112760Y-119723601D01*
X163118826Y-119689239D01*
X163125014Y-119654183D01*
X163125961Y-119648821D01*
X163132056Y-119614263D01*
X163137963Y-119580709D01*
X163143648Y-119548350D01*
X163149080Y-119517376D01*
X163154224Y-119487978D01*
X163159047Y-119460347D01*
X163163517Y-119434672D01*
X163167601Y-119411144D01*
X163171265Y-119389954D01*
X163174477Y-119371291D01*
X163177203Y-119355347D01*
X163179411Y-119342312D01*
X163181067Y-119332377D01*
X163182138Y-119325731D01*
X163182591Y-119322565D01*
X163182600Y-119322317D01*
X163180546Y-119321901D01*
X163175193Y-119321561D01*
X163167031Y-119321296D01*
X163156552Y-119321105D01*
X163144245Y-119320986D01*
X163130601Y-119320937D01*
X163116112Y-119320957D01*
X163101268Y-119321043D01*
X163086559Y-119321195D01*
X163072477Y-119321409D01*
X163059513Y-119321685D01*
X163048156Y-119322022D01*
X163038899Y-119322416D01*
X163032511Y-119322841D01*
X163006760Y-119326282D01*
X162983686Y-119331946D01*
X162962724Y-119340086D01*
X162943312Y-119350958D01*
X162924885Y-119364815D01*
X162910996Y-119377698D01*
X162902481Y-119386759D01*
X162893690Y-119396997D01*
X162885744Y-119407066D01*
X162880960Y-119413776D01*
X162874660Y-119423922D01*
X162867416Y-119436736D01*
X162859661Y-119451351D01*
X162851827Y-119466902D01*
X162844345Y-119482524D01*
X162837647Y-119497351D01*
X162832165Y-119510517D01*
X162830424Y-119515084D01*
X162821551Y-119541288D01*
X162812874Y-119571147D01*
X162804424Y-119604529D01*
X162796232Y-119641301D01*
X162788326Y-119681332D01*
X162780738Y-119724489D01*
X162776451Y-119751179D01*
X162770774Y-119792556D01*
X162766984Y-119831397D01*
X162765075Y-119867598D01*
X162765043Y-119901057D01*
X162593050Y-119901057D01*
X162593827Y-119876128D01*
X162596230Y-119841214D01*
X162599999Y-119803911D01*
X162605106Y-119764494D01*
X162611523Y-119723238D01*
X162619218Y-119680419D01*
X162628164Y-119636311D01*
X162631637Y-119620388D01*
X162643713Y-119570613D01*
X162657050Y-119524391D01*
X162671661Y-119481697D01*
X162687558Y-119442506D01*
X162704754Y-119406791D01*
X162723260Y-119374528D01*
X162743089Y-119345691D01*
X162764254Y-119320253D01*
X162786361Y-119298546D01*
X162809202Y-119280023D01*
X162833095Y-119263959D01*
X162858430Y-119250194D01*
X162885599Y-119238564D01*
X162914992Y-119228910D01*
X162946999Y-119221069D01*
X162982011Y-119214880D01*
X162992323Y-119213432D01*
X163004841Y-119212153D01*
X163020378Y-119211178D01*
X163038175Y-119210508D01*
X163057471Y-119210142D01*
X163077507Y-119210079D01*
X163097524Y-119210320D01*
G36*
X163941984Y-119210278D02*
X163959647Y-119210658D01*
X163976186Y-119211308D01*
X163990784Y-119212223D01*
X164002625Y-119213397D01*
X164003260Y-119213480D01*
X164022477Y-119216260D01*
X164042783Y-119219617D01*
X164062970Y-119223330D01*
X164081829Y-119227175D01*
X164098153Y-119230930D01*
X164098559Y-119231031D01*
X164108916Y-119233732D01*
X164119420Y-119236679D01*
X164129359Y-119239650D01*
X164138024Y-119242422D01*
X164144706Y-119244774D01*
X164148695Y-119246484D01*
X164149354Y-119246916D01*
X164149515Y-119249124D01*
X164149073Y-119254468D01*
X164148101Y-119262352D01*
X164146673Y-119272182D01*
X164144864Y-119283364D01*
X164144655Y-119284591D01*
X164138445Y-119320896D01*
X164046473Y-119320912D01*
X164027077Y-119320955D01*
X164007961Y-119321072D01*
X163989637Y-119321253D01*
X163972619Y-119321492D01*
X163957421Y-119321779D01*
X163944557Y-119322107D01*
X163934540Y-119322468D01*
X163928716Y-119322788D01*
X163898980Y-119326362D01*
X163871756Y-119332677D01*
X163846824Y-119341852D01*
X163823963Y-119354002D01*
X163802952Y-119369242D01*
X163783570Y-119387689D01*
X163766844Y-119407782D01*
X163753160Y-119427428D01*
X163740449Y-119448691D01*
X163728631Y-119471807D01*
X163717624Y-119497010D01*
X163707350Y-119524538D01*
X163697728Y-119554624D01*
X163688677Y-119587506D01*
X163680119Y-119623418D01*
X163671972Y-119662596D01*
X163664157Y-119705276D01*
X163662650Y-119714111D01*
X163657885Y-119743151D01*
X163653944Y-119769001D01*
X163650779Y-119792161D01*
X163648341Y-119813132D01*
X163646582Y-119832413D01*
X163645455Y-119850505D01*
X163644912Y-119867907D01*
X163644904Y-119885120D01*
X163645155Y-119896187D01*
X163646756Y-119924275D01*
X163649779Y-119949123D01*
X163654319Y-119971041D01*
X163660469Y-119990342D01*
X163668325Y-120007337D01*
X163677980Y-120022335D01*
X163686601Y-120032612D01*
X163698915Y-120044596D01*
X163711481Y-120054150D01*
X163725124Y-120061711D01*
X163740669Y-120067721D01*
X163758942Y-120072617D01*
X163763755Y-120073660D01*
X163772162Y-120075214D01*
X163781612Y-120076549D01*
X163792413Y-120077679D01*
X163804871Y-120078616D01*
X163819291Y-120079374D01*
X163835980Y-120079967D01*
X163855243Y-120080408D01*
X163877388Y-120080710D01*
X163902719Y-120080886D01*
X163930569Y-120080951D01*
X164022265Y-120081000D01*
X164021279Y-120086213D01*
X164020640Y-120089788D01*
X164019500Y-120096353D01*
X164017988Y-120105162D01*
X164016231Y-120115466D01*
X164014927Y-120123164D01*
X164009559Y-120154902D01*
X163998141Y-120158672D01*
X163984606Y-120162720D01*
X163968051Y-120166989D01*
X163949229Y-120171328D01*
X163928895Y-120175583D01*
X163907800Y-120179602D01*
X163886699Y-120183233D01*
X163866344Y-120186324D01*
X163852142Y-120188182D01*
X163843145Y-120189051D01*
X163831470Y-120189860D01*
X163817880Y-120190588D01*
X163803135Y-120191210D01*
X163787999Y-120191703D01*
X163773231Y-120192045D01*
X163759595Y-120192212D01*
X163747852Y-120192181D01*
X163738764Y-120191930D01*
X163735567Y-120191723D01*
X163704737Y-120188664D01*
X163677288Y-120184937D01*
X163652847Y-120180417D01*
X163631042Y-120174975D01*
X163611500Y-120168486D01*
X163593851Y-120160822D01*
X163577721Y-120151857D01*
X163562738Y-120141463D01*
X163548530Y-120129514D01*
X163545905Y-120127074D01*
X163530309Y-120110525D01*
X163516846Y-120092192D01*
X163505372Y-120071756D01*
X163495740Y-120048897D01*
X163487807Y-120023293D01*
X163481428Y-119994625D01*
X163478713Y-119978642D01*
X163477003Y-119964487D01*
X163475709Y-119947396D01*
X163474844Y-119928204D01*
X163474419Y-119907745D01*
X163474447Y-119886852D01*
X163474940Y-119866361D01*
X163475911Y-119847105D01*
X163476645Y-119837426D01*
X163480138Y-119803396D01*
X163484890Y-119766786D01*
X163490737Y-119728528D01*
X163497516Y-119689556D01*
X163505061Y-119650801D01*
X163513211Y-119613198D01*
X163521800Y-119577680D01*
X163523256Y-119572053D01*
X163536860Y-119524570D01*
X163551938Y-119480573D01*
X163568494Y-119440053D01*
X163586534Y-119403000D01*
X163606066Y-119369404D01*
X163627094Y-119339257D01*
X163649624Y-119312548D01*
X163673662Y-119289269D01*
X163699214Y-119269408D01*
X163716605Y-119258347D01*
X163739025Y-119246800D01*
X163764527Y-119236439D01*
X163792541Y-119227440D01*
X163822494Y-119219979D01*
X163853816Y-119214231D01*
X163865410Y-119212603D01*
X163876435Y-119211557D01*
X163890423Y-119210807D01*
X163906554Y-119210347D01*
X163924014Y-119210172D01*
X163941984Y-119210278D01*
X163941984Y-119210278D01*
G37*
X163941984Y-119210278D02*
X163959647Y-119210658D01*
X163976186Y-119211308D01*
X163990784Y-119212223D01*
X164002625Y-119213397D01*
X164003260Y-119213480D01*
X164022477Y-119216260D01*
X164042783Y-119219617D01*
X164062970Y-119223330D01*
X164081829Y-119227175D01*
X164098153Y-119230930D01*
X164098559Y-119231031D01*
X164108916Y-119233732D01*
X164119420Y-119236679D01*
X164129359Y-119239650D01*
X164138024Y-119242422D01*
X164144706Y-119244774D01*
X164148695Y-119246484D01*
X164149354Y-119246916D01*
X164149515Y-119249124D01*
X164149073Y-119254468D01*
X164148101Y-119262352D01*
X164146673Y-119272182D01*
X164144864Y-119283364D01*
X164144655Y-119284591D01*
X164138445Y-119320896D01*
X164046473Y-119320912D01*
X164027077Y-119320955D01*
X164007961Y-119321072D01*
X163989637Y-119321253D01*
X163972619Y-119321492D01*
X163957421Y-119321779D01*
X163944557Y-119322107D01*
X163934540Y-119322468D01*
X163928716Y-119322788D01*
X163898980Y-119326362D01*
X163871756Y-119332677D01*
X163846824Y-119341852D01*
X163823963Y-119354002D01*
X163802952Y-119369242D01*
X163783570Y-119387689D01*
X163766844Y-119407782D01*
X163753160Y-119427428D01*
X163740449Y-119448691D01*
X163728631Y-119471807D01*
X163717624Y-119497010D01*
X163707350Y-119524538D01*
X163697728Y-119554624D01*
X163688677Y-119587506D01*
X163680119Y-119623418D01*
X163671972Y-119662596D01*
X163664157Y-119705276D01*
X163662650Y-119714111D01*
X163657885Y-119743151D01*
X163653944Y-119769001D01*
X163650779Y-119792161D01*
X163648341Y-119813132D01*
X163646582Y-119832413D01*
X163645455Y-119850505D01*
X163644912Y-119867907D01*
X163644904Y-119885120D01*
X163645155Y-119896187D01*
X163646756Y-119924275D01*
X163649779Y-119949123D01*
X163654319Y-119971041D01*
X163660469Y-119990342D01*
X163668325Y-120007337D01*
X163677980Y-120022335D01*
X163686601Y-120032612D01*
X163698915Y-120044596D01*
X163711481Y-120054150D01*
X163725124Y-120061711D01*
X163740669Y-120067721D01*
X163758942Y-120072617D01*
X163763755Y-120073660D01*
X163772162Y-120075214D01*
X163781612Y-120076549D01*
X163792413Y-120077679D01*
X163804871Y-120078616D01*
X163819291Y-120079374D01*
X163835980Y-120079967D01*
X163855243Y-120080408D01*
X163877388Y-120080710D01*
X163902719Y-120080886D01*
X163930569Y-120080951D01*
X164022265Y-120081000D01*
X164021279Y-120086213D01*
X164020640Y-120089788D01*
X164019500Y-120096353D01*
X164017988Y-120105162D01*
X164016231Y-120115466D01*
X164014927Y-120123164D01*
X164009559Y-120154902D01*
X163998141Y-120158672D01*
X163984606Y-120162720D01*
X163968051Y-120166989D01*
X163949229Y-120171328D01*
X163928895Y-120175583D01*
X163907800Y-120179602D01*
X163886699Y-120183233D01*
X163866344Y-120186324D01*
X163852142Y-120188182D01*
X163843145Y-120189051D01*
X163831470Y-120189860D01*
X163817880Y-120190588D01*
X163803135Y-120191210D01*
X163787999Y-120191703D01*
X163773231Y-120192045D01*
X163759595Y-120192212D01*
X163747852Y-120192181D01*
X163738764Y-120191930D01*
X163735567Y-120191723D01*
X163704737Y-120188664D01*
X163677288Y-120184937D01*
X163652847Y-120180417D01*
X163631042Y-120174975D01*
X163611500Y-120168486D01*
X163593851Y-120160822D01*
X163577721Y-120151857D01*
X163562738Y-120141463D01*
X163548530Y-120129514D01*
X163545905Y-120127074D01*
X163530309Y-120110525D01*
X163516846Y-120092192D01*
X163505372Y-120071756D01*
X163495740Y-120048897D01*
X163487807Y-120023293D01*
X163481428Y-119994625D01*
X163478713Y-119978642D01*
X163477003Y-119964487D01*
X163475709Y-119947396D01*
X163474844Y-119928204D01*
X163474419Y-119907745D01*
X163474447Y-119886852D01*
X163474940Y-119866361D01*
X163475911Y-119847105D01*
X163476645Y-119837426D01*
X163480138Y-119803396D01*
X163484890Y-119766786D01*
X163490737Y-119728528D01*
X163497516Y-119689556D01*
X163505061Y-119650801D01*
X163513211Y-119613198D01*
X163521800Y-119577680D01*
X163523256Y-119572053D01*
X163536860Y-119524570D01*
X163551938Y-119480573D01*
X163568494Y-119440053D01*
X163586534Y-119403000D01*
X163606066Y-119369404D01*
X163627094Y-119339257D01*
X163649624Y-119312548D01*
X163673662Y-119289269D01*
X163699214Y-119269408D01*
X163716605Y-119258347D01*
X163739025Y-119246800D01*
X163764527Y-119236439D01*
X163792541Y-119227440D01*
X163822494Y-119219979D01*
X163853816Y-119214231D01*
X163865410Y-119212603D01*
X163876435Y-119211557D01*
X163890423Y-119210807D01*
X163906554Y-119210347D01*
X163924014Y-119210172D01*
X163941984Y-119210278D01*
G36*
X157845429Y-118854123D02*
X157844857Y-118857264D01*
X157843747Y-118863632D01*
X157842186Y-118872718D01*
X157840262Y-118884010D01*
X157838061Y-118896997D01*
X157835671Y-118911169D01*
X157834825Y-118916202D01*
X157832398Y-118930605D01*
X157830134Y-118943947D01*
X157828121Y-118955729D01*
X157826444Y-118965451D01*
X157825190Y-118972611D01*
X157824443Y-118976709D01*
X157824316Y-118977332D01*
X157823360Y-118981597D01*
X157350337Y-118981597D01*
X157309145Y-119211429D01*
X157303950Y-119240435D01*
X157298945Y-119268420D01*
X157294171Y-119295156D01*
X157289668Y-119320415D01*
X157285476Y-119343969D01*
X157281636Y-119365590D01*
X157278189Y-119385049D01*
X157275174Y-119402119D01*
X157272632Y-119416571D01*
X157270604Y-119428178D01*
X157269129Y-119436710D01*
X157268249Y-119441940D01*
X157267999Y-119443631D01*
X157268703Y-119444024D01*
X157270922Y-119444375D01*
X157274836Y-119444684D01*
X157280627Y-119444954D01*
X157288475Y-119445188D01*
X157298563Y-119445387D01*
X157311070Y-119445554D01*
X157326179Y-119445691D01*
X157344070Y-119445800D01*
X157364926Y-119445883D01*
X157388926Y-119445942D01*
X157416252Y-119445979D01*
X157447086Y-119445998D01*
X157466127Y-119446000D01*
X157499011Y-119446009D01*
X157528286Y-119446035D01*
X157554132Y-119446082D01*
X157576730Y-119446151D01*
X157596263Y-119446244D01*
X157612910Y-119446364D01*
X157626853Y-119446514D01*
X157638274Y-119446694D01*
X157647354Y-119446908D01*
X157654273Y-119447156D01*
X157659214Y-119447443D01*
X157662356Y-119447769D01*
X157663883Y-119448137D01*
X157664098Y-119448370D01*
X157663758Y-119450745D01*
X157662841Y-119456401D01*
X157661424Y-119464883D01*
X157659586Y-119475738D01*
X157657401Y-119488511D01*
X157654948Y-119502748D01*
X157653120Y-119513291D01*
X157642252Y-119575844D01*
X157443333Y-119576791D01*
X157244414Y-119577739D01*
X157204219Y-119808045D01*
X157198887Y-119838597D01*
X157193561Y-119869115D01*
X157188297Y-119899275D01*
X157183151Y-119928756D01*
X157178181Y-119957235D01*
X157173441Y-119984390D01*
X157168989Y-120009897D01*
X157164881Y-120033436D01*
X157161172Y-120054682D01*
X157157920Y-120073314D01*
X157155180Y-120089010D01*
X157153009Y-120101447D01*
X157152194Y-120106116D01*
X157140364Y-120173881D01*
X156970903Y-120173881D01*
X156973444Y-120160138D01*
X156973962Y-120157241D01*
X156975111Y-120150748D01*
X156976866Y-120140797D01*
X156979203Y-120127529D01*
X156982098Y-120111080D01*
X156985526Y-120091589D01*
X156989463Y-120069196D01*
X156993885Y-120044038D01*
X156998767Y-120016254D01*
X157004085Y-119985982D01*
X157009815Y-119953361D01*
X157015932Y-119918530D01*
X157022412Y-119881626D01*
X157029231Y-119842789D01*
X157036364Y-119802157D01*
X157043788Y-119759868D01*
X157051477Y-119716061D01*
X157059407Y-119670874D01*
X157067555Y-119624447D01*
X157075895Y-119576916D01*
X157084404Y-119528422D01*
X157088887Y-119502866D01*
X157097457Y-119454021D01*
X157105864Y-119406113D01*
X157114082Y-119359278D01*
X157122090Y-119313652D01*
X157129862Y-119269372D01*
X157137375Y-119226573D01*
X157144604Y-119185392D01*
X157151527Y-119145964D01*
X157158118Y-119108427D01*
X157164355Y-119072915D01*
X157170213Y-119039564D01*
X157175668Y-119008512D01*
X157180697Y-118979894D01*
X157185275Y-118953846D01*
X157189379Y-118930505D01*
X157192984Y-118910006D01*
X157196068Y-118892485D01*
X157198605Y-118878079D01*
X157200572Y-118866923D01*
X157201945Y-118859154D01*
X157202701Y-118854908D01*
X157202844Y-118854123D01*
X157203898Y-118848911D01*
X157846480Y-118848911D01*
X157845429Y-118854123D01*
X157845429Y-118854123D01*
G37*
X157845429Y-118854123D02*
X157844857Y-118857264D01*
X157843747Y-118863632D01*
X157842186Y-118872718D01*
X157840262Y-118884010D01*
X157838061Y-118896997D01*
X157835671Y-118911169D01*
X157834825Y-118916202D01*
X157832398Y-118930605D01*
X157830134Y-118943947D01*
X157828121Y-118955729D01*
X157826444Y-118965451D01*
X157825190Y-118972611D01*
X157824443Y-118976709D01*
X157824316Y-118977332D01*
X157823360Y-118981597D01*
X157350337Y-118981597D01*
X157309145Y-119211429D01*
X157303950Y-119240435D01*
X157298945Y-119268420D01*
X157294171Y-119295156D01*
X157289668Y-119320415D01*
X157285476Y-119343969D01*
X157281636Y-119365590D01*
X157278189Y-119385049D01*
X157275174Y-119402119D01*
X157272632Y-119416571D01*
X157270604Y-119428178D01*
X157269129Y-119436710D01*
X157268249Y-119441940D01*
X157267999Y-119443631D01*
X157268703Y-119444024D01*
X157270922Y-119444375D01*
X157274836Y-119444684D01*
X157280627Y-119444954D01*
X157288475Y-119445188D01*
X157298563Y-119445387D01*
X157311070Y-119445554D01*
X157326179Y-119445691D01*
X157344070Y-119445800D01*
X157364926Y-119445883D01*
X157388926Y-119445942D01*
X157416252Y-119445979D01*
X157447086Y-119445998D01*
X157466127Y-119446000D01*
X157499011Y-119446009D01*
X157528286Y-119446035D01*
X157554132Y-119446082D01*
X157576730Y-119446151D01*
X157596263Y-119446244D01*
X157612910Y-119446364D01*
X157626853Y-119446514D01*
X157638274Y-119446694D01*
X157647354Y-119446908D01*
X157654273Y-119447156D01*
X157659214Y-119447443D01*
X157662356Y-119447769D01*
X157663883Y-119448137D01*
X157664098Y-119448370D01*
X157663758Y-119450745D01*
X157662841Y-119456401D01*
X157661424Y-119464883D01*
X157659586Y-119475738D01*
X157657401Y-119488511D01*
X157654948Y-119502748D01*
X157653120Y-119513291D01*
X157642252Y-119575844D01*
X157443333Y-119576791D01*
X157244414Y-119577739D01*
X157204219Y-119808045D01*
X157198887Y-119838597D01*
X157193561Y-119869115D01*
X157188297Y-119899275D01*
X157183151Y-119928756D01*
X157178181Y-119957235D01*
X157173441Y-119984390D01*
X157168989Y-120009897D01*
X157164881Y-120033436D01*
X157161172Y-120054682D01*
X157157920Y-120073314D01*
X157155180Y-120089010D01*
X157153009Y-120101447D01*
X157152194Y-120106116D01*
X157140364Y-120173881D01*
X156970903Y-120173881D01*
X156973444Y-120160138D01*
X156973962Y-120157241D01*
X156975111Y-120150748D01*
X156976866Y-120140797D01*
X156979203Y-120127529D01*
X156982098Y-120111080D01*
X156985526Y-120091589D01*
X156989463Y-120069196D01*
X156993885Y-120044038D01*
X156998767Y-120016254D01*
X157004085Y-119985982D01*
X157009815Y-119953361D01*
X157015932Y-119918530D01*
X157022412Y-119881626D01*
X157029231Y-119842789D01*
X157036364Y-119802157D01*
X157043788Y-119759868D01*
X157051477Y-119716061D01*
X157059407Y-119670874D01*
X157067555Y-119624447D01*
X157075895Y-119576916D01*
X157084404Y-119528422D01*
X157088887Y-119502866D01*
X157097457Y-119454021D01*
X157105864Y-119406113D01*
X157114082Y-119359278D01*
X157122090Y-119313652D01*
X157129862Y-119269372D01*
X157137375Y-119226573D01*
X157144604Y-119185392D01*
X157151527Y-119145964D01*
X157158118Y-119108427D01*
X157164355Y-119072915D01*
X157170213Y-119039564D01*
X157175668Y-119008512D01*
X157180697Y-118979894D01*
X157185275Y-118953846D01*
X157189379Y-118930505D01*
X157192984Y-118910006D01*
X157196068Y-118892485D01*
X157198605Y-118878079D01*
X157200572Y-118866923D01*
X157201945Y-118859154D01*
X157202701Y-118854908D01*
X157202844Y-118854123D01*
X157203898Y-118848911D01*
X157846480Y-118848911D01*
X157845429Y-118854123D01*
G36*
X158121367Y-118848922D02*
X158138135Y-118848964D01*
X158151749Y-118849047D01*
X158162527Y-118849183D01*
X158170787Y-118849382D01*
X158176848Y-118849656D01*
X158181029Y-118850015D01*
X158183647Y-118850471D01*
X158185021Y-118851035D01*
X158185470Y-118851717D01*
X158185477Y-118851837D01*
X158185154Y-118853814D01*
X158184205Y-118859364D01*
X158182656Y-118868322D01*
X158180538Y-118880527D01*
X158177878Y-118895816D01*
X158174705Y-118914028D01*
X158171048Y-118934998D01*
X158166934Y-118958566D01*
X158162393Y-118984568D01*
X158157452Y-119012843D01*
X158152141Y-119043227D01*
X158146487Y-119075559D01*
X158140519Y-119109676D01*
X158134266Y-119145415D01*
X158127757Y-119182614D01*
X158121018Y-119221111D01*
X158114080Y-119260743D01*
X158106970Y-119301348D01*
X158099717Y-119342764D01*
X158092349Y-119384827D01*
X158084895Y-119427376D01*
X158077384Y-119470249D01*
X158069843Y-119513282D01*
X158062301Y-119556313D01*
X158054787Y-119599180D01*
X158047329Y-119641721D01*
X158039956Y-119683773D01*
X158032696Y-119725173D01*
X158025577Y-119765760D01*
X158018628Y-119805371D01*
X158011878Y-119843843D01*
X158005354Y-119881014D01*
X157999086Y-119916721D01*
X157993102Y-119950803D01*
X157987430Y-119983097D01*
X157982098Y-120013439D01*
X157977136Y-120041669D01*
X157972571Y-120067623D01*
X157968433Y-120091139D01*
X157964749Y-120112055D01*
X157961548Y-120130208D01*
X157958859Y-120145436D01*
X157956709Y-120157576D01*
X157955128Y-120166467D01*
X157954904Y-120167720D01*
X157953802Y-120173881D01*
X157869662Y-120173881D01*
X157849540Y-120173872D01*
X157832886Y-120173837D01*
X157819374Y-120173763D01*
X157808682Y-120173639D01*
X157800485Y-120173452D01*
X157794458Y-120173191D01*
X157790279Y-120172843D01*
X157787624Y-120172395D01*
X157786167Y-120171837D01*
X157785586Y-120171155D01*
X157785522Y-120170729D01*
X157785847Y-120168646D01*
X157786804Y-120162963D01*
X157788372Y-120153815D01*
X157790526Y-120141334D01*
X157793242Y-120125656D01*
X157796499Y-120106914D01*
X157800271Y-120085242D01*
X157804536Y-120060773D01*
X157809271Y-120033643D01*
X157814451Y-120003985D01*
X157820054Y-119971933D01*
X157826055Y-119937620D01*
X157832433Y-119901182D01*
X157839162Y-119862751D01*
X157846220Y-119822462D01*
X157853584Y-119780449D01*
X157861229Y-119736845D01*
X157869133Y-119691785D01*
X157877271Y-119645403D01*
X157885622Y-119597832D01*
X157894161Y-119549207D01*
X157901149Y-119509423D01*
X157909819Y-119460068D01*
X157918320Y-119411670D01*
X157926628Y-119364363D01*
X157934721Y-119318279D01*
X157942574Y-119273552D01*
X157950164Y-119230316D01*
X157957468Y-119188704D01*
X157964462Y-119148849D01*
X157971123Y-119110886D01*
X157977428Y-119074946D01*
X157983352Y-119041164D01*
X157988874Y-119009674D01*
X157993969Y-118980608D01*
X157998614Y-118954100D01*
X158002785Y-118930283D01*
X158006460Y-118909292D01*
X158009615Y-118891259D01*
X158012225Y-118876318D01*
X158014269Y-118864601D01*
X158015722Y-118856244D01*
X158016562Y-118851379D01*
X158016776Y-118850089D01*
X158018608Y-118849845D01*
X158023851Y-118849618D01*
X158032124Y-118849413D01*
X158043046Y-118849237D01*
X158056238Y-118849093D01*
X158071319Y-118848987D01*
X158087909Y-118848925D01*
X158101127Y-118848911D01*
X158121367Y-118848922D01*
X158121367Y-118848922D01*
G37*
X158121367Y-118848922D02*
X158138135Y-118848964D01*
X158151749Y-118849047D01*
X158162527Y-118849183D01*
X158170787Y-118849382D01*
X158176848Y-118849656D01*
X158181029Y-118850015D01*
X158183647Y-118850471D01*
X158185021Y-118851035D01*
X158185470Y-118851717D01*
X158185477Y-118851837D01*
X158185154Y-118853814D01*
X158184205Y-118859364D01*
X158182656Y-118868322D01*
X158180538Y-118880527D01*
X158177878Y-118895816D01*
X158174705Y-118914028D01*
X158171048Y-118934998D01*
X158166934Y-118958566D01*
X158162393Y-118984568D01*
X158157452Y-119012843D01*
X158152141Y-119043227D01*
X158146487Y-119075559D01*
X158140519Y-119109676D01*
X158134266Y-119145415D01*
X158127757Y-119182614D01*
X158121018Y-119221111D01*
X158114080Y-119260743D01*
X158106970Y-119301348D01*
X158099717Y-119342764D01*
X158092349Y-119384827D01*
X158084895Y-119427376D01*
X158077384Y-119470249D01*
X158069843Y-119513282D01*
X158062301Y-119556313D01*
X158054787Y-119599180D01*
X158047329Y-119641721D01*
X158039956Y-119683773D01*
X158032696Y-119725173D01*
X158025577Y-119765760D01*
X158018628Y-119805371D01*
X158011878Y-119843843D01*
X158005354Y-119881014D01*
X157999086Y-119916721D01*
X157993102Y-119950803D01*
X157987430Y-119983097D01*
X157982098Y-120013439D01*
X157977136Y-120041669D01*
X157972571Y-120067623D01*
X157968433Y-120091139D01*
X157964749Y-120112055D01*
X157961548Y-120130208D01*
X157958859Y-120145436D01*
X157956709Y-120157576D01*
X157955128Y-120166467D01*
X157954904Y-120167720D01*
X157953802Y-120173881D01*
X157869662Y-120173881D01*
X157849540Y-120173872D01*
X157832886Y-120173837D01*
X157819374Y-120173763D01*
X157808682Y-120173639D01*
X157800485Y-120173452D01*
X157794458Y-120173191D01*
X157790279Y-120172843D01*
X157787624Y-120172395D01*
X157786167Y-120171837D01*
X157785586Y-120171155D01*
X157785522Y-120170729D01*
X157785847Y-120168646D01*
X157786804Y-120162963D01*
X157788372Y-120153815D01*
X157790526Y-120141334D01*
X157793242Y-120125656D01*
X157796499Y-120106914D01*
X157800271Y-120085242D01*
X157804536Y-120060773D01*
X157809271Y-120033643D01*
X157814451Y-120003985D01*
X157820054Y-119971933D01*
X157826055Y-119937620D01*
X157832433Y-119901182D01*
X157839162Y-119862751D01*
X157846220Y-119822462D01*
X157853584Y-119780449D01*
X157861229Y-119736845D01*
X157869133Y-119691785D01*
X157877271Y-119645403D01*
X157885622Y-119597832D01*
X157894161Y-119549207D01*
X157901149Y-119509423D01*
X157909819Y-119460068D01*
X157918320Y-119411670D01*
X157926628Y-119364363D01*
X157934721Y-119318279D01*
X157942574Y-119273552D01*
X157950164Y-119230316D01*
X157957468Y-119188704D01*
X157964462Y-119148849D01*
X157971123Y-119110886D01*
X157977428Y-119074946D01*
X157983352Y-119041164D01*
X157988874Y-119009674D01*
X157993969Y-118980608D01*
X157998614Y-118954100D01*
X158002785Y-118930283D01*
X158006460Y-118909292D01*
X158009615Y-118891259D01*
X158012225Y-118876318D01*
X158014269Y-118864601D01*
X158015722Y-118856244D01*
X158016562Y-118851379D01*
X158016776Y-118850089D01*
X158018608Y-118849845D01*
X158023851Y-118849618D01*
X158032124Y-118849413D01*
X158043046Y-118849237D01*
X158056238Y-118849093D01*
X158071319Y-118848987D01*
X158087909Y-118848925D01*
X158101127Y-118848911D01*
X158121367Y-118848922D01*
G36*
X158427139Y-119228283D02*
X158442268Y-119228327D01*
X158458890Y-119228399D01*
X158471989Y-119228469D01*
X158556272Y-119228963D01*
X158473307Y-119700000D01*
X158465965Y-119741689D01*
X158458796Y-119782401D01*
X158451829Y-119821978D01*
X158445090Y-119860262D01*
X158438609Y-119897095D01*
X158432411Y-119932319D01*
X158426526Y-119965777D01*
X158420981Y-119997310D01*
X158415804Y-120026760D01*
X158411022Y-120053970D01*
X158406663Y-120078780D01*
X158402756Y-120101035D01*
X158399327Y-120120575D01*
X158396405Y-120137242D01*
X158394017Y-120150878D01*
X158392191Y-120161327D01*
X158390955Y-120168428D01*
X158390337Y-120172026D01*
X158390268Y-120172459D01*
X158388420Y-120172754D01*
X158383162Y-120173028D01*
X158374875Y-120173274D01*
X158363939Y-120173488D01*
X158350736Y-120173661D01*
X158335646Y-120173789D01*
X158319050Y-120173863D01*
X158305843Y-120173881D01*
X158284722Y-120173857D01*
X158267137Y-120173782D01*
X158252836Y-120173649D01*
X158241562Y-120173450D01*
X158233063Y-120173178D01*
X158227084Y-120172828D01*
X158223370Y-120172391D01*
X158221669Y-120171861D01*
X158221492Y-120171585D01*
X158221815Y-120169543D01*
X158222761Y-120163968D01*
X158224297Y-120155050D01*
X158226388Y-120142983D01*
X158229001Y-120127957D01*
X158232102Y-120110166D01*
X158235657Y-120089801D01*
X158239633Y-120067055D01*
X158243996Y-120042118D01*
X158248712Y-120015185D01*
X158253748Y-119986445D01*
X158259069Y-119956093D01*
X158264641Y-119924319D01*
X158270432Y-119891316D01*
X158276407Y-119857275D01*
X158282532Y-119822389D01*
X158288774Y-119786851D01*
X158295099Y-119750851D01*
X158301473Y-119714582D01*
X158307863Y-119678237D01*
X158314234Y-119642006D01*
X158320554Y-119606083D01*
X158326787Y-119570659D01*
X158332901Y-119535926D01*
X158338861Y-119502077D01*
X158344634Y-119469304D01*
X158350186Y-119437798D01*
X158355484Y-119407751D01*
X158360493Y-119379357D01*
X158365179Y-119352806D01*
X158369510Y-119328291D01*
X158373451Y-119306003D01*
X158376969Y-119286136D01*
X158380029Y-119268881D01*
X158382598Y-119254430D01*
X158384643Y-119242975D01*
X158386129Y-119234708D01*
X158387022Y-119229821D01*
X158387290Y-119228469D01*
X158389210Y-119228378D01*
X158394538Y-119228313D01*
X158402891Y-119228276D01*
X158413886Y-119228266D01*
X158427139Y-119228283D01*
X158427139Y-119228283D01*
G37*
X158427139Y-119228283D02*
X158442268Y-119228327D01*
X158458890Y-119228399D01*
X158471989Y-119228469D01*
X158556272Y-119228963D01*
X158473307Y-119700000D01*
X158465965Y-119741689D01*
X158458796Y-119782401D01*
X158451829Y-119821978D01*
X158445090Y-119860262D01*
X158438609Y-119897095D01*
X158432411Y-119932319D01*
X158426526Y-119965777D01*
X158420981Y-119997310D01*
X158415804Y-120026760D01*
X158411022Y-120053970D01*
X158406663Y-120078780D01*
X158402756Y-120101035D01*
X158399327Y-120120575D01*
X158396405Y-120137242D01*
X158394017Y-120150878D01*
X158392191Y-120161327D01*
X158390955Y-120168428D01*
X158390337Y-120172026D01*
X158390268Y-120172459D01*
X158388420Y-120172754D01*
X158383162Y-120173028D01*
X158374875Y-120173274D01*
X158363939Y-120173488D01*
X158350736Y-120173661D01*
X158335646Y-120173789D01*
X158319050Y-120173863D01*
X158305843Y-120173881D01*
X158284722Y-120173857D01*
X158267137Y-120173782D01*
X158252836Y-120173649D01*
X158241562Y-120173450D01*
X158233063Y-120173178D01*
X158227084Y-120172828D01*
X158223370Y-120172391D01*
X158221669Y-120171861D01*
X158221492Y-120171585D01*
X158221815Y-120169543D01*
X158222761Y-120163968D01*
X158224297Y-120155050D01*
X158226388Y-120142983D01*
X158229001Y-120127957D01*
X158232102Y-120110166D01*
X158235657Y-120089801D01*
X158239633Y-120067055D01*
X158243996Y-120042118D01*
X158248712Y-120015185D01*
X158253748Y-119986445D01*
X158259069Y-119956093D01*
X158264641Y-119924319D01*
X158270432Y-119891316D01*
X158276407Y-119857275D01*
X158282532Y-119822389D01*
X158288774Y-119786851D01*
X158295099Y-119750851D01*
X158301473Y-119714582D01*
X158307863Y-119678237D01*
X158314234Y-119642006D01*
X158320554Y-119606083D01*
X158326787Y-119570659D01*
X158332901Y-119535926D01*
X158338861Y-119502077D01*
X158344634Y-119469304D01*
X158350186Y-119437798D01*
X158355484Y-119407751D01*
X158360493Y-119379357D01*
X158365179Y-119352806D01*
X158369510Y-119328291D01*
X158373451Y-119306003D01*
X158376969Y-119286136D01*
X158380029Y-119268881D01*
X158382598Y-119254430D01*
X158384643Y-119242975D01*
X158386129Y-119234708D01*
X158387022Y-119229821D01*
X158387290Y-119228469D01*
X158389210Y-119228378D01*
X158394538Y-119228313D01*
X158402891Y-119228276D01*
X158413886Y-119228266D01*
X158427139Y-119228283D01*
G36*
X159925657Y-118849178D02*
X159933253Y-118849222D01*
X159937729Y-118849293D01*
X159938810Y-118849365D01*
X159938484Y-118851259D01*
X159937541Y-118856645D01*
X159936022Y-118865284D01*
X159933972Y-118876934D01*
X159931431Y-118891356D01*
X159928442Y-118908308D01*
X159925049Y-118927550D01*
X159921292Y-118948841D01*
X159917215Y-118971942D01*
X159912860Y-118996611D01*
X159908270Y-119022609D01*
X159903486Y-119049694D01*
X159902959Y-119052679D01*
X159898162Y-119079866D01*
X159893562Y-119105992D01*
X159889202Y-119130816D01*
X159885123Y-119154097D01*
X159881366Y-119175596D01*
X159877974Y-119195072D01*
X159874989Y-119212283D01*
X159872452Y-119226991D01*
X159870405Y-119238954D01*
X159868890Y-119247932D01*
X159867948Y-119253684D01*
X159867622Y-119255969D01*
X159867625Y-119255999D01*
X159869466Y-119255553D01*
X159873789Y-119253900D01*
X159879169Y-119251610D01*
X159888425Y-119247819D01*
X159900376Y-119243372D01*
X159914055Y-119238595D01*
X159928494Y-119233812D01*
X159942728Y-119229349D01*
X159955788Y-119225532D01*
X159960634Y-119224214D01*
X159989095Y-119217804D01*
X160018712Y-119213208D01*
X160048959Y-119210404D01*
X160079313Y-119209367D01*
X160109250Y-119210073D01*
X160138245Y-119212497D01*
X160165776Y-119216617D01*
X160191316Y-119222408D01*
X160214343Y-119229845D01*
X160229798Y-119236563D01*
X160248404Y-119247673D01*
X160265590Y-119261657D01*
X160280568Y-119277784D01*
X160291629Y-119293736D01*
X160299906Y-119310800D01*
X160306556Y-119330820D01*
X160311512Y-119353293D01*
X160314709Y-119377720D01*
X160316079Y-119403599D01*
X160315557Y-119430431D01*
X160313230Y-119456482D01*
X160312713Y-119459905D01*
X160311583Y-119466833D01*
X160309881Y-119477038D01*
X160307646Y-119490289D01*
X160304918Y-119506357D01*
X160301737Y-119525014D01*
X160298142Y-119546031D01*
X160294173Y-119569176D01*
X160289870Y-119594223D01*
X160285272Y-119620941D01*
X160280420Y-119649101D01*
X160275353Y-119678473D01*
X160270110Y-119708830D01*
X160264732Y-119739940D01*
X160259258Y-119771576D01*
X160253728Y-119803508D01*
X160248181Y-119835506D01*
X160242658Y-119867342D01*
X160237197Y-119898785D01*
X160231840Y-119929608D01*
X160226625Y-119959580D01*
X160221592Y-119988473D01*
X160216782Y-120016056D01*
X160212233Y-120042102D01*
X160207985Y-120066380D01*
X160204079Y-120088662D01*
X160200553Y-120108718D01*
X160197448Y-120126318D01*
X160194803Y-120141235D01*
X160192659Y-120153237D01*
X160191054Y-120162097D01*
X160190029Y-120167585D01*
X160189814Y-120168668D01*
X160188743Y-120173881D01*
X160019858Y-120173881D01*
X160021141Y-120165825D01*
X160021599Y-120163134D01*
X160022680Y-120156902D01*
X160024348Y-120147321D01*
X160026572Y-120134584D01*
X160029316Y-120118882D01*
X160032548Y-120100409D01*
X160036233Y-120079357D01*
X160040338Y-120055919D01*
X160044829Y-120030286D01*
X160049672Y-120002651D01*
X160054834Y-119973207D01*
X160060281Y-119942147D01*
X160065979Y-119909662D01*
X160071894Y-119875945D01*
X160077994Y-119841189D01*
X160081316Y-119822261D01*
X160088616Y-119780667D01*
X160095288Y-119742631D01*
X160101361Y-119707976D01*
X160106862Y-119676527D01*
X160111822Y-119648108D01*
X160116269Y-119622544D01*
X160120231Y-119599657D01*
X160123737Y-119579273D01*
X160126817Y-119561216D01*
X160129499Y-119545309D01*
X160131811Y-119531376D01*
X160133782Y-119519242D01*
X160135442Y-119508731D01*
X160136818Y-119499666D01*
X160137940Y-119491873D01*
X160138837Y-119485174D01*
X160139536Y-119479395D01*
X160140068Y-119474359D01*
X160140460Y-119469890D01*
X160140742Y-119465812D01*
X160140941Y-119461950D01*
X160141088Y-119458128D01*
X160141148Y-119456268D01*
X160141458Y-119444132D01*
X160141492Y-119434868D01*
X160141191Y-119427564D01*
X160140494Y-119421307D01*
X160139340Y-119415185D01*
X160138061Y-119409828D01*
X160135500Y-119400871D01*
X160132429Y-119391848D01*
X160129451Y-119384511D01*
X160129034Y-119383631D01*
X160123490Y-119374608D01*
X160115598Y-119364777D01*
X160106335Y-119355145D01*
X160096682Y-119346721D01*
X160087617Y-119340514D01*
X160086713Y-119340018D01*
X160072239Y-119333820D01*
X160054877Y-119328900D01*
X160035325Y-119325310D01*
X160014281Y-119323099D01*
X159992443Y-119322317D01*
X159970511Y-119323016D01*
X159949181Y-119325246D01*
X159930487Y-119328740D01*
X159914401Y-119332995D01*
X159897463Y-119338338D01*
X159881036Y-119344295D01*
X159866483Y-119350393D01*
X159861715Y-119352655D01*
X159848095Y-119359388D01*
X159845980Y-119371892D01*
X159845452Y-119374956D01*
X159844304Y-119381575D01*
X159842567Y-119391570D01*
X159840273Y-119404761D01*
X159837452Y-119420970D01*
X159834136Y-119440016D01*
X159830356Y-119461720D01*
X159826143Y-119485903D01*
X159821530Y-119512386D01*
X159816546Y-119540989D01*
X159811223Y-119571532D01*
X159805593Y-119603837D01*
X159799686Y-119637723D01*
X159793534Y-119673012D01*
X159787169Y-119709525D01*
X159780621Y-119747080D01*
X159775114Y-119778664D01*
X159706362Y-120172933D01*
X159621584Y-120173427D01*
X159536806Y-120173920D01*
X159537946Y-120167740D01*
X159538356Y-120165427D01*
X159539399Y-120159515D01*
X159541049Y-120150139D01*
X159543285Y-120137434D01*
X159546081Y-120121536D01*
X159549414Y-120102579D01*
X159553260Y-120080698D01*
X159557596Y-120056028D01*
X159562398Y-120028705D01*
X159567642Y-119998864D01*
X159573305Y-119966638D01*
X159579362Y-119932165D01*
X159585790Y-119895578D01*
X159592566Y-119857012D01*
X159599665Y-119816603D01*
X159607064Y-119774486D01*
X159614739Y-119730795D01*
X159622666Y-119685667D01*
X159630822Y-119639235D01*
X159639182Y-119591634D01*
X159647724Y-119543001D01*
X159654274Y-119505709D01*
X159769462Y-118849858D01*
X159854149Y-118849365D01*
X159871655Y-118849274D01*
X159887939Y-118849209D01*
X159902620Y-118849172D01*
X159915319Y-118849162D01*
X159925657Y-118849178D01*
X159925657Y-118849178D01*
G37*
X159925657Y-118849178D02*
X159933253Y-118849222D01*
X159937729Y-118849293D01*
X159938810Y-118849365D01*
X159938484Y-118851259D01*
X159937541Y-118856645D01*
X159936022Y-118865284D01*
X159933972Y-118876934D01*
X159931431Y-118891356D01*
X159928442Y-118908308D01*
X159925049Y-118927550D01*
X159921292Y-118948841D01*
X159917215Y-118971942D01*
X159912860Y-118996611D01*
X159908270Y-119022609D01*
X159903486Y-119049694D01*
X159902959Y-119052679D01*
X159898162Y-119079866D01*
X159893562Y-119105992D01*
X159889202Y-119130816D01*
X159885123Y-119154097D01*
X159881366Y-119175596D01*
X159877974Y-119195072D01*
X159874989Y-119212283D01*
X159872452Y-119226991D01*
X159870405Y-119238954D01*
X159868890Y-119247932D01*
X159867948Y-119253684D01*
X159867622Y-119255969D01*
X159867625Y-119255999D01*
X159869466Y-119255553D01*
X159873789Y-119253900D01*
X159879169Y-119251610D01*
X159888425Y-119247819D01*
X159900376Y-119243372D01*
X159914055Y-119238595D01*
X159928494Y-119233812D01*
X159942728Y-119229349D01*
X159955788Y-119225532D01*
X159960634Y-119224214D01*
X159989095Y-119217804D01*
X160018712Y-119213208D01*
X160048959Y-119210404D01*
X160079313Y-119209367D01*
X160109250Y-119210073D01*
X160138245Y-119212497D01*
X160165776Y-119216617D01*
X160191316Y-119222408D01*
X160214343Y-119229845D01*
X160229798Y-119236563D01*
X160248404Y-119247673D01*
X160265590Y-119261657D01*
X160280568Y-119277784D01*
X160291629Y-119293736D01*
X160299906Y-119310800D01*
X160306556Y-119330820D01*
X160311512Y-119353293D01*
X160314709Y-119377720D01*
X160316079Y-119403599D01*
X160315557Y-119430431D01*
X160313230Y-119456482D01*
X160312713Y-119459905D01*
X160311583Y-119466833D01*
X160309881Y-119477038D01*
X160307646Y-119490289D01*
X160304918Y-119506357D01*
X160301737Y-119525014D01*
X160298142Y-119546031D01*
X160294173Y-119569176D01*
X160289870Y-119594223D01*
X160285272Y-119620941D01*
X160280420Y-119649101D01*
X160275353Y-119678473D01*
X160270110Y-119708830D01*
X160264732Y-119739940D01*
X160259258Y-119771576D01*
X160253728Y-119803508D01*
X160248181Y-119835506D01*
X160242658Y-119867342D01*
X160237197Y-119898785D01*
X160231840Y-119929608D01*
X160226625Y-119959580D01*
X160221592Y-119988473D01*
X160216782Y-120016056D01*
X160212233Y-120042102D01*
X160207985Y-120066380D01*
X160204079Y-120088662D01*
X160200553Y-120108718D01*
X160197448Y-120126318D01*
X160194803Y-120141235D01*
X160192659Y-120153237D01*
X160191054Y-120162097D01*
X160190029Y-120167585D01*
X160189814Y-120168668D01*
X160188743Y-120173881D01*
X160019858Y-120173881D01*
X160021141Y-120165825D01*
X160021599Y-120163134D01*
X160022680Y-120156902D01*
X160024348Y-120147321D01*
X160026572Y-120134584D01*
X160029316Y-120118882D01*
X160032548Y-120100409D01*
X160036233Y-120079357D01*
X160040338Y-120055919D01*
X160044829Y-120030286D01*
X160049672Y-120002651D01*
X160054834Y-119973207D01*
X160060281Y-119942147D01*
X160065979Y-119909662D01*
X160071894Y-119875945D01*
X160077994Y-119841189D01*
X160081316Y-119822261D01*
X160088616Y-119780667D01*
X160095288Y-119742631D01*
X160101361Y-119707976D01*
X160106862Y-119676527D01*
X160111822Y-119648108D01*
X160116269Y-119622544D01*
X160120231Y-119599657D01*
X160123737Y-119579273D01*
X160126817Y-119561216D01*
X160129499Y-119545309D01*
X160131811Y-119531376D01*
X160133782Y-119519242D01*
X160135442Y-119508731D01*
X160136818Y-119499666D01*
X160137940Y-119491873D01*
X160138837Y-119485174D01*
X160139536Y-119479395D01*
X160140068Y-119474359D01*
X160140460Y-119469890D01*
X160140742Y-119465812D01*
X160140941Y-119461950D01*
X160141088Y-119458128D01*
X160141148Y-119456268D01*
X160141458Y-119444132D01*
X160141492Y-119434868D01*
X160141191Y-119427564D01*
X160140494Y-119421307D01*
X160139340Y-119415185D01*
X160138061Y-119409828D01*
X160135500Y-119400871D01*
X160132429Y-119391848D01*
X160129451Y-119384511D01*
X160129034Y-119383631D01*
X160123490Y-119374608D01*
X160115598Y-119364777D01*
X160106335Y-119355145D01*
X160096682Y-119346721D01*
X160087617Y-119340514D01*
X160086713Y-119340018D01*
X160072239Y-119333820D01*
X160054877Y-119328900D01*
X160035325Y-119325310D01*
X160014281Y-119323099D01*
X159992443Y-119322317D01*
X159970511Y-119323016D01*
X159949181Y-119325246D01*
X159930487Y-119328740D01*
X159914401Y-119332995D01*
X159897463Y-119338338D01*
X159881036Y-119344295D01*
X159866483Y-119350393D01*
X159861715Y-119352655D01*
X159848095Y-119359388D01*
X159845980Y-119371892D01*
X159845452Y-119374956D01*
X159844304Y-119381575D01*
X159842567Y-119391570D01*
X159840273Y-119404761D01*
X159837452Y-119420970D01*
X159834136Y-119440016D01*
X159830356Y-119461720D01*
X159826143Y-119485903D01*
X159821530Y-119512386D01*
X159816546Y-119540989D01*
X159811223Y-119571532D01*
X159805593Y-119603837D01*
X159799686Y-119637723D01*
X159793534Y-119673012D01*
X159787169Y-119709525D01*
X159780621Y-119747080D01*
X159775114Y-119778664D01*
X159706362Y-120172933D01*
X159621584Y-120173427D01*
X159536806Y-120173920D01*
X159537946Y-120167740D01*
X159538356Y-120165427D01*
X159539399Y-120159515D01*
X159541049Y-120150139D01*
X159543285Y-120137434D01*
X159546081Y-120121536D01*
X159549414Y-120102579D01*
X159553260Y-120080698D01*
X159557596Y-120056028D01*
X159562398Y-120028705D01*
X159567642Y-119998864D01*
X159573305Y-119966638D01*
X159579362Y-119932165D01*
X159585790Y-119895578D01*
X159592566Y-119857012D01*
X159599665Y-119816603D01*
X159607064Y-119774486D01*
X159614739Y-119730795D01*
X159622666Y-119685667D01*
X159630822Y-119639235D01*
X159639182Y-119591634D01*
X159647724Y-119543001D01*
X159654274Y-119505709D01*
X159769462Y-118849858D01*
X159854149Y-118849365D01*
X159871655Y-118849274D01*
X159887939Y-118849209D01*
X159902620Y-118849172D01*
X159915319Y-118849162D01*
X159925657Y-118849178D01*
G36*
X164558283Y-118849178D02*
X164565883Y-118849222D01*
X164570363Y-118849292D01*
X164571448Y-118849365D01*
X164571119Y-118851251D01*
X164570159Y-118856700D01*
X164568599Y-118865543D01*
X164566468Y-118877609D01*
X164563797Y-118892729D01*
X164560616Y-118910733D01*
X164556954Y-118931452D01*
X164552842Y-118954715D01*
X164548310Y-118980353D01*
X164543388Y-119008196D01*
X164538105Y-119038075D01*
X164532492Y-119069818D01*
X164526579Y-119103258D01*
X164520396Y-119138223D01*
X164513973Y-119174544D01*
X164507339Y-119212051D01*
X164500525Y-119250575D01*
X164499654Y-119255500D01*
X164492823Y-119294143D01*
X164486174Y-119331794D01*
X164479739Y-119368282D01*
X164473546Y-119403438D01*
X164467625Y-119437091D01*
X164462006Y-119469072D01*
X164456718Y-119499211D01*
X164451792Y-119527338D01*
X164447256Y-119553282D01*
X164443142Y-119576875D01*
X164439478Y-119597946D01*
X164436293Y-119616325D01*
X164433619Y-119631842D01*
X164431484Y-119644327D01*
X164429918Y-119653611D01*
X164428951Y-119659523D01*
X164428613Y-119661893D01*
X164428616Y-119661932D01*
X164429954Y-119661932D01*
X164431197Y-119660392D01*
X164434690Y-119656067D01*
X164440300Y-119649120D01*
X164447897Y-119639716D01*
X164457346Y-119628017D01*
X164468517Y-119614187D01*
X164481277Y-119598391D01*
X164495494Y-119580791D01*
X164511036Y-119561552D01*
X164527769Y-119540837D01*
X164545563Y-119518810D01*
X164564285Y-119495634D01*
X164583803Y-119471474D01*
X164603984Y-119446492D01*
X164605530Y-119444579D01*
X164780478Y-119228015D01*
X164874300Y-119228015D01*
X164895572Y-119228021D01*
X164913353Y-119228046D01*
X164927943Y-119228101D01*
X164939642Y-119228196D01*
X164948750Y-119228342D01*
X164955568Y-119228551D01*
X164960394Y-119228832D01*
X164963530Y-119229197D01*
X164965275Y-119229656D01*
X164965929Y-119230221D01*
X164965793Y-119230901D01*
X164965519Y-119231292D01*
X164964021Y-119233100D01*
X164960226Y-119237652D01*
X164954269Y-119244785D01*
X164946286Y-119254336D01*
X164936414Y-119266143D01*
X164924789Y-119280043D01*
X164911547Y-119295872D01*
X164896824Y-119313469D01*
X164880757Y-119332670D01*
X164863481Y-119353313D01*
X164845132Y-119375235D01*
X164825848Y-119398273D01*
X164805763Y-119422265D01*
X164785015Y-119447048D01*
X164781895Y-119450774D01*
X164761065Y-119475653D01*
X164740882Y-119499761D01*
X164721482Y-119522937D01*
X164703000Y-119545017D01*
X164685572Y-119565838D01*
X164669335Y-119585240D01*
X164654424Y-119603058D01*
X164640975Y-119619132D01*
X164629124Y-119633297D01*
X164619007Y-119645393D01*
X164610760Y-119655256D01*
X164604519Y-119662725D01*
X164600419Y-119667636D01*
X164598597Y-119669827D01*
X164598529Y-119669911D01*
X164598418Y-119670770D01*
X164598824Y-119672585D01*
X164599818Y-119675511D01*
X164601471Y-119679699D01*
X164603856Y-119685301D01*
X164607046Y-119692471D01*
X164611110Y-119701360D01*
X164616123Y-119712121D01*
X164622155Y-119724907D01*
X164629278Y-119739869D01*
X164637565Y-119757162D01*
X164647088Y-119776936D01*
X164657918Y-119799344D01*
X164670127Y-119824539D01*
X164683787Y-119852674D01*
X164698971Y-119883900D01*
X164715750Y-119918371D01*
X164716515Y-119919942D01*
X164730533Y-119948737D01*
X164744103Y-119976627D01*
X164757132Y-120003418D01*
X164769524Y-120028919D01*
X164781188Y-120052936D01*
X164792030Y-120075275D01*
X164801955Y-120095745D01*
X164810872Y-120114152D01*
X164818685Y-120130303D01*
X164825301Y-120144006D01*
X164830628Y-120155067D01*
X164834572Y-120163293D01*
X164837038Y-120168492D01*
X164837931Y-120170461D01*
X164838031Y-120171237D01*
X164837592Y-120171886D01*
X164836307Y-120172420D01*
X164833870Y-120172849D01*
X164829974Y-120173185D01*
X164824313Y-120173439D01*
X164816581Y-120173622D01*
X164806470Y-120173747D01*
X164793675Y-120173824D01*
X164777888Y-120173864D01*
X164758804Y-120173879D01*
X164745402Y-120173881D01*
X164651788Y-120173881D01*
X164539354Y-119929832D01*
X164526114Y-119901103D01*
X164513296Y-119873313D01*
X164500993Y-119846658D01*
X164489294Y-119821332D01*
X164478289Y-119797531D01*
X164468071Y-119775451D01*
X164458728Y-119755287D01*
X164450352Y-119737235D01*
X164443033Y-119721488D01*
X164436862Y-119708244D01*
X164431929Y-119697698D01*
X164428326Y-119690044D01*
X164426141Y-119685478D01*
X164425473Y-119684175D01*
X164425237Y-119683793D01*
X164425040Y-119683362D01*
X164424848Y-119683066D01*
X164424628Y-119683091D01*
X164424346Y-119683621D01*
X164423969Y-119684841D01*
X164423463Y-119686935D01*
X164422795Y-119690088D01*
X164421931Y-119694485D01*
X164420839Y-119700311D01*
X164419484Y-119707749D01*
X164417833Y-119716986D01*
X164415852Y-119728205D01*
X164413509Y-119741592D01*
X164410769Y-119757330D01*
X164407600Y-119775605D01*
X164403967Y-119796602D01*
X164399837Y-119820504D01*
X164395178Y-119847497D01*
X164389954Y-119877766D01*
X164384133Y-119911495D01*
X164381050Y-119929358D01*
X164375964Y-119958814D01*
X164371044Y-119987276D01*
X164366332Y-120014516D01*
X164361866Y-120040307D01*
X164357686Y-120064420D01*
X164353831Y-120086628D01*
X164350342Y-120106703D01*
X164347258Y-120124417D01*
X164344619Y-120139542D01*
X164342463Y-120151851D01*
X164340832Y-120161114D01*
X164339763Y-120167105D01*
X164339298Y-120169596D01*
X164339293Y-120169616D01*
X164338271Y-120173881D01*
X164253956Y-120173881D01*
X164236491Y-120173850D01*
X164220252Y-120173762D01*
X164205618Y-120173622D01*
X164192971Y-120173438D01*
X164182689Y-120173216D01*
X164175153Y-120172961D01*
X164170743Y-120172682D01*
X164169715Y-120172459D01*
X164170045Y-120170507D01*
X164171008Y-120164955D01*
X164172581Y-120155935D01*
X164174740Y-120143581D01*
X164177462Y-120128027D01*
X164180724Y-120109404D01*
X164184502Y-120087848D01*
X164188773Y-120063491D01*
X164193513Y-120036466D01*
X164198700Y-120006906D01*
X164204309Y-119974945D01*
X164210317Y-119940717D01*
X164216701Y-119904353D01*
X164223438Y-119865988D01*
X164230504Y-119825755D01*
X164237875Y-119783787D01*
X164245529Y-119740217D01*
X164253442Y-119695178D01*
X164261590Y-119648805D01*
X164269951Y-119601229D01*
X164278500Y-119552584D01*
X164285906Y-119510448D01*
X164402024Y-118849858D01*
X164486758Y-118849365D01*
X164504269Y-118849274D01*
X164520556Y-118849209D01*
X164535240Y-118849172D01*
X164547943Y-118849162D01*
X164558283Y-118849178D01*
X164558283Y-118849178D01*
G37*
X164558283Y-118849178D02*
X164565883Y-118849222D01*
X164570363Y-118849292D01*
X164571448Y-118849365D01*
X164571119Y-118851251D01*
X164570159Y-118856700D01*
X164568599Y-118865543D01*
X164566468Y-118877609D01*
X164563797Y-118892729D01*
X164560616Y-118910733D01*
X164556954Y-118931452D01*
X164552842Y-118954715D01*
X164548310Y-118980353D01*
X164543388Y-119008196D01*
X164538105Y-119038075D01*
X164532492Y-119069818D01*
X164526579Y-119103258D01*
X164520396Y-119138223D01*
X164513973Y-119174544D01*
X164507339Y-119212051D01*
X164500525Y-119250575D01*
X164499654Y-119255500D01*
X164492823Y-119294143D01*
X164486174Y-119331794D01*
X164479739Y-119368282D01*
X164473546Y-119403438D01*
X164467625Y-119437091D01*
X164462006Y-119469072D01*
X164456718Y-119499211D01*
X164451792Y-119527338D01*
X164447256Y-119553282D01*
X164443142Y-119576875D01*
X164439478Y-119597946D01*
X164436293Y-119616325D01*
X164433619Y-119631842D01*
X164431484Y-119644327D01*
X164429918Y-119653611D01*
X164428951Y-119659523D01*
X164428613Y-119661893D01*
X164428616Y-119661932D01*
X164429954Y-119661932D01*
X164431197Y-119660392D01*
X164434690Y-119656067D01*
X164440300Y-119649120D01*
X164447897Y-119639716D01*
X164457346Y-119628017D01*
X164468517Y-119614187D01*
X164481277Y-119598391D01*
X164495494Y-119580791D01*
X164511036Y-119561552D01*
X164527769Y-119540837D01*
X164545563Y-119518810D01*
X164564285Y-119495634D01*
X164583803Y-119471474D01*
X164603984Y-119446492D01*
X164605530Y-119444579D01*
X164780478Y-119228015D01*
X164874300Y-119228015D01*
X164895572Y-119228021D01*
X164913353Y-119228046D01*
X164927943Y-119228101D01*
X164939642Y-119228196D01*
X164948750Y-119228342D01*
X164955568Y-119228551D01*
X164960394Y-119228832D01*
X164963530Y-119229197D01*
X164965275Y-119229656D01*
X164965929Y-119230221D01*
X164965793Y-119230901D01*
X164965519Y-119231292D01*
X164964021Y-119233100D01*
X164960226Y-119237652D01*
X164954269Y-119244785D01*
X164946286Y-119254336D01*
X164936414Y-119266143D01*
X164924789Y-119280043D01*
X164911547Y-119295872D01*
X164896824Y-119313469D01*
X164880757Y-119332670D01*
X164863481Y-119353313D01*
X164845132Y-119375235D01*
X164825848Y-119398273D01*
X164805763Y-119422265D01*
X164785015Y-119447048D01*
X164781895Y-119450774D01*
X164761065Y-119475653D01*
X164740882Y-119499761D01*
X164721482Y-119522937D01*
X164703000Y-119545017D01*
X164685572Y-119565838D01*
X164669335Y-119585240D01*
X164654424Y-119603058D01*
X164640975Y-119619132D01*
X164629124Y-119633297D01*
X164619007Y-119645393D01*
X164610760Y-119655256D01*
X164604519Y-119662725D01*
X164600419Y-119667636D01*
X164598597Y-119669827D01*
X164598529Y-119669911D01*
X164598418Y-119670770D01*
X164598824Y-119672585D01*
X164599818Y-119675511D01*
X164601471Y-119679699D01*
X164603856Y-119685301D01*
X164607046Y-119692471D01*
X164611110Y-119701360D01*
X164616123Y-119712121D01*
X164622155Y-119724907D01*
X164629278Y-119739869D01*
X164637565Y-119757162D01*
X164647088Y-119776936D01*
X164657918Y-119799344D01*
X164670127Y-119824539D01*
X164683787Y-119852674D01*
X164698971Y-119883900D01*
X164715750Y-119918371D01*
X164716515Y-119919942D01*
X164730533Y-119948737D01*
X164744103Y-119976627D01*
X164757132Y-120003418D01*
X164769524Y-120028919D01*
X164781188Y-120052936D01*
X164792030Y-120075275D01*
X164801955Y-120095745D01*
X164810872Y-120114152D01*
X164818685Y-120130303D01*
X164825301Y-120144006D01*
X164830628Y-120155067D01*
X164834572Y-120163293D01*
X164837038Y-120168492D01*
X164837931Y-120170461D01*
X164838031Y-120171237D01*
X164837592Y-120171886D01*
X164836307Y-120172420D01*
X164833870Y-120172849D01*
X164829974Y-120173185D01*
X164824313Y-120173439D01*
X164816581Y-120173622D01*
X164806470Y-120173747D01*
X164793675Y-120173824D01*
X164777888Y-120173864D01*
X164758804Y-120173879D01*
X164745402Y-120173881D01*
X164651788Y-120173881D01*
X164539354Y-119929832D01*
X164526114Y-119901103D01*
X164513296Y-119873313D01*
X164500993Y-119846658D01*
X164489294Y-119821332D01*
X164478289Y-119797531D01*
X164468071Y-119775451D01*
X164458728Y-119755287D01*
X164450352Y-119737235D01*
X164443033Y-119721488D01*
X164436862Y-119708244D01*
X164431929Y-119697698D01*
X164428326Y-119690044D01*
X164426141Y-119685478D01*
X164425473Y-119684175D01*
X164425237Y-119683793D01*
X164425040Y-119683362D01*
X164424848Y-119683066D01*
X164424628Y-119683091D01*
X164424346Y-119683621D01*
X164423969Y-119684841D01*
X164423463Y-119686935D01*
X164422795Y-119690088D01*
X164421931Y-119694485D01*
X164420839Y-119700311D01*
X164419484Y-119707749D01*
X164417833Y-119716986D01*
X164415852Y-119728205D01*
X164413509Y-119741592D01*
X164410769Y-119757330D01*
X164407600Y-119775605D01*
X164403967Y-119796602D01*
X164399837Y-119820504D01*
X164395178Y-119847497D01*
X164389954Y-119877766D01*
X164384133Y-119911495D01*
X164381050Y-119929358D01*
X164375964Y-119958814D01*
X164371044Y-119987276D01*
X164366332Y-120014516D01*
X164361866Y-120040307D01*
X164357686Y-120064420D01*
X164353831Y-120086628D01*
X164350342Y-120106703D01*
X164347258Y-120124417D01*
X164344619Y-120139542D01*
X164342463Y-120151851D01*
X164340832Y-120161114D01*
X164339763Y-120167105D01*
X164339298Y-120169596D01*
X164339293Y-120169616D01*
X164338271Y-120173881D01*
X164253956Y-120173881D01*
X164236491Y-120173850D01*
X164220252Y-120173762D01*
X164205618Y-120173622D01*
X164192971Y-120173438D01*
X164182689Y-120173216D01*
X164175153Y-120172961D01*
X164170743Y-120172682D01*
X164169715Y-120172459D01*
X164170045Y-120170507D01*
X164171008Y-120164955D01*
X164172581Y-120155935D01*
X164174740Y-120143581D01*
X164177462Y-120128027D01*
X164180724Y-120109404D01*
X164184502Y-120087848D01*
X164188773Y-120063491D01*
X164193513Y-120036466D01*
X164198700Y-120006906D01*
X164204309Y-119974945D01*
X164210317Y-119940717D01*
X164216701Y-119904353D01*
X164223438Y-119865988D01*
X164230504Y-119825755D01*
X164237875Y-119783787D01*
X164245529Y-119740217D01*
X164253442Y-119695178D01*
X164261590Y-119648805D01*
X164269951Y-119601229D01*
X164278500Y-119552584D01*
X164285906Y-119510448D01*
X164402024Y-118849858D01*
X164486758Y-118849365D01*
X164504269Y-118849274D01*
X164520556Y-118849209D01*
X164535240Y-118849172D01*
X164547943Y-118849162D01*
X164558283Y-118849178D01*
G36*
X158485900Y-118887089D02*
X158501028Y-118887133D01*
X158517648Y-118887205D01*
X158530731Y-118887275D01*
X158614994Y-118887769D01*
X158601261Y-118967381D01*
X158598155Y-118985384D01*
X158595089Y-119003159D01*
X158592159Y-119020151D01*
X158589459Y-119035805D01*
X158587086Y-119049567D01*
X158585136Y-119060883D01*
X158583703Y-119069197D01*
X158583364Y-119071161D01*
X158579202Y-119095329D01*
X158495123Y-119095329D01*
X158475049Y-119095321D01*
X158458440Y-119095290D01*
X158444969Y-119095222D01*
X158434311Y-119095106D01*
X158426138Y-119094926D01*
X158420125Y-119094672D01*
X158415946Y-119094330D01*
X158413273Y-119093887D01*
X158411782Y-119093331D01*
X158411145Y-119092647D01*
X158411031Y-119092011D01*
X158411338Y-119089666D01*
X158412217Y-119084043D01*
X158413596Y-119075560D01*
X158415405Y-119064630D01*
X158417573Y-119051669D01*
X158420028Y-119037093D01*
X158422700Y-119021316D01*
X158425517Y-119004754D01*
X158428408Y-118987821D01*
X158431303Y-118970934D01*
X158434131Y-118954506D01*
X158436820Y-118938955D01*
X158439299Y-118924694D01*
X158441497Y-118912138D01*
X158443344Y-118901704D01*
X158444768Y-118893806D01*
X158445698Y-118888860D01*
X158446054Y-118887275D01*
X158447974Y-118887184D01*
X158453301Y-118887119D01*
X158461653Y-118887082D01*
X158472647Y-118887072D01*
X158485900Y-118887089D01*
X158485900Y-118887089D01*
G37*
X158485900Y-118887089D02*
X158501028Y-118887133D01*
X158517648Y-118887205D01*
X158530731Y-118887275D01*
X158614994Y-118887769D01*
X158601261Y-118967381D01*
X158598155Y-118985384D01*
X158595089Y-119003159D01*
X158592159Y-119020151D01*
X158589459Y-119035805D01*
X158587086Y-119049567D01*
X158585136Y-119060883D01*
X158583703Y-119069197D01*
X158583364Y-119071161D01*
X158579202Y-119095329D01*
X158495123Y-119095329D01*
X158475049Y-119095321D01*
X158458440Y-119095290D01*
X158444969Y-119095222D01*
X158434311Y-119095106D01*
X158426138Y-119094926D01*
X158420125Y-119094672D01*
X158415946Y-119094330D01*
X158413273Y-119093887D01*
X158411782Y-119093331D01*
X158411145Y-119092647D01*
X158411031Y-119092011D01*
X158411338Y-119089666D01*
X158412217Y-119084043D01*
X158413596Y-119075560D01*
X158415405Y-119064630D01*
X158417573Y-119051669D01*
X158420028Y-119037093D01*
X158422700Y-119021316D01*
X158425517Y-119004754D01*
X158428408Y-118987821D01*
X158431303Y-118970934D01*
X158434131Y-118954506D01*
X158436820Y-118938955D01*
X158439299Y-118924694D01*
X158441497Y-118912138D01*
X158443344Y-118901704D01*
X158444768Y-118893806D01*
X158445698Y-118888860D01*
X158446054Y-118887275D01*
X158447974Y-118887184D01*
X158453301Y-118887119D01*
X158461653Y-118887082D01*
X158472647Y-118887072D01*
X158485900Y-118887089D01*
D12*
X137096667Y-119578571D02*
X136763333Y-119578571D01*
X136763333Y-120102381D02*
X136763333Y-119102381D01*
X137239524Y-119102381D01*
X138144286Y-120102381D02*
X137572857Y-120102381D01*
X137858571Y-120102381D02*
X137858571Y-119102381D01*
X137763333Y-119245238D01*
X137668095Y-119340476D01*
X137572857Y-119388095D01*
X160116667Y-122653571D02*
X159783333Y-122653571D01*
X159783333Y-123177381D02*
X159783333Y-122177381D01*
X160259524Y-122177381D01*
X160592857Y-122272619D02*
X160640476Y-122225000D01*
X160735714Y-122177381D01*
X160973810Y-122177381D01*
X161069048Y-122225000D01*
X161116667Y-122272619D01*
X161164286Y-122367857D01*
X161164286Y-122463095D01*
X161116667Y-122605952D01*
X160545238Y-123177381D01*
X161164286Y-123177381D01*
X151077381Y-121616666D02*
X150601190Y-121950000D01*
X151077381Y-122188095D02*
X150077381Y-122188095D01*
X150077381Y-121807142D01*
X150125000Y-121711904D01*
X150172619Y-121664285D01*
X150267857Y-121616666D01*
X150410714Y-121616666D01*
X150505952Y-121664285D01*
X150553571Y-121711904D01*
X150601190Y-121807142D01*
X150601190Y-122188095D01*
X151077381Y-121140476D02*
X151077381Y-120950000D01*
X151029762Y-120854761D01*
X150982143Y-120807142D01*
X150839286Y-120711904D01*
X150648810Y-120664285D01*
X150267857Y-120664285D01*
X150172619Y-120711904D01*
X150125000Y-120759523D01*
X150077381Y-120854761D01*
X150077381Y-121045238D01*
X150125000Y-121140476D01*
X150172619Y-121188095D01*
X150267857Y-121235714D01*
X150505952Y-121235714D01*
X150601190Y-121188095D01*
X150648810Y-121140476D01*
X150696429Y-121045238D01*
X150696429Y-120854761D01*
X150648810Y-120759523D01*
X150601190Y-120711904D01*
X150505952Y-120664285D01*
X150652381Y-110061905D02*
X151461905Y-110061905D01*
X151557143Y-110014286D01*
X151604762Y-109966667D01*
X151652381Y-109871429D01*
X151652381Y-109680952D01*
X151604762Y-109585714D01*
X151557143Y-109538095D01*
X151461905Y-109490476D01*
X150652381Y-109490476D01*
X150747619Y-109061905D02*
X150700000Y-109014286D01*
X150652381Y-108919048D01*
X150652381Y-108680952D01*
X150700000Y-108585714D01*
X150747619Y-108538095D01*
X150842857Y-108490476D01*
X150938095Y-108490476D01*
X151080952Y-108538095D01*
X151652381Y-109109524D01*
X151652381Y-108490476D01*
X141513334Y-101007143D02*
X141465715Y-101054762D01*
X141322858Y-101102381D01*
X141227620Y-101102381D01*
X141084762Y-101054762D01*
X140989524Y-100959524D01*
X140941905Y-100864286D01*
X140894286Y-100673810D01*
X140894286Y-100530952D01*
X140941905Y-100340476D01*
X140989524Y-100245238D01*
X141084762Y-100150000D01*
X141227620Y-100102381D01*
X141322858Y-100102381D01*
X141465715Y-100150000D01*
X141513334Y-100197619D01*
X142418096Y-100102381D02*
X141941905Y-100102381D01*
X141894286Y-100578571D01*
X141941905Y-100530952D01*
X142037143Y-100483333D01*
X142275239Y-100483333D01*
X142370477Y-100530952D01*
X142418096Y-100578571D01*
X142465715Y-100673810D01*
X142465715Y-100911905D01*
X142418096Y-101007143D01*
X142370477Y-101054762D01*
X142275239Y-101102381D01*
X142037143Y-101102381D01*
X141941905Y-101054762D01*
X141894286Y-101007143D01*
X153177143Y-103936666D02*
X153224762Y-103984285D01*
X153272381Y-104127142D01*
X153272381Y-104222380D01*
X153224762Y-104365238D01*
X153129524Y-104460476D01*
X153034286Y-104508095D01*
X152843810Y-104555714D01*
X152700952Y-104555714D01*
X152510476Y-104508095D01*
X152415238Y-104460476D01*
X152320000Y-104365238D01*
X152272381Y-104222380D01*
X152272381Y-104127142D01*
X152320000Y-103984285D01*
X152367619Y-103936666D01*
X152272381Y-103603333D02*
X152272381Y-102936666D01*
X153272381Y-103365238D01*
X131437143Y-108566666D02*
X131484762Y-108614285D01*
X131532381Y-108757142D01*
X131532381Y-108852380D01*
X131484762Y-108995238D01*
X131389524Y-109090476D01*
X131294286Y-109138095D01*
X131103810Y-109185714D01*
X130960952Y-109185714D01*
X130770476Y-109138095D01*
X130675238Y-109090476D01*
X130580000Y-108995238D01*
X130532381Y-108852380D01*
X130532381Y-108757142D01*
X130580000Y-108614285D01*
X130627619Y-108566666D01*
X130960952Y-107995238D02*
X130913333Y-108090476D01*
X130865714Y-108138095D01*
X130770476Y-108185714D01*
X130722857Y-108185714D01*
X130627619Y-108138095D01*
X130580000Y-108090476D01*
X130532381Y-107995238D01*
X130532381Y-107804761D01*
X130580000Y-107709523D01*
X130627619Y-107661904D01*
X130722857Y-107614285D01*
X130770476Y-107614285D01*
X130865714Y-107661904D01*
X130913333Y-107709523D01*
X130960952Y-107804761D01*
X130960952Y-107995238D01*
X131008571Y-108090476D01*
X131056190Y-108138095D01*
X131151429Y-108185714D01*
X131341905Y-108185714D01*
X131437143Y-108138095D01*
X131484762Y-108090476D01*
X131532381Y-107995238D01*
X131532381Y-107804761D01*
X131484762Y-107709523D01*
X131437143Y-107661904D01*
X131341905Y-107614285D01*
X131151429Y-107614285D01*
X131056190Y-107661904D01*
X131008571Y-107709523D01*
X130960952Y-107804761D01*
X133133334Y-117427143D02*
X133085715Y-117474762D01*
X132942858Y-117522381D01*
X132847620Y-117522381D01*
X132704762Y-117474762D01*
X132609524Y-117379524D01*
X132561905Y-117284286D01*
X132514286Y-117093810D01*
X132514286Y-116950952D01*
X132561905Y-116760476D01*
X132609524Y-116665238D01*
X132704762Y-116570000D01*
X132847620Y-116522381D01*
X132942858Y-116522381D01*
X133085715Y-116570000D01*
X133133334Y-116617619D01*
X133609524Y-117522381D02*
X133800000Y-117522381D01*
X133895239Y-117474762D01*
X133942858Y-117427143D01*
X134038096Y-117284286D01*
X134085715Y-117093810D01*
X134085715Y-116712857D01*
X134038096Y-116617619D01*
X133990477Y-116570000D01*
X133895239Y-116522381D01*
X133704762Y-116522381D01*
X133609524Y-116570000D01*
X133561905Y-116617619D01*
X133514286Y-116712857D01*
X133514286Y-116950952D01*
X133561905Y-117046190D01*
X133609524Y-117093810D01*
X133704762Y-117141429D01*
X133895239Y-117141429D01*
X133990477Y-117093810D01*
X134038096Y-117046190D01*
X134085715Y-116950952D01*
X152667143Y-118457143D02*
X152619524Y-118504762D01*
X152476667Y-118552381D01*
X152381429Y-118552381D01*
X152238571Y-118504762D01*
X152143333Y-118409524D01*
X152095714Y-118314286D01*
X152048095Y-118123810D01*
X152048095Y-117980952D01*
X152095714Y-117790476D01*
X152143333Y-117695238D01*
X152238571Y-117600000D01*
X152381429Y-117552381D01*
X152476667Y-117552381D01*
X152619524Y-117600000D01*
X152667143Y-117647619D01*
X153619524Y-118552381D02*
X153048095Y-118552381D01*
X153333809Y-118552381D02*
X153333809Y-117552381D01*
X153238571Y-117695238D01*
X153143333Y-117790476D01*
X153048095Y-117838095D01*
X154238571Y-117552381D02*
X154333810Y-117552381D01*
X154429048Y-117600000D01*
X154476667Y-117647619D01*
X154524286Y-117742857D01*
X154571905Y-117933333D01*
X154571905Y-118171429D01*
X154524286Y-118361905D01*
X154476667Y-118457143D01*
X154429048Y-118504762D01*
X154333810Y-118552381D01*
X154238571Y-118552381D01*
X154143333Y-118504762D01*
X154095714Y-118457143D01*
X154048095Y-118361905D01*
X154000476Y-118171429D01*
X154000476Y-117933333D01*
X154048095Y-117742857D01*
X154095714Y-117647619D01*
X154143333Y-117600000D01*
X154238571Y-117552381D01*
X157700743Y-91339943D02*
X157653124Y-91387562D01*
X157510267Y-91435181D01*
X157415029Y-91435181D01*
X157272171Y-91387562D01*
X157176933Y-91292324D01*
X157129314Y-91197086D01*
X157081695Y-91006610D01*
X157081695Y-90863752D01*
X157129314Y-90673276D01*
X157176933Y-90578038D01*
X157272171Y-90482800D01*
X157415029Y-90435181D01*
X157510267Y-90435181D01*
X157653124Y-90482800D01*
X157700743Y-90530419D01*
X158653124Y-91435181D02*
X158081695Y-91435181D01*
X158367409Y-91435181D02*
X158367409Y-90435181D01*
X158272171Y-90578038D01*
X158176933Y-90673276D01*
X158081695Y-90720895D01*
X159034076Y-90530419D02*
X159081695Y-90482800D01*
X159176933Y-90435181D01*
X159415029Y-90435181D01*
X159510267Y-90482800D01*
X159557886Y-90530419D01*
X159605505Y-90625657D01*
X159605505Y-90720895D01*
X159557886Y-90863752D01*
X158986457Y-91435181D01*
X159605505Y-91435181D01*
X142183334Y-91752381D02*
X141850000Y-91276190D01*
X141611905Y-91752381D02*
X141611905Y-90752381D01*
X141992858Y-90752381D01*
X142088096Y-90800000D01*
X142135715Y-90847619D01*
X142183334Y-90942857D01*
X142183334Y-91085714D01*
X142135715Y-91180952D01*
X142088096Y-91228571D01*
X141992858Y-91276190D01*
X141611905Y-91276190D01*
X143040477Y-90752381D02*
X142850000Y-90752381D01*
X142754762Y-90800000D01*
X142707143Y-90847619D01*
X142611905Y-90990476D01*
X142564286Y-91180952D01*
X142564286Y-91561905D01*
X142611905Y-91657143D01*
X142659524Y-91704762D01*
X142754762Y-91752381D01*
X142945239Y-91752381D01*
X143040477Y-91704762D01*
X143088096Y-91657143D01*
X143135715Y-91561905D01*
X143135715Y-91323810D01*
X143088096Y-91228571D01*
X143040477Y-91180952D01*
X142945239Y-91133333D01*
X142754762Y-91133333D01*
X142659524Y-91180952D01*
X142611905Y-91228571D01*
X142564286Y-91323810D01*
X156982143Y-123457143D02*
X156934524Y-123504762D01*
X156791667Y-123552381D01*
X156696429Y-123552381D01*
X156553571Y-123504762D01*
X156458333Y-123409524D01*
X156410714Y-123314286D01*
X156363095Y-123123810D01*
X156363095Y-122980952D01*
X156410714Y-122790476D01*
X156458333Y-122695238D01*
X156553571Y-122600000D01*
X156696429Y-122552381D01*
X156791667Y-122552381D01*
X156934524Y-122600000D01*
X156982143Y-122647619D01*
X157934524Y-123552381D02*
X157363095Y-123552381D01*
X157648809Y-123552381D02*
X157648809Y-122552381D01*
X157553571Y-122695238D01*
X157458333Y-122790476D01*
X157363095Y-122838095D01*
X158839286Y-122552381D02*
X158363095Y-122552381D01*
X158315476Y-123028571D01*
X158363095Y-122980952D01*
X158458333Y-122933333D01*
X158696429Y-122933333D01*
X158791667Y-122980952D01*
X158839286Y-123028571D01*
X158886905Y-123123810D01*
X158886905Y-123361905D01*
X158839286Y-123457143D01*
X158791667Y-123504762D01*
X158696429Y-123552381D01*
X158458333Y-123552381D01*
X158363095Y-123504762D01*
X158315476Y-123457143D01*
X153957143Y-123952381D02*
X153623809Y-123476190D01*
X153385714Y-123952381D02*
X153385714Y-122952381D01*
X153766667Y-122952381D01*
X153861905Y-123000000D01*
X153909524Y-123047619D01*
X153957143Y-123142857D01*
X153957143Y-123285714D01*
X153909524Y-123380952D01*
X153861905Y-123428571D01*
X153766667Y-123476190D01*
X153385714Y-123476190D01*
X154909524Y-123952381D02*
X154338095Y-123952381D01*
X154623809Y-123952381D02*
X154623809Y-122952381D01*
X154528571Y-123095238D01*
X154433333Y-123190476D01*
X154338095Y-123238095D01*
X155528571Y-122952381D02*
X155623810Y-122952381D01*
X155719048Y-123000000D01*
X155766667Y-123047619D01*
X155814286Y-123142857D01*
X155861905Y-123333333D01*
X155861905Y-123571429D01*
X155814286Y-123761905D01*
X155766667Y-123857143D01*
X155719048Y-123904762D01*
X155623810Y-123952381D01*
X155528571Y-123952381D01*
X155433333Y-123904762D01*
X155385714Y-123857143D01*
X155338095Y-123761905D01*
X155290476Y-123571429D01*
X155290476Y-123333333D01*
X155338095Y-123142857D01*
X155385714Y-123047619D01*
X155433333Y-123000000D01*
X155528571Y-122952381D01*
X159452381Y-94311905D02*
X160261905Y-94311905D01*
X160357143Y-94264286D01*
X160404762Y-94216667D01*
X160452381Y-94121429D01*
X160452381Y-93930952D01*
X160404762Y-93835714D01*
X160357143Y-93788095D01*
X160261905Y-93740476D01*
X159452381Y-93740476D01*
X159452381Y-93359524D02*
X159452381Y-92740476D01*
X159833333Y-93073810D01*
X159833333Y-92930952D01*
X159880952Y-92835714D01*
X159928571Y-92788095D01*
X160023810Y-92740476D01*
X160261905Y-92740476D01*
X160357143Y-92788095D01*
X160404762Y-92835714D01*
X160452381Y-92930952D01*
X160452381Y-93216667D01*
X160404762Y-93311905D01*
X160357143Y-93359524D01*
X155257143Y-99057143D02*
X155209524Y-99104762D01*
X155066667Y-99152381D01*
X154971429Y-99152381D01*
X154828571Y-99104762D01*
X154733333Y-99009524D01*
X154685714Y-98914286D01*
X154638095Y-98723810D01*
X154638095Y-98580952D01*
X154685714Y-98390476D01*
X154733333Y-98295238D01*
X154828571Y-98200000D01*
X154971429Y-98152381D01*
X155066667Y-98152381D01*
X155209524Y-98200000D01*
X155257143Y-98247619D01*
X156209524Y-99152381D02*
X155638095Y-99152381D01*
X155923809Y-99152381D02*
X155923809Y-98152381D01*
X155828571Y-98295238D01*
X155733333Y-98390476D01*
X155638095Y-98438095D01*
X157161905Y-99152381D02*
X156590476Y-99152381D01*
X156876190Y-99152381D02*
X156876190Y-98152381D01*
X156780952Y-98295238D01*
X156685714Y-98390476D01*
X156590476Y-98438095D01*
X138277143Y-97827143D02*
X138229524Y-97874762D01*
X138086667Y-97922381D01*
X137991429Y-97922381D01*
X137848571Y-97874762D01*
X137753333Y-97779524D01*
X137705714Y-97684286D01*
X137658095Y-97493810D01*
X137658095Y-97350952D01*
X137705714Y-97160476D01*
X137753333Y-97065238D01*
X137848571Y-96970000D01*
X137991429Y-96922381D01*
X138086667Y-96922381D01*
X138229524Y-96970000D01*
X138277143Y-97017619D01*
X139229524Y-97922381D02*
X138658095Y-97922381D01*
X138943809Y-97922381D02*
X138943809Y-96922381D01*
X138848571Y-97065238D01*
X138753333Y-97160476D01*
X138658095Y-97208095D01*
X140086667Y-97255714D02*
X140086667Y-97922381D01*
X139848571Y-96874762D02*
X139610476Y-97589048D01*
X140229524Y-97589048D01*
X131103334Y-103527143D02*
X131055715Y-103574762D01*
X130912858Y-103622381D01*
X130817620Y-103622381D01*
X130674762Y-103574762D01*
X130579524Y-103479524D01*
X130531905Y-103384286D01*
X130484286Y-103193810D01*
X130484286Y-103050952D01*
X130531905Y-102860476D01*
X130579524Y-102765238D01*
X130674762Y-102670000D01*
X130817620Y-102622381D01*
X130912858Y-102622381D01*
X131055715Y-102670000D01*
X131103334Y-102717619D01*
X132055715Y-103622381D02*
X131484286Y-103622381D01*
X131770000Y-103622381D02*
X131770000Y-102622381D01*
X131674762Y-102765238D01*
X131579524Y-102860476D01*
X131484286Y-102908095D01*
X138853334Y-94237143D02*
X138805715Y-94284762D01*
X138662858Y-94332381D01*
X138567620Y-94332381D01*
X138424762Y-94284762D01*
X138329524Y-94189524D01*
X138281905Y-94094286D01*
X138234286Y-93903810D01*
X138234286Y-93760952D01*
X138281905Y-93570476D01*
X138329524Y-93475238D01*
X138424762Y-93380000D01*
X138567620Y-93332381D01*
X138662858Y-93332381D01*
X138805715Y-93380000D01*
X138853334Y-93427619D01*
X139234286Y-93427619D02*
X139281905Y-93380000D01*
X139377143Y-93332381D01*
X139615239Y-93332381D01*
X139710477Y-93380000D01*
X139758096Y-93427619D01*
X139805715Y-93522857D01*
X139805715Y-93618095D01*
X139758096Y-93760952D01*
X139186667Y-94332381D01*
X139805715Y-94332381D01*
X131317143Y-95906666D02*
X131364762Y-95954285D01*
X131412381Y-96097142D01*
X131412381Y-96192380D01*
X131364762Y-96335238D01*
X131269524Y-96430476D01*
X131174286Y-96478095D01*
X130983810Y-96525714D01*
X130840952Y-96525714D01*
X130650476Y-96478095D01*
X130555238Y-96430476D01*
X130460000Y-96335238D01*
X130412381Y-96192380D01*
X130412381Y-96097142D01*
X130460000Y-95954285D01*
X130507619Y-95906666D01*
X130412381Y-95573333D02*
X130412381Y-94954285D01*
X130793333Y-95287619D01*
X130793333Y-95144761D01*
X130840952Y-95049523D01*
X130888571Y-95001904D01*
X130983810Y-94954285D01*
X131221905Y-94954285D01*
X131317143Y-95001904D01*
X131364762Y-95049523D01*
X131412381Y-95144761D01*
X131412381Y-95430476D01*
X131364762Y-95525714D01*
X131317143Y-95573333D01*
X141950476Y-96302381D02*
X142617143Y-97302381D01*
X142617143Y-96302381D02*
X141950476Y-97302381D01*
X143521905Y-97302381D02*
X142950476Y-97302381D01*
X143236190Y-97302381D02*
X143236190Y-96302381D01*
X143140952Y-96445238D01*
X143045714Y-96540476D01*
X142950476Y-96588095D01*
X162341667Y-95228571D02*
X162008333Y-95228571D01*
X162008333Y-95752381D02*
X162008333Y-94752381D01*
X162484524Y-94752381D01*
X162770238Y-94752381D02*
X163389286Y-94752381D01*
X163055952Y-95133333D01*
X163198810Y-95133333D01*
X163294048Y-95180952D01*
X163341667Y-95228571D01*
X163389286Y-95323810D01*
X163389286Y-95561905D01*
X163341667Y-95657143D01*
X163294048Y-95704762D01*
X163198810Y-95752381D01*
X162913095Y-95752381D01*
X162817857Y-95704762D01*
X162770238Y-95657143D01*
M02*
