G04 #@! TF.FileFunction,Soldermask,Top*
%FSLAX46Y46*%
G04 Gerber Fmt 4.6, Leading zero omitted, Abs format (unit mm)*
G04 Created by KiCad (PCBNEW (2015-11-03 BZR 6296)-product) date Monday, November 09, 2015 'PMt' 11:48:40 PM*
%MOMM*%
G01*
G04 APERTURE LIST*
%ADD10C,0.100000*%
%ADD11C,0.010000*%
%ADD12C,2.000000*%
%ADD13R,0.750000X0.400000*%
%ADD14R,0.950000X0.600000*%
%ADD15R,0.400000X0.750000*%
%ADD16R,0.600000X0.950000*%
%ADD17R,1.275000X1.200000*%
%ADD18R,1.600000X1.150000*%
%ADD19R,1.150000X1.600000*%
%ADD20R,1.197560X1.197560*%
%ADD21R,2.127200X2.127200*%
%ADD22O,2.127200X2.127200*%
%ADD23R,1.300000X1.600000*%
%ADD24R,1.600000X1.300000*%
%ADD25R,0.680000X1.900000*%
%ADD26R,1.900000X0.680000*%
%ADD27R,2.300000X3.000000*%
%ADD28R,1.100000X0.600000*%
%ADD29R,1.050000X1.460000*%
%ADD30C,2.540000*%
%ADD31R,0.900000X1.000000*%
%ADD32R,2.400000X2.000000*%
G04 APERTURE END LIST*
D10*
D11*
G36*
X137641031Y-109623103D02*
X137678866Y-109624878D01*
X137714763Y-109627950D01*
X137750412Y-109632451D01*
X137787499Y-109638512D01*
X137812537Y-109643226D01*
X137849505Y-109650873D01*
X137884770Y-109659056D01*
X137919378Y-109668108D01*
X137954376Y-109678364D01*
X137990809Y-109690156D01*
X138029722Y-109703818D01*
X138072161Y-109719684D01*
X138119173Y-109738088D01*
X138154737Y-109752406D01*
X138201958Y-109771805D01*
X138249898Y-109791943D01*
X138298959Y-109813011D01*
X138349547Y-109835199D01*
X138402066Y-109858695D01*
X138456921Y-109883689D01*
X138514514Y-109910372D01*
X138575251Y-109938932D01*
X138639536Y-109969559D01*
X138707773Y-110002442D01*
X138780365Y-110037772D01*
X138857719Y-110075737D01*
X138940236Y-110116528D01*
X139028323Y-110160333D01*
X139086085Y-110189177D01*
X139167799Y-110229964D01*
X139243732Y-110267698D01*
X139314358Y-110302596D01*
X139380149Y-110334875D01*
X139441577Y-110364752D01*
X139499115Y-110392444D01*
X139553235Y-110418167D01*
X139604409Y-110442138D01*
X139653111Y-110464575D01*
X139699811Y-110485695D01*
X139744982Y-110505714D01*
X139789097Y-110524848D01*
X139832629Y-110543316D01*
X139876049Y-110561334D01*
X139919829Y-110579119D01*
X139964443Y-110596888D01*
X140010363Y-110614857D01*
X140027542Y-110621509D01*
X140051524Y-110630793D01*
X140073788Y-110639455D01*
X140093348Y-110647109D01*
X140109219Y-110653366D01*
X140120414Y-110657840D01*
X140125784Y-110660070D01*
X140135832Y-110664573D01*
X140120698Y-110683849D01*
X140108889Y-110697902D01*
X140092920Y-110715482D01*
X140073921Y-110735449D01*
X140053023Y-110756663D01*
X140031357Y-110777986D01*
X140010055Y-110798277D01*
X139990246Y-110816397D01*
X139981681Y-110823920D01*
X139906102Y-110885039D01*
X139824352Y-110943238D01*
X139736747Y-110998375D01*
X139643601Y-111050306D01*
X139545231Y-111098886D01*
X139441952Y-111143973D01*
X139334079Y-111185422D01*
X139221928Y-111223091D01*
X139105814Y-111256835D01*
X138986054Y-111286510D01*
X138946278Y-111295281D01*
X138887253Y-111307567D01*
X138833414Y-111318013D01*
X138783205Y-111326877D01*
X138735074Y-111334413D01*
X138687469Y-111340877D01*
X138638835Y-111346526D01*
X138628778Y-111347588D01*
X138608732Y-111349185D01*
X138583512Y-111350438D01*
X138554439Y-111351348D01*
X138522833Y-111351913D01*
X138490014Y-111352134D01*
X138457303Y-111352011D01*
X138426020Y-111351543D01*
X138397485Y-111350730D01*
X138373019Y-111349572D01*
X138353941Y-111348069D01*
X138350083Y-111347629D01*
X138279587Y-111336359D01*
X138214668Y-111320777D01*
X138155314Y-111300875D01*
X138101511Y-111276642D01*
X138053246Y-111248071D01*
X138010506Y-111215152D01*
X137973275Y-111177875D01*
X137941542Y-111136233D01*
X137915292Y-111090216D01*
X137895814Y-111043556D01*
X137886564Y-111015336D01*
X137879950Y-110989790D01*
X137875611Y-110964670D01*
X137873189Y-110937726D01*
X137872323Y-110906710D01*
X137872311Y-110896690D01*
X137872506Y-110839783D01*
X137849541Y-110837430D01*
X137826577Y-110835078D01*
X137776819Y-110869010D01*
X137777261Y-110918359D01*
X137781246Y-110976590D01*
X137792027Y-111033341D01*
X137809427Y-111088195D01*
X137833267Y-111140732D01*
X137863369Y-111190536D01*
X137899554Y-111237188D01*
X137924774Y-111264155D01*
X137965410Y-111301000D01*
X138009140Y-111333371D01*
X138056472Y-111361491D01*
X138107911Y-111385584D01*
X138163966Y-111405873D01*
X138225143Y-111422584D01*
X138291948Y-111435938D01*
X138325389Y-111441113D01*
X138346455Y-111443389D01*
X138373303Y-111445185D01*
X138404675Y-111446500D01*
X138439315Y-111447334D01*
X138475966Y-111447688D01*
X138513369Y-111447562D01*
X138550269Y-111446956D01*
X138585407Y-111445870D01*
X138617526Y-111444303D01*
X138645370Y-111442257D01*
X138657000Y-111441088D01*
X138771247Y-111425915D01*
X138886379Y-111406055D01*
X139001524Y-111381770D01*
X139115809Y-111353321D01*
X139228359Y-111320969D01*
X139338303Y-111284975D01*
X139444766Y-111245600D01*
X139546876Y-111203106D01*
X139643760Y-111157754D01*
X139698608Y-111129498D01*
X139781718Y-111082751D01*
X139860658Y-111033631D01*
X139934981Y-110982487D01*
X140004241Y-110929668D01*
X140067993Y-110875522D01*
X140125791Y-110820397D01*
X140177188Y-110764643D01*
X140198880Y-110738480D01*
X140213589Y-110720572D01*
X140224647Y-110708259D01*
X140232321Y-110701267D01*
X140236878Y-110699322D01*
X140237106Y-110699373D01*
X140251682Y-110703012D01*
X140272129Y-110707139D01*
X140297296Y-110711588D01*
X140326029Y-110716193D01*
X140357174Y-110720787D01*
X140389579Y-110725204D01*
X140422091Y-110729276D01*
X140453556Y-110732837D01*
X140482821Y-110735720D01*
X140496736Y-110736893D01*
X140526996Y-110738630D01*
X140560509Y-110739311D01*
X140597721Y-110738909D01*
X140639075Y-110737398D01*
X140685017Y-110734750D01*
X140735991Y-110730938D01*
X140792441Y-110725937D01*
X140854812Y-110719719D01*
X140923548Y-110712256D01*
X140944764Y-110709853D01*
X141042696Y-110698039D01*
X141147110Y-110684253D01*
X141257726Y-110668544D01*
X141374267Y-110650962D01*
X141496454Y-110631559D01*
X141624011Y-110610386D01*
X141756657Y-110587492D01*
X141894117Y-110562928D01*
X142036110Y-110536746D01*
X142182360Y-110508995D01*
X142332588Y-110479727D01*
X142486517Y-110448991D01*
X142643867Y-110416840D01*
X142804361Y-110383322D01*
X142967721Y-110348489D01*
X143133669Y-110312392D01*
X143161972Y-110306166D01*
X143193505Y-110299268D01*
X143223573Y-110292787D01*
X143251326Y-110286899D01*
X143275913Y-110281780D01*
X143296484Y-110277607D01*
X143312186Y-110274556D01*
X143322170Y-110272804D01*
X143324250Y-110272520D01*
X143351629Y-110272603D01*
X143380597Y-110278198D01*
X143409337Y-110288640D01*
X143436032Y-110303263D01*
X143458863Y-110321400D01*
X143459577Y-110322097D01*
X143470334Y-110334458D01*
X143483559Y-110352584D01*
X143498873Y-110375782D01*
X143515898Y-110403362D01*
X143534253Y-110434633D01*
X143553562Y-110468902D01*
X143573444Y-110505479D01*
X143593521Y-110543671D01*
X143613415Y-110582789D01*
X143632747Y-110622139D01*
X143651137Y-110661031D01*
X143668208Y-110698774D01*
X143676938Y-110718888D01*
X143704418Y-110787828D01*
X143726295Y-110852753D01*
X143742564Y-110913631D01*
X143753220Y-110970428D01*
X143758258Y-111023112D01*
X143757674Y-111071650D01*
X143751462Y-111116008D01*
X143740303Y-111154355D01*
X143730721Y-111174617D01*
X143717158Y-111196530D01*
X143701359Y-111217628D01*
X143685072Y-111235441D01*
X143679089Y-111240860D01*
X143663700Y-111252771D01*
X143647081Y-111263287D01*
X143628689Y-111272518D01*
X143607978Y-111280574D01*
X143584406Y-111287565D01*
X143557427Y-111293602D01*
X143526498Y-111298794D01*
X143491074Y-111303252D01*
X143450612Y-111307086D01*
X143404567Y-111310405D01*
X143352396Y-111313321D01*
X143311903Y-111315182D01*
X143292132Y-111315961D01*
X143266304Y-111316876D01*
X143235416Y-111317897D01*
X143200464Y-111318994D01*
X143162446Y-111320137D01*
X143122357Y-111321294D01*
X143081195Y-111322437D01*
X143039956Y-111323534D01*
X143019097Y-111324070D01*
X142913132Y-111326865D01*
X142813623Y-111329728D01*
X142719971Y-111332688D01*
X142631576Y-111335774D01*
X142547840Y-111339016D01*
X142468162Y-111342444D01*
X142391944Y-111346086D01*
X142318587Y-111349972D01*
X142247491Y-111354132D01*
X142178056Y-111358595D01*
X142109683Y-111363390D01*
X142041774Y-111368548D01*
X141973729Y-111374096D01*
X141937833Y-111377168D01*
X141785425Y-111391484D01*
X141638916Y-111407501D01*
X141497314Y-111425426D01*
X141359629Y-111445462D01*
X141224869Y-111467813D01*
X141092042Y-111492686D01*
X140960156Y-111520283D01*
X140828221Y-111550811D01*
X140695244Y-111584473D01*
X140560234Y-111621474D01*
X140422199Y-111662018D01*
X140280149Y-111706311D01*
X140172181Y-111741516D01*
X140115529Y-111760415D01*
X140063101Y-111778181D01*
X140014324Y-111795079D01*
X139968627Y-111811377D01*
X139925437Y-111827340D01*
X139884184Y-111843235D01*
X139844295Y-111859327D01*
X139805199Y-111875884D01*
X139766325Y-111893170D01*
X139727099Y-111911452D01*
X139686952Y-111930997D01*
X139645310Y-111952071D01*
X139601602Y-111974939D01*
X139555257Y-111999869D01*
X139505703Y-112027125D01*
X139452368Y-112056975D01*
X139394680Y-112089684D01*
X139332068Y-112125519D01*
X139267306Y-112162815D01*
X139217113Y-112191743D01*
X139172343Y-112217450D01*
X139132339Y-112240298D01*
X139096445Y-112260648D01*
X139064006Y-112278863D01*
X139034365Y-112295303D01*
X139006866Y-112310330D01*
X138980853Y-112324307D01*
X138955670Y-112337594D01*
X138930662Y-112350554D01*
X138905172Y-112363549D01*
X138882778Y-112374820D01*
X138817461Y-112406741D01*
X138756674Y-112434702D01*
X138699369Y-112459064D01*
X138644501Y-112480188D01*
X138591022Y-112498436D01*
X138537885Y-112514169D01*
X138484043Y-112527748D01*
X138428449Y-112539537D01*
X138380975Y-112548094D01*
X138321699Y-112557475D01*
X138267114Y-112564849D01*
X138215196Y-112570377D01*
X138163926Y-112574223D01*
X138111279Y-112576550D01*
X138055234Y-112577522D01*
X138016708Y-112577509D01*
X137990120Y-112577309D01*
X137965076Y-112577051D01*
X137942670Y-112576751D01*
X137923997Y-112576426D01*
X137910149Y-112576092D01*
X137902223Y-112575767D01*
X137902056Y-112575755D01*
X137811009Y-112566740D01*
X137721200Y-112553096D01*
X137633485Y-112535042D01*
X137548718Y-112512798D01*
X137467756Y-112486583D01*
X137391455Y-112456619D01*
X137333791Y-112429817D01*
X137247957Y-112382919D01*
X137164330Y-112329377D01*
X137082988Y-112269273D01*
X137004006Y-112202690D01*
X136927461Y-112129708D01*
X136853429Y-112050411D01*
X136781985Y-111964879D01*
X136713207Y-111873196D01*
X136647171Y-111775442D01*
X136583952Y-111671701D01*
X136523627Y-111562053D01*
X136519300Y-111553746D01*
X136482293Y-111478734D01*
X136447779Y-111400989D01*
X136415400Y-111319580D01*
X136384798Y-111233574D01*
X136355612Y-111142039D01*
X136339110Y-111085758D01*
X136331543Y-111059169D01*
X136085806Y-110960044D01*
X136046329Y-110944069D01*
X136008813Y-110928791D01*
X135973766Y-110914422D01*
X135941694Y-110901173D01*
X135913102Y-110889257D01*
X135888498Y-110878887D01*
X135868388Y-110870274D01*
X135853278Y-110863630D01*
X135843674Y-110859168D01*
X135840083Y-110857101D01*
X135840069Y-110857055D01*
X135842644Y-110854178D01*
X135850115Y-110846965D01*
X135862098Y-110835762D01*
X135878213Y-110820917D01*
X135898078Y-110802776D01*
X135921310Y-110781686D01*
X135947529Y-110757994D01*
X135976351Y-110732048D01*
X136007395Y-110704193D01*
X136040280Y-110674778D01*
X136065847Y-110651966D01*
X136291625Y-110450741D01*
X136306003Y-110411022D01*
X136334338Y-110340948D01*
X136367586Y-110274045D01*
X136406152Y-110209707D01*
X136450445Y-110147324D01*
X136500870Y-110086287D01*
X136557835Y-110025990D01*
X136574224Y-110009917D01*
X136641538Y-109949739D01*
X136714130Y-109894059D01*
X136791734Y-109843010D01*
X136874086Y-109796722D01*
X136960921Y-109755330D01*
X137051974Y-109718964D01*
X137146979Y-109687758D01*
X137245671Y-109661842D01*
X137291750Y-109651834D01*
X137336147Y-109643197D01*
X137375869Y-109636427D01*
X137412979Y-109631295D01*
X137449540Y-109627572D01*
X137487614Y-109625029D01*
X137529265Y-109623439D01*
X137552806Y-109622916D01*
X137599574Y-109622493D01*
X137641031Y-109623103D01*
X137641031Y-109623103D01*
G37*
X137641031Y-109623103D02*
X137678866Y-109624878D01*
X137714763Y-109627950D01*
X137750412Y-109632451D01*
X137787499Y-109638512D01*
X137812537Y-109643226D01*
X137849505Y-109650873D01*
X137884770Y-109659056D01*
X137919378Y-109668108D01*
X137954376Y-109678364D01*
X137990809Y-109690156D01*
X138029722Y-109703818D01*
X138072161Y-109719684D01*
X138119173Y-109738088D01*
X138154737Y-109752406D01*
X138201958Y-109771805D01*
X138249898Y-109791943D01*
X138298959Y-109813011D01*
X138349547Y-109835199D01*
X138402066Y-109858695D01*
X138456921Y-109883689D01*
X138514514Y-109910372D01*
X138575251Y-109938932D01*
X138639536Y-109969559D01*
X138707773Y-110002442D01*
X138780365Y-110037772D01*
X138857719Y-110075737D01*
X138940236Y-110116528D01*
X139028323Y-110160333D01*
X139086085Y-110189177D01*
X139167799Y-110229964D01*
X139243732Y-110267698D01*
X139314358Y-110302596D01*
X139380149Y-110334875D01*
X139441577Y-110364752D01*
X139499115Y-110392444D01*
X139553235Y-110418167D01*
X139604409Y-110442138D01*
X139653111Y-110464575D01*
X139699811Y-110485695D01*
X139744982Y-110505714D01*
X139789097Y-110524848D01*
X139832629Y-110543316D01*
X139876049Y-110561334D01*
X139919829Y-110579119D01*
X139964443Y-110596888D01*
X140010363Y-110614857D01*
X140027542Y-110621509D01*
X140051524Y-110630793D01*
X140073788Y-110639455D01*
X140093348Y-110647109D01*
X140109219Y-110653366D01*
X140120414Y-110657840D01*
X140125784Y-110660070D01*
X140135832Y-110664573D01*
X140120698Y-110683849D01*
X140108889Y-110697902D01*
X140092920Y-110715482D01*
X140073921Y-110735449D01*
X140053023Y-110756663D01*
X140031357Y-110777986D01*
X140010055Y-110798277D01*
X139990246Y-110816397D01*
X139981681Y-110823920D01*
X139906102Y-110885039D01*
X139824352Y-110943238D01*
X139736747Y-110998375D01*
X139643601Y-111050306D01*
X139545231Y-111098886D01*
X139441952Y-111143973D01*
X139334079Y-111185422D01*
X139221928Y-111223091D01*
X139105814Y-111256835D01*
X138986054Y-111286510D01*
X138946278Y-111295281D01*
X138887253Y-111307567D01*
X138833414Y-111318013D01*
X138783205Y-111326877D01*
X138735074Y-111334413D01*
X138687469Y-111340877D01*
X138638835Y-111346526D01*
X138628778Y-111347588D01*
X138608732Y-111349185D01*
X138583512Y-111350438D01*
X138554439Y-111351348D01*
X138522833Y-111351913D01*
X138490014Y-111352134D01*
X138457303Y-111352011D01*
X138426020Y-111351543D01*
X138397485Y-111350730D01*
X138373019Y-111349572D01*
X138353941Y-111348069D01*
X138350083Y-111347629D01*
X138279587Y-111336359D01*
X138214668Y-111320777D01*
X138155314Y-111300875D01*
X138101511Y-111276642D01*
X138053246Y-111248071D01*
X138010506Y-111215152D01*
X137973275Y-111177875D01*
X137941542Y-111136233D01*
X137915292Y-111090216D01*
X137895814Y-111043556D01*
X137886564Y-111015336D01*
X137879950Y-110989790D01*
X137875611Y-110964670D01*
X137873189Y-110937726D01*
X137872323Y-110906710D01*
X137872311Y-110896690D01*
X137872506Y-110839783D01*
X137849541Y-110837430D01*
X137826577Y-110835078D01*
X137776819Y-110869010D01*
X137777261Y-110918359D01*
X137781246Y-110976590D01*
X137792027Y-111033341D01*
X137809427Y-111088195D01*
X137833267Y-111140732D01*
X137863369Y-111190536D01*
X137899554Y-111237188D01*
X137924774Y-111264155D01*
X137965410Y-111301000D01*
X138009140Y-111333371D01*
X138056472Y-111361491D01*
X138107911Y-111385584D01*
X138163966Y-111405873D01*
X138225143Y-111422584D01*
X138291948Y-111435938D01*
X138325389Y-111441113D01*
X138346455Y-111443389D01*
X138373303Y-111445185D01*
X138404675Y-111446500D01*
X138439315Y-111447334D01*
X138475966Y-111447688D01*
X138513369Y-111447562D01*
X138550269Y-111446956D01*
X138585407Y-111445870D01*
X138617526Y-111444303D01*
X138645370Y-111442257D01*
X138657000Y-111441088D01*
X138771247Y-111425915D01*
X138886379Y-111406055D01*
X139001524Y-111381770D01*
X139115809Y-111353321D01*
X139228359Y-111320969D01*
X139338303Y-111284975D01*
X139444766Y-111245600D01*
X139546876Y-111203106D01*
X139643760Y-111157754D01*
X139698608Y-111129498D01*
X139781718Y-111082751D01*
X139860658Y-111033631D01*
X139934981Y-110982487D01*
X140004241Y-110929668D01*
X140067993Y-110875522D01*
X140125791Y-110820397D01*
X140177188Y-110764643D01*
X140198880Y-110738480D01*
X140213589Y-110720572D01*
X140224647Y-110708259D01*
X140232321Y-110701267D01*
X140236878Y-110699322D01*
X140237106Y-110699373D01*
X140251682Y-110703012D01*
X140272129Y-110707139D01*
X140297296Y-110711588D01*
X140326029Y-110716193D01*
X140357174Y-110720787D01*
X140389579Y-110725204D01*
X140422091Y-110729276D01*
X140453556Y-110732837D01*
X140482821Y-110735720D01*
X140496736Y-110736893D01*
X140526996Y-110738630D01*
X140560509Y-110739311D01*
X140597721Y-110738909D01*
X140639075Y-110737398D01*
X140685017Y-110734750D01*
X140735991Y-110730938D01*
X140792441Y-110725937D01*
X140854812Y-110719719D01*
X140923548Y-110712256D01*
X140944764Y-110709853D01*
X141042696Y-110698039D01*
X141147110Y-110684253D01*
X141257726Y-110668544D01*
X141374267Y-110650962D01*
X141496454Y-110631559D01*
X141624011Y-110610386D01*
X141756657Y-110587492D01*
X141894117Y-110562928D01*
X142036110Y-110536746D01*
X142182360Y-110508995D01*
X142332588Y-110479727D01*
X142486517Y-110448991D01*
X142643867Y-110416840D01*
X142804361Y-110383322D01*
X142967721Y-110348489D01*
X143133669Y-110312392D01*
X143161972Y-110306166D01*
X143193505Y-110299268D01*
X143223573Y-110292787D01*
X143251326Y-110286899D01*
X143275913Y-110281780D01*
X143296484Y-110277607D01*
X143312186Y-110274556D01*
X143322170Y-110272804D01*
X143324250Y-110272520D01*
X143351629Y-110272603D01*
X143380597Y-110278198D01*
X143409337Y-110288640D01*
X143436032Y-110303263D01*
X143458863Y-110321400D01*
X143459577Y-110322097D01*
X143470334Y-110334458D01*
X143483559Y-110352584D01*
X143498873Y-110375782D01*
X143515898Y-110403362D01*
X143534253Y-110434633D01*
X143553562Y-110468902D01*
X143573444Y-110505479D01*
X143593521Y-110543671D01*
X143613415Y-110582789D01*
X143632747Y-110622139D01*
X143651137Y-110661031D01*
X143668208Y-110698774D01*
X143676938Y-110718888D01*
X143704418Y-110787828D01*
X143726295Y-110852753D01*
X143742564Y-110913631D01*
X143753220Y-110970428D01*
X143758258Y-111023112D01*
X143757674Y-111071650D01*
X143751462Y-111116008D01*
X143740303Y-111154355D01*
X143730721Y-111174617D01*
X143717158Y-111196530D01*
X143701359Y-111217628D01*
X143685072Y-111235441D01*
X143679089Y-111240860D01*
X143663700Y-111252771D01*
X143647081Y-111263287D01*
X143628689Y-111272518D01*
X143607978Y-111280574D01*
X143584406Y-111287565D01*
X143557427Y-111293602D01*
X143526498Y-111298794D01*
X143491074Y-111303252D01*
X143450612Y-111307086D01*
X143404567Y-111310405D01*
X143352396Y-111313321D01*
X143311903Y-111315182D01*
X143292132Y-111315961D01*
X143266304Y-111316876D01*
X143235416Y-111317897D01*
X143200464Y-111318994D01*
X143162446Y-111320137D01*
X143122357Y-111321294D01*
X143081195Y-111322437D01*
X143039956Y-111323534D01*
X143019097Y-111324070D01*
X142913132Y-111326865D01*
X142813623Y-111329728D01*
X142719971Y-111332688D01*
X142631576Y-111335774D01*
X142547840Y-111339016D01*
X142468162Y-111342444D01*
X142391944Y-111346086D01*
X142318587Y-111349972D01*
X142247491Y-111354132D01*
X142178056Y-111358595D01*
X142109683Y-111363390D01*
X142041774Y-111368548D01*
X141973729Y-111374096D01*
X141937833Y-111377168D01*
X141785425Y-111391484D01*
X141638916Y-111407501D01*
X141497314Y-111425426D01*
X141359629Y-111445462D01*
X141224869Y-111467813D01*
X141092042Y-111492686D01*
X140960156Y-111520283D01*
X140828221Y-111550811D01*
X140695244Y-111584473D01*
X140560234Y-111621474D01*
X140422199Y-111662018D01*
X140280149Y-111706311D01*
X140172181Y-111741516D01*
X140115529Y-111760415D01*
X140063101Y-111778181D01*
X140014324Y-111795079D01*
X139968627Y-111811377D01*
X139925437Y-111827340D01*
X139884184Y-111843235D01*
X139844295Y-111859327D01*
X139805199Y-111875884D01*
X139766325Y-111893170D01*
X139727099Y-111911452D01*
X139686952Y-111930997D01*
X139645310Y-111952071D01*
X139601602Y-111974939D01*
X139555257Y-111999869D01*
X139505703Y-112027125D01*
X139452368Y-112056975D01*
X139394680Y-112089684D01*
X139332068Y-112125519D01*
X139267306Y-112162815D01*
X139217113Y-112191743D01*
X139172343Y-112217450D01*
X139132339Y-112240298D01*
X139096445Y-112260648D01*
X139064006Y-112278863D01*
X139034365Y-112295303D01*
X139006866Y-112310330D01*
X138980853Y-112324307D01*
X138955670Y-112337594D01*
X138930662Y-112350554D01*
X138905172Y-112363549D01*
X138882778Y-112374820D01*
X138817461Y-112406741D01*
X138756674Y-112434702D01*
X138699369Y-112459064D01*
X138644501Y-112480188D01*
X138591022Y-112498436D01*
X138537885Y-112514169D01*
X138484043Y-112527748D01*
X138428449Y-112539537D01*
X138380975Y-112548094D01*
X138321699Y-112557475D01*
X138267114Y-112564849D01*
X138215196Y-112570377D01*
X138163926Y-112574223D01*
X138111279Y-112576550D01*
X138055234Y-112577522D01*
X138016708Y-112577509D01*
X137990120Y-112577309D01*
X137965076Y-112577051D01*
X137942670Y-112576751D01*
X137923997Y-112576426D01*
X137910149Y-112576092D01*
X137902223Y-112575767D01*
X137902056Y-112575755D01*
X137811009Y-112566740D01*
X137721200Y-112553096D01*
X137633485Y-112535042D01*
X137548718Y-112512798D01*
X137467756Y-112486583D01*
X137391455Y-112456619D01*
X137333791Y-112429817D01*
X137247957Y-112382919D01*
X137164330Y-112329377D01*
X137082988Y-112269273D01*
X137004006Y-112202690D01*
X136927461Y-112129708D01*
X136853429Y-112050411D01*
X136781985Y-111964879D01*
X136713207Y-111873196D01*
X136647171Y-111775442D01*
X136583952Y-111671701D01*
X136523627Y-111562053D01*
X136519300Y-111553746D01*
X136482293Y-111478734D01*
X136447779Y-111400989D01*
X136415400Y-111319580D01*
X136384798Y-111233574D01*
X136355612Y-111142039D01*
X136339110Y-111085758D01*
X136331543Y-111059169D01*
X136085806Y-110960044D01*
X136046329Y-110944069D01*
X136008813Y-110928791D01*
X135973766Y-110914422D01*
X135941694Y-110901173D01*
X135913102Y-110889257D01*
X135888498Y-110878887D01*
X135868388Y-110870274D01*
X135853278Y-110863630D01*
X135843674Y-110859168D01*
X135840083Y-110857101D01*
X135840069Y-110857055D01*
X135842644Y-110854178D01*
X135850115Y-110846965D01*
X135862098Y-110835762D01*
X135878213Y-110820917D01*
X135898078Y-110802776D01*
X135921310Y-110781686D01*
X135947529Y-110757994D01*
X135976351Y-110732048D01*
X136007395Y-110704193D01*
X136040280Y-110674778D01*
X136065847Y-110651966D01*
X136291625Y-110450741D01*
X136306003Y-110411022D01*
X136334338Y-110340948D01*
X136367586Y-110274045D01*
X136406152Y-110209707D01*
X136450445Y-110147324D01*
X136500870Y-110086287D01*
X136557835Y-110025990D01*
X136574224Y-110009917D01*
X136641538Y-109949739D01*
X136714130Y-109894059D01*
X136791734Y-109843010D01*
X136874086Y-109796722D01*
X136960921Y-109755330D01*
X137051974Y-109718964D01*
X137146979Y-109687758D01*
X137245671Y-109661842D01*
X137291750Y-109651834D01*
X137336147Y-109643197D01*
X137375869Y-109636427D01*
X137412979Y-109631295D01*
X137449540Y-109627572D01*
X137487614Y-109625029D01*
X137529265Y-109623439D01*
X137552806Y-109622916D01*
X137599574Y-109622493D01*
X137641031Y-109623103D01*
D12*
X139000000Y-91450000D03*
X145600000Y-91450000D03*
D13*
X131000000Y-97850000D03*
D14*
X131000000Y-98250000D03*
X131000000Y-98650000D03*
X131000000Y-99050000D03*
X131000000Y-99450000D03*
D13*
X131000000Y-99850000D03*
D15*
X131500000Y-100350000D03*
D16*
X131900000Y-100350000D03*
X132300000Y-100350000D03*
X132700000Y-100350000D03*
X133100000Y-100350000D03*
D15*
X133500000Y-100350000D03*
D13*
X134000000Y-99850000D03*
D14*
X134000000Y-99450000D03*
X134000000Y-99050000D03*
X134000000Y-98650000D03*
X134000000Y-98250000D03*
D13*
X134000000Y-97850000D03*
D15*
X133500000Y-97350000D03*
D16*
X133100000Y-97350000D03*
X132700000Y-97350000D03*
X132300000Y-97350000D03*
X131900000Y-97350000D03*
D15*
X131500000Y-97350000D03*
D17*
X132935000Y-99250000D03*
X132935000Y-98450000D03*
X132065000Y-99250000D03*
X132065000Y-98450000D03*
D18*
X131350000Y-102300000D03*
X133250000Y-102300000D03*
D19*
X131200000Y-104550000D03*
X131200000Y-106450000D03*
X131250000Y-117000000D03*
X131250000Y-115100000D03*
X155070000Y-92640000D03*
X155070000Y-94540000D03*
D20*
X153300000Y-91100000D03*
X153300000Y-92598600D03*
X151150000Y-91100000D03*
X151150000Y-92598600D03*
X149100000Y-91100000D03*
X149100000Y-92598600D03*
D21*
X145200000Y-124900000D03*
D22*
X145200000Y-122360000D03*
X142660000Y-124900000D03*
X142660000Y-122360000D03*
X140120000Y-124900000D03*
X140120000Y-122360000D03*
X137580000Y-124900000D03*
X137580000Y-122360000D03*
D23*
X153450000Y-98000000D03*
X153450000Y-95800000D03*
X151250000Y-98000000D03*
X151250000Y-95800000D03*
X149050000Y-98000000D03*
X149050000Y-95800000D03*
D24*
X141250000Y-93200000D03*
X143450000Y-93200000D03*
D25*
X147500000Y-102150000D03*
X147000000Y-102150000D03*
X146500000Y-102150000D03*
X146000000Y-102150000D03*
X145500000Y-102150000D03*
X145000000Y-102150000D03*
X144500000Y-102150000D03*
X144000000Y-102150000D03*
X143500000Y-102150000D03*
X143000000Y-102150000D03*
X142500000Y-102150000D03*
X142000000Y-102150000D03*
X141500000Y-102150000D03*
X141000000Y-102150000D03*
X140500000Y-102150000D03*
X140000000Y-102150000D03*
X139500000Y-102150000D03*
X139000000Y-102150000D03*
X138500000Y-102150000D03*
X138000000Y-102150000D03*
X137500000Y-102150000D03*
X137000000Y-102150000D03*
X136500000Y-102150000D03*
X136000000Y-102150000D03*
X135500000Y-102150000D03*
D26*
X133600000Y-104050000D03*
X133600000Y-104550000D03*
X133600000Y-105050000D03*
X133600000Y-105550000D03*
X133600000Y-106050000D03*
X133600000Y-106550000D03*
X133600000Y-107050000D03*
X133600000Y-107550000D03*
X133600000Y-108050000D03*
X133600000Y-108550000D03*
X133600000Y-109050000D03*
X133600000Y-109550000D03*
X133600000Y-110050000D03*
X133600000Y-110550000D03*
X133600000Y-111050000D03*
X133600000Y-111550000D03*
X133600000Y-112050000D03*
X133600000Y-112550000D03*
X133600000Y-113050000D03*
X133600000Y-113550000D03*
X133600000Y-114050000D03*
X133600000Y-114550000D03*
X133600000Y-115050000D03*
X133600000Y-115550000D03*
X133600000Y-116050000D03*
D25*
X135500000Y-117950000D03*
X136000000Y-117950000D03*
X136500000Y-117950000D03*
X137000000Y-117950000D03*
X137500000Y-117950000D03*
X138000000Y-117950000D03*
X138500000Y-117950000D03*
X139000000Y-117950000D03*
X139500000Y-117950000D03*
X140000000Y-117950000D03*
X140500000Y-117950000D03*
X141000000Y-117950000D03*
X141500000Y-117950000D03*
X142000000Y-117950000D03*
X142500000Y-117950000D03*
X143000000Y-117950000D03*
X143500000Y-117950000D03*
X144000000Y-117950000D03*
X144500000Y-117950000D03*
X145000000Y-117950000D03*
X145500000Y-117950000D03*
X146000000Y-117950000D03*
X146500000Y-117950000D03*
X147000000Y-117950000D03*
X147500000Y-117950000D03*
D26*
X149400000Y-116050000D03*
X149400000Y-115550000D03*
X149400000Y-115050000D03*
X149400000Y-114550000D03*
X149400000Y-114050000D03*
X149400000Y-113550000D03*
X149400000Y-113050000D03*
X149400000Y-112550000D03*
X149400000Y-112050000D03*
X149400000Y-111550000D03*
X149400000Y-111050000D03*
X149400000Y-110550000D03*
X149400000Y-110050000D03*
X149400000Y-109550000D03*
X149400000Y-109050000D03*
X149400000Y-108550000D03*
X149400000Y-108050000D03*
X149400000Y-107550000D03*
X149400000Y-107050000D03*
X149400000Y-106550000D03*
X149400000Y-106050000D03*
X149400000Y-105550000D03*
X149400000Y-105050000D03*
X149400000Y-104550000D03*
X149400000Y-104050000D03*
D27*
X139800000Y-98600000D03*
X144100000Y-98600000D03*
D18*
X156780000Y-124900000D03*
X158680000Y-124900000D03*
D28*
X161190000Y-100200000D03*
X161190000Y-100600000D03*
X161190000Y-101000000D03*
X161190000Y-101400000D03*
X161190000Y-101800000D03*
X161190000Y-102200000D03*
X161190000Y-102600000D03*
X161190000Y-103000000D03*
X161190000Y-103400000D03*
X161190000Y-103800000D03*
X161190000Y-107800000D03*
X161190000Y-107400000D03*
X161190000Y-107000000D03*
X161190000Y-106600000D03*
X161190000Y-106200000D03*
X161190000Y-105800000D03*
X161190000Y-105400000D03*
X161190000Y-105000000D03*
X161190000Y-104600000D03*
X161190000Y-104200000D03*
X161190000Y-108200000D03*
X161190000Y-108600000D03*
X161190000Y-109000000D03*
X161190000Y-109400000D03*
X161190000Y-109800000D03*
X161190000Y-110200000D03*
X161190000Y-110600000D03*
X161190000Y-111000000D03*
X161190000Y-111400000D03*
X161190000Y-111800000D03*
X161190000Y-115800000D03*
X161190000Y-115400000D03*
X161190000Y-115000000D03*
X161190000Y-114600000D03*
X161190000Y-114200000D03*
X161190000Y-113800000D03*
X161190000Y-113400000D03*
X161190000Y-113000000D03*
X161190000Y-112600000D03*
X161190000Y-112200000D03*
X158110000Y-112200000D03*
X158110000Y-112600000D03*
X158110000Y-113000000D03*
X158110000Y-113400000D03*
X158110000Y-113800000D03*
X158110000Y-114200000D03*
X158110000Y-114600000D03*
X158110000Y-115000000D03*
X158110000Y-115400000D03*
X158110000Y-115800000D03*
X158110000Y-111800000D03*
X158110000Y-111400000D03*
X158110000Y-111000000D03*
X158110000Y-110600000D03*
X158110000Y-110200000D03*
X158110000Y-109800000D03*
X158110000Y-109400000D03*
X158110000Y-109000000D03*
X158110000Y-108600000D03*
X158110000Y-108200000D03*
X158110000Y-104200000D03*
X158110000Y-104600000D03*
X158110000Y-105000000D03*
X158110000Y-105400000D03*
X158110000Y-105800000D03*
X158110000Y-106200000D03*
X158110000Y-106600000D03*
X158110000Y-107000000D03*
X158110000Y-107400000D03*
X158110000Y-107800000D03*
X158110000Y-103800000D03*
X158110000Y-103400000D03*
X158110000Y-103000000D03*
X158110000Y-102600000D03*
X158110000Y-102200000D03*
X158110000Y-101800000D03*
X158110000Y-101400000D03*
X158110000Y-101000000D03*
X158110000Y-100600000D03*
X158110000Y-100200000D03*
D24*
X147860000Y-124950000D03*
X150060000Y-124950000D03*
X154290000Y-124960000D03*
X152090000Y-124960000D03*
D29*
X156580000Y-94660000D03*
X157530000Y-94660000D03*
X158480000Y-94660000D03*
X158480000Y-92460000D03*
X156580000Y-92460000D03*
D30*
X132750000Y-119700000D03*
X163250000Y-119700000D03*
X163250000Y-95900000D03*
D31*
X146550000Y-97150000D03*
X146550000Y-98250000D03*
X137200000Y-99250000D03*
X137200000Y-98150000D03*
D32*
X159800000Y-96900000D03*
X155800000Y-96900000D03*
M02*
