G04 #@! TF.FileFunction,Paste,Bot*
%FSLAX46Y46*%
G04 Gerber Fmt 4.6, Leading zero omitted, Abs format (unit mm)*
G04 Created by KiCad (PCBNEW (2015-11-03 BZR 6296)-product) date Tuesday, November 24, 2015 'PMt' 09:03:28 PM*
%MOMM*%
G01*
G04 APERTURE LIST*
%ADD10C,0.100000*%
%ADD11R,0.660000X0.230000*%
%ADD12R,0.660000X0.350000*%
%ADD13R,0.750000X1.200000*%
%ADD14R,1.200000X0.750000*%
%ADD15R,0.900000X1.200000*%
%ADD16R,1.200000X0.900000*%
%ADD17R,0.800100X1.800860*%
%ADD18R,1.400000X1.050000*%
%ADD19R,0.797560X0.797560*%
%ADD20R,1.600000X1.400000*%
%ADD21R,0.400000X1.350000*%
%ADD22R,1.900000X1.900000*%
%ADD23C,1.524000*%
%ADD24R,1.800860X0.800100*%
G04 APERTURE END LIST*
D10*
D11*
X161005000Y-106200000D03*
X158295000Y-106200000D03*
X161005000Y-109800000D03*
X158295000Y-109800000D03*
D12*
X161005000Y-105725000D03*
X158295000Y-105725000D03*
X161005000Y-110275000D03*
X158295000Y-110275000D03*
D11*
X158295000Y-109400000D03*
X161005000Y-109400000D03*
X158295000Y-109000000D03*
X161005000Y-109000000D03*
X158295000Y-108600000D03*
X161005000Y-108600000D03*
X158295000Y-108200000D03*
X161005000Y-108200000D03*
X158295000Y-107800000D03*
X161005000Y-107800000D03*
X158295000Y-107400000D03*
X161005000Y-107400000D03*
X158295000Y-107000000D03*
X161005000Y-107000000D03*
X158295000Y-106600000D03*
X161005000Y-106600000D03*
D13*
X137200000Y-97750000D03*
X137200000Y-99650000D03*
X147600000Y-106000000D03*
X147600000Y-104100000D03*
D14*
X149400000Y-115400000D03*
X147500000Y-115400000D03*
D15*
X146000000Y-110250000D03*
X146000000Y-108050000D03*
D16*
X143700000Y-106700000D03*
X141500000Y-106700000D03*
X139550000Y-106700000D03*
X137350000Y-106700000D03*
D14*
X141750000Y-104520000D03*
X143650000Y-104520000D03*
D17*
X150330000Y-124060000D03*
X148430000Y-124060000D03*
X149380000Y-121057720D03*
X158780000Y-124042280D03*
X156880000Y-124042280D03*
X157830000Y-121040000D03*
D18*
X151790000Y-92260000D03*
X148190000Y-92260000D03*
X151790000Y-90810000D03*
X148190000Y-90810000D03*
D13*
X139350000Y-96750000D03*
X139350000Y-98650000D03*
D19*
X158450000Y-91100000D03*
X158450000Y-92598600D03*
D20*
X139100000Y-93900000D03*
X145500000Y-93900000D03*
D21*
X141000000Y-94125000D03*
X141650000Y-94125000D03*
X142300000Y-94125000D03*
X142950000Y-94125000D03*
X143600000Y-94125000D03*
D22*
X141100000Y-91450000D03*
X143500000Y-91450000D03*
D23*
X164100000Y-120450000D03*
X164100000Y-118400000D03*
D16*
X132800000Y-110350000D03*
X135000000Y-110350000D03*
X132800000Y-112150000D03*
X135000000Y-112150000D03*
X156514800Y-92354400D03*
X154314800Y-92354400D03*
D24*
X160200000Y-99050000D03*
X160200000Y-97150000D03*
X163202280Y-98100000D03*
D23*
X141732000Y-108813600D03*
X139598400Y-108813600D03*
M02*
