G04 #@! TF.FileFunction,Legend,Bot*
%FSLAX46Y46*%
G04 Gerber Fmt 4.6, Leading zero omitted, Abs format (unit mm)*
G04 Created by KiCad (PCBNEW 4.0.1-stable) date Friday, February 19, 2016 'PMt' 12:33:15 PM*
%MOMM*%
G01*
G04 APERTURE LIST*
%ADD10C,0.100000*%
%ADD11C,0.300000*%
%ADD12C,0.150000*%
%ADD13C,0.175000*%
G04 APERTURE END LIST*
D10*
D11*
X139385715Y-101321429D02*
X139385715Y-100321429D01*
X139028572Y-101892857D02*
X138671429Y-100821429D01*
X139600001Y-100821429D01*
X141050001Y-101821429D02*
X141978572Y-101821429D01*
X141478572Y-101250000D01*
X141692858Y-101250000D01*
X141835715Y-101178571D01*
X141907144Y-101107143D01*
X141978572Y-100964286D01*
X141978572Y-100607143D01*
X141907144Y-100464286D01*
X141835715Y-100392857D01*
X141692858Y-100321429D01*
X141264286Y-100321429D01*
X141121429Y-100392857D01*
X141050001Y-100464286D01*
X143721429Y-101678571D02*
X143792858Y-101750000D01*
X143935715Y-101821429D01*
X144292858Y-101821429D01*
X144435715Y-101750000D01*
X144507144Y-101678571D01*
X144578572Y-101535714D01*
X144578572Y-101392857D01*
X144507144Y-101178571D01*
X143650001Y-100321429D01*
X144578572Y-100321429D01*
X147078572Y-100321429D02*
X146221429Y-100321429D01*
X146650001Y-100321429D02*
X146650001Y-101821429D01*
X146507144Y-101607143D01*
X146364286Y-101464286D01*
X146221429Y-101392857D01*
D12*
X139288876Y-107357143D02*
X139336495Y-107404762D01*
X139479352Y-107452381D01*
X139574590Y-107452381D01*
X139717448Y-107404762D01*
X139812686Y-107309524D01*
X139860305Y-107214286D01*
X139907924Y-107023810D01*
X139907924Y-106880952D01*
X139860305Y-106690476D01*
X139812686Y-106595238D01*
X139717448Y-106500000D01*
X139574590Y-106452381D01*
X139479352Y-106452381D01*
X139336495Y-106500000D01*
X139288876Y-106547619D01*
X141961905Y-107552381D02*
X141961905Y-106552381D01*
X141723810Y-106552381D01*
X141580952Y-106600000D01*
X141485714Y-106695238D01*
X141438095Y-106790476D01*
X141390476Y-106980952D01*
X141390476Y-107123810D01*
X141438095Y-107314286D01*
X141485714Y-107409524D01*
X141580952Y-107504762D01*
X141723810Y-107552381D01*
X141961905Y-107552381D01*
D13*
X162148876Y-121000781D02*
X162482210Y-120524590D01*
X162720305Y-121000781D02*
X162720305Y-120000781D01*
X162339352Y-120000781D01*
X162244114Y-120048400D01*
X162196495Y-120096019D01*
X162148876Y-120191257D01*
X162148876Y-120334114D01*
X162196495Y-120429352D01*
X162244114Y-120476971D01*
X162339352Y-120524590D01*
X162720305Y-120524590D01*
X162386971Y-118343371D02*
X162244114Y-118390990D01*
X162196495Y-118438610D01*
X162148876Y-118533848D01*
X162148876Y-118676705D01*
X162196495Y-118771943D01*
X162244114Y-118819562D01*
X162339352Y-118867181D01*
X162720305Y-118867181D01*
X162720305Y-117867181D01*
X162386971Y-117867181D01*
X162291733Y-117914800D01*
X162244114Y-117962419D01*
X162196495Y-118057657D01*
X162196495Y-118152895D01*
X162244114Y-118248133D01*
X162291733Y-118295752D01*
X162386971Y-118343371D01*
X162720305Y-118343371D01*
D12*
X153035714Y-97262381D02*
X152416666Y-97262381D01*
X152750000Y-97643333D01*
X152607142Y-97643333D01*
X152511904Y-97690952D01*
X152464285Y-97738571D01*
X152416666Y-97833810D01*
X152416666Y-98071905D01*
X152464285Y-98167143D01*
X152511904Y-98214762D01*
X152607142Y-98262381D01*
X152892857Y-98262381D01*
X152988095Y-98214762D01*
X153035714Y-98167143D01*
X151797619Y-97262381D02*
X151702380Y-97262381D01*
X151607142Y-97310000D01*
X151559523Y-97357619D01*
X151511904Y-97452857D01*
X151464285Y-97643333D01*
X151464285Y-97881429D01*
X151511904Y-98071905D01*
X151559523Y-98167143D01*
X151607142Y-98214762D01*
X151702380Y-98262381D01*
X151797619Y-98262381D01*
X151892857Y-98214762D01*
X151940476Y-98167143D01*
X151988095Y-98071905D01*
X152035714Y-97881429D01*
X152035714Y-97643333D01*
X151988095Y-97452857D01*
X151940476Y-97357619D01*
X151892857Y-97310000D01*
X151797619Y-97262381D01*
X150845238Y-97262381D02*
X150749999Y-97262381D01*
X150654761Y-97310000D01*
X150607142Y-97357619D01*
X150559523Y-97452857D01*
X150511904Y-97643333D01*
X150511904Y-97881429D01*
X150559523Y-98071905D01*
X150607142Y-98167143D01*
X150654761Y-98214762D01*
X150749999Y-98262381D01*
X150845238Y-98262381D01*
X150940476Y-98214762D01*
X150988095Y-98167143D01*
X151035714Y-98071905D01*
X151083333Y-97881429D01*
X151083333Y-97643333D01*
X151035714Y-97452857D01*
X150988095Y-97357619D01*
X150940476Y-97310000D01*
X150845238Y-97262381D01*
X150083333Y-98262381D02*
X150083333Y-97595714D01*
X150083333Y-97690952D02*
X150035714Y-97643333D01*
X149940476Y-97595714D01*
X149797618Y-97595714D01*
X149702380Y-97643333D01*
X149654761Y-97738571D01*
X149654761Y-98262381D01*
X149654761Y-97738571D02*
X149607142Y-97643333D01*
X149511904Y-97595714D01*
X149369047Y-97595714D01*
X149273809Y-97643333D01*
X149226190Y-97738571D01*
X149226190Y-98262381D01*
X148797619Y-97976667D02*
X148321428Y-97976667D01*
X148892857Y-98262381D02*
X148559524Y-97262381D01*
X148226190Y-98262381D01*
X147130952Y-98262381D02*
X147130952Y-97595714D01*
X147130952Y-97690952D02*
X147083333Y-97643333D01*
X146988095Y-97595714D01*
X146845237Y-97595714D01*
X146749999Y-97643333D01*
X146702380Y-97738571D01*
X146702380Y-98262381D01*
X146702380Y-97738571D02*
X146654761Y-97643333D01*
X146559523Y-97595714D01*
X146416666Y-97595714D01*
X146321428Y-97643333D01*
X146273809Y-97738571D01*
X146273809Y-98262381D01*
X145369047Y-98262381D02*
X145369047Y-97738571D01*
X145416666Y-97643333D01*
X145511904Y-97595714D01*
X145702381Y-97595714D01*
X145797619Y-97643333D01*
X145369047Y-98214762D02*
X145464285Y-98262381D01*
X145702381Y-98262381D01*
X145797619Y-98214762D01*
X145845238Y-98119524D01*
X145845238Y-98024286D01*
X145797619Y-97929048D01*
X145702381Y-97881429D01*
X145464285Y-97881429D01*
X145369047Y-97833810D01*
X144988095Y-98262381D02*
X144464285Y-97595714D01*
X144988095Y-97595714D02*
X144464285Y-98262381D01*
X131178571Y-109892857D02*
X131178571Y-109559523D01*
X131702381Y-109559523D02*
X130702381Y-109559523D01*
X130702381Y-110035714D01*
X131702381Y-110416666D02*
X131035714Y-110416666D01*
X131226190Y-110416666D02*
X131130952Y-110464285D01*
X131083333Y-110511904D01*
X131035714Y-110607142D01*
X131035714Y-110702381D01*
X131702381Y-111178571D02*
X131654762Y-111083333D01*
X131607143Y-111035714D01*
X131511905Y-110988095D01*
X131226190Y-110988095D01*
X131130952Y-111035714D01*
X131083333Y-111083333D01*
X131035714Y-111178571D01*
X131035714Y-111321429D01*
X131083333Y-111416667D01*
X131130952Y-111464286D01*
X131226190Y-111511905D01*
X131511905Y-111511905D01*
X131607143Y-111464286D01*
X131654762Y-111416667D01*
X131702381Y-111321429D01*
X131702381Y-111178571D01*
X131035714Y-111940476D02*
X131702381Y-111940476D01*
X131130952Y-111940476D02*
X131083333Y-111988095D01*
X131035714Y-112083333D01*
X131035714Y-112226191D01*
X131083333Y-112321429D01*
X131178571Y-112369048D01*
X131702381Y-112369048D01*
X131035714Y-112702381D02*
X131035714Y-113083333D01*
X130702381Y-112845238D02*
X131559524Y-112845238D01*
X131654762Y-112892857D01*
X131702381Y-112988095D01*
X131702381Y-113083333D01*
D11*
X165307143Y-98950000D02*
X165378571Y-98807143D01*
X165378571Y-98521429D01*
X165307143Y-98378571D01*
X165235714Y-98307143D01*
X165092857Y-98235714D01*
X164664286Y-98235714D01*
X164521429Y-98307143D01*
X164450000Y-98378571D01*
X164378571Y-98521429D01*
X164378571Y-98807143D01*
X164450000Y-98950000D01*
X165378571Y-99592857D02*
X163878571Y-99592857D01*
X164807143Y-99735714D02*
X165378571Y-100164285D01*
X164378571Y-100164285D02*
X164950000Y-99592857D01*
X165378571Y-101450000D02*
X163878571Y-101450000D01*
X165307143Y-101450000D02*
X165378571Y-101307143D01*
X165378571Y-101021429D01*
X165307143Y-100878571D01*
X165235714Y-100807143D01*
X165092857Y-100735714D01*
X164664286Y-100735714D01*
X164521429Y-100807143D01*
X164450000Y-100878571D01*
X164378571Y-101021429D01*
X164378571Y-101307143D01*
X164450000Y-101450000D01*
X165235714Y-102164286D02*
X165307143Y-102235714D01*
X165378571Y-102164286D01*
X165307143Y-102092857D01*
X165235714Y-102164286D01*
X165378571Y-102164286D01*
X164378571Y-102664286D02*
X164378571Y-103235715D01*
X163878571Y-102878572D02*
X165164286Y-102878572D01*
X165307143Y-102950000D01*
X165378571Y-103092858D01*
X165378571Y-103235715D01*
X165307143Y-104307143D02*
X165378571Y-104164286D01*
X165378571Y-103878572D01*
X165307143Y-103735715D01*
X165164286Y-103664286D01*
X164592857Y-103664286D01*
X164450000Y-103735715D01*
X164378571Y-103878572D01*
X164378571Y-104164286D01*
X164450000Y-104307143D01*
X164592857Y-104378572D01*
X164735714Y-104378572D01*
X164878571Y-103664286D01*
X165307143Y-105664286D02*
X165378571Y-105521429D01*
X165378571Y-105235715D01*
X165307143Y-105092857D01*
X165235714Y-105021429D01*
X165092857Y-104950000D01*
X164664286Y-104950000D01*
X164521429Y-105021429D01*
X164450000Y-105092857D01*
X164378571Y-105235715D01*
X164378571Y-105521429D01*
X164450000Y-105664286D01*
X165378571Y-106307143D02*
X163878571Y-106307143D01*
X165378571Y-106950000D02*
X164592857Y-106950000D01*
X164450000Y-106878571D01*
X164378571Y-106735714D01*
X164378571Y-106521429D01*
X164450000Y-106378571D01*
X164521429Y-106307143D01*
X163807143Y-108735714D02*
X165735714Y-107450000D01*
X164378571Y-109021429D02*
X164378571Y-109592858D01*
X165378571Y-109235715D02*
X164092857Y-109235715D01*
X163950000Y-109307143D01*
X163878571Y-109450001D01*
X163878571Y-109592858D01*
X163878571Y-109950001D02*
X163878571Y-110878572D01*
X164450000Y-110378572D01*
X164450000Y-110592858D01*
X164521429Y-110735715D01*
X164592857Y-110807144D01*
X164735714Y-110878572D01*
X165092857Y-110878572D01*
X165235714Y-110807144D01*
X165307143Y-110735715D01*
X165378571Y-110592858D01*
X165378571Y-110164286D01*
X165307143Y-110021429D01*
X165235714Y-109950001D01*
X164378571Y-111307143D02*
X164378571Y-111878572D01*
X165378571Y-111521429D02*
X164092857Y-111521429D01*
X163950000Y-111592857D01*
X163878571Y-111735715D01*
X163878571Y-111878572D01*
X165307143Y-113021429D02*
X165378571Y-112878572D01*
X165378571Y-112592858D01*
X165307143Y-112450000D01*
X165235714Y-112378572D01*
X165092857Y-112307143D01*
X164664286Y-112307143D01*
X164521429Y-112378572D01*
X164450000Y-112450000D01*
X164378571Y-112592858D01*
X164378571Y-112878572D01*
X164450000Y-113021429D01*
X163807143Y-114735714D02*
X165735714Y-113450000D01*
X164378571Y-115092858D02*
X165378571Y-115450001D01*
X164378571Y-115807143D01*
X163878571Y-117021429D02*
X163878571Y-116735715D01*
X163950000Y-116592858D01*
X164021429Y-116521429D01*
X164235714Y-116378572D01*
X164521429Y-116307143D01*
X165092857Y-116307143D01*
X165235714Y-116378572D01*
X165307143Y-116450000D01*
X165378571Y-116592858D01*
X165378571Y-116878572D01*
X165307143Y-117021429D01*
X165235714Y-117092858D01*
X165092857Y-117164286D01*
X164735714Y-117164286D01*
X164592857Y-117092858D01*
X164521429Y-117021429D01*
X164450000Y-116878572D01*
X164450000Y-116592858D01*
X164521429Y-116450000D01*
X164592857Y-116378572D01*
X164735714Y-116307143D01*
D12*
X137723809Y-122904762D02*
X137580952Y-122952381D01*
X137342856Y-122952381D01*
X137247618Y-122904762D01*
X137199999Y-122857143D01*
X137152380Y-122761905D01*
X137152380Y-122666667D01*
X137199999Y-122571429D01*
X137247618Y-122523810D01*
X137342856Y-122476190D01*
X137533333Y-122428571D01*
X137628571Y-122380952D01*
X137676190Y-122333333D01*
X137723809Y-122238095D01*
X137723809Y-122142857D01*
X137676190Y-122047619D01*
X137628571Y-122000000D01*
X137533333Y-121952381D01*
X137295237Y-121952381D01*
X137152380Y-122000000D01*
X136723809Y-122952381D02*
X136723809Y-121952381D01*
X135723809Y-122000000D02*
X135819047Y-121952381D01*
X135961904Y-121952381D01*
X136104762Y-122000000D01*
X136200000Y-122095238D01*
X136247619Y-122190476D01*
X136295238Y-122380952D01*
X136295238Y-122523810D01*
X136247619Y-122714286D01*
X136200000Y-122809524D01*
X136104762Y-122904762D01*
X135961904Y-122952381D01*
X135866666Y-122952381D01*
X135723809Y-122904762D01*
X135676190Y-122857143D01*
X135676190Y-122523810D01*
X135866666Y-122523810D01*
D11*
X138814285Y-119278571D02*
X138814285Y-120278571D01*
X139171428Y-118707143D02*
X139528571Y-119778571D01*
X138599999Y-119778571D01*
X142049999Y-118828571D02*
X141121428Y-118828571D01*
X141621428Y-119400000D01*
X141407142Y-119400000D01*
X141264285Y-119471429D01*
X141192856Y-119542857D01*
X141121428Y-119685714D01*
X141121428Y-120042857D01*
X141192856Y-120185714D01*
X141264285Y-120257143D01*
X141407142Y-120328571D01*
X141835714Y-120328571D01*
X141978571Y-120257143D01*
X142049999Y-120185714D01*
X144578571Y-118921429D02*
X144507142Y-118850000D01*
X144364285Y-118778571D01*
X144007142Y-118778571D01*
X143864285Y-118850000D01*
X143792856Y-118921429D01*
X143721428Y-119064286D01*
X143721428Y-119207143D01*
X143792856Y-119421429D01*
X144649999Y-120278571D01*
X143721428Y-120278571D01*
X146221428Y-120278571D02*
X147078571Y-120278571D01*
X146649999Y-120278571D02*
X146649999Y-118778571D01*
X146792856Y-118992857D01*
X146935714Y-119135714D01*
X147078571Y-119207143D01*
D12*
X137261904Y-124500000D02*
X137357142Y-124452381D01*
X137499999Y-124452381D01*
X137642857Y-124500000D01*
X137738095Y-124595238D01*
X137785714Y-124690476D01*
X137833333Y-124880952D01*
X137833333Y-125023810D01*
X137785714Y-125214286D01*
X137738095Y-125309524D01*
X137642857Y-125404762D01*
X137499999Y-125452381D01*
X137404761Y-125452381D01*
X137261904Y-125404762D01*
X137214285Y-125357143D01*
X137214285Y-125023810D01*
X137404761Y-125023810D01*
X136785714Y-125452381D02*
X136785714Y-124452381D01*
X136214285Y-125452381D01*
X136214285Y-124452381D01*
X135738095Y-125452381D02*
X135738095Y-124452381D01*
X135500000Y-124452381D01*
X135357142Y-124500000D01*
X135261904Y-124595238D01*
X135214285Y-124690476D01*
X135166666Y-124880952D01*
X135166666Y-125023810D01*
X135214285Y-125214286D01*
X135261904Y-125309524D01*
X135357142Y-125404762D01*
X135500000Y-125452381D01*
X135738095Y-125452381D01*
X155869050Y-94479762D02*
X155726193Y-94527381D01*
X155488097Y-94527381D01*
X155392859Y-94479762D01*
X155345240Y-94432143D01*
X155297621Y-94336905D01*
X155297621Y-94241667D01*
X155345240Y-94146429D01*
X155392859Y-94098810D01*
X155488097Y-94051190D01*
X155678574Y-94003571D01*
X155773812Y-93955952D01*
X155821431Y-93908333D01*
X155869050Y-93813095D01*
X155869050Y-93717857D01*
X155821431Y-93622619D01*
X155773812Y-93575000D01*
X155678574Y-93527381D01*
X155440478Y-93527381D01*
X155297621Y-93575000D01*
X154869050Y-94527381D02*
X154869050Y-93527381D01*
X154440478Y-94527381D02*
X154440478Y-94003571D01*
X154488097Y-93908333D01*
X154583335Y-93860714D01*
X154726193Y-93860714D01*
X154821431Y-93908333D01*
X154869050Y-93955952D01*
X153821431Y-94527381D02*
X153916669Y-94479762D01*
X153964288Y-94432143D01*
X154011907Y-94336905D01*
X154011907Y-94051190D01*
X153964288Y-93955952D01*
X153916669Y-93908333D01*
X153821431Y-93860714D01*
X153678573Y-93860714D01*
X153583335Y-93908333D01*
X153535716Y-93955952D01*
X153488097Y-94051190D01*
X153488097Y-94336905D01*
X153535716Y-94432143D01*
X153583335Y-94479762D01*
X153678573Y-94527381D01*
X153821431Y-94527381D01*
X153059526Y-94527381D02*
X153059526Y-93860714D01*
X153059526Y-94051190D02*
X153011907Y-93955952D01*
X152964288Y-93908333D01*
X152869050Y-93860714D01*
X152773811Y-93860714D01*
X152583335Y-93860714D02*
X152202383Y-93860714D01*
X152440478Y-93527381D02*
X152440478Y-94384524D01*
X152392859Y-94479762D01*
X152297621Y-94527381D01*
X152202383Y-94527381D01*
X150535715Y-94527381D02*
X150869049Y-94051190D01*
X151107144Y-94527381D02*
X151107144Y-93527381D01*
X150726191Y-93527381D01*
X150630953Y-93575000D01*
X150583334Y-93622619D01*
X150535715Y-93717857D01*
X150535715Y-93860714D01*
X150583334Y-93955952D01*
X150630953Y-94003571D01*
X150726191Y-94051190D01*
X151107144Y-94051190D01*
X149726191Y-94479762D02*
X149821429Y-94527381D01*
X150011906Y-94527381D01*
X150107144Y-94479762D01*
X150154763Y-94384524D01*
X150154763Y-94003571D01*
X150107144Y-93908333D01*
X150011906Y-93860714D01*
X149821429Y-93860714D01*
X149726191Y-93908333D01*
X149678572Y-94003571D01*
X149678572Y-94098810D01*
X150154763Y-94194048D01*
X149297620Y-94479762D02*
X149202382Y-94527381D01*
X149011906Y-94527381D01*
X148916667Y-94479762D01*
X148869048Y-94384524D01*
X148869048Y-94336905D01*
X148916667Y-94241667D01*
X149011906Y-94194048D01*
X149154763Y-94194048D01*
X149250001Y-94146429D01*
X149297620Y-94051190D01*
X149297620Y-94003571D01*
X149250001Y-93908333D01*
X149154763Y-93860714D01*
X149011906Y-93860714D01*
X148916667Y-93908333D01*
X148059524Y-94479762D02*
X148154762Y-94527381D01*
X148345239Y-94527381D01*
X148440477Y-94479762D01*
X148488096Y-94384524D01*
X148488096Y-94003571D01*
X148440477Y-93908333D01*
X148345239Y-93860714D01*
X148154762Y-93860714D01*
X148059524Y-93908333D01*
X148011905Y-94003571D01*
X148011905Y-94098810D01*
X148488096Y-94194048D01*
X147726191Y-93860714D02*
X147345239Y-93860714D01*
X147583334Y-93527381D02*
X147583334Y-94384524D01*
X147535715Y-94479762D01*
X147440477Y-94527381D01*
X147345239Y-94527381D01*
X158916669Y-96077381D02*
X159392860Y-96077381D01*
X159392860Y-95077381D01*
X158440479Y-96077381D02*
X158535717Y-96029762D01*
X158583336Y-95982143D01*
X158630955Y-95886905D01*
X158630955Y-95601190D01*
X158583336Y-95505952D01*
X158535717Y-95458333D01*
X158440479Y-95410714D01*
X158297621Y-95410714D01*
X158202383Y-95458333D01*
X158154764Y-95505952D01*
X158107145Y-95601190D01*
X158107145Y-95886905D01*
X158154764Y-95982143D01*
X158202383Y-96029762D01*
X158297621Y-96077381D01*
X158440479Y-96077381D01*
X157678574Y-95410714D02*
X157678574Y-96077381D01*
X157678574Y-95505952D02*
X157630955Y-95458333D01*
X157535717Y-95410714D01*
X157392859Y-95410714D01*
X157297621Y-95458333D01*
X157250002Y-95553571D01*
X157250002Y-96077381D01*
X156345240Y-95410714D02*
X156345240Y-96220238D01*
X156392859Y-96315476D01*
X156440478Y-96363095D01*
X156535717Y-96410714D01*
X156678574Y-96410714D01*
X156773812Y-96363095D01*
X156345240Y-96029762D02*
X156440478Y-96077381D01*
X156630955Y-96077381D01*
X156726193Y-96029762D01*
X156773812Y-95982143D01*
X156821431Y-95886905D01*
X156821431Y-95601190D01*
X156773812Y-95505952D01*
X156726193Y-95458333D01*
X156630955Y-95410714D01*
X156440478Y-95410714D01*
X156345240Y-95458333D01*
X154773811Y-95553571D02*
X154630954Y-95601190D01*
X154583335Y-95648810D01*
X154535716Y-95744048D01*
X154535716Y-95886905D01*
X154583335Y-95982143D01*
X154630954Y-96029762D01*
X154726192Y-96077381D01*
X155107145Y-96077381D01*
X155107145Y-95077381D01*
X154773811Y-95077381D01*
X154678573Y-95125000D01*
X154630954Y-95172619D01*
X154583335Y-95267857D01*
X154583335Y-95363095D01*
X154630954Y-95458333D01*
X154678573Y-95505952D01*
X154773811Y-95553571D01*
X155107145Y-95553571D01*
X153964288Y-96077381D02*
X154059526Y-96029762D01*
X154107145Y-95982143D01*
X154154764Y-95886905D01*
X154154764Y-95601190D01*
X154107145Y-95505952D01*
X154059526Y-95458333D01*
X153964288Y-95410714D01*
X153821430Y-95410714D01*
X153726192Y-95458333D01*
X153678573Y-95505952D01*
X153630954Y-95601190D01*
X153630954Y-95886905D01*
X153678573Y-95982143D01*
X153726192Y-96029762D01*
X153821430Y-96077381D01*
X153964288Y-96077381D01*
X153059526Y-96077381D02*
X153154764Y-96029762D01*
X153202383Y-95982143D01*
X153250002Y-95886905D01*
X153250002Y-95601190D01*
X153202383Y-95505952D01*
X153154764Y-95458333D01*
X153059526Y-95410714D01*
X152916668Y-95410714D01*
X152821430Y-95458333D01*
X152773811Y-95505952D01*
X152726192Y-95601190D01*
X152726192Y-95886905D01*
X152773811Y-95982143D01*
X152821430Y-96029762D01*
X152916668Y-96077381D01*
X153059526Y-96077381D01*
X152440478Y-95410714D02*
X152059526Y-95410714D01*
X152297621Y-95077381D02*
X152297621Y-95934524D01*
X152250002Y-96029762D01*
X152154764Y-96077381D01*
X152059526Y-96077381D01*
X151583335Y-96077381D02*
X151678573Y-96029762D01*
X151726192Y-95934524D01*
X151726192Y-95077381D01*
X151059525Y-96077381D02*
X151154763Y-96029762D01*
X151202382Y-95982143D01*
X151250001Y-95886905D01*
X151250001Y-95601190D01*
X151202382Y-95505952D01*
X151154763Y-95458333D01*
X151059525Y-95410714D01*
X150916667Y-95410714D01*
X150821429Y-95458333D01*
X150773810Y-95505952D01*
X150726191Y-95601190D01*
X150726191Y-95886905D01*
X150773810Y-95982143D01*
X150821429Y-96029762D01*
X150916667Y-96077381D01*
X151059525Y-96077381D01*
X149869048Y-96077381D02*
X149869048Y-95553571D01*
X149916667Y-95458333D01*
X150011905Y-95410714D01*
X150202382Y-95410714D01*
X150297620Y-95458333D01*
X149869048Y-96029762D02*
X149964286Y-96077381D01*
X150202382Y-96077381D01*
X150297620Y-96029762D01*
X150345239Y-95934524D01*
X150345239Y-95839286D01*
X150297620Y-95744048D01*
X150202382Y-95696429D01*
X149964286Y-95696429D01*
X149869048Y-95648810D01*
X148964286Y-96077381D02*
X148964286Y-95077381D01*
X148964286Y-96029762D02*
X149059524Y-96077381D01*
X149250001Y-96077381D01*
X149345239Y-96029762D01*
X149392858Y-95982143D01*
X149440477Y-95886905D01*
X149440477Y-95601190D01*
X149392858Y-95505952D01*
X149345239Y-95458333D01*
X149250001Y-95410714D01*
X149059524Y-95410714D01*
X148964286Y-95458333D01*
X148107143Y-96029762D02*
X148202381Y-96077381D01*
X148392858Y-96077381D01*
X148488096Y-96029762D01*
X148535715Y-95934524D01*
X148535715Y-95553571D01*
X148488096Y-95458333D01*
X148392858Y-95410714D01*
X148202381Y-95410714D01*
X148107143Y-95458333D01*
X148059524Y-95553571D01*
X148059524Y-95648810D01*
X148535715Y-95744048D01*
X147630953Y-96077381D02*
X147630953Y-95410714D01*
X147630953Y-95601190D02*
X147583334Y-95505952D01*
X147535715Y-95458333D01*
X147440477Y-95410714D01*
X147345238Y-95410714D01*
X158725000Y-105240000D02*
X160575000Y-105240000D01*
X158725000Y-110760000D02*
X160575000Y-110760000D01*
X159650000Y-109800000D02*
X159650000Y-106200000D01*
X148250000Y-124900000D02*
X148250000Y-126050000D01*
X148250000Y-126050000D02*
X146700000Y-126050000D01*
X138826000Y-123376000D02*
X138826000Y-123884000D01*
X139334000Y-123376000D02*
X139334000Y-123884000D01*
X141366000Y-123376000D02*
X141366000Y-123884000D01*
X141874000Y-123376000D02*
X141874000Y-123884000D01*
X143906000Y-123376000D02*
X143906000Y-123884000D01*
X144414000Y-123376000D02*
X144414000Y-123884000D01*
X146446000Y-123376000D02*
X146446000Y-123884000D01*
X146954000Y-123376000D02*
X146954000Y-123884000D01*
X146954000Y-120836000D02*
X146954000Y-121344000D01*
X146446000Y-120836000D02*
X146446000Y-121344000D01*
X144414000Y-120836000D02*
X144414000Y-121344000D01*
X143906000Y-120836000D02*
X143906000Y-121344000D01*
X138826000Y-120836000D02*
X138826000Y-121344000D01*
X139334000Y-120836000D02*
X139334000Y-121344000D01*
X141366000Y-120836000D02*
X141366000Y-121344000D01*
X141874000Y-120836000D02*
X141874000Y-121344000D01*
X146827000Y-118296000D02*
X146827000Y-112327000D01*
X146827000Y-112327000D02*
X146573000Y-112327000D01*
X146573000Y-112327000D02*
X146573000Y-118169000D01*
X146573000Y-118169000D02*
X146700000Y-118169000D01*
X146700000Y-118169000D02*
X146700000Y-112327000D01*
X137810000Y-120836000D02*
X137810000Y-118296000D01*
X142890000Y-120836000D02*
X142890000Y-118296000D01*
X142890000Y-120836000D02*
X140350000Y-120836000D01*
X140350000Y-120836000D02*
X140350000Y-118296000D01*
X141874000Y-118296000D02*
X141874000Y-112200000D01*
X141874000Y-112200000D02*
X141366000Y-112200000D01*
X141366000Y-112200000D02*
X141366000Y-118296000D01*
X140350000Y-118296000D02*
X142890000Y-118296000D01*
X137810000Y-118296000D02*
X140350000Y-118296000D01*
X138826000Y-112200000D02*
X138826000Y-118296000D01*
X139334000Y-112200000D02*
X138826000Y-112200000D01*
X139334000Y-118296000D02*
X139334000Y-112200000D01*
X137810000Y-120836000D02*
X137810000Y-118296000D01*
X140350000Y-120836000D02*
X137810000Y-120836000D01*
X140350000Y-120836000D02*
X140350000Y-118296000D01*
X145430000Y-120836000D02*
X145430000Y-118296000D01*
X145430000Y-120836000D02*
X142890000Y-120836000D01*
X142890000Y-120836000D02*
X142890000Y-118296000D01*
X144414000Y-118296000D02*
X144414000Y-112200000D01*
X144414000Y-112200000D02*
X143906000Y-112200000D01*
X143906000Y-112200000D02*
X143906000Y-118296000D01*
X142890000Y-118296000D02*
X145430000Y-118296000D01*
X145430000Y-118296000D02*
X147970000Y-118296000D01*
X146446000Y-112200000D02*
X146446000Y-118296000D01*
X146954000Y-112200000D02*
X146446000Y-112200000D01*
X146954000Y-118296000D02*
X146954000Y-112200000D01*
X145430000Y-120836000D02*
X145430000Y-118296000D01*
X147970000Y-120836000D02*
X145430000Y-120836000D01*
X147970000Y-120836000D02*
X147970000Y-118296000D01*
X147075000Y-106510000D02*
X147075000Y-105510000D01*
X145725000Y-105510000D02*
X145725000Y-106510000D01*
X142350000Y-105120000D02*
X143050000Y-105120000D01*
X143050000Y-103920000D02*
X142350000Y-103920000D01*
X150840000Y-89985000D02*
X150840000Y-89435000D01*
X150840000Y-89435000D02*
X149140000Y-89435000D01*
X149140000Y-89435000D02*
X149140000Y-89985000D01*
X148240000Y-93085000D02*
X151740000Y-93085000D01*
X151740000Y-89985000D02*
X148240000Y-89985000D01*
X157900000Y-92949300D02*
X157900000Y-91049300D01*
X159000000Y-92949300D02*
X159000000Y-91049300D01*
X158450000Y-92049300D02*
X158450000Y-91599300D01*
X158700000Y-92099300D02*
X158200000Y-92099300D01*
X158450000Y-92099300D02*
X158700000Y-91849300D01*
X158700000Y-91849300D02*
X158200000Y-91849300D01*
X158200000Y-91849300D02*
X158450000Y-92099300D01*
X134400000Y-109675000D02*
X133400000Y-109675000D01*
X133400000Y-111025000D02*
X134400000Y-111025000D01*
X134400000Y-111475000D02*
X133400000Y-111475000D01*
X133400000Y-112825000D02*
X134400000Y-112825000D01*
X154914800Y-93029400D02*
X155914800Y-93029400D01*
X155914800Y-91679400D02*
X154914800Y-91679400D01*
X158624160Y-124650240D02*
X158575900Y-124650240D01*
X155825180Y-123949200D02*
X155825180Y-124650240D01*
X155825180Y-124650240D02*
X156074100Y-124650240D01*
X158624160Y-124650240D02*
X158824820Y-124650240D01*
X158824820Y-124650240D02*
X158824820Y-123949200D01*
X156825000Y-122025000D02*
X157825000Y-122025000D01*
X157825000Y-120675000D02*
X156825000Y-120675000D01*
X162351380Y-96800840D02*
X162351380Y-96849100D01*
X161650340Y-99599820D02*
X162351380Y-99599820D01*
X162351380Y-99599820D02*
X162351380Y-99350900D01*
X162351380Y-96800840D02*
X162351380Y-96600180D01*
X162351380Y-96600180D02*
X161650340Y-96600180D01*
X152625840Y-123349760D02*
X152674100Y-123349760D01*
X155424820Y-124050800D02*
X155424820Y-123349760D01*
X155424820Y-123349760D02*
X155175900Y-123349760D01*
X152625840Y-123349760D02*
X152425180Y-123349760D01*
X152425180Y-123349760D02*
X152425180Y-124050800D01*
X151549160Y-124701000D02*
X151500900Y-124701000D01*
X148750180Y-123999960D02*
X148750180Y-124701000D01*
X148750180Y-124701000D02*
X148999100Y-124701000D01*
X151549160Y-124701000D02*
X151749820Y-124701000D01*
X151749820Y-124701000D02*
X151749820Y-123999960D01*
X133033333Y-120653571D02*
X133366667Y-120653571D01*
X133366667Y-121177381D02*
X133366667Y-120177381D01*
X132890476Y-120177381D01*
X132080952Y-120510714D02*
X132080952Y-121177381D01*
X132319048Y-120129762D02*
X132557143Y-120844048D01*
X131938095Y-120844048D01*
X160808333Y-122678571D02*
X161141667Y-122678571D01*
X161141667Y-123202381D02*
X161141667Y-122202381D01*
X160665476Y-122202381D01*
X159808333Y-122202381D02*
X160284524Y-122202381D01*
X160332143Y-122678571D01*
X160284524Y-122630952D01*
X160189286Y-122583333D01*
X159951190Y-122583333D01*
X159855952Y-122630952D01*
X159808333Y-122678571D01*
X159760714Y-122773810D01*
X159760714Y-123011905D01*
X159808333Y-123107143D01*
X159855952Y-123154762D01*
X159951190Y-123202381D01*
X160189286Y-123202381D01*
X160284524Y-123154762D01*
X160332143Y-123107143D01*
X163058333Y-95228571D02*
X163391667Y-95228571D01*
X163391667Y-95752381D02*
X163391667Y-94752381D01*
X162915476Y-94752381D01*
X162105952Y-94752381D02*
X162296429Y-94752381D01*
X162391667Y-94800000D01*
X162439286Y-94847619D01*
X162534524Y-94990476D01*
X162582143Y-95180952D01*
X162582143Y-95561905D01*
X162534524Y-95657143D01*
X162486905Y-95704762D01*
X162391667Y-95752381D01*
X162201190Y-95752381D01*
X162105952Y-95704762D01*
X162058333Y-95657143D01*
X162010714Y-95561905D01*
X162010714Y-95323810D01*
X162058333Y-95228571D01*
X162105952Y-95180952D01*
X162201190Y-95133333D01*
X162391667Y-95133333D01*
X162486905Y-95180952D01*
X162534524Y-95228571D01*
X162582143Y-95323810D01*
X144952381Y-105843334D02*
X144476190Y-105510000D01*
X144952381Y-105271905D02*
X143952381Y-105271905D01*
X143952381Y-105652858D01*
X144000000Y-105748096D01*
X144047619Y-105795715D01*
X144142857Y-105843334D01*
X144285714Y-105843334D01*
X144380952Y-105795715D01*
X144428571Y-105748096D01*
X144476190Y-105652858D01*
X144476190Y-105271905D01*
X143952381Y-106748096D02*
X143952381Y-106271905D01*
X144428571Y-106224286D01*
X144380952Y-106271905D01*
X144333333Y-106367143D01*
X144333333Y-106605239D01*
X144380952Y-106700477D01*
X144428571Y-106748096D01*
X144523810Y-106795715D01*
X144761905Y-106795715D01*
X144857143Y-106748096D01*
X144904762Y-106700477D01*
X144952381Y-106605239D01*
X144952381Y-106367143D01*
X144904762Y-106271905D01*
X144857143Y-106224286D01*
X143342857Y-103457143D02*
X143390476Y-103504762D01*
X143533333Y-103552381D01*
X143628571Y-103552381D01*
X143771429Y-103504762D01*
X143866667Y-103409524D01*
X143914286Y-103314286D01*
X143961905Y-103123810D01*
X143961905Y-102980952D01*
X143914286Y-102790476D01*
X143866667Y-102695238D01*
X143771429Y-102600000D01*
X143628571Y-102552381D01*
X143533333Y-102552381D01*
X143390476Y-102600000D01*
X143342857Y-102647619D01*
X142390476Y-103552381D02*
X142961905Y-103552381D01*
X142676191Y-103552381D02*
X142676191Y-102552381D01*
X142771429Y-102695238D01*
X142866667Y-102790476D01*
X142961905Y-102838095D01*
X142057143Y-102552381D02*
X141438095Y-102552381D01*
X141771429Y-102933333D01*
X141628571Y-102933333D01*
X141533333Y-102980952D01*
X141485714Y-103028571D01*
X141438095Y-103123810D01*
X141438095Y-103361905D01*
X141485714Y-103457143D01*
X141533333Y-103504762D01*
X141628571Y-103552381D01*
X141914286Y-103552381D01*
X142009524Y-103504762D01*
X142057143Y-103457143D01*
X160402381Y-91111205D02*
X159402381Y-91111205D01*
X159402381Y-91349300D01*
X159450000Y-91492158D01*
X159545238Y-91587396D01*
X159640476Y-91635015D01*
X159830952Y-91682634D01*
X159973810Y-91682634D01*
X160164286Y-91635015D01*
X160259524Y-91587396D01*
X160354762Y-91492158D01*
X160402381Y-91349300D01*
X160402381Y-91111205D01*
X159402381Y-92587396D02*
X159402381Y-92111205D01*
X159878571Y-92063586D01*
X159830952Y-92111205D01*
X159783333Y-92206443D01*
X159783333Y-92444539D01*
X159830952Y-92539777D01*
X159878571Y-92587396D01*
X159973810Y-92635015D01*
X160211905Y-92635015D01*
X160307143Y-92587396D01*
X160354762Y-92539777D01*
X160402381Y-92444539D01*
X160402381Y-92206443D01*
X160354762Y-92111205D01*
X160307143Y-92063586D01*
X134066666Y-109265981D02*
X134400000Y-108789790D01*
X134638095Y-109265981D02*
X134638095Y-108265981D01*
X134257142Y-108265981D01*
X134161904Y-108313600D01*
X134114285Y-108361219D01*
X134066666Y-108456457D01*
X134066666Y-108599314D01*
X134114285Y-108694552D01*
X134161904Y-108742171D01*
X134257142Y-108789790D01*
X134638095Y-108789790D01*
X133209523Y-108599314D02*
X133209523Y-109265981D01*
X133447619Y-108218362D02*
X133685714Y-108932648D01*
X133066666Y-108932648D01*
X134542857Y-114502381D02*
X134876191Y-114026190D01*
X135114286Y-114502381D02*
X135114286Y-113502381D01*
X134733333Y-113502381D01*
X134638095Y-113550000D01*
X134590476Y-113597619D01*
X134542857Y-113692857D01*
X134542857Y-113835714D01*
X134590476Y-113930952D01*
X134638095Y-113978571D01*
X134733333Y-114026190D01*
X135114286Y-114026190D01*
X133590476Y-114502381D02*
X134161905Y-114502381D01*
X133876191Y-114502381D02*
X133876191Y-113502381D01*
X133971429Y-113645238D01*
X134066667Y-113740476D01*
X134161905Y-113788095D01*
X132638095Y-114502381D02*
X133209524Y-114502381D01*
X132923810Y-114502381D02*
X132923810Y-113502381D01*
X133019048Y-113645238D01*
X133114286Y-113740476D01*
X133209524Y-113788095D01*
X160358057Y-94483181D02*
X160691391Y-94006990D01*
X160929486Y-94483181D02*
X160929486Y-93483181D01*
X160548533Y-93483181D01*
X160453295Y-93530800D01*
X160405676Y-93578419D01*
X160358057Y-93673657D01*
X160358057Y-93816514D01*
X160405676Y-93911752D01*
X160453295Y-93959371D01*
X160548533Y-94006990D01*
X160929486Y-94006990D01*
X159405676Y-94483181D02*
X159977105Y-94483181D01*
X159691391Y-94483181D02*
X159691391Y-93483181D01*
X159786629Y-93626038D01*
X159881867Y-93721276D01*
X159977105Y-93768895D01*
X159024724Y-93578419D02*
X158977105Y-93530800D01*
X158881867Y-93483181D01*
X158643771Y-93483181D01*
X158548533Y-93530800D01*
X158500914Y-93578419D01*
X158453295Y-93673657D01*
X158453295Y-93768895D01*
X158500914Y-93911752D01*
X159072343Y-94483181D01*
X158453295Y-94483181D01*
X159197619Y-124629762D02*
X159150000Y-124534524D01*
X159054762Y-124439286D01*
X158911905Y-124296429D01*
X158864286Y-124201190D01*
X158864286Y-124105952D01*
X159102381Y-124153571D02*
X159054762Y-124058333D01*
X158959524Y-123963095D01*
X158769048Y-123915476D01*
X158435714Y-123915476D01*
X158245238Y-123963095D01*
X158150000Y-124058333D01*
X158102381Y-124153571D01*
X158102381Y-124344048D01*
X158150000Y-124439286D01*
X158245238Y-124534524D01*
X158435714Y-124582143D01*
X158769048Y-124582143D01*
X158959524Y-124534524D01*
X159054762Y-124439286D01*
X159102381Y-124344048D01*
X159102381Y-124153571D01*
X159102381Y-125534524D02*
X159102381Y-124963095D01*
X159102381Y-125248809D02*
X158102381Y-125248809D01*
X158245238Y-125153571D01*
X158340476Y-125058333D01*
X158388095Y-124963095D01*
X158641666Y-120427381D02*
X158975000Y-119951190D01*
X159213095Y-120427381D02*
X159213095Y-119427381D01*
X158832142Y-119427381D01*
X158736904Y-119475000D01*
X158689285Y-119522619D01*
X158641666Y-119617857D01*
X158641666Y-119760714D01*
X158689285Y-119855952D01*
X158736904Y-119903571D01*
X158832142Y-119951190D01*
X159213095Y-119951190D01*
X158308333Y-119427381D02*
X157641666Y-119427381D01*
X158070238Y-120427381D01*
X159802381Y-96686905D02*
X158802381Y-96686905D01*
X158802381Y-96925000D01*
X158850000Y-97067858D01*
X158945238Y-97163096D01*
X159040476Y-97210715D01*
X159230952Y-97258334D01*
X159373810Y-97258334D01*
X159564286Y-97210715D01*
X159659524Y-97163096D01*
X159754762Y-97067858D01*
X159802381Y-96925000D01*
X159802381Y-96686905D01*
X159135714Y-98115477D02*
X159802381Y-98115477D01*
X158754762Y-97877381D02*
X159469048Y-97639286D01*
X159469048Y-98258334D01*
X154020238Y-122297619D02*
X154115476Y-122250000D01*
X154210714Y-122154762D01*
X154353571Y-122011905D01*
X154448810Y-121964286D01*
X154544048Y-121964286D01*
X154496429Y-122202381D02*
X154591667Y-122154762D01*
X154686905Y-122059524D01*
X154734524Y-121869048D01*
X154734524Y-121535714D01*
X154686905Y-121345238D01*
X154591667Y-121250000D01*
X154496429Y-121202381D01*
X154305952Y-121202381D01*
X154210714Y-121250000D01*
X154115476Y-121345238D01*
X154067857Y-121535714D01*
X154067857Y-121869048D01*
X154115476Y-122059524D01*
X154210714Y-122154762D01*
X154305952Y-122202381D01*
X154496429Y-122202381D01*
X153210714Y-121535714D02*
X153210714Y-122202381D01*
X153448810Y-121154762D02*
X153686905Y-121869048D01*
X153067857Y-121869048D01*
X149497619Y-124704762D02*
X149450000Y-124609524D01*
X149354762Y-124514286D01*
X149211905Y-124371429D01*
X149164286Y-124276190D01*
X149164286Y-124180952D01*
X149402381Y-124228571D02*
X149354762Y-124133333D01*
X149259524Y-124038095D01*
X149069048Y-123990476D01*
X148735714Y-123990476D01*
X148545238Y-124038095D01*
X148450000Y-124133333D01*
X148402381Y-124228571D01*
X148402381Y-124419048D01*
X148450000Y-124514286D01*
X148545238Y-124609524D01*
X148735714Y-124657143D01*
X149069048Y-124657143D01*
X149259524Y-124609524D01*
X149354762Y-124514286D01*
X149402381Y-124419048D01*
X149402381Y-124228571D01*
X148402381Y-124990476D02*
X148402381Y-125609524D01*
X148783333Y-125276190D01*
X148783333Y-125419048D01*
X148830952Y-125514286D01*
X148878571Y-125561905D01*
X148973810Y-125609524D01*
X149211905Y-125609524D01*
X149307143Y-125561905D01*
X149354762Y-125514286D01*
X149402381Y-125419048D01*
X149402381Y-125133333D01*
X149354762Y-125038095D01*
X149307143Y-124990476D01*
M02*
