G04 #@! TF.FileFunction,Copper,L1,Top,Signal*
%FSLAX46Y46*%
G04 Gerber Fmt 4.6, Leading zero omitted, Abs format (unit mm)*
G04 Created by KiCad (PCBNEW 4.0.1-stable) date Monday, March 07, 2016 'PMt' 11:58:59 PM*
%MOMM*%
G01*
G04 APERTURE LIST*
%ADD10C,0.100000*%
%ADD11C,0.010000*%
%ADD12C,1.000000*%
%ADD13R,0.900000X1.200000*%
%ADD14R,0.280000X1.500000*%
%ADD15R,1.500000X0.280000*%
%ADD16R,1.200000X0.750000*%
%ADD17R,0.750000X1.200000*%
%ADD18R,0.797560X0.797560*%
%ADD19R,1.727200X1.727200*%
%ADD20O,1.727200X1.727200*%
%ADD21R,1.200000X0.900000*%
%ADD22R,0.700000X0.200000*%
%ADD23R,0.650000X1.060000*%
%ADD24R,2.000000X1.600000*%
%ADD25C,1.524000*%
%ADD26C,1.600000*%
%ADD27R,0.400000X2.100000*%
%ADD28R,0.850000X0.300000*%
%ADD29R,0.300000X0.850000*%
%ADD30R,1.300000X1.300000*%
%ADD31C,0.685800*%
%ADD32C,0.685801*%
%ADD33C,0.152400*%
%ADD34C,0.254000*%
%ADD35C,0.175000*%
G04 APERTURE END LIST*
D10*
D11*
G36*
X145513476Y-97592110D02*
X145513821Y-97570393D01*
X145514540Y-97551445D01*
X145515719Y-97534235D01*
X145517441Y-97517730D01*
X145519790Y-97500899D01*
X145522850Y-97482708D01*
X145525645Y-97467648D01*
X145534396Y-97427289D01*
X145545414Y-97385394D01*
X145558125Y-97343941D01*
X145571957Y-97304907D01*
X145574990Y-97297105D01*
X145586780Y-97267497D01*
X145598531Y-97238440D01*
X145610368Y-97209668D01*
X145622414Y-97180917D01*
X145634793Y-97151919D01*
X145647628Y-97122409D01*
X145661043Y-97092121D01*
X145675162Y-97060790D01*
X145690109Y-97028149D01*
X145706008Y-96993933D01*
X145722981Y-96957876D01*
X145741153Y-96919712D01*
X145760648Y-96879176D01*
X145781589Y-96836001D01*
X145804100Y-96789922D01*
X145828305Y-96740673D01*
X145854327Y-96687987D01*
X145882290Y-96631601D01*
X145912318Y-96571246D01*
X145920083Y-96555667D01*
X145945963Y-96503659D01*
X145969774Y-96455600D01*
X145991675Y-96411145D01*
X146011825Y-96369950D01*
X146030383Y-96331669D01*
X146047509Y-96295957D01*
X146063361Y-96262469D01*
X146078099Y-96230860D01*
X146091882Y-96200786D01*
X146104869Y-96171901D01*
X146117221Y-96143860D01*
X146129095Y-96116318D01*
X146140651Y-96088931D01*
X146152048Y-96061352D01*
X146163446Y-96033239D01*
X146175004Y-96004244D01*
X146177386Y-95998216D01*
X146184341Y-95980759D01*
X146190833Y-95964798D01*
X146196627Y-95950879D01*
X146201492Y-95939550D01*
X146205195Y-95931355D01*
X146207503Y-95926842D01*
X146208075Y-95926131D01*
X146210832Y-95927437D01*
X146216251Y-95931820D01*
X146223795Y-95938730D01*
X146232924Y-95947615D01*
X146243099Y-95957925D01*
X146253782Y-95969110D01*
X146264433Y-95980620D01*
X146274515Y-95991904D01*
X146283487Y-96002412D01*
X146287062Y-96006796D01*
X146325188Y-96057789D01*
X146361379Y-96113145D01*
X146395598Y-96172775D01*
X146427810Y-96236594D01*
X146457978Y-96304513D01*
X146486066Y-96376445D01*
X146512040Y-96452304D01*
X146535862Y-96532002D01*
X146557496Y-96615451D01*
X146576907Y-96702565D01*
X146579744Y-96716533D01*
X146590927Y-96776331D01*
X146599711Y-96832312D01*
X146606122Y-96884846D01*
X146610187Y-96934302D01*
X146611931Y-96981050D01*
X146611382Y-97025458D01*
X146608567Y-97067897D01*
X146606425Y-97087625D01*
X146599163Y-97132521D01*
X146588835Y-97173907D01*
X146575475Y-97211726D01*
X146559116Y-97245921D01*
X146539792Y-97276435D01*
X146517535Y-97303212D01*
X146492379Y-97326195D01*
X146464357Y-97345327D01*
X146451186Y-97352480D01*
X146432070Y-97361131D01*
X146411992Y-97368130D01*
X146389947Y-97373742D01*
X146364928Y-97378230D01*
X146341810Y-97381222D01*
X146326104Y-97382983D01*
X146321992Y-97430153D01*
X146320714Y-97444896D01*
X146319583Y-97458084D01*
X146318667Y-97468921D01*
X146318033Y-97476612D01*
X146317747Y-97480361D01*
X146317741Y-97480490D01*
X146316313Y-97482531D01*
X146315286Y-97482227D01*
X146314251Y-97483472D01*
X146313987Y-97488086D01*
X146314379Y-97494679D01*
X146315312Y-97501863D01*
X146316672Y-97508249D01*
X146317675Y-97511190D01*
X146318715Y-97514967D01*
X146320402Y-97522720D01*
X146322577Y-97533655D01*
X146325085Y-97546978D01*
X146327768Y-97561893D01*
X146328420Y-97565619D01*
X146337682Y-97621495D01*
X146345481Y-97674580D01*
X146352048Y-97726618D01*
X146357618Y-97779348D01*
X146359116Y-97795429D01*
X146360209Y-97810809D01*
X146361055Y-97829464D01*
X146361653Y-97850467D01*
X146362003Y-97872891D01*
X146362105Y-97895808D01*
X146361958Y-97918294D01*
X146361562Y-97939419D01*
X146360917Y-97958259D01*
X146360022Y-97973886D01*
X146359190Y-97982905D01*
X146352570Y-98032844D01*
X146344418Y-98081432D01*
X146334468Y-98129954D01*
X146322450Y-98179696D01*
X146308096Y-98231945D01*
X146304996Y-98242555D01*
X146300341Y-98258052D01*
X146296674Y-98269471D01*
X146293756Y-98277414D01*
X146291346Y-98282486D01*
X146289204Y-98285286D01*
X146287578Y-98286278D01*
X146284072Y-98286934D01*
X146276328Y-98288011D01*
X146264920Y-98289443D01*
X146250422Y-98291159D01*
X146233409Y-98293094D01*
X146214456Y-98295177D01*
X146194582Y-98297296D01*
X146170806Y-98299759D01*
X146151429Y-98301684D01*
X146136043Y-98303099D01*
X146124244Y-98304032D01*
X146115623Y-98304511D01*
X146109776Y-98304564D01*
X146106294Y-98304217D01*
X146104773Y-98303500D01*
X146104728Y-98303435D01*
X146103159Y-98299181D01*
X146101623Y-98292429D01*
X146101280Y-98290395D01*
X146099889Y-98282683D01*
X146097518Y-98270991D01*
X146094332Y-98256039D01*
X146090495Y-98238549D01*
X146086171Y-98219240D01*
X146081523Y-98198835D01*
X146076716Y-98178054D01*
X146071914Y-98157617D01*
X146067280Y-98138246D01*
X146062979Y-98120661D01*
X146059664Y-98107486D01*
X146040903Y-98037112D01*
X146021815Y-97971290D01*
X146002305Y-97909740D01*
X145982280Y-97852181D01*
X145961646Y-97798334D01*
X145940309Y-97747918D01*
X145936661Y-97739790D01*
X145913036Y-97691328D01*
X145885787Y-97641977D01*
X145855663Y-97592917D01*
X145823417Y-97545327D01*
X145789797Y-97500384D01*
X145764939Y-97470067D01*
X145754405Y-97457955D01*
X145743151Y-97445384D01*
X145731653Y-97432845D01*
X145720384Y-97420830D01*
X145709818Y-97409829D01*
X145700429Y-97400335D01*
X145692691Y-97392839D01*
X145687077Y-97387832D01*
X145684062Y-97385806D01*
X145683738Y-97385849D01*
X145681991Y-97389390D01*
X145679332Y-97396909D01*
X145675973Y-97407679D01*
X145672129Y-97420975D01*
X145668015Y-97436069D01*
X145663845Y-97452235D01*
X145662125Y-97459181D01*
X145652245Y-97507115D01*
X145646066Y-97555253D01*
X145643600Y-97604063D01*
X145644860Y-97654013D01*
X145649857Y-97705573D01*
X145658605Y-97759210D01*
X145671115Y-97815395D01*
X145671449Y-97816731D01*
X145687728Y-97873850D01*
X145707221Y-97928616D01*
X145729771Y-97980827D01*
X145755220Y-98030278D01*
X145783411Y-98076768D01*
X145814186Y-98120093D01*
X145847388Y-98160050D01*
X145882858Y-98196438D01*
X145920440Y-98229052D01*
X145959977Y-98257689D01*
X146001309Y-98282148D01*
X146044281Y-98302225D01*
X146050296Y-98304627D01*
X146069648Y-98312196D01*
X146166202Y-98413646D01*
X146183846Y-98432169D01*
X146200497Y-98449620D01*
X146215857Y-98465689D01*
X146229627Y-98480064D01*
X146241508Y-98492434D01*
X146251202Y-98502488D01*
X146258409Y-98509915D01*
X146262832Y-98514404D01*
X146264174Y-98515676D01*
X146265404Y-98513649D01*
X146268401Y-98507613D01*
X146272971Y-98497984D01*
X146278924Y-98485176D01*
X146286069Y-98469605D01*
X146294213Y-98451686D01*
X146303165Y-98431836D01*
X146312735Y-98410469D01*
X146315013Y-98405360D01*
X146364436Y-98294464D01*
X146405728Y-98282917D01*
X146424900Y-98277359D01*
X146447059Y-98270610D01*
X146470919Y-98263088D01*
X146495195Y-98255209D01*
X146518602Y-98247389D01*
X146539855Y-98240047D01*
X146556919Y-98233878D01*
X146566304Y-98230142D01*
X146572115Y-98227043D01*
X146575417Y-98223850D01*
X146577241Y-98219945D01*
X146578040Y-98214938D01*
X146578683Y-98205804D01*
X146579172Y-98193250D01*
X146579507Y-98177986D01*
X146579690Y-98160720D01*
X146579724Y-98142158D01*
X146579608Y-98123011D01*
X146579345Y-98103986D01*
X146578937Y-98085791D01*
X146578384Y-98069134D01*
X146577689Y-98054724D01*
X146576863Y-98043381D01*
X146564774Y-97931649D01*
X146555603Y-97863162D01*
X146551189Y-97833868D01*
X146546868Y-97808621D01*
X146542428Y-97786640D01*
X146537653Y-97767143D01*
X146532331Y-97749349D01*
X146526246Y-97732477D01*
X146519184Y-97715745D01*
X146510933Y-97698372D01*
X146509873Y-97696248D01*
X146488252Y-97657924D01*
X146462307Y-97620341D01*
X146432553Y-97584131D01*
X146399502Y-97549927D01*
X146368880Y-97522637D01*
X146353635Y-97509981D01*
X146361987Y-97509981D01*
X146372188Y-97509288D01*
X146385800Y-97507375D01*
X146401624Y-97504488D01*
X146418462Y-97500873D01*
X146435114Y-97496778D01*
X146450381Y-97492450D01*
X146456173Y-97490595D01*
X146496904Y-97474555D01*
X146534716Y-97454678D01*
X146569558Y-97431022D01*
X146601374Y-97403650D01*
X146630111Y-97372620D01*
X146655717Y-97337994D01*
X146678137Y-97299832D01*
X146697319Y-97258195D01*
X146713209Y-97213143D01*
X146718923Y-97193086D01*
X146727339Y-97157259D01*
X146733721Y-97120385D01*
X146738166Y-97081593D01*
X146740775Y-97040012D01*
X146741646Y-96994772D01*
X146741647Y-96993514D01*
X146741229Y-96958422D01*
X146739929Y-96924337D01*
X146737658Y-96890467D01*
X146734326Y-96856018D01*
X146729845Y-96820197D01*
X146724126Y-96782210D01*
X146717080Y-96741265D01*
X146708618Y-96696567D01*
X146708025Y-96693552D01*
X146689934Y-96608906D01*
X146669615Y-96526963D01*
X146647142Y-96447888D01*
X146622591Y-96371847D01*
X146596036Y-96299005D01*
X146567553Y-96229526D01*
X146537216Y-96163576D01*
X146505101Y-96101320D01*
X146471282Y-96042923D01*
X146435834Y-95988550D01*
X146398833Y-95938367D01*
X146360352Y-95892538D01*
X146329632Y-95860190D01*
X146318214Y-95849125D01*
X146306029Y-95837811D01*
X146294311Y-95827362D01*
X146284294Y-95818896D01*
X146281469Y-95816648D01*
X146272594Y-95809727D01*
X146264754Y-95803592D01*
X146258989Y-95799057D01*
X146256775Y-95797295D01*
X146254749Y-95795413D01*
X146253686Y-95793130D01*
X146253591Y-95789423D01*
X146254470Y-95783273D01*
X146256329Y-95773655D01*
X146256929Y-95770686D01*
X146268886Y-95699527D01*
X146276051Y-95627931D01*
X146278432Y-95555776D01*
X146276035Y-95482943D01*
X146275262Y-95471933D01*
X146270415Y-95414120D01*
X146264221Y-95351841D01*
X146256710Y-95285270D01*
X146247912Y-95214580D01*
X146237858Y-95139944D01*
X146226576Y-95061536D01*
X146214097Y-94979527D01*
X146200450Y-94894092D01*
X146185667Y-94805402D01*
X146169776Y-94713632D01*
X146152808Y-94618955D01*
X146134792Y-94521542D01*
X146115758Y-94421568D01*
X146095737Y-94319205D01*
X146074759Y-94214627D01*
X146052852Y-94108005D01*
X146030048Y-93999515D01*
X146006376Y-93889328D01*
X145983423Y-93784648D01*
X145976666Y-93754138D01*
X145970983Y-93727931D01*
X145966466Y-93705594D01*
X145963208Y-93686693D01*
X145961300Y-93670792D01*
X145960835Y-93657459D01*
X145961905Y-93646260D01*
X145964603Y-93636760D01*
X145969020Y-93628525D01*
X145975249Y-93621121D01*
X145983382Y-93614114D01*
X145993511Y-93607071D01*
X146005729Y-93599557D01*
X146020128Y-93591138D01*
X146025174Y-93588203D01*
X146070278Y-93562648D01*
X146115021Y-93538694D01*
X146158833Y-93516614D01*
X146201142Y-93496677D01*
X146241379Y-93479156D01*
X146278973Y-93464320D01*
X146306018Y-93454813D01*
X146341958Y-93444211D01*
X146375498Y-93436863D01*
X146406481Y-93432749D01*
X146434750Y-93431850D01*
X146460150Y-93434147D01*
X146482523Y-93439622D01*
X146501713Y-93448256D01*
X146517563Y-93460031D01*
X146529917Y-93474926D01*
X146534043Y-93482143D01*
X146537306Y-93489092D01*
X146540302Y-93496669D01*
X146543051Y-93505121D01*
X146545572Y-93514693D01*
X146547884Y-93525628D01*
X146550007Y-93538174D01*
X146551960Y-93552573D01*
X146553761Y-93569073D01*
X146555431Y-93587916D01*
X146556989Y-93609350D01*
X146558454Y-93633617D01*
X146559845Y-93660965D01*
X146561181Y-93691637D01*
X146562483Y-93725879D01*
X146563769Y-93763935D01*
X146565058Y-93806051D01*
X146566370Y-93852471D01*
X146567724Y-93903442D01*
X146567967Y-93912857D01*
X146570256Y-93996567D01*
X146572711Y-94075821D01*
X146575352Y-94151001D01*
X146578202Y-94222487D01*
X146581281Y-94290660D01*
X146584609Y-94355901D01*
X146588209Y-94418589D01*
X146592101Y-94479107D01*
X146596306Y-94537835D01*
X146600846Y-94595153D01*
X146605740Y-94651442D01*
X146611011Y-94707083D01*
X146612866Y-94725657D01*
X146622350Y-94813908D01*
X146632702Y-94899256D01*
X146644038Y-94982213D01*
X146656474Y-95063293D01*
X146670127Y-95143009D01*
X146685112Y-95221875D01*
X146701546Y-95300402D01*
X146719545Y-95379106D01*
X146739225Y-95458498D01*
X146760703Y-95539092D01*
X146784095Y-95621401D01*
X146809516Y-95705938D01*
X146837083Y-95793217D01*
X146866912Y-95883751D01*
X146891406Y-95955743D01*
X146903412Y-95989933D01*
X146915361Y-96022526D01*
X146927474Y-96053982D01*
X146939971Y-96084759D01*
X146953070Y-96115317D01*
X146966991Y-96146114D01*
X146981955Y-96177610D01*
X146998180Y-96210264D01*
X147015887Y-96244534D01*
X147035295Y-96280880D01*
X147056623Y-96319761D01*
X147080092Y-96361635D01*
X147105920Y-96406962D01*
X147114224Y-96421410D01*
X147137353Y-96461607D01*
X147158218Y-96497930D01*
X147176989Y-96530685D01*
X147193834Y-96560180D01*
X147208923Y-96586721D01*
X147222425Y-96610614D01*
X147234510Y-96632168D01*
X147245347Y-96651689D01*
X147255105Y-96669484D01*
X147263953Y-96685860D01*
X147272061Y-96701124D01*
X147279598Y-96715583D01*
X147286734Y-96729543D01*
X147293637Y-96743313D01*
X147300478Y-96757198D01*
X147307425Y-96771506D01*
X147308031Y-96772761D01*
X147329588Y-96819005D01*
X147348276Y-96862629D01*
X147364365Y-96904572D01*
X147378123Y-96945777D01*
X147389819Y-96987182D01*
X147399722Y-97029730D01*
X147408101Y-97074361D01*
X147415226Y-97122015D01*
X147420592Y-97166476D01*
X147423170Y-97194581D01*
X147425200Y-97226087D01*
X147426643Y-97259583D01*
X147427463Y-97293660D01*
X147427622Y-97326906D01*
X147427082Y-97357912D01*
X147426234Y-97378143D01*
X147421679Y-97432689D01*
X147414053Y-97487859D01*
X147403561Y-97542838D01*
X147390409Y-97596811D01*
X147374801Y-97648964D01*
X147356941Y-97698482D01*
X147337036Y-97744549D01*
X147331000Y-97756966D01*
X147300655Y-97812495D01*
X147265709Y-97866819D01*
X147226270Y-97919841D01*
X147182446Y-97971466D01*
X147134345Y-98021598D01*
X147082076Y-98070141D01*
X147025746Y-98116999D01*
X146965465Y-98162076D01*
X146901339Y-98205277D01*
X146833477Y-98246505D01*
X146761987Y-98285665D01*
X146699852Y-98316585D01*
X146672482Y-98329160D01*
X146644118Y-98341243D01*
X146613873Y-98353182D01*
X146580861Y-98365324D01*
X146544197Y-98378016D01*
X146535315Y-98380995D01*
X146519237Y-98386254D01*
X146501690Y-98391811D01*
X146483490Y-98397423D01*
X146465456Y-98402851D01*
X146448405Y-98407851D01*
X146433156Y-98412182D01*
X146420525Y-98415603D01*
X146411330Y-98417871D01*
X146408669Y-98418427D01*
X146400741Y-98419914D01*
X146344122Y-98560221D01*
X146334148Y-98584893D01*
X146324687Y-98608212D01*
X146315897Y-98629795D01*
X146307934Y-98649259D01*
X146300958Y-98666219D01*
X146295125Y-98680293D01*
X146290595Y-98691096D01*
X146287524Y-98698246D01*
X146286070Y-98701359D01*
X146285993Y-98701461D01*
X146284176Y-98699856D01*
X146279406Y-98694918D01*
X146271941Y-98686929D01*
X146262039Y-98676175D01*
X146249960Y-98662939D01*
X146235962Y-98647506D01*
X146220303Y-98630159D01*
X146203243Y-98611184D01*
X146185039Y-98590863D01*
X146169499Y-98573461D01*
X146147467Y-98548764D01*
X146128409Y-98527429D01*
X146112080Y-98509202D01*
X146098239Y-98493830D01*
X146086642Y-98481060D01*
X146077046Y-98470639D01*
X146069209Y-98462314D01*
X146062887Y-98455831D01*
X146057839Y-98450938D01*
X146053820Y-98447381D01*
X146050588Y-98444908D01*
X146047901Y-98443264D01*
X146045515Y-98442198D01*
X146043187Y-98441455D01*
X146042730Y-98441329D01*
X146028639Y-98436934D01*
X146011530Y-98430693D01*
X145992617Y-98423101D01*
X145973114Y-98414658D01*
X145954235Y-98405859D01*
X145945123Y-98401337D01*
X145905208Y-98379087D01*
X145866722Y-98353559D01*
X145829028Y-98324286D01*
X145791488Y-98290801D01*
X145782125Y-98281788D01*
X145745413Y-98243725D01*
X145712167Y-98204448D01*
X145681793Y-98163130D01*
X145653696Y-98118948D01*
X145627283Y-98071076D01*
X145620002Y-98056686D01*
X145598147Y-98010020D01*
X145579060Y-97963382D01*
X145562485Y-97915929D01*
X145548166Y-97866818D01*
X145535846Y-97815208D01*
X145525269Y-97760255D01*
X145520116Y-97728391D01*
X145518114Y-97714789D01*
X145516560Y-97702907D01*
X145515397Y-97691787D01*
X145514566Y-97680472D01*
X145514011Y-97668005D01*
X145513672Y-97653430D01*
X145513493Y-97635789D01*
X145513423Y-97617629D01*
X145513476Y-97592110D01*
X145513476Y-97592110D01*
G37*
X145513476Y-97592110D02*
X145513821Y-97570393D01*
X145514540Y-97551445D01*
X145515719Y-97534235D01*
X145517441Y-97517730D01*
X145519790Y-97500899D01*
X145522850Y-97482708D01*
X145525645Y-97467648D01*
X145534396Y-97427289D01*
X145545414Y-97385394D01*
X145558125Y-97343941D01*
X145571957Y-97304907D01*
X145574990Y-97297105D01*
X145586780Y-97267497D01*
X145598531Y-97238440D01*
X145610368Y-97209668D01*
X145622414Y-97180917D01*
X145634793Y-97151919D01*
X145647628Y-97122409D01*
X145661043Y-97092121D01*
X145675162Y-97060790D01*
X145690109Y-97028149D01*
X145706008Y-96993933D01*
X145722981Y-96957876D01*
X145741153Y-96919712D01*
X145760648Y-96879176D01*
X145781589Y-96836001D01*
X145804100Y-96789922D01*
X145828305Y-96740673D01*
X145854327Y-96687987D01*
X145882290Y-96631601D01*
X145912318Y-96571246D01*
X145920083Y-96555667D01*
X145945963Y-96503659D01*
X145969774Y-96455600D01*
X145991675Y-96411145D01*
X146011825Y-96369950D01*
X146030383Y-96331669D01*
X146047509Y-96295957D01*
X146063361Y-96262469D01*
X146078099Y-96230860D01*
X146091882Y-96200786D01*
X146104869Y-96171901D01*
X146117221Y-96143860D01*
X146129095Y-96116318D01*
X146140651Y-96088931D01*
X146152048Y-96061352D01*
X146163446Y-96033239D01*
X146175004Y-96004244D01*
X146177386Y-95998216D01*
X146184341Y-95980759D01*
X146190833Y-95964798D01*
X146196627Y-95950879D01*
X146201492Y-95939550D01*
X146205195Y-95931355D01*
X146207503Y-95926842D01*
X146208075Y-95926131D01*
X146210832Y-95927437D01*
X146216251Y-95931820D01*
X146223795Y-95938730D01*
X146232924Y-95947615D01*
X146243099Y-95957925D01*
X146253782Y-95969110D01*
X146264433Y-95980620D01*
X146274515Y-95991904D01*
X146283487Y-96002412D01*
X146287062Y-96006796D01*
X146325188Y-96057789D01*
X146361379Y-96113145D01*
X146395598Y-96172775D01*
X146427810Y-96236594D01*
X146457978Y-96304513D01*
X146486066Y-96376445D01*
X146512040Y-96452304D01*
X146535862Y-96532002D01*
X146557496Y-96615451D01*
X146576907Y-96702565D01*
X146579744Y-96716533D01*
X146590927Y-96776331D01*
X146599711Y-96832312D01*
X146606122Y-96884846D01*
X146610187Y-96934302D01*
X146611931Y-96981050D01*
X146611382Y-97025458D01*
X146608567Y-97067897D01*
X146606425Y-97087625D01*
X146599163Y-97132521D01*
X146588835Y-97173907D01*
X146575475Y-97211726D01*
X146559116Y-97245921D01*
X146539792Y-97276435D01*
X146517535Y-97303212D01*
X146492379Y-97326195D01*
X146464357Y-97345327D01*
X146451186Y-97352480D01*
X146432070Y-97361131D01*
X146411992Y-97368130D01*
X146389947Y-97373742D01*
X146364928Y-97378230D01*
X146341810Y-97381222D01*
X146326104Y-97382983D01*
X146321992Y-97430153D01*
X146320714Y-97444896D01*
X146319583Y-97458084D01*
X146318667Y-97468921D01*
X146318033Y-97476612D01*
X146317747Y-97480361D01*
X146317741Y-97480490D01*
X146316313Y-97482531D01*
X146315286Y-97482227D01*
X146314251Y-97483472D01*
X146313987Y-97488086D01*
X146314379Y-97494679D01*
X146315312Y-97501863D01*
X146316672Y-97508249D01*
X146317675Y-97511190D01*
X146318715Y-97514967D01*
X146320402Y-97522720D01*
X146322577Y-97533655D01*
X146325085Y-97546978D01*
X146327768Y-97561893D01*
X146328420Y-97565619D01*
X146337682Y-97621495D01*
X146345481Y-97674580D01*
X146352048Y-97726618D01*
X146357618Y-97779348D01*
X146359116Y-97795429D01*
X146360209Y-97810809D01*
X146361055Y-97829464D01*
X146361653Y-97850467D01*
X146362003Y-97872891D01*
X146362105Y-97895808D01*
X146361958Y-97918294D01*
X146361562Y-97939419D01*
X146360917Y-97958259D01*
X146360022Y-97973886D01*
X146359190Y-97982905D01*
X146352570Y-98032844D01*
X146344418Y-98081432D01*
X146334468Y-98129954D01*
X146322450Y-98179696D01*
X146308096Y-98231945D01*
X146304996Y-98242555D01*
X146300341Y-98258052D01*
X146296674Y-98269471D01*
X146293756Y-98277414D01*
X146291346Y-98282486D01*
X146289204Y-98285286D01*
X146287578Y-98286278D01*
X146284072Y-98286934D01*
X146276328Y-98288011D01*
X146264920Y-98289443D01*
X146250422Y-98291159D01*
X146233409Y-98293094D01*
X146214456Y-98295177D01*
X146194582Y-98297296D01*
X146170806Y-98299759D01*
X146151429Y-98301684D01*
X146136043Y-98303099D01*
X146124244Y-98304032D01*
X146115623Y-98304511D01*
X146109776Y-98304564D01*
X146106294Y-98304217D01*
X146104773Y-98303500D01*
X146104728Y-98303435D01*
X146103159Y-98299181D01*
X146101623Y-98292429D01*
X146101280Y-98290395D01*
X146099889Y-98282683D01*
X146097518Y-98270991D01*
X146094332Y-98256039D01*
X146090495Y-98238549D01*
X146086171Y-98219240D01*
X146081523Y-98198835D01*
X146076716Y-98178054D01*
X146071914Y-98157617D01*
X146067280Y-98138246D01*
X146062979Y-98120661D01*
X146059664Y-98107486D01*
X146040903Y-98037112D01*
X146021815Y-97971290D01*
X146002305Y-97909740D01*
X145982280Y-97852181D01*
X145961646Y-97798334D01*
X145940309Y-97747918D01*
X145936661Y-97739790D01*
X145913036Y-97691328D01*
X145885787Y-97641977D01*
X145855663Y-97592917D01*
X145823417Y-97545327D01*
X145789797Y-97500384D01*
X145764939Y-97470067D01*
X145754405Y-97457955D01*
X145743151Y-97445384D01*
X145731653Y-97432845D01*
X145720384Y-97420830D01*
X145709818Y-97409829D01*
X145700429Y-97400335D01*
X145692691Y-97392839D01*
X145687077Y-97387832D01*
X145684062Y-97385806D01*
X145683738Y-97385849D01*
X145681991Y-97389390D01*
X145679332Y-97396909D01*
X145675973Y-97407679D01*
X145672129Y-97420975D01*
X145668015Y-97436069D01*
X145663845Y-97452235D01*
X145662125Y-97459181D01*
X145652245Y-97507115D01*
X145646066Y-97555253D01*
X145643600Y-97604063D01*
X145644860Y-97654013D01*
X145649857Y-97705573D01*
X145658605Y-97759210D01*
X145671115Y-97815395D01*
X145671449Y-97816731D01*
X145687728Y-97873850D01*
X145707221Y-97928616D01*
X145729771Y-97980827D01*
X145755220Y-98030278D01*
X145783411Y-98076768D01*
X145814186Y-98120093D01*
X145847388Y-98160050D01*
X145882858Y-98196438D01*
X145920440Y-98229052D01*
X145959977Y-98257689D01*
X146001309Y-98282148D01*
X146044281Y-98302225D01*
X146050296Y-98304627D01*
X146069648Y-98312196D01*
X146166202Y-98413646D01*
X146183846Y-98432169D01*
X146200497Y-98449620D01*
X146215857Y-98465689D01*
X146229627Y-98480064D01*
X146241508Y-98492434D01*
X146251202Y-98502488D01*
X146258409Y-98509915D01*
X146262832Y-98514404D01*
X146264174Y-98515676D01*
X146265404Y-98513649D01*
X146268401Y-98507613D01*
X146272971Y-98497984D01*
X146278924Y-98485176D01*
X146286069Y-98469605D01*
X146294213Y-98451686D01*
X146303165Y-98431836D01*
X146312735Y-98410469D01*
X146315013Y-98405360D01*
X146364436Y-98294464D01*
X146405728Y-98282917D01*
X146424900Y-98277359D01*
X146447059Y-98270610D01*
X146470919Y-98263088D01*
X146495195Y-98255209D01*
X146518602Y-98247389D01*
X146539855Y-98240047D01*
X146556919Y-98233878D01*
X146566304Y-98230142D01*
X146572115Y-98227043D01*
X146575417Y-98223850D01*
X146577241Y-98219945D01*
X146578040Y-98214938D01*
X146578683Y-98205804D01*
X146579172Y-98193250D01*
X146579507Y-98177986D01*
X146579690Y-98160720D01*
X146579724Y-98142158D01*
X146579608Y-98123011D01*
X146579345Y-98103986D01*
X146578937Y-98085791D01*
X146578384Y-98069134D01*
X146577689Y-98054724D01*
X146576863Y-98043381D01*
X146564774Y-97931649D01*
X146555603Y-97863162D01*
X146551189Y-97833868D01*
X146546868Y-97808621D01*
X146542428Y-97786640D01*
X146537653Y-97767143D01*
X146532331Y-97749349D01*
X146526246Y-97732477D01*
X146519184Y-97715745D01*
X146510933Y-97698372D01*
X146509873Y-97696248D01*
X146488252Y-97657924D01*
X146462307Y-97620341D01*
X146432553Y-97584131D01*
X146399502Y-97549927D01*
X146368880Y-97522637D01*
X146353635Y-97509981D01*
X146361987Y-97509981D01*
X146372188Y-97509288D01*
X146385800Y-97507375D01*
X146401624Y-97504488D01*
X146418462Y-97500873D01*
X146435114Y-97496778D01*
X146450381Y-97492450D01*
X146456173Y-97490595D01*
X146496904Y-97474555D01*
X146534716Y-97454678D01*
X146569558Y-97431022D01*
X146601374Y-97403650D01*
X146630111Y-97372620D01*
X146655717Y-97337994D01*
X146678137Y-97299832D01*
X146697319Y-97258195D01*
X146713209Y-97213143D01*
X146718923Y-97193086D01*
X146727339Y-97157259D01*
X146733721Y-97120385D01*
X146738166Y-97081593D01*
X146740775Y-97040012D01*
X146741646Y-96994772D01*
X146741647Y-96993514D01*
X146741229Y-96958422D01*
X146739929Y-96924337D01*
X146737658Y-96890467D01*
X146734326Y-96856018D01*
X146729845Y-96820197D01*
X146724126Y-96782210D01*
X146717080Y-96741265D01*
X146708618Y-96696567D01*
X146708025Y-96693552D01*
X146689934Y-96608906D01*
X146669615Y-96526963D01*
X146647142Y-96447888D01*
X146622591Y-96371847D01*
X146596036Y-96299005D01*
X146567553Y-96229526D01*
X146537216Y-96163576D01*
X146505101Y-96101320D01*
X146471282Y-96042923D01*
X146435834Y-95988550D01*
X146398833Y-95938367D01*
X146360352Y-95892538D01*
X146329632Y-95860190D01*
X146318214Y-95849125D01*
X146306029Y-95837811D01*
X146294311Y-95827362D01*
X146284294Y-95818896D01*
X146281469Y-95816648D01*
X146272594Y-95809727D01*
X146264754Y-95803592D01*
X146258989Y-95799057D01*
X146256775Y-95797295D01*
X146254749Y-95795413D01*
X146253686Y-95793130D01*
X146253591Y-95789423D01*
X146254470Y-95783273D01*
X146256329Y-95773655D01*
X146256929Y-95770686D01*
X146268886Y-95699527D01*
X146276051Y-95627931D01*
X146278432Y-95555776D01*
X146276035Y-95482943D01*
X146275262Y-95471933D01*
X146270415Y-95414120D01*
X146264221Y-95351841D01*
X146256710Y-95285270D01*
X146247912Y-95214580D01*
X146237858Y-95139944D01*
X146226576Y-95061536D01*
X146214097Y-94979527D01*
X146200450Y-94894092D01*
X146185667Y-94805402D01*
X146169776Y-94713632D01*
X146152808Y-94618955D01*
X146134792Y-94521542D01*
X146115758Y-94421568D01*
X146095737Y-94319205D01*
X146074759Y-94214627D01*
X146052852Y-94108005D01*
X146030048Y-93999515D01*
X146006376Y-93889328D01*
X145983423Y-93784648D01*
X145976666Y-93754138D01*
X145970983Y-93727931D01*
X145966466Y-93705594D01*
X145963208Y-93686693D01*
X145961300Y-93670792D01*
X145960835Y-93657459D01*
X145961905Y-93646260D01*
X145964603Y-93636760D01*
X145969020Y-93628525D01*
X145975249Y-93621121D01*
X145983382Y-93614114D01*
X145993511Y-93607071D01*
X146005729Y-93599557D01*
X146020128Y-93591138D01*
X146025174Y-93588203D01*
X146070278Y-93562648D01*
X146115021Y-93538694D01*
X146158833Y-93516614D01*
X146201142Y-93496677D01*
X146241379Y-93479156D01*
X146278973Y-93464320D01*
X146306018Y-93454813D01*
X146341958Y-93444211D01*
X146375498Y-93436863D01*
X146406481Y-93432749D01*
X146434750Y-93431850D01*
X146460150Y-93434147D01*
X146482523Y-93439622D01*
X146501713Y-93448256D01*
X146517563Y-93460031D01*
X146529917Y-93474926D01*
X146534043Y-93482143D01*
X146537306Y-93489092D01*
X146540302Y-93496669D01*
X146543051Y-93505121D01*
X146545572Y-93514693D01*
X146547884Y-93525628D01*
X146550007Y-93538174D01*
X146551960Y-93552573D01*
X146553761Y-93569073D01*
X146555431Y-93587916D01*
X146556989Y-93609350D01*
X146558454Y-93633617D01*
X146559845Y-93660965D01*
X146561181Y-93691637D01*
X146562483Y-93725879D01*
X146563769Y-93763935D01*
X146565058Y-93806051D01*
X146566370Y-93852471D01*
X146567724Y-93903442D01*
X146567967Y-93912857D01*
X146570256Y-93996567D01*
X146572711Y-94075821D01*
X146575352Y-94151001D01*
X146578202Y-94222487D01*
X146581281Y-94290660D01*
X146584609Y-94355901D01*
X146588209Y-94418589D01*
X146592101Y-94479107D01*
X146596306Y-94537835D01*
X146600846Y-94595153D01*
X146605740Y-94651442D01*
X146611011Y-94707083D01*
X146612866Y-94725657D01*
X146622350Y-94813908D01*
X146632702Y-94899256D01*
X146644038Y-94982213D01*
X146656474Y-95063293D01*
X146670127Y-95143009D01*
X146685112Y-95221875D01*
X146701546Y-95300402D01*
X146719545Y-95379106D01*
X146739225Y-95458498D01*
X146760703Y-95539092D01*
X146784095Y-95621401D01*
X146809516Y-95705938D01*
X146837083Y-95793217D01*
X146866912Y-95883751D01*
X146891406Y-95955743D01*
X146903412Y-95989933D01*
X146915361Y-96022526D01*
X146927474Y-96053982D01*
X146939971Y-96084759D01*
X146953070Y-96115317D01*
X146966991Y-96146114D01*
X146981955Y-96177610D01*
X146998180Y-96210264D01*
X147015887Y-96244534D01*
X147035295Y-96280880D01*
X147056623Y-96319761D01*
X147080092Y-96361635D01*
X147105920Y-96406962D01*
X147114224Y-96421410D01*
X147137353Y-96461607D01*
X147158218Y-96497930D01*
X147176989Y-96530685D01*
X147193834Y-96560180D01*
X147208923Y-96586721D01*
X147222425Y-96610614D01*
X147234510Y-96632168D01*
X147245347Y-96651689D01*
X147255105Y-96669484D01*
X147263953Y-96685860D01*
X147272061Y-96701124D01*
X147279598Y-96715583D01*
X147286734Y-96729543D01*
X147293637Y-96743313D01*
X147300478Y-96757198D01*
X147307425Y-96771506D01*
X147308031Y-96772761D01*
X147329588Y-96819005D01*
X147348276Y-96862629D01*
X147364365Y-96904572D01*
X147378123Y-96945777D01*
X147389819Y-96987182D01*
X147399722Y-97029730D01*
X147408101Y-97074361D01*
X147415226Y-97122015D01*
X147420592Y-97166476D01*
X147423170Y-97194581D01*
X147425200Y-97226087D01*
X147426643Y-97259583D01*
X147427463Y-97293660D01*
X147427622Y-97326906D01*
X147427082Y-97357912D01*
X147426234Y-97378143D01*
X147421679Y-97432689D01*
X147414053Y-97487859D01*
X147403561Y-97542838D01*
X147390409Y-97596811D01*
X147374801Y-97648964D01*
X147356941Y-97698482D01*
X147337036Y-97744549D01*
X147331000Y-97756966D01*
X147300655Y-97812495D01*
X147265709Y-97866819D01*
X147226270Y-97919841D01*
X147182446Y-97971466D01*
X147134345Y-98021598D01*
X147082076Y-98070141D01*
X147025746Y-98116999D01*
X146965465Y-98162076D01*
X146901339Y-98205277D01*
X146833477Y-98246505D01*
X146761987Y-98285665D01*
X146699852Y-98316585D01*
X146672482Y-98329160D01*
X146644118Y-98341243D01*
X146613873Y-98353182D01*
X146580861Y-98365324D01*
X146544197Y-98378016D01*
X146535315Y-98380995D01*
X146519237Y-98386254D01*
X146501690Y-98391811D01*
X146483490Y-98397423D01*
X146465456Y-98402851D01*
X146448405Y-98407851D01*
X146433156Y-98412182D01*
X146420525Y-98415603D01*
X146411330Y-98417871D01*
X146408669Y-98418427D01*
X146400741Y-98419914D01*
X146344122Y-98560221D01*
X146334148Y-98584893D01*
X146324687Y-98608212D01*
X146315897Y-98629795D01*
X146307934Y-98649259D01*
X146300958Y-98666219D01*
X146295125Y-98680293D01*
X146290595Y-98691096D01*
X146287524Y-98698246D01*
X146286070Y-98701359D01*
X146285993Y-98701461D01*
X146284176Y-98699856D01*
X146279406Y-98694918D01*
X146271941Y-98686929D01*
X146262039Y-98676175D01*
X146249960Y-98662939D01*
X146235962Y-98647506D01*
X146220303Y-98630159D01*
X146203243Y-98611184D01*
X146185039Y-98590863D01*
X146169499Y-98573461D01*
X146147467Y-98548764D01*
X146128409Y-98527429D01*
X146112080Y-98509202D01*
X146098239Y-98493830D01*
X146086642Y-98481060D01*
X146077046Y-98470639D01*
X146069209Y-98462314D01*
X146062887Y-98455831D01*
X146057839Y-98450938D01*
X146053820Y-98447381D01*
X146050588Y-98444908D01*
X146047901Y-98443264D01*
X146045515Y-98442198D01*
X146043187Y-98441455D01*
X146042730Y-98441329D01*
X146028639Y-98436934D01*
X146011530Y-98430693D01*
X145992617Y-98423101D01*
X145973114Y-98414658D01*
X145954235Y-98405859D01*
X145945123Y-98401337D01*
X145905208Y-98379087D01*
X145866722Y-98353559D01*
X145829028Y-98324286D01*
X145791488Y-98290801D01*
X145782125Y-98281788D01*
X145745413Y-98243725D01*
X145712167Y-98204448D01*
X145681793Y-98163130D01*
X145653696Y-98118948D01*
X145627283Y-98071076D01*
X145620002Y-98056686D01*
X145598147Y-98010020D01*
X145579060Y-97963382D01*
X145562485Y-97915929D01*
X145548166Y-97866818D01*
X145535846Y-97815208D01*
X145525269Y-97760255D01*
X145520116Y-97728391D01*
X145518114Y-97714789D01*
X145516560Y-97702907D01*
X145515397Y-97691787D01*
X145514566Y-97680472D01*
X145514011Y-97668005D01*
X145513672Y-97653430D01*
X145513493Y-97635789D01*
X145513423Y-97617629D01*
X145513476Y-97592110D01*
G36*
X132791912Y-117859328D02*
X132829087Y-117859340D01*
X132861821Y-117859366D01*
X132890406Y-117859411D01*
X132915137Y-117859481D01*
X132936306Y-117859581D01*
X132954208Y-117859715D01*
X132969136Y-117859889D01*
X132981384Y-117860109D01*
X132991247Y-117860379D01*
X132999017Y-117860705D01*
X133004988Y-117861092D01*
X133009454Y-117861544D01*
X133012709Y-117862067D01*
X133015046Y-117862667D01*
X133016760Y-117863349D01*
X133018032Y-117864048D01*
X133024217Y-117869369D01*
X133028517Y-117875738D01*
X133028618Y-117875984D01*
X133029468Y-117879432D01*
X133031162Y-117887481D01*
X133033633Y-117899785D01*
X133036816Y-117915999D01*
X133040644Y-117935777D01*
X133045052Y-117958772D01*
X133049972Y-117984640D01*
X133055339Y-118013034D01*
X133061087Y-118043609D01*
X133067150Y-118076019D01*
X133073461Y-118109918D01*
X133076888Y-118128396D01*
X133083321Y-118163102D01*
X133089535Y-118196614D01*
X133095466Y-118228574D01*
X133101046Y-118258625D01*
X133106209Y-118286411D01*
X133110889Y-118311572D01*
X133115018Y-118333753D01*
X133118531Y-118352596D01*
X133121362Y-118367743D01*
X133123443Y-118378837D01*
X133124708Y-118385522D01*
X133125013Y-118387096D01*
X133125885Y-118391591D01*
X133126785Y-118395572D01*
X133128016Y-118399199D01*
X133129879Y-118402631D01*
X133132678Y-118406027D01*
X133136715Y-118409546D01*
X133142292Y-118413349D01*
X133149712Y-118417593D01*
X133159277Y-118422440D01*
X133171290Y-118428046D01*
X133186054Y-118434573D01*
X133203871Y-118442180D01*
X133225043Y-118451025D01*
X133249873Y-118461268D01*
X133278663Y-118473068D01*
X133311716Y-118486586D01*
X133321628Y-118490639D01*
X133356076Y-118504740D01*
X133386188Y-118517060D01*
X133412294Y-118527692D01*
X133434727Y-118536727D01*
X133453816Y-118544258D01*
X133469894Y-118550378D01*
X133483292Y-118555177D01*
X133494341Y-118558748D01*
X133503372Y-118561184D01*
X133510717Y-118562576D01*
X133516707Y-118563017D01*
X133521673Y-118562599D01*
X133525947Y-118561413D01*
X133529860Y-118559553D01*
X133533743Y-118557110D01*
X133537927Y-118554176D01*
X133541390Y-118551759D01*
X133545895Y-118548675D01*
X133554234Y-118542960D01*
X133566094Y-118534828D01*
X133581161Y-118524496D01*
X133599123Y-118512176D01*
X133619666Y-118498085D01*
X133642477Y-118482437D01*
X133667244Y-118465447D01*
X133693652Y-118447329D01*
X133721388Y-118428299D01*
X133750140Y-118408571D01*
X133761367Y-118400867D01*
X133794967Y-118377819D01*
X133824678Y-118357457D01*
X133850756Y-118339616D01*
X133873454Y-118324130D01*
X133893028Y-118310833D01*
X133909732Y-118299561D01*
X133923819Y-118290146D01*
X133935546Y-118282424D01*
X133945166Y-118276229D01*
X133952934Y-118271394D01*
X133959104Y-118267754D01*
X133963931Y-118265144D01*
X133967669Y-118263398D01*
X133970573Y-118262350D01*
X133972897Y-118261833D01*
X133974895Y-118261684D01*
X133975110Y-118261683D01*
X133986011Y-118261683D01*
X134172758Y-118448429D01*
X134202582Y-118478256D01*
X134229048Y-118504738D01*
X134252358Y-118528086D01*
X134272712Y-118548513D01*
X134290310Y-118566229D01*
X134305352Y-118581445D01*
X134318040Y-118594372D01*
X134328573Y-118605223D01*
X134337152Y-118614207D01*
X134343977Y-118621537D01*
X134349249Y-118627423D01*
X134353168Y-118632076D01*
X134355935Y-118635708D01*
X134357749Y-118638530D01*
X134358812Y-118640754D01*
X134359323Y-118642589D01*
X134359484Y-118644249D01*
X134359495Y-118645217D01*
X134358249Y-118654021D01*
X134355215Y-118662217D01*
X134354773Y-118662985D01*
X134352686Y-118666153D01*
X134347958Y-118673162D01*
X134340798Y-118683709D01*
X134331414Y-118697491D01*
X134320012Y-118714203D01*
X134306801Y-118733542D01*
X134291987Y-118755204D01*
X134275780Y-118778884D01*
X134258385Y-118804279D01*
X134240012Y-118831086D01*
X134220866Y-118858999D01*
X134218179Y-118862916D01*
X134198759Y-118891219D01*
X134179948Y-118918639D01*
X134161966Y-118944850D01*
X134145037Y-118969529D01*
X134129383Y-118992353D01*
X134115226Y-119012997D01*
X134102787Y-119031137D01*
X134092289Y-119046450D01*
X134083954Y-119058611D01*
X134078005Y-119067297D01*
X134074663Y-119072184D01*
X134074525Y-119072386D01*
X134071271Y-119077029D01*
X134068436Y-119081113D01*
X134066117Y-119084966D01*
X134064410Y-119088916D01*
X134063412Y-119093290D01*
X134063218Y-119098418D01*
X134063927Y-119104628D01*
X134065635Y-119112247D01*
X134068437Y-119121604D01*
X134072431Y-119133027D01*
X134077713Y-119146845D01*
X134084381Y-119163385D01*
X134092529Y-119182975D01*
X134102256Y-119205945D01*
X134113657Y-119232621D01*
X134126830Y-119263333D01*
X134139234Y-119292256D01*
X134151459Y-119320761D01*
X134163181Y-119348056D01*
X134174240Y-119373768D01*
X134184475Y-119397524D01*
X134193723Y-119418952D01*
X134201825Y-119437678D01*
X134208620Y-119453330D01*
X134213945Y-119465536D01*
X134217640Y-119473921D01*
X134219544Y-119478114D01*
X134219671Y-119478370D01*
X134224634Y-119485307D01*
X134231041Y-119491298D01*
X134231084Y-119491329D01*
X134232257Y-119492180D01*
X134233418Y-119492962D01*
X134234835Y-119493728D01*
X134236774Y-119494531D01*
X134239505Y-119495425D01*
X134243294Y-119496463D01*
X134248410Y-119497699D01*
X134255119Y-119499185D01*
X134263691Y-119500974D01*
X134274392Y-119503121D01*
X134287490Y-119505678D01*
X134303253Y-119508699D01*
X134321948Y-119512236D01*
X134343845Y-119516344D01*
X134369209Y-119521075D01*
X134398308Y-119526483D01*
X134431412Y-119532621D01*
X134468786Y-119539543D01*
X134510700Y-119547300D01*
X134534287Y-119551666D01*
X134564902Y-119557339D01*
X134594300Y-119562800D01*
X134622076Y-119567972D01*
X134647820Y-119572779D01*
X134671124Y-119577143D01*
X134691580Y-119580989D01*
X134708782Y-119584240D01*
X134722319Y-119586819D01*
X134731786Y-119588650D01*
X134736773Y-119589656D01*
X134737099Y-119589729D01*
X134745862Y-119592846D01*
X134753200Y-119597326D01*
X134754703Y-119598716D01*
X134760623Y-119605018D01*
X134761262Y-119868246D01*
X134761362Y-119910381D01*
X134761443Y-119947778D01*
X134761500Y-119980730D01*
X134761528Y-120009530D01*
X134761523Y-120034469D01*
X134761481Y-120055841D01*
X134761396Y-120073938D01*
X134761265Y-120089052D01*
X134761083Y-120101475D01*
X134760845Y-120111500D01*
X134760546Y-120119419D01*
X134760183Y-120125525D01*
X134759751Y-120130110D01*
X134759245Y-120133466D01*
X134758660Y-120135886D01*
X134757993Y-120137663D01*
X134757238Y-120139088D01*
X134757056Y-120139389D01*
X134750775Y-120146182D01*
X134743843Y-120150019D01*
X134739972Y-120150937D01*
X134731590Y-120152681D01*
X134719132Y-120155167D01*
X134703035Y-120158312D01*
X134683733Y-120162032D01*
X134661662Y-120166243D01*
X134637258Y-120170861D01*
X134610957Y-120175803D01*
X134583193Y-120180984D01*
X134572010Y-120183062D01*
X134526078Y-120191585D01*
X134484833Y-120199241D01*
X134448017Y-120206081D01*
X134415370Y-120212152D01*
X134386635Y-120217503D01*
X134361553Y-120222184D01*
X134339865Y-120226244D01*
X134321313Y-120229731D01*
X134305637Y-120232695D01*
X134292580Y-120235184D01*
X134281883Y-120237248D01*
X134273287Y-120238935D01*
X134266533Y-120240294D01*
X134261364Y-120241375D01*
X134257520Y-120242226D01*
X134254743Y-120242896D01*
X134252774Y-120243435D01*
X134252077Y-120243649D01*
X134244794Y-120247446D01*
X134238208Y-120253110D01*
X134237927Y-120253437D01*
X134236055Y-120256873D01*
X134232476Y-120264645D01*
X134227329Y-120276416D01*
X134220757Y-120291844D01*
X134212901Y-120310589D01*
X134203901Y-120332313D01*
X134193899Y-120356674D01*
X134183037Y-120383333D01*
X134171454Y-120411951D01*
X134159294Y-120442186D01*
X134153193Y-120457423D01*
X134139259Y-120492282D01*
X134127081Y-120522781D01*
X134116543Y-120549233D01*
X134107533Y-120571948D01*
X134099936Y-120591239D01*
X134093639Y-120607415D01*
X134088527Y-120620787D01*
X134084487Y-120631668D01*
X134081406Y-120640367D01*
X134079168Y-120647196D01*
X134077661Y-120652467D01*
X134076770Y-120656489D01*
X134076381Y-120659575D01*
X134076382Y-120662035D01*
X134076657Y-120664180D01*
X134076961Y-120665703D01*
X134077914Y-120668459D01*
X134079976Y-120672672D01*
X134083294Y-120678563D01*
X134088016Y-120686354D01*
X134094288Y-120696268D01*
X134102257Y-120708525D01*
X134112070Y-120723349D01*
X134123875Y-120740961D01*
X134137818Y-120761583D01*
X134154045Y-120785436D01*
X134172705Y-120812743D01*
X134193943Y-120843726D01*
X134217907Y-120878606D01*
X134218620Y-120879643D01*
X134238339Y-120908371D01*
X134257248Y-120936022D01*
X134275151Y-120962303D01*
X134291851Y-120986922D01*
X134307151Y-121009585D01*
X134320857Y-121030000D01*
X134332771Y-121047874D01*
X134342698Y-121062914D01*
X134350441Y-121074828D01*
X134355804Y-121083324D01*
X134358590Y-121088107D01*
X134358951Y-121088972D01*
X134359189Y-121096912D01*
X134358379Y-121102804D01*
X134356445Y-121105722D01*
X134351277Y-121111774D01*
X134342837Y-121121002D01*
X134331086Y-121133444D01*
X134315985Y-121149142D01*
X134297494Y-121168136D01*
X134275575Y-121190466D01*
X134250189Y-121216172D01*
X134221296Y-121245294D01*
X134188858Y-121277873D01*
X134175143Y-121291619D01*
X134149929Y-121316847D01*
X134125621Y-121341107D01*
X134102468Y-121364157D01*
X134080714Y-121385753D01*
X134060608Y-121405654D01*
X134042395Y-121423615D01*
X134026321Y-121439396D01*
X134012634Y-121452752D01*
X134001579Y-121463442D01*
X133993404Y-121471223D01*
X133988354Y-121475851D01*
X133986803Y-121477089D01*
X133976833Y-121480352D01*
X133966612Y-121479312D01*
X133955289Y-121473848D01*
X133953010Y-121472346D01*
X133949136Y-121469695D01*
X133941436Y-121464419D01*
X133930229Y-121456737D01*
X133915836Y-121446870D01*
X133898578Y-121435037D01*
X133878776Y-121421458D01*
X133856749Y-121406352D01*
X133832818Y-121389940D01*
X133807305Y-121372442D01*
X133780529Y-121354077D01*
X133755940Y-121337211D01*
X133728417Y-121318348D01*
X133701938Y-121300232D01*
X133676816Y-121283074D01*
X133653363Y-121267087D01*
X133631892Y-121252482D01*
X133612716Y-121239473D01*
X133596147Y-121228271D01*
X133582498Y-121219088D01*
X133572082Y-121212136D01*
X133565212Y-121207629D01*
X133562297Y-121205825D01*
X133550483Y-121202294D01*
X133544107Y-121202398D01*
X133539402Y-121203917D01*
X133530635Y-121207726D01*
X133518135Y-121213662D01*
X133502231Y-121221562D01*
X133483253Y-121231264D01*
X133461529Y-121242606D01*
X133444559Y-121251596D01*
X133420834Y-121264199D01*
X133401102Y-121274565D01*
X133384942Y-121282860D01*
X133371927Y-121289252D01*
X133361636Y-121293908D01*
X133353644Y-121296995D01*
X133347526Y-121298680D01*
X133342861Y-121299131D01*
X133339223Y-121298513D01*
X133336189Y-121296994D01*
X133333889Y-121295222D01*
X133332309Y-121292374D01*
X133328885Y-121285011D01*
X133323675Y-121273274D01*
X133316737Y-121257305D01*
X133308133Y-121237245D01*
X133297920Y-121213234D01*
X133286159Y-121185413D01*
X133272908Y-121153924D01*
X133258227Y-121118906D01*
X133242175Y-121080501D01*
X133224812Y-121038850D01*
X133206196Y-120994094D01*
X133186388Y-120946374D01*
X133165446Y-120895830D01*
X133148588Y-120855080D01*
X133126707Y-120802154D01*
X133106672Y-120753674D01*
X133088403Y-120709444D01*
X133071821Y-120669263D01*
X133056845Y-120632932D01*
X133043396Y-120600253D01*
X133031395Y-120571026D01*
X133020763Y-120545052D01*
X133011419Y-120522131D01*
X133003285Y-120502066D01*
X132996280Y-120484657D01*
X132990325Y-120469704D01*
X132985342Y-120457009D01*
X132981249Y-120446373D01*
X132977968Y-120437595D01*
X132975419Y-120430478D01*
X132973522Y-120424823D01*
X132972199Y-120420429D01*
X132971369Y-120417099D01*
X132970953Y-120414632D01*
X132970871Y-120412830D01*
X132971045Y-120411494D01*
X132971199Y-120410950D01*
X132973599Y-120405298D01*
X132977242Y-120400243D01*
X132982912Y-120395085D01*
X132991395Y-120389125D01*
X133003475Y-120381663D01*
X133005257Y-120380602D01*
X133017135Y-120373219D01*
X133030052Y-120364680D01*
X133041491Y-120356656D01*
X133042980Y-120355558D01*
X133052649Y-120348368D01*
X133064572Y-120339506D01*
X133076963Y-120330299D01*
X133084475Y-120324719D01*
X133125725Y-120290988D01*
X133163516Y-120253697D01*
X133197598Y-120213121D01*
X133227724Y-120169533D01*
X133233524Y-120160024D01*
X133256301Y-120117314D01*
X133275628Y-120071638D01*
X133291173Y-120023973D01*
X133302607Y-119975300D01*
X133308232Y-119939155D01*
X133309830Y-119920627D01*
X133310694Y-119898600D01*
X133310850Y-119874549D01*
X133310321Y-119849948D01*
X133309129Y-119826271D01*
X133307300Y-119804991D01*
X133305914Y-119794045D01*
X133295747Y-119741737D01*
X133280996Y-119691214D01*
X133261839Y-119642723D01*
X133238456Y-119596508D01*
X133211024Y-119552817D01*
X133179724Y-119511897D01*
X133144732Y-119473992D01*
X133106229Y-119439350D01*
X133064393Y-119408217D01*
X133019403Y-119380840D01*
X132997977Y-119369712D01*
X132950646Y-119348956D01*
X132902462Y-119332984D01*
X132853044Y-119321707D01*
X132802010Y-119315039D01*
X132750000Y-119312891D01*
X132704843Y-119314365D01*
X132662475Y-119318928D01*
X132621562Y-119326788D01*
X132580769Y-119338152D01*
X132573960Y-119340378D01*
X132524705Y-119359370D01*
X132477852Y-119382596D01*
X132433643Y-119409815D01*
X132392319Y-119440788D01*
X132354122Y-119475275D01*
X132319295Y-119513036D01*
X132288078Y-119553832D01*
X132260714Y-119597422D01*
X132237445Y-119643567D01*
X132218512Y-119692026D01*
X132218074Y-119693329D01*
X132206907Y-119730050D01*
X132198666Y-119765126D01*
X132193102Y-119800130D01*
X132189965Y-119836637D01*
X132189004Y-119876084D01*
X132189990Y-119913824D01*
X132193057Y-119948572D01*
X132198476Y-119982030D01*
X132206521Y-120015900D01*
X132216756Y-120049742D01*
X132235700Y-120099412D01*
X132258995Y-120146635D01*
X132286490Y-120191205D01*
X132318038Y-120232917D01*
X132353490Y-120271564D01*
X132392697Y-120306943D01*
X132415524Y-120324723D01*
X132426681Y-120332991D01*
X132437963Y-120341394D01*
X132447838Y-120348788D01*
X132453247Y-120352869D01*
X132461470Y-120358763D01*
X132472332Y-120366081D01*
X132484134Y-120373693D01*
X132490970Y-120377937D01*
X132504169Y-120386145D01*
X132513686Y-120392542D01*
X132520241Y-120397755D01*
X132524550Y-120402410D01*
X132527333Y-120407134D01*
X132528805Y-120410963D01*
X132529075Y-120412144D01*
X132529131Y-120413689D01*
X132528892Y-120415799D01*
X132528280Y-120418672D01*
X132527214Y-120422506D01*
X132525615Y-120427503D01*
X132523404Y-120433860D01*
X132520501Y-120441776D01*
X132516826Y-120451451D01*
X132512300Y-120463084D01*
X132506844Y-120476874D01*
X132500377Y-120493020D01*
X132492821Y-120511722D01*
X132484096Y-120533177D01*
X132474121Y-120557586D01*
X132462819Y-120585148D01*
X132450108Y-120616061D01*
X132435911Y-120650526D01*
X132420146Y-120688740D01*
X132402735Y-120730903D01*
X132383598Y-120777214D01*
X132362655Y-120827873D01*
X132351400Y-120855093D01*
X132329840Y-120907188D01*
X132309326Y-120956673D01*
X132289918Y-121003400D01*
X132271680Y-121047222D01*
X132254674Y-121087990D01*
X132238960Y-121125558D01*
X132224603Y-121159776D01*
X132211664Y-121190499D01*
X132200205Y-121217577D01*
X132190288Y-121240864D01*
X132181976Y-121260211D01*
X132175331Y-121275471D01*
X132170415Y-121286495D01*
X132167290Y-121293138D01*
X132166094Y-121295222D01*
X132159755Y-121298499D01*
X132153425Y-121299623D01*
X132148868Y-121298370D01*
X132140014Y-121294631D01*
X132126924Y-121288434D01*
X132109655Y-121279809D01*
X132088269Y-121268785D01*
X132062823Y-121255390D01*
X132056253Y-121251898D01*
X132036434Y-121241410D01*
X132017737Y-121231640D01*
X132000684Y-121222852D01*
X131985798Y-121215310D01*
X131973603Y-121209279D01*
X131964622Y-121205022D01*
X131959377Y-121202804D01*
X131958575Y-121202569D01*
X131950146Y-121202265D01*
X131942779Y-121203666D01*
X131939584Y-121205468D01*
X131932560Y-121209915D01*
X131922019Y-121216797D01*
X131908271Y-121225905D01*
X131891630Y-121237028D01*
X131872407Y-121249958D01*
X131850914Y-121264484D01*
X131827463Y-121280396D01*
X131802365Y-121297486D01*
X131775933Y-121315542D01*
X131752155Y-121331834D01*
X131724535Y-121350782D01*
X131697794Y-121369127D01*
X131672265Y-121386639D01*
X131648281Y-121403089D01*
X131626177Y-121418249D01*
X131606285Y-121431890D01*
X131588940Y-121443784D01*
X131574475Y-121453700D01*
X131563223Y-121461411D01*
X131555520Y-121466688D01*
X131552143Y-121468997D01*
X131540080Y-121476348D01*
X131530284Y-121480042D01*
X131521756Y-121480249D01*
X131513499Y-121477140D01*
X131511435Y-121475912D01*
X131508636Y-121473496D01*
X131502539Y-121467759D01*
X131493394Y-121458946D01*
X131481448Y-121447303D01*
X131466951Y-121433076D01*
X131450151Y-121416510D01*
X131431297Y-121397851D01*
X131410638Y-121377345D01*
X131388423Y-121355237D01*
X131364900Y-121331772D01*
X131340318Y-121307196D01*
X131323599Y-121290451D01*
X131289864Y-121256593D01*
X131259690Y-121226208D01*
X131233039Y-121199257D01*
X131209874Y-121175702D01*
X131190155Y-121155503D01*
X131173845Y-121138619D01*
X131160905Y-121125013D01*
X131151297Y-121114645D01*
X131144984Y-121107474D01*
X131141926Y-121103463D01*
X131141620Y-121102804D01*
X131140720Y-121094838D01*
X131141035Y-121088972D01*
X131142592Y-121085961D01*
X131146814Y-121079106D01*
X131153504Y-121068700D01*
X131162468Y-121055035D01*
X131173508Y-121038405D01*
X131186428Y-121019102D01*
X131201032Y-120997418D01*
X131217124Y-120973647D01*
X131234507Y-120948081D01*
X131252986Y-120921013D01*
X131272364Y-120892735D01*
X131281360Y-120879643D01*
X131305411Y-120844639D01*
X131326733Y-120813539D01*
X131345470Y-120786121D01*
X131361771Y-120762165D01*
X131375781Y-120741447D01*
X131387648Y-120723747D01*
X131397518Y-120708844D01*
X131405539Y-120696515D01*
X131411856Y-120686539D01*
X131416616Y-120678694D01*
X131419967Y-120672759D01*
X131422054Y-120668513D01*
X131423025Y-120665733D01*
X131423032Y-120665703D01*
X131423436Y-120663591D01*
X131423648Y-120661390D01*
X131423553Y-120658789D01*
X131423037Y-120655475D01*
X131421987Y-120651139D01*
X131420289Y-120645468D01*
X131417829Y-120638151D01*
X131414492Y-120628877D01*
X131410166Y-120617335D01*
X131404736Y-120603213D01*
X131398087Y-120586201D01*
X131390107Y-120565986D01*
X131380682Y-120542258D01*
X131369696Y-120514705D01*
X131357038Y-120483017D01*
X131346905Y-120457669D01*
X131334860Y-120427618D01*
X131323256Y-120398812D01*
X131312239Y-120371606D01*
X131301957Y-120346358D01*
X131292556Y-120323425D01*
X131284185Y-120303164D01*
X131276989Y-120285931D01*
X131271117Y-120272083D01*
X131266716Y-120261977D01*
X131263932Y-120255970D01*
X131263088Y-120254467D01*
X131256838Y-120248611D01*
X131250097Y-120244588D01*
X131246559Y-120243678D01*
X131238425Y-120241925D01*
X131226048Y-120239397D01*
X131209779Y-120236162D01*
X131189970Y-120232289D01*
X131166973Y-120227844D01*
X131141139Y-120222896D01*
X131112820Y-120217512D01*
X131082367Y-120211761D01*
X131050133Y-120205710D01*
X131016468Y-120199427D01*
X131003435Y-120197004D01*
X130969307Y-120190655D01*
X130936465Y-120184523D01*
X130905261Y-120178675D01*
X130876049Y-120173179D01*
X130849181Y-120168101D01*
X130825011Y-120163509D01*
X130803890Y-120159469D01*
X130786171Y-120156049D01*
X130772208Y-120153316D01*
X130762352Y-120151337D01*
X130756958Y-120150179D01*
X130756157Y-120149970D01*
X130748245Y-120145394D01*
X130742943Y-120139389D01*
X130742168Y-120138002D01*
X130741481Y-120136330D01*
X130740879Y-120134080D01*
X130740355Y-120130959D01*
X130739907Y-120126675D01*
X130739529Y-120120936D01*
X130739216Y-120113449D01*
X130738965Y-120103921D01*
X130738771Y-120092061D01*
X130738628Y-120077577D01*
X130738534Y-120060175D01*
X130738482Y-120039563D01*
X130738470Y-120015449D01*
X130738491Y-119987540D01*
X130738541Y-119955545D01*
X130738617Y-119919170D01*
X130738713Y-119878123D01*
X130738737Y-119868246D01*
X130739376Y-119605018D01*
X130745371Y-119598637D01*
X130746249Y-119597558D01*
X130746863Y-119596630D01*
X130747492Y-119595794D01*
X130748412Y-119594993D01*
X130749901Y-119594170D01*
X130752235Y-119593267D01*
X130755692Y-119592228D01*
X130760550Y-119590993D01*
X130767085Y-119589507D01*
X130775575Y-119587712D01*
X130786297Y-119585550D01*
X130799528Y-119582964D01*
X130815546Y-119579897D01*
X130834627Y-119576290D01*
X130857049Y-119572087D01*
X130883089Y-119567231D01*
X130913025Y-119561663D01*
X130947133Y-119555327D01*
X130985691Y-119548165D01*
X131019033Y-119541969D01*
X131059894Y-119534373D01*
X131096104Y-119527633D01*
X131127952Y-119521678D01*
X131155730Y-119516438D01*
X131179729Y-119511841D01*
X131200240Y-119507816D01*
X131217555Y-119504294D01*
X131231964Y-119501202D01*
X131243759Y-119498470D01*
X131253232Y-119496027D01*
X131260672Y-119493802D01*
X131266372Y-119491724D01*
X131270622Y-119489723D01*
X131273714Y-119487728D01*
X131275938Y-119485667D01*
X131277587Y-119483470D01*
X131278951Y-119481066D01*
X131280321Y-119478384D01*
X131280328Y-119478370D01*
X131281932Y-119474878D01*
X131285354Y-119467134D01*
X131290431Y-119455510D01*
X131297002Y-119440381D01*
X131304907Y-119422119D01*
X131313985Y-119401096D01*
X131324073Y-119377685D01*
X131335012Y-119352259D01*
X131346640Y-119325190D01*
X131358795Y-119296853D01*
X131360765Y-119292256D01*
X131375488Y-119257931D01*
X131388358Y-119227914D01*
X131399474Y-119201878D01*
X131408931Y-119179494D01*
X131416826Y-119160435D01*
X131423256Y-119144371D01*
X131428317Y-119130975D01*
X131432107Y-119119918D01*
X131434721Y-119110873D01*
X131436256Y-119103511D01*
X131436809Y-119097503D01*
X131436477Y-119092522D01*
X131435356Y-119088240D01*
X131433543Y-119084328D01*
X131431134Y-119080457D01*
X131428226Y-119076301D01*
X131425494Y-119072386D01*
X131422369Y-119067811D01*
X131416618Y-119059410D01*
X131408463Y-119047505D01*
X131398122Y-119032415D01*
X131385816Y-119014463D01*
X131371766Y-118993969D01*
X131356191Y-118971255D01*
X131339312Y-118946642D01*
X131321348Y-118920451D01*
X131302521Y-118893003D01*
X131283050Y-118864620D01*
X131280030Y-118860217D01*
X131260707Y-118832039D01*
X131242160Y-118804966D01*
X131224592Y-118779298D01*
X131208206Y-118755329D01*
X131193202Y-118733359D01*
X131179785Y-118713683D01*
X131168157Y-118696599D01*
X131158520Y-118682404D01*
X131151077Y-118671394D01*
X131146030Y-118663867D01*
X131143582Y-118660120D01*
X131143407Y-118659823D01*
X131141443Y-118653596D01*
X131140507Y-118645669D01*
X131140495Y-118644753D01*
X131140576Y-118643141D01*
X131140955Y-118641404D01*
X131141831Y-118639332D01*
X131143405Y-118636714D01*
X131145877Y-118633339D01*
X131149448Y-118628996D01*
X131154318Y-118623476D01*
X131160686Y-118616567D01*
X131168754Y-118608059D01*
X131178723Y-118597740D01*
X131190791Y-118585402D01*
X131205160Y-118570832D01*
X131222031Y-118553820D01*
X131241602Y-118534155D01*
X131264076Y-118511628D01*
X131289652Y-118486027D01*
X131318530Y-118457141D01*
X131327241Y-118448429D01*
X131513988Y-118261683D01*
X131524972Y-118261683D01*
X131526369Y-118261594D01*
X131527491Y-118261417D01*
X131528543Y-118261286D01*
X131529727Y-118261335D01*
X131531247Y-118261700D01*
X131533305Y-118262514D01*
X131536105Y-118263912D01*
X131539851Y-118266028D01*
X131544744Y-118268997D01*
X131550989Y-118272953D01*
X131558789Y-118278030D01*
X131568346Y-118284364D01*
X131579864Y-118292087D01*
X131593546Y-118301336D01*
X131609595Y-118312243D01*
X131628215Y-118324944D01*
X131649608Y-118339574D01*
X131673978Y-118356265D01*
X131701528Y-118375153D01*
X131732460Y-118396373D01*
X131766979Y-118420058D01*
X131805287Y-118446344D01*
X131838033Y-118468809D01*
X131865331Y-118487530D01*
X131888804Y-118503605D01*
X131908772Y-118517235D01*
X131925556Y-118528622D01*
X131939475Y-118537967D01*
X131950851Y-118545472D01*
X131960003Y-118551339D01*
X131967253Y-118555769D01*
X131972919Y-118558963D01*
X131977323Y-118561124D01*
X131980786Y-118562454D01*
X131983627Y-118563152D01*
X131986166Y-118563422D01*
X131988451Y-118563465D01*
X131991406Y-118563229D01*
X131995398Y-118562441D01*
X132000742Y-118560979D01*
X132007755Y-118558723D01*
X132016754Y-118555553D01*
X132028054Y-118551347D01*
X132041972Y-118545985D01*
X132058824Y-118539345D01*
X132078927Y-118531308D01*
X132102596Y-118521752D01*
X132130148Y-118510556D01*
X132161900Y-118497600D01*
X132176141Y-118491777D01*
X132204446Y-118480172D01*
X132231495Y-118469031D01*
X132256912Y-118458511D01*
X132280319Y-118448772D01*
X132301341Y-118439970D01*
X132319601Y-118432266D01*
X132334722Y-118425816D01*
X132346327Y-118420779D01*
X132354041Y-118417313D01*
X132357486Y-118415577D01*
X132357527Y-118415547D01*
X132359785Y-118413863D01*
X132361830Y-118412155D01*
X132363729Y-118410136D01*
X132365547Y-118407517D01*
X132367351Y-118404014D01*
X132369207Y-118399338D01*
X132371181Y-118393203D01*
X132373339Y-118385322D01*
X132375747Y-118375407D01*
X132378471Y-118363173D01*
X132381577Y-118348331D01*
X132385131Y-118330596D01*
X132389200Y-118309680D01*
X132393849Y-118285296D01*
X132399144Y-118257158D01*
X132405152Y-118224977D01*
X132411939Y-118188468D01*
X132419570Y-118147344D01*
X132420771Y-118140869D01*
X132427357Y-118105447D01*
X132433728Y-118071329D01*
X132439819Y-118038850D01*
X132445567Y-118008348D01*
X132450907Y-117980159D01*
X132455774Y-117954620D01*
X132460105Y-117932068D01*
X132463834Y-117912838D01*
X132466898Y-117897269D01*
X132469233Y-117885695D01*
X132470773Y-117878455D01*
X132471400Y-117875984D01*
X132475549Y-117869638D01*
X132481701Y-117864214D01*
X132481968Y-117864048D01*
X132483368Y-117863288D01*
X132485123Y-117862614D01*
X132487526Y-117862020D01*
X132490872Y-117861503D01*
X132495454Y-117861056D01*
X132501565Y-117860675D01*
X132509501Y-117860354D01*
X132519553Y-117860089D01*
X132532017Y-117859873D01*
X132547185Y-117859702D01*
X132565351Y-117859571D01*
X132586810Y-117859474D01*
X132611855Y-117859406D01*
X132640779Y-117859363D01*
X132673876Y-117859338D01*
X132711441Y-117859328D01*
X132750000Y-117859325D01*
X132791912Y-117859328D01*
X132791912Y-117859328D01*
G37*
X132791912Y-117859328D02*
X132829087Y-117859340D01*
X132861821Y-117859366D01*
X132890406Y-117859411D01*
X132915137Y-117859481D01*
X132936306Y-117859581D01*
X132954208Y-117859715D01*
X132969136Y-117859889D01*
X132981384Y-117860109D01*
X132991247Y-117860379D01*
X132999017Y-117860705D01*
X133004988Y-117861092D01*
X133009454Y-117861544D01*
X133012709Y-117862067D01*
X133015046Y-117862667D01*
X133016760Y-117863349D01*
X133018032Y-117864048D01*
X133024217Y-117869369D01*
X133028517Y-117875738D01*
X133028618Y-117875984D01*
X133029468Y-117879432D01*
X133031162Y-117887481D01*
X133033633Y-117899785D01*
X133036816Y-117915999D01*
X133040644Y-117935777D01*
X133045052Y-117958772D01*
X133049972Y-117984640D01*
X133055339Y-118013034D01*
X133061087Y-118043609D01*
X133067150Y-118076019D01*
X133073461Y-118109918D01*
X133076888Y-118128396D01*
X133083321Y-118163102D01*
X133089535Y-118196614D01*
X133095466Y-118228574D01*
X133101046Y-118258625D01*
X133106209Y-118286411D01*
X133110889Y-118311572D01*
X133115018Y-118333753D01*
X133118531Y-118352596D01*
X133121362Y-118367743D01*
X133123443Y-118378837D01*
X133124708Y-118385522D01*
X133125013Y-118387096D01*
X133125885Y-118391591D01*
X133126785Y-118395572D01*
X133128016Y-118399199D01*
X133129879Y-118402631D01*
X133132678Y-118406027D01*
X133136715Y-118409546D01*
X133142292Y-118413349D01*
X133149712Y-118417593D01*
X133159277Y-118422440D01*
X133171290Y-118428046D01*
X133186054Y-118434573D01*
X133203871Y-118442180D01*
X133225043Y-118451025D01*
X133249873Y-118461268D01*
X133278663Y-118473068D01*
X133311716Y-118486586D01*
X133321628Y-118490639D01*
X133356076Y-118504740D01*
X133386188Y-118517060D01*
X133412294Y-118527692D01*
X133434727Y-118536727D01*
X133453816Y-118544258D01*
X133469894Y-118550378D01*
X133483292Y-118555177D01*
X133494341Y-118558748D01*
X133503372Y-118561184D01*
X133510717Y-118562576D01*
X133516707Y-118563017D01*
X133521673Y-118562599D01*
X133525947Y-118561413D01*
X133529860Y-118559553D01*
X133533743Y-118557110D01*
X133537927Y-118554176D01*
X133541390Y-118551759D01*
X133545895Y-118548675D01*
X133554234Y-118542960D01*
X133566094Y-118534828D01*
X133581161Y-118524496D01*
X133599123Y-118512176D01*
X133619666Y-118498085D01*
X133642477Y-118482437D01*
X133667244Y-118465447D01*
X133693652Y-118447329D01*
X133721388Y-118428299D01*
X133750140Y-118408571D01*
X133761367Y-118400867D01*
X133794967Y-118377819D01*
X133824678Y-118357457D01*
X133850756Y-118339616D01*
X133873454Y-118324130D01*
X133893028Y-118310833D01*
X133909732Y-118299561D01*
X133923819Y-118290146D01*
X133935546Y-118282424D01*
X133945166Y-118276229D01*
X133952934Y-118271394D01*
X133959104Y-118267754D01*
X133963931Y-118265144D01*
X133967669Y-118263398D01*
X133970573Y-118262350D01*
X133972897Y-118261833D01*
X133974895Y-118261684D01*
X133975110Y-118261683D01*
X133986011Y-118261683D01*
X134172758Y-118448429D01*
X134202582Y-118478256D01*
X134229048Y-118504738D01*
X134252358Y-118528086D01*
X134272712Y-118548513D01*
X134290310Y-118566229D01*
X134305352Y-118581445D01*
X134318040Y-118594372D01*
X134328573Y-118605223D01*
X134337152Y-118614207D01*
X134343977Y-118621537D01*
X134349249Y-118627423D01*
X134353168Y-118632076D01*
X134355935Y-118635708D01*
X134357749Y-118638530D01*
X134358812Y-118640754D01*
X134359323Y-118642589D01*
X134359484Y-118644249D01*
X134359495Y-118645217D01*
X134358249Y-118654021D01*
X134355215Y-118662217D01*
X134354773Y-118662985D01*
X134352686Y-118666153D01*
X134347958Y-118673162D01*
X134340798Y-118683709D01*
X134331414Y-118697491D01*
X134320012Y-118714203D01*
X134306801Y-118733542D01*
X134291987Y-118755204D01*
X134275780Y-118778884D01*
X134258385Y-118804279D01*
X134240012Y-118831086D01*
X134220866Y-118858999D01*
X134218179Y-118862916D01*
X134198759Y-118891219D01*
X134179948Y-118918639D01*
X134161966Y-118944850D01*
X134145037Y-118969529D01*
X134129383Y-118992353D01*
X134115226Y-119012997D01*
X134102787Y-119031137D01*
X134092289Y-119046450D01*
X134083954Y-119058611D01*
X134078005Y-119067297D01*
X134074663Y-119072184D01*
X134074525Y-119072386D01*
X134071271Y-119077029D01*
X134068436Y-119081113D01*
X134066117Y-119084966D01*
X134064410Y-119088916D01*
X134063412Y-119093290D01*
X134063218Y-119098418D01*
X134063927Y-119104628D01*
X134065635Y-119112247D01*
X134068437Y-119121604D01*
X134072431Y-119133027D01*
X134077713Y-119146845D01*
X134084381Y-119163385D01*
X134092529Y-119182975D01*
X134102256Y-119205945D01*
X134113657Y-119232621D01*
X134126830Y-119263333D01*
X134139234Y-119292256D01*
X134151459Y-119320761D01*
X134163181Y-119348056D01*
X134174240Y-119373768D01*
X134184475Y-119397524D01*
X134193723Y-119418952D01*
X134201825Y-119437678D01*
X134208620Y-119453330D01*
X134213945Y-119465536D01*
X134217640Y-119473921D01*
X134219544Y-119478114D01*
X134219671Y-119478370D01*
X134224634Y-119485307D01*
X134231041Y-119491298D01*
X134231084Y-119491329D01*
X134232257Y-119492180D01*
X134233418Y-119492962D01*
X134234835Y-119493728D01*
X134236774Y-119494531D01*
X134239505Y-119495425D01*
X134243294Y-119496463D01*
X134248410Y-119497699D01*
X134255119Y-119499185D01*
X134263691Y-119500974D01*
X134274392Y-119503121D01*
X134287490Y-119505678D01*
X134303253Y-119508699D01*
X134321948Y-119512236D01*
X134343845Y-119516344D01*
X134369209Y-119521075D01*
X134398308Y-119526483D01*
X134431412Y-119532621D01*
X134468786Y-119539543D01*
X134510700Y-119547300D01*
X134534287Y-119551666D01*
X134564902Y-119557339D01*
X134594300Y-119562800D01*
X134622076Y-119567972D01*
X134647820Y-119572779D01*
X134671124Y-119577143D01*
X134691580Y-119580989D01*
X134708782Y-119584240D01*
X134722319Y-119586819D01*
X134731786Y-119588650D01*
X134736773Y-119589656D01*
X134737099Y-119589729D01*
X134745862Y-119592846D01*
X134753200Y-119597326D01*
X134754703Y-119598716D01*
X134760623Y-119605018D01*
X134761262Y-119868246D01*
X134761362Y-119910381D01*
X134761443Y-119947778D01*
X134761500Y-119980730D01*
X134761528Y-120009530D01*
X134761523Y-120034469D01*
X134761481Y-120055841D01*
X134761396Y-120073938D01*
X134761265Y-120089052D01*
X134761083Y-120101475D01*
X134760845Y-120111500D01*
X134760546Y-120119419D01*
X134760183Y-120125525D01*
X134759751Y-120130110D01*
X134759245Y-120133466D01*
X134758660Y-120135886D01*
X134757993Y-120137663D01*
X134757238Y-120139088D01*
X134757056Y-120139389D01*
X134750775Y-120146182D01*
X134743843Y-120150019D01*
X134739972Y-120150937D01*
X134731590Y-120152681D01*
X134719132Y-120155167D01*
X134703035Y-120158312D01*
X134683733Y-120162032D01*
X134661662Y-120166243D01*
X134637258Y-120170861D01*
X134610957Y-120175803D01*
X134583193Y-120180984D01*
X134572010Y-120183062D01*
X134526078Y-120191585D01*
X134484833Y-120199241D01*
X134448017Y-120206081D01*
X134415370Y-120212152D01*
X134386635Y-120217503D01*
X134361553Y-120222184D01*
X134339865Y-120226244D01*
X134321313Y-120229731D01*
X134305637Y-120232695D01*
X134292580Y-120235184D01*
X134281883Y-120237248D01*
X134273287Y-120238935D01*
X134266533Y-120240294D01*
X134261364Y-120241375D01*
X134257520Y-120242226D01*
X134254743Y-120242896D01*
X134252774Y-120243435D01*
X134252077Y-120243649D01*
X134244794Y-120247446D01*
X134238208Y-120253110D01*
X134237927Y-120253437D01*
X134236055Y-120256873D01*
X134232476Y-120264645D01*
X134227329Y-120276416D01*
X134220757Y-120291844D01*
X134212901Y-120310589D01*
X134203901Y-120332313D01*
X134193899Y-120356674D01*
X134183037Y-120383333D01*
X134171454Y-120411951D01*
X134159294Y-120442186D01*
X134153193Y-120457423D01*
X134139259Y-120492282D01*
X134127081Y-120522781D01*
X134116543Y-120549233D01*
X134107533Y-120571948D01*
X134099936Y-120591239D01*
X134093639Y-120607415D01*
X134088527Y-120620787D01*
X134084487Y-120631668D01*
X134081406Y-120640367D01*
X134079168Y-120647196D01*
X134077661Y-120652467D01*
X134076770Y-120656489D01*
X134076381Y-120659575D01*
X134076382Y-120662035D01*
X134076657Y-120664180D01*
X134076961Y-120665703D01*
X134077914Y-120668459D01*
X134079976Y-120672672D01*
X134083294Y-120678563D01*
X134088016Y-120686354D01*
X134094288Y-120696268D01*
X134102257Y-120708525D01*
X134112070Y-120723349D01*
X134123875Y-120740961D01*
X134137818Y-120761583D01*
X134154045Y-120785436D01*
X134172705Y-120812743D01*
X134193943Y-120843726D01*
X134217907Y-120878606D01*
X134218620Y-120879643D01*
X134238339Y-120908371D01*
X134257248Y-120936022D01*
X134275151Y-120962303D01*
X134291851Y-120986922D01*
X134307151Y-121009585D01*
X134320857Y-121030000D01*
X134332771Y-121047874D01*
X134342698Y-121062914D01*
X134350441Y-121074828D01*
X134355804Y-121083324D01*
X134358590Y-121088107D01*
X134358951Y-121088972D01*
X134359189Y-121096912D01*
X134358379Y-121102804D01*
X134356445Y-121105722D01*
X134351277Y-121111774D01*
X134342837Y-121121002D01*
X134331086Y-121133444D01*
X134315985Y-121149142D01*
X134297494Y-121168136D01*
X134275575Y-121190466D01*
X134250189Y-121216172D01*
X134221296Y-121245294D01*
X134188858Y-121277873D01*
X134175143Y-121291619D01*
X134149929Y-121316847D01*
X134125621Y-121341107D01*
X134102468Y-121364157D01*
X134080714Y-121385753D01*
X134060608Y-121405654D01*
X134042395Y-121423615D01*
X134026321Y-121439396D01*
X134012634Y-121452752D01*
X134001579Y-121463442D01*
X133993404Y-121471223D01*
X133988354Y-121475851D01*
X133986803Y-121477089D01*
X133976833Y-121480352D01*
X133966612Y-121479312D01*
X133955289Y-121473848D01*
X133953010Y-121472346D01*
X133949136Y-121469695D01*
X133941436Y-121464419D01*
X133930229Y-121456737D01*
X133915836Y-121446870D01*
X133898578Y-121435037D01*
X133878776Y-121421458D01*
X133856749Y-121406352D01*
X133832818Y-121389940D01*
X133807305Y-121372442D01*
X133780529Y-121354077D01*
X133755940Y-121337211D01*
X133728417Y-121318348D01*
X133701938Y-121300232D01*
X133676816Y-121283074D01*
X133653363Y-121267087D01*
X133631892Y-121252482D01*
X133612716Y-121239473D01*
X133596147Y-121228271D01*
X133582498Y-121219088D01*
X133572082Y-121212136D01*
X133565212Y-121207629D01*
X133562297Y-121205825D01*
X133550483Y-121202294D01*
X133544107Y-121202398D01*
X133539402Y-121203917D01*
X133530635Y-121207726D01*
X133518135Y-121213662D01*
X133502231Y-121221562D01*
X133483253Y-121231264D01*
X133461529Y-121242606D01*
X133444559Y-121251596D01*
X133420834Y-121264199D01*
X133401102Y-121274565D01*
X133384942Y-121282860D01*
X133371927Y-121289252D01*
X133361636Y-121293908D01*
X133353644Y-121296995D01*
X133347526Y-121298680D01*
X133342861Y-121299131D01*
X133339223Y-121298513D01*
X133336189Y-121296994D01*
X133333889Y-121295222D01*
X133332309Y-121292374D01*
X133328885Y-121285011D01*
X133323675Y-121273274D01*
X133316737Y-121257305D01*
X133308133Y-121237245D01*
X133297920Y-121213234D01*
X133286159Y-121185413D01*
X133272908Y-121153924D01*
X133258227Y-121118906D01*
X133242175Y-121080501D01*
X133224812Y-121038850D01*
X133206196Y-120994094D01*
X133186388Y-120946374D01*
X133165446Y-120895830D01*
X133148588Y-120855080D01*
X133126707Y-120802154D01*
X133106672Y-120753674D01*
X133088403Y-120709444D01*
X133071821Y-120669263D01*
X133056845Y-120632932D01*
X133043396Y-120600253D01*
X133031395Y-120571026D01*
X133020763Y-120545052D01*
X133011419Y-120522131D01*
X133003285Y-120502066D01*
X132996280Y-120484657D01*
X132990325Y-120469704D01*
X132985342Y-120457009D01*
X132981249Y-120446373D01*
X132977968Y-120437595D01*
X132975419Y-120430478D01*
X132973522Y-120424823D01*
X132972199Y-120420429D01*
X132971369Y-120417099D01*
X132970953Y-120414632D01*
X132970871Y-120412830D01*
X132971045Y-120411494D01*
X132971199Y-120410950D01*
X132973599Y-120405298D01*
X132977242Y-120400243D01*
X132982912Y-120395085D01*
X132991395Y-120389125D01*
X133003475Y-120381663D01*
X133005257Y-120380602D01*
X133017135Y-120373219D01*
X133030052Y-120364680D01*
X133041491Y-120356656D01*
X133042980Y-120355558D01*
X133052649Y-120348368D01*
X133064572Y-120339506D01*
X133076963Y-120330299D01*
X133084475Y-120324719D01*
X133125725Y-120290988D01*
X133163516Y-120253697D01*
X133197598Y-120213121D01*
X133227724Y-120169533D01*
X133233524Y-120160024D01*
X133256301Y-120117314D01*
X133275628Y-120071638D01*
X133291173Y-120023973D01*
X133302607Y-119975300D01*
X133308232Y-119939155D01*
X133309830Y-119920627D01*
X133310694Y-119898600D01*
X133310850Y-119874549D01*
X133310321Y-119849948D01*
X133309129Y-119826271D01*
X133307300Y-119804991D01*
X133305914Y-119794045D01*
X133295747Y-119741737D01*
X133280996Y-119691214D01*
X133261839Y-119642723D01*
X133238456Y-119596508D01*
X133211024Y-119552817D01*
X133179724Y-119511897D01*
X133144732Y-119473992D01*
X133106229Y-119439350D01*
X133064393Y-119408217D01*
X133019403Y-119380840D01*
X132997977Y-119369712D01*
X132950646Y-119348956D01*
X132902462Y-119332984D01*
X132853044Y-119321707D01*
X132802010Y-119315039D01*
X132750000Y-119312891D01*
X132704843Y-119314365D01*
X132662475Y-119318928D01*
X132621562Y-119326788D01*
X132580769Y-119338152D01*
X132573960Y-119340378D01*
X132524705Y-119359370D01*
X132477852Y-119382596D01*
X132433643Y-119409815D01*
X132392319Y-119440788D01*
X132354122Y-119475275D01*
X132319295Y-119513036D01*
X132288078Y-119553832D01*
X132260714Y-119597422D01*
X132237445Y-119643567D01*
X132218512Y-119692026D01*
X132218074Y-119693329D01*
X132206907Y-119730050D01*
X132198666Y-119765126D01*
X132193102Y-119800130D01*
X132189965Y-119836637D01*
X132189004Y-119876084D01*
X132189990Y-119913824D01*
X132193057Y-119948572D01*
X132198476Y-119982030D01*
X132206521Y-120015900D01*
X132216756Y-120049742D01*
X132235700Y-120099412D01*
X132258995Y-120146635D01*
X132286490Y-120191205D01*
X132318038Y-120232917D01*
X132353490Y-120271564D01*
X132392697Y-120306943D01*
X132415524Y-120324723D01*
X132426681Y-120332991D01*
X132437963Y-120341394D01*
X132447838Y-120348788D01*
X132453247Y-120352869D01*
X132461470Y-120358763D01*
X132472332Y-120366081D01*
X132484134Y-120373693D01*
X132490970Y-120377937D01*
X132504169Y-120386145D01*
X132513686Y-120392542D01*
X132520241Y-120397755D01*
X132524550Y-120402410D01*
X132527333Y-120407134D01*
X132528805Y-120410963D01*
X132529075Y-120412144D01*
X132529131Y-120413689D01*
X132528892Y-120415799D01*
X132528280Y-120418672D01*
X132527214Y-120422506D01*
X132525615Y-120427503D01*
X132523404Y-120433860D01*
X132520501Y-120441776D01*
X132516826Y-120451451D01*
X132512300Y-120463084D01*
X132506844Y-120476874D01*
X132500377Y-120493020D01*
X132492821Y-120511722D01*
X132484096Y-120533177D01*
X132474121Y-120557586D01*
X132462819Y-120585148D01*
X132450108Y-120616061D01*
X132435911Y-120650526D01*
X132420146Y-120688740D01*
X132402735Y-120730903D01*
X132383598Y-120777214D01*
X132362655Y-120827873D01*
X132351400Y-120855093D01*
X132329840Y-120907188D01*
X132309326Y-120956673D01*
X132289918Y-121003400D01*
X132271680Y-121047222D01*
X132254674Y-121087990D01*
X132238960Y-121125558D01*
X132224603Y-121159776D01*
X132211664Y-121190499D01*
X132200205Y-121217577D01*
X132190288Y-121240864D01*
X132181976Y-121260211D01*
X132175331Y-121275471D01*
X132170415Y-121286495D01*
X132167290Y-121293138D01*
X132166094Y-121295222D01*
X132159755Y-121298499D01*
X132153425Y-121299623D01*
X132148868Y-121298370D01*
X132140014Y-121294631D01*
X132126924Y-121288434D01*
X132109655Y-121279809D01*
X132088269Y-121268785D01*
X132062823Y-121255390D01*
X132056253Y-121251898D01*
X132036434Y-121241410D01*
X132017737Y-121231640D01*
X132000684Y-121222852D01*
X131985798Y-121215310D01*
X131973603Y-121209279D01*
X131964622Y-121205022D01*
X131959377Y-121202804D01*
X131958575Y-121202569D01*
X131950146Y-121202265D01*
X131942779Y-121203666D01*
X131939584Y-121205468D01*
X131932560Y-121209915D01*
X131922019Y-121216797D01*
X131908271Y-121225905D01*
X131891630Y-121237028D01*
X131872407Y-121249958D01*
X131850914Y-121264484D01*
X131827463Y-121280396D01*
X131802365Y-121297486D01*
X131775933Y-121315542D01*
X131752155Y-121331834D01*
X131724535Y-121350782D01*
X131697794Y-121369127D01*
X131672265Y-121386639D01*
X131648281Y-121403089D01*
X131626177Y-121418249D01*
X131606285Y-121431890D01*
X131588940Y-121443784D01*
X131574475Y-121453700D01*
X131563223Y-121461411D01*
X131555520Y-121466688D01*
X131552143Y-121468997D01*
X131540080Y-121476348D01*
X131530284Y-121480042D01*
X131521756Y-121480249D01*
X131513499Y-121477140D01*
X131511435Y-121475912D01*
X131508636Y-121473496D01*
X131502539Y-121467759D01*
X131493394Y-121458946D01*
X131481448Y-121447303D01*
X131466951Y-121433076D01*
X131450151Y-121416510D01*
X131431297Y-121397851D01*
X131410638Y-121377345D01*
X131388423Y-121355237D01*
X131364900Y-121331772D01*
X131340318Y-121307196D01*
X131323599Y-121290451D01*
X131289864Y-121256593D01*
X131259690Y-121226208D01*
X131233039Y-121199257D01*
X131209874Y-121175702D01*
X131190155Y-121155503D01*
X131173845Y-121138619D01*
X131160905Y-121125013D01*
X131151297Y-121114645D01*
X131144984Y-121107474D01*
X131141926Y-121103463D01*
X131141620Y-121102804D01*
X131140720Y-121094838D01*
X131141035Y-121088972D01*
X131142592Y-121085961D01*
X131146814Y-121079106D01*
X131153504Y-121068700D01*
X131162468Y-121055035D01*
X131173508Y-121038405D01*
X131186428Y-121019102D01*
X131201032Y-120997418D01*
X131217124Y-120973647D01*
X131234507Y-120948081D01*
X131252986Y-120921013D01*
X131272364Y-120892735D01*
X131281360Y-120879643D01*
X131305411Y-120844639D01*
X131326733Y-120813539D01*
X131345470Y-120786121D01*
X131361771Y-120762165D01*
X131375781Y-120741447D01*
X131387648Y-120723747D01*
X131397518Y-120708844D01*
X131405539Y-120696515D01*
X131411856Y-120686539D01*
X131416616Y-120678694D01*
X131419967Y-120672759D01*
X131422054Y-120668513D01*
X131423025Y-120665733D01*
X131423032Y-120665703D01*
X131423436Y-120663591D01*
X131423648Y-120661390D01*
X131423553Y-120658789D01*
X131423037Y-120655475D01*
X131421987Y-120651139D01*
X131420289Y-120645468D01*
X131417829Y-120638151D01*
X131414492Y-120628877D01*
X131410166Y-120617335D01*
X131404736Y-120603213D01*
X131398087Y-120586201D01*
X131390107Y-120565986D01*
X131380682Y-120542258D01*
X131369696Y-120514705D01*
X131357038Y-120483017D01*
X131346905Y-120457669D01*
X131334860Y-120427618D01*
X131323256Y-120398812D01*
X131312239Y-120371606D01*
X131301957Y-120346358D01*
X131292556Y-120323425D01*
X131284185Y-120303164D01*
X131276989Y-120285931D01*
X131271117Y-120272083D01*
X131266716Y-120261977D01*
X131263932Y-120255970D01*
X131263088Y-120254467D01*
X131256838Y-120248611D01*
X131250097Y-120244588D01*
X131246559Y-120243678D01*
X131238425Y-120241925D01*
X131226048Y-120239397D01*
X131209779Y-120236162D01*
X131189970Y-120232289D01*
X131166973Y-120227844D01*
X131141139Y-120222896D01*
X131112820Y-120217512D01*
X131082367Y-120211761D01*
X131050133Y-120205710D01*
X131016468Y-120199427D01*
X131003435Y-120197004D01*
X130969307Y-120190655D01*
X130936465Y-120184523D01*
X130905261Y-120178675D01*
X130876049Y-120173179D01*
X130849181Y-120168101D01*
X130825011Y-120163509D01*
X130803890Y-120159469D01*
X130786171Y-120156049D01*
X130772208Y-120153316D01*
X130762352Y-120151337D01*
X130756958Y-120150179D01*
X130756157Y-120149970D01*
X130748245Y-120145394D01*
X130742943Y-120139389D01*
X130742168Y-120138002D01*
X130741481Y-120136330D01*
X130740879Y-120134080D01*
X130740355Y-120130959D01*
X130739907Y-120126675D01*
X130739529Y-120120936D01*
X130739216Y-120113449D01*
X130738965Y-120103921D01*
X130738771Y-120092061D01*
X130738628Y-120077577D01*
X130738534Y-120060175D01*
X130738482Y-120039563D01*
X130738470Y-120015449D01*
X130738491Y-119987540D01*
X130738541Y-119955545D01*
X130738617Y-119919170D01*
X130738713Y-119878123D01*
X130738737Y-119868246D01*
X130739376Y-119605018D01*
X130745371Y-119598637D01*
X130746249Y-119597558D01*
X130746863Y-119596630D01*
X130747492Y-119595794D01*
X130748412Y-119594993D01*
X130749901Y-119594170D01*
X130752235Y-119593267D01*
X130755692Y-119592228D01*
X130760550Y-119590993D01*
X130767085Y-119589507D01*
X130775575Y-119587712D01*
X130786297Y-119585550D01*
X130799528Y-119582964D01*
X130815546Y-119579897D01*
X130834627Y-119576290D01*
X130857049Y-119572087D01*
X130883089Y-119567231D01*
X130913025Y-119561663D01*
X130947133Y-119555327D01*
X130985691Y-119548165D01*
X131019033Y-119541969D01*
X131059894Y-119534373D01*
X131096104Y-119527633D01*
X131127952Y-119521678D01*
X131155730Y-119516438D01*
X131179729Y-119511841D01*
X131200240Y-119507816D01*
X131217555Y-119504294D01*
X131231964Y-119501202D01*
X131243759Y-119498470D01*
X131253232Y-119496027D01*
X131260672Y-119493802D01*
X131266372Y-119491724D01*
X131270622Y-119489723D01*
X131273714Y-119487728D01*
X131275938Y-119485667D01*
X131277587Y-119483470D01*
X131278951Y-119481066D01*
X131280321Y-119478384D01*
X131280328Y-119478370D01*
X131281932Y-119474878D01*
X131285354Y-119467134D01*
X131290431Y-119455510D01*
X131297002Y-119440381D01*
X131304907Y-119422119D01*
X131313985Y-119401096D01*
X131324073Y-119377685D01*
X131335012Y-119352259D01*
X131346640Y-119325190D01*
X131358795Y-119296853D01*
X131360765Y-119292256D01*
X131375488Y-119257931D01*
X131388358Y-119227914D01*
X131399474Y-119201878D01*
X131408931Y-119179494D01*
X131416826Y-119160435D01*
X131423256Y-119144371D01*
X131428317Y-119130975D01*
X131432107Y-119119918D01*
X131434721Y-119110873D01*
X131436256Y-119103511D01*
X131436809Y-119097503D01*
X131436477Y-119092522D01*
X131435356Y-119088240D01*
X131433543Y-119084328D01*
X131431134Y-119080457D01*
X131428226Y-119076301D01*
X131425494Y-119072386D01*
X131422369Y-119067811D01*
X131416618Y-119059410D01*
X131408463Y-119047505D01*
X131398122Y-119032415D01*
X131385816Y-119014463D01*
X131371766Y-118993969D01*
X131356191Y-118971255D01*
X131339312Y-118946642D01*
X131321348Y-118920451D01*
X131302521Y-118893003D01*
X131283050Y-118864620D01*
X131280030Y-118860217D01*
X131260707Y-118832039D01*
X131242160Y-118804966D01*
X131224592Y-118779298D01*
X131208206Y-118755329D01*
X131193202Y-118733359D01*
X131179785Y-118713683D01*
X131168157Y-118696599D01*
X131158520Y-118682404D01*
X131151077Y-118671394D01*
X131146030Y-118663867D01*
X131143582Y-118660120D01*
X131143407Y-118659823D01*
X131141443Y-118653596D01*
X131140507Y-118645669D01*
X131140495Y-118644753D01*
X131140576Y-118643141D01*
X131140955Y-118641404D01*
X131141831Y-118639332D01*
X131143405Y-118636714D01*
X131145877Y-118633339D01*
X131149448Y-118628996D01*
X131154318Y-118623476D01*
X131160686Y-118616567D01*
X131168754Y-118608059D01*
X131178723Y-118597740D01*
X131190791Y-118585402D01*
X131205160Y-118570832D01*
X131222031Y-118553820D01*
X131241602Y-118534155D01*
X131264076Y-118511628D01*
X131289652Y-118486027D01*
X131318530Y-118457141D01*
X131327241Y-118448429D01*
X131513988Y-118261683D01*
X131524972Y-118261683D01*
X131526369Y-118261594D01*
X131527491Y-118261417D01*
X131528543Y-118261286D01*
X131529727Y-118261335D01*
X131531247Y-118261700D01*
X131533305Y-118262514D01*
X131536105Y-118263912D01*
X131539851Y-118266028D01*
X131544744Y-118268997D01*
X131550989Y-118272953D01*
X131558789Y-118278030D01*
X131568346Y-118284364D01*
X131579864Y-118292087D01*
X131593546Y-118301336D01*
X131609595Y-118312243D01*
X131628215Y-118324944D01*
X131649608Y-118339574D01*
X131673978Y-118356265D01*
X131701528Y-118375153D01*
X131732460Y-118396373D01*
X131766979Y-118420058D01*
X131805287Y-118446344D01*
X131838033Y-118468809D01*
X131865331Y-118487530D01*
X131888804Y-118503605D01*
X131908772Y-118517235D01*
X131925556Y-118528622D01*
X131939475Y-118537967D01*
X131950851Y-118545472D01*
X131960003Y-118551339D01*
X131967253Y-118555769D01*
X131972919Y-118558963D01*
X131977323Y-118561124D01*
X131980786Y-118562454D01*
X131983627Y-118563152D01*
X131986166Y-118563422D01*
X131988451Y-118563465D01*
X131991406Y-118563229D01*
X131995398Y-118562441D01*
X132000742Y-118560979D01*
X132007755Y-118558723D01*
X132016754Y-118555553D01*
X132028054Y-118551347D01*
X132041972Y-118545985D01*
X132058824Y-118539345D01*
X132078927Y-118531308D01*
X132102596Y-118521752D01*
X132130148Y-118510556D01*
X132161900Y-118497600D01*
X132176141Y-118491777D01*
X132204446Y-118480172D01*
X132231495Y-118469031D01*
X132256912Y-118458511D01*
X132280319Y-118448772D01*
X132301341Y-118439970D01*
X132319601Y-118432266D01*
X132334722Y-118425816D01*
X132346327Y-118420779D01*
X132354041Y-118417313D01*
X132357486Y-118415577D01*
X132357527Y-118415547D01*
X132359785Y-118413863D01*
X132361830Y-118412155D01*
X132363729Y-118410136D01*
X132365547Y-118407517D01*
X132367351Y-118404014D01*
X132369207Y-118399338D01*
X132371181Y-118393203D01*
X132373339Y-118385322D01*
X132375747Y-118375407D01*
X132378471Y-118363173D01*
X132381577Y-118348331D01*
X132385131Y-118330596D01*
X132389200Y-118309680D01*
X132393849Y-118285296D01*
X132399144Y-118257158D01*
X132405152Y-118224977D01*
X132411939Y-118188468D01*
X132419570Y-118147344D01*
X132420771Y-118140869D01*
X132427357Y-118105447D01*
X132433728Y-118071329D01*
X132439819Y-118038850D01*
X132445567Y-118008348D01*
X132450907Y-117980159D01*
X132455774Y-117954620D01*
X132460105Y-117932068D01*
X132463834Y-117912838D01*
X132466898Y-117897269D01*
X132469233Y-117885695D01*
X132470773Y-117878455D01*
X132471400Y-117875984D01*
X132475549Y-117869638D01*
X132481701Y-117864214D01*
X132481968Y-117864048D01*
X132483368Y-117863288D01*
X132485123Y-117862614D01*
X132487526Y-117862020D01*
X132490872Y-117861503D01*
X132495454Y-117861056D01*
X132501565Y-117860675D01*
X132509501Y-117860354D01*
X132519553Y-117860089D01*
X132532017Y-117859873D01*
X132547185Y-117859702D01*
X132565351Y-117859571D01*
X132586810Y-117859474D01*
X132611855Y-117859406D01*
X132640779Y-117859363D01*
X132673876Y-117859338D01*
X132711441Y-117859328D01*
X132750000Y-117859325D01*
X132791912Y-117859328D01*
D12*
X135900000Y-120830000D03*
X160725000Y-124600000D03*
D13*
X149150000Y-122750000D03*
X149150000Y-124950000D03*
D14*
X147500000Y-102150000D03*
X147000000Y-102150000D03*
X146500000Y-102150000D03*
X146000000Y-102150000D03*
X145500000Y-102150000D03*
X145000000Y-102150000D03*
X144500000Y-102150000D03*
X144000000Y-102150000D03*
X143500000Y-102150000D03*
X143000000Y-102150000D03*
X142500000Y-102150000D03*
X142000000Y-102150000D03*
X141500000Y-102150000D03*
X141000000Y-102150000D03*
X140500000Y-102150000D03*
X140000000Y-102150000D03*
X139500000Y-102150000D03*
X139000000Y-102150000D03*
X138500000Y-102150000D03*
X138000000Y-102150000D03*
X137500000Y-102150000D03*
X137000000Y-102150000D03*
X136500000Y-102150000D03*
X136000000Y-102150000D03*
X135500000Y-102150000D03*
D15*
X133600000Y-104050000D03*
X133600000Y-104550000D03*
X133600000Y-105050000D03*
X133600000Y-105550000D03*
X133600000Y-106050000D03*
X133600000Y-106550000D03*
X133600000Y-107050000D03*
X133600000Y-107550000D03*
X133600000Y-108050000D03*
X133600000Y-108550000D03*
X133600000Y-109050000D03*
X133600000Y-109550000D03*
X133600000Y-110050000D03*
X133600000Y-110550000D03*
X133600000Y-111050000D03*
X133600000Y-111550000D03*
X133600000Y-112050000D03*
X133600000Y-112550000D03*
X133600000Y-113050000D03*
X133600000Y-113550000D03*
X133600000Y-114050000D03*
X133600000Y-114550000D03*
X133600000Y-115050000D03*
X133600000Y-115550000D03*
X133600000Y-116050000D03*
D14*
X135500000Y-117950000D03*
X136000000Y-117950000D03*
X136500000Y-117950000D03*
X137000000Y-117950000D03*
X137500000Y-117950000D03*
X138000000Y-117950000D03*
X138500000Y-117950000D03*
X139000000Y-117950000D03*
X139500000Y-117950000D03*
X140000000Y-117950000D03*
X140500000Y-117950000D03*
X141000000Y-117950000D03*
X141500000Y-117950000D03*
X142000000Y-117950000D03*
X142500000Y-117950000D03*
X143000000Y-117950000D03*
X143500000Y-117950000D03*
X144000000Y-117950000D03*
X144500000Y-117950000D03*
X145000000Y-117950000D03*
X145500000Y-117950000D03*
X146000000Y-117950000D03*
X146500000Y-117950000D03*
X147000000Y-117950000D03*
X147500000Y-117950000D03*
D15*
X149400000Y-116050000D03*
X149400000Y-115550000D03*
X149400000Y-115050000D03*
X149400000Y-114550000D03*
X149400000Y-114050000D03*
X149400000Y-113550000D03*
X149400000Y-113050000D03*
X149400000Y-112550000D03*
X149400000Y-112050000D03*
X149400000Y-111550000D03*
X149400000Y-111050000D03*
X149400000Y-110550000D03*
X149400000Y-110050000D03*
X149400000Y-109550000D03*
X149400000Y-109050000D03*
X149400000Y-108550000D03*
X149400000Y-108050000D03*
X149400000Y-107550000D03*
X149400000Y-107050000D03*
X149400000Y-106550000D03*
X149400000Y-106050000D03*
X149400000Y-105550000D03*
X149400000Y-105050000D03*
X149400000Y-104550000D03*
X149400000Y-104050000D03*
D16*
X139960000Y-100150000D03*
X138060000Y-100150000D03*
D17*
X151610000Y-104560000D03*
X151610000Y-102660000D03*
X131200000Y-104550000D03*
X131200000Y-106450000D03*
X131250000Y-117000000D03*
X131250000Y-115100000D03*
D16*
X149060000Y-118140000D03*
X150960000Y-118140000D03*
D17*
X155070000Y-92640000D03*
X155070000Y-94540000D03*
D18*
X153300000Y-91100000D03*
X153300000Y-92598600D03*
X151150000Y-91100000D03*
X151150000Y-92598600D03*
X149100000Y-91100000D03*
X149100000Y-92598600D03*
D19*
X146700000Y-124900000D03*
D20*
X146700000Y-122360000D03*
X144160000Y-124900000D03*
X144160000Y-122360000D03*
X141620000Y-124900000D03*
X141620000Y-122360000D03*
X139080000Y-124900000D03*
X139080000Y-122360000D03*
D13*
X153450000Y-98000000D03*
X153450000Y-95800000D03*
X151250000Y-98000000D03*
X151250000Y-95800000D03*
X149050000Y-98000000D03*
X149050000Y-95800000D03*
D21*
X141250000Y-93200000D03*
X143450000Y-93200000D03*
D16*
X156675000Y-125000000D03*
X158575000Y-125000000D03*
D22*
X161190000Y-100200000D03*
X161190000Y-100600000D03*
X161190000Y-101000000D03*
X161190000Y-101400000D03*
X161190000Y-101800000D03*
X161190000Y-102200000D03*
X161190000Y-102600000D03*
X161190000Y-103000000D03*
X161190000Y-103400000D03*
X161190000Y-103800000D03*
X161190000Y-107800000D03*
X161190000Y-107400000D03*
X161190000Y-107000000D03*
X161190000Y-106600000D03*
X161190000Y-106200000D03*
X161190000Y-105800000D03*
X161190000Y-105400000D03*
X161190000Y-105000000D03*
X161190000Y-104600000D03*
X161190000Y-104200000D03*
X161190000Y-108200000D03*
X161190000Y-108600000D03*
X161190000Y-109000000D03*
X161190000Y-109400000D03*
X161190000Y-109800000D03*
X161190000Y-110200000D03*
X161190000Y-110600000D03*
X161190000Y-111000000D03*
X161190000Y-111400000D03*
X161190000Y-111800000D03*
X161190000Y-115800000D03*
X161190000Y-115400000D03*
X161190000Y-115000000D03*
X161190000Y-114600000D03*
X161190000Y-114200000D03*
X161190000Y-113800000D03*
X161190000Y-113400000D03*
X161190000Y-113000000D03*
X161190000Y-112600000D03*
X161190000Y-112200000D03*
X158110000Y-112200000D03*
X158110000Y-112600000D03*
X158110000Y-113000000D03*
X158110000Y-113400000D03*
X158110000Y-113800000D03*
X158110000Y-114200000D03*
X158110000Y-114600000D03*
X158110000Y-115000000D03*
X158110000Y-115400000D03*
X158110000Y-115800000D03*
X158110000Y-111800000D03*
X158110000Y-111400000D03*
X158110000Y-111000000D03*
X158110000Y-110600000D03*
X158110000Y-110200000D03*
X158110000Y-109800000D03*
X158110000Y-109400000D03*
X158110000Y-109000000D03*
X158110000Y-108600000D03*
X158110000Y-108200000D03*
X158110000Y-104200000D03*
X158110000Y-104600000D03*
X158110000Y-105000000D03*
X158110000Y-105400000D03*
X158110000Y-105800000D03*
X158110000Y-106200000D03*
X158110000Y-106600000D03*
X158110000Y-107000000D03*
X158110000Y-107400000D03*
X158110000Y-107800000D03*
X158110000Y-103800000D03*
X158110000Y-103400000D03*
X158110000Y-103000000D03*
X158110000Y-102600000D03*
X158110000Y-102200000D03*
X158110000Y-101800000D03*
X158110000Y-101400000D03*
X158110000Y-101000000D03*
X158110000Y-100600000D03*
X158110000Y-100200000D03*
D21*
X154850000Y-125000000D03*
X152650000Y-125000000D03*
D23*
X156580000Y-94660000D03*
X157530000Y-94660000D03*
X158480000Y-94660000D03*
X158480000Y-92460000D03*
X156580000Y-92460000D03*
D24*
X159800000Y-96900000D03*
X155800000Y-96900000D03*
D16*
X139960000Y-98510000D03*
X138060000Y-98510000D03*
D25*
X136860000Y-91140000D03*
D26*
X139000000Y-91450000D03*
X145600000Y-91450000D03*
D25*
X163525200Y-97078800D03*
D16*
X131080000Y-101910000D03*
X132980000Y-101910000D03*
X138070000Y-95160000D03*
X139970000Y-95160000D03*
D17*
X130920000Y-97450000D03*
X130920000Y-99350000D03*
D27*
X143920000Y-98710000D03*
X141520000Y-98710000D03*
X142720000Y-98710000D03*
D28*
X136280000Y-99580000D03*
X136280000Y-99080000D03*
X136280000Y-98580000D03*
X136280000Y-98080000D03*
X136280000Y-97580000D03*
X136280000Y-97080000D03*
D29*
X135580000Y-96380000D03*
X135080000Y-96380000D03*
X134580000Y-96380000D03*
X134080000Y-96380000D03*
X133580000Y-96380000D03*
X133080000Y-96380000D03*
D28*
X132380000Y-97080000D03*
X132380000Y-97580000D03*
X132380000Y-98080000D03*
X132380000Y-98580000D03*
X132380000Y-99080000D03*
X132380000Y-99580000D03*
D29*
X133080000Y-100280000D03*
X133580000Y-100280000D03*
X134080000Y-100280000D03*
X134580000Y-100280000D03*
X135080000Y-100280000D03*
X135580000Y-100280000D03*
D30*
X133680000Y-97680000D03*
X133680000Y-98980000D03*
X134980000Y-97680000D03*
X134980000Y-98980000D03*
D12*
X164575000Y-95300000D03*
D31*
X148150000Y-123025000D03*
X159900000Y-121600000D03*
X148096331Y-105082274D03*
X138060000Y-97440000D03*
X136860000Y-91140000D03*
X130920000Y-96180000D03*
X132252297Y-109155135D03*
X130940000Y-103140000D03*
X149450000Y-117162320D03*
X152740000Y-102460000D03*
X154795302Y-91020880D03*
X156500000Y-91020880D03*
X155650000Y-91020880D03*
X144789150Y-103608420D03*
X144900000Y-92704672D03*
X150150000Y-91450000D03*
X132942400Y-117000000D03*
D32*
X155484831Y-105661094D03*
D31*
X165196359Y-94109497D03*
X164762501Y-97287396D03*
X159523865Y-125200572D03*
X145050000Y-104690000D03*
X131030000Y-108710000D03*
X150920000Y-116980000D03*
X138530000Y-96360000D03*
X140450000Y-99330000D03*
X133430000Y-95030000D03*
X157550000Y-97760000D03*
X130890000Y-100610000D03*
X152750000Y-104140000D03*
X146150000Y-92700000D03*
X157450000Y-93500000D03*
X153950000Y-93650000D03*
X131250000Y-113900000D03*
X156000058Y-104999926D03*
X156000057Y-104999927D03*
D32*
X162150000Y-109849998D03*
X162150000Y-106750000D03*
X162150000Y-107500006D03*
X162150000Y-108250000D03*
X162150004Y-109000000D03*
D31*
X161650000Y-97100000D03*
X144336625Y-96146625D03*
X139740000Y-96250000D03*
D32*
X156533480Y-109382218D03*
D31*
X157200000Y-107450000D03*
X156500000Y-107750000D03*
X157200000Y-108200000D03*
D32*
X157199998Y-109000000D03*
X156550004Y-108600000D03*
D31*
X137913185Y-113696704D03*
X137138634Y-114127893D03*
X136417894Y-113583603D03*
X135550000Y-114100000D03*
X162110236Y-100071520D03*
X143000000Y-116650000D03*
D32*
X163112236Y-100200276D03*
D31*
X142100000Y-116350000D03*
D32*
X163939920Y-100332709D03*
D31*
X141003006Y-116399407D03*
D32*
X163908480Y-101402757D03*
D31*
X140174437Y-116526186D03*
X154163213Y-119869803D03*
X152934821Y-123092626D03*
X152262672Y-122591812D03*
X153326477Y-119809768D03*
X152393929Y-119801218D03*
X150304638Y-122896631D03*
X151542115Y-119924743D03*
X148925540Y-121613280D03*
X140567692Y-104110458D03*
X158699998Y-98950000D03*
X139696520Y-103550000D03*
X157620588Y-98912234D03*
X156105760Y-110569805D03*
X162152957Y-110738207D03*
X154733771Y-110026331D03*
X162118150Y-111575696D03*
X154962739Y-110832653D03*
X162156514Y-112413029D03*
X154085953Y-113766036D03*
D32*
X155236520Y-113183346D03*
D31*
X154690742Y-114803827D03*
D32*
X155768513Y-114264986D03*
D31*
X153687488Y-107382303D03*
D32*
X155083600Y-115556054D03*
D31*
X152364334Y-106589079D03*
D32*
X155238794Y-116379773D03*
D31*
X152358616Y-111507398D03*
D32*
X156121678Y-116305139D03*
D31*
X151500000Y-110650000D03*
D32*
X156850162Y-116804780D03*
D31*
X138726019Y-115077767D03*
D32*
X157298385Y-116096476D03*
D31*
X139580652Y-115932401D03*
D32*
X158170500Y-116353781D03*
D31*
X137988623Y-108849879D03*
X141400000Y-113250000D03*
X133600000Y-103350000D03*
X151800000Y-113100000D03*
X152666160Y-110727644D03*
X154216302Y-111214007D03*
X157070000Y-101080000D03*
X143100000Y-113000000D03*
D32*
X155983285Y-112276038D03*
D31*
X143667109Y-114677791D03*
X151363221Y-112306208D03*
X143107184Y-114054025D03*
X150639823Y-111836527D03*
X144370158Y-110363541D03*
D32*
X154991864Y-102801273D03*
D31*
X145599819Y-103395312D03*
X144100000Y-105670000D03*
D32*
X155228192Y-103605480D03*
D31*
X142798800Y-111099600D03*
X140352086Y-105253480D03*
X152689370Y-108036912D03*
X156935875Y-106535875D03*
X151476488Y-107978160D03*
X156984125Y-99925875D03*
X151166989Y-107199180D03*
X156030000Y-99780000D03*
X159470000Y-123110000D03*
X142544659Y-103544659D03*
X150275000Y-123848805D03*
X160000000Y-111100000D03*
X153925000Y-125000000D03*
X156740608Y-119564992D03*
X155597587Y-119869803D03*
X152540000Y-116530000D03*
X148040000Y-114000000D03*
X148096331Y-107400121D03*
X146071520Y-109543211D03*
X148138480Y-102624464D03*
X153175516Y-100164047D03*
X151200000Y-125050000D03*
X134587355Y-95360282D03*
X132120000Y-106320000D03*
X132190000Y-96250000D03*
X132250000Y-108210000D03*
X135470000Y-95260000D03*
X134120000Y-101470000D03*
X146456400Y-111404400D03*
X140665200Y-109728000D03*
X141579600Y-110794800D03*
X148380000Y-101620000D03*
X150090000Y-100390000D03*
X142825000Y-105975000D03*
X152375000Y-108975000D03*
X157100000Y-110000000D03*
X144600000Y-108994100D03*
X142925000Y-95450000D03*
X144600000Y-108155900D03*
D33*
X149150000Y-122750000D02*
X148425000Y-122750000D01*
X148425000Y-122750000D02*
X148150000Y-123025000D01*
X148096331Y-104451269D02*
X148096331Y-104597341D01*
X149400000Y-104050000D02*
X148497600Y-104050000D01*
X148497600Y-104050000D02*
X148096331Y-104451269D01*
X148096331Y-104597341D02*
X148096331Y-105082274D01*
D34*
X149450000Y-117162320D02*
X149450000Y-117750000D01*
X149450000Y-117750000D02*
X149060000Y-118140000D01*
X147500000Y-117950000D02*
X148870000Y-117950000D01*
X148870000Y-117950000D02*
X149060000Y-118140000D01*
X138060000Y-98510000D02*
X138060000Y-97440000D01*
X138060000Y-100150000D02*
X138060000Y-98510000D01*
X138060000Y-100150000D02*
X137835000Y-100150000D01*
X137835000Y-100150000D02*
X137000000Y-100985000D01*
X137000000Y-100985000D02*
X137000000Y-101146000D01*
X137000000Y-101146000D02*
X137000000Y-102150000D01*
X138060000Y-100150000D02*
X137500000Y-100710000D01*
X137500000Y-100710000D02*
X137500000Y-102150000D01*
D33*
X130920000Y-97450000D02*
X131447400Y-97450000D01*
X131447400Y-97450000D02*
X131817400Y-97080000D01*
X131817400Y-97080000D02*
X132380000Y-97080000D01*
X158110000Y-106200000D02*
X157445822Y-106200000D01*
X157445822Y-106200000D02*
X157105822Y-105860000D01*
X157105822Y-105860000D02*
X156383636Y-105860000D01*
X158110000Y-105823800D02*
X157154755Y-105823800D01*
X157154755Y-105823800D02*
X157118555Y-105860000D01*
X157118555Y-105860000D02*
X156383636Y-105860000D01*
X156383636Y-105860000D02*
X156184730Y-105661094D01*
X130920000Y-97450000D02*
X130920000Y-96180000D01*
X130960000Y-97410000D02*
X130920000Y-97450000D01*
X131200000Y-104550000D02*
X131200000Y-103400000D01*
X131200000Y-103400000D02*
X130940000Y-103140000D01*
X133600000Y-105050000D02*
X131700000Y-105050000D01*
X131700000Y-105050000D02*
X131200000Y-104550000D01*
X131200000Y-104550000D02*
X131200000Y-104775000D01*
D34*
X151610000Y-102660000D02*
X152540000Y-102660000D01*
X152540000Y-102660000D02*
X152740000Y-102460000D01*
X151610000Y-102660000D02*
X150396000Y-102660000D01*
X150396000Y-102660000D02*
X149400000Y-103656000D01*
X149400000Y-103656000D02*
X149400000Y-104050000D01*
D33*
X153300000Y-91100000D02*
X154716182Y-91100000D01*
X155070000Y-91295578D02*
X154795302Y-91020880D01*
X155650000Y-91325000D02*
X155650000Y-91020880D01*
X154716182Y-91100000D02*
X154795302Y-91020880D01*
X156580000Y-92460000D02*
X156580000Y-92255000D01*
X155070000Y-92640000D02*
X155070000Y-91600880D01*
X156580000Y-92460000D02*
X156580000Y-91100880D01*
X155070000Y-91600880D02*
X155307101Y-91363779D01*
X155307101Y-91363779D02*
X155650000Y-91020880D01*
X155070000Y-92640000D02*
X155070000Y-91295578D01*
X156500000Y-91020880D02*
X155650000Y-91020880D01*
X156580000Y-92255000D02*
X155650000Y-91325000D01*
X156580000Y-91100880D02*
X156500000Y-91020880D01*
X155650000Y-91020880D02*
X154795302Y-91020880D01*
X145000000Y-102150000D02*
X145000000Y-103397570D01*
X145000000Y-103397570D02*
X144789150Y-103608420D01*
X144557101Y-93047571D02*
X144900000Y-92704672D01*
X144404672Y-93200000D02*
X144557101Y-93047571D01*
X143450000Y-93200000D02*
X144404672Y-93200000D01*
X150150000Y-91450000D02*
X149450000Y-91450000D01*
X149450000Y-91450000D02*
X149100000Y-91100000D01*
X151150000Y-91100000D02*
X150500000Y-91100000D01*
X150500000Y-91100000D02*
X150150000Y-91450000D01*
X155070000Y-92640000D02*
X156400000Y-92640000D01*
X156400000Y-92640000D02*
X156580000Y-92460000D01*
X153300000Y-91100000D02*
X152748820Y-91100000D01*
X152748820Y-91100000D02*
X151150000Y-91100000D01*
X147500000Y-117950000D02*
X147500000Y-117340000D01*
X155969764Y-105661094D02*
X155484831Y-105661094D01*
X156184730Y-105661094D02*
X155969764Y-105661094D01*
X153300000Y-91100000D02*
X153350000Y-91150000D01*
X131250000Y-117000000D02*
X132942400Y-117000000D01*
X132942400Y-117000000D02*
X133600000Y-116342400D01*
X133600000Y-116342400D02*
X133600000Y-116050000D01*
X158110000Y-106223800D02*
X158072517Y-106186317D01*
X159327400Y-125000000D02*
X159523865Y-125196465D01*
X158575000Y-125000000D02*
X159327400Y-125000000D01*
X159523865Y-125196465D02*
X159523865Y-125200572D01*
X150920000Y-116980000D02*
X150920000Y-118100000D01*
X150920000Y-118100000D02*
X150960000Y-118140000D01*
X131030000Y-108225067D02*
X131030000Y-108710000D01*
X131030000Y-106470000D02*
X131030000Y-108225067D01*
X131200000Y-106300000D02*
X131030000Y-106470000D01*
D34*
X150480000Y-116540000D02*
X150577101Y-116637101D01*
X147000000Y-116946000D02*
X147406000Y-116540000D01*
X147406000Y-116540000D02*
X150480000Y-116540000D01*
X147000000Y-117950000D02*
X147000000Y-116946000D01*
X150577101Y-116637101D02*
X150920000Y-116980000D01*
D33*
X139960000Y-98510000D02*
X139960000Y-97790000D01*
X139960000Y-97790000D02*
X138530000Y-96360000D01*
X140450000Y-99330000D02*
X140450000Y-99000000D01*
X140450000Y-99000000D02*
X139960000Y-98510000D01*
X139960000Y-100150000D02*
X139960000Y-99820000D01*
X139960000Y-99820000D02*
X140450000Y-99330000D01*
X133580000Y-96380000D02*
X133580000Y-95180000D01*
X133580000Y-95180000D02*
X133430000Y-95030000D01*
X140980000Y-97020000D02*
X140690000Y-97020000D01*
X142232400Y-97020000D02*
X140980000Y-97020000D01*
X140980000Y-97020000D02*
X140980000Y-100190000D01*
X144590000Y-97470000D02*
X144590000Y-99810000D01*
X144140000Y-97020000D02*
X144590000Y-97470000D01*
X143200000Y-97020000D02*
X144140000Y-97020000D01*
X142710000Y-97510000D02*
X143200000Y-97020000D01*
X142710000Y-97850000D02*
X142710000Y-97510000D01*
X142720000Y-98710000D02*
X142720000Y-97860000D01*
X142720000Y-97860000D02*
X142710000Y-97850000D01*
X139960000Y-100150000D02*
X139960000Y-100677400D01*
X139960000Y-100677400D02*
X139597400Y-101040000D01*
X139597400Y-101040000D02*
X138207600Y-101040000D01*
X138207600Y-101040000D02*
X138000000Y-101247600D01*
X138000000Y-101247600D02*
X138000000Y-102150000D01*
X139960000Y-98510000D02*
X139960000Y-100150000D01*
X140690000Y-97020000D02*
X139960000Y-97750000D01*
X139960000Y-97750000D02*
X139960000Y-98510000D01*
X142720000Y-98710000D02*
X142720000Y-97507600D01*
X142720000Y-97507600D02*
X142232400Y-97020000D01*
X139970000Y-95160000D02*
X139970000Y-92420000D01*
X139970000Y-92420000D02*
X139000000Y-91450000D01*
X131080000Y-101910000D02*
X131080000Y-100800000D01*
X131080000Y-100800000D02*
X130890000Y-100610000D01*
X130920000Y-99350000D02*
X131447400Y-99350000D01*
X131447400Y-99350000D02*
X131677400Y-99580000D01*
X131677400Y-99580000D02*
X131802600Y-99580000D01*
X131802600Y-99580000D02*
X132380000Y-99580000D01*
X155800000Y-96900000D02*
X156952400Y-96900000D01*
X156952400Y-96900000D02*
X157550000Y-97497600D01*
X157550000Y-97497600D02*
X157550000Y-97760000D01*
X161190000Y-109400000D02*
X161700002Y-109400000D01*
X161700002Y-109400000D02*
X162150000Y-109849998D01*
X161190000Y-109400000D02*
X161750004Y-109400000D01*
X161750004Y-109400000D02*
X162150004Y-109000000D01*
X161190000Y-109000000D02*
X162150004Y-109000000D01*
X161190000Y-108600000D02*
X161800000Y-108600000D01*
X161800000Y-108600000D02*
X162150000Y-108250000D01*
X161190000Y-108200000D02*
X162100000Y-108200000D01*
X162100000Y-108200000D02*
X162150000Y-108250000D01*
X161190000Y-107800000D02*
X161850006Y-107800000D01*
X161850006Y-107800000D02*
X162150000Y-107500006D01*
X161190000Y-107400000D02*
X162049994Y-107400000D01*
X162049994Y-107400000D02*
X162150000Y-107500006D01*
X130920000Y-99350000D02*
X130920000Y-100580000D01*
X130920000Y-100580000D02*
X130890000Y-100610000D01*
X130980000Y-99410000D02*
X130920000Y-99350000D01*
D34*
X151610000Y-104560000D02*
X152330000Y-104560000D01*
X152330000Y-104560000D02*
X152750000Y-104140000D01*
X151610000Y-104560000D02*
X149410000Y-104560000D01*
X149410000Y-104560000D02*
X149400000Y-104550000D01*
X155070000Y-94540000D02*
X155070000Y-96170000D01*
X155070000Y-96170000D02*
X155800000Y-96900000D01*
D33*
X155790000Y-94732600D02*
X155597400Y-94540000D01*
X155597400Y-94540000D02*
X155070000Y-94540000D01*
X157530000Y-94660000D02*
X157530000Y-93580000D01*
X157530000Y-93580000D02*
X157450000Y-93500000D01*
X155070000Y-94315000D02*
X154405000Y-93650000D01*
X154405000Y-93650000D02*
X153950000Y-93650000D01*
X157530000Y-94660000D02*
X157530000Y-93977600D01*
X157530000Y-93977600D02*
X157340000Y-93787600D01*
X157340000Y-93787600D02*
X155597400Y-93787600D01*
X155597400Y-93787600D02*
X155070000Y-94315000D01*
X155070000Y-94315000D02*
X155070000Y-94540000D01*
X131250000Y-115100000D02*
X131250000Y-113900000D01*
X158110000Y-105000000D02*
X157000000Y-105000000D01*
X157000000Y-105000000D02*
X156000132Y-105000000D01*
X157400000Y-105400000D02*
X157000000Y-105000000D01*
X158110000Y-105400000D02*
X157400000Y-105400000D01*
X156000132Y-105000000D02*
X156000058Y-104999926D01*
X162150000Y-107565067D02*
X162150000Y-109849998D01*
D35*
X161190000Y-106600000D02*
X162000000Y-106600000D01*
X162000000Y-106600000D02*
X162150000Y-106750000D01*
X161190000Y-107000000D02*
X161649994Y-107000000D01*
X161649994Y-107000000D02*
X162150000Y-107500006D01*
X161190000Y-107000000D02*
X161900000Y-107000000D01*
X161900000Y-107000000D02*
X162150000Y-106750000D01*
D33*
X162150000Y-106783800D02*
X162150000Y-107765067D01*
X162150000Y-107765067D02*
X162150000Y-108250000D01*
X162150004Y-108515067D02*
X162150004Y-109000000D01*
X162150004Y-107583804D02*
X162150004Y-108515067D01*
X131250000Y-115100000D02*
X131777400Y-115100000D01*
X131777400Y-115100000D02*
X132227400Y-115550000D01*
X132227400Y-115550000D02*
X132697600Y-115550000D01*
X132697600Y-115550000D02*
X133600000Y-115550000D01*
D34*
X163525200Y-97078800D02*
X162321200Y-97078800D01*
X162321200Y-97078800D02*
X162300000Y-97100000D01*
X161650000Y-97100000D02*
X162300000Y-97100000D01*
X161650000Y-97100000D02*
X160000000Y-97100000D01*
X160000000Y-97100000D02*
X159800000Y-96900000D01*
X156580000Y-94660000D02*
X156580000Y-95444000D01*
X156580000Y-95444000D02*
X158036000Y-96900000D01*
X158036000Y-96900000D02*
X158546000Y-96900000D01*
X158546000Y-96900000D02*
X159800000Y-96900000D01*
X158480000Y-94660000D02*
X158480000Y-95780000D01*
X158480000Y-95780000D02*
X159600000Y-96900000D01*
X159600000Y-96900000D02*
X159800000Y-96900000D01*
D33*
X156600000Y-95000000D02*
X156375000Y-95000000D01*
X149100000Y-92598600D02*
X149100000Y-95750000D01*
X149100000Y-95750000D02*
X149050000Y-95800000D01*
X151150000Y-92598600D02*
X151150000Y-95700000D01*
X151150000Y-95700000D02*
X151250000Y-95800000D01*
X153350000Y-92648600D02*
X153350000Y-95700000D01*
X153350000Y-95700000D02*
X153450000Y-95800000D01*
D34*
X144233250Y-96250000D02*
X144336625Y-96146625D01*
X139740000Y-96250000D02*
X144233250Y-96250000D01*
D33*
X156817780Y-109382218D02*
X156533480Y-109382218D01*
X157199998Y-109000000D02*
X156817780Y-109382218D01*
D34*
X156551262Y-109400000D02*
X156533480Y-109382218D01*
X156749998Y-109400000D02*
X156551262Y-109400000D01*
D33*
X157650000Y-109400000D02*
X157632218Y-109382218D01*
X157018413Y-109382218D02*
X156533480Y-109382218D01*
X157632218Y-109382218D02*
X157018413Y-109382218D01*
D34*
X156550004Y-109365694D02*
X156533480Y-109382218D01*
X156550004Y-108600000D02*
X156550004Y-109365694D01*
D33*
X158110000Y-107400000D02*
X157250000Y-107400000D01*
X157250000Y-107400000D02*
X157200000Y-107450000D01*
X157650000Y-109400000D02*
X157599998Y-109400000D01*
X157599998Y-109400000D02*
X157199998Y-109000000D01*
X158110000Y-109400000D02*
X157650000Y-109400000D01*
X158110000Y-109000000D02*
X157199998Y-109000000D01*
D34*
X157199998Y-109000000D02*
X157199998Y-108610000D01*
X157199998Y-108610000D02*
X157199998Y-108200002D01*
D33*
X158110000Y-108600000D02*
X157607600Y-108600000D01*
X157607600Y-108600000D02*
X157597600Y-108610000D01*
X157597600Y-108610000D02*
X157199998Y-108610000D01*
X158110000Y-108200000D02*
X157200000Y-108200000D01*
D34*
X157200000Y-108200000D02*
X156950000Y-108200000D01*
X156950000Y-108200000D02*
X156500000Y-107750000D01*
X157199998Y-108200002D02*
X157200000Y-108200000D01*
X156500000Y-107750000D02*
X156500000Y-108549996D01*
X156500000Y-108549996D02*
X156550004Y-108600000D01*
X157200000Y-107450000D02*
X156800000Y-107450000D01*
X156800000Y-107450000D02*
X156500000Y-107750000D01*
D33*
X158110000Y-107800000D02*
X157550000Y-107800000D01*
X157550000Y-107800000D02*
X157200000Y-107450000D01*
X157034937Y-108600000D02*
X156550004Y-108600000D01*
X135266481Y-111050000D02*
X137570286Y-113353805D01*
X137570286Y-113353805D02*
X137913185Y-113696704D01*
X133600000Y-111050000D02*
X135266481Y-111050000D01*
X133600000Y-112050000D02*
X135745824Y-112050000D01*
X137138634Y-113442810D02*
X137138634Y-113642960D01*
X137138634Y-113642960D02*
X137138634Y-114127893D01*
X135745824Y-112050000D02*
X137138634Y-113442810D01*
X136074995Y-113240704D02*
X136417894Y-113583603D01*
X135884291Y-113050000D02*
X136074995Y-113240704D01*
X133600000Y-113050000D02*
X135884291Y-113050000D01*
X135000000Y-113550000D02*
X135207101Y-113757101D01*
X133600000Y-113550000D02*
X135000000Y-113550000D01*
X135207101Y-113757101D02*
X135550000Y-114100000D01*
X161981756Y-100200000D02*
X162110236Y-100071520D01*
X161190000Y-100200000D02*
X161981756Y-100200000D01*
X143000000Y-117950000D02*
X143000000Y-116650000D01*
X163112236Y-100200276D02*
X162669490Y-100643022D01*
X162669490Y-100643022D02*
X161735422Y-100643022D01*
X161735422Y-100643022D02*
X161692400Y-100600000D01*
X161692400Y-100600000D02*
X161190000Y-100600000D01*
X142100000Y-116647600D02*
X142100000Y-116350000D01*
X142500000Y-117950000D02*
X142500000Y-117047600D01*
X142500000Y-117047600D02*
X142100000Y-116647600D01*
X163939920Y-100332709D02*
X163248829Y-101023800D01*
X163248829Y-101023800D02*
X163225029Y-101000000D01*
X163225029Y-101000000D02*
X161190000Y-101000000D01*
X142000000Y-117145824D02*
X141253583Y-116399407D01*
X141253583Y-116399407D02*
X141003006Y-116399407D01*
X142000000Y-117950000D02*
X142000000Y-117145824D01*
X161211043Y-101402757D02*
X163423547Y-101402757D01*
X161190000Y-101423800D02*
X161211043Y-101402757D01*
X163423547Y-101402757D02*
X163908480Y-101402757D01*
X141500000Y-117176891D02*
X141294509Y-116971399D01*
X141500000Y-117950000D02*
X141500000Y-117176891D01*
X140619650Y-116971399D02*
X140517336Y-116869085D01*
X140517336Y-116869085D02*
X140174437Y-116526186D01*
X141294509Y-116971399D02*
X140619650Y-116971399D01*
X153521944Y-118743601D02*
X154163213Y-119384870D01*
X161190000Y-101800000D02*
X162600003Y-101800000D01*
X141284841Y-119036323D02*
X147639204Y-119036323D01*
X147931926Y-118743601D02*
X153521944Y-118743601D01*
X141000000Y-118751482D02*
X141284841Y-119036323D01*
X147639204Y-119036323D02*
X147931926Y-118743601D01*
X141000000Y-117950000D02*
X141000000Y-118751482D01*
X162600003Y-101800000D02*
X164350000Y-103549997D01*
X158050000Y-122575000D02*
X153937380Y-122575000D01*
X154163213Y-119384870D02*
X154163213Y-119869803D01*
X164350000Y-103549997D02*
X164350000Y-116275000D01*
X164350000Y-116275000D02*
X158050000Y-122575000D01*
X153937380Y-122575000D02*
X153419754Y-123092626D01*
X153419754Y-123092626D02*
X152934821Y-123092626D01*
X152509295Y-122345189D02*
X152262672Y-122591812D01*
X153811124Y-122270189D02*
X153736124Y-122345189D01*
X157923745Y-122270189D02*
X153811124Y-122270189D01*
X164045189Y-116148745D02*
X157923745Y-122270189D01*
X164045189Y-103676253D02*
X164045189Y-116148745D01*
X161190000Y-102200000D02*
X162568936Y-102200000D01*
X153736124Y-122345189D02*
X152509295Y-122345189D01*
X162568936Y-102200000D02*
X164045189Y-103676253D01*
X140500000Y-118682549D02*
X141158585Y-119341134D01*
X152565121Y-119048412D02*
X152983578Y-119466869D01*
X140500000Y-117950000D02*
X140500000Y-118682549D01*
X141158585Y-119341134D02*
X147765460Y-119341134D01*
X148058182Y-119048412D02*
X152565121Y-119048412D01*
X147765460Y-119341134D02*
X148058182Y-119048412D01*
X152983578Y-119466869D02*
X153326477Y-119809768D01*
X151180969Y-122020300D02*
X150647537Y-122553732D01*
X153684868Y-121965378D02*
X153629946Y-122020300D01*
X163735935Y-103905055D02*
X163735935Y-116026933D01*
X162430880Y-102600000D02*
X163735935Y-103905055D01*
X161190000Y-102600000D02*
X162430880Y-102600000D01*
X157797490Y-121965378D02*
X153684868Y-121965378D01*
X153629946Y-122020300D02*
X151180969Y-122020300D01*
X150647537Y-122553732D02*
X150304638Y-122896631D01*
X163735935Y-116026933D02*
X157797490Y-121965378D01*
X148184434Y-119353227D02*
X151945938Y-119353227D01*
X140000000Y-118682549D02*
X140963396Y-119645945D01*
X147891716Y-119645945D02*
X148184434Y-119353227D01*
X152051030Y-119458319D02*
X152393929Y-119801218D01*
X140963396Y-119645945D02*
X147891716Y-119645945D01*
X151945938Y-119353227D02*
X152051030Y-119458319D01*
X163431124Y-104063271D02*
X163431124Y-115900678D01*
X149410473Y-121613280D02*
X148925540Y-121613280D01*
X153503690Y-121715489D02*
X149512682Y-121715489D01*
X161190000Y-103023800D02*
X162391653Y-103023800D01*
X153558612Y-121660567D02*
X153503690Y-121715489D01*
X162391653Y-103023800D02*
X163431124Y-104063271D01*
X149512682Y-121715489D02*
X149410473Y-121613280D01*
X157671235Y-121660567D02*
X153558612Y-121660567D01*
X163431124Y-115900678D02*
X157671235Y-121660567D01*
X139500000Y-118852400D02*
X139914912Y-119267312D01*
X148146194Y-119822534D02*
X150954973Y-119822534D01*
X151057182Y-119924743D02*
X151542115Y-119924743D01*
X150954973Y-119822534D02*
X151057182Y-119924743D01*
X140837140Y-119950756D02*
X148017972Y-119950756D01*
X140153696Y-119267312D02*
X140837140Y-119950756D01*
X139914912Y-119267312D02*
X140153696Y-119267312D01*
X139500000Y-117950000D02*
X139500000Y-118852400D01*
X148017972Y-119950756D02*
X148146194Y-119822534D01*
X140567692Y-103625525D02*
X140567692Y-104110458D01*
X140000000Y-103007656D02*
X140567692Y-103575348D01*
X140000000Y-102150000D02*
X140000000Y-103007656D01*
X140567692Y-103575348D02*
X140567692Y-103625525D01*
X161190000Y-103400000D02*
X160200000Y-103400000D01*
X160200000Y-103400000D02*
X159909622Y-103109622D01*
X159909622Y-103109622D02*
X159909622Y-100159624D01*
X159909622Y-100159624D02*
X159042897Y-99292899D01*
X159042897Y-99292899D02*
X158699998Y-98950000D01*
X139500000Y-103353480D02*
X139696520Y-103550000D01*
X139500000Y-102150000D02*
X139500000Y-103353480D01*
X157963487Y-99255133D02*
X157620588Y-98912234D01*
X159604811Y-100569878D02*
X158556434Y-99521501D01*
X159604811Y-103285878D02*
X159604811Y-100569878D01*
X161190000Y-103800000D02*
X160118933Y-103800000D01*
X158556434Y-99521501D02*
X158229855Y-99521501D01*
X160118933Y-103800000D02*
X159604811Y-103285878D01*
X158229855Y-99521501D02*
X157963487Y-99255133D01*
X137000000Y-117950000D02*
X137000000Y-118852400D01*
X161190000Y-116052400D02*
X161190000Y-115800000D01*
X150775758Y-120127345D02*
X151144658Y-120496245D01*
X161190000Y-116417538D02*
X161190000Y-116052400D01*
X157166215Y-120441323D02*
X161190000Y-116417538D01*
X153053588Y-120441323D02*
X157166215Y-120441323D01*
X148272450Y-120127345D02*
X150775758Y-120127345D01*
X148144228Y-120255567D02*
X148272450Y-120127345D01*
X137759283Y-119611683D02*
X140067001Y-119611683D01*
X137000000Y-118852400D02*
X137759283Y-119611683D01*
X152998666Y-120496245D02*
X153053588Y-120441323D01*
X140067001Y-119611683D02*
X140710884Y-120255567D01*
X151144658Y-120496245D02*
X152998666Y-120496245D01*
X140710884Y-120255567D02*
X148144228Y-120255567D01*
X151007937Y-120801056D02*
X153124922Y-120801056D01*
X140584628Y-120560378D02*
X148270484Y-120560378D01*
X136500000Y-117950000D02*
X136500000Y-118852400D01*
X161540000Y-115376200D02*
X161190000Y-115376200D01*
X161768601Y-116270003D02*
X161768601Y-115604801D01*
X137564094Y-119916494D02*
X139940746Y-119916495D01*
X153124922Y-120801056D02*
X153179844Y-120746134D01*
X150639037Y-120432156D02*
X151007937Y-120801056D01*
X148270484Y-120560378D02*
X148398706Y-120432156D01*
X136500000Y-118852400D02*
X137564094Y-119916494D01*
X161768601Y-115604801D02*
X161540000Y-115376200D01*
X148398706Y-120432156D02*
X150639037Y-120432156D01*
X139940746Y-119916495D02*
X140584628Y-120560378D01*
X157292470Y-120746134D02*
X161768601Y-116270003D01*
X153179844Y-120746134D02*
X157292470Y-120746134D01*
X137368905Y-120221305D02*
X139814489Y-120221305D01*
X139814489Y-120221305D02*
X140458372Y-120865189D01*
X136000000Y-118852400D02*
X137368905Y-120221305D01*
X153306100Y-121050945D02*
X157418725Y-121050945D01*
X150807355Y-121105867D02*
X153251178Y-121105867D01*
X150438455Y-120736967D02*
X150807355Y-121105867D01*
X136000000Y-117950000D02*
X136000000Y-118852400D01*
X162073412Y-116396258D02*
X162073412Y-115341838D01*
X153251178Y-121105867D02*
X153306100Y-121050945D01*
X148524962Y-120736967D02*
X150438455Y-120736967D01*
X140458372Y-120865189D02*
X148396740Y-120865189D01*
X157418725Y-121050945D02*
X162073412Y-116396258D01*
X148396740Y-120865189D02*
X148524962Y-120736967D01*
X162073412Y-115341838D02*
X161707774Y-114976200D01*
X161707774Y-114976200D02*
X161190000Y-114976200D01*
X150681099Y-121410678D02*
X153377434Y-121410678D01*
X150312199Y-121041778D02*
X150681099Y-121410678D01*
X139715206Y-120553090D02*
X140332116Y-121170000D01*
X135500000Y-118852400D02*
X137200690Y-120553090D01*
X135500000Y-117950000D02*
X135500000Y-118852400D01*
X140332116Y-121170000D02*
X148522996Y-121170000D01*
X162378223Y-116522513D02*
X162378223Y-115215582D01*
X148522996Y-121170000D02*
X148651218Y-121041778D01*
X162378223Y-115215582D02*
X161738841Y-114576200D01*
X148651218Y-121041778D02*
X150312199Y-121041778D01*
X153432356Y-121355756D02*
X157544980Y-121355756D01*
X137200690Y-120553090D02*
X139715206Y-120553090D01*
X161738841Y-114576200D02*
X161190000Y-114576200D01*
X153377434Y-121410678D02*
X153432356Y-121355756D01*
X157544980Y-121355756D02*
X162378223Y-116522513D01*
X152849322Y-109546502D02*
X152941013Y-109454811D01*
X154990766Y-109454811D02*
X155762861Y-110226906D01*
X155762861Y-110226906D02*
X156105760Y-110569805D01*
X152100678Y-109546502D02*
X152849322Y-109546502D01*
X152008987Y-109454811D02*
X152100678Y-109546502D01*
X151713844Y-109454811D02*
X152008987Y-109454811D01*
X150809033Y-108550000D02*
X151713844Y-109454811D01*
X149400000Y-108550000D02*
X150809033Y-108550000D01*
X152941013Y-109454811D02*
X154990766Y-109454811D01*
X163126313Y-112787302D02*
X163126313Y-111849422D01*
X162495856Y-111081106D02*
X162152957Y-110738207D01*
X162697618Y-111282868D02*
X162495856Y-111081106D01*
X163126313Y-111849422D02*
X162697618Y-111420727D01*
X161190000Y-114200000D02*
X161713615Y-114200000D01*
X161713615Y-114200000D02*
X163126313Y-112787302D01*
X162697618Y-111420727D02*
X162697618Y-111282868D01*
X151012022Y-109759622D02*
X151882731Y-109759622D01*
X151974422Y-109851313D02*
X154073820Y-109851313D01*
X154248838Y-110026331D02*
X154733771Y-110026331D01*
X154073820Y-109851313D02*
X154248838Y-110026331D01*
X150302400Y-109050000D02*
X151012022Y-109759622D01*
X151882731Y-109759622D02*
X151974422Y-109851313D01*
X149400000Y-109050000D02*
X150302400Y-109050000D01*
X161190000Y-113776200D02*
X161706349Y-113776200D01*
X162821502Y-112123459D02*
X162616638Y-111918595D01*
X161706349Y-113776200D02*
X162821502Y-112661047D01*
X162461049Y-111918595D02*
X162118150Y-111575696D01*
X162616638Y-111918595D02*
X162461049Y-111918595D01*
X162821502Y-112661047D02*
X162821502Y-112123459D01*
X151848166Y-110156124D02*
X153337924Y-110156124D01*
X150816833Y-110064433D02*
X151756475Y-110064433D01*
X154727919Y-110597833D02*
X154962739Y-110832653D01*
X153337924Y-110156124D02*
X153779633Y-110597833D01*
X150302400Y-109550000D02*
X150816833Y-110064433D01*
X149400000Y-109550000D02*
X150302400Y-109550000D01*
X151756475Y-110064433D02*
X151848166Y-110156124D01*
X153779633Y-110597833D02*
X154727919Y-110597833D01*
X161602477Y-113400000D02*
X161813615Y-113188862D01*
X161813615Y-112755928D02*
X162156514Y-112413029D01*
X161190000Y-113400000D02*
X161602477Y-113400000D01*
X161813615Y-113188862D02*
X161813615Y-112755928D01*
X156169088Y-120136512D02*
X157039960Y-120136512D01*
X157039960Y-120136512D02*
X159804811Y-117371661D01*
X159804811Y-117371661D02*
X159804811Y-113882789D01*
X153563198Y-115550000D02*
X156169088Y-118155890D01*
X160687600Y-113000000D02*
X161190000Y-113000000D01*
X156169088Y-118155890D02*
X156169088Y-120136512D01*
X159804811Y-113882789D02*
X160687600Y-113000000D01*
X149400000Y-115550000D02*
X153563198Y-115550000D01*
X149400000Y-114050000D02*
X153801989Y-114050000D01*
X153801989Y-114050000D02*
X154085953Y-113766036D01*
X156156017Y-113388673D02*
X155441847Y-113388673D01*
X158110000Y-112176200D02*
X157368490Y-112176200D01*
X155441847Y-113388673D02*
X155236520Y-113183346D01*
X157368490Y-112176200D02*
X156156017Y-113388673D01*
X151423902Y-113671502D02*
X150302400Y-112550000D01*
X152551289Y-113194535D02*
X152074322Y-113671502D01*
X154360274Y-113194535D02*
X152551289Y-113194535D01*
X157403398Y-112576200D02*
X156286114Y-113693484D01*
X150302400Y-112550000D02*
X149400000Y-112550000D01*
X158110000Y-112576200D02*
X157403398Y-112576200D01*
X155494191Y-113693484D02*
X155293580Y-113894095D01*
X155293580Y-113894095D02*
X155059834Y-113894095D01*
X155059834Y-113894095D02*
X154360274Y-113194535D01*
X152074322Y-113671502D02*
X151423902Y-113671502D01*
X156286114Y-113693484D02*
X155494191Y-113693484D01*
X149400000Y-115050000D02*
X154444569Y-115050000D01*
X154444569Y-115050000D02*
X154690742Y-114803827D01*
X156145680Y-114264986D02*
X155768513Y-114264986D01*
X157434466Y-112976200D02*
X156145680Y-114264986D01*
X158110000Y-112976200D02*
X157434466Y-112976200D01*
X150302400Y-114550000D02*
X149400000Y-114550000D01*
X154054177Y-114550000D02*
X150302400Y-114550000D01*
X154495245Y-114202566D02*
X154360274Y-114337537D01*
X154266640Y-114337537D02*
X154054177Y-114550000D01*
X154950254Y-114202566D02*
X154495245Y-114202566D01*
X155247434Y-114674553D02*
X155247434Y-114499746D01*
X155799307Y-115042427D02*
X155615308Y-115042427D01*
X158110000Y-113376200D02*
X157465534Y-113376200D01*
X155615308Y-115042427D02*
X155247434Y-114674553D01*
X154360274Y-114337537D02*
X154266640Y-114337537D01*
X157465534Y-113376200D02*
X155799307Y-115042427D01*
X155247434Y-114499746D02*
X154950254Y-114202566D01*
X150334178Y-105550000D02*
X151944777Y-107160599D01*
X149400000Y-105550000D02*
X150334178Y-105550000D01*
X151944777Y-107160599D02*
X153465784Y-107160599D01*
X153465784Y-107160599D02*
X153687488Y-107382303D01*
X155568533Y-115556054D02*
X155083600Y-115556054D01*
X155692818Y-115431769D02*
X155568533Y-115556054D01*
X155811863Y-115431769D02*
X155692818Y-115431769D01*
X156006107Y-115266694D02*
X155811863Y-115431769D01*
X157496601Y-113776200D02*
X156006107Y-115266694D01*
X158110000Y-113776200D02*
X157496601Y-113776200D01*
X152021435Y-106246180D02*
X152364334Y-106589079D01*
X149400000Y-105050000D02*
X150585940Y-105050000D01*
X150585940Y-105050000D02*
X151782120Y-106246180D01*
X151782120Y-106246180D02*
X152021435Y-106246180D01*
X155581693Y-116036874D02*
X155238794Y-116379773D01*
X155881987Y-115736580D02*
X155581693Y-116036874D01*
X155923887Y-115736580D02*
X155881987Y-115736580D01*
X158110000Y-114176200D02*
X157527667Y-114176200D01*
X156212897Y-115490970D02*
X155923887Y-115736580D01*
X157527667Y-114176200D02*
X156212897Y-115490970D01*
X151054176Y-111050000D02*
X151431179Y-111427003D01*
X152278221Y-111427003D02*
X152358616Y-111507398D01*
X149400000Y-111050000D02*
X151054176Y-111050000D01*
X151431179Y-111427003D02*
X152278221Y-111427003D01*
X157558734Y-114576200D02*
X156121678Y-116013256D01*
X158110000Y-114576200D02*
X157558734Y-114576200D01*
X156121678Y-116013256D02*
X156121678Y-116305139D01*
X151400000Y-110550000D02*
X151500000Y-110650000D01*
X149400000Y-110550000D02*
X151400000Y-110550000D01*
X158110000Y-114976200D02*
X157589801Y-114976200D01*
X156693198Y-115872803D02*
X156693198Y-116647816D01*
X156693198Y-116647816D02*
X156850162Y-116804780D01*
X157589801Y-114976200D02*
X156693198Y-115872803D01*
X137500000Y-116303786D02*
X138383120Y-115420666D01*
X137500000Y-117950000D02*
X137500000Y-116303786D01*
X138383120Y-115420666D02*
X138726019Y-115077767D01*
X158110000Y-115376200D02*
X157760000Y-115376200D01*
X157760000Y-115376200D02*
X157298385Y-115837815D01*
X157298385Y-115837815D02*
X157298385Y-116096476D01*
X139115199Y-115932401D02*
X139580652Y-115932401D01*
X138000000Y-117950000D02*
X138000000Y-117047600D01*
X138000000Y-117047600D02*
X139115199Y-115932401D01*
X158255301Y-115800000D02*
X158239348Y-115800000D01*
X158170500Y-115868848D02*
X158170500Y-116353781D01*
X158239348Y-115800000D02*
X158170500Y-115868848D01*
X155808022Y-112909025D02*
X155510842Y-112611845D01*
X158110000Y-111776200D02*
X157321518Y-111776200D01*
X156188693Y-112909025D02*
X155808022Y-112909025D01*
X157321518Y-111776200D02*
X156188693Y-112909025D01*
X152142899Y-112757101D02*
X151800000Y-113100000D01*
X152962127Y-112611845D02*
X152885450Y-112688522D01*
X152211478Y-112688522D02*
X152142899Y-112757101D01*
X155510842Y-112611845D02*
X152962127Y-112611845D01*
X152885450Y-112688522D02*
X152211478Y-112688522D01*
X137988623Y-109334812D02*
X137988623Y-108849879D01*
X137988623Y-109838623D02*
X137988623Y-109334812D01*
X141400000Y-113250000D02*
X137988623Y-109838623D01*
X133600000Y-104050000D02*
X133600000Y-103350000D01*
X153009059Y-111070543D02*
X152666160Y-110727644D01*
X154216302Y-111214007D02*
X153152523Y-111214007D01*
X153152523Y-111214007D02*
X153009059Y-111070543D01*
X156326184Y-111933139D02*
X155983285Y-112276038D01*
X158110000Y-111376200D02*
X157007322Y-111376200D01*
X157007322Y-111376200D02*
X156450383Y-111933139D01*
X156450383Y-111933139D02*
X156326184Y-111933139D01*
X157070000Y-101080000D02*
X157390000Y-101400000D01*
X157390000Y-101400000D02*
X158110000Y-101400000D01*
X142227299Y-112127299D02*
X142757101Y-112657101D01*
X135644433Y-103164830D02*
X135644433Y-103196833D01*
X135644433Y-103196833D02*
X142227299Y-109779699D01*
X135500000Y-103020397D02*
X135644433Y-103164830D01*
X142757101Y-112657101D02*
X143100000Y-113000000D01*
X135500000Y-102150000D02*
X135500000Y-103020397D01*
X142227299Y-109779699D02*
X142227299Y-112127299D01*
X152759194Y-112383711D02*
X151925657Y-112383711D01*
X155705182Y-111446118D02*
X154845092Y-112306208D01*
X151848154Y-112306208D02*
X151363221Y-112306208D01*
X152836697Y-112306208D02*
X152759194Y-112383711D01*
X156506338Y-111446118D02*
X155705182Y-111446118D01*
X156976256Y-110976200D02*
X156506338Y-111446118D01*
X158110000Y-110976200D02*
X156976256Y-110976200D01*
X151925657Y-112383711D02*
X151848154Y-112306208D01*
X154845092Y-112306208D02*
X152836697Y-112306208D01*
X136150577Y-115126312D02*
X136226889Y-115050000D01*
X134578712Y-115126312D02*
X136150577Y-115126312D01*
X134502400Y-115050000D02*
X134578712Y-115126312D01*
X133600000Y-115050000D02*
X134502400Y-115050000D01*
X139151865Y-114677791D02*
X143182176Y-114677791D01*
X138980339Y-114506265D02*
X139151865Y-114677791D01*
X143182176Y-114677791D02*
X143667109Y-114677791D01*
X137907962Y-115050000D02*
X138451697Y-114506265D01*
X138451697Y-114506265D02*
X138980339Y-114506265D01*
X136226889Y-115050000D02*
X137907962Y-115050000D01*
X152632938Y-112078900D02*
X152084294Y-112078900D01*
X152084294Y-112078900D02*
X151740100Y-111734706D01*
X150741644Y-111734706D02*
X150639823Y-111836527D01*
X152710441Y-112001397D02*
X152632938Y-112078900D01*
X154687319Y-112001397D02*
X152710441Y-112001397D01*
X158110000Y-110576200D02*
X156945189Y-110576200D01*
X156945189Y-110576200D02*
X156380082Y-111141307D01*
X151740100Y-111734706D02*
X150741644Y-111734706D01*
X156380082Y-111141307D02*
X155547409Y-111141307D01*
X155547409Y-111141307D02*
X154687319Y-112001397D01*
X159300000Y-103581066D02*
X159300000Y-101687600D01*
X159300000Y-101687600D02*
X158612400Y-101000000D01*
X158612400Y-101000000D02*
X158110000Y-101000000D01*
X158612400Y-110600000D02*
X158110000Y-110600000D01*
X159650000Y-103931066D02*
X159650000Y-109562400D01*
X159650000Y-109562400D02*
X158612400Y-110600000D01*
X159300000Y-103581066D02*
X159650000Y-103931066D01*
X142622251Y-114054025D02*
X143107184Y-114054025D01*
X138472870Y-114054025D02*
X142622251Y-114054025D01*
X135004176Y-114550000D02*
X135275677Y-114821501D01*
X136024321Y-114821501D02*
X136146427Y-114699395D01*
X135275677Y-114821501D02*
X136024321Y-114821501D01*
X136146427Y-114699395D02*
X137827500Y-114699395D01*
X133600000Y-114550000D02*
X135004176Y-114550000D01*
X137827500Y-114699395D02*
X138472870Y-114054025D01*
X144543421Y-110500000D02*
X144406962Y-110363541D01*
X144406962Y-110363541D02*
X144370158Y-110363541D01*
X145942718Y-104813104D02*
X145942718Y-103738211D01*
X143575521Y-109532100D02*
X143575521Y-107180301D01*
X144543421Y-110500000D02*
X143575521Y-109532100D01*
X145942718Y-103738211D02*
X145599819Y-103395312D01*
X143575521Y-107180301D02*
X145942718Y-104813104D01*
X155347688Y-102801273D02*
X154991864Y-102801273D01*
X156770215Y-104223800D02*
X155347688Y-102801273D01*
X158110000Y-104223800D02*
X156770215Y-104223800D01*
X144543421Y-117004179D02*
X144543421Y-110500000D01*
X144500000Y-117047600D02*
X144543421Y-117004179D01*
X144500000Y-117950000D02*
X144500000Y-117047600D01*
X143270710Y-106499290D02*
X143757101Y-106012899D01*
X143270710Y-111203950D02*
X143270710Y-106499290D01*
X143466760Y-111400000D02*
X143270710Y-111203950D01*
X143757101Y-106012899D02*
X144100000Y-105670000D01*
X158110000Y-104623800D02*
X156731445Y-104623800D01*
X156731445Y-104623800D02*
X155713125Y-103605480D01*
X155713125Y-103605480D02*
X155228192Y-103605480D01*
X143141699Y-111442499D02*
X142798800Y-111099600D01*
X143424261Y-111442499D02*
X143141699Y-111442499D01*
X143466760Y-111400000D02*
X143424261Y-111442499D01*
X143466760Y-111555340D02*
X143466760Y-111400000D01*
X144028621Y-112117201D02*
X143466760Y-111555340D01*
X144028621Y-114193481D02*
X144028621Y-112117201D01*
X144000000Y-117950000D02*
X144000000Y-115191034D01*
X144238610Y-114403470D02*
X144028621Y-114193481D01*
X144238610Y-114952424D02*
X144238610Y-114403470D01*
X144000000Y-115191034D02*
X144238610Y-114952424D01*
X141139194Y-104466372D02*
X140694985Y-104910581D01*
X141139194Y-103715783D02*
X141139194Y-104466372D01*
X140500000Y-103076589D02*
X141139194Y-103715783D01*
X140500000Y-102150000D02*
X140500000Y-103076589D01*
X140694985Y-104910581D02*
X140352086Y-105253480D01*
X154201016Y-108592917D02*
X153245375Y-108592917D01*
X156800000Y-107000000D02*
X155793933Y-107000000D01*
X153032269Y-108379811D02*
X152689370Y-108036912D01*
X155793933Y-107000000D02*
X154201016Y-108592917D01*
X153245375Y-108592917D02*
X153032269Y-108379811D01*
X156800000Y-106671750D02*
X156935875Y-106535875D01*
X156800000Y-107000000D02*
X156800000Y-106671750D01*
X156921501Y-106878499D02*
X156800000Y-107000000D01*
X157474321Y-106878499D02*
X156921501Y-106878499D01*
X157595822Y-107000000D02*
X157474321Y-106878499D01*
X158110000Y-107000000D02*
X157595822Y-107000000D01*
X158110000Y-107023800D02*
X158109993Y-107023793D01*
X151098674Y-107978160D02*
X151476488Y-107978160D01*
X150595477Y-107474963D02*
X151098674Y-107978160D01*
X150302400Y-106550000D02*
X150595477Y-106843077D01*
X149400000Y-106550000D02*
X150302400Y-106550000D01*
X150595477Y-106843077D02*
X150595477Y-107474963D01*
X158110000Y-100200000D02*
X157607600Y-100200000D01*
X157607600Y-100200000D02*
X157333475Y-99925875D01*
X157333475Y-99925875D02*
X156984125Y-99925875D01*
X158255301Y-100200000D02*
X157904176Y-100200000D01*
X149400000Y-106050000D02*
X150302400Y-106050000D01*
X150302400Y-106050000D02*
X151166989Y-106914589D01*
X151166989Y-106914589D02*
X151166989Y-107199180D01*
X157607600Y-100600000D02*
X158110000Y-100600000D01*
X156748499Y-100498499D02*
X157424321Y-100498499D01*
X156030000Y-99780000D02*
X156748499Y-100498499D01*
X157424321Y-100498499D02*
X157525822Y-100600000D01*
X157525822Y-100600000D02*
X157607600Y-100600000D01*
X152847600Y-98000000D02*
X153450000Y-98000000D01*
X151402411Y-99445189D02*
X152847600Y-98000000D01*
X146728310Y-100088223D02*
X147360393Y-100088223D01*
X147360393Y-100088223D02*
X148003427Y-99445189D01*
X146078312Y-100738221D02*
X146728310Y-100088223D01*
X144500000Y-101247600D02*
X145009379Y-100738221D01*
X145009379Y-100738221D02*
X146078312Y-100738221D01*
X144500000Y-102150000D02*
X144500000Y-101247600D01*
X148003427Y-99445189D02*
X151402411Y-99445189D01*
X146602054Y-99783412D02*
X147234137Y-99783412D01*
X150647600Y-98000000D02*
X151250000Y-98000000D01*
X149507222Y-99140378D02*
X150647600Y-98000000D01*
X147877171Y-99140378D02*
X149507222Y-99140378D01*
X147234137Y-99783412D02*
X147877171Y-99140378D01*
X144000000Y-102150000D02*
X144000000Y-101247600D01*
X144814190Y-100433410D02*
X145952056Y-100433410D01*
X144000000Y-101247600D02*
X144814190Y-100433410D01*
X145952056Y-100433410D02*
X146602054Y-99783412D01*
X149050000Y-98150000D02*
X149050000Y-98000000D01*
X148447600Y-98752400D02*
X149050000Y-98150000D01*
X147834082Y-98752400D02*
X148447600Y-98752400D01*
X147107881Y-99478601D02*
X147834082Y-98752400D01*
X144702465Y-100128601D02*
X145825798Y-100128601D01*
X146475798Y-99478601D02*
X147107881Y-99478601D01*
X144602791Y-100144809D02*
X144686257Y-100144809D01*
X145825798Y-100128601D02*
X146475798Y-99478601D01*
X143500000Y-102150000D02*
X143500000Y-101247600D01*
X144686257Y-100144809D02*
X144702465Y-100128601D01*
X143500000Y-101247600D02*
X144602791Y-100144809D01*
X159127101Y-123452899D02*
X159470000Y-123110000D01*
X150275000Y-123848805D02*
X158731195Y-123848805D01*
X158731195Y-123848805D02*
X159127101Y-123452899D01*
X141000000Y-103052400D02*
X141492259Y-103544659D01*
X141000000Y-102150000D02*
X141000000Y-103052400D01*
X141492259Y-103544659D02*
X142059726Y-103544659D01*
X142059726Y-103544659D02*
X142544659Y-103544659D01*
X160000000Y-111100000D02*
X160342899Y-110757101D01*
X160342899Y-110757101D02*
X160342899Y-110544701D01*
X160342899Y-110544701D02*
X160687600Y-110200000D01*
X160687600Y-110200000D02*
X161190000Y-110200000D01*
X153925000Y-125000000D02*
X154850000Y-125000000D01*
X154850000Y-125000000D02*
X155602400Y-125000000D01*
X155602400Y-125000000D02*
X156675000Y-125000000D01*
X155597587Y-119587587D02*
X155597587Y-119869803D01*
X152540000Y-116530000D02*
X155597587Y-119587587D01*
X148040000Y-114000000D02*
X148040000Y-107456452D01*
X148040000Y-107456452D02*
X148096331Y-107400121D01*
X161190000Y-109800000D02*
X160404178Y-109800000D01*
X159428499Y-110775679D02*
X159428499Y-116877101D01*
X157083507Y-119222093D02*
X156740608Y-119564992D01*
X159428499Y-116877101D02*
X157083507Y-119222093D01*
X160404178Y-109800000D02*
X159428499Y-110775679D01*
X148446452Y-107050000D02*
X148439230Y-107057222D01*
X149400000Y-107050000D02*
X148446452Y-107050000D01*
X148439230Y-107057222D02*
X148096331Y-107400121D01*
X152117868Y-108236308D02*
X152117868Y-107762590D01*
X150984897Y-108295450D02*
X150985550Y-108295450D01*
X156798843Y-103800000D02*
X158110000Y-103800000D01*
X152415048Y-107465410D02*
X152946516Y-107465410D01*
X152946516Y-107465410D02*
X153751495Y-108270389D01*
X151792035Y-108562141D02*
X152117868Y-108236308D01*
X154259008Y-107995268D02*
X154259008Y-102111081D01*
X154259008Y-102111081D02*
X155109924Y-102111081D01*
X150239447Y-107550000D02*
X150984897Y-108295450D01*
X153751495Y-108270389D02*
X153983887Y-108270389D01*
X151252241Y-108562141D02*
X151792035Y-108562141D01*
X152117868Y-107762590D02*
X152415048Y-107465410D01*
X153983887Y-108270389D02*
X154259008Y-107995268D01*
X149400000Y-107550000D02*
X150239447Y-107550000D01*
X155109924Y-102111081D02*
X156798843Y-103800000D01*
X150985550Y-108295450D02*
X151252241Y-108562141D01*
X149400000Y-107550000D02*
X148663894Y-107550000D01*
X148962855Y-101048499D02*
X148105680Y-101048499D01*
X148105680Y-101048499D02*
X147500000Y-101654178D01*
X155079910Y-101650000D02*
X149564356Y-101650000D01*
X158110000Y-103400000D02*
X156829910Y-103400000D01*
X156829910Y-103400000D02*
X155079910Y-101650000D01*
X149564356Y-101650000D02*
X148962855Y-101048499D01*
X147500000Y-101654178D02*
X147500000Y-102150000D01*
X158110000Y-103000000D02*
X156860977Y-103000000D01*
X156860977Y-103000000D02*
X155206166Y-101345189D01*
X147189754Y-101057846D02*
X147000000Y-101247600D01*
X148061918Y-100661193D02*
X147665266Y-101057846D01*
X147000000Y-101247600D02*
X147000000Y-102150000D01*
X149690612Y-101345189D02*
X149006616Y-100661193D01*
X149006616Y-100661193D02*
X148061918Y-100661193D01*
X147665266Y-101057846D02*
X147189754Y-101057846D01*
X155206166Y-101345189D02*
X149690612Y-101345189D01*
X158110000Y-102600000D02*
X156892044Y-102600000D01*
X155332422Y-101040378D02*
X149816868Y-101040378D01*
X149132872Y-100356382D02*
X147935663Y-100356382D01*
X146500000Y-101247600D02*
X146500000Y-102150000D01*
X156892044Y-102600000D02*
X155332422Y-101040378D01*
X147539010Y-100753035D02*
X146994565Y-100753035D01*
X147935663Y-100356382D02*
X147539010Y-100753035D01*
X149816868Y-101040378D02*
X149132872Y-100356382D01*
X146994565Y-100753035D02*
X146500000Y-101247600D01*
X146000000Y-109118400D02*
X146000000Y-109471691D01*
X146000000Y-109471691D02*
X146071520Y-109543211D01*
X147220000Y-107898400D02*
X147220000Y-103778934D01*
X147220000Y-103778934D02*
X148138480Y-102860454D01*
X146000000Y-109118400D02*
X147220000Y-107898400D01*
X148138480Y-102860454D02*
X148138480Y-102624464D01*
X155318225Y-100164047D02*
X153660449Y-100164047D01*
X153660449Y-100164047D02*
X153175516Y-100164047D01*
X156954178Y-101800000D02*
X155318225Y-100164047D01*
X158110000Y-101800000D02*
X156954178Y-101800000D01*
X146000000Y-111014976D02*
X146000000Y-109118400D01*
X145884898Y-111130078D02*
X146000000Y-111014976D01*
X146000000Y-111793824D02*
X145884898Y-111678722D01*
X146000000Y-117950000D02*
X146000000Y-111793824D01*
X145884898Y-111678722D02*
X145884898Y-111130078D01*
X151200000Y-125050000D02*
X149250000Y-125050000D01*
X149250000Y-125050000D02*
X149150000Y-124950000D01*
X151200000Y-125050000D02*
X152600000Y-125050000D01*
X152600000Y-125050000D02*
X152650000Y-125000000D01*
X137317600Y-95160000D02*
X138070000Y-95160000D01*
X136846099Y-94688499D02*
X137317600Y-95160000D01*
X134311501Y-94688499D02*
X136846099Y-94688499D01*
X134015854Y-94984146D02*
X134311501Y-94688499D01*
X134015854Y-95738454D02*
X134015854Y-94984146D01*
X134080000Y-96380000D02*
X134080000Y-95802600D01*
X134080000Y-95802600D02*
X134015854Y-95738454D01*
X134580000Y-95367637D02*
X134587355Y-95360282D01*
X134580000Y-96380000D02*
X134580000Y-95367637D01*
X133600000Y-106550000D02*
X132350000Y-106550000D01*
X132350000Y-106550000D02*
X132120000Y-106320000D01*
X132190000Y-96250000D02*
X132190000Y-95990000D01*
X132190000Y-95990000D02*
X132560000Y-95620000D01*
X132560000Y-95620000D02*
X132990000Y-95620000D01*
X132990000Y-95620000D02*
X133080000Y-95710000D01*
X133080000Y-95710000D02*
X133080000Y-96380000D01*
X133600000Y-108550000D02*
X132590000Y-108550000D01*
X132590000Y-108550000D02*
X132250000Y-108210000D01*
X135470000Y-95260000D02*
X135080000Y-95650000D01*
X135080000Y-95650000D02*
X135080000Y-96380000D01*
X134110000Y-101480000D02*
X134120000Y-101470000D01*
X134110000Y-103082134D02*
X134110000Y-101480000D01*
X134578601Y-105473799D02*
X134730000Y-105322400D01*
X134730000Y-105322400D02*
X134730000Y-103722134D01*
X134578601Y-105473799D02*
X133600000Y-105550000D01*
X133600000Y-105550000D02*
X134502400Y-105550000D01*
X134502400Y-105550000D02*
X134578601Y-105473799D01*
X134300378Y-103272512D02*
X134110000Y-103082134D01*
X134300378Y-103292512D02*
X134300378Y-103272512D01*
X134730000Y-103722134D02*
X134300378Y-103292512D01*
X134691502Y-101117431D02*
X135080000Y-100728933D01*
X135034811Y-103595877D02*
X134691502Y-103252568D01*
X135034811Y-105517589D02*
X135034811Y-103595877D01*
X135080000Y-100728933D02*
X135080000Y-100280000D01*
X134691502Y-103252568D02*
X134691502Y-101117431D01*
X133600000Y-106050000D02*
X134502400Y-106050000D01*
X134502400Y-106050000D02*
X135034811Y-105517589D01*
X135580000Y-100857400D02*
X135580000Y-100280000D01*
X135180000Y-101060000D02*
X135377400Y-101060000D01*
X134996313Y-101243687D02*
X135180000Y-101060000D01*
X134996313Y-103126312D02*
X134996313Y-101243687D01*
X135339622Y-103469621D02*
X134996313Y-103126312D01*
X133600000Y-107050000D02*
X134502400Y-107050000D01*
X134502400Y-107050000D02*
X135339622Y-106212778D01*
X135377400Y-101060000D02*
X135580000Y-100857400D01*
X135339622Y-106212778D02*
X135339622Y-103469621D01*
X142000000Y-100730000D02*
X142750000Y-100730000D01*
X142750000Y-100730000D02*
X143920000Y-99560000D01*
X143920000Y-99560000D02*
X143920000Y-98710000D01*
X142000000Y-102150000D02*
X142000000Y-100730000D01*
X141500000Y-102150000D02*
X141500000Y-98730000D01*
X141500000Y-98730000D02*
X141520000Y-98710000D01*
X132980000Y-101910000D02*
X132980000Y-101580000D01*
X132980000Y-101580000D02*
X133580000Y-100980000D01*
X133580000Y-100980000D02*
X133580000Y-100280000D01*
X147524811Y-110078989D02*
X147721502Y-110275680D01*
X147721501Y-111174321D02*
X147523200Y-111372622D01*
X147721502Y-110275680D02*
X147721501Y-111174321D01*
X148709981Y-103080019D02*
X147524811Y-104265189D01*
X148709981Y-102085817D02*
X148709981Y-103080019D01*
X148722899Y-101962899D02*
X148722899Y-102072899D01*
X147524811Y-104265189D02*
X147524811Y-110078989D01*
X148380000Y-101620000D02*
X148722899Y-101962899D01*
X148722899Y-102072899D02*
X148709981Y-102085817D01*
X150432899Y-100732899D02*
X150090000Y-100390000D01*
X150435567Y-100735567D02*
X150432899Y-100732899D01*
X158110000Y-102200000D02*
X156923111Y-102200000D01*
X155458678Y-100735567D02*
X150435567Y-100735567D01*
X156923111Y-102200000D02*
X155458678Y-100735567D01*
X147468498Y-111427324D02*
X147523200Y-111372622D01*
X147523200Y-111372622D02*
X146488178Y-111372622D01*
X146488178Y-111372622D02*
X146456400Y-111404400D01*
X147468498Y-115020898D02*
X147468498Y-111427324D01*
X148497600Y-116050000D02*
X147468498Y-115020898D01*
X149400000Y-116050000D02*
X148497600Y-116050000D01*
X141579600Y-110794800D02*
X141579600Y-110642400D01*
X141579600Y-110642400D02*
X140665200Y-109728000D01*
X138525000Y-104275000D02*
X138525000Y-103426482D01*
X139000000Y-102951482D02*
X139000000Y-102150000D01*
X138525000Y-103426482D02*
X139000000Y-102951482D01*
X140075000Y-105825000D02*
X138525000Y-104275000D01*
X142190067Y-105825000D02*
X140075000Y-105825000D01*
X142825000Y-105975000D02*
X142340067Y-105975000D01*
X142340067Y-105975000D02*
X142190067Y-105825000D01*
X155325000Y-109150000D02*
X152550000Y-109150000D01*
X152550000Y-109150000D02*
X152375000Y-108975000D01*
X156175000Y-110000000D02*
X155325000Y-109150000D01*
X157100000Y-110000000D02*
X156175000Y-110000000D01*
X145195201Y-109182153D02*
X145195201Y-116953317D01*
X145007148Y-108994100D02*
X145195201Y-109182153D01*
X145195201Y-116953317D02*
X145131399Y-117017119D01*
X144600000Y-108994100D02*
X145007148Y-108994100D01*
X145131399Y-117017119D02*
X145131399Y-117818601D01*
X145131399Y-117818601D02*
X145000000Y-117950000D01*
X141250000Y-93200000D02*
X141250000Y-93802400D01*
X141250000Y-93802400D02*
X142897600Y-95450000D01*
X142897600Y-95450000D02*
X142925000Y-95450000D01*
X145500000Y-109055900D02*
X145500000Y-117754800D01*
X145500000Y-117754800D02*
X145500000Y-117950000D01*
X144600000Y-108155900D02*
X145500000Y-109055900D01*
D34*
G36*
X137200690Y-121256290D02*
X138056658Y-121256290D01*
X138025987Y-121276784D01*
X137702865Y-121760369D01*
X137589400Y-122330797D01*
X137589400Y-122389203D01*
X137702865Y-122959631D01*
X138025987Y-123443216D01*
X138297228Y-123624454D01*
X137873179Y-124011510D01*
X137625032Y-124540973D01*
X137745531Y-124773000D01*
X138953000Y-124773000D01*
X138953000Y-124753000D01*
X139207000Y-124753000D01*
X139207000Y-124773000D01*
X141493000Y-124773000D01*
X141493000Y-124753000D01*
X141747000Y-124753000D01*
X141747000Y-124773000D01*
X144033000Y-124773000D01*
X144033000Y-124753000D01*
X144287000Y-124753000D01*
X144287000Y-124773000D01*
X146573000Y-124773000D01*
X146573000Y-124753000D01*
X146827000Y-124753000D01*
X146827000Y-124773000D01*
X146847000Y-124773000D01*
X146847000Y-125027000D01*
X146827000Y-125027000D01*
X146827000Y-125047000D01*
X146573000Y-125047000D01*
X146573000Y-125027000D01*
X144287000Y-125027000D01*
X144287000Y-125047000D01*
X144033000Y-125047000D01*
X144033000Y-125027000D01*
X141747000Y-125027000D01*
X141747000Y-125047000D01*
X141493000Y-125047000D01*
X141493000Y-125027000D01*
X139207000Y-125027000D01*
X139207000Y-125047000D01*
X138953000Y-125047000D01*
X138953000Y-125027000D01*
X137745531Y-125027000D01*
X137625032Y-125259027D01*
X137643298Y-125298000D01*
X133363315Y-125298000D01*
X133953274Y-125054234D01*
X134552131Y-124456422D01*
X134876630Y-123674943D01*
X134877368Y-122828770D01*
X134554234Y-122046726D01*
X134433023Y-121925303D01*
X134437303Y-121921229D01*
X134438769Y-121919148D01*
X134440907Y-121917771D01*
X134451962Y-121907081D01*
X134452796Y-121905877D01*
X134454023Y-121905079D01*
X134467710Y-121891723D01*
X134468264Y-121890915D01*
X134469083Y-121890379D01*
X134485157Y-121874598D01*
X134485561Y-121874005D01*
X134486163Y-121873609D01*
X134504376Y-121855647D01*
X134504708Y-121855158D01*
X134505204Y-121854830D01*
X134525310Y-121834928D01*
X134525577Y-121834533D01*
X134525974Y-121834270D01*
X134547728Y-121812675D01*
X134547983Y-121812296D01*
X134548362Y-121812044D01*
X134571515Y-121788993D01*
X134571737Y-121788663D01*
X134572071Y-121788440D01*
X134596379Y-121764180D01*
X134596606Y-121763840D01*
X134596945Y-121763614D01*
X134622159Y-121738386D01*
X134622311Y-121738159D01*
X134622539Y-121738006D01*
X134636254Y-121724260D01*
X134636440Y-121723980D01*
X134636718Y-121723794D01*
X134669156Y-121691215D01*
X134669473Y-121690738D01*
X134669948Y-121690418D01*
X134698841Y-121661296D01*
X134699252Y-121660675D01*
X134699871Y-121660256D01*
X134725256Y-121634550D01*
X134725791Y-121633738D01*
X134726598Y-121633188D01*
X134748517Y-121610858D01*
X134749247Y-121609744D01*
X134750341Y-121608991D01*
X134768832Y-121589997D01*
X134769877Y-121588387D01*
X134771453Y-121587289D01*
X134786554Y-121571591D01*
X134788147Y-121569104D01*
X134790554Y-121567394D01*
X134802305Y-121554952D01*
X134805044Y-121550589D01*
X134809196Y-121547538D01*
X134817637Y-121538310D01*
X134823302Y-121528955D01*
X134831889Y-121522184D01*
X134837057Y-121516132D01*
X134855971Y-121482352D01*
X134883243Y-121454875D01*
X134885177Y-121451957D01*
X134891982Y-121435353D01*
X134903891Y-121421929D01*
X134913584Y-121393902D01*
X134944019Y-121467560D01*
X135260772Y-121784867D01*
X135674842Y-121956804D01*
X136123191Y-121957195D01*
X136537560Y-121785981D01*
X136854867Y-121469228D01*
X136962925Y-121208996D01*
X137200690Y-121256290D01*
X137200690Y-121256290D01*
G37*
X137200690Y-121256290D02*
X138056658Y-121256290D01*
X138025987Y-121276784D01*
X137702865Y-121760369D01*
X137589400Y-122330797D01*
X137589400Y-122389203D01*
X137702865Y-122959631D01*
X138025987Y-123443216D01*
X138297228Y-123624454D01*
X137873179Y-124011510D01*
X137625032Y-124540973D01*
X137745531Y-124773000D01*
X138953000Y-124773000D01*
X138953000Y-124753000D01*
X139207000Y-124753000D01*
X139207000Y-124773000D01*
X141493000Y-124773000D01*
X141493000Y-124753000D01*
X141747000Y-124753000D01*
X141747000Y-124773000D01*
X144033000Y-124773000D01*
X144033000Y-124753000D01*
X144287000Y-124753000D01*
X144287000Y-124773000D01*
X146573000Y-124773000D01*
X146573000Y-124753000D01*
X146827000Y-124753000D01*
X146827000Y-124773000D01*
X146847000Y-124773000D01*
X146847000Y-125027000D01*
X146827000Y-125027000D01*
X146827000Y-125047000D01*
X146573000Y-125047000D01*
X146573000Y-125027000D01*
X144287000Y-125027000D01*
X144287000Y-125047000D01*
X144033000Y-125047000D01*
X144033000Y-125027000D01*
X141747000Y-125027000D01*
X141747000Y-125047000D01*
X141493000Y-125047000D01*
X141493000Y-125027000D01*
X139207000Y-125027000D01*
X139207000Y-125047000D01*
X138953000Y-125047000D01*
X138953000Y-125027000D01*
X137745531Y-125027000D01*
X137625032Y-125259027D01*
X137643298Y-125298000D01*
X133363315Y-125298000D01*
X133953274Y-125054234D01*
X134552131Y-124456422D01*
X134876630Y-123674943D01*
X134877368Y-122828770D01*
X134554234Y-122046726D01*
X134433023Y-121925303D01*
X134437303Y-121921229D01*
X134438769Y-121919148D01*
X134440907Y-121917771D01*
X134451962Y-121907081D01*
X134452796Y-121905877D01*
X134454023Y-121905079D01*
X134467710Y-121891723D01*
X134468264Y-121890915D01*
X134469083Y-121890379D01*
X134485157Y-121874598D01*
X134485561Y-121874005D01*
X134486163Y-121873609D01*
X134504376Y-121855647D01*
X134504708Y-121855158D01*
X134505204Y-121854830D01*
X134525310Y-121834928D01*
X134525577Y-121834533D01*
X134525974Y-121834270D01*
X134547728Y-121812675D01*
X134547983Y-121812296D01*
X134548362Y-121812044D01*
X134571515Y-121788993D01*
X134571737Y-121788663D01*
X134572071Y-121788440D01*
X134596379Y-121764180D01*
X134596606Y-121763840D01*
X134596945Y-121763614D01*
X134622159Y-121738386D01*
X134622311Y-121738159D01*
X134622539Y-121738006D01*
X134636254Y-121724260D01*
X134636440Y-121723980D01*
X134636718Y-121723794D01*
X134669156Y-121691215D01*
X134669473Y-121690738D01*
X134669948Y-121690418D01*
X134698841Y-121661296D01*
X134699252Y-121660675D01*
X134699871Y-121660256D01*
X134725256Y-121634550D01*
X134725791Y-121633738D01*
X134726598Y-121633188D01*
X134748517Y-121610858D01*
X134749247Y-121609744D01*
X134750341Y-121608991D01*
X134768832Y-121589997D01*
X134769877Y-121588387D01*
X134771453Y-121587289D01*
X134786554Y-121571591D01*
X134788147Y-121569104D01*
X134790554Y-121567394D01*
X134802305Y-121554952D01*
X134805044Y-121550589D01*
X134809196Y-121547538D01*
X134817637Y-121538310D01*
X134823302Y-121528955D01*
X134831889Y-121522184D01*
X134837057Y-121516132D01*
X134855971Y-121482352D01*
X134883243Y-121454875D01*
X134885177Y-121451957D01*
X134891982Y-121435353D01*
X134903891Y-121421929D01*
X134913584Y-121393902D01*
X134944019Y-121467560D01*
X135260772Y-121784867D01*
X135674842Y-121956804D01*
X136123191Y-121957195D01*
X136537560Y-121785981D01*
X136854867Y-121469228D01*
X136962925Y-121208996D01*
X137200690Y-121256290D01*
G36*
X158702000Y-124873000D02*
X158722000Y-124873000D01*
X158722000Y-125127000D01*
X158702000Y-125127000D01*
X158702000Y-125147000D01*
X158448000Y-125147000D01*
X158448000Y-125127000D01*
X158428000Y-125127000D01*
X158428000Y-124873000D01*
X158448000Y-124873000D01*
X158448000Y-124853000D01*
X158702000Y-124853000D01*
X158702000Y-124873000D01*
X158702000Y-124873000D01*
G37*
X158702000Y-124873000D02*
X158722000Y-124873000D01*
X158722000Y-125127000D01*
X158702000Y-125127000D01*
X158702000Y-125147000D01*
X158448000Y-125147000D01*
X158448000Y-125127000D01*
X158428000Y-125127000D01*
X158428000Y-124873000D01*
X158448000Y-124873000D01*
X158448000Y-124853000D01*
X158702000Y-124853000D01*
X158702000Y-124873000D01*
G36*
X151570269Y-116336229D02*
X151569932Y-116722079D01*
X151717280Y-117078686D01*
X151826453Y-117188050D01*
X151686309Y-117130000D01*
X151245750Y-117130000D01*
X151087000Y-117288750D01*
X151087000Y-118013000D01*
X151107000Y-118013000D01*
X151107000Y-118040401D01*
X150813000Y-118040401D01*
X150813000Y-118013000D01*
X150833000Y-118013000D01*
X150833000Y-117288750D01*
X150674250Y-117130000D01*
X150419928Y-117130000D01*
X150420068Y-116970241D01*
X150346544Y-116792301D01*
X150382352Y-116785563D01*
X150595753Y-116648243D01*
X150738917Y-116438717D01*
X150776485Y-116253200D01*
X151604746Y-116253200D01*
X151570269Y-116336229D01*
X151570269Y-116336229D01*
G37*
X151570269Y-116336229D02*
X151569932Y-116722079D01*
X151717280Y-117078686D01*
X151826453Y-117188050D01*
X151686309Y-117130000D01*
X151245750Y-117130000D01*
X151087000Y-117288750D01*
X151087000Y-118013000D01*
X151107000Y-118013000D01*
X151107000Y-118040401D01*
X150813000Y-118040401D01*
X150813000Y-118013000D01*
X150833000Y-118013000D01*
X150833000Y-117288750D01*
X150674250Y-117130000D01*
X150419928Y-117130000D01*
X150420068Y-116970241D01*
X150346544Y-116792301D01*
X150382352Y-116785563D01*
X150595753Y-116648243D01*
X150738917Y-116438717D01*
X150776485Y-116253200D01*
X151604746Y-116253200D01*
X151570269Y-116336229D01*
G36*
X146765298Y-115020898D02*
X146815595Y-115273756D01*
X146818826Y-115290001D01*
X146971261Y-115518135D01*
X148000363Y-116547237D01*
X148228497Y-116699672D01*
X148308634Y-116715612D01*
X148401283Y-116778917D01*
X148546777Y-116808380D01*
X148480269Y-116968549D01*
X148480132Y-117125717D01*
X148460000Y-117125717D01*
X148271963Y-117161099D01*
X148235563Y-116967648D01*
X148098243Y-116754247D01*
X147888717Y-116611083D01*
X147640000Y-116560717D01*
X147360000Y-116560717D01*
X147288466Y-116574177D01*
X147266310Y-116565000D01*
X147228750Y-116565000D01*
X147203605Y-116590145D01*
X147127648Y-116604437D01*
X146999590Y-116686840D01*
X146888717Y-116611083D01*
X146799207Y-116592957D01*
X146771250Y-116565000D01*
X146733690Y-116565000D01*
X146709871Y-116574866D01*
X146703200Y-116573515D01*
X146703200Y-112351858D01*
X146765298Y-112326199D01*
X146765298Y-115020898D01*
X146765298Y-115020898D01*
G37*
X146765298Y-115020898D02*
X146815595Y-115273756D01*
X146818826Y-115290001D01*
X146971261Y-115518135D01*
X148000363Y-116547237D01*
X148228497Y-116699672D01*
X148308634Y-116715612D01*
X148401283Y-116778917D01*
X148546777Y-116808380D01*
X148480269Y-116968549D01*
X148480132Y-117125717D01*
X148460000Y-117125717D01*
X148271963Y-117161099D01*
X148235563Y-116967648D01*
X148098243Y-116754247D01*
X147888717Y-116611083D01*
X147640000Y-116560717D01*
X147360000Y-116560717D01*
X147288466Y-116574177D01*
X147266310Y-116565000D01*
X147228750Y-116565000D01*
X147203605Y-116590145D01*
X147127648Y-116604437D01*
X146999590Y-116686840D01*
X146888717Y-116611083D01*
X146799207Y-116592957D01*
X146771250Y-116565000D01*
X146733690Y-116565000D01*
X146709871Y-116574866D01*
X146703200Y-116573515D01*
X146703200Y-112351858D01*
X146765298Y-112326199D01*
X146765298Y-115020898D01*
G36*
X131149932Y-106512079D02*
X131297280Y-106868686D01*
X131327000Y-106898458D01*
X131327000Y-107526250D01*
X131444448Y-107643698D01*
X131428239Y-107659879D01*
X131280269Y-108016229D01*
X131279932Y-108402079D01*
X131397077Y-108685591D01*
X131282566Y-108961364D01*
X131282229Y-109347214D01*
X131429577Y-109703821D01*
X131702176Y-109976896D01*
X132058526Y-110124866D01*
X132210717Y-110124999D01*
X132210717Y-110190000D01*
X132232175Y-110304038D01*
X132210717Y-110410000D01*
X132210717Y-110690000D01*
X132232175Y-110804038D01*
X132210717Y-110910000D01*
X132210717Y-111190000D01*
X132232175Y-111304038D01*
X132210717Y-111410000D01*
X132210717Y-111690000D01*
X132232175Y-111804038D01*
X132210717Y-111910000D01*
X132210717Y-112190000D01*
X132232175Y-112304038D01*
X132210717Y-112410000D01*
X132210717Y-112690000D01*
X132232175Y-112804038D01*
X132210717Y-112910000D01*
X132210717Y-113190000D01*
X132232175Y-113304038D01*
X132210717Y-113410000D01*
X132210717Y-113690000D01*
X132232175Y-113804038D01*
X132210717Y-113910000D01*
X132210717Y-114190000D01*
X132232175Y-114304038D01*
X132231838Y-114305701D01*
X132163327Y-114140302D01*
X131984699Y-113961673D01*
X131751310Y-113865000D01*
X131535750Y-113865000D01*
X131377000Y-114023750D01*
X131377000Y-114973000D01*
X131397000Y-114973000D01*
X131397000Y-115227000D01*
X131377000Y-115227000D01*
X131377000Y-115247000D01*
X131123000Y-115247000D01*
X131123000Y-115227000D01*
X131103000Y-115227000D01*
X131103000Y-114973000D01*
X131123000Y-114973000D01*
X131123000Y-114023750D01*
X130964250Y-113865000D01*
X130748690Y-113865000D01*
X130702000Y-113884340D01*
X130702000Y-107685000D01*
X130914250Y-107685000D01*
X131073000Y-107526250D01*
X131073000Y-106577000D01*
X131053000Y-106577000D01*
X131053000Y-106323000D01*
X131073000Y-106323000D01*
X131073000Y-106303000D01*
X131150115Y-106303000D01*
X131149932Y-106512079D01*
X131149932Y-106512079D01*
G37*
X131149932Y-106512079D02*
X131297280Y-106868686D01*
X131327000Y-106898458D01*
X131327000Y-107526250D01*
X131444448Y-107643698D01*
X131428239Y-107659879D01*
X131280269Y-108016229D01*
X131279932Y-108402079D01*
X131397077Y-108685591D01*
X131282566Y-108961364D01*
X131282229Y-109347214D01*
X131429577Y-109703821D01*
X131702176Y-109976896D01*
X132058526Y-110124866D01*
X132210717Y-110124999D01*
X132210717Y-110190000D01*
X132232175Y-110304038D01*
X132210717Y-110410000D01*
X132210717Y-110690000D01*
X132232175Y-110804038D01*
X132210717Y-110910000D01*
X132210717Y-111190000D01*
X132232175Y-111304038D01*
X132210717Y-111410000D01*
X132210717Y-111690000D01*
X132232175Y-111804038D01*
X132210717Y-111910000D01*
X132210717Y-112190000D01*
X132232175Y-112304038D01*
X132210717Y-112410000D01*
X132210717Y-112690000D01*
X132232175Y-112804038D01*
X132210717Y-112910000D01*
X132210717Y-113190000D01*
X132232175Y-113304038D01*
X132210717Y-113410000D01*
X132210717Y-113690000D01*
X132232175Y-113804038D01*
X132210717Y-113910000D01*
X132210717Y-114190000D01*
X132232175Y-114304038D01*
X132231838Y-114305701D01*
X132163327Y-114140302D01*
X131984699Y-113961673D01*
X131751310Y-113865000D01*
X131535750Y-113865000D01*
X131377000Y-114023750D01*
X131377000Y-114973000D01*
X131397000Y-114973000D01*
X131397000Y-115227000D01*
X131377000Y-115227000D01*
X131377000Y-115247000D01*
X131123000Y-115247000D01*
X131123000Y-115227000D01*
X131103000Y-115227000D01*
X131103000Y-114973000D01*
X131123000Y-114973000D01*
X131123000Y-114023750D01*
X130964250Y-113865000D01*
X130748690Y-113865000D01*
X130702000Y-113884340D01*
X130702000Y-107685000D01*
X130914250Y-107685000D01*
X131073000Y-107526250D01*
X131073000Y-106577000D01*
X131053000Y-106577000D01*
X131053000Y-106323000D01*
X131073000Y-106323000D01*
X131073000Y-106303000D01*
X131150115Y-106303000D01*
X131149932Y-106512079D01*
G36*
X162727924Y-104354545D02*
X162727924Y-109941335D01*
X162703078Y-109916446D01*
X162346728Y-109768476D01*
X162179283Y-109768330D01*
X162179283Y-109700000D01*
X162168411Y-109642218D01*
X162175000Y-109626310D01*
X162175000Y-109608750D01*
X162159126Y-109592876D01*
X162135563Y-109467648D01*
X162098739Y-109410421D01*
X162175000Y-109226310D01*
X162175000Y-109208750D01*
X162166250Y-109200000D01*
X162175000Y-109191250D01*
X162175000Y-109173690D01*
X162103055Y-109000000D01*
X162175000Y-108826310D01*
X162175000Y-108808750D01*
X162166250Y-108800000D01*
X162175000Y-108791250D01*
X162175000Y-108773690D01*
X162103055Y-108600000D01*
X162175000Y-108426310D01*
X162175000Y-108408750D01*
X162166250Y-108400000D01*
X162175000Y-108391250D01*
X162175000Y-108373690D01*
X162103055Y-108200000D01*
X162175000Y-108026310D01*
X162175000Y-108008750D01*
X162166250Y-108000000D01*
X162175000Y-107991250D01*
X162175000Y-107973690D01*
X162103055Y-107800000D01*
X162175000Y-107626310D01*
X162175000Y-107608750D01*
X162166250Y-107600000D01*
X162175000Y-107591250D01*
X162175000Y-107573690D01*
X162103055Y-107400000D01*
X162175000Y-107226310D01*
X162175000Y-107208750D01*
X162166250Y-107200000D01*
X162175000Y-107191250D01*
X162175000Y-107173690D01*
X162103055Y-107000000D01*
X162175000Y-106826310D01*
X162175000Y-106808750D01*
X162166250Y-106800000D01*
X162175000Y-106791250D01*
X162175000Y-106773690D01*
X162099591Y-106591637D01*
X162128917Y-106548717D01*
X162157200Y-106409050D01*
X162175000Y-106391250D01*
X162175000Y-106373690D01*
X162167854Y-106356438D01*
X162179283Y-106300000D01*
X162179283Y-106100000D01*
X162159776Y-105996329D01*
X162179283Y-105900000D01*
X162179283Y-105700000D01*
X162159776Y-105596329D01*
X162179283Y-105500000D01*
X162179283Y-105300000D01*
X162159776Y-105196329D01*
X162179283Y-105100000D01*
X162179283Y-104900000D01*
X162159776Y-104796329D01*
X162179283Y-104700000D01*
X162179283Y-104500000D01*
X162159776Y-104396329D01*
X162179283Y-104300000D01*
X162179283Y-104100000D01*
X162159776Y-103996329D01*
X162179283Y-103900000D01*
X162179283Y-103805904D01*
X162727924Y-104354545D01*
X162727924Y-104354545D01*
G37*
X162727924Y-104354545D02*
X162727924Y-109941335D01*
X162703078Y-109916446D01*
X162346728Y-109768476D01*
X162179283Y-109768330D01*
X162179283Y-109700000D01*
X162168411Y-109642218D01*
X162175000Y-109626310D01*
X162175000Y-109608750D01*
X162159126Y-109592876D01*
X162135563Y-109467648D01*
X162098739Y-109410421D01*
X162175000Y-109226310D01*
X162175000Y-109208750D01*
X162166250Y-109200000D01*
X162175000Y-109191250D01*
X162175000Y-109173690D01*
X162103055Y-109000000D01*
X162175000Y-108826310D01*
X162175000Y-108808750D01*
X162166250Y-108800000D01*
X162175000Y-108791250D01*
X162175000Y-108773690D01*
X162103055Y-108600000D01*
X162175000Y-108426310D01*
X162175000Y-108408750D01*
X162166250Y-108400000D01*
X162175000Y-108391250D01*
X162175000Y-108373690D01*
X162103055Y-108200000D01*
X162175000Y-108026310D01*
X162175000Y-108008750D01*
X162166250Y-108000000D01*
X162175000Y-107991250D01*
X162175000Y-107973690D01*
X162103055Y-107800000D01*
X162175000Y-107626310D01*
X162175000Y-107608750D01*
X162166250Y-107600000D01*
X162175000Y-107591250D01*
X162175000Y-107573690D01*
X162103055Y-107400000D01*
X162175000Y-107226310D01*
X162175000Y-107208750D01*
X162166250Y-107200000D01*
X162175000Y-107191250D01*
X162175000Y-107173690D01*
X162103055Y-107000000D01*
X162175000Y-106826310D01*
X162175000Y-106808750D01*
X162166250Y-106800000D01*
X162175000Y-106791250D01*
X162175000Y-106773690D01*
X162099591Y-106591637D01*
X162128917Y-106548717D01*
X162157200Y-106409050D01*
X162175000Y-106391250D01*
X162175000Y-106373690D01*
X162167854Y-106356438D01*
X162179283Y-106300000D01*
X162179283Y-106100000D01*
X162159776Y-105996329D01*
X162179283Y-105900000D01*
X162179283Y-105700000D01*
X162159776Y-105596329D01*
X162179283Y-105500000D01*
X162179283Y-105300000D01*
X162159776Y-105196329D01*
X162179283Y-105100000D01*
X162179283Y-104900000D01*
X162159776Y-104796329D01*
X162179283Y-104700000D01*
X162179283Y-104500000D01*
X162159776Y-104396329D01*
X162179283Y-104300000D01*
X162179283Y-104100000D01*
X162159776Y-103996329D01*
X162179283Y-103900000D01*
X162179283Y-103805904D01*
X162727924Y-104354545D01*
G36*
X153555808Y-106412288D02*
X153495409Y-106412235D01*
X153386105Y-106457399D01*
X153334349Y-106457399D01*
X153334402Y-106397000D01*
X153187054Y-106040393D01*
X152914455Y-105767318D01*
X152558105Y-105619348D01*
X152423795Y-105619231D01*
X152523327Y-105519698D01*
X152620000Y-105286309D01*
X152620000Y-104845750D01*
X152461250Y-104687000D01*
X151737000Y-104687000D01*
X151737000Y-104707000D01*
X151483000Y-104707000D01*
X151483000Y-104687000D01*
X151463000Y-104687000D01*
X151463000Y-104433000D01*
X151483000Y-104433000D01*
X151483000Y-104413000D01*
X151737000Y-104413000D01*
X151737000Y-104433000D01*
X152461250Y-104433000D01*
X152620000Y-104274250D01*
X152620000Y-103833691D01*
X152523327Y-103600302D01*
X152516205Y-103593180D01*
X152573917Y-103508717D01*
X152589904Y-103429769D01*
X152932079Y-103430068D01*
X153288686Y-103282720D01*
X153555808Y-103016064D01*
X153555808Y-106412288D01*
X153555808Y-106412288D01*
G37*
X153555808Y-106412288D02*
X153495409Y-106412235D01*
X153386105Y-106457399D01*
X153334349Y-106457399D01*
X153334402Y-106397000D01*
X153187054Y-106040393D01*
X152914455Y-105767318D01*
X152558105Y-105619348D01*
X152423795Y-105619231D01*
X152523327Y-105519698D01*
X152620000Y-105286309D01*
X152620000Y-104845750D01*
X152461250Y-104687000D01*
X151737000Y-104687000D01*
X151737000Y-104707000D01*
X151483000Y-104707000D01*
X151483000Y-104687000D01*
X151463000Y-104687000D01*
X151463000Y-104433000D01*
X151483000Y-104433000D01*
X151483000Y-104413000D01*
X151737000Y-104413000D01*
X151737000Y-104433000D01*
X152461250Y-104433000D01*
X152620000Y-104274250D01*
X152620000Y-103833691D01*
X152523327Y-103600302D01*
X152516205Y-103593180D01*
X152573917Y-103508717D01*
X152589904Y-103429769D01*
X152932079Y-103430068D01*
X153288686Y-103282720D01*
X153555808Y-103016064D01*
X153555808Y-106412288D01*
G36*
X143819317Y-103531045D02*
X143819082Y-103800499D01*
X143966430Y-104157106D01*
X144239029Y-104430181D01*
X144595379Y-104578151D01*
X144981229Y-104578488D01*
X145239518Y-104471764D01*
X145239518Y-104521829D01*
X144781500Y-104979847D01*
X144650121Y-104848239D01*
X144293771Y-104700269D01*
X143907921Y-104699932D01*
X143551314Y-104847280D01*
X143283099Y-105115028D01*
X143018771Y-105005269D01*
X142632921Y-105004932D01*
X142298082Y-105143286D01*
X142190067Y-105121800D01*
X141478241Y-105121800D01*
X141636431Y-104963610D01*
X141788866Y-104735475D01*
X141797707Y-104691026D01*
X141842394Y-104466372D01*
X141842394Y-104247859D01*
X141876184Y-104247859D01*
X141994538Y-104366420D01*
X142350888Y-104514390D01*
X142736738Y-104514727D01*
X143093345Y-104367379D01*
X143366420Y-104094780D01*
X143514390Y-103738430D01*
X143514564Y-103539283D01*
X143640000Y-103539283D01*
X143754038Y-103517825D01*
X143819317Y-103531045D01*
X143819317Y-103531045D01*
G37*
X143819317Y-103531045D02*
X143819082Y-103800499D01*
X143966430Y-104157106D01*
X144239029Y-104430181D01*
X144595379Y-104578151D01*
X144981229Y-104578488D01*
X145239518Y-104471764D01*
X145239518Y-104521829D01*
X144781500Y-104979847D01*
X144650121Y-104848239D01*
X144293771Y-104700269D01*
X143907921Y-104699932D01*
X143551314Y-104847280D01*
X143283099Y-105115028D01*
X143018771Y-105005269D01*
X142632921Y-105004932D01*
X142298082Y-105143286D01*
X142190067Y-105121800D01*
X141478241Y-105121800D01*
X141636431Y-104963610D01*
X141788866Y-104735475D01*
X141797707Y-104691026D01*
X141842394Y-104466372D01*
X141842394Y-104247859D01*
X141876184Y-104247859D01*
X141994538Y-104366420D01*
X142350888Y-104514390D01*
X142736738Y-104514727D01*
X143093345Y-104367379D01*
X143366420Y-104094780D01*
X143514390Y-103738430D01*
X143514564Y-103539283D01*
X143640000Y-103539283D01*
X143754038Y-103517825D01*
X143819317Y-103531045D01*
G36*
X131047000Y-99223000D02*
X131067000Y-99223000D01*
X131067000Y-99477000D01*
X131047000Y-99477000D01*
X131047000Y-100426250D01*
X131205750Y-100585000D01*
X131421310Y-100585000D01*
X131654699Y-100488327D01*
X131792865Y-100350160D01*
X131828691Y-100365000D01*
X132094250Y-100365000D01*
X132252998Y-100206252D01*
X132252998Y-100365000D01*
X132290717Y-100365000D01*
X132290717Y-100705000D01*
X132328429Y-100905421D01*
X132147648Y-100939437D01*
X132047138Y-101004113D01*
X132039698Y-100996673D01*
X131806309Y-100900000D01*
X131365750Y-100900000D01*
X131207000Y-101058750D01*
X131207000Y-101783000D01*
X131227000Y-101783000D01*
X131227000Y-102037000D01*
X131207000Y-102037000D01*
X131207000Y-102057000D01*
X130953000Y-102057000D01*
X130953000Y-102037000D01*
X130933000Y-102037000D01*
X130933000Y-101783000D01*
X130953000Y-101783000D01*
X130953000Y-101058750D01*
X130794250Y-100900000D01*
X130702000Y-100900000D01*
X130702000Y-100517250D01*
X130793000Y-100426250D01*
X130793000Y-99477000D01*
X130773000Y-99477000D01*
X130773000Y-99223000D01*
X130793000Y-99223000D01*
X130793000Y-99203000D01*
X131047000Y-99203000D01*
X131047000Y-99223000D01*
X131047000Y-99223000D01*
G37*
X131047000Y-99223000D02*
X131067000Y-99223000D01*
X131067000Y-99477000D01*
X131047000Y-99477000D01*
X131047000Y-100426250D01*
X131205750Y-100585000D01*
X131421310Y-100585000D01*
X131654699Y-100488327D01*
X131792865Y-100350160D01*
X131828691Y-100365000D01*
X132094250Y-100365000D01*
X132252998Y-100206252D01*
X132252998Y-100365000D01*
X132290717Y-100365000D01*
X132290717Y-100705000D01*
X132328429Y-100905421D01*
X132147648Y-100939437D01*
X132047138Y-101004113D01*
X132039698Y-100996673D01*
X131806309Y-100900000D01*
X131365750Y-100900000D01*
X131207000Y-101058750D01*
X131207000Y-101783000D01*
X131227000Y-101783000D01*
X131227000Y-102037000D01*
X131207000Y-102037000D01*
X131207000Y-102057000D01*
X130953000Y-102057000D01*
X130953000Y-102037000D01*
X130933000Y-102037000D01*
X130933000Y-101783000D01*
X130953000Y-101783000D01*
X130953000Y-101058750D01*
X130794250Y-100900000D01*
X130702000Y-100900000D01*
X130702000Y-100517250D01*
X130793000Y-100426250D01*
X130793000Y-99477000D01*
X130773000Y-99477000D01*
X130773000Y-99223000D01*
X130793000Y-99223000D01*
X130793000Y-99203000D01*
X131047000Y-99203000D01*
X131047000Y-99223000D01*
G36*
X136820362Y-95657237D02*
X136858514Y-95682729D01*
X136874437Y-95767352D01*
X137011757Y-95980753D01*
X137221283Y-96123917D01*
X137470000Y-96174283D01*
X138670000Y-96174283D01*
X138770182Y-96155432D01*
X138769932Y-96442079D01*
X138917280Y-96798686D01*
X139189879Y-97071761D01*
X139546229Y-97219731D01*
X139932079Y-97220068D01*
X140288686Y-97072720D01*
X140357526Y-97004000D01*
X143872272Y-97004000D01*
X143912531Y-97020717D01*
X143720000Y-97020717D01*
X143487648Y-97064437D01*
X143326292Y-97168267D01*
X143279698Y-97121673D01*
X143046309Y-97025000D01*
X142978750Y-97025000D01*
X142820000Y-97183750D01*
X142820000Y-98583000D01*
X142867000Y-98583000D01*
X142867000Y-98837000D01*
X142820000Y-98837000D01*
X142820000Y-98857000D01*
X142620000Y-98857000D01*
X142620000Y-98837000D01*
X142573000Y-98837000D01*
X142573000Y-98583000D01*
X142620000Y-98583000D01*
X142620000Y-97183750D01*
X142461250Y-97025000D01*
X142393691Y-97025000D01*
X142160302Y-97121673D01*
X142112588Y-97169387D01*
X141968717Y-97071083D01*
X141720000Y-97020717D01*
X141320000Y-97020717D01*
X141087648Y-97064437D01*
X140874247Y-97201757D01*
X140731083Y-97411283D01*
X140711043Y-97510245D01*
X140686309Y-97500000D01*
X140245750Y-97500000D01*
X140087000Y-97658750D01*
X140087000Y-98383000D01*
X140107000Y-98383000D01*
X140107000Y-98637000D01*
X140087000Y-98637000D01*
X140087000Y-100023000D01*
X140107000Y-100023000D01*
X140107000Y-100277000D01*
X140087000Y-100277000D01*
X140087000Y-100297000D01*
X139833000Y-100297000D01*
X139833000Y-100277000D01*
X139813000Y-100277000D01*
X139813000Y-100023000D01*
X139833000Y-100023000D01*
X139833000Y-98637000D01*
X139813000Y-98637000D01*
X139813000Y-98383000D01*
X139833000Y-98383000D01*
X139833000Y-97658750D01*
X139674250Y-97500000D01*
X139233691Y-97500000D01*
X139029774Y-97584465D01*
X139030068Y-97247921D01*
X138882720Y-96891314D01*
X138610121Y-96618239D01*
X138253771Y-96470269D01*
X137867921Y-96469932D01*
X137511314Y-96617280D01*
X137321159Y-96807104D01*
X137300563Y-96697648D01*
X137163243Y-96484247D01*
X136953717Y-96341083D01*
X136705000Y-96290717D01*
X136369283Y-96290717D01*
X136369283Y-95955000D01*
X136326349Y-95726824D01*
X136439731Y-95453771D01*
X136439785Y-95391699D01*
X136554825Y-95391699D01*
X136820362Y-95657237D01*
X136820362Y-95657237D01*
G37*
X136820362Y-95657237D02*
X136858514Y-95682729D01*
X136874437Y-95767352D01*
X137011757Y-95980753D01*
X137221283Y-96123917D01*
X137470000Y-96174283D01*
X138670000Y-96174283D01*
X138770182Y-96155432D01*
X138769932Y-96442079D01*
X138917280Y-96798686D01*
X139189879Y-97071761D01*
X139546229Y-97219731D01*
X139932079Y-97220068D01*
X140288686Y-97072720D01*
X140357526Y-97004000D01*
X143872272Y-97004000D01*
X143912531Y-97020717D01*
X143720000Y-97020717D01*
X143487648Y-97064437D01*
X143326292Y-97168267D01*
X143279698Y-97121673D01*
X143046309Y-97025000D01*
X142978750Y-97025000D01*
X142820000Y-97183750D01*
X142820000Y-98583000D01*
X142867000Y-98583000D01*
X142867000Y-98837000D01*
X142820000Y-98837000D01*
X142820000Y-98857000D01*
X142620000Y-98857000D01*
X142620000Y-98837000D01*
X142573000Y-98837000D01*
X142573000Y-98583000D01*
X142620000Y-98583000D01*
X142620000Y-97183750D01*
X142461250Y-97025000D01*
X142393691Y-97025000D01*
X142160302Y-97121673D01*
X142112588Y-97169387D01*
X141968717Y-97071083D01*
X141720000Y-97020717D01*
X141320000Y-97020717D01*
X141087648Y-97064437D01*
X140874247Y-97201757D01*
X140731083Y-97411283D01*
X140711043Y-97510245D01*
X140686309Y-97500000D01*
X140245750Y-97500000D01*
X140087000Y-97658750D01*
X140087000Y-98383000D01*
X140107000Y-98383000D01*
X140107000Y-98637000D01*
X140087000Y-98637000D01*
X140087000Y-100023000D01*
X140107000Y-100023000D01*
X140107000Y-100277000D01*
X140087000Y-100277000D01*
X140087000Y-100297000D01*
X139833000Y-100297000D01*
X139833000Y-100277000D01*
X139813000Y-100277000D01*
X139813000Y-100023000D01*
X139833000Y-100023000D01*
X139833000Y-98637000D01*
X139813000Y-98637000D01*
X139813000Y-98383000D01*
X139833000Y-98383000D01*
X139833000Y-97658750D01*
X139674250Y-97500000D01*
X139233691Y-97500000D01*
X139029774Y-97584465D01*
X139030068Y-97247921D01*
X138882720Y-96891314D01*
X138610121Y-96618239D01*
X138253771Y-96470269D01*
X137867921Y-96469932D01*
X137511314Y-96617280D01*
X137321159Y-96807104D01*
X137300563Y-96697648D01*
X137163243Y-96484247D01*
X136953717Y-96341083D01*
X136705000Y-96290717D01*
X136369283Y-96290717D01*
X136369283Y-95955000D01*
X136326349Y-95726824D01*
X136439731Y-95453771D01*
X136439785Y-95391699D01*
X136554825Y-95391699D01*
X136820362Y-95657237D01*
G36*
X155927000Y-96773000D02*
X155947000Y-96773000D01*
X155947000Y-97027000D01*
X155927000Y-97027000D01*
X155927000Y-98176250D01*
X156085750Y-98335000D01*
X156825987Y-98335000D01*
X156798827Y-98362113D01*
X156650857Y-98718463D01*
X156650599Y-99014252D01*
X156640289Y-99018512D01*
X156580121Y-98958239D01*
X156223771Y-98810269D01*
X155837921Y-98809932D01*
X155481314Y-98957280D01*
X155208239Y-99229879D01*
X155112332Y-99460847D01*
X153843991Y-99460847D01*
X153725637Y-99342286D01*
X153477579Y-99239283D01*
X153900000Y-99239283D01*
X154132352Y-99195563D01*
X154345753Y-99058243D01*
X154488917Y-98848717D01*
X154539283Y-98600000D01*
X154539283Y-98279326D01*
X154673691Y-98335000D01*
X155514250Y-98335000D01*
X155673000Y-98176250D01*
X155673000Y-97027000D01*
X155653000Y-97027000D01*
X155653000Y-96773000D01*
X155673000Y-96773000D01*
X155673000Y-96753000D01*
X155927000Y-96753000D01*
X155927000Y-96773000D01*
X155927000Y-96773000D01*
G37*
X155927000Y-96773000D02*
X155947000Y-96773000D01*
X155947000Y-97027000D01*
X155927000Y-97027000D01*
X155927000Y-98176250D01*
X156085750Y-98335000D01*
X156825987Y-98335000D01*
X156798827Y-98362113D01*
X156650857Y-98718463D01*
X156650599Y-99014252D01*
X156640289Y-99018512D01*
X156580121Y-98958239D01*
X156223771Y-98810269D01*
X155837921Y-98809932D01*
X155481314Y-98957280D01*
X155208239Y-99229879D01*
X155112332Y-99460847D01*
X153843991Y-99460847D01*
X153725637Y-99342286D01*
X153477579Y-99239283D01*
X153900000Y-99239283D01*
X154132352Y-99195563D01*
X154345753Y-99058243D01*
X154488917Y-98848717D01*
X154539283Y-98600000D01*
X154539283Y-98279326D01*
X154673691Y-98335000D01*
X155514250Y-98335000D01*
X155673000Y-98176250D01*
X155673000Y-97027000D01*
X155653000Y-97027000D01*
X155653000Y-96773000D01*
X155673000Y-96773000D01*
X155673000Y-96753000D01*
X155927000Y-96753000D01*
X155927000Y-96773000D01*
G36*
X157502839Y-97433156D02*
X157502841Y-97433159D01*
X157742134Y-97593048D01*
X157747457Y-97596605D01*
X158036000Y-97654001D01*
X158036005Y-97654000D01*
X158160717Y-97654000D01*
X158160717Y-97700000D01*
X158204437Y-97932352D01*
X158292366Y-98068997D01*
X158191058Y-98110857D01*
X158170709Y-98090473D01*
X157814359Y-97942503D01*
X157428509Y-97942166D01*
X157378442Y-97962853D01*
X157435000Y-97826310D01*
X157435000Y-97365317D01*
X157502839Y-97433156D01*
X157502839Y-97433156D01*
G37*
X157502839Y-97433156D02*
X157502841Y-97433159D01*
X157742134Y-97593048D01*
X157747457Y-97596605D01*
X158036000Y-97654001D01*
X158036005Y-97654000D01*
X158160717Y-97654000D01*
X158160717Y-97700000D01*
X158204437Y-97932352D01*
X158292366Y-98068997D01*
X158191058Y-98110857D01*
X158170709Y-98090473D01*
X157814359Y-97942503D01*
X157428509Y-97942166D01*
X157378442Y-97962853D01*
X157435000Y-97826310D01*
X157435000Y-97365317D01*
X157502839Y-97433156D01*
G36*
X148061937Y-91498780D02*
X148105657Y-91731132D01*
X148181777Y-91849425D01*
X148112303Y-91951103D01*
X148061937Y-92199820D01*
X148061937Y-92997380D01*
X148105657Y-93229732D01*
X148242977Y-93443133D01*
X148396800Y-93548237D01*
X148396800Y-94598952D01*
X148367648Y-94604437D01*
X148154247Y-94741757D01*
X148011083Y-94951283D01*
X147960717Y-95200000D01*
X147960717Y-96400000D01*
X148004437Y-96632352D01*
X148141757Y-96845753D01*
X148220174Y-96899334D01*
X148154247Y-96941757D01*
X148047485Y-97098008D01*
X148048039Y-97090750D01*
X148042673Y-97046288D01*
X148039842Y-97037644D01*
X148040278Y-97028560D01*
X148033153Y-96980906D01*
X148029121Y-96969677D01*
X148029249Y-96957747D01*
X148020870Y-96913116D01*
X148015716Y-96900284D01*
X148015269Y-96886462D01*
X148005366Y-96843914D01*
X147999199Y-96830288D01*
X147998019Y-96815379D01*
X147986323Y-96773974D01*
X147979481Y-96760559D01*
X147977590Y-96745620D01*
X147963832Y-96704415D01*
X147956831Y-96692148D01*
X147954442Y-96678223D01*
X147938353Y-96636280D01*
X147931767Y-96625837D01*
X147929214Y-96613762D01*
X147910526Y-96570138D01*
X147904810Y-96561802D01*
X147902408Y-96551981D01*
X147880850Y-96505737D01*
X147878256Y-96502198D01*
X147877155Y-96497949D01*
X147876549Y-96496694D01*
X147876131Y-96496140D01*
X147875955Y-96495466D01*
X147869008Y-96481158D01*
X147867885Y-96479675D01*
X147867404Y-96477879D01*
X147860563Y-96463994D01*
X147859209Y-96462228D01*
X147858619Y-96460083D01*
X147851716Y-96446313D01*
X147850164Y-96444317D01*
X147849474Y-96441884D01*
X147842338Y-96427924D01*
X147840747Y-96425912D01*
X147840028Y-96423449D01*
X147832491Y-96408990D01*
X147830924Y-96407040D01*
X147830205Y-96404647D01*
X147822097Y-96389382D01*
X147820655Y-96387616D01*
X147819983Y-96385435D01*
X147811135Y-96369060D01*
X147809859Y-96367520D01*
X147809258Y-96365611D01*
X147799500Y-96347816D01*
X147798422Y-96346531D01*
X147797910Y-96344935D01*
X147787074Y-96325415D01*
X147786194Y-96324376D01*
X147785773Y-96323084D01*
X147773688Y-96301529D01*
X147772986Y-96300707D01*
X147772648Y-96299682D01*
X147759146Y-96275789D01*
X147758602Y-96275157D01*
X147758340Y-96274368D01*
X147743252Y-96247827D01*
X147742838Y-96247349D01*
X147742638Y-96246750D01*
X147725793Y-96217255D01*
X147725482Y-96216897D01*
X147725330Y-96216445D01*
X147706559Y-96183691D01*
X147706343Y-96183443D01*
X147706238Y-96183131D01*
X147685373Y-96146808D01*
X147685219Y-96146632D01*
X147685145Y-96146412D01*
X147662016Y-96106215D01*
X147654463Y-96093074D01*
X147630317Y-96050698D01*
X147609360Y-96013307D01*
X147591108Y-95980034D01*
X147575409Y-95950632D01*
X147561934Y-95924553D01*
X147550407Y-95901355D01*
X147540424Y-95880343D01*
X147531521Y-95860646D01*
X147523253Y-95841360D01*
X147515188Y-95821497D01*
X147506982Y-95800188D01*
X147498274Y-95776435D01*
X147488740Y-95749284D01*
X147466211Y-95683066D01*
X147438577Y-95599196D01*
X147413486Y-95519756D01*
X147390705Y-95444000D01*
X147370044Y-95371300D01*
X147351330Y-95301078D01*
X147334359Y-95232615D01*
X147318956Y-95165258D01*
X147304912Y-95098154D01*
X147292088Y-95030661D01*
X147280334Y-94962034D01*
X147269518Y-94891516D01*
X147259528Y-94818410D01*
X147250271Y-94742086D01*
X147241506Y-94660525D01*
X147240032Y-94645769D01*
X147235158Y-94594324D01*
X147230680Y-94542820D01*
X147226518Y-94490266D01*
X147222652Y-94436272D01*
X147219042Y-94380144D01*
X147215686Y-94321704D01*
X147212553Y-94260294D01*
X147209634Y-94195649D01*
X147206909Y-94127301D01*
X147204370Y-94055040D01*
X147201990Y-93978183D01*
X147199749Y-93896244D01*
X147199514Y-93887136D01*
X147199460Y-93886897D01*
X147199501Y-93886659D01*
X147198147Y-93835688D01*
X147198026Y-93835156D01*
X147198118Y-93834616D01*
X147196806Y-93788195D01*
X147196638Y-93787459D01*
X147196762Y-93786717D01*
X147195473Y-93744601D01*
X147195242Y-93743602D01*
X147195408Y-93742591D01*
X147194122Y-93704534D01*
X147193812Y-93703211D01*
X147194027Y-93701866D01*
X147192725Y-93667624D01*
X147192311Y-93665892D01*
X147192582Y-93664135D01*
X147191246Y-93633463D01*
X147190689Y-93631184D01*
X147191029Y-93628861D01*
X147189638Y-93601513D01*
X147188891Y-93598554D01*
X147189305Y-93595532D01*
X147187840Y-93571265D01*
X147186839Y-93567449D01*
X147187326Y-93563532D01*
X147185768Y-93542098D01*
X147184414Y-93537186D01*
X147184963Y-93532123D01*
X147183293Y-93513279D01*
X147181457Y-93507007D01*
X147182029Y-93500497D01*
X147180228Y-93483997D01*
X147177710Y-93476001D01*
X147178226Y-93467630D01*
X147176273Y-93453231D01*
X147172845Y-93443262D01*
X147173148Y-93432727D01*
X147171025Y-93420182D01*
X147166371Y-93407965D01*
X147166214Y-93394894D01*
X147163902Y-93383959D01*
X147157695Y-93369469D01*
X147156731Y-93353730D01*
X147154210Y-93344159D01*
X147146211Y-93327762D01*
X147144061Y-93309644D01*
X147141312Y-93301192D01*
X147131590Y-93283844D01*
X147128026Y-93264279D01*
X147125029Y-93256702D01*
X147114185Y-93239890D01*
X147109377Y-93220468D01*
X147106114Y-93213519D01*
X147090864Y-93192837D01*
X147082707Y-93168468D01*
X147078581Y-93161252D01*
X147062465Y-93142717D01*
X147059909Y-93135555D01*
X147037893Y-93111225D01*
X147016371Y-93071458D01*
X147004017Y-93056563D01*
X146971136Y-93029863D01*
X146961847Y-93015012D01*
X146934453Y-92995491D01*
X146916779Y-92975164D01*
X146913127Y-92973344D01*
X146894454Y-92952708D01*
X146878605Y-92940933D01*
X146856849Y-92930622D01*
X146856238Y-92929955D01*
X146837126Y-92921042D01*
X146812588Y-92901117D01*
X146794437Y-92895714D01*
X146761026Y-92871905D01*
X146741836Y-92863271D01*
X146689119Y-92851125D01*
X146655771Y-92835320D01*
X146653006Y-92835182D01*
X146632750Y-92825736D01*
X146610377Y-92820261D01*
X146562774Y-92818182D01*
X146517072Y-92804716D01*
X146491671Y-92802419D01*
X146453015Y-92806538D01*
X146414661Y-92800169D01*
X146386393Y-92801068D01*
X146355223Y-92808305D01*
X146323293Y-92806248D01*
X146292310Y-92810362D01*
X146266991Y-92818988D01*
X146240246Y-92819505D01*
X146206706Y-92826853D01*
X146185829Y-92835977D01*
X146163141Y-92838036D01*
X146127201Y-92848638D01*
X146112671Y-92856262D01*
X146096426Y-92858579D01*
X146069382Y-92868086D01*
X146058928Y-92874273D01*
X146046975Y-92876442D01*
X146009380Y-92891278D01*
X145999983Y-92897330D01*
X145989061Y-92899708D01*
X145948824Y-92917229D01*
X145940991Y-92922669D01*
X145931741Y-92924972D01*
X145889432Y-92944909D01*
X145882595Y-92949964D01*
X145874402Y-92952236D01*
X145840247Y-92969448D01*
X145869731Y-92898443D01*
X145869753Y-92873769D01*
X145953454Y-92869778D01*
X146354005Y-92703864D01*
X146428139Y-92457745D01*
X145600000Y-91629605D01*
X145585858Y-91643748D01*
X145406253Y-91464143D01*
X145420395Y-91450000D01*
X145406252Y-91435858D01*
X145585858Y-91256252D01*
X145600000Y-91270395D01*
X145614142Y-91256252D01*
X145793748Y-91435858D01*
X145779605Y-91450000D01*
X146607745Y-92278139D01*
X146853864Y-92204005D01*
X147046965Y-91666777D01*
X147019778Y-91096546D01*
X146856351Y-90702000D01*
X148061937Y-90702000D01*
X148061937Y-91498780D01*
X148061937Y-91498780D01*
G37*
X148061937Y-91498780D02*
X148105657Y-91731132D01*
X148181777Y-91849425D01*
X148112303Y-91951103D01*
X148061937Y-92199820D01*
X148061937Y-92997380D01*
X148105657Y-93229732D01*
X148242977Y-93443133D01*
X148396800Y-93548237D01*
X148396800Y-94598952D01*
X148367648Y-94604437D01*
X148154247Y-94741757D01*
X148011083Y-94951283D01*
X147960717Y-95200000D01*
X147960717Y-96400000D01*
X148004437Y-96632352D01*
X148141757Y-96845753D01*
X148220174Y-96899334D01*
X148154247Y-96941757D01*
X148047485Y-97098008D01*
X148048039Y-97090750D01*
X148042673Y-97046288D01*
X148039842Y-97037644D01*
X148040278Y-97028560D01*
X148033153Y-96980906D01*
X148029121Y-96969677D01*
X148029249Y-96957747D01*
X148020870Y-96913116D01*
X148015716Y-96900284D01*
X148015269Y-96886462D01*
X148005366Y-96843914D01*
X147999199Y-96830288D01*
X147998019Y-96815379D01*
X147986323Y-96773974D01*
X147979481Y-96760559D01*
X147977590Y-96745620D01*
X147963832Y-96704415D01*
X147956831Y-96692148D01*
X147954442Y-96678223D01*
X147938353Y-96636280D01*
X147931767Y-96625837D01*
X147929214Y-96613762D01*
X147910526Y-96570138D01*
X147904810Y-96561802D01*
X147902408Y-96551981D01*
X147880850Y-96505737D01*
X147878256Y-96502198D01*
X147877155Y-96497949D01*
X147876549Y-96496694D01*
X147876131Y-96496140D01*
X147875955Y-96495466D01*
X147869008Y-96481158D01*
X147867885Y-96479675D01*
X147867404Y-96477879D01*
X147860563Y-96463994D01*
X147859209Y-96462228D01*
X147858619Y-96460083D01*
X147851716Y-96446313D01*
X147850164Y-96444317D01*
X147849474Y-96441884D01*
X147842338Y-96427924D01*
X147840747Y-96425912D01*
X147840028Y-96423449D01*
X147832491Y-96408990D01*
X147830924Y-96407040D01*
X147830205Y-96404647D01*
X147822097Y-96389382D01*
X147820655Y-96387616D01*
X147819983Y-96385435D01*
X147811135Y-96369060D01*
X147809859Y-96367520D01*
X147809258Y-96365611D01*
X147799500Y-96347816D01*
X147798422Y-96346531D01*
X147797910Y-96344935D01*
X147787074Y-96325415D01*
X147786194Y-96324376D01*
X147785773Y-96323084D01*
X147773688Y-96301529D01*
X147772986Y-96300707D01*
X147772648Y-96299682D01*
X147759146Y-96275789D01*
X147758602Y-96275157D01*
X147758340Y-96274368D01*
X147743252Y-96247827D01*
X147742838Y-96247349D01*
X147742638Y-96246750D01*
X147725793Y-96217255D01*
X147725482Y-96216897D01*
X147725330Y-96216445D01*
X147706559Y-96183691D01*
X147706343Y-96183443D01*
X147706238Y-96183131D01*
X147685373Y-96146808D01*
X147685219Y-96146632D01*
X147685145Y-96146412D01*
X147662016Y-96106215D01*
X147654463Y-96093074D01*
X147630317Y-96050698D01*
X147609360Y-96013307D01*
X147591108Y-95980034D01*
X147575409Y-95950632D01*
X147561934Y-95924553D01*
X147550407Y-95901355D01*
X147540424Y-95880343D01*
X147531521Y-95860646D01*
X147523253Y-95841360D01*
X147515188Y-95821497D01*
X147506982Y-95800188D01*
X147498274Y-95776435D01*
X147488740Y-95749284D01*
X147466211Y-95683066D01*
X147438577Y-95599196D01*
X147413486Y-95519756D01*
X147390705Y-95444000D01*
X147370044Y-95371300D01*
X147351330Y-95301078D01*
X147334359Y-95232615D01*
X147318956Y-95165258D01*
X147304912Y-95098154D01*
X147292088Y-95030661D01*
X147280334Y-94962034D01*
X147269518Y-94891516D01*
X147259528Y-94818410D01*
X147250271Y-94742086D01*
X147241506Y-94660525D01*
X147240032Y-94645769D01*
X147235158Y-94594324D01*
X147230680Y-94542820D01*
X147226518Y-94490266D01*
X147222652Y-94436272D01*
X147219042Y-94380144D01*
X147215686Y-94321704D01*
X147212553Y-94260294D01*
X147209634Y-94195649D01*
X147206909Y-94127301D01*
X147204370Y-94055040D01*
X147201990Y-93978183D01*
X147199749Y-93896244D01*
X147199514Y-93887136D01*
X147199460Y-93886897D01*
X147199501Y-93886659D01*
X147198147Y-93835688D01*
X147198026Y-93835156D01*
X147198118Y-93834616D01*
X147196806Y-93788195D01*
X147196638Y-93787459D01*
X147196762Y-93786717D01*
X147195473Y-93744601D01*
X147195242Y-93743602D01*
X147195408Y-93742591D01*
X147194122Y-93704534D01*
X147193812Y-93703211D01*
X147194027Y-93701866D01*
X147192725Y-93667624D01*
X147192311Y-93665892D01*
X147192582Y-93664135D01*
X147191246Y-93633463D01*
X147190689Y-93631184D01*
X147191029Y-93628861D01*
X147189638Y-93601513D01*
X147188891Y-93598554D01*
X147189305Y-93595532D01*
X147187840Y-93571265D01*
X147186839Y-93567449D01*
X147187326Y-93563532D01*
X147185768Y-93542098D01*
X147184414Y-93537186D01*
X147184963Y-93532123D01*
X147183293Y-93513279D01*
X147181457Y-93507007D01*
X147182029Y-93500497D01*
X147180228Y-93483997D01*
X147177710Y-93476001D01*
X147178226Y-93467630D01*
X147176273Y-93453231D01*
X147172845Y-93443262D01*
X147173148Y-93432727D01*
X147171025Y-93420182D01*
X147166371Y-93407965D01*
X147166214Y-93394894D01*
X147163902Y-93383959D01*
X147157695Y-93369469D01*
X147156731Y-93353730D01*
X147154210Y-93344159D01*
X147146211Y-93327762D01*
X147144061Y-93309644D01*
X147141312Y-93301192D01*
X147131590Y-93283844D01*
X147128026Y-93264279D01*
X147125029Y-93256702D01*
X147114185Y-93239890D01*
X147109377Y-93220468D01*
X147106114Y-93213519D01*
X147090864Y-93192837D01*
X147082707Y-93168468D01*
X147078581Y-93161252D01*
X147062465Y-93142717D01*
X147059909Y-93135555D01*
X147037893Y-93111225D01*
X147016371Y-93071458D01*
X147004017Y-93056563D01*
X146971136Y-93029863D01*
X146961847Y-93015012D01*
X146934453Y-92995491D01*
X146916779Y-92975164D01*
X146913127Y-92973344D01*
X146894454Y-92952708D01*
X146878605Y-92940933D01*
X146856849Y-92930622D01*
X146856238Y-92929955D01*
X146837126Y-92921042D01*
X146812588Y-92901117D01*
X146794437Y-92895714D01*
X146761026Y-92871905D01*
X146741836Y-92863271D01*
X146689119Y-92851125D01*
X146655771Y-92835320D01*
X146653006Y-92835182D01*
X146632750Y-92825736D01*
X146610377Y-92820261D01*
X146562774Y-92818182D01*
X146517072Y-92804716D01*
X146491671Y-92802419D01*
X146453015Y-92806538D01*
X146414661Y-92800169D01*
X146386393Y-92801068D01*
X146355223Y-92808305D01*
X146323293Y-92806248D01*
X146292310Y-92810362D01*
X146266991Y-92818988D01*
X146240246Y-92819505D01*
X146206706Y-92826853D01*
X146185829Y-92835977D01*
X146163141Y-92838036D01*
X146127201Y-92848638D01*
X146112671Y-92856262D01*
X146096426Y-92858579D01*
X146069382Y-92868086D01*
X146058928Y-92874273D01*
X146046975Y-92876442D01*
X146009380Y-92891278D01*
X145999983Y-92897330D01*
X145989061Y-92899708D01*
X145948824Y-92917229D01*
X145940991Y-92922669D01*
X145931741Y-92924972D01*
X145889432Y-92944909D01*
X145882595Y-92949964D01*
X145874402Y-92952236D01*
X145840247Y-92969448D01*
X145869731Y-92898443D01*
X145869753Y-92873769D01*
X145953454Y-92869778D01*
X146354005Y-92703864D01*
X146428139Y-92457745D01*
X145600000Y-91629605D01*
X145585858Y-91643748D01*
X145406253Y-91464143D01*
X145420395Y-91450000D01*
X145406252Y-91435858D01*
X145585858Y-91256252D01*
X145600000Y-91270395D01*
X145614142Y-91256252D01*
X145793748Y-91435858D01*
X145779605Y-91450000D01*
X146607745Y-92278139D01*
X146853864Y-92204005D01*
X147046965Y-91666777D01*
X147019778Y-91096546D01*
X146856351Y-90702000D01*
X148061937Y-90702000D01*
X148061937Y-91498780D01*
G36*
X135471242Y-90862499D02*
X135470760Y-91415077D01*
X135681777Y-91925777D01*
X136072167Y-92316850D01*
X136582499Y-92528758D01*
X137135077Y-92529240D01*
X137308108Y-92457745D01*
X138171861Y-92457745D01*
X138245995Y-92703864D01*
X138783223Y-92896965D01*
X139353454Y-92869778D01*
X139754005Y-92703864D01*
X139828139Y-92457745D01*
X139000000Y-91629605D01*
X138171861Y-92457745D01*
X137308108Y-92457745D01*
X137645777Y-92318223D01*
X137756936Y-92207258D01*
X137992255Y-92278139D01*
X138820395Y-91450000D01*
X138806252Y-91435858D01*
X138985858Y-91256252D01*
X139000000Y-91270395D01*
X139014142Y-91256252D01*
X139193748Y-91435858D01*
X139179605Y-91450000D01*
X140007745Y-92278139D01*
X140253864Y-92204005D01*
X140446965Y-91666777D01*
X140419778Y-91096546D01*
X140256351Y-90702000D01*
X144343978Y-90702000D01*
X144153035Y-91233223D01*
X144180222Y-91803454D01*
X144253275Y-91979820D01*
X144109982Y-92122864D01*
X144050000Y-92110717D01*
X142850000Y-92110717D01*
X142617648Y-92154437D01*
X142404247Y-92291757D01*
X142350666Y-92370174D01*
X142308243Y-92304247D01*
X142098717Y-92161083D01*
X141850000Y-92110717D01*
X140650000Y-92110717D01*
X140417648Y-92154437D01*
X140204247Y-92291757D01*
X140061083Y-92501283D01*
X140010717Y-92750000D01*
X140010717Y-93650000D01*
X140054437Y-93882352D01*
X140191757Y-94095753D01*
X140271150Y-94150000D01*
X140255750Y-94150000D01*
X140097000Y-94308750D01*
X140097000Y-95033000D01*
X141046250Y-95033000D01*
X141205000Y-94874250D01*
X141205000Y-94751874D01*
X141949125Y-95496000D01*
X141205000Y-95496000D01*
X141205000Y-95445750D01*
X141046250Y-95287000D01*
X140097000Y-95287000D01*
X140097000Y-95307000D01*
X139998146Y-95307000D01*
X139933771Y-95280269D01*
X139823000Y-95280172D01*
X139823000Y-95033000D01*
X139843000Y-95033000D01*
X139843000Y-94308750D01*
X139684250Y-94150000D01*
X139243691Y-94150000D01*
X139010302Y-94246673D01*
X139003180Y-94253795D01*
X138918717Y-94196083D01*
X138670000Y-94145717D01*
X137470000Y-94145717D01*
X137317982Y-94174321D01*
X137115202Y-94038827D01*
X137091558Y-94034124D01*
X136846099Y-93985299D01*
X134523204Y-93985299D01*
X134552131Y-93956422D01*
X134876630Y-93174943D01*
X134877368Y-92328770D01*
X134554234Y-91546726D01*
X133956422Y-90947869D01*
X133364305Y-90702000D01*
X135537887Y-90702000D01*
X135471242Y-90862499D01*
X135471242Y-90862499D01*
G37*
X135471242Y-90862499D02*
X135470760Y-91415077D01*
X135681777Y-91925777D01*
X136072167Y-92316850D01*
X136582499Y-92528758D01*
X137135077Y-92529240D01*
X137308108Y-92457745D01*
X138171861Y-92457745D01*
X138245995Y-92703864D01*
X138783223Y-92896965D01*
X139353454Y-92869778D01*
X139754005Y-92703864D01*
X139828139Y-92457745D01*
X139000000Y-91629605D01*
X138171861Y-92457745D01*
X137308108Y-92457745D01*
X137645777Y-92318223D01*
X137756936Y-92207258D01*
X137992255Y-92278139D01*
X138820395Y-91450000D01*
X138806252Y-91435858D01*
X138985858Y-91256252D01*
X139000000Y-91270395D01*
X139014142Y-91256252D01*
X139193748Y-91435858D01*
X139179605Y-91450000D01*
X140007745Y-92278139D01*
X140253864Y-92204005D01*
X140446965Y-91666777D01*
X140419778Y-91096546D01*
X140256351Y-90702000D01*
X144343978Y-90702000D01*
X144153035Y-91233223D01*
X144180222Y-91803454D01*
X144253275Y-91979820D01*
X144109982Y-92122864D01*
X144050000Y-92110717D01*
X142850000Y-92110717D01*
X142617648Y-92154437D01*
X142404247Y-92291757D01*
X142350666Y-92370174D01*
X142308243Y-92304247D01*
X142098717Y-92161083D01*
X141850000Y-92110717D01*
X140650000Y-92110717D01*
X140417648Y-92154437D01*
X140204247Y-92291757D01*
X140061083Y-92501283D01*
X140010717Y-92750000D01*
X140010717Y-93650000D01*
X140054437Y-93882352D01*
X140191757Y-94095753D01*
X140271150Y-94150000D01*
X140255750Y-94150000D01*
X140097000Y-94308750D01*
X140097000Y-95033000D01*
X141046250Y-95033000D01*
X141205000Y-94874250D01*
X141205000Y-94751874D01*
X141949125Y-95496000D01*
X141205000Y-95496000D01*
X141205000Y-95445750D01*
X141046250Y-95287000D01*
X140097000Y-95287000D01*
X140097000Y-95307000D01*
X139998146Y-95307000D01*
X139933771Y-95280269D01*
X139823000Y-95280172D01*
X139823000Y-95033000D01*
X139843000Y-95033000D01*
X139843000Y-94308750D01*
X139684250Y-94150000D01*
X139243691Y-94150000D01*
X139010302Y-94246673D01*
X139003180Y-94253795D01*
X138918717Y-94196083D01*
X138670000Y-94145717D01*
X137470000Y-94145717D01*
X137317982Y-94174321D01*
X137115202Y-94038827D01*
X137091558Y-94034124D01*
X136846099Y-93985299D01*
X134523204Y-93985299D01*
X134552131Y-93956422D01*
X134876630Y-93174943D01*
X134877368Y-92328770D01*
X134554234Y-91546726D01*
X133956422Y-90947869D01*
X133364305Y-90702000D01*
X135537887Y-90702000D01*
X135471242Y-90862499D01*
G36*
X154164113Y-93572862D02*
X154156673Y-93580302D01*
X154060000Y-93813691D01*
X154060000Y-94254250D01*
X154218750Y-94413000D01*
X154943000Y-94413000D01*
X154943000Y-94393000D01*
X155197000Y-94393000D01*
X155197000Y-94413000D01*
X155217000Y-94413000D01*
X155217000Y-94667000D01*
X155197000Y-94667000D01*
X155197000Y-94687000D01*
X154943000Y-94687000D01*
X154943000Y-94667000D01*
X154230554Y-94667000D01*
X154148717Y-94611083D01*
X154053200Y-94591740D01*
X154053200Y-93514394D01*
X154105029Y-93481043D01*
X154164113Y-93572862D01*
X154164113Y-93572862D01*
G37*
X154164113Y-93572862D02*
X154156673Y-93580302D01*
X154060000Y-93813691D01*
X154060000Y-94254250D01*
X154218750Y-94413000D01*
X154943000Y-94413000D01*
X154943000Y-94393000D01*
X155197000Y-94393000D01*
X155197000Y-94413000D01*
X155217000Y-94413000D01*
X155217000Y-94667000D01*
X155197000Y-94667000D01*
X155197000Y-94687000D01*
X154943000Y-94687000D01*
X154943000Y-94667000D01*
X154230554Y-94667000D01*
X154148717Y-94611083D01*
X154053200Y-94591740D01*
X154053200Y-93514394D01*
X154105029Y-93481043D01*
X154164113Y-93572862D01*
G36*
X165298000Y-94429052D02*
X165214228Y-94345133D01*
X164824749Y-94183407D01*
X165052131Y-93956422D01*
X165298000Y-93364305D01*
X165298000Y-94429052D01*
X165298000Y-94429052D01*
G37*
X165298000Y-94429052D02*
X165214228Y-94345133D01*
X164824749Y-94183407D01*
X165052131Y-93956422D01*
X165298000Y-93364305D01*
X165298000Y-94429052D01*
G36*
X157559437Y-93222352D02*
X157696757Y-93435753D01*
X157802646Y-93508104D01*
X157657000Y-93653750D01*
X157657000Y-93748222D01*
X157566083Y-93881283D01*
X157530524Y-94056879D01*
X157500563Y-93897648D01*
X157403000Y-93746031D01*
X157403000Y-93653750D01*
X157257500Y-93508250D01*
X157350753Y-93448243D01*
X157493917Y-93238717D01*
X157529476Y-93063121D01*
X157559437Y-93222352D01*
X157559437Y-93222352D01*
G37*
X157559437Y-93222352D02*
X157696757Y-93435753D01*
X157802646Y-93508104D01*
X157657000Y-93653750D01*
X157657000Y-93748222D01*
X157566083Y-93881283D01*
X157530524Y-94056879D01*
X157500563Y-93897648D01*
X157403000Y-93746031D01*
X157403000Y-93653750D01*
X157257500Y-93508250D01*
X157350753Y-93448243D01*
X157493917Y-93238717D01*
X157529476Y-93063121D01*
X157559437Y-93222352D01*
M02*
