G04 #@! TF.FileFunction,Soldermask,Top*
%FSLAX46Y46*%
G04 Gerber Fmt 4.6, Leading zero omitted, Abs format (unit mm)*
G04 Created by KiCad (PCBNEW 4.0.1-stable) date Thursday, January 07, 2016 'PMt' 01:11:05 PM*
%MOMM*%
G01*
G04 APERTURE LIST*
%ADD10C,0.100000*%
%ADD11R,1.600000X1.150000*%
%ADD12R,1.150000X1.600000*%
%ADD13R,1.197560X1.197560*%
%ADD14R,2.127200X2.127200*%
%ADD15O,2.127200X2.127200*%
%ADD16R,1.300000X1.600000*%
%ADD17R,1.600000X1.300000*%
%ADD18R,0.680000X1.900000*%
%ADD19R,1.900000X0.680000*%
%ADD20R,1.100000X0.600000*%
%ADD21R,1.050000X1.460000*%
%ADD22R,2.400000X2.000000*%
%ADD23C,1.924000*%
%ADD24C,2.000000*%
%ADD25R,0.750000X0.400000*%
%ADD26R,0.950000X0.600000*%
%ADD27R,0.400000X0.750000*%
%ADD28R,0.600000X0.950000*%
%ADD29R,1.900000X1.740000*%
%ADD30R,0.800000X2.500000*%
G04 APERTURE END LIST*
D10*
D11*
X138830000Y-100170000D03*
X136930000Y-100170000D03*
D12*
X151610000Y-104560000D03*
X151610000Y-102660000D03*
X131200000Y-104550000D03*
X131200000Y-106450000D03*
X131250000Y-117000000D03*
X131250000Y-115100000D03*
D11*
X149060000Y-118330000D03*
X150960000Y-118330000D03*
D12*
X155070000Y-92640000D03*
X155070000Y-94540000D03*
D13*
X153300000Y-91100000D03*
X153300000Y-92598600D03*
X151150000Y-91100000D03*
X151150000Y-92598600D03*
X149100000Y-91100000D03*
X149100000Y-92598600D03*
D14*
X145200000Y-124900000D03*
D15*
X145200000Y-122360000D03*
X142660000Y-124900000D03*
X142660000Y-122360000D03*
X140120000Y-124900000D03*
X140120000Y-122360000D03*
X137580000Y-124900000D03*
X137580000Y-122360000D03*
D16*
X153450000Y-98000000D03*
X153450000Y-95800000D03*
X151250000Y-98000000D03*
X151250000Y-95800000D03*
X149050000Y-98000000D03*
X149050000Y-95800000D03*
D17*
X141250000Y-93200000D03*
X143450000Y-93200000D03*
D18*
X147500000Y-102150000D03*
X147000000Y-102150000D03*
X146500000Y-102150000D03*
X146000000Y-102150000D03*
X145500000Y-102150000D03*
X145000000Y-102150000D03*
X144500000Y-102150000D03*
X144000000Y-102150000D03*
X143500000Y-102150000D03*
X143000000Y-102150000D03*
X142500000Y-102150000D03*
X142000000Y-102150000D03*
X141500000Y-102150000D03*
X141000000Y-102150000D03*
X140500000Y-102150000D03*
X140000000Y-102150000D03*
X139500000Y-102150000D03*
X139000000Y-102150000D03*
X138500000Y-102150000D03*
X138000000Y-102150000D03*
X137500000Y-102150000D03*
X137000000Y-102150000D03*
X136500000Y-102150000D03*
X136000000Y-102150000D03*
X135500000Y-102150000D03*
D19*
X133600000Y-104050000D03*
X133600000Y-104550000D03*
X133600000Y-105050000D03*
X133600000Y-105550000D03*
X133600000Y-106050000D03*
X133600000Y-106550000D03*
X133600000Y-107050000D03*
X133600000Y-107550000D03*
X133600000Y-108050000D03*
X133600000Y-108550000D03*
X133600000Y-109050000D03*
X133600000Y-109550000D03*
X133600000Y-110050000D03*
X133600000Y-110550000D03*
X133600000Y-111050000D03*
X133600000Y-111550000D03*
X133600000Y-112050000D03*
X133600000Y-112550000D03*
X133600000Y-113050000D03*
X133600000Y-113550000D03*
X133600000Y-114050000D03*
X133600000Y-114550000D03*
X133600000Y-115050000D03*
X133600000Y-115550000D03*
X133600000Y-116050000D03*
D18*
X135500000Y-117950000D03*
X136000000Y-117950000D03*
X136500000Y-117950000D03*
X137000000Y-117950000D03*
X137500000Y-117950000D03*
X138000000Y-117950000D03*
X138500000Y-117950000D03*
X139000000Y-117950000D03*
X139500000Y-117950000D03*
X140000000Y-117950000D03*
X140500000Y-117950000D03*
X141000000Y-117950000D03*
X141500000Y-117950000D03*
X142000000Y-117950000D03*
X142500000Y-117950000D03*
X143000000Y-117950000D03*
X143500000Y-117950000D03*
X144000000Y-117950000D03*
X144500000Y-117950000D03*
X145000000Y-117950000D03*
X145500000Y-117950000D03*
X146000000Y-117950000D03*
X146500000Y-117950000D03*
X147000000Y-117950000D03*
X147500000Y-117950000D03*
D19*
X149400000Y-116050000D03*
X149400000Y-115550000D03*
X149400000Y-115050000D03*
X149400000Y-114550000D03*
X149400000Y-114050000D03*
X149400000Y-113550000D03*
X149400000Y-113050000D03*
X149400000Y-112550000D03*
X149400000Y-112050000D03*
X149400000Y-111550000D03*
X149400000Y-111050000D03*
X149400000Y-110550000D03*
X149400000Y-110050000D03*
X149400000Y-109550000D03*
X149400000Y-109050000D03*
X149400000Y-108550000D03*
X149400000Y-108050000D03*
X149400000Y-107550000D03*
X149400000Y-107050000D03*
X149400000Y-106550000D03*
X149400000Y-106050000D03*
X149400000Y-105550000D03*
X149400000Y-105050000D03*
X149400000Y-104550000D03*
X149400000Y-104050000D03*
D11*
X156780000Y-124900000D03*
X158680000Y-124900000D03*
D20*
X161190000Y-100200000D03*
X161190000Y-100600000D03*
X161190000Y-101000000D03*
X161190000Y-101400000D03*
X161190000Y-101800000D03*
X161190000Y-102200000D03*
X161190000Y-102600000D03*
X161190000Y-103000000D03*
X161190000Y-103400000D03*
X161190000Y-103800000D03*
X161190000Y-107800000D03*
X161190000Y-107400000D03*
X161190000Y-107000000D03*
X161190000Y-106600000D03*
X161190000Y-106200000D03*
X161190000Y-105800000D03*
X161190000Y-105400000D03*
X161190000Y-105000000D03*
X161190000Y-104600000D03*
X161190000Y-104200000D03*
X161190000Y-108200000D03*
X161190000Y-108600000D03*
X161190000Y-109000000D03*
X161190000Y-109400000D03*
X161190000Y-109800000D03*
X161190000Y-110200000D03*
X161190000Y-110600000D03*
X161190000Y-111000000D03*
X161190000Y-111400000D03*
X161190000Y-111800000D03*
X161190000Y-115800000D03*
X161190000Y-115400000D03*
X161190000Y-115000000D03*
X161190000Y-114600000D03*
X161190000Y-114200000D03*
X161190000Y-113800000D03*
X161190000Y-113400000D03*
X161190000Y-113000000D03*
X161190000Y-112600000D03*
X161190000Y-112200000D03*
X158110000Y-112200000D03*
X158110000Y-112600000D03*
X158110000Y-113000000D03*
X158110000Y-113400000D03*
X158110000Y-113800000D03*
X158110000Y-114200000D03*
X158110000Y-114600000D03*
X158110000Y-115000000D03*
X158110000Y-115400000D03*
X158110000Y-115800000D03*
X158110000Y-111800000D03*
X158110000Y-111400000D03*
X158110000Y-111000000D03*
X158110000Y-110600000D03*
X158110000Y-110200000D03*
X158110000Y-109800000D03*
X158110000Y-109400000D03*
X158110000Y-109000000D03*
X158110000Y-108600000D03*
X158110000Y-108200000D03*
X158110000Y-104200000D03*
X158110000Y-104600000D03*
X158110000Y-105000000D03*
X158110000Y-105400000D03*
X158110000Y-105800000D03*
X158110000Y-106200000D03*
X158110000Y-106600000D03*
X158110000Y-107000000D03*
X158110000Y-107400000D03*
X158110000Y-107800000D03*
X158110000Y-103800000D03*
X158110000Y-103400000D03*
X158110000Y-103000000D03*
X158110000Y-102600000D03*
X158110000Y-102200000D03*
X158110000Y-101800000D03*
X158110000Y-101400000D03*
X158110000Y-101000000D03*
X158110000Y-100600000D03*
X158110000Y-100200000D03*
D17*
X147860000Y-124950000D03*
X150060000Y-124950000D03*
X154290000Y-124960000D03*
X152090000Y-124960000D03*
D21*
X156580000Y-94660000D03*
X157530000Y-94660000D03*
X158480000Y-94660000D03*
X158480000Y-92460000D03*
X156580000Y-92460000D03*
D22*
X159800000Y-96900000D03*
X155800000Y-96900000D03*
D11*
X138830000Y-98530000D03*
X136930000Y-98530000D03*
D23*
X136860000Y-91140000D03*
D24*
X139000000Y-91450000D03*
X145600000Y-91450000D03*
D23*
X163525200Y-97078800D03*
D12*
X136930000Y-96670000D03*
X136930000Y-94770000D03*
X130920000Y-97450000D03*
X130920000Y-99350000D03*
D25*
X135410000Y-99410000D03*
D26*
X135410000Y-99010000D03*
X135410000Y-98610000D03*
X135410000Y-98210000D03*
X135410000Y-97810000D03*
D25*
X135410000Y-97410000D03*
D27*
X134910000Y-96910000D03*
D28*
X134510000Y-96910000D03*
X134110000Y-96910000D03*
X133710000Y-96910000D03*
X133310000Y-96910000D03*
D27*
X132910000Y-96910000D03*
D25*
X132410000Y-97410000D03*
D26*
X132410000Y-97810000D03*
X132410000Y-98210000D03*
X132410000Y-98610000D03*
X132410000Y-99010000D03*
D25*
X132410000Y-99410000D03*
D27*
X132910000Y-99910000D03*
D28*
X133310000Y-99910000D03*
X133710000Y-99910000D03*
X134110000Y-99910000D03*
X134510000Y-99910000D03*
D27*
X134910000Y-99910000D03*
D29*
X133910000Y-98410000D03*
D30*
X143300000Y-98580000D03*
X140900000Y-98580000D03*
X142100000Y-98580000D03*
M02*
