M48
INCH,TZ
T1C0.013
T2C0.013
T3C0.040
T4C0.047
T5C0.118
%
G90
G05
T1
X51531Y-39610
X51543Y-37866
X51551Y-40606
X51587Y-42799
X51673Y-44843
X52016Y-41858
X52043Y-37894
X52067Y-42602
X52068Y-42974
X52340Y-46063
X52531Y-37413
X52598Y-40689
X52803Y-39949
X52987Y-37543
X53335Y-37504
X53366Y-44921
X53708Y-44718
X53882Y-35882
X53992Y-44932
X54297Y-44762
X54326Y-42854
X54354Y-38362
X54539Y-37937
X54617Y-45306
X54811Y-40768
X54953Y-45643
X55016Y-37894
X55187Y-45876
X55257Y-41443
X55295Y-39106
X55342Y-40993
X55380Y-43200
X55513Y-45827
X55669Y-44587
X55700Y-37635
X55740Y-43620
X55945Y-45807
X56114Y-40760
X56220Y-43740
X56299Y-45925
X56339Y-44488
X56341Y-44903
X56562Y-45149
X56732Y-41602
X56823Y-42753
X56823Y-37850
X56880Y-43380
X56996Y-42472
X57004Y-40791
X57047Y-36498
X57106Y-41217
X57323Y-40707
X57480Y-42971
X57539Y-36496
X57660Y-43860
X58283Y-44882
X58306Y-41371
X58306Y-42284
X58322Y-40403
X58417Y-40008
X58744Y-48256
X58839Y-46127
X59091Y-39524
X59114Y-36004
X59307Y-44030
X59417Y-46055
X59515Y-42213
X59592Y-44215
X59638Y-48272
X59646Y-43563
X59654Y-42516
X59764Y-44528
X59966Y-42176
X60017Y-43807
X60026Y-47482
X60055Y-45878
X60134Y-40339
X60138Y-41000
X60142Y-42766
X60166Y-43456
X60184Y-48482
X60305Y-39435
X60482Y-47622
X60500Y-42472
X60506Y-48552
X60610Y-36870
X60664Y-44790
X60691Y-47367
X60718Y-43783
X60802Y-48698
X60902Y-45198
X60943Y-35835
X60992Y-47502
X61035Y-43625
X61165Y-43307
X61243Y-47287
X61260Y-48826
X61280Y-35835
X61417Y-41339
X61417Y-41339
X61429Y-39283
X61482Y-43482
X61614Y-35835
X61614Y-42421
X61693Y-47272
X61786Y-41943
X61805Y-39341
X61839Y-39795
X61890Y-42303
X61890Y-42598
X61988Y-36811
X62028Y-38488
X62055Y-38942
X62480Y-38957
X62728Y-48512
X62946Y-49098
X62992Y-43740
X63002Y-48236
X63091Y-47854
X63563Y-47638
X63642Y-38228
X63823Y-39398
X63826Y-43927
X63840Y-43598
X63841Y-44257
T2
X61020Y-40473
X61057Y-45495
X61113Y-40790
X61117Y-44560
X61118Y-45819
X61215Y-41599
X61326Y-44986
X61411Y-44203
X61465Y-45789
X61634Y-43071
X61634Y-42756
X61752Y-45986
X61890Y-42913
X61890Y-43248
X61928Y-45707
X62272Y-45809
X63839Y-42028
X63839Y-42323
X63839Y-42618
X63839Y-43248
X63839Y-42913
X64217Y-39449
X64531Y-39922
X64543Y-39501
T3
X54756Y-48173
X54756Y-49173
X55756Y-48173
X55756Y-49173
X56756Y-48173
X56756Y-49173
X57756Y-48173
X57756Y-49173
T4
X54724Y-36004
X57323Y-36004
T5
X52264Y-36516
X52264Y-48524
X64272Y-36516
X64272Y-48524
T0
M30
