G04 #@! TF.FileFunction,Copper,L1,Top,Signal*
%FSLAX46Y46*%
G04 Gerber Fmt 4.6, Leading zero omitted, Abs format (unit mm)*
G04 Created by KiCad (PCBNEW (2015-11-03 BZR 6296)-product) date Sunday, November 08, 2015 'AMt' 09:49:25 AM*
%MOMM*%
G01*
G04 APERTURE LIST*
%ADD10C,0.100000*%
%ADD11C,0.010000*%
%ADD12C,1.600000*%
%ADD13R,0.550000X0.200000*%
%ADD14R,0.200000X0.550000*%
%ADD15R,0.875000X0.800000*%
%ADD16R,1.200000X0.750000*%
%ADD17R,0.750000X1.200000*%
%ADD18R,0.797560X0.797560*%
%ADD19R,1.727200X1.727200*%
%ADD20O,1.727200X1.727200*%
%ADD21R,0.900000X1.200000*%
%ADD22R,1.200000X0.900000*%
%ADD23R,0.280000X1.500000*%
%ADD24R,1.500000X0.280000*%
%ADD25R,1.900000X2.600000*%
%ADD26R,0.700000X0.200000*%
%ADD27R,0.650000X1.060000*%
%ADD28C,1.000000*%
%ADD29R,0.500000X0.600000*%
%ADD30R,2.000000X1.600000*%
%ADD31C,0.685800*%
%ADD32C,0.685801*%
%ADD33C,0.152400*%
%ADD34C,0.254000*%
%ADD35C,0.175000*%
G04 APERTURE END LIST*
D10*
D11*
G36*
X137609423Y-109705069D02*
X137641094Y-109705572D01*
X137668725Y-109706621D01*
X137693824Y-109708340D01*
X137717893Y-109710851D01*
X137742439Y-109714276D01*
X137768967Y-109718740D01*
X137790931Y-109722815D01*
X137849786Y-109735578D01*
X137910883Y-109751645D01*
X137971336Y-109770182D01*
X138028260Y-109790354D01*
X138039639Y-109794777D01*
X138082817Y-109811970D01*
X138125192Y-109829108D01*
X138167150Y-109846370D01*
X138209080Y-109863937D01*
X138251369Y-109881989D01*
X138294404Y-109900707D01*
X138338573Y-109920271D01*
X138384265Y-109940862D01*
X138431866Y-109962659D01*
X138481764Y-109985844D01*
X138534347Y-110010597D01*
X138590003Y-110037099D01*
X138649118Y-110065528D01*
X138712082Y-110096067D01*
X138779280Y-110128896D01*
X138851102Y-110164194D01*
X138927935Y-110202143D01*
X139010166Y-110242923D01*
X139098183Y-110286714D01*
X139120903Y-110298037D01*
X139199183Y-110336981D01*
X139271702Y-110372880D01*
X139338949Y-110405961D01*
X139401415Y-110436448D01*
X139459589Y-110464567D01*
X139513962Y-110490545D01*
X139565024Y-110514606D01*
X139613265Y-110536978D01*
X139659175Y-110557885D01*
X139703244Y-110577553D01*
X139745962Y-110596208D01*
X139787819Y-110614076D01*
X139829306Y-110631382D01*
X139870912Y-110648353D01*
X139913128Y-110665213D01*
X139946403Y-110678281D01*
X139969926Y-110687518D01*
X139991319Y-110696037D01*
X140009688Y-110703473D01*
X140024143Y-110709460D01*
X140033791Y-110713635D01*
X140037732Y-110715624D01*
X140037199Y-110719719D01*
X140031987Y-110727737D01*
X140022739Y-110738968D01*
X140010100Y-110752704D01*
X139994712Y-110768236D01*
X139977219Y-110784855D01*
X139964178Y-110796657D01*
X139896199Y-110852758D01*
X139821764Y-110906253D01*
X139740994Y-110957086D01*
X139654011Y-111005200D01*
X139560938Y-111050538D01*
X139461897Y-111093043D01*
X139357009Y-111132658D01*
X139246398Y-111169327D01*
X139130185Y-111202992D01*
X139043292Y-111225296D01*
X138942697Y-111248538D01*
X138847709Y-111267867D01*
X138758081Y-111283303D01*
X138673561Y-111294868D01*
X138593901Y-111302580D01*
X138518851Y-111306462D01*
X138448163Y-111306535D01*
X138381587Y-111302818D01*
X138318874Y-111295332D01*
X138281082Y-111288660D01*
X138220450Y-111273748D01*
X138165094Y-111254367D01*
X138115086Y-111230590D01*
X138070499Y-111202491D01*
X138031404Y-111170142D01*
X137997873Y-111133617D01*
X137969979Y-111092988D01*
X137947795Y-111048329D01*
X137931392Y-110999713D01*
X137920842Y-110947214D01*
X137917903Y-110920940D01*
X137917085Y-110909833D01*
X137916149Y-110901698D01*
X137914111Y-110895994D01*
X137909991Y-110892178D01*
X137902806Y-110889710D01*
X137891575Y-110888046D01*
X137875315Y-110886646D01*
X137853045Y-110884967D01*
X137852667Y-110884937D01*
X137825115Y-110882710D01*
X137803944Y-110880816D01*
X137788491Y-110879166D01*
X137778094Y-110877673D01*
X137772090Y-110876249D01*
X137769817Y-110874807D01*
X137769918Y-110873974D01*
X137767973Y-110872665D01*
X137761139Y-110872440D01*
X137751468Y-110873114D01*
X137741010Y-110874497D01*
X137731817Y-110876403D01*
X137727431Y-110877859D01*
X137721923Y-110879376D01*
X137710616Y-110881836D01*
X137694669Y-110885008D01*
X137675241Y-110888665D01*
X137653489Y-110892578D01*
X137648056Y-110893529D01*
X137566570Y-110907036D01*
X137489154Y-110918409D01*
X137413266Y-110927987D01*
X137336367Y-110936109D01*
X137312917Y-110938294D01*
X137290487Y-110939888D01*
X137263281Y-110941121D01*
X137232652Y-110941993D01*
X137199951Y-110942504D01*
X137166529Y-110942652D01*
X137133738Y-110942438D01*
X137102930Y-110941861D01*
X137075455Y-110940920D01*
X137052666Y-110939615D01*
X137039514Y-110938402D01*
X136966686Y-110928747D01*
X136895829Y-110916860D01*
X136825068Y-110902349D01*
X136752527Y-110884822D01*
X136676331Y-110863890D01*
X136660857Y-110859368D01*
X136638243Y-110852575D01*
X136621577Y-110847222D01*
X136609982Y-110842959D01*
X136602578Y-110839438D01*
X136598490Y-110836309D01*
X136597057Y-110833968D01*
X136596091Y-110828855D01*
X136594509Y-110817561D01*
X136592410Y-110800925D01*
X136589895Y-110779783D01*
X136587063Y-110754975D01*
X136584013Y-110727338D01*
X136580918Y-110698392D01*
X136577321Y-110664399D01*
X136574435Y-110636757D01*
X136572312Y-110614791D01*
X136571001Y-110597830D01*
X136570553Y-110585198D01*
X136571018Y-110576223D01*
X136572447Y-110570230D01*
X136574890Y-110566547D01*
X136578397Y-110564499D01*
X136583018Y-110563413D01*
X136588805Y-110562615D01*
X136591091Y-110562283D01*
X136602337Y-110560254D01*
X136619389Y-110556797D01*
X136641193Y-110552151D01*
X136666700Y-110546555D01*
X136694858Y-110540249D01*
X136724615Y-110533471D01*
X136754921Y-110526461D01*
X136784725Y-110519457D01*
X136812975Y-110512700D01*
X136838620Y-110506427D01*
X136857833Y-110501593D01*
X136960462Y-110474234D01*
X137056453Y-110446397D01*
X137146213Y-110417945D01*
X137230153Y-110388742D01*
X137308680Y-110358650D01*
X137382203Y-110327534D01*
X137394056Y-110322213D01*
X137464730Y-110287760D01*
X137536700Y-110248022D01*
X137608246Y-110204092D01*
X137677648Y-110157066D01*
X137743190Y-110108037D01*
X137787403Y-110071786D01*
X137805065Y-110056423D01*
X137823398Y-110040012D01*
X137841684Y-110023244D01*
X137859206Y-110006810D01*
X137875249Y-109991401D01*
X137889095Y-109977709D01*
X137900027Y-109966424D01*
X137907329Y-109958238D01*
X137910283Y-109953841D01*
X137910219Y-109953368D01*
X137904114Y-109950119D01*
X137892137Y-109945797D01*
X137875347Y-109940663D01*
X137854801Y-109934980D01*
X137831556Y-109929011D01*
X137806670Y-109923019D01*
X137781199Y-109917265D01*
X137756201Y-109912013D01*
X137732732Y-109907526D01*
X137711852Y-109904065D01*
X137711556Y-109904021D01*
X137656513Y-109897477D01*
X137602179Y-109894423D01*
X137547039Y-109894893D01*
X137489581Y-109898923D01*
X137428289Y-109906548D01*
X137398461Y-109911261D01*
X137305204Y-109929850D01*
X137215771Y-109953707D01*
X137130377Y-109982725D01*
X137049234Y-110016797D01*
X136972557Y-110055818D01*
X136900558Y-110099681D01*
X136833451Y-110148280D01*
X136771449Y-110201509D01*
X136727949Y-110244915D01*
X136685574Y-110293556D01*
X136647536Y-110344333D01*
X136614493Y-110396230D01*
X136587105Y-110448230D01*
X136569656Y-110489355D01*
X136564680Y-110501769D01*
X136560056Y-110511937D01*
X136556789Y-110517652D01*
X136553532Y-110520958D01*
X136545631Y-110528670D01*
X136533561Y-110540334D01*
X136517793Y-110555496D01*
X136498801Y-110573704D01*
X136477057Y-110594504D01*
X136453034Y-110617442D01*
X136427205Y-110642065D01*
X136408042Y-110660309D01*
X136381341Y-110685737D01*
X136356208Y-110709712D01*
X136333104Y-110731794D01*
X136312486Y-110751540D01*
X136294813Y-110768513D01*
X136280545Y-110782270D01*
X136270139Y-110792371D01*
X136264055Y-110798376D01*
X136262607Y-110799922D01*
X136265572Y-110801699D01*
X136274384Y-110806052D01*
X136288436Y-110812701D01*
X136307123Y-110821368D01*
X136329836Y-110831773D01*
X136355972Y-110843637D01*
X136384923Y-110856683D01*
X136416083Y-110870630D01*
X136423468Y-110873923D01*
X136585126Y-110945942D01*
X136601981Y-111006214D01*
X136610094Y-111034199D01*
X136619941Y-111066534D01*
X136630916Y-111101347D01*
X136642411Y-111136762D01*
X136653817Y-111170907D01*
X136664527Y-111201907D01*
X136673511Y-111226757D01*
X136678959Y-111240443D01*
X136683479Y-111248917D01*
X136688136Y-111253733D01*
X136693830Y-111256392D01*
X136701132Y-111257558D01*
X136714453Y-111258496D01*
X136732760Y-111259209D01*
X136755020Y-111259697D01*
X136780201Y-111259965D01*
X136807269Y-111260013D01*
X136835192Y-111259845D01*
X136862937Y-111259461D01*
X136889472Y-111258866D01*
X136913763Y-111258060D01*
X136934777Y-111257046D01*
X136951319Y-111255841D01*
X137114261Y-111238212D01*
X137214139Y-111224838D01*
X137256859Y-111218400D01*
X137293678Y-111212100D01*
X137325734Y-111205624D01*
X137354167Y-111198661D01*
X137380116Y-111190899D01*
X137404721Y-111182025D01*
X137429122Y-111171727D01*
X137454457Y-111159694D01*
X137457556Y-111158147D01*
X137513115Y-111126813D01*
X137567664Y-111089211D01*
X137620233Y-111046128D01*
X137669852Y-110998353D01*
X137710314Y-110953042D01*
X137728347Y-110931319D01*
X137730748Y-110956569D01*
X137737775Y-111003991D01*
X137749681Y-111053168D01*
X137765802Y-111102224D01*
X137785477Y-111149282D01*
X137808042Y-111192463D01*
X137821719Y-111214289D01*
X137859340Y-111264006D01*
X137902141Y-111309003D01*
X137950037Y-111349251D01*
X138002937Y-111384723D01*
X138060757Y-111415389D01*
X138123406Y-111441223D01*
X138190799Y-111462197D01*
X138262848Y-111478282D01*
X138339465Y-111489451D01*
X138420562Y-111495676D01*
X138506053Y-111496929D01*
X138595848Y-111493182D01*
X138674639Y-111486139D01*
X138747782Y-111476822D01*
X138825875Y-111464509D01*
X138907621Y-111449481D01*
X138991724Y-111432024D01*
X139076887Y-111412418D01*
X139161813Y-111390949D01*
X139245205Y-111367899D01*
X139321986Y-111344745D01*
X139419460Y-111312112D01*
X139513786Y-111276670D01*
X139604613Y-111238629D01*
X139691592Y-111198203D01*
X139774372Y-111155600D01*
X139852604Y-111111034D01*
X139925937Y-111064714D01*
X139994021Y-111016853D01*
X140056506Y-110967661D01*
X140113041Y-110917350D01*
X140163278Y-110866131D01*
X140206865Y-110814215D01*
X140211516Y-110808103D01*
X140221132Y-110795676D01*
X140227892Y-110788104D01*
X140232929Y-110784422D01*
X140237377Y-110783664D01*
X140239726Y-110784079D01*
X140259163Y-110788388D01*
X140284240Y-110793070D01*
X140313568Y-110797922D01*
X140345757Y-110802737D01*
X140379415Y-110807313D01*
X140413152Y-110811443D01*
X140445578Y-110814923D01*
X140456167Y-110815932D01*
X140487905Y-110818462D01*
X140519888Y-110820184D01*
X140552791Y-110821067D01*
X140587290Y-110821080D01*
X140624060Y-110820194D01*
X140663775Y-110818377D01*
X140707113Y-110815599D01*
X140754746Y-110811829D01*
X140807352Y-110807037D01*
X140865605Y-110801192D01*
X140927125Y-110794600D01*
X141016165Y-110784237D01*
X141111639Y-110772018D01*
X141213193Y-110758007D01*
X141320469Y-110742269D01*
X141433115Y-110724868D01*
X141550774Y-110705867D01*
X141673091Y-110685332D01*
X141799712Y-110663326D01*
X141930280Y-110639914D01*
X142064441Y-110615160D01*
X142201840Y-110589128D01*
X142342121Y-110561882D01*
X142484930Y-110533486D01*
X142629911Y-110504006D01*
X142776709Y-110473505D01*
X142924969Y-110442046D01*
X143074335Y-110409696D01*
X143161972Y-110390408D01*
X143206466Y-110380554D01*
X143244684Y-110372267D01*
X143277258Y-110365680D01*
X143304823Y-110360928D01*
X143328011Y-110358146D01*
X143347455Y-110357468D01*
X143363788Y-110359028D01*
X143377642Y-110362962D01*
X143389652Y-110369404D01*
X143400449Y-110378488D01*
X143410667Y-110390348D01*
X143420938Y-110405120D01*
X143431896Y-110422938D01*
X143444174Y-110443936D01*
X143448453Y-110451295D01*
X143485722Y-110517072D01*
X143520654Y-110582322D01*
X143552855Y-110646214D01*
X143581929Y-110707915D01*
X143607481Y-110766594D01*
X143629117Y-110821419D01*
X143642982Y-110860859D01*
X143658442Y-110913272D01*
X143669158Y-110962184D01*
X143675158Y-111007367D01*
X143676469Y-111048594D01*
X143673119Y-111085635D01*
X143665134Y-111118262D01*
X143652543Y-111146247D01*
X143635372Y-111169362D01*
X143613649Y-111187378D01*
X143603124Y-111193395D01*
X143592991Y-111198154D01*
X143581941Y-111202524D01*
X143569615Y-111206533D01*
X143555657Y-111210209D01*
X143539709Y-111213581D01*
X143521413Y-111216677D01*
X143500414Y-111219524D01*
X143476352Y-111222152D01*
X143448872Y-111224587D01*
X143417615Y-111226859D01*
X143382225Y-111228995D01*
X143342343Y-111231023D01*
X143297613Y-111232973D01*
X143247677Y-111234871D01*
X143192178Y-111236746D01*
X143130759Y-111238626D01*
X143063062Y-111240540D01*
X142988731Y-111242515D01*
X142975000Y-111242869D01*
X142852923Y-111246207D01*
X142737344Y-111249786D01*
X142627707Y-111253639D01*
X142523456Y-111257794D01*
X142424037Y-111262284D01*
X142328895Y-111267138D01*
X142237474Y-111272388D01*
X142149219Y-111278064D01*
X142063574Y-111284196D01*
X141979985Y-111290816D01*
X141897897Y-111297954D01*
X141816754Y-111305640D01*
X141789667Y-111308345D01*
X141660967Y-111322177D01*
X141536502Y-111337273D01*
X141415523Y-111353805D01*
X141297281Y-111371941D01*
X141181028Y-111391851D01*
X141066016Y-111413705D01*
X140951496Y-111437671D01*
X140836721Y-111463920D01*
X140720941Y-111492620D01*
X140603408Y-111523942D01*
X140483373Y-111558054D01*
X140360090Y-111595127D01*
X140232808Y-111635329D01*
X140100780Y-111678830D01*
X139995792Y-111714551D01*
X139945932Y-111732059D01*
X139898400Y-111749485D01*
X139852527Y-111767150D01*
X139807643Y-111785374D01*
X139763080Y-111804476D01*
X139718167Y-111824779D01*
X139672235Y-111846601D01*
X139624615Y-111870263D01*
X139574637Y-111896085D01*
X139521633Y-111924388D01*
X139464932Y-111955492D01*
X139403865Y-111989717D01*
X139337763Y-112027384D01*
X139316694Y-112039493D01*
X139258073Y-112073223D01*
X139205102Y-112103651D01*
X139157334Y-112131025D01*
X139114321Y-112155591D01*
X139075616Y-112177596D01*
X139040771Y-112197287D01*
X139009338Y-112214910D01*
X138980870Y-112230714D01*
X138954919Y-112244944D01*
X138931037Y-112257848D01*
X138908777Y-112269672D01*
X138887692Y-112280664D01*
X138867332Y-112291070D01*
X138847252Y-112301138D01*
X138827003Y-112311113D01*
X138806138Y-112321244D01*
X138804306Y-112322128D01*
X138736867Y-112353565D01*
X138673250Y-112380819D01*
X138612082Y-112404282D01*
X138551992Y-112424345D01*
X138491609Y-112441402D01*
X138429560Y-112455844D01*
X138364474Y-112468064D01*
X138294978Y-112478454D01*
X138230139Y-112486279D01*
X138189152Y-112490039D01*
X138143206Y-112492999D01*
X138094358Y-112495105D01*
X138044663Y-112496301D01*
X137996179Y-112496532D01*
X137950962Y-112495744D01*
X137921458Y-112494508D01*
X137841912Y-112487865D01*
X137761456Y-112476743D01*
X137681278Y-112461443D01*
X137602567Y-112442263D01*
X137526511Y-112419501D01*
X137454298Y-112393456D01*
X137387116Y-112364427D01*
X137369008Y-112355625D01*
X137288028Y-112311372D01*
X137208806Y-112260408D01*
X137131482Y-112202893D01*
X137056195Y-112138983D01*
X136983086Y-112068836D01*
X136912295Y-111992610D01*
X136843960Y-111910463D01*
X136778223Y-111822552D01*
X136715222Y-111729036D01*
X136655097Y-111630070D01*
X136597989Y-111525814D01*
X136552897Y-111435201D01*
X136534559Y-111395287D01*
X136516937Y-111353922D01*
X136499526Y-111309814D01*
X136481819Y-111261672D01*
X136463310Y-111208204D01*
X136458965Y-111195250D01*
X136451296Y-111171804D01*
X136443193Y-111146214D01*
X136435008Y-111119673D01*
X136427093Y-111093373D01*
X136419801Y-111068508D01*
X136413485Y-111046269D01*
X136408496Y-111027848D01*
X136405187Y-111014440D01*
X136404378Y-111010558D01*
X136402209Y-110998996D01*
X136197595Y-110916428D01*
X136161615Y-110901883D01*
X136127607Y-110888085D01*
X136096132Y-110875266D01*
X136067748Y-110863654D01*
X136043014Y-110853480D01*
X136022490Y-110844974D01*
X136006734Y-110838367D01*
X135996307Y-110833889D01*
X135991768Y-110831769D01*
X135991619Y-110831656D01*
X135993960Y-110829006D01*
X136001162Y-110822050D01*
X136012812Y-110811163D01*
X136028495Y-110796724D01*
X136047797Y-110779108D01*
X136070304Y-110758694D01*
X136095601Y-110735859D01*
X136123274Y-110710979D01*
X136152909Y-110684432D01*
X136178286Y-110661769D01*
X136214302Y-110629640D01*
X136245416Y-110601846D01*
X136271998Y-110578033D01*
X136294415Y-110557848D01*
X136313038Y-110540935D01*
X136328235Y-110526942D01*
X136340376Y-110515513D01*
X136349830Y-110506294D01*
X136356965Y-110498931D01*
X136362152Y-110493071D01*
X136365759Y-110488358D01*
X136368156Y-110484439D01*
X136369712Y-110480959D01*
X136370795Y-110477565D01*
X136370979Y-110476897D01*
X136377388Y-110456348D01*
X136386490Y-110431398D01*
X136397560Y-110403816D01*
X136409874Y-110375375D01*
X136422705Y-110347843D01*
X136429300Y-110334554D01*
X136461749Y-110276345D01*
X136498977Y-110220220D01*
X136541666Y-110165249D01*
X136590499Y-110110502D01*
X136603642Y-110096849D01*
X136659151Y-110043310D01*
X136716431Y-109994827D01*
X136776685Y-109950531D01*
X136841117Y-109909557D01*
X136910931Y-109871037D01*
X136931917Y-109860420D01*
X136999971Y-109828548D01*
X137067985Y-109800713D01*
X137137187Y-109776541D01*
X137208807Y-109755659D01*
X137284072Y-109737692D01*
X137364212Y-109722268D01*
X137410680Y-109714752D01*
X137430516Y-109711832D01*
X137447844Y-109709566D01*
X137464061Y-109707870D01*
X137480562Y-109706659D01*
X137498742Y-109705848D01*
X137519998Y-109705355D01*
X137545724Y-109705094D01*
X137572208Y-109704991D01*
X137609423Y-109705069D01*
X137609423Y-109705069D01*
G37*
X137609423Y-109705069D02*
X137641094Y-109705572D01*
X137668725Y-109706621D01*
X137693824Y-109708340D01*
X137717893Y-109710851D01*
X137742439Y-109714276D01*
X137768967Y-109718740D01*
X137790931Y-109722815D01*
X137849786Y-109735578D01*
X137910883Y-109751645D01*
X137971336Y-109770182D01*
X138028260Y-109790354D01*
X138039639Y-109794777D01*
X138082817Y-109811970D01*
X138125192Y-109829108D01*
X138167150Y-109846370D01*
X138209080Y-109863937D01*
X138251369Y-109881989D01*
X138294404Y-109900707D01*
X138338573Y-109920271D01*
X138384265Y-109940862D01*
X138431866Y-109962659D01*
X138481764Y-109985844D01*
X138534347Y-110010597D01*
X138590003Y-110037099D01*
X138649118Y-110065528D01*
X138712082Y-110096067D01*
X138779280Y-110128896D01*
X138851102Y-110164194D01*
X138927935Y-110202143D01*
X139010166Y-110242923D01*
X139098183Y-110286714D01*
X139120903Y-110298037D01*
X139199183Y-110336981D01*
X139271702Y-110372880D01*
X139338949Y-110405961D01*
X139401415Y-110436448D01*
X139459589Y-110464567D01*
X139513962Y-110490545D01*
X139565024Y-110514606D01*
X139613265Y-110536978D01*
X139659175Y-110557885D01*
X139703244Y-110577553D01*
X139745962Y-110596208D01*
X139787819Y-110614076D01*
X139829306Y-110631382D01*
X139870912Y-110648353D01*
X139913128Y-110665213D01*
X139946403Y-110678281D01*
X139969926Y-110687518D01*
X139991319Y-110696037D01*
X140009688Y-110703473D01*
X140024143Y-110709460D01*
X140033791Y-110713635D01*
X140037732Y-110715624D01*
X140037199Y-110719719D01*
X140031987Y-110727737D01*
X140022739Y-110738968D01*
X140010100Y-110752704D01*
X139994712Y-110768236D01*
X139977219Y-110784855D01*
X139964178Y-110796657D01*
X139896199Y-110852758D01*
X139821764Y-110906253D01*
X139740994Y-110957086D01*
X139654011Y-111005200D01*
X139560938Y-111050538D01*
X139461897Y-111093043D01*
X139357009Y-111132658D01*
X139246398Y-111169327D01*
X139130185Y-111202992D01*
X139043292Y-111225296D01*
X138942697Y-111248538D01*
X138847709Y-111267867D01*
X138758081Y-111283303D01*
X138673561Y-111294868D01*
X138593901Y-111302580D01*
X138518851Y-111306462D01*
X138448163Y-111306535D01*
X138381587Y-111302818D01*
X138318874Y-111295332D01*
X138281082Y-111288660D01*
X138220450Y-111273748D01*
X138165094Y-111254367D01*
X138115086Y-111230590D01*
X138070499Y-111202491D01*
X138031404Y-111170142D01*
X137997873Y-111133617D01*
X137969979Y-111092988D01*
X137947795Y-111048329D01*
X137931392Y-110999713D01*
X137920842Y-110947214D01*
X137917903Y-110920940D01*
X137917085Y-110909833D01*
X137916149Y-110901698D01*
X137914111Y-110895994D01*
X137909991Y-110892178D01*
X137902806Y-110889710D01*
X137891575Y-110888046D01*
X137875315Y-110886646D01*
X137853045Y-110884967D01*
X137852667Y-110884937D01*
X137825115Y-110882710D01*
X137803944Y-110880816D01*
X137788491Y-110879166D01*
X137778094Y-110877673D01*
X137772090Y-110876249D01*
X137769817Y-110874807D01*
X137769918Y-110873974D01*
X137767973Y-110872665D01*
X137761139Y-110872440D01*
X137751468Y-110873114D01*
X137741010Y-110874497D01*
X137731817Y-110876403D01*
X137727431Y-110877859D01*
X137721923Y-110879376D01*
X137710616Y-110881836D01*
X137694669Y-110885008D01*
X137675241Y-110888665D01*
X137653489Y-110892578D01*
X137648056Y-110893529D01*
X137566570Y-110907036D01*
X137489154Y-110918409D01*
X137413266Y-110927987D01*
X137336367Y-110936109D01*
X137312917Y-110938294D01*
X137290487Y-110939888D01*
X137263281Y-110941121D01*
X137232652Y-110941993D01*
X137199951Y-110942504D01*
X137166529Y-110942652D01*
X137133738Y-110942438D01*
X137102930Y-110941861D01*
X137075455Y-110940920D01*
X137052666Y-110939615D01*
X137039514Y-110938402D01*
X136966686Y-110928747D01*
X136895829Y-110916860D01*
X136825068Y-110902349D01*
X136752527Y-110884822D01*
X136676331Y-110863890D01*
X136660857Y-110859368D01*
X136638243Y-110852575D01*
X136621577Y-110847222D01*
X136609982Y-110842959D01*
X136602578Y-110839438D01*
X136598490Y-110836309D01*
X136597057Y-110833968D01*
X136596091Y-110828855D01*
X136594509Y-110817561D01*
X136592410Y-110800925D01*
X136589895Y-110779783D01*
X136587063Y-110754975D01*
X136584013Y-110727338D01*
X136580918Y-110698392D01*
X136577321Y-110664399D01*
X136574435Y-110636757D01*
X136572312Y-110614791D01*
X136571001Y-110597830D01*
X136570553Y-110585198D01*
X136571018Y-110576223D01*
X136572447Y-110570230D01*
X136574890Y-110566547D01*
X136578397Y-110564499D01*
X136583018Y-110563413D01*
X136588805Y-110562615D01*
X136591091Y-110562283D01*
X136602337Y-110560254D01*
X136619389Y-110556797D01*
X136641193Y-110552151D01*
X136666700Y-110546555D01*
X136694858Y-110540249D01*
X136724615Y-110533471D01*
X136754921Y-110526461D01*
X136784725Y-110519457D01*
X136812975Y-110512700D01*
X136838620Y-110506427D01*
X136857833Y-110501593D01*
X136960462Y-110474234D01*
X137056453Y-110446397D01*
X137146213Y-110417945D01*
X137230153Y-110388742D01*
X137308680Y-110358650D01*
X137382203Y-110327534D01*
X137394056Y-110322213D01*
X137464730Y-110287760D01*
X137536700Y-110248022D01*
X137608246Y-110204092D01*
X137677648Y-110157066D01*
X137743190Y-110108037D01*
X137787403Y-110071786D01*
X137805065Y-110056423D01*
X137823398Y-110040012D01*
X137841684Y-110023244D01*
X137859206Y-110006810D01*
X137875249Y-109991401D01*
X137889095Y-109977709D01*
X137900027Y-109966424D01*
X137907329Y-109958238D01*
X137910283Y-109953841D01*
X137910219Y-109953368D01*
X137904114Y-109950119D01*
X137892137Y-109945797D01*
X137875347Y-109940663D01*
X137854801Y-109934980D01*
X137831556Y-109929011D01*
X137806670Y-109923019D01*
X137781199Y-109917265D01*
X137756201Y-109912013D01*
X137732732Y-109907526D01*
X137711852Y-109904065D01*
X137711556Y-109904021D01*
X137656513Y-109897477D01*
X137602179Y-109894423D01*
X137547039Y-109894893D01*
X137489581Y-109898923D01*
X137428289Y-109906548D01*
X137398461Y-109911261D01*
X137305204Y-109929850D01*
X137215771Y-109953707D01*
X137130377Y-109982725D01*
X137049234Y-110016797D01*
X136972557Y-110055818D01*
X136900558Y-110099681D01*
X136833451Y-110148280D01*
X136771449Y-110201509D01*
X136727949Y-110244915D01*
X136685574Y-110293556D01*
X136647536Y-110344333D01*
X136614493Y-110396230D01*
X136587105Y-110448230D01*
X136569656Y-110489355D01*
X136564680Y-110501769D01*
X136560056Y-110511937D01*
X136556789Y-110517652D01*
X136553532Y-110520958D01*
X136545631Y-110528670D01*
X136533561Y-110540334D01*
X136517793Y-110555496D01*
X136498801Y-110573704D01*
X136477057Y-110594504D01*
X136453034Y-110617442D01*
X136427205Y-110642065D01*
X136408042Y-110660309D01*
X136381341Y-110685737D01*
X136356208Y-110709712D01*
X136333104Y-110731794D01*
X136312486Y-110751540D01*
X136294813Y-110768513D01*
X136280545Y-110782270D01*
X136270139Y-110792371D01*
X136264055Y-110798376D01*
X136262607Y-110799922D01*
X136265572Y-110801699D01*
X136274384Y-110806052D01*
X136288436Y-110812701D01*
X136307123Y-110821368D01*
X136329836Y-110831773D01*
X136355972Y-110843637D01*
X136384923Y-110856683D01*
X136416083Y-110870630D01*
X136423468Y-110873923D01*
X136585126Y-110945942D01*
X136601981Y-111006214D01*
X136610094Y-111034199D01*
X136619941Y-111066534D01*
X136630916Y-111101347D01*
X136642411Y-111136762D01*
X136653817Y-111170907D01*
X136664527Y-111201907D01*
X136673511Y-111226757D01*
X136678959Y-111240443D01*
X136683479Y-111248917D01*
X136688136Y-111253733D01*
X136693830Y-111256392D01*
X136701132Y-111257558D01*
X136714453Y-111258496D01*
X136732760Y-111259209D01*
X136755020Y-111259697D01*
X136780201Y-111259965D01*
X136807269Y-111260013D01*
X136835192Y-111259845D01*
X136862937Y-111259461D01*
X136889472Y-111258866D01*
X136913763Y-111258060D01*
X136934777Y-111257046D01*
X136951319Y-111255841D01*
X137114261Y-111238212D01*
X137214139Y-111224838D01*
X137256859Y-111218400D01*
X137293678Y-111212100D01*
X137325734Y-111205624D01*
X137354167Y-111198661D01*
X137380116Y-111190899D01*
X137404721Y-111182025D01*
X137429122Y-111171727D01*
X137454457Y-111159694D01*
X137457556Y-111158147D01*
X137513115Y-111126813D01*
X137567664Y-111089211D01*
X137620233Y-111046128D01*
X137669852Y-110998353D01*
X137710314Y-110953042D01*
X137728347Y-110931319D01*
X137730748Y-110956569D01*
X137737775Y-111003991D01*
X137749681Y-111053168D01*
X137765802Y-111102224D01*
X137785477Y-111149282D01*
X137808042Y-111192463D01*
X137821719Y-111214289D01*
X137859340Y-111264006D01*
X137902141Y-111309003D01*
X137950037Y-111349251D01*
X138002937Y-111384723D01*
X138060757Y-111415389D01*
X138123406Y-111441223D01*
X138190799Y-111462197D01*
X138262848Y-111478282D01*
X138339465Y-111489451D01*
X138420562Y-111495676D01*
X138506053Y-111496929D01*
X138595848Y-111493182D01*
X138674639Y-111486139D01*
X138747782Y-111476822D01*
X138825875Y-111464509D01*
X138907621Y-111449481D01*
X138991724Y-111432024D01*
X139076887Y-111412418D01*
X139161813Y-111390949D01*
X139245205Y-111367899D01*
X139321986Y-111344745D01*
X139419460Y-111312112D01*
X139513786Y-111276670D01*
X139604613Y-111238629D01*
X139691592Y-111198203D01*
X139774372Y-111155600D01*
X139852604Y-111111034D01*
X139925937Y-111064714D01*
X139994021Y-111016853D01*
X140056506Y-110967661D01*
X140113041Y-110917350D01*
X140163278Y-110866131D01*
X140206865Y-110814215D01*
X140211516Y-110808103D01*
X140221132Y-110795676D01*
X140227892Y-110788104D01*
X140232929Y-110784422D01*
X140237377Y-110783664D01*
X140239726Y-110784079D01*
X140259163Y-110788388D01*
X140284240Y-110793070D01*
X140313568Y-110797922D01*
X140345757Y-110802737D01*
X140379415Y-110807313D01*
X140413152Y-110811443D01*
X140445578Y-110814923D01*
X140456167Y-110815932D01*
X140487905Y-110818462D01*
X140519888Y-110820184D01*
X140552791Y-110821067D01*
X140587290Y-110821080D01*
X140624060Y-110820194D01*
X140663775Y-110818377D01*
X140707113Y-110815599D01*
X140754746Y-110811829D01*
X140807352Y-110807037D01*
X140865605Y-110801192D01*
X140927125Y-110794600D01*
X141016165Y-110784237D01*
X141111639Y-110772018D01*
X141213193Y-110758007D01*
X141320469Y-110742269D01*
X141433115Y-110724868D01*
X141550774Y-110705867D01*
X141673091Y-110685332D01*
X141799712Y-110663326D01*
X141930280Y-110639914D01*
X142064441Y-110615160D01*
X142201840Y-110589128D01*
X142342121Y-110561882D01*
X142484930Y-110533486D01*
X142629911Y-110504006D01*
X142776709Y-110473505D01*
X142924969Y-110442046D01*
X143074335Y-110409696D01*
X143161972Y-110390408D01*
X143206466Y-110380554D01*
X143244684Y-110372267D01*
X143277258Y-110365680D01*
X143304823Y-110360928D01*
X143328011Y-110358146D01*
X143347455Y-110357468D01*
X143363788Y-110359028D01*
X143377642Y-110362962D01*
X143389652Y-110369404D01*
X143400449Y-110378488D01*
X143410667Y-110390348D01*
X143420938Y-110405120D01*
X143431896Y-110422938D01*
X143444174Y-110443936D01*
X143448453Y-110451295D01*
X143485722Y-110517072D01*
X143520654Y-110582322D01*
X143552855Y-110646214D01*
X143581929Y-110707915D01*
X143607481Y-110766594D01*
X143629117Y-110821419D01*
X143642982Y-110860859D01*
X143658442Y-110913272D01*
X143669158Y-110962184D01*
X143675158Y-111007367D01*
X143676469Y-111048594D01*
X143673119Y-111085635D01*
X143665134Y-111118262D01*
X143652543Y-111146247D01*
X143635372Y-111169362D01*
X143613649Y-111187378D01*
X143603124Y-111193395D01*
X143592991Y-111198154D01*
X143581941Y-111202524D01*
X143569615Y-111206533D01*
X143555657Y-111210209D01*
X143539709Y-111213581D01*
X143521413Y-111216677D01*
X143500414Y-111219524D01*
X143476352Y-111222152D01*
X143448872Y-111224587D01*
X143417615Y-111226859D01*
X143382225Y-111228995D01*
X143342343Y-111231023D01*
X143297613Y-111232973D01*
X143247677Y-111234871D01*
X143192178Y-111236746D01*
X143130759Y-111238626D01*
X143063062Y-111240540D01*
X142988731Y-111242515D01*
X142975000Y-111242869D01*
X142852923Y-111246207D01*
X142737344Y-111249786D01*
X142627707Y-111253639D01*
X142523456Y-111257794D01*
X142424037Y-111262284D01*
X142328895Y-111267138D01*
X142237474Y-111272388D01*
X142149219Y-111278064D01*
X142063574Y-111284196D01*
X141979985Y-111290816D01*
X141897897Y-111297954D01*
X141816754Y-111305640D01*
X141789667Y-111308345D01*
X141660967Y-111322177D01*
X141536502Y-111337273D01*
X141415523Y-111353805D01*
X141297281Y-111371941D01*
X141181028Y-111391851D01*
X141066016Y-111413705D01*
X140951496Y-111437671D01*
X140836721Y-111463920D01*
X140720941Y-111492620D01*
X140603408Y-111523942D01*
X140483373Y-111558054D01*
X140360090Y-111595127D01*
X140232808Y-111635329D01*
X140100780Y-111678830D01*
X139995792Y-111714551D01*
X139945932Y-111732059D01*
X139898400Y-111749485D01*
X139852527Y-111767150D01*
X139807643Y-111785374D01*
X139763080Y-111804476D01*
X139718167Y-111824779D01*
X139672235Y-111846601D01*
X139624615Y-111870263D01*
X139574637Y-111896085D01*
X139521633Y-111924388D01*
X139464932Y-111955492D01*
X139403865Y-111989717D01*
X139337763Y-112027384D01*
X139316694Y-112039493D01*
X139258073Y-112073223D01*
X139205102Y-112103651D01*
X139157334Y-112131025D01*
X139114321Y-112155591D01*
X139075616Y-112177596D01*
X139040771Y-112197287D01*
X139009338Y-112214910D01*
X138980870Y-112230714D01*
X138954919Y-112244944D01*
X138931037Y-112257848D01*
X138908777Y-112269672D01*
X138887692Y-112280664D01*
X138867332Y-112291070D01*
X138847252Y-112301138D01*
X138827003Y-112311113D01*
X138806138Y-112321244D01*
X138804306Y-112322128D01*
X138736867Y-112353565D01*
X138673250Y-112380819D01*
X138612082Y-112404282D01*
X138551992Y-112424345D01*
X138491609Y-112441402D01*
X138429560Y-112455844D01*
X138364474Y-112468064D01*
X138294978Y-112478454D01*
X138230139Y-112486279D01*
X138189152Y-112490039D01*
X138143206Y-112492999D01*
X138094358Y-112495105D01*
X138044663Y-112496301D01*
X137996179Y-112496532D01*
X137950962Y-112495744D01*
X137921458Y-112494508D01*
X137841912Y-112487865D01*
X137761456Y-112476743D01*
X137681278Y-112461443D01*
X137602567Y-112442263D01*
X137526511Y-112419501D01*
X137454298Y-112393456D01*
X137387116Y-112364427D01*
X137369008Y-112355625D01*
X137288028Y-112311372D01*
X137208806Y-112260408D01*
X137131482Y-112202893D01*
X137056195Y-112138983D01*
X136983086Y-112068836D01*
X136912295Y-111992610D01*
X136843960Y-111910463D01*
X136778223Y-111822552D01*
X136715222Y-111729036D01*
X136655097Y-111630070D01*
X136597989Y-111525814D01*
X136552897Y-111435201D01*
X136534559Y-111395287D01*
X136516937Y-111353922D01*
X136499526Y-111309814D01*
X136481819Y-111261672D01*
X136463310Y-111208204D01*
X136458965Y-111195250D01*
X136451296Y-111171804D01*
X136443193Y-111146214D01*
X136435008Y-111119673D01*
X136427093Y-111093373D01*
X136419801Y-111068508D01*
X136413485Y-111046269D01*
X136408496Y-111027848D01*
X136405187Y-111014440D01*
X136404378Y-111010558D01*
X136402209Y-110998996D01*
X136197595Y-110916428D01*
X136161615Y-110901883D01*
X136127607Y-110888085D01*
X136096132Y-110875266D01*
X136067748Y-110863654D01*
X136043014Y-110853480D01*
X136022490Y-110844974D01*
X136006734Y-110838367D01*
X135996307Y-110833889D01*
X135991768Y-110831769D01*
X135991619Y-110831656D01*
X135993960Y-110829006D01*
X136001162Y-110822050D01*
X136012812Y-110811163D01*
X136028495Y-110796724D01*
X136047797Y-110779108D01*
X136070304Y-110758694D01*
X136095601Y-110735859D01*
X136123274Y-110710979D01*
X136152909Y-110684432D01*
X136178286Y-110661769D01*
X136214302Y-110629640D01*
X136245416Y-110601846D01*
X136271998Y-110578033D01*
X136294415Y-110557848D01*
X136313038Y-110540935D01*
X136328235Y-110526942D01*
X136340376Y-110515513D01*
X136349830Y-110506294D01*
X136356965Y-110498931D01*
X136362152Y-110493071D01*
X136365759Y-110488358D01*
X136368156Y-110484439D01*
X136369712Y-110480959D01*
X136370795Y-110477565D01*
X136370979Y-110476897D01*
X136377388Y-110456348D01*
X136386490Y-110431398D01*
X136397560Y-110403816D01*
X136409874Y-110375375D01*
X136422705Y-110347843D01*
X136429300Y-110334554D01*
X136461749Y-110276345D01*
X136498977Y-110220220D01*
X136541666Y-110165249D01*
X136590499Y-110110502D01*
X136603642Y-110096849D01*
X136659151Y-110043310D01*
X136716431Y-109994827D01*
X136776685Y-109950531D01*
X136841117Y-109909557D01*
X136910931Y-109871037D01*
X136931917Y-109860420D01*
X136999971Y-109828548D01*
X137067985Y-109800713D01*
X137137187Y-109776541D01*
X137208807Y-109755659D01*
X137284072Y-109737692D01*
X137364212Y-109722268D01*
X137410680Y-109714752D01*
X137430516Y-109711832D01*
X137447844Y-109709566D01*
X137464061Y-109707870D01*
X137480562Y-109706659D01*
X137498742Y-109705848D01*
X137519998Y-109705355D01*
X137545724Y-109705094D01*
X137572208Y-109704991D01*
X137609423Y-109705069D01*
D12*
X139000000Y-91450000D03*
X145600000Y-91450000D03*
D13*
X131000000Y-97850000D03*
X131000000Y-98250000D03*
X131000000Y-98650000D03*
X131000000Y-99050000D03*
X131000000Y-99450000D03*
X131000000Y-99850000D03*
D14*
X131500000Y-100350000D03*
X131900000Y-100350000D03*
X132300000Y-100350000D03*
X132700000Y-100350000D03*
X133100000Y-100350000D03*
X133500000Y-100350000D03*
D13*
X134000000Y-99850000D03*
X134000000Y-99450000D03*
X134000000Y-99050000D03*
X134000000Y-98650000D03*
X134000000Y-98250000D03*
X134000000Y-97850000D03*
D14*
X133500000Y-97350000D03*
X133100000Y-97350000D03*
X132700000Y-97350000D03*
X132300000Y-97350000D03*
X131900000Y-97350000D03*
X131500000Y-97350000D03*
D15*
X132935000Y-99250000D03*
X132935000Y-98450000D03*
X132065000Y-99250000D03*
X132065000Y-98450000D03*
D16*
X131350000Y-102300000D03*
X133250000Y-102300000D03*
D17*
X131200000Y-104550000D03*
X131200000Y-106450000D03*
X131250000Y-117000000D03*
X131250000Y-115100000D03*
X155070000Y-92640000D03*
X155070000Y-94540000D03*
D18*
X153300000Y-91100000D03*
X153300000Y-92598600D03*
X151150000Y-91100000D03*
X151150000Y-92598600D03*
X149100000Y-91100000D03*
X149100000Y-92598600D03*
D19*
X145200000Y-124900000D03*
D20*
X145200000Y-122360000D03*
X142660000Y-124900000D03*
X142660000Y-122360000D03*
X140120000Y-124900000D03*
X140120000Y-122360000D03*
X137580000Y-124900000D03*
X137580000Y-122360000D03*
D21*
X153450000Y-98000000D03*
X153450000Y-95800000D03*
X151250000Y-98000000D03*
X151250000Y-95800000D03*
X149050000Y-98000000D03*
X149050000Y-95800000D03*
D22*
X141250000Y-93200000D03*
X143450000Y-93200000D03*
D23*
X147500000Y-102150000D03*
X147000000Y-102150000D03*
X146500000Y-102150000D03*
X146000000Y-102150000D03*
X145500000Y-102150000D03*
X145000000Y-102150000D03*
X144500000Y-102150000D03*
X144000000Y-102150000D03*
X143500000Y-102150000D03*
X143000000Y-102150000D03*
X142500000Y-102150000D03*
X142000000Y-102150000D03*
X141500000Y-102150000D03*
X141000000Y-102150000D03*
X140500000Y-102150000D03*
X140000000Y-102150000D03*
X139500000Y-102150000D03*
X139000000Y-102150000D03*
X138500000Y-102150000D03*
X138000000Y-102150000D03*
X137500000Y-102150000D03*
X137000000Y-102150000D03*
X136500000Y-102150000D03*
X136000000Y-102150000D03*
X135500000Y-102150000D03*
D24*
X133600000Y-104050000D03*
X133600000Y-104550000D03*
X133600000Y-105050000D03*
X133600000Y-105550000D03*
X133600000Y-106050000D03*
X133600000Y-106550000D03*
X133600000Y-107050000D03*
X133600000Y-107550000D03*
X133600000Y-108050000D03*
X133600000Y-108550000D03*
X133600000Y-109050000D03*
X133600000Y-109550000D03*
X133600000Y-110050000D03*
X133600000Y-110550000D03*
X133600000Y-111050000D03*
X133600000Y-111550000D03*
X133600000Y-112050000D03*
X133600000Y-112550000D03*
X133600000Y-113050000D03*
X133600000Y-113550000D03*
X133600000Y-114050000D03*
X133600000Y-114550000D03*
X133600000Y-115050000D03*
X133600000Y-115550000D03*
X133600000Y-116050000D03*
D23*
X135500000Y-117950000D03*
X136000000Y-117950000D03*
X136500000Y-117950000D03*
X137000000Y-117950000D03*
X137500000Y-117950000D03*
X138000000Y-117950000D03*
X138500000Y-117950000D03*
X139000000Y-117950000D03*
X139500000Y-117950000D03*
X140000000Y-117950000D03*
X140500000Y-117950000D03*
X141000000Y-117950000D03*
X141500000Y-117950000D03*
X142000000Y-117950000D03*
X142500000Y-117950000D03*
X143000000Y-117950000D03*
X143500000Y-117950000D03*
X144000000Y-117950000D03*
X144500000Y-117950000D03*
X145000000Y-117950000D03*
X145500000Y-117950000D03*
X146000000Y-117950000D03*
X146500000Y-117950000D03*
X147000000Y-117950000D03*
X147500000Y-117950000D03*
D24*
X149400000Y-116050000D03*
X149400000Y-115550000D03*
X149400000Y-115050000D03*
X149400000Y-114550000D03*
X149400000Y-114050000D03*
X149400000Y-113550000D03*
X149400000Y-113050000D03*
X149400000Y-112550000D03*
X149400000Y-112050000D03*
X149400000Y-111550000D03*
X149400000Y-111050000D03*
X149400000Y-110550000D03*
X149400000Y-110050000D03*
X149400000Y-109550000D03*
X149400000Y-109050000D03*
X149400000Y-108550000D03*
X149400000Y-108050000D03*
X149400000Y-107550000D03*
X149400000Y-107050000D03*
X149400000Y-106550000D03*
X149400000Y-106050000D03*
X149400000Y-105550000D03*
X149400000Y-105050000D03*
X149400000Y-104550000D03*
X149400000Y-104050000D03*
D25*
X139800000Y-98600000D03*
X144100000Y-98600000D03*
D16*
X156780000Y-124900000D03*
X158680000Y-124900000D03*
D26*
X161190000Y-100200000D03*
X161190000Y-100600000D03*
X161190000Y-101000000D03*
X161190000Y-101400000D03*
X161190000Y-101800000D03*
X161190000Y-102200000D03*
X161190000Y-102600000D03*
X161190000Y-103000000D03*
X161190000Y-103400000D03*
X161190000Y-103800000D03*
X161190000Y-107800000D03*
X161190000Y-107400000D03*
X161190000Y-107000000D03*
X161190000Y-106600000D03*
X161190000Y-106200000D03*
X161190000Y-105800000D03*
X161190000Y-105400000D03*
X161190000Y-105000000D03*
X161190000Y-104600000D03*
X161190000Y-104200000D03*
X161190000Y-108200000D03*
X161190000Y-108600000D03*
X161190000Y-109000000D03*
X161190000Y-109400000D03*
X161190000Y-109800000D03*
X161190000Y-110200000D03*
X161190000Y-110600000D03*
X161190000Y-111000000D03*
X161190000Y-111400000D03*
X161190000Y-111800000D03*
X161190000Y-115800000D03*
X161190000Y-115400000D03*
X161190000Y-115000000D03*
X161190000Y-114600000D03*
X161190000Y-114200000D03*
X161190000Y-113800000D03*
X161190000Y-113400000D03*
X161190000Y-113000000D03*
X161190000Y-112600000D03*
X161190000Y-112200000D03*
X158110000Y-112200000D03*
X158110000Y-112600000D03*
X158110000Y-113000000D03*
X158110000Y-113400000D03*
X158110000Y-113800000D03*
X158110000Y-114200000D03*
X158110000Y-114600000D03*
X158110000Y-115000000D03*
X158110000Y-115400000D03*
X158110000Y-115800000D03*
X158110000Y-111800000D03*
X158110000Y-111400000D03*
X158110000Y-111000000D03*
X158110000Y-110600000D03*
X158110000Y-110200000D03*
X158110000Y-109800000D03*
X158110000Y-109400000D03*
X158110000Y-109000000D03*
X158110000Y-108600000D03*
X158110000Y-108200000D03*
X158110000Y-104200000D03*
X158110000Y-104600000D03*
X158110000Y-105000000D03*
X158110000Y-105400000D03*
X158110000Y-105800000D03*
X158110000Y-106200000D03*
X158110000Y-106600000D03*
X158110000Y-107000000D03*
X158110000Y-107400000D03*
X158110000Y-107800000D03*
X158110000Y-103800000D03*
X158110000Y-103400000D03*
X158110000Y-103000000D03*
X158110000Y-102600000D03*
X158110000Y-102200000D03*
X158110000Y-101800000D03*
X158110000Y-101400000D03*
X158110000Y-101000000D03*
X158110000Y-100600000D03*
X158110000Y-100200000D03*
D22*
X147860000Y-124950000D03*
X150060000Y-124950000D03*
X154290000Y-124960000D03*
X152090000Y-124960000D03*
D27*
X156580000Y-94660000D03*
X157530000Y-94660000D03*
X158480000Y-94660000D03*
X158480000Y-92460000D03*
X156580000Y-92460000D03*
D28*
X132750000Y-119700000D03*
X163250000Y-119700000D03*
X163250000Y-95900000D03*
D29*
X146550000Y-97150000D03*
X146550000Y-98250000D03*
X137200000Y-99250000D03*
X137200000Y-98150000D03*
D30*
X159800000Y-96900000D03*
X155800000Y-96900000D03*
D31*
X144900000Y-92704672D03*
X150150000Y-91450000D03*
X156500000Y-91100000D03*
X155650000Y-91100000D03*
X155950000Y-121300000D03*
X147000000Y-123500000D03*
X131297963Y-101109677D03*
X136500000Y-100850000D03*
X134800000Y-99850000D03*
X131200000Y-103250000D03*
X137200000Y-100900000D03*
X148000000Y-116600000D03*
X132942400Y-117000000D03*
D32*
X155484831Y-105661094D03*
D31*
X145000000Y-103600000D03*
X146600000Y-104599956D03*
X154795302Y-91100000D03*
X146150000Y-92700000D03*
X138250000Y-97050000D03*
X148500000Y-121800000D03*
X145800000Y-106000000D03*
X157450000Y-93500000D03*
X153950000Y-93650000D03*
X159900000Y-124900000D03*
X147123669Y-111240000D03*
X138118860Y-100652772D03*
X136700000Y-105500000D03*
X131000000Y-96500000D03*
X133405953Y-101223562D03*
X138150000Y-97750000D03*
X131250000Y-113900000D03*
X131200000Y-107650000D03*
X134103781Y-97226350D03*
X146500000Y-116500000D03*
X151000000Y-104100000D03*
X156000058Y-104999926D03*
X156000057Y-104999927D03*
D32*
X162150000Y-109849998D03*
X162150000Y-106750000D03*
X162150000Y-107500006D03*
X162150000Y-108250000D03*
X162150004Y-109000000D03*
D31*
X132570122Y-101325370D03*
X161650000Y-97100000D03*
X142174351Y-99246033D03*
X141395866Y-96995884D03*
X157200000Y-107450000D03*
X156500000Y-107750000D03*
X157200000Y-108200000D03*
D32*
X157199998Y-109000000D03*
X157199998Y-109850000D03*
X156550004Y-108600000D03*
X156550000Y-109400000D03*
D31*
X144928480Y-108350000D03*
X145450000Y-107650000D03*
X142950000Y-96800000D03*
X135275482Y-111534250D03*
X135211561Y-112386804D03*
X135120000Y-113220000D03*
X134950000Y-114070000D03*
X162718203Y-99409070D03*
X143000000Y-116650000D03*
D32*
X163086722Y-100161927D03*
D31*
X142100000Y-116350000D03*
D32*
X163908480Y-100327191D03*
D31*
X141003006Y-116399407D03*
D32*
X163908480Y-101402757D03*
D31*
X140174437Y-116526186D03*
X155600000Y-124017076D03*
X154928555Y-120647684D03*
X154159917Y-120313327D03*
X154436257Y-123693957D03*
X153623999Y-120957834D03*
X153686037Y-123320099D03*
X152866253Y-123145303D03*
X152466973Y-120604681D03*
X140515673Y-100904688D03*
X158699998Y-98950000D03*
X141252762Y-100505566D03*
X157550000Y-99000000D03*
X156164716Y-110444858D03*
X162152957Y-110738207D03*
X155358534Y-109999543D03*
X162118150Y-111575696D03*
X155028501Y-110807125D03*
X162156514Y-112413029D03*
X154085953Y-113766036D03*
D32*
X155236520Y-113183346D03*
D31*
X154690742Y-114803827D03*
D32*
X155768513Y-114264986D03*
D31*
X153047701Y-106481914D03*
D32*
X155083600Y-115556054D03*
D31*
X153682687Y-105522576D03*
D32*
X155238794Y-116379773D03*
D31*
X152442830Y-111269513D03*
D32*
X156121678Y-116305139D03*
D31*
X151500000Y-110650000D03*
D32*
X156850162Y-116804780D03*
D31*
X138726019Y-115077767D03*
D32*
X157298385Y-116096476D03*
D31*
X139580652Y-115932401D03*
D32*
X158170500Y-116353781D03*
D31*
X133600000Y-103350000D03*
X151800000Y-113100000D03*
D32*
X154573456Y-112664263D03*
D31*
X152821279Y-110275352D03*
X154224771Y-111209680D03*
X143150000Y-109200000D03*
D32*
X155983285Y-112276038D03*
X155175337Y-111971893D03*
D31*
X143667109Y-114677791D03*
X151363221Y-112306208D03*
X143107184Y-114054025D03*
X150639823Y-111836527D03*
X145835271Y-103670153D03*
D32*
X155266806Y-102471889D03*
D31*
X144775386Y-105377364D03*
D32*
X155203574Y-103307713D03*
D31*
X157000000Y-106600000D03*
X152800000Y-108400000D03*
X151754125Y-106645875D03*
D32*
X154050000Y-99750000D03*
X155400000Y-99500000D03*
D31*
X151664487Y-105750346D03*
X152150000Y-101350000D03*
X148350000Y-102250000D03*
X139870000Y-105460000D03*
X132300000Y-103800000D03*
X132300000Y-106152400D03*
X134200000Y-100445302D03*
X132247558Y-106988970D03*
X140930582Y-103462331D03*
X159330000Y-123220000D03*
X151310000Y-123660000D03*
X155590000Y-120110000D03*
X152540000Y-116530000D03*
X148040000Y-114000000D03*
X148000000Y-107400121D03*
D33*
X144557101Y-93047571D02*
X144900000Y-92704672D01*
X144404672Y-93200000D02*
X144557101Y-93047571D01*
X143450000Y-93200000D02*
X144404672Y-93200000D01*
X150150000Y-91450000D02*
X149450000Y-91450000D01*
X149450000Y-91450000D02*
X149100000Y-91100000D01*
X151150000Y-91100000D02*
X150500000Y-91100000D01*
X150500000Y-91100000D02*
X150150000Y-91450000D01*
X155650000Y-91100000D02*
X156500000Y-91100000D01*
X154795302Y-91100000D02*
X155650000Y-91100000D01*
X155070000Y-92640000D02*
X155070000Y-91680000D01*
X155070000Y-91680000D02*
X155650000Y-91100000D01*
X156580000Y-92460000D02*
X156580000Y-91180000D01*
X156580000Y-91180000D02*
X156500000Y-91100000D01*
X156580000Y-92460000D02*
X156580000Y-92255000D01*
X156580000Y-92255000D02*
X155650000Y-91325000D01*
X155650000Y-91325000D02*
X155650000Y-91100000D01*
X155070000Y-92640000D02*
X156400000Y-92640000D01*
X156400000Y-92640000D02*
X156580000Y-92460000D01*
X154795302Y-91100000D02*
X154795302Y-92365302D01*
X154795302Y-92365302D02*
X155070000Y-92640000D01*
X147860000Y-124950000D02*
X147710000Y-124950000D01*
X147710000Y-124950000D02*
X147000000Y-124240000D01*
X147000000Y-124240000D02*
X147000000Y-123500000D01*
X156906916Y-105661094D02*
X156184730Y-105661094D01*
X157445822Y-106200000D02*
X156906916Y-105661094D01*
X158110000Y-106200000D02*
X157445822Y-106200000D01*
X131900000Y-100350000D02*
X131900000Y-100736482D01*
X131900000Y-100736482D02*
X131782881Y-100853601D01*
X131782881Y-100853601D02*
X131396399Y-100853601D01*
X131396399Y-100853601D02*
X131300000Y-100950000D01*
X131300000Y-100950000D02*
X131297963Y-101109677D01*
X131297963Y-101109677D02*
X131300000Y-102200000D01*
X131300000Y-102200000D02*
X131350000Y-102250000D01*
X153300000Y-91100000D02*
X152748820Y-91100000D01*
X152748820Y-91100000D02*
X151150000Y-91100000D01*
X136500000Y-100850000D02*
X137000000Y-101350000D01*
X137000000Y-101350000D02*
X137000000Y-102150000D01*
X136500000Y-100850000D02*
X137150000Y-100850000D01*
X137150000Y-100850000D02*
X137200000Y-100900000D01*
X134000000Y-99850000D02*
X134800000Y-99850000D01*
X131200000Y-104400000D02*
X131200000Y-103250000D01*
X131200000Y-103250000D02*
X131200000Y-102400000D01*
X131200000Y-102400000D02*
X131350000Y-102250000D01*
X133600000Y-105050000D02*
X132697600Y-105050000D01*
X132047600Y-104400000D02*
X131200000Y-104400000D01*
X132697600Y-105050000D02*
X132047600Y-104400000D01*
X137000000Y-102150000D02*
X137000000Y-101100000D01*
X137000000Y-101100000D02*
X137200000Y-100900000D01*
X137500000Y-102150000D02*
X137500000Y-101200000D01*
X137500000Y-101200000D02*
X137200000Y-100900000D01*
X148000000Y-116840000D02*
X148000000Y-116600000D01*
X147500000Y-117950000D02*
X147500000Y-117340000D01*
X147500000Y-117340000D02*
X148000000Y-116840000D01*
X157273744Y-105704811D02*
X156968933Y-105400000D01*
X155969764Y-105661094D02*
X155484831Y-105661094D01*
X156445824Y-105400000D02*
X156184730Y-105661094D01*
X156968933Y-105400000D02*
X156445824Y-105400000D01*
X156184730Y-105661094D02*
X155969764Y-105661094D01*
X158110000Y-105823800D02*
X157728933Y-105823800D01*
X157728933Y-105823800D02*
X157609944Y-105704811D01*
X157609944Y-105704811D02*
X157273744Y-105704811D01*
X145000000Y-102150000D02*
X145000000Y-103600000D01*
X146942899Y-104257057D02*
X146600000Y-104599956D01*
X147149956Y-104050000D02*
X146942899Y-104257057D01*
X149400000Y-104050000D02*
X147149956Y-104050000D01*
X153300000Y-91100000D02*
X154795302Y-91100000D01*
X153300000Y-91100000D02*
X153350000Y-91150000D01*
X131250000Y-117000000D02*
X132942400Y-117000000D01*
X132942400Y-117000000D02*
X133600000Y-116342400D01*
X133600000Y-116342400D02*
X133600000Y-116050000D01*
X158110000Y-106223800D02*
X158072517Y-106186317D01*
D34*
X155070000Y-94540000D02*
X155070000Y-96170000D01*
X155070000Y-96170000D02*
X155800000Y-96900000D01*
D33*
X155790000Y-94732600D02*
X155597400Y-94540000D01*
X155597400Y-94540000D02*
X155070000Y-94540000D01*
X138150000Y-97750000D02*
X137200000Y-97750000D01*
X137200000Y-97750000D02*
X137200000Y-97975000D01*
X157530000Y-94660000D02*
X157530000Y-93580000D01*
X157530000Y-93580000D02*
X157450000Y-93500000D01*
X155070000Y-94315000D02*
X154405000Y-93650000D01*
X154405000Y-93650000D02*
X153950000Y-93650000D01*
X157530000Y-94660000D02*
X157530000Y-93977600D01*
X157530000Y-93977600D02*
X157340000Y-93787600D01*
X157340000Y-93787600D02*
X155597400Y-93787600D01*
X155597400Y-93787600D02*
X155070000Y-94315000D01*
X155070000Y-94315000D02*
X155070000Y-94540000D01*
X158680000Y-124900000D02*
X159900000Y-124900000D01*
D34*
X161190000Y-107400000D02*
X162049994Y-107400000D01*
X162049994Y-107400000D02*
X162150000Y-107500006D01*
X161190000Y-107800000D02*
X161850006Y-107800000D01*
X161850006Y-107800000D02*
X162150000Y-107500006D01*
X161190000Y-108200000D02*
X162100000Y-108200000D01*
X162100000Y-108200000D02*
X162150000Y-108250000D01*
X161190000Y-108600000D02*
X161800000Y-108600000D01*
X161800000Y-108600000D02*
X162150000Y-108250000D01*
X161190000Y-109000000D02*
X162150004Y-109000000D01*
X161190000Y-109400000D02*
X161700002Y-109400000D01*
X161700002Y-109400000D02*
X162150000Y-109849998D01*
D33*
X138000000Y-102150000D02*
X138000000Y-100771632D01*
X138000000Y-100771632D02*
X138118860Y-100652772D01*
X133100000Y-100350000D02*
X133100000Y-100917609D01*
X133100000Y-100917609D02*
X133405953Y-101223562D01*
X133405953Y-101708495D02*
X133405953Y-101223562D01*
X133250000Y-102250000D02*
X133405953Y-102094047D01*
X133405953Y-102094047D02*
X133405953Y-101708495D01*
X133100000Y-96922600D02*
X133100000Y-97350000D01*
X134103781Y-97226350D02*
X133691864Y-96814433D01*
X133208167Y-96814433D02*
X133100000Y-96922600D01*
X133691864Y-96814433D02*
X133208167Y-96814433D01*
X131250000Y-115100000D02*
X131250000Y-113900000D01*
X131200000Y-106300000D02*
X131200000Y-107650000D01*
X134000000Y-97330131D02*
X134103781Y-97226350D01*
X134000000Y-97850000D02*
X134000000Y-97330131D01*
X134000000Y-97850000D02*
X133996399Y-97853601D01*
X147000000Y-117000000D02*
X146842899Y-116842899D01*
X147000000Y-117950000D02*
X147000000Y-117000000D01*
X146842899Y-116842899D02*
X146500000Y-116500000D01*
X149400000Y-104550000D02*
X150550000Y-104550000D01*
X150550000Y-104550000D02*
X151000000Y-104100000D01*
X158110000Y-105000000D02*
X157000000Y-105000000D01*
X157000000Y-105000000D02*
X156000132Y-105000000D01*
X157400000Y-105400000D02*
X157000000Y-105000000D01*
X158110000Y-105400000D02*
X157400000Y-105400000D01*
X156000132Y-105000000D02*
X156000058Y-104999926D01*
X162150000Y-107565067D02*
X162150000Y-109849998D01*
D35*
X161190000Y-106600000D02*
X162000000Y-106600000D01*
X162000000Y-106600000D02*
X162150000Y-106750000D01*
X161190000Y-107000000D02*
X161649994Y-107000000D01*
X161649994Y-107000000D02*
X162150000Y-107500006D01*
X161190000Y-107000000D02*
X161900000Y-107000000D01*
X161900000Y-107000000D02*
X162150000Y-106750000D01*
D33*
X162150000Y-106783800D02*
X162150000Y-107765067D01*
X162150000Y-107765067D02*
X162150000Y-108250000D01*
X162150004Y-108515067D02*
X162150004Y-109000000D01*
X162150004Y-107583804D02*
X162150004Y-108515067D01*
X131250000Y-115100000D02*
X131777400Y-115100000D01*
X131777400Y-115100000D02*
X132227400Y-115550000D01*
X132227400Y-115550000D02*
X132697600Y-115550000D01*
X132697600Y-115550000D02*
X133600000Y-115550000D01*
X146550000Y-98250000D02*
X144450000Y-98250000D01*
X144450000Y-98250000D02*
X144100000Y-98600000D01*
X144100000Y-98950000D02*
X142000000Y-101050000D01*
X144100000Y-98600000D02*
X144100000Y-98950000D01*
X142000000Y-101050000D02*
X142000000Y-101247600D01*
X142000000Y-101247600D02*
X142000000Y-102150000D01*
X144150000Y-98650000D02*
X144100000Y-98600000D01*
X141824264Y-100779888D02*
X141824264Y-100231244D01*
X141500000Y-102150000D02*
X141500000Y-101104152D01*
X141824264Y-100231244D02*
X140193020Y-98600000D01*
X141500000Y-101104152D02*
X141824264Y-100779888D01*
X140193020Y-98600000D02*
X139800000Y-98600000D01*
X137200000Y-99250000D02*
X139150000Y-99250000D01*
X139150000Y-99250000D02*
X139800000Y-98600000D01*
X132700000Y-100350000D02*
X132700000Y-101195492D01*
X132700000Y-101195492D02*
X132570122Y-101325370D01*
D34*
X161650000Y-97100000D02*
X160000000Y-97100000D01*
X160000000Y-97100000D02*
X159800000Y-96900000D01*
X156580000Y-94660000D02*
X156580000Y-95444000D01*
X156580000Y-95444000D02*
X158036000Y-96900000D01*
X158036000Y-96900000D02*
X158546000Y-96900000D01*
X158546000Y-96900000D02*
X159800000Y-96900000D01*
X158480000Y-94660000D02*
X158480000Y-95780000D01*
X158480000Y-95780000D02*
X159600000Y-96900000D01*
X159600000Y-96900000D02*
X159800000Y-96900000D01*
D33*
X156600000Y-95000000D02*
X156375000Y-95000000D01*
X153350000Y-92648600D02*
X153350000Y-95700000D01*
X153350000Y-95700000D02*
X153450000Y-95800000D01*
X151150000Y-92598600D02*
X151150000Y-95700000D01*
X151150000Y-95700000D02*
X151250000Y-95800000D01*
X149100000Y-92598600D02*
X149100000Y-95750000D01*
X149100000Y-95750000D02*
X149050000Y-95800000D01*
D34*
X141395866Y-98467548D02*
X141831452Y-98903134D01*
X141831452Y-98903134D02*
X142174351Y-99246033D01*
X141395866Y-96995884D02*
X141395866Y-98467548D01*
X157200000Y-108200000D02*
X156950000Y-108200000D01*
X156950000Y-108200000D02*
X156500000Y-107750000D01*
X157199998Y-109000000D02*
X157199998Y-108200002D01*
X157199998Y-108200002D02*
X157200000Y-108200000D01*
X156550000Y-109400000D02*
X156749998Y-109400000D01*
X156749998Y-109400000D02*
X157199998Y-109850000D01*
X156550004Y-108600000D02*
X156550004Y-109399996D01*
X156550004Y-109399996D02*
X156550000Y-109400000D01*
X156500000Y-107750000D02*
X156500000Y-108549996D01*
X156500000Y-108549996D02*
X156550004Y-108600000D01*
X157200000Y-107450000D02*
X156800000Y-107450000D01*
X156800000Y-107450000D02*
X156500000Y-107750000D01*
D33*
X157199998Y-109000000D02*
X156950000Y-109000000D01*
X156950000Y-109000000D02*
X156550000Y-109400000D01*
X157200000Y-108200000D02*
X157710000Y-108200000D01*
X157710000Y-108200000D02*
X158110000Y-107800000D01*
X158110000Y-107800000D02*
X157550000Y-107800000D01*
X157550000Y-107800000D02*
X157200000Y-107450000D01*
X157200000Y-107450000D02*
X158060000Y-107450000D01*
X158060000Y-107450000D02*
X158110000Y-107400000D01*
X158110000Y-107423800D02*
X157833800Y-107700000D01*
X157684931Y-109000000D02*
X157199998Y-109000000D01*
X158110000Y-108576200D02*
X157686200Y-109000000D01*
X157686200Y-109000000D02*
X157684931Y-109000000D01*
X157542897Y-109507101D02*
X157199998Y-109850000D01*
X157673798Y-109376200D02*
X157542897Y-109507101D01*
X158110000Y-109376200D02*
X157673798Y-109376200D01*
X157034937Y-108600000D02*
X156550004Y-108600000D01*
X157686200Y-108600000D02*
X157034937Y-108600000D01*
X158110000Y-108176200D02*
X157686200Y-108600000D01*
X157034933Y-109400000D02*
X156550000Y-109400000D01*
X157686200Y-109400000D02*
X157034933Y-109400000D01*
X158110000Y-108976200D02*
X157686200Y-109400000D01*
X145000000Y-108421520D02*
X144928480Y-108350000D01*
X145000000Y-117950000D02*
X145000000Y-108421520D01*
X141250000Y-93200000D02*
X141250000Y-95100000D01*
X141250000Y-95100000D02*
X142950000Y-96800000D01*
X145500000Y-117950000D02*
X145500000Y-107700000D01*
X145500000Y-107700000D02*
X145450000Y-107650000D01*
X134791232Y-111050000D02*
X134932583Y-111191351D01*
X134932583Y-111191351D02*
X135275482Y-111534250D01*
X133600000Y-111050000D02*
X134791232Y-111050000D01*
X134874757Y-112050000D02*
X135211561Y-112386804D01*
X133600000Y-112050000D02*
X134874757Y-112050000D01*
X133600000Y-113050000D02*
X134950000Y-113050000D01*
X134950000Y-113050000D02*
X135120000Y-113220000D01*
X133600000Y-113550000D02*
X134502400Y-113550000D01*
X134502400Y-113550000D02*
X134950000Y-113997600D01*
X134950000Y-113997600D02*
X134950000Y-114070000D01*
X161927273Y-100200000D02*
X162375304Y-99751969D01*
X162375304Y-99751969D02*
X162718203Y-99409070D01*
X161190000Y-100200000D02*
X161927273Y-100200000D01*
X143000000Y-117950000D02*
X143000000Y-116650000D01*
X162624849Y-100623800D02*
X162743823Y-100504826D01*
X161190000Y-100623800D02*
X162624849Y-100623800D01*
X162743823Y-100504826D02*
X163086722Y-100161927D01*
X142100000Y-116647600D02*
X142100000Y-116350000D01*
X142500000Y-117950000D02*
X142500000Y-117047600D01*
X142500000Y-117047600D02*
X142100000Y-116647600D01*
X163211871Y-101023800D02*
X163565581Y-100670090D01*
X161190000Y-101023800D02*
X163211871Y-101023800D01*
X163565581Y-100670090D02*
X163908480Y-100327191D01*
X142000000Y-117145824D02*
X141253583Y-116399407D01*
X141253583Y-116399407D02*
X141003006Y-116399407D01*
X142000000Y-117950000D02*
X142000000Y-117145824D01*
X161211043Y-101402757D02*
X163423547Y-101402757D01*
X161190000Y-101423800D02*
X161211043Y-101402757D01*
X163423547Y-101402757D02*
X163908480Y-101402757D01*
X141500000Y-117176891D02*
X141294509Y-116971399D01*
X141500000Y-117950000D02*
X141500000Y-117176891D01*
X140619650Y-116971399D02*
X140517336Y-116869085D01*
X140517336Y-116869085D02*
X140174437Y-116526186D01*
X141294509Y-116971399D02*
X140619650Y-116971399D01*
X162600003Y-101800000D02*
X164350000Y-103549997D01*
X164350000Y-103549997D02*
X164350000Y-116432224D01*
X156084933Y-124017076D02*
X155600000Y-124017076D01*
X161190000Y-101800000D02*
X162600003Y-101800000D01*
X156765148Y-124017076D02*
X156084933Y-124017076D01*
X164350000Y-116432224D02*
X156765148Y-124017076D01*
X154928555Y-120162751D02*
X154928555Y-120647684D01*
X153765804Y-119000000D02*
X154928555Y-120162751D01*
X141248518Y-119000000D02*
X153765804Y-119000000D01*
X141000000Y-118751482D02*
X141248518Y-119000000D01*
X141000000Y-117950000D02*
X141000000Y-118751482D01*
X164045189Y-116305968D02*
X156905601Y-123445556D01*
X164045189Y-103676253D02*
X164045189Y-116305968D01*
X162568936Y-102200000D02*
X164045189Y-103676253D01*
X156905601Y-123445556D02*
X155169591Y-123445556D01*
X154921190Y-123693957D02*
X154436257Y-123693957D01*
X155169591Y-123445556D02*
X154921190Y-123693957D01*
X161190000Y-102200000D02*
X162568936Y-102200000D01*
X140500000Y-118682549D02*
X141122262Y-119304811D01*
X141122262Y-119304811D02*
X153151401Y-119304811D01*
X140500000Y-117950000D02*
X140500000Y-118682549D01*
X153817018Y-119970428D02*
X154159917Y-120313327D01*
X153151401Y-119304811D02*
X153817018Y-119970428D01*
X155170655Y-123090745D02*
X153915391Y-123090745D01*
X162430880Y-102600000D02*
X163735935Y-103905055D01*
X153915391Y-123090745D02*
X153686037Y-123320099D01*
X163735935Y-103905055D02*
X163735935Y-116184155D01*
X156779345Y-123140745D02*
X155220655Y-123140745D01*
X161190000Y-102600000D02*
X162430880Y-102600000D01*
X155220655Y-123140745D02*
X155170655Y-123090745D01*
X163735935Y-116184155D02*
X156779345Y-123140745D01*
X140927073Y-119609622D02*
X152280322Y-119609622D01*
X152280322Y-119609622D02*
X153281100Y-120610400D01*
X153281100Y-120614935D02*
X153623999Y-120957834D01*
X153281100Y-120610400D02*
X153281100Y-120614935D01*
X140000000Y-118682549D02*
X140927073Y-119609622D01*
X155259575Y-122748598D02*
X153262958Y-122748598D01*
X163431124Y-116057899D02*
X156653089Y-122835934D01*
X155346911Y-122835934D02*
X155259575Y-122748598D01*
X153209152Y-122802404D02*
X152866253Y-123145303D01*
X163431124Y-104063271D02*
X163431124Y-116057899D01*
X153262958Y-122748598D02*
X153209152Y-122802404D01*
X161190000Y-103023800D02*
X162391653Y-103023800D01*
X162391653Y-103023800D02*
X163431124Y-104063271D01*
X156653089Y-122835934D02*
X155346911Y-122835934D01*
X139500000Y-117950000D02*
X139500000Y-118852400D01*
X152124074Y-120261782D02*
X152466973Y-120604681D01*
X151776725Y-119914433D02*
X152124074Y-120261782D01*
X140800817Y-119914433D02*
X151776725Y-119914433D01*
X140153696Y-119267312D02*
X140800817Y-119914433D01*
X139914912Y-119267312D02*
X140153696Y-119267312D01*
X139500000Y-118852400D02*
X139914912Y-119267312D01*
X140000000Y-102150000D02*
X140000000Y-101247600D01*
X140000000Y-101247600D02*
X140342912Y-100904688D01*
X140342912Y-100904688D02*
X140515673Y-100904688D01*
X161190000Y-103400000D02*
X160200000Y-103400000D01*
X160200000Y-103400000D02*
X159909622Y-103109622D01*
X159909622Y-103109622D02*
X159909622Y-100159624D01*
X159909622Y-100159624D02*
X159042897Y-99292899D01*
X159042897Y-99292899D02*
X158699998Y-98950000D01*
X140909863Y-100162667D02*
X141252762Y-100505566D01*
X140209738Y-100162667D02*
X140909863Y-100162667D01*
X139500000Y-102150000D02*
X139500000Y-100872405D01*
X139500000Y-100872405D02*
X140209738Y-100162667D01*
X158556434Y-99521501D02*
X158071501Y-99521501D01*
X157892899Y-99342899D02*
X157550000Y-99000000D01*
X159604811Y-103285878D02*
X159604811Y-100569878D01*
X159604811Y-100569878D02*
X158556434Y-99521501D01*
X160118933Y-103800000D02*
X159604811Y-103285878D01*
X161190000Y-103800000D02*
X160118933Y-103800000D01*
X158071501Y-99521501D02*
X157892899Y-99342899D01*
X160940000Y-115800000D02*
X161190000Y-115800000D01*
X156011501Y-120728499D02*
X160940000Y-115800000D01*
X140067001Y-119611683D02*
X140674562Y-120219244D01*
X155675679Y-120728499D02*
X156011501Y-120728499D01*
X151223422Y-120219244D02*
X152533532Y-121529354D01*
X140674562Y-120219244D02*
X151223422Y-120219244D01*
X137759283Y-119611683D02*
X140067001Y-119611683D01*
X137000000Y-117950000D02*
X137000000Y-118852400D01*
X137000000Y-118852400D02*
X137759283Y-119611683D01*
X152533532Y-121529354D02*
X154874824Y-121529354D01*
X154874824Y-121529354D02*
X155675679Y-120728499D01*
X139940745Y-119916494D02*
X140548306Y-120524055D01*
X155638343Y-121834165D02*
X155725679Y-121921501D01*
X161768601Y-116427221D02*
X161768601Y-115604801D01*
X136500000Y-117950000D02*
X136500000Y-118852400D01*
X161540000Y-115376200D02*
X161190000Y-115376200D01*
X152407276Y-121834165D02*
X155638343Y-121834165D01*
X155725679Y-121921501D02*
X156274321Y-121921501D01*
X161768601Y-115604801D02*
X161540000Y-115376200D01*
X151097166Y-120524055D02*
X152407276Y-121834165D01*
X156274321Y-121921501D02*
X161768601Y-116427221D01*
X140548306Y-120524055D02*
X151097166Y-120524055D01*
X136500000Y-118852400D02*
X137564094Y-119916494D01*
X137564094Y-119916494D02*
X139940745Y-119916494D01*
X161707774Y-114976200D02*
X161190000Y-114976200D01*
X136000000Y-117950000D02*
X136000000Y-118852400D01*
X150970910Y-120828866D02*
X152281020Y-122138976D01*
X140422050Y-120828866D02*
X150970910Y-120828866D01*
X136000000Y-118852400D02*
X137368905Y-120221305D01*
X137368905Y-120221305D02*
X139814489Y-120221305D01*
X139814489Y-120221305D02*
X140422050Y-120828866D01*
X152281020Y-122138976D02*
X155512087Y-122138976D01*
X155512087Y-122138976D02*
X155599423Y-122226312D01*
X156400577Y-122226312D02*
X162073412Y-116553477D01*
X162073412Y-115341838D02*
X161707774Y-114976200D01*
X155599423Y-122226312D02*
X156400577Y-122226312D01*
X162073412Y-116553477D02*
X162073412Y-115341838D01*
X137200690Y-120553090D02*
X139715206Y-120553090D01*
X162378223Y-115215582D02*
X161738841Y-114576200D01*
X140295794Y-121133677D02*
X148778072Y-121133677D01*
X161738841Y-114576200D02*
X161190000Y-114576200D01*
X150088182Y-122443787D02*
X155385831Y-122443787D01*
X139715206Y-120553090D02*
X140295794Y-121133677D01*
X135500000Y-117950000D02*
X135500000Y-118852400D01*
X135500000Y-118852400D02*
X137200690Y-120553090D01*
X148778072Y-121133677D02*
X150088182Y-122443787D01*
X155473167Y-122531123D02*
X156526833Y-122531123D01*
X156526833Y-122531123D02*
X162378223Y-116679733D01*
X162378223Y-116679733D02*
X162378223Y-115215582D01*
X155385831Y-122443787D02*
X155473167Y-122531123D01*
X152104176Y-108550000D02*
X152525678Y-108971502D01*
X156164716Y-109959925D02*
X156164716Y-110444858D01*
X155929114Y-109724323D02*
X156164716Y-109959925D01*
X155928498Y-109724323D02*
X155929114Y-109724323D01*
X155175677Y-108971502D02*
X155928498Y-109724323D01*
X152525678Y-108971502D02*
X155175677Y-108971502D01*
X149400000Y-108550000D02*
X152104176Y-108550000D01*
X163126313Y-112787302D02*
X163126313Y-111849422D01*
X162495856Y-111081106D02*
X162152957Y-110738207D01*
X162697618Y-111282868D02*
X162495856Y-111081106D01*
X163126313Y-111849422D02*
X162697618Y-111420727D01*
X161190000Y-114200000D02*
X161713615Y-114200000D01*
X161713615Y-114200000D02*
X163126313Y-112787302D01*
X162697618Y-111420727D02*
X162697618Y-111282868D01*
X155015635Y-109656644D02*
X155358534Y-109999543D01*
X154635304Y-109276313D02*
X155015635Y-109656644D01*
X152399422Y-109276313D02*
X154635304Y-109276313D01*
X149400000Y-109050000D02*
X152173109Y-109050000D01*
X152173109Y-109050000D02*
X152399422Y-109276313D01*
X161190000Y-113776200D02*
X161706349Y-113776200D01*
X162821502Y-112123459D02*
X162616638Y-111918595D01*
X161706349Y-113776200D02*
X162821502Y-112661047D01*
X162461049Y-111918595D02*
X162118150Y-111575696D01*
X162616638Y-111918595D02*
X162461049Y-111918595D01*
X162821502Y-112661047D02*
X162821502Y-112123459D01*
X154685602Y-110464226D02*
X155028501Y-110807125D01*
X152273166Y-109581124D02*
X153802500Y-109581124D01*
X153802500Y-109581124D02*
X154685602Y-110464226D01*
X149400000Y-109550000D02*
X152242042Y-109550000D01*
X152242042Y-109550000D02*
X152273166Y-109581124D01*
X161602477Y-113400000D02*
X161813615Y-113188862D01*
X161813615Y-112755928D02*
X162156514Y-112413029D01*
X161190000Y-113400000D02*
X161602477Y-113400000D01*
X161813615Y-113188862D02*
X161813615Y-112755928D01*
X159700000Y-115632531D02*
X159700000Y-113987600D01*
X153563198Y-115550000D02*
X155389480Y-117376282D01*
X149400000Y-115550000D02*
X153563198Y-115550000D01*
X159700000Y-113987600D02*
X160687600Y-113000000D01*
X155389480Y-117376282D02*
X157956249Y-117376282D01*
X160687600Y-113000000D02*
X161190000Y-113000000D01*
X157956249Y-117376282D02*
X159700000Y-115632531D01*
X149400000Y-114050000D02*
X153801989Y-114050000D01*
X153801989Y-114050000D02*
X154085953Y-113766036D01*
X156156017Y-113388673D02*
X155441847Y-113388673D01*
X158110000Y-112176200D02*
X157368490Y-112176200D01*
X155441847Y-113388673D02*
X155236520Y-113183346D01*
X157368490Y-112176200D02*
X156156017Y-113388673D01*
X151423902Y-113671502D02*
X150302400Y-112550000D01*
X152551289Y-113194535D02*
X152074322Y-113671502D01*
X154360274Y-113194535D02*
X152551289Y-113194535D01*
X157403398Y-112576200D02*
X156286114Y-113693484D01*
X150302400Y-112550000D02*
X149400000Y-112550000D01*
X158110000Y-112576200D02*
X157403398Y-112576200D01*
X155494191Y-113693484D02*
X155293580Y-113894095D01*
X155293580Y-113894095D02*
X155059834Y-113894095D01*
X155059834Y-113894095D02*
X154360274Y-113194535D01*
X152074322Y-113671502D02*
X151423902Y-113671502D01*
X156286114Y-113693484D02*
X155494191Y-113693484D01*
X149400000Y-115050000D02*
X154444569Y-115050000D01*
X154444569Y-115050000D02*
X154690742Y-114803827D01*
X156145680Y-114264986D02*
X155768513Y-114264986D01*
X157434466Y-112976200D02*
X156145680Y-114264986D01*
X158110000Y-112976200D02*
X157434466Y-112976200D01*
X150302400Y-114550000D02*
X149400000Y-114550000D01*
X154054177Y-114550000D02*
X150302400Y-114550000D01*
X154495245Y-114202566D02*
X154360274Y-114337537D01*
X154266640Y-114337537D02*
X154054177Y-114550000D01*
X154950254Y-114202566D02*
X154495245Y-114202566D01*
X155247434Y-114674553D02*
X155247434Y-114499746D01*
X155799307Y-115042427D02*
X155615308Y-115042427D01*
X158110000Y-113376200D02*
X157465534Y-113376200D01*
X155615308Y-115042427D02*
X155247434Y-114674553D01*
X154360274Y-114337537D02*
X154266640Y-114337537D01*
X157465534Y-113376200D02*
X155799307Y-115042427D01*
X155247434Y-114499746D02*
X154950254Y-114202566D01*
X151019011Y-105550000D02*
X151390166Y-105178845D01*
X149400000Y-105550000D02*
X151019011Y-105550000D01*
X152229565Y-105178845D02*
X153047701Y-105996981D01*
X153047701Y-105996981D02*
X153047701Y-106481914D01*
X151390166Y-105178845D02*
X152229565Y-105178845D01*
X155568533Y-115556054D02*
X155083600Y-115556054D01*
X155692818Y-115431769D02*
X155568533Y-115556054D01*
X155811863Y-115431769D02*
X155692818Y-115431769D01*
X156006107Y-115266694D02*
X155811863Y-115431769D01*
X157496601Y-113776200D02*
X156006107Y-115266694D01*
X158110000Y-113776200D02*
X157496601Y-113776200D01*
X151263910Y-104874034D02*
X153034145Y-104874034D01*
X153339788Y-105179677D02*
X153682687Y-105522576D01*
X153034145Y-104874034D02*
X153339788Y-105179677D01*
X149400000Y-105050000D02*
X151087944Y-105050000D01*
X151087944Y-105050000D02*
X151263910Y-104874034D01*
X155581693Y-116036874D02*
X155238794Y-116379773D01*
X155881987Y-115736580D02*
X155581693Y-116036874D01*
X155923887Y-115736580D02*
X155881987Y-115736580D01*
X158110000Y-114176200D02*
X157527667Y-114176200D01*
X156212897Y-115490970D02*
X155923887Y-115736580D01*
X157527667Y-114176200D02*
X156212897Y-115490970D01*
X149400000Y-111050000D02*
X151054176Y-111050000D01*
X151273689Y-111269513D02*
X151957897Y-111269513D01*
X151054176Y-111050000D02*
X151273689Y-111269513D01*
X151957897Y-111269513D02*
X152442830Y-111269513D01*
X157558734Y-114576200D02*
X156121678Y-116013256D01*
X158110000Y-114576200D02*
X157558734Y-114576200D01*
X156121678Y-116013256D02*
X156121678Y-116305139D01*
X151400000Y-110550000D02*
X151500000Y-110650000D01*
X149400000Y-110550000D02*
X151400000Y-110550000D01*
X158110000Y-114976200D02*
X157589801Y-114976200D01*
X156693198Y-115872803D02*
X156693198Y-116647816D01*
X156693198Y-116647816D02*
X156850162Y-116804780D01*
X157589801Y-114976200D02*
X156693198Y-115872803D01*
X137500000Y-116303786D02*
X138383120Y-115420666D01*
X137500000Y-117950000D02*
X137500000Y-116303786D01*
X138383120Y-115420666D02*
X138726019Y-115077767D01*
X158110000Y-115376200D02*
X157760000Y-115376200D01*
X157760000Y-115376200D02*
X157298385Y-115837815D01*
X157298385Y-115837815D02*
X157298385Y-116096476D01*
X139115199Y-115932401D02*
X139580652Y-115932401D01*
X138000000Y-117950000D02*
X138000000Y-117047600D01*
X138000000Y-117047600D02*
X139115199Y-115932401D01*
X158255301Y-115800000D02*
X158239348Y-115800000D01*
X158170500Y-115868848D02*
X158170500Y-116353781D01*
X158239348Y-115800000D02*
X158170500Y-115868848D01*
X133600000Y-104050000D02*
X133600000Y-103350000D01*
X152235737Y-112664263D02*
X151800000Y-113100000D01*
X154573456Y-112664263D02*
X152235737Y-112664263D01*
X155808022Y-112909025D02*
X155510842Y-112611845D01*
X158110000Y-111776200D02*
X157321518Y-111776200D01*
X156188693Y-112909025D02*
X155808022Y-112909025D01*
X154625874Y-112611845D02*
X154573456Y-112664263D01*
X157321518Y-111776200D02*
X156188693Y-112909025D01*
X155510842Y-112611845D02*
X154625874Y-112611845D01*
X156384392Y-111933139D02*
X156326184Y-111933139D01*
X156326184Y-111933139D02*
X155983285Y-112276038D01*
X156941331Y-111376200D02*
X156384392Y-111933139D01*
X158110000Y-111376200D02*
X156941331Y-111376200D01*
X152821279Y-110275352D02*
X153755607Y-111209680D01*
X153755607Y-111209680D02*
X154224771Y-111209680D01*
X135500000Y-102150000D02*
X135500000Y-103052400D01*
X135500000Y-103052400D02*
X141647600Y-109200000D01*
X141647600Y-109200000D02*
X143150000Y-109200000D01*
X133600000Y-115050000D02*
X137907962Y-115050000D01*
X143182176Y-114677791D02*
X143667109Y-114677791D01*
X138980339Y-114506265D02*
X139151865Y-114677791D01*
X138451697Y-114506265D02*
X138980339Y-114506265D01*
X137907962Y-115050000D02*
X138451697Y-114506265D01*
X139151865Y-114677791D02*
X143182176Y-114677791D01*
X156565294Y-111321171D02*
X155826059Y-111321171D01*
X156910151Y-110976314D02*
X156565294Y-111321171D01*
X155826059Y-111321171D02*
X155518236Y-111628994D01*
X158110000Y-110976200D02*
X158109886Y-110976314D01*
X158109886Y-110976314D02*
X156910151Y-110976314D01*
X155061237Y-112085993D02*
X155175337Y-111971893D01*
X155518236Y-111628994D02*
X155175337Y-111971893D01*
X153824193Y-112085993D02*
X155061237Y-112085993D01*
X153603978Y-112306208D02*
X153824193Y-112085993D01*
X151363221Y-112306208D02*
X153603978Y-112306208D01*
X138472870Y-114054025D02*
X142622251Y-114054025D01*
X137855393Y-114671502D02*
X138472870Y-114054025D01*
X134502400Y-114550000D02*
X134623902Y-114671502D01*
X142622251Y-114054025D02*
X143107184Y-114054025D01*
X134623902Y-114671502D02*
X137855393Y-114671502D01*
X133600000Y-114550000D02*
X134502400Y-114550000D01*
X151637543Y-111734706D02*
X150741644Y-111734706D01*
X155672356Y-111016360D02*
X155310072Y-111378644D01*
X154901631Y-111378644D02*
X154499093Y-111781182D01*
X157474323Y-110671503D02*
X156783895Y-110671503D01*
X156439038Y-111016360D02*
X155672356Y-111016360D01*
X156783895Y-110671503D02*
X156439038Y-111016360D01*
X152776984Y-111781182D02*
X152556769Y-112001397D01*
X157569626Y-110576200D02*
X157474323Y-110671503D01*
X158110000Y-110576200D02*
X157569626Y-110576200D01*
X152556769Y-112001397D02*
X151904234Y-112001397D01*
X155310072Y-111378644D02*
X154901631Y-111378644D01*
X151904234Y-112001397D02*
X151637543Y-111734706D01*
X154499093Y-111781182D02*
X152776984Y-111781182D01*
X150741644Y-111734706D02*
X150639823Y-111836527D01*
X159300000Y-102087600D02*
X159300000Y-103581066D01*
X159650000Y-103931066D02*
X159650000Y-110150000D01*
X159650000Y-110150000D02*
X159200000Y-110600000D01*
X158110000Y-101400000D02*
X158612400Y-101400000D01*
X158612400Y-101400000D02*
X159300000Y-102087600D01*
X159300000Y-103581066D02*
X159650000Y-103931066D01*
X159200000Y-110600000D02*
X158612400Y-110600000D01*
X158612400Y-110600000D02*
X158110000Y-110600000D01*
X145228499Y-105884092D02*
X145228499Y-105725679D01*
X145492372Y-104013052D02*
X145835271Y-103670153D01*
X144500000Y-117047600D02*
X144543421Y-117004179D01*
X144356979Y-108624321D02*
X144356979Y-106755612D01*
X144356979Y-106755612D02*
X145228499Y-105884092D01*
X144500000Y-117950000D02*
X144500000Y-117047600D01*
X145492372Y-105461806D02*
X145492372Y-104013052D01*
X145228499Y-105725679D02*
X145492372Y-105461806D01*
X144543421Y-117004179D02*
X144543421Y-108810763D01*
X144543421Y-108810763D02*
X144356979Y-108624321D01*
X158110000Y-104223800D02*
X157018717Y-104223800D01*
X155609705Y-102814788D02*
X155266806Y-102471889D01*
X157018717Y-104223800D02*
X155609705Y-102814788D01*
X144432487Y-105720263D02*
X144775386Y-105377364D01*
X144028621Y-106124129D02*
X144432487Y-105720263D01*
X144000000Y-115191034D02*
X144238610Y-114952424D01*
X144028621Y-114193481D02*
X144028621Y-106124129D01*
X144000000Y-117950000D02*
X144000000Y-115191034D01*
X144238610Y-114403470D02*
X144028621Y-114193481D01*
X144238610Y-114952424D02*
X144238610Y-114403470D01*
X158076578Y-104590378D02*
X156486239Y-104590378D01*
X155546473Y-103650612D02*
X155203574Y-103307713D01*
X158110000Y-104623800D02*
X158076578Y-104590378D01*
X156486239Y-104590378D02*
X155546473Y-103650612D01*
X156921501Y-106878499D02*
X156800000Y-107000000D01*
X157474321Y-106878499D02*
X156921501Y-106878499D01*
X157595822Y-107000000D02*
X157474321Y-106878499D01*
X158110000Y-107000000D02*
X157595822Y-107000000D01*
X156800000Y-107000000D02*
X154200000Y-107000000D01*
X157000000Y-106600000D02*
X156800000Y-106800000D01*
X156800000Y-106800000D02*
X156800000Y-107000000D01*
X154200000Y-107000000D02*
X152800000Y-108400000D01*
X158110000Y-107023800D02*
X158109993Y-107023793D01*
X154563819Y-106205114D02*
X154563819Y-105120167D01*
X152940435Y-107828498D02*
X154563819Y-106205114D01*
X152304176Y-108050000D02*
X152525678Y-107828498D01*
X154515062Y-105071410D02*
X154515062Y-102283144D01*
X154515062Y-102283144D02*
X154897837Y-101900369D01*
X154897837Y-101900369D02*
X155530394Y-101900369D01*
X149400000Y-108050000D02*
X152304176Y-108050000D01*
X157453825Y-103823800D02*
X158110000Y-103823800D01*
X154563819Y-105120167D02*
X154515062Y-105071410D01*
X155530394Y-101900369D02*
X157453825Y-103823800D01*
X152525678Y-107828498D02*
X152940435Y-107828498D01*
X154724534Y-101595558D02*
X155714234Y-101595558D01*
X152373109Y-107550000D02*
X152399422Y-107523687D01*
X156890089Y-102814601D02*
X157499288Y-103423800D01*
X152814179Y-107523687D02*
X154259008Y-106078858D01*
X154210251Y-105197666D02*
X154210251Y-102109841D01*
X154210251Y-102109841D02*
X154724534Y-101595558D01*
X156674158Y-102555482D02*
X156890089Y-102814601D01*
X157499288Y-103423800D02*
X158110000Y-103423800D01*
X155714234Y-101595558D02*
X156674158Y-102555482D01*
X152399422Y-107523687D02*
X152814179Y-107523687D01*
X154259008Y-106078858D02*
X154259008Y-105246423D01*
X149400000Y-107550000D02*
X152373109Y-107550000D01*
X154259008Y-105246423D02*
X154210251Y-105197666D01*
X149931759Y-102985935D02*
X148624322Y-101678498D01*
X157544750Y-103023800D02*
X157043425Y-102522475D01*
X148624322Y-101678498D02*
X147971502Y-101678498D01*
X156899469Y-102349727D02*
X155840489Y-101290747D01*
X158110000Y-103023800D02*
X157544750Y-103023800D01*
X152903090Y-102985935D02*
X149931759Y-102985935D01*
X147971502Y-101678498D02*
X147500000Y-102150000D01*
X155840489Y-101290747D02*
X154598278Y-101290747D01*
X157043425Y-102522475D02*
X156899469Y-102349727D01*
X154598278Y-101290747D02*
X152903090Y-102985935D01*
X147000000Y-102150000D02*
X147000000Y-101247600D01*
X147000000Y-101247600D02*
X147076201Y-101171399D01*
X147076201Y-101171399D02*
X150063441Y-101171399D01*
X155966753Y-100985936D02*
X157604617Y-102623800D01*
X154472022Y-100985936D02*
X155966753Y-100985936D01*
X152826834Y-102631124D02*
X154472022Y-100985936D01*
X150063441Y-101171399D02*
X151523166Y-102631124D01*
X151523166Y-102631124D02*
X152826834Y-102631124D01*
X157604617Y-102623800D02*
X158110000Y-102623800D01*
X151649422Y-102326313D02*
X152700578Y-102326313D01*
X156093010Y-100681125D02*
X157635685Y-102223800D01*
X146881012Y-100866588D02*
X150189697Y-100866588D01*
X150189697Y-100866588D02*
X151649422Y-102326313D01*
X146500000Y-101247600D02*
X146881012Y-100866588D01*
X146500000Y-102150000D02*
X146500000Y-101247600D01*
X154345766Y-100681125D02*
X156093010Y-100681125D01*
X157635685Y-102223800D02*
X158110000Y-102223800D01*
X152700578Y-102326313D02*
X154345766Y-100681125D01*
X146000000Y-101247600D02*
X146000000Y-102150000D01*
X157666752Y-101823800D02*
X156219266Y-100376314D01*
X146854566Y-100393034D02*
X146000000Y-101247600D01*
X147966325Y-99913358D02*
X147486649Y-100393034D01*
X149667534Y-99913358D02*
X147966325Y-99913358D01*
X151775678Y-102021502D02*
X149667534Y-99913358D01*
X158110000Y-101823800D02*
X157666752Y-101823800D01*
X152574322Y-102021502D02*
X151775678Y-102021502D01*
X156219266Y-100376314D02*
X154219510Y-100376314D01*
X154219510Y-100376314D02*
X152574322Y-102021502D01*
X147486649Y-100393034D02*
X146854566Y-100393034D01*
X151658250Y-106550000D02*
X151754125Y-106645875D01*
X149400000Y-106550000D02*
X151658250Y-106550000D01*
X154856436Y-100071503D02*
X154534933Y-99750000D01*
X158110000Y-101023800D02*
X157377975Y-101023800D01*
X154534933Y-99750000D02*
X154050000Y-99750000D01*
X157377975Y-101023800D02*
X156425678Y-100071503D01*
X156425678Y-100071503D02*
X154856436Y-100071503D01*
X155884933Y-99500000D02*
X155400000Y-99500000D01*
X157758733Y-100623800D02*
X156634933Y-99500000D01*
X156634933Y-99500000D02*
X155884933Y-99500000D01*
X158110000Y-100623800D02*
X157758733Y-100623800D01*
X151364833Y-106050000D02*
X151664487Y-105750346D01*
X149400000Y-106050000D02*
X151364833Y-106050000D01*
X147428498Y-107125799D02*
X148350000Y-106204297D01*
X147428498Y-107674443D02*
X147428498Y-107125799D01*
X147695189Y-107941134D02*
X147428498Y-107674443D01*
X148350000Y-106204297D02*
X146958475Y-106204297D01*
X146958475Y-106204297D02*
X146028499Y-105274321D01*
X149400000Y-116050000D02*
X148497600Y-116050000D01*
X148497600Y-116050000D02*
X147468498Y-115020898D01*
X147468498Y-115020898D02*
X147468498Y-113725678D01*
X147456435Y-103628498D02*
X148350000Y-102734933D01*
X148350000Y-102734933D02*
X148350000Y-102250000D01*
X146028499Y-104322747D02*
X146722748Y-103628498D01*
X146722748Y-103628498D02*
X147456435Y-103628498D01*
X146028499Y-105274321D02*
X146028499Y-104322747D01*
X147695189Y-113498987D02*
X147695189Y-107941134D01*
X147468498Y-113725678D02*
X147695189Y-113498987D01*
X158255301Y-100200000D02*
X157904176Y-100200000D01*
X156054176Y-98350000D02*
X154604176Y-98350000D01*
X152150000Y-100865067D02*
X152150000Y-101350000D01*
X157904176Y-100200000D02*
X156054176Y-98350000D01*
X154604176Y-98350000D02*
X152150000Y-100804176D01*
X152150000Y-100804176D02*
X152150000Y-100865067D01*
X152847600Y-98000000D02*
X153450000Y-98000000D01*
X151402411Y-99445189D02*
X152847600Y-98000000D01*
X146728310Y-100088223D02*
X147360393Y-100088223D01*
X147360393Y-100088223D02*
X148003427Y-99445189D01*
X146078312Y-100738221D02*
X146728310Y-100088223D01*
X144500000Y-101247600D02*
X145009379Y-100738221D01*
X145009379Y-100738221D02*
X146078312Y-100738221D01*
X144500000Y-102150000D02*
X144500000Y-101247600D01*
X148003427Y-99445189D02*
X151402411Y-99445189D01*
X146602054Y-99783412D02*
X147234137Y-99783412D01*
X150647600Y-98000000D02*
X151250000Y-98000000D01*
X149507222Y-99140378D02*
X150647600Y-98000000D01*
X147877171Y-99140378D02*
X149507222Y-99140378D01*
X147234137Y-99783412D02*
X147877171Y-99140378D01*
X144000000Y-102150000D02*
X144000000Y-101247600D01*
X144814190Y-100433410D02*
X145952056Y-100433410D01*
X144000000Y-101247600D02*
X144814190Y-100433410D01*
X145952056Y-100433410D02*
X146602054Y-99783412D01*
X147834082Y-98752400D02*
X148447600Y-98752400D01*
X144618999Y-100128601D02*
X145825798Y-100128601D01*
X148447600Y-98752400D02*
X149050000Y-98150000D01*
X143500000Y-101247600D02*
X144618999Y-100128601D01*
X145825798Y-100128601D02*
X146475798Y-99478601D01*
X149050000Y-98150000D02*
X149050000Y-98000000D01*
X146475798Y-99478601D02*
X147107881Y-99478601D01*
X147107881Y-99478601D02*
X147834082Y-98752400D01*
X143500000Y-102150000D02*
X143500000Y-101247600D01*
X139870000Y-103682400D02*
X139870000Y-104975067D01*
X140500000Y-103052400D02*
X139870000Y-103682400D01*
X140500000Y-102150000D02*
X140500000Y-103052400D01*
X139870000Y-104975067D02*
X139870000Y-105460000D01*
X132300000Y-100777400D02*
X132300000Y-100350000D01*
X131928498Y-101492016D02*
X131928498Y-101148902D01*
X131928498Y-101148902D02*
X132300000Y-100777400D01*
X132300000Y-101863518D02*
X131928498Y-101492016D01*
X132300000Y-103800000D02*
X132300000Y-101863518D01*
X133600000Y-106550000D02*
X132697600Y-106550000D01*
X132697600Y-106550000D02*
X132300000Y-106152400D01*
X133752400Y-100350000D02*
X134104698Y-100350000D01*
X134104698Y-100350000D02*
X134200000Y-100445302D01*
X133500000Y-100350000D02*
X133752400Y-100350000D01*
X132247558Y-107099958D02*
X132247558Y-106988970D01*
X132697600Y-107550000D02*
X132247558Y-107099958D01*
X133600000Y-107550000D02*
X132697600Y-107550000D01*
X134650000Y-105402400D02*
X134650000Y-103650000D01*
X134502400Y-105550000D02*
X134650000Y-105402400D01*
X132753894Y-96509622D02*
X132300000Y-96963516D01*
X134279113Y-96509622D02*
X132753894Y-96509622D01*
X135371502Y-100114882D02*
X135371502Y-97602011D01*
X134521777Y-100964607D02*
X135371502Y-100114882D01*
X134521777Y-103521777D02*
X134521777Y-100964607D01*
X133600000Y-105550000D02*
X134502400Y-105550000D01*
X134650000Y-103650000D02*
X134521777Y-103521777D01*
X135371502Y-97602011D02*
X134279113Y-96509622D01*
X132300000Y-96963516D02*
X132300000Y-97350000D01*
X134405369Y-96204811D02*
X132627639Y-96204811D01*
X134826588Y-101090863D02*
X135676313Y-100241138D01*
X134826588Y-103395521D02*
X134826588Y-101090863D01*
X134954811Y-103523744D02*
X134826588Y-103395521D01*
X134954811Y-105597589D02*
X134954811Y-103523744D01*
X134502400Y-106050000D02*
X134954811Y-105597589D01*
X135676313Y-100241138D02*
X135676313Y-97475755D01*
X133600000Y-106050000D02*
X134502400Y-106050000D01*
X132627639Y-96204811D02*
X131900000Y-96932450D01*
X135676313Y-97475755D02*
X134405369Y-96204811D01*
X131900000Y-96932450D02*
X131900000Y-97350000D01*
X135131399Y-103269265D02*
X135131399Y-101226559D01*
X131500000Y-96922600D02*
X131500000Y-97350000D01*
X133600000Y-107050000D02*
X134502400Y-107050000D01*
X131500000Y-96901384D02*
X131500000Y-96922600D01*
X135981124Y-97349499D02*
X134531625Y-95900000D01*
X132501382Y-95900000D02*
X131500000Y-96901384D01*
X134502400Y-107050000D02*
X135259622Y-106292778D01*
X134531625Y-95900000D02*
X132501382Y-95900000D01*
X135981124Y-100376834D02*
X135981124Y-97349499D01*
X135259622Y-103397488D02*
X135131399Y-103269265D01*
X135259622Y-106292778D02*
X135259622Y-103397488D01*
X135131399Y-101226559D02*
X135981124Y-100376834D01*
X141000000Y-103392913D02*
X140930582Y-103462331D01*
X141000000Y-102150000D02*
X141000000Y-103392913D01*
X156780000Y-124900000D02*
X157005000Y-124900000D01*
X157005000Y-124900000D02*
X158685000Y-123220000D01*
X158685000Y-123220000D02*
X159330000Y-123220000D01*
X156780000Y-124900000D02*
X154350000Y-124900000D01*
X154350000Y-124900000D02*
X154290000Y-124960000D01*
X151310000Y-123660000D02*
X150060000Y-124910000D01*
X150060000Y-124910000D02*
X150060000Y-124950000D01*
X151310000Y-123660000D02*
X151310000Y-124330000D01*
X151310000Y-124330000D02*
X151940000Y-124960000D01*
X151940000Y-124960000D02*
X152090000Y-124960000D01*
X152090000Y-124960000D02*
X150070000Y-124960000D01*
X150070000Y-124960000D02*
X150060000Y-124950000D01*
X152540000Y-117060000D02*
X155590000Y-120110000D01*
X152540000Y-116530000D02*
X152540000Y-117060000D01*
X148000000Y-113960000D02*
X148040000Y-114000000D01*
X148000000Y-107400121D02*
X148000000Y-113960000D01*
X149400000Y-107050000D02*
X148350121Y-107050000D01*
X148350121Y-107050000D02*
X148000000Y-107400121D01*
M02*
