G04 #@! TF.FileFunction,Paste,Bot*
%FSLAX46Y46*%
G04 Gerber Fmt 4.6, Leading zero omitted, Abs format (unit mm)*
G04 Created by KiCad (PCBNEW 4.0.1-stable) date Monday, March 07, 2016 'PMt' 11:58:59 PM*
%MOMM*%
G01*
G04 APERTURE LIST*
%ADD10C,0.100000*%
%ADD11R,0.660000X0.230000*%
%ADD12R,0.660000X0.350000*%
%ADD13R,0.900000X1.200000*%
%ADD14R,1.200000X0.750000*%
%ADD15R,1.400000X1.050000*%
%ADD16R,0.797560X0.797560*%
%ADD17R,1.600000X1.400000*%
%ADD18R,0.400000X1.350000*%
%ADD19R,1.900000X1.900000*%
%ADD20C,1.524000*%
%ADD21R,1.200000X0.900000*%
%ADD22R,0.800100X0.800100*%
%ADD23R,1.501140X1.501140*%
G04 APERTURE END LIST*
D10*
D11*
X161005000Y-106200000D03*
X158295000Y-106200000D03*
X161005000Y-109800000D03*
X158295000Y-109800000D03*
D12*
X161005000Y-105725000D03*
X158295000Y-105725000D03*
X161005000Y-110275000D03*
X158295000Y-110275000D03*
D11*
X158295000Y-109400000D03*
X161005000Y-109400000D03*
X158295000Y-109000000D03*
X161005000Y-109000000D03*
X158295000Y-108600000D03*
X161005000Y-108600000D03*
X158295000Y-108200000D03*
X161005000Y-108200000D03*
X158295000Y-107800000D03*
X161005000Y-107800000D03*
X158295000Y-107400000D03*
X161005000Y-107400000D03*
X158295000Y-107000000D03*
X161005000Y-107000000D03*
X158295000Y-106600000D03*
X161005000Y-106600000D03*
D13*
X146400000Y-104910000D03*
X146400000Y-107110000D03*
D14*
X141750000Y-104520000D03*
X143650000Y-104520000D03*
D15*
X151790000Y-92260000D03*
X148190000Y-92260000D03*
X151790000Y-90810000D03*
X148190000Y-90810000D03*
D16*
X158450000Y-91100000D03*
X158450000Y-92598600D03*
D17*
X139100000Y-93900000D03*
X145500000Y-93900000D03*
D18*
X141000000Y-94125000D03*
X141650000Y-94125000D03*
X142300000Y-94125000D03*
X142950000Y-94125000D03*
X143600000Y-94125000D03*
D19*
X141100000Y-91450000D03*
X143500000Y-91450000D03*
D20*
X162400000Y-118920000D03*
X164560000Y-118850000D03*
D21*
X132800000Y-110350000D03*
X135000000Y-110350000D03*
X132800000Y-112150000D03*
X135000000Y-112150000D03*
X156514800Y-92354400D03*
X154314800Y-92354400D03*
D20*
X141732000Y-108813600D03*
X139598400Y-108813600D03*
D22*
X156375000Y-122999240D03*
X158275000Y-122999240D03*
X157325000Y-124998220D03*
D21*
X158425000Y-121350000D03*
X156225000Y-121350000D03*
D22*
X160700380Y-99050000D03*
X160700380Y-97150000D03*
X162699360Y-98100000D03*
X154875000Y-125000760D03*
X152975000Y-125000760D03*
X153925000Y-123001780D03*
X149300000Y-123050000D03*
X151200000Y-123050000D03*
X150250000Y-125048980D03*
D23*
X164600000Y-97260000D03*
M02*
