M48
INCH,TZ
T1C0.013
T2C0.013
T3C0.040
T4C0.118
%
G90
G05
T1
X51531Y-39610
X51543Y-37866
X51551Y-40606
X51587Y-42799
X51673Y-44843
X52016Y-41858
X52043Y-37894
X52067Y-42602
X52068Y-42974
X52340Y-46063
X52531Y-37413
X52598Y-40689
X52803Y-39949
X52987Y-37543
X53335Y-37504
X53366Y-44921
X53708Y-44718
X53882Y-35882
X53992Y-44932
X54297Y-44762
X54326Y-42854
X54354Y-38362
X54539Y-37937
X54617Y-45306
X54953Y-45643
X54999Y-40768
X55016Y-37894
X55187Y-45876
X55257Y-41438
X55295Y-39106
X55342Y-40988
X55380Y-43200
X55513Y-45827
X55669Y-44587
X55740Y-43620
X55945Y-45807
X56120Y-40766
X56220Y-43740
X56230Y-41722
X56270Y-37579
X56299Y-45925
X56339Y-44488
X56341Y-44903
X56562Y-45149
X56732Y-41602
X56825Y-37853
X56839Y-43450
X56929Y-42581
X56929Y-42911
X57004Y-40791
X57047Y-36498
X57106Y-41217
X57323Y-40707
X57508Y-43127
X57539Y-36496
X57660Y-43860
X58283Y-44882
X58306Y-41371
X58306Y-42284
X58322Y-40403
X58327Y-48435
X58417Y-40008
X58632Y-47879
X58839Y-46127
X59091Y-39524
X59114Y-36004
X59163Y-48759
X59175Y-48385
X59307Y-44030
X59417Y-46055
X59500Y-41935
X59508Y-42264
X59528Y-49232
X59592Y-44215
X59646Y-42913
X59647Y-43599
X59662Y-47214
X59764Y-44528
X59946Y-48264
X59961Y-41811
X59977Y-43917
X59998Y-47166
X60055Y-45878
X60101Y-43613
X60134Y-40339
X60138Y-41000
X60211Y-48462
X60305Y-39435
X60365Y-47169
X60413Y-42815
X60600Y-49213
X60610Y-36870
X60664Y-44790
X60669Y-42165
X60694Y-47193
X60715Y-43785
X60902Y-45198
X60919Y-43317
X60943Y-35835
X61009Y-43635
X61259Y-47193
X61280Y-35835
X61429Y-39283
X61435Y-41299
X61435Y-41299
X61459Y-43531
X61614Y-35835
X61614Y-42421
X61709Y-47073
X61786Y-41943
X61805Y-39341
X61839Y-39795
X61850Y-43307
X61890Y-42303
X61890Y-42598
X61988Y-36811
X62028Y-38488
X62055Y-38942
X62480Y-38957
X62783Y-48469
X62805Y-49292
X62953Y-47874
X62992Y-43740
X63642Y-38228
X63823Y-39398
X63826Y-43927
X63840Y-43598
X63841Y-44257
X64867Y-38302
X65038Y-37051
T2
X61020Y-40473
X61057Y-45495
X61113Y-40790
X61117Y-44560
X61118Y-45819
X61299Y-41599
X61326Y-44986
X61411Y-44203
X61465Y-45789
X61627Y-43064
X61634Y-42756
X61752Y-45986
X61890Y-42913
X61928Y-45707
X62272Y-45809
X63839Y-42028
X63839Y-42323
X63839Y-42618
X63839Y-43248
X63839Y-42913
X64217Y-39449
X64531Y-39922
X64543Y-39501
T3
X54756Y-48173
X54756Y-49173
X55756Y-48173
X55756Y-49173
X56756Y-48173
X56756Y-49173
X57756Y-48173
X57756Y-49173
T4
X52264Y-36516
X52264Y-48524
X64272Y-36516
X64272Y-48524
T0
M30
