G04 #@! TF.FileFunction,Copper,L4,Bot,Signal*
%FSLAX46Y46*%
G04 Gerber Fmt 4.6, Leading zero omitted, Abs format (unit mm)*
G04 Created by KiCad (PCBNEW (2015-11-03 BZR 6296)-product) date Tuesday, November 24, 2015 'PMt' 09:03:28 PM*
%MOMM*%
G01*
G04 APERTURE LIST*
%ADD10C,0.100000*%
%ADD11R,0.660000X0.230000*%
%ADD12R,0.660000X0.350000*%
%ADD13R,0.750000X1.200000*%
%ADD14R,1.200000X0.750000*%
%ADD15R,1.727200X1.727200*%
%ADD16O,1.727200X1.727200*%
%ADD17R,0.900000X1.200000*%
%ADD18R,1.200000X0.900000*%
%ADD19R,0.800100X1.800860*%
%ADD20R,1.400000X1.050000*%
%ADD21R,0.797560X0.797560*%
%ADD22R,1.600000X1.400000*%
%ADD23R,0.400000X1.350000*%
%ADD24R,1.900000X1.900000*%
%ADD25C,1.600000*%
%ADD26C,1.524000*%
%ADD27R,1.800860X0.800100*%
%ADD28C,0.685800*%
%ADD29C,0.685801*%
%ADD30C,0.152400*%
%ADD31C,0.254000*%
%ADD32C,0.175000*%
G04 APERTURE END LIST*
D10*
D11*
X161005000Y-106200000D03*
X158295000Y-106200000D03*
X161005000Y-109800000D03*
X158295000Y-109800000D03*
D12*
X161005000Y-105725000D03*
X158295000Y-105725000D03*
X161005000Y-110275000D03*
X158295000Y-110275000D03*
D11*
X158295000Y-109400000D03*
X161005000Y-109400000D03*
X158295000Y-109000000D03*
X161005000Y-109000000D03*
X158295000Y-108600000D03*
X161005000Y-108600000D03*
X158295000Y-108200000D03*
X161005000Y-108200000D03*
X158295000Y-107800000D03*
X161005000Y-107800000D03*
X158295000Y-107400000D03*
X161005000Y-107400000D03*
X158295000Y-107000000D03*
X161005000Y-107000000D03*
X158295000Y-106600000D03*
X161005000Y-106600000D03*
D13*
X137200000Y-97750000D03*
X137200000Y-99650000D03*
X147600000Y-106000000D03*
X147600000Y-104100000D03*
D14*
X149400000Y-115400000D03*
X147500000Y-115400000D03*
D15*
X145200000Y-124900000D03*
D16*
X145200000Y-122360000D03*
X142660000Y-124900000D03*
X142660000Y-122360000D03*
X140120000Y-124900000D03*
X140120000Y-122360000D03*
X137580000Y-124900000D03*
X137580000Y-122360000D03*
D17*
X146000000Y-110250000D03*
X146000000Y-108050000D03*
D18*
X143700000Y-106700000D03*
X141500000Y-106700000D03*
X139550000Y-106700000D03*
X137350000Y-106700000D03*
D14*
X141750000Y-104520000D03*
X143650000Y-104520000D03*
D19*
X150330000Y-124060000D03*
X148430000Y-124060000D03*
X149380000Y-121057720D03*
X158780000Y-124042280D03*
X156880000Y-124042280D03*
X157830000Y-121040000D03*
D20*
X151790000Y-92260000D03*
X148190000Y-92260000D03*
X151790000Y-90810000D03*
X148190000Y-90810000D03*
D13*
X139350000Y-96750000D03*
X139350000Y-98650000D03*
D21*
X158450000Y-91100000D03*
X158450000Y-92598600D03*
D22*
X139100000Y-93900000D03*
X145500000Y-93900000D03*
D23*
X141000000Y-94125000D03*
X141650000Y-94125000D03*
X142300000Y-94125000D03*
X142950000Y-94125000D03*
X143600000Y-94125000D03*
D24*
X141100000Y-91450000D03*
X143500000Y-91450000D03*
D25*
X139000000Y-91450000D03*
X145600000Y-91450000D03*
D26*
X164100000Y-120450000D03*
X164100000Y-118400000D03*
D18*
X132800000Y-110350000D03*
X135000000Y-110350000D03*
X132800000Y-112150000D03*
X135000000Y-112150000D03*
X156514800Y-92354400D03*
X154314800Y-92354400D03*
D27*
X160200000Y-99050000D03*
X160200000Y-97150000D03*
X163202280Y-98100000D03*
D26*
X141732000Y-108813600D03*
X139598400Y-108813600D03*
D28*
X154795302Y-91020880D03*
X156500000Y-91020880D03*
X155650000Y-91020880D03*
X160250000Y-121550000D03*
X147292160Y-104599879D03*
X144789150Y-103608420D03*
X132250000Y-109150000D03*
X144900000Y-92704672D03*
X150150000Y-91450000D03*
X147000000Y-123500000D03*
X136500000Y-100850000D03*
X131200000Y-103250000D03*
X137200000Y-100900000D03*
X148000000Y-116600000D03*
X132942400Y-117000000D03*
D29*
X155484831Y-105661094D03*
D28*
X145278480Y-106106215D03*
X146571520Y-116500000D03*
X159881635Y-124710115D03*
X147150000Y-110728480D03*
X146150000Y-92700000D03*
X138250000Y-97050000D03*
X157450000Y-93500000D03*
X153950000Y-93650000D03*
X138118860Y-100652772D03*
X136700000Y-105500000D03*
X138150000Y-97750000D03*
X131250000Y-113900000D03*
X131200000Y-107650000D03*
X151000000Y-104100000D03*
X156000058Y-104999926D03*
X156000057Y-104999927D03*
D29*
X162150000Y-109849998D03*
X162150000Y-106750000D03*
X162150000Y-107500006D03*
X162150000Y-108250000D03*
X162150004Y-109000000D03*
D28*
X161650000Y-97100000D03*
X142174351Y-99246033D03*
X141395866Y-96995884D03*
X157200000Y-107450000D03*
X156500000Y-107750000D03*
X157200000Y-108200000D03*
D29*
X157199998Y-109000000D03*
X157199998Y-109850000D03*
X156550004Y-108600000D03*
X156550000Y-109400000D03*
D28*
X144347689Y-108563319D03*
X144800000Y-107850000D03*
X142950000Y-96800000D03*
X137913185Y-113696704D03*
X137138634Y-114127893D03*
X136417894Y-113583603D03*
X135550000Y-114100000D03*
X162110236Y-100071520D03*
X143000000Y-116650000D03*
D29*
X163112236Y-100200276D03*
D28*
X142100000Y-116350000D03*
D29*
X163939920Y-100332709D03*
D28*
X141003006Y-116399407D03*
D29*
X163908480Y-101402757D03*
D28*
X140174437Y-116526186D03*
X154920077Y-120654938D03*
X155600000Y-124017076D03*
X154436651Y-123694153D03*
X154155520Y-120311351D03*
X153686037Y-123321089D03*
X153623186Y-120958823D03*
X152866253Y-123145303D03*
X152466973Y-120604681D03*
X140515673Y-100904688D03*
X158699998Y-98950000D03*
X141252762Y-100505566D03*
X157550000Y-99000000D03*
X156164716Y-110444858D03*
X162152957Y-110738207D03*
X155358534Y-109999543D03*
X162118150Y-111575696D03*
X155028501Y-110807125D03*
X162156514Y-112413029D03*
X154085953Y-113766036D03*
D29*
X155236520Y-113183346D03*
D28*
X154690742Y-114803827D03*
D29*
X155768513Y-114264986D03*
D28*
X153047701Y-106481914D03*
D29*
X155083600Y-115556054D03*
D28*
X153682687Y-105522576D03*
D29*
X155238794Y-116379773D03*
D28*
X152442830Y-111269513D03*
D29*
X156121678Y-116305139D03*
D28*
X151500000Y-110650000D03*
D29*
X156850162Y-116804780D03*
D28*
X138726019Y-115077767D03*
D29*
X157298385Y-116096476D03*
D28*
X139580652Y-115932401D03*
D29*
X158170500Y-116353781D03*
D28*
X137988623Y-108849879D03*
X141400000Y-113250000D03*
X133600000Y-103350000D03*
X151800000Y-113100000D03*
D29*
X154573456Y-112664263D03*
D28*
X143100000Y-113000000D03*
X152821279Y-110275352D03*
X154224771Y-111209680D03*
D29*
X155983285Y-112276038D03*
X155175337Y-111971893D03*
D28*
X143667109Y-114677791D03*
X151363221Y-112306208D03*
X143107184Y-114054025D03*
X150639823Y-111836527D03*
X144475196Y-110185200D03*
X145599819Y-103395312D03*
D29*
X155266806Y-102526331D03*
D28*
X142798800Y-111099600D03*
X144724773Y-105036154D03*
D29*
X155199220Y-103361814D03*
D28*
X157000000Y-106600000D03*
X152800000Y-108400000D03*
D29*
X154081183Y-99629332D03*
D28*
X151754125Y-106645875D03*
D29*
X155451029Y-99374208D03*
D28*
X151664487Y-105750346D03*
X139770341Y-105559659D03*
X160000000Y-111100000D03*
X140930582Y-103462331D03*
X159330000Y-123220000D03*
X160024371Y-122519605D03*
X156700000Y-120071482D03*
X161450000Y-121000000D03*
X155556978Y-120110000D03*
X152540000Y-116530000D03*
X148040000Y-114000000D03*
X148000000Y-107400121D03*
X146000000Y-109145302D03*
X153150000Y-100650000D03*
X148400000Y-102350000D03*
X140665200Y-109728000D03*
X141579600Y-110794800D03*
X146456400Y-111404400D03*
X151895875Y-101095875D03*
X148606038Y-101537506D03*
X149400000Y-122550000D03*
D30*
X158450000Y-91100000D02*
X156579120Y-91100000D01*
X156579120Y-91100000D02*
X156500000Y-91020880D01*
X157830000Y-121040000D02*
X159740000Y-121040000D01*
X159740000Y-121040000D02*
X160250000Y-121550000D01*
X145733574Y-104552844D02*
X147076331Y-104552844D01*
X144789150Y-103608420D02*
X145733574Y-104552844D01*
X147076331Y-104552844D02*
X147123366Y-104599879D01*
X147600000Y-104100000D02*
X147635059Y-104135059D01*
X147635059Y-104256980D02*
X147292160Y-104599879D01*
X147635059Y-104135059D02*
X147635059Y-104256980D01*
X147123366Y-104599879D02*
X147292160Y-104599879D01*
X132800000Y-110350000D02*
X132800000Y-112150000D01*
X132250000Y-109150000D02*
X132250000Y-109800000D01*
X132250000Y-109800000D02*
X132800000Y-110350000D01*
D31*
X139350000Y-98650000D02*
X137975000Y-98650000D01*
X137975000Y-98650000D02*
X137200000Y-99425000D01*
X137200000Y-99425000D02*
X137200000Y-99650000D01*
D30*
X148000000Y-116600000D02*
X149200000Y-115400000D01*
X149200000Y-115400000D02*
X149400000Y-115400000D01*
X137200000Y-99650000D02*
X137200000Y-100150000D01*
X137200000Y-100150000D02*
X136500000Y-100850000D01*
X137200000Y-100900000D02*
X137200000Y-99650000D01*
X137000000Y-99850000D02*
X137200000Y-99650000D01*
X153950000Y-93650000D02*
X153950000Y-92719200D01*
X153950000Y-92719200D02*
X154314800Y-92354400D01*
X147600000Y-106000000D02*
X145384695Y-106000000D01*
X143650000Y-105047400D02*
X144708815Y-106106215D01*
X145384695Y-106000000D02*
X145278480Y-106106215D01*
X143650000Y-104520000D02*
X143650000Y-105047400D01*
X144793547Y-106106215D02*
X145278480Y-106106215D01*
X144708815Y-106106215D02*
X144793547Y-106106215D01*
X146571520Y-116103480D02*
X146571520Y-116500000D01*
X147275000Y-115400000D02*
X146571520Y-116103480D01*
X147500000Y-115400000D02*
X147275000Y-115400000D01*
X148430000Y-124060000D02*
X147877550Y-124060000D01*
X147877550Y-124060000D02*
X147037550Y-124900000D01*
X147037550Y-124900000D02*
X146216000Y-124900000D01*
X146216000Y-124900000D02*
X145200000Y-124900000D01*
X146807101Y-110385581D02*
X147150000Y-110728480D01*
X146671520Y-110250000D02*
X146807101Y-110385581D01*
X146000000Y-110250000D02*
X146671520Y-110250000D01*
X143500000Y-91450000D02*
X145600000Y-91450000D01*
X141100000Y-91450000D02*
X142202400Y-91450000D01*
X142202400Y-91450000D02*
X143500000Y-91450000D01*
X139000000Y-91450000D02*
X141100000Y-91450000D01*
X145500000Y-93047600D02*
X145847600Y-92700000D01*
X145847600Y-92700000D02*
X146150000Y-92700000D01*
X145500000Y-93900000D02*
X145500000Y-93047600D01*
D31*
X138250000Y-96750000D02*
X137975000Y-96750000D01*
X139350000Y-96750000D02*
X138250000Y-96750000D01*
X138250000Y-96750000D02*
X138250000Y-97050000D01*
X138150000Y-97750000D02*
X138350000Y-97750000D01*
X138350000Y-97750000D02*
X139350000Y-96750000D01*
X137975000Y-96750000D02*
X137200000Y-97525000D01*
X137200000Y-97525000D02*
X137200000Y-97750000D01*
D30*
X138150000Y-97750000D02*
X137200000Y-97750000D01*
X143600000Y-94125000D02*
X145275000Y-94125000D01*
X145275000Y-94125000D02*
X145500000Y-93900000D01*
X151790000Y-92260000D02*
X148190000Y-92260000D01*
X153950000Y-93650000D02*
X152560000Y-92260000D01*
X152560000Y-92260000D02*
X151790000Y-92260000D01*
D32*
X161005000Y-106200000D02*
X161600000Y-106200000D01*
X161600000Y-106200000D02*
X162150000Y-106750000D01*
X161005000Y-105800000D02*
X161200000Y-105800000D01*
X161200000Y-105800000D02*
X162150000Y-106750000D01*
D30*
X137350000Y-106700000D02*
X137350000Y-106150000D01*
X137350000Y-106150000D02*
X136700000Y-105500000D01*
X161005000Y-110200000D02*
X161799998Y-110200000D01*
X161799998Y-110200000D02*
X162150000Y-109849998D01*
D32*
X161807101Y-109792899D02*
X162092901Y-109792899D01*
X161005000Y-109800000D02*
X161800000Y-109800000D01*
X161800000Y-109800000D02*
X161807101Y-109792899D01*
X162092901Y-109792899D02*
X162150000Y-109849998D01*
X161005000Y-106600000D02*
X162000000Y-106600000D01*
X162000000Y-106600000D02*
X162150000Y-106750000D01*
X161005000Y-107000000D02*
X161900000Y-107000000D01*
X161900000Y-107000000D02*
X162150000Y-106750000D01*
X161005000Y-107400000D02*
X162049994Y-107400000D01*
X162049994Y-107400000D02*
X162150000Y-107500006D01*
X161005000Y-107800000D02*
X161850006Y-107800000D01*
X161850006Y-107800000D02*
X162150000Y-107500006D01*
X161005000Y-108200000D02*
X162100000Y-108200000D01*
X162100000Y-108200000D02*
X162150000Y-108250000D01*
X161005000Y-108600000D02*
X161800000Y-108600000D01*
X161800000Y-108600000D02*
X162150000Y-108250000D01*
X161005000Y-109000000D02*
X162150004Y-109000000D01*
X161005000Y-109400000D02*
X161750004Y-109400000D01*
X161750004Y-109400000D02*
X162150004Y-109000000D01*
D30*
X162150004Y-108515067D02*
X162150004Y-109000000D01*
X162150004Y-107583804D02*
X162150004Y-108515067D01*
X148430000Y-124060000D02*
X148430000Y-123559620D01*
D31*
X161650000Y-97100000D02*
X162202280Y-97100000D01*
X162202280Y-97100000D02*
X163202280Y-98100000D01*
X160178860Y-97170000D02*
X144782908Y-97170000D01*
X142659284Y-99246033D02*
X142174351Y-99246033D01*
X144782908Y-97170000D02*
X142706875Y-99246033D01*
X142706875Y-99246033D02*
X142659284Y-99246033D01*
X141052967Y-96652985D02*
X141395866Y-96995884D01*
X141000000Y-96600018D02*
X141052967Y-96652985D01*
X141000000Y-94125000D02*
X141000000Y-96600018D01*
X160200000Y-99050000D02*
X159950000Y-99050000D01*
X159950000Y-99050000D02*
X159600000Y-99400000D01*
D30*
X156550004Y-108600000D02*
X156799998Y-108600000D01*
X156799998Y-108600000D02*
X157199998Y-109000000D01*
X157200000Y-108200000D02*
X157200000Y-107450000D01*
X157199998Y-109850000D02*
X157199998Y-109000000D01*
X158295000Y-107800000D02*
X157550000Y-107800000D01*
X157550000Y-107800000D02*
X157200000Y-107450000D01*
X158295000Y-107000000D02*
X157650000Y-107000000D01*
X157650000Y-107000000D02*
X157200000Y-107450000D01*
X158295000Y-106600000D02*
X158050000Y-106600000D01*
X158050000Y-106600000D02*
X157200000Y-107450000D01*
X158295000Y-107400000D02*
X157250000Y-107400000D01*
X157250000Y-107400000D02*
X157200000Y-107450000D01*
X158295000Y-108200000D02*
X157200000Y-108200000D01*
D31*
X159600000Y-106600000D02*
X159600000Y-99400000D01*
D30*
X157034937Y-108600000D02*
X156550004Y-108600000D01*
X158295000Y-108200000D02*
X157812600Y-108200000D01*
X157812600Y-108200000D02*
X157412600Y-108600000D01*
X157412600Y-108600000D02*
X157034937Y-108600000D01*
D31*
X158295000Y-110200000D02*
X159350000Y-110200000D01*
X159350000Y-110200000D02*
X159600000Y-109950000D01*
X158295000Y-109800000D02*
X158777400Y-109800000D01*
X158777400Y-109800000D02*
X158927400Y-109950000D01*
X158927400Y-109950000D02*
X159600000Y-109950000D01*
X159600000Y-109000000D02*
X159600000Y-109400000D01*
X159600000Y-109400000D02*
X159600000Y-109950000D01*
X158295000Y-109400000D02*
X159600000Y-109400000D01*
X159600000Y-108600000D02*
X159600000Y-109000000D01*
X158295000Y-109000000D02*
X158777400Y-109000000D01*
X158777400Y-109000000D02*
X159600000Y-109000000D01*
X159600000Y-108200000D02*
X159600000Y-108600000D01*
X158295000Y-108600000D02*
X159600000Y-108600000D01*
X159600000Y-107800000D02*
X159600000Y-108200000D01*
X158295000Y-108200000D02*
X158777400Y-108200000D01*
X158777400Y-108200000D02*
X159600000Y-108200000D01*
D30*
X158295000Y-109400000D02*
X157649998Y-109400000D01*
X157649998Y-109400000D02*
X157199998Y-109850000D01*
X157599998Y-108600000D02*
X157542897Y-108657101D01*
X158295000Y-108600000D02*
X157599998Y-108600000D01*
X158295000Y-109400000D02*
X157599998Y-109400000D01*
X157542897Y-108657101D02*
X157199998Y-109000000D01*
X157599998Y-109400000D02*
X157542897Y-109342899D01*
X157542897Y-109342899D02*
X157199998Y-109000000D01*
X158295000Y-109800000D02*
X157249998Y-109800000D01*
X157249998Y-109800000D02*
X157199998Y-109850000D01*
X158295000Y-109000000D02*
X156950000Y-109000000D01*
X156950000Y-109000000D02*
X156550000Y-109400000D01*
D31*
X159600000Y-107450000D02*
X159600000Y-107800000D01*
X159100000Y-107800000D02*
X159600000Y-107800000D01*
X158295000Y-107800000D02*
X159100000Y-107800000D01*
X159600000Y-106600000D02*
X159600000Y-107000000D01*
X158295000Y-106600000D02*
X159600000Y-106600000D01*
X159600000Y-107000000D02*
X159600000Y-107450000D01*
X158295000Y-107000000D02*
X159600000Y-107000000D01*
X158295000Y-107400000D02*
X159550000Y-107400000D01*
D32*
X159550000Y-107400000D02*
X159600000Y-107450000D01*
D30*
X141650000Y-94125000D02*
X141650000Y-96404176D01*
X140918933Y-105900000D02*
X142350000Y-105900000D01*
X141971502Y-97778498D02*
X139190378Y-100559621D01*
X143862756Y-108563319D02*
X144347689Y-108563319D01*
X139190378Y-100559621D02*
X139190378Y-104171445D01*
X141971502Y-96725678D02*
X141971502Y-97778498D01*
X141650000Y-96404176D02*
X141971502Y-96725678D01*
X139190378Y-104171445D02*
X140918933Y-105900000D01*
X142350000Y-105900000D02*
X142450000Y-106000000D01*
X142450000Y-106000000D02*
X142450000Y-107461067D01*
X142450000Y-107461067D02*
X143552252Y-108563319D01*
X143552252Y-108563319D02*
X143862756Y-108563319D01*
X142754811Y-105873744D02*
X142754811Y-107334811D01*
X144315067Y-107850000D02*
X144800000Y-107850000D01*
X142754811Y-107334811D02*
X143270000Y-107850000D01*
X142476256Y-105595189D02*
X142754811Y-105873744D01*
X141045189Y-105595189D02*
X142476256Y-105595189D01*
X142399100Y-97781966D02*
X139495189Y-100685877D01*
X142399100Y-96850000D02*
X142399100Y-97781966D01*
X139495189Y-104045189D02*
X141045189Y-105595189D01*
X143270000Y-107850000D02*
X144315067Y-107850000D01*
X139495189Y-100685877D02*
X139495189Y-104045189D01*
X142399100Y-96850000D02*
X142399100Y-95212540D01*
X142399100Y-95212540D02*
X142300000Y-95113440D01*
X142300000Y-95113440D02*
X142300000Y-94125000D01*
X142950000Y-96800000D02*
X142449100Y-96800000D01*
X142449100Y-96800000D02*
X142399100Y-96850000D01*
X137913185Y-115073185D02*
X137913185Y-114181637D01*
X137913185Y-114181637D02*
X137913185Y-113696704D01*
X145200000Y-122360000D02*
X137913185Y-115073185D01*
X137138634Y-114807567D02*
X137138634Y-114612826D01*
X142660000Y-122360000D02*
X142660000Y-120328933D01*
X142660000Y-120328933D02*
X137138634Y-114807567D01*
X137138634Y-114612826D02*
X137138634Y-114127893D01*
X140120000Y-122360000D02*
X140120000Y-118220000D01*
X136417894Y-114517894D02*
X136417894Y-114068536D01*
X136417894Y-114068536D02*
X136417894Y-113583603D01*
X140120000Y-118220000D02*
X136417894Y-114517894D01*
X137580000Y-122360000D02*
X137580000Y-116130000D01*
X137580000Y-116130000D02*
X135892899Y-114442899D01*
X135892899Y-114442899D02*
X135550000Y-114100000D01*
X143000000Y-116650000D02*
X144600000Y-118250000D01*
X162110236Y-101312471D02*
X162110236Y-100556453D01*
X158525735Y-118250000D02*
X163200000Y-113575736D01*
X163200000Y-102402235D02*
X162110236Y-101312471D01*
X163200000Y-113575736D02*
X163200000Y-102402235D01*
X144600000Y-118250000D02*
X158525735Y-118250000D01*
X162110236Y-100556453D02*
X162110236Y-100071520D01*
X162769337Y-101540506D02*
X162769337Y-100543175D01*
X142100000Y-116350000D02*
X142100000Y-116834933D01*
X158651990Y-118554811D02*
X163504811Y-113701991D01*
X142100000Y-116834933D02*
X143819878Y-118554811D01*
X143819878Y-118554811D02*
X158651990Y-118554811D01*
X163504811Y-113701991D02*
X163504811Y-102275980D01*
X162769337Y-100543175D02*
X163112236Y-100200276D01*
X163504811Y-102275980D02*
X162769337Y-101540506D01*
X163809622Y-113828245D02*
X163809622Y-102149724D01*
X163809622Y-102149724D02*
X163336978Y-101677080D01*
X163336978Y-100935651D02*
X163597021Y-100675608D01*
X163336978Y-101677080D02*
X163336978Y-100935651D01*
X163597021Y-100675608D02*
X163939920Y-100332709D01*
X143463221Y-118859622D02*
X158778246Y-118859622D01*
X141003006Y-116399407D02*
X143463221Y-118859622D01*
X158778246Y-118859622D02*
X163809622Y-113828245D01*
X140174437Y-116526186D02*
X142812684Y-119164433D01*
X142812684Y-119164433D02*
X158904501Y-119164433D01*
X164154884Y-101649161D02*
X163908480Y-101402757D01*
X164154884Y-113914050D02*
X164154884Y-101649161D01*
X158904501Y-119164433D02*
X164154884Y-113914050D01*
X155600000Y-124017076D02*
X154920077Y-123337153D01*
X154920077Y-121139871D02*
X154920077Y-120654938D01*
X154920077Y-123337153D02*
X154920077Y-121139871D01*
X154436651Y-121002222D02*
X154436651Y-123209220D01*
X154155520Y-120721091D02*
X154436651Y-121002222D01*
X154155520Y-120311351D02*
X154155520Y-120721091D01*
X154436651Y-123209220D02*
X154436651Y-123694153D01*
X153623186Y-123258238D02*
X153686037Y-123321089D01*
X153623186Y-120958823D02*
X153623186Y-123258238D01*
X152466973Y-122746023D02*
X152523354Y-122802404D01*
X152523354Y-122802404D02*
X152866253Y-123145303D01*
X152466973Y-120604681D02*
X152466973Y-122746023D01*
X141639297Y-101247587D02*
X140858572Y-101247587D01*
X156925212Y-99571501D02*
X155851607Y-98497896D01*
X158699998Y-98950000D02*
X158078497Y-99571501D01*
X155050452Y-98497896D02*
X154948348Y-98600000D01*
X154948348Y-98600000D02*
X144286884Y-98600000D01*
X155851607Y-98497896D02*
X155050452Y-98497896D01*
X158078497Y-99571501D02*
X156925212Y-99571501D01*
X144286884Y-98600000D02*
X141639297Y-101247587D01*
X140858572Y-101247587D02*
X140515673Y-100904688D01*
X157550000Y-99000000D02*
X156743085Y-98193085D01*
X141950252Y-100505566D02*
X141737695Y-100505566D01*
X144198716Y-98257102D02*
X141950252Y-100505566D01*
X154860179Y-98257102D02*
X144198716Y-98257102D01*
X156743085Y-98193085D02*
X154924196Y-98193085D01*
X154924196Y-98193085D02*
X154860179Y-98257102D01*
X141737695Y-100505566D02*
X141252762Y-100505566D01*
X156942998Y-110738207D02*
X156649649Y-110444858D01*
X162152957Y-110738207D02*
X161207617Y-110738207D01*
X159725678Y-111671502D02*
X158792383Y-110738207D01*
X160274322Y-111671502D02*
X159725678Y-111671502D01*
X158792383Y-110738207D02*
X156942998Y-110738207D01*
X161207617Y-110738207D02*
X160274322Y-111671502D01*
X156649649Y-110444858D02*
X156164716Y-110444858D01*
X155600003Y-110532803D02*
X155358534Y-110291334D01*
X155600003Y-110726174D02*
X155600003Y-110532803D01*
X155358534Y-110291334D02*
X155358534Y-109999543D01*
X155985411Y-111016387D02*
X155890216Y-111016387D01*
X155890216Y-111016387D02*
X155600003Y-110726174D01*
X156544720Y-111575696D02*
X155985411Y-111016387D01*
X159198805Y-111575696D02*
X156544720Y-111575696D01*
X162118150Y-111575696D02*
X161717533Y-111976313D01*
X161717533Y-111976313D02*
X159599422Y-111976313D01*
X159599422Y-111976313D02*
X159198805Y-111575696D01*
X162156514Y-112413029D02*
X156950540Y-112413029D01*
X155249887Y-110807125D02*
X155028501Y-110807125D01*
X155858709Y-111321198D02*
X155763960Y-111321198D01*
X156950540Y-112413029D02*
X155858709Y-111321198D01*
X155763960Y-111321198D02*
X155249887Y-110807125D01*
X154570886Y-113766036D02*
X154085953Y-113766036D01*
X155236520Y-113183346D02*
X154653830Y-113766036D01*
X154653830Y-113766036D02*
X154570886Y-113766036D01*
X155229672Y-114803827D02*
X155175675Y-114803827D01*
X155768513Y-114264986D02*
X155229672Y-114803827D01*
X155175675Y-114803827D02*
X154690742Y-114803827D01*
X154078499Y-107512712D02*
X153390600Y-106824813D01*
X153390600Y-106824813D02*
X153047701Y-106481914D01*
X154598667Y-115556054D02*
X153514433Y-114471820D01*
X155083600Y-115556054D02*
X154598667Y-115556054D01*
X153514433Y-110821517D02*
X154078499Y-110257451D01*
X154078499Y-110257451D02*
X154078499Y-107512712D01*
X153514433Y-114471820D02*
X153514433Y-110821517D01*
X152476199Y-107230377D02*
X152476199Y-106244131D01*
X154753861Y-116379773D02*
X153209622Y-114835534D01*
X153614986Y-110289897D02*
X153614986Y-108369164D01*
X153209622Y-114835534D02*
X153209622Y-110695261D01*
X153209622Y-110695261D02*
X153614986Y-110289897D01*
X153197754Y-105522576D02*
X153682687Y-105522576D01*
X152476199Y-106244131D02*
X153197754Y-105522576D01*
X153614986Y-108369164D02*
X152476199Y-107230377D01*
X155238794Y-116379773D02*
X154753861Y-116379773D01*
X152904811Y-115088086D02*
X152904811Y-111731494D01*
X152785729Y-111612412D02*
X152442830Y-111269513D01*
X156121678Y-116305139D02*
X155446060Y-116980756D01*
X154797481Y-116980756D02*
X152904811Y-115088086D01*
X155446060Y-116980756D02*
X154797481Y-116980756D01*
X152904811Y-111731494D02*
X152785729Y-111612412D01*
X155987074Y-117285567D02*
X156659011Y-116613630D01*
X152600001Y-112234934D02*
X152600002Y-115214343D01*
X151500000Y-111134933D02*
X152600001Y-112234934D01*
X154671226Y-117285567D02*
X155987074Y-117285567D01*
X151500000Y-110650000D02*
X151500000Y-111134933D01*
X152600002Y-115214343D02*
X154671226Y-117285567D01*
X156850162Y-116804780D02*
X156850162Y-116800162D01*
X156850162Y-116800162D02*
X156661321Y-116611321D01*
X157598999Y-116397090D02*
X157598999Y-117449937D01*
X144371399Y-116040378D02*
X143790378Y-116040378D01*
X154302512Y-117590378D02*
X153952512Y-117240378D01*
X157458557Y-117590378D02*
X154302512Y-117590378D01*
X145571399Y-117240378D02*
X144371399Y-116040378D01*
X139210952Y-115077767D02*
X138726019Y-115077767D01*
X143790378Y-116040378D02*
X142827767Y-115077767D01*
X147394554Y-117240378D02*
X145571399Y-117240378D01*
X147425678Y-117271502D02*
X147394554Y-117240378D01*
X157598999Y-117449937D02*
X157458557Y-117590378D01*
X153952512Y-117240378D02*
X148205446Y-117240378D01*
X142827767Y-115077767D02*
X139210952Y-115077767D01*
X148174322Y-117271502D02*
X147425678Y-117271502D01*
X148205446Y-117240378D02*
X148174322Y-117271502D01*
X157298385Y-116096476D02*
X157598999Y-116397090D01*
X157584813Y-117895189D02*
X154176256Y-117895189D01*
X148331702Y-117545189D02*
X148300578Y-117576313D01*
X145377640Y-117545189D02*
X144177640Y-116345189D01*
X139923551Y-115589502D02*
X139580652Y-115932401D01*
X142820569Y-115589502D02*
X139923551Y-115589502D01*
X147268298Y-117545189D02*
X145377640Y-117545189D01*
X143576256Y-116345189D02*
X142820569Y-115589502D01*
X144177640Y-116345189D02*
X143576256Y-116345189D01*
X148300578Y-117576313D02*
X147299422Y-117576313D01*
X153826256Y-117545189D02*
X148331702Y-117545189D01*
X154176256Y-117895189D02*
X153826256Y-117545189D01*
X158170500Y-117309502D02*
X157584813Y-117895189D01*
X158170500Y-116353781D02*
X158170500Y-117309502D01*
X147299422Y-117576313D02*
X147268298Y-117545189D01*
X137645724Y-108506980D02*
X137988623Y-108849879D01*
X133600000Y-104461256D02*
X137645724Y-108506980D01*
X133600000Y-103350000D02*
X133600000Y-104461256D01*
X141981067Y-113800000D02*
X141950000Y-113800000D01*
X141950000Y-113800000D02*
X141400000Y-113250000D01*
X144371399Y-114992119D02*
X143968329Y-115395189D01*
X143968329Y-115395189D02*
X143576256Y-115395189D01*
X143576256Y-115395189D02*
X141981067Y-113800000D01*
X146263518Y-113100000D02*
X144371399Y-114992119D01*
X151800000Y-113100000D02*
X146263518Y-113100000D01*
X144371399Y-114992119D02*
X144357881Y-114992119D01*
X147374099Y-111975901D02*
X144124099Y-111975901D01*
X144124099Y-111975901D02*
X143442899Y-112657101D01*
X143442899Y-112657101D02*
X143100000Y-113000000D01*
X152478380Y-109932453D02*
X149417547Y-109932453D01*
X149417547Y-109932453D02*
X147374099Y-111975901D01*
X152821279Y-110275352D02*
X152478380Y-109932453D01*
X154393736Y-111378645D02*
X154224771Y-111209680D01*
X155983285Y-111971589D02*
X155390341Y-111378645D01*
X155390341Y-111378645D02*
X154393736Y-111378645D01*
X155983285Y-112276038D02*
X155983285Y-111971589D01*
X144010008Y-114334892D02*
X143667109Y-114677791D01*
X151363221Y-112306208D02*
X151020322Y-112649107D01*
X145695793Y-112649107D02*
X144010008Y-114334892D01*
X151020322Y-112649107D02*
X145695793Y-112649107D01*
X150195638Y-112280712D02*
X144880497Y-112280712D01*
X144880497Y-112280712D02*
X143450083Y-113711126D01*
X143450083Y-113711126D02*
X143107184Y-114054025D01*
X150639823Y-111836527D02*
X150195638Y-112280712D01*
X143990263Y-110185200D02*
X144475196Y-110185200D01*
X136310000Y-110400000D02*
X141128576Y-110400000D01*
X135000000Y-110350000D02*
X136260000Y-110350000D01*
X141343376Y-110185200D02*
X143990263Y-110185200D01*
X141128576Y-110400000D02*
X141343376Y-110185200D01*
X136260000Y-110350000D02*
X136310000Y-110400000D01*
X154727431Y-102526331D02*
X154206392Y-103047370D01*
X145947761Y-103047370D02*
X145942718Y-103052413D01*
X145942718Y-103052413D02*
X145599819Y-103395312D01*
X154206392Y-103047370D02*
X145947761Y-103047370D01*
X155266806Y-102526331D02*
X154727431Y-102526331D01*
X142455901Y-111442499D02*
X142798800Y-111099600D01*
X141748400Y-112150000D02*
X142455901Y-111442499D01*
X135000000Y-112150000D02*
X141748400Y-112150000D01*
X145344951Y-105171399D02*
X145209706Y-105036154D01*
X145209706Y-105036154D02*
X144724773Y-105036154D01*
X149738857Y-103361814D02*
X147929272Y-105171399D01*
X147929272Y-105171399D02*
X145344951Y-105171399D01*
X155199220Y-103361814D02*
X149738857Y-103361814D01*
X158295000Y-105800000D02*
X157800000Y-105800000D01*
X157800000Y-105800000D02*
X157400000Y-106200000D01*
X158295000Y-106200000D02*
X157400000Y-106200000D01*
X157400000Y-106200000D02*
X157000000Y-106600000D01*
X152357101Y-108057101D02*
X151128601Y-106828601D01*
X152800000Y-108400000D02*
X152457101Y-108057101D01*
X144452400Y-106350000D02*
X143700000Y-106350000D01*
X152457101Y-108057101D02*
X152357101Y-108057101D01*
X151128601Y-106828601D02*
X144931001Y-106828601D01*
X144931001Y-106828601D02*
X144452400Y-106350000D01*
X155176708Y-98802707D02*
X154692982Y-99286433D01*
X155599798Y-104238127D02*
X157471502Y-102366423D01*
X157471502Y-100548858D02*
X155725351Y-98802707D01*
X154692982Y-99286433D02*
X154424082Y-99286433D01*
X151754125Y-106645875D02*
X152097024Y-106302976D01*
X154424082Y-99286433D02*
X154081183Y-99629332D01*
X155725351Y-98802707D02*
X155176708Y-98802707D01*
X154014597Y-104238127D02*
X155599798Y-104238127D01*
X152097024Y-106302976D02*
X152097024Y-106155700D01*
X152097024Y-106155700D02*
X154014597Y-104238127D01*
X157471502Y-102366423D02*
X157471502Y-100548858D01*
X151664487Y-105750346D02*
X153481517Y-103933316D01*
X155842899Y-99766078D02*
X155793928Y-99717107D01*
X155793928Y-99717107D02*
X155451029Y-99374208D01*
X153481517Y-103933316D02*
X155473542Y-103933316D01*
X155842899Y-103563959D02*
X155842899Y-99766078D01*
X155473542Y-103933316D02*
X155842899Y-103563959D01*
X141500000Y-106350000D02*
X140850000Y-106350000D01*
X140850000Y-106350000D02*
X140402558Y-105902558D01*
X140402558Y-105902558D02*
X140113240Y-105902558D01*
X140113240Y-105902558D02*
X139770341Y-105559659D01*
X139770341Y-106129659D02*
X139770341Y-106044592D01*
X139770341Y-106044592D02*
X139770341Y-105559659D01*
X139550000Y-106350000D02*
X139770341Y-106129659D01*
X164650000Y-99500000D02*
X164650000Y-97800000D01*
X164650000Y-97800000D02*
X161150000Y-94300000D01*
X161150000Y-94300000D02*
X161150000Y-92850000D01*
X161150000Y-92850000D02*
X160197200Y-91897200D01*
X160197200Y-91897200D02*
X157734000Y-91897200D01*
X157734000Y-91897200D02*
X157429200Y-91592400D01*
X157429200Y-91592400D02*
X153424800Y-91592400D01*
X153424800Y-91592400D02*
X152642400Y-90810000D01*
X152642400Y-90810000D02*
X151790000Y-90810000D01*
X160871502Y-122878498D02*
X160871502Y-117728498D01*
X160871502Y-117728498D02*
X164650000Y-113950000D01*
X164650000Y-113950000D02*
X164650000Y-99500000D01*
X160650000Y-123100000D02*
X160871502Y-122878498D01*
X160650000Y-124750000D02*
X160650000Y-123100000D01*
X164100000Y-120450000D02*
X163022370Y-120450000D01*
X163022370Y-120450000D02*
X160650000Y-122822370D01*
X160650000Y-122822370D02*
X160650000Y-123100000D01*
X161550000Y-99500000D02*
X160000000Y-101050000D01*
X160000000Y-101050000D02*
X160000000Y-111100000D01*
X164650000Y-99500000D02*
X161550000Y-99500000D01*
X160100000Y-125300000D02*
X160650000Y-124750000D01*
X152122450Y-125300000D02*
X160100000Y-125300000D01*
X150330000Y-124060000D02*
X150882450Y-124060000D01*
X150882450Y-124060000D02*
X152122450Y-125300000D01*
X139800000Y-102331749D02*
X140587683Y-103119432D01*
X146721502Y-92103498D02*
X146721502Y-92974322D01*
X142840000Y-98610000D02*
X142002133Y-98610000D01*
X146627710Y-94822290D02*
X142840000Y-98610000D01*
X146627710Y-93068114D02*
X146627710Y-94822290D01*
X146721502Y-92974322D02*
X146627710Y-93068114D01*
X148015000Y-90810000D02*
X146721502Y-92103498D01*
X148190000Y-90810000D02*
X148015000Y-90810000D01*
X139800000Y-100812132D02*
X139800000Y-102331749D01*
X142002133Y-98610000D02*
X139800000Y-100812132D01*
X140587683Y-103119432D02*
X140930582Y-103462331D01*
X140930582Y-103462331D02*
X140930582Y-103833767D01*
X140930582Y-103833767D02*
X141046815Y-103950000D01*
X141046815Y-103950000D02*
X141707400Y-103950000D01*
X141707400Y-103950000D02*
X141750000Y-103992600D01*
X141750000Y-103992600D02*
X141750000Y-104520000D01*
X151790000Y-90810000D02*
X148190000Y-90810000D01*
X159330000Y-123220000D02*
X159330000Y-123492280D01*
X159330000Y-123492280D02*
X158780000Y-124042280D01*
X159539438Y-122519605D02*
X160024371Y-122519605D01*
X156880000Y-124042280D02*
X156880000Y-123541900D01*
X156880000Y-123541900D02*
X157902295Y-122519605D01*
X157902295Y-122519605D02*
X159539438Y-122519605D01*
X156880000Y-124042280D02*
X156880000Y-120251482D01*
X156661482Y-120110000D02*
X156700000Y-120071482D01*
X155556978Y-120110000D02*
X156661482Y-120110000D01*
X156880000Y-120251482D02*
X156700000Y-120071482D01*
X161450000Y-121000000D02*
X164050000Y-118400000D01*
X164050000Y-118400000D02*
X164100000Y-118400000D01*
X148040000Y-114000000D02*
X149750000Y-114000000D01*
X149750000Y-114000000D02*
X152280000Y-116530000D01*
X152280000Y-116530000D02*
X152540000Y-116530000D01*
X146000000Y-108050000D02*
X146602400Y-108050000D01*
X146602400Y-108050000D02*
X147252279Y-107400121D01*
X147252279Y-107400121D02*
X147349879Y-107400121D01*
X148000000Y-107400121D02*
X147349879Y-107400121D01*
X158450000Y-92598600D02*
X156759000Y-92598600D01*
X156759000Y-92598600D02*
X156514800Y-92354400D01*
X146000000Y-109145302D02*
X142063702Y-109145302D01*
X142063702Y-109145302D02*
X141732000Y-108813600D01*
X148400000Y-102350000D02*
X151450000Y-102350000D01*
X151450000Y-102350000D02*
X153150000Y-100650000D01*
X146456400Y-111404400D02*
X143949424Y-111404400D01*
X142064533Y-110794800D02*
X141579600Y-110794800D01*
X143949424Y-111404400D02*
X143073122Y-110528098D01*
X143073122Y-110528098D02*
X142331235Y-110528098D01*
X142331235Y-110528098D02*
X142064533Y-110794800D01*
X140665200Y-109728000D02*
X140512800Y-109728000D01*
X140512800Y-109728000D02*
X139598400Y-108813600D01*
X151552976Y-101438774D02*
X151895875Y-101095875D01*
X148606038Y-101537506D02*
X151454244Y-101537506D01*
X151454244Y-101537506D02*
X151552976Y-101438774D01*
X149400000Y-122550000D02*
X149400000Y-121077720D01*
X149400000Y-121077720D02*
X149380000Y-121057720D01*
X149380000Y-121057720D02*
X149242280Y-121057720D01*
D31*
G36*
X137992253Y-90621861D02*
X137746136Y-90695995D01*
X137553035Y-91233223D01*
X137580222Y-91803454D01*
X137746136Y-92204005D01*
X137992255Y-92278139D01*
X138820395Y-91450000D01*
X138806252Y-91435858D01*
X138985858Y-91256252D01*
X139000000Y-91270395D01*
X139014142Y-91256252D01*
X139193748Y-91435858D01*
X139179605Y-91450000D01*
X139193748Y-91464143D01*
X139014142Y-91643748D01*
X139000000Y-91629605D01*
X138171861Y-92457745D01*
X138204167Y-92565000D01*
X138173691Y-92565000D01*
X137940302Y-92661673D01*
X137761673Y-92840301D01*
X137665000Y-93073690D01*
X137665000Y-93614250D01*
X137823750Y-93773000D01*
X138973000Y-93773000D01*
X138973000Y-93753000D01*
X139227000Y-93753000D01*
X139227000Y-93773000D01*
X139247000Y-93773000D01*
X139247000Y-94027000D01*
X139227000Y-94027000D01*
X139227000Y-95076250D01*
X139385750Y-95235000D01*
X140026309Y-95235000D01*
X140259698Y-95138327D01*
X140353610Y-95044416D01*
X140365000Y-95062117D01*
X140365000Y-96600018D01*
X140413336Y-96843022D01*
X140544927Y-97039962D01*
X140544819Y-97164396D01*
X140674088Y-97477250D01*
X140913241Y-97716821D01*
X141120807Y-97803010D01*
X140242952Y-98680864D01*
X140242952Y-98050000D01*
X140207530Y-97861747D01*
X140169844Y-97803181D01*
X140263327Y-97709698D01*
X140360000Y-97476309D01*
X140360000Y-97035750D01*
X140201250Y-96877000D01*
X139477000Y-96877000D01*
X139477000Y-96897000D01*
X139223000Y-96897000D01*
X139223000Y-96877000D01*
X138498750Y-96877000D01*
X138340000Y-97035750D01*
X138340000Y-97476309D01*
X138436673Y-97709698D01*
X138529357Y-97802383D01*
X138497855Y-97848488D01*
X138464136Y-98015000D01*
X138189250Y-98015000D01*
X138051250Y-97877000D01*
X137327000Y-97877000D01*
X137327000Y-97897000D01*
X137073000Y-97897000D01*
X137073000Y-97877000D01*
X136348750Y-97877000D01*
X136190000Y-98035750D01*
X136190000Y-98476309D01*
X136286673Y-98709698D01*
X136379357Y-98802383D01*
X136347855Y-98848488D01*
X136307048Y-99050000D01*
X136307048Y-100009051D01*
X136018634Y-100128222D01*
X135779063Y-100367375D01*
X135649248Y-100680003D01*
X135648953Y-101018512D01*
X135778222Y-101331366D01*
X136017375Y-101570937D01*
X136330003Y-101700752D01*
X136668512Y-101701047D01*
X136789705Y-101650971D01*
X137030003Y-101750752D01*
X137368512Y-101751047D01*
X137681366Y-101621778D01*
X137920937Y-101382625D01*
X138050752Y-101069997D01*
X138051047Y-100731488D01*
X137979371Y-100558020D01*
X138052145Y-100451512D01*
X138092952Y-100250000D01*
X138092952Y-99430073D01*
X138238025Y-99285000D01*
X138463634Y-99285000D01*
X138492470Y-99438253D01*
X138603728Y-99611153D01*
X138773488Y-99727145D01*
X138975000Y-99767952D01*
X139155863Y-99767952D01*
X138777286Y-100146529D01*
X138650648Y-100336057D01*
X138606178Y-100559621D01*
X138606178Y-104171445D01*
X138650648Y-104395009D01*
X138772116Y-104576800D01*
X138777286Y-104584537D01*
X139159690Y-104966941D01*
X139049404Y-105077034D01*
X138919589Y-105389662D01*
X138919294Y-105728171D01*
X138922995Y-105737129D01*
X138761747Y-105767470D01*
X138588847Y-105878728D01*
X138523281Y-105974687D01*
X138488327Y-105890301D01*
X138309698Y-105711673D01*
X138076309Y-105615000D01*
X137635750Y-105615000D01*
X137477000Y-105773750D01*
X137477000Y-106573000D01*
X137497000Y-106573000D01*
X137497000Y-106827000D01*
X137477000Y-106827000D01*
X137477000Y-106847000D01*
X137223000Y-106847000D01*
X137223000Y-106827000D01*
X137203000Y-106827000D01*
X137203000Y-106573000D01*
X137223000Y-106573000D01*
X137223000Y-105773750D01*
X137064250Y-105615000D01*
X136623691Y-105615000D01*
X136390302Y-105711673D01*
X136211673Y-105890301D01*
X136115000Y-106123690D01*
X136115000Y-106150072D01*
X134184200Y-104219272D01*
X134184200Y-103969123D01*
X134320937Y-103832625D01*
X134450752Y-103519997D01*
X134451047Y-103181488D01*
X134321778Y-102868634D01*
X134082625Y-102629063D01*
X133769997Y-102499248D01*
X133431488Y-102498953D01*
X133118634Y-102628222D01*
X132879063Y-102867375D01*
X132749248Y-103180003D01*
X132748953Y-103518512D01*
X132878222Y-103831366D01*
X133015800Y-103969184D01*
X133015800Y-104461256D01*
X133060270Y-104684820D01*
X133152149Y-104822327D01*
X133186908Y-104874348D01*
X137137744Y-108825184D01*
X137137576Y-109018391D01*
X137266845Y-109331245D01*
X137505998Y-109570816D01*
X137818626Y-109700631D01*
X138157135Y-109700926D01*
X138469989Y-109571657D01*
X138517771Y-109523958D01*
X138521118Y-109532058D01*
X138804366Y-109815800D01*
X136491840Y-109815800D01*
X136483564Y-109810270D01*
X136260000Y-109765800D01*
X136092701Y-109765800D01*
X136082530Y-109711747D01*
X135971272Y-109538847D01*
X135801512Y-109422855D01*
X135600000Y-109382048D01*
X134400000Y-109382048D01*
X134211747Y-109417470D01*
X134038847Y-109528728D01*
X133922855Y-109698488D01*
X133900659Y-109808095D01*
X133882530Y-109711747D01*
X133771272Y-109538847D01*
X133601512Y-109422855D01*
X133400000Y-109382048D01*
X133074986Y-109382048D01*
X133100752Y-109319997D01*
X133101047Y-108981488D01*
X132971778Y-108668634D01*
X132732625Y-108429063D01*
X132419997Y-108299248D01*
X132081488Y-108298953D01*
X131768634Y-108428222D01*
X131529063Y-108667375D01*
X131399248Y-108980003D01*
X131398953Y-109318512D01*
X131528222Y-109631366D01*
X131665800Y-109769184D01*
X131665800Y-109800000D01*
X131683886Y-109890924D01*
X131682048Y-109900000D01*
X131682048Y-110800000D01*
X131717470Y-110988253D01*
X131828728Y-111161153D01*
X131959940Y-111250807D01*
X131838847Y-111328728D01*
X131722855Y-111498488D01*
X131682048Y-111700000D01*
X131682048Y-112600000D01*
X131717470Y-112788253D01*
X131828728Y-112961153D01*
X131998488Y-113077145D01*
X132200000Y-113117952D01*
X133400000Y-113117952D01*
X133588253Y-113082530D01*
X133761153Y-112971272D01*
X133877145Y-112801512D01*
X133899341Y-112691905D01*
X133917470Y-112788253D01*
X134028728Y-112961153D01*
X134198488Y-113077145D01*
X134400000Y-113117952D01*
X135600000Y-113117952D01*
X135698524Y-113099414D01*
X135696957Y-113100978D01*
X135635420Y-113249174D01*
X135381488Y-113248953D01*
X135068634Y-113378222D01*
X134829063Y-113617375D01*
X134699248Y-113930003D01*
X134698953Y-114268512D01*
X134828222Y-114581366D01*
X135067375Y-114820937D01*
X135380003Y-114950752D01*
X135574738Y-114950922D01*
X136995800Y-116371984D01*
X136995800Y-121105566D01*
X136610132Y-121363261D01*
X136312807Y-121808240D01*
X136208400Y-122333129D01*
X136208400Y-122386871D01*
X136312807Y-122911760D01*
X136610132Y-123356739D01*
X136925466Y-123567438D01*
X136805053Y-123617312D01*
X136373179Y-124011510D01*
X136125032Y-124540973D01*
X136245531Y-124773000D01*
X137453000Y-124773000D01*
X137453000Y-124753000D01*
X137707000Y-124753000D01*
X137707000Y-124773000D01*
X139993000Y-124773000D01*
X139993000Y-124753000D01*
X140247000Y-124753000D01*
X140247000Y-124773000D01*
X142533000Y-124773000D01*
X142533000Y-124753000D01*
X142787000Y-124753000D01*
X142787000Y-124773000D01*
X145073000Y-124773000D01*
X145073000Y-124753000D01*
X145327000Y-124753000D01*
X145327000Y-124773000D01*
X146539850Y-124773000D01*
X146698600Y-124614250D01*
X146698600Y-124296188D01*
X146830003Y-124350752D01*
X147168512Y-124351047D01*
X147481366Y-124221778D01*
X147516203Y-124187002D01*
X147553698Y-124187002D01*
X147394950Y-124345750D01*
X147394950Y-125086740D01*
X147491623Y-125320129D01*
X147588495Y-125417000D01*
X146698600Y-125417000D01*
X146698600Y-125185750D01*
X146539850Y-125027000D01*
X145327000Y-125027000D01*
X145327000Y-125047000D01*
X145073000Y-125047000D01*
X145073000Y-125027000D01*
X142787000Y-125027000D01*
X142787000Y-125047000D01*
X142533000Y-125047000D01*
X142533000Y-125027000D01*
X140247000Y-125027000D01*
X140247000Y-125047000D01*
X139993000Y-125047000D01*
X139993000Y-125027000D01*
X137707000Y-125027000D01*
X137707000Y-125047000D01*
X137453000Y-125047000D01*
X137453000Y-125027000D01*
X136245531Y-125027000D01*
X136125032Y-125259027D01*
X136199070Y-125417000D01*
X132807421Y-125417000D01*
X131925095Y-125241495D01*
X131225777Y-124774225D01*
X130758505Y-124074904D01*
X130673522Y-123647664D01*
X130741652Y-123647664D01*
X131046708Y-124385955D01*
X131611074Y-124951307D01*
X132348832Y-125257651D01*
X133147664Y-125258348D01*
X133885955Y-124953292D01*
X134451307Y-124388926D01*
X134757651Y-123651168D01*
X134758348Y-122852336D01*
X134453292Y-122114045D01*
X133888926Y-121548693D01*
X133151168Y-121242349D01*
X132352336Y-121241652D01*
X131614045Y-121546708D01*
X131048693Y-122111074D01*
X130742349Y-122848832D01*
X130741652Y-123647664D01*
X130673522Y-123647664D01*
X130583000Y-123192578D01*
X130583000Y-117168512D01*
X132091353Y-117168512D01*
X132220622Y-117481366D01*
X132459775Y-117720937D01*
X132772403Y-117850752D01*
X133110912Y-117851047D01*
X133423766Y-117721778D01*
X133663337Y-117482625D01*
X133793152Y-117169997D01*
X133793447Y-116831488D01*
X133664178Y-116518634D01*
X133425025Y-116279063D01*
X133112397Y-116149248D01*
X132773888Y-116148953D01*
X132461034Y-116278222D01*
X132221463Y-116517375D01*
X132091648Y-116830003D01*
X132091353Y-117168512D01*
X130583000Y-117168512D01*
X130583000Y-103836327D01*
X130717375Y-103970937D01*
X131030003Y-104100752D01*
X131368512Y-104101047D01*
X131681366Y-103971778D01*
X131920937Y-103732625D01*
X132050752Y-103419997D01*
X132051047Y-103081488D01*
X131921778Y-102768634D01*
X131682625Y-102529063D01*
X131369997Y-102399248D01*
X131031488Y-102398953D01*
X130718634Y-102528222D01*
X130583000Y-102663619D01*
X130583000Y-97023691D01*
X136190000Y-97023691D01*
X136190000Y-97464250D01*
X136348750Y-97623000D01*
X137073000Y-97623000D01*
X137073000Y-96673750D01*
X137327000Y-96673750D01*
X137327000Y-97623000D01*
X138051250Y-97623000D01*
X138210000Y-97464250D01*
X138210000Y-97023691D01*
X138113327Y-96790302D01*
X137934699Y-96611673D01*
X137701310Y-96515000D01*
X137485750Y-96515000D01*
X137327000Y-96673750D01*
X137073000Y-96673750D01*
X136914250Y-96515000D01*
X136698690Y-96515000D01*
X136465301Y-96611673D01*
X136286673Y-96790302D01*
X136190000Y-97023691D01*
X130583000Y-97023691D01*
X130583000Y-96023691D01*
X138340000Y-96023691D01*
X138340000Y-96464250D01*
X138498750Y-96623000D01*
X139223000Y-96623000D01*
X139223000Y-95673750D01*
X139477000Y-95673750D01*
X139477000Y-96623000D01*
X140201250Y-96623000D01*
X140360000Y-96464250D01*
X140360000Y-96023691D01*
X140263327Y-95790302D01*
X140084699Y-95611673D01*
X139851310Y-95515000D01*
X139635750Y-95515000D01*
X139477000Y-95673750D01*
X139223000Y-95673750D01*
X139064250Y-95515000D01*
X138848690Y-95515000D01*
X138615301Y-95611673D01*
X138436673Y-95790302D01*
X138340000Y-96023691D01*
X130583000Y-96023691D01*
X130583000Y-93147664D01*
X130741652Y-93147664D01*
X131046708Y-93885955D01*
X131611074Y-94451307D01*
X132348832Y-94757651D01*
X133147664Y-94758348D01*
X133885955Y-94453292D01*
X134153964Y-94185750D01*
X137665000Y-94185750D01*
X137665000Y-94726310D01*
X137761673Y-94959699D01*
X137940302Y-95138327D01*
X138173691Y-95235000D01*
X138814250Y-95235000D01*
X138973000Y-95076250D01*
X138973000Y-94027000D01*
X137823750Y-94027000D01*
X137665000Y-94185750D01*
X134153964Y-94185750D01*
X134451307Y-93888926D01*
X134757651Y-93151168D01*
X134758348Y-92352336D01*
X134453292Y-91614045D01*
X133888926Y-91048693D01*
X133151168Y-90742349D01*
X132352336Y-90741652D01*
X131614045Y-91046708D01*
X131048693Y-91611074D01*
X130742349Y-92348832D01*
X130741652Y-93147664D01*
X130583000Y-93147664D01*
X130583000Y-92807422D01*
X130758505Y-91925096D01*
X131225777Y-91225775D01*
X131925095Y-90758505D01*
X132807421Y-90583000D01*
X137953392Y-90583000D01*
X137992253Y-90621861D01*
X137992253Y-90621861D01*
G37*
X137992253Y-90621861D02*
X137746136Y-90695995D01*
X137553035Y-91233223D01*
X137580222Y-91803454D01*
X137746136Y-92204005D01*
X137992255Y-92278139D01*
X138820395Y-91450000D01*
X138806252Y-91435858D01*
X138985858Y-91256252D01*
X139000000Y-91270395D01*
X139014142Y-91256252D01*
X139193748Y-91435858D01*
X139179605Y-91450000D01*
X139193748Y-91464143D01*
X139014142Y-91643748D01*
X139000000Y-91629605D01*
X138171861Y-92457745D01*
X138204167Y-92565000D01*
X138173691Y-92565000D01*
X137940302Y-92661673D01*
X137761673Y-92840301D01*
X137665000Y-93073690D01*
X137665000Y-93614250D01*
X137823750Y-93773000D01*
X138973000Y-93773000D01*
X138973000Y-93753000D01*
X139227000Y-93753000D01*
X139227000Y-93773000D01*
X139247000Y-93773000D01*
X139247000Y-94027000D01*
X139227000Y-94027000D01*
X139227000Y-95076250D01*
X139385750Y-95235000D01*
X140026309Y-95235000D01*
X140259698Y-95138327D01*
X140353610Y-95044416D01*
X140365000Y-95062117D01*
X140365000Y-96600018D01*
X140413336Y-96843022D01*
X140544927Y-97039962D01*
X140544819Y-97164396D01*
X140674088Y-97477250D01*
X140913241Y-97716821D01*
X141120807Y-97803010D01*
X140242952Y-98680864D01*
X140242952Y-98050000D01*
X140207530Y-97861747D01*
X140169844Y-97803181D01*
X140263327Y-97709698D01*
X140360000Y-97476309D01*
X140360000Y-97035750D01*
X140201250Y-96877000D01*
X139477000Y-96877000D01*
X139477000Y-96897000D01*
X139223000Y-96897000D01*
X139223000Y-96877000D01*
X138498750Y-96877000D01*
X138340000Y-97035750D01*
X138340000Y-97476309D01*
X138436673Y-97709698D01*
X138529357Y-97802383D01*
X138497855Y-97848488D01*
X138464136Y-98015000D01*
X138189250Y-98015000D01*
X138051250Y-97877000D01*
X137327000Y-97877000D01*
X137327000Y-97897000D01*
X137073000Y-97897000D01*
X137073000Y-97877000D01*
X136348750Y-97877000D01*
X136190000Y-98035750D01*
X136190000Y-98476309D01*
X136286673Y-98709698D01*
X136379357Y-98802383D01*
X136347855Y-98848488D01*
X136307048Y-99050000D01*
X136307048Y-100009051D01*
X136018634Y-100128222D01*
X135779063Y-100367375D01*
X135649248Y-100680003D01*
X135648953Y-101018512D01*
X135778222Y-101331366D01*
X136017375Y-101570937D01*
X136330003Y-101700752D01*
X136668512Y-101701047D01*
X136789705Y-101650971D01*
X137030003Y-101750752D01*
X137368512Y-101751047D01*
X137681366Y-101621778D01*
X137920937Y-101382625D01*
X138050752Y-101069997D01*
X138051047Y-100731488D01*
X137979371Y-100558020D01*
X138052145Y-100451512D01*
X138092952Y-100250000D01*
X138092952Y-99430073D01*
X138238025Y-99285000D01*
X138463634Y-99285000D01*
X138492470Y-99438253D01*
X138603728Y-99611153D01*
X138773488Y-99727145D01*
X138975000Y-99767952D01*
X139155863Y-99767952D01*
X138777286Y-100146529D01*
X138650648Y-100336057D01*
X138606178Y-100559621D01*
X138606178Y-104171445D01*
X138650648Y-104395009D01*
X138772116Y-104576800D01*
X138777286Y-104584537D01*
X139159690Y-104966941D01*
X139049404Y-105077034D01*
X138919589Y-105389662D01*
X138919294Y-105728171D01*
X138922995Y-105737129D01*
X138761747Y-105767470D01*
X138588847Y-105878728D01*
X138523281Y-105974687D01*
X138488327Y-105890301D01*
X138309698Y-105711673D01*
X138076309Y-105615000D01*
X137635750Y-105615000D01*
X137477000Y-105773750D01*
X137477000Y-106573000D01*
X137497000Y-106573000D01*
X137497000Y-106827000D01*
X137477000Y-106827000D01*
X137477000Y-106847000D01*
X137223000Y-106847000D01*
X137223000Y-106827000D01*
X137203000Y-106827000D01*
X137203000Y-106573000D01*
X137223000Y-106573000D01*
X137223000Y-105773750D01*
X137064250Y-105615000D01*
X136623691Y-105615000D01*
X136390302Y-105711673D01*
X136211673Y-105890301D01*
X136115000Y-106123690D01*
X136115000Y-106150072D01*
X134184200Y-104219272D01*
X134184200Y-103969123D01*
X134320937Y-103832625D01*
X134450752Y-103519997D01*
X134451047Y-103181488D01*
X134321778Y-102868634D01*
X134082625Y-102629063D01*
X133769997Y-102499248D01*
X133431488Y-102498953D01*
X133118634Y-102628222D01*
X132879063Y-102867375D01*
X132749248Y-103180003D01*
X132748953Y-103518512D01*
X132878222Y-103831366D01*
X133015800Y-103969184D01*
X133015800Y-104461256D01*
X133060270Y-104684820D01*
X133152149Y-104822327D01*
X133186908Y-104874348D01*
X137137744Y-108825184D01*
X137137576Y-109018391D01*
X137266845Y-109331245D01*
X137505998Y-109570816D01*
X137818626Y-109700631D01*
X138157135Y-109700926D01*
X138469989Y-109571657D01*
X138517771Y-109523958D01*
X138521118Y-109532058D01*
X138804366Y-109815800D01*
X136491840Y-109815800D01*
X136483564Y-109810270D01*
X136260000Y-109765800D01*
X136092701Y-109765800D01*
X136082530Y-109711747D01*
X135971272Y-109538847D01*
X135801512Y-109422855D01*
X135600000Y-109382048D01*
X134400000Y-109382048D01*
X134211747Y-109417470D01*
X134038847Y-109528728D01*
X133922855Y-109698488D01*
X133900659Y-109808095D01*
X133882530Y-109711747D01*
X133771272Y-109538847D01*
X133601512Y-109422855D01*
X133400000Y-109382048D01*
X133074986Y-109382048D01*
X133100752Y-109319997D01*
X133101047Y-108981488D01*
X132971778Y-108668634D01*
X132732625Y-108429063D01*
X132419997Y-108299248D01*
X132081488Y-108298953D01*
X131768634Y-108428222D01*
X131529063Y-108667375D01*
X131399248Y-108980003D01*
X131398953Y-109318512D01*
X131528222Y-109631366D01*
X131665800Y-109769184D01*
X131665800Y-109800000D01*
X131683886Y-109890924D01*
X131682048Y-109900000D01*
X131682048Y-110800000D01*
X131717470Y-110988253D01*
X131828728Y-111161153D01*
X131959940Y-111250807D01*
X131838847Y-111328728D01*
X131722855Y-111498488D01*
X131682048Y-111700000D01*
X131682048Y-112600000D01*
X131717470Y-112788253D01*
X131828728Y-112961153D01*
X131998488Y-113077145D01*
X132200000Y-113117952D01*
X133400000Y-113117952D01*
X133588253Y-113082530D01*
X133761153Y-112971272D01*
X133877145Y-112801512D01*
X133899341Y-112691905D01*
X133917470Y-112788253D01*
X134028728Y-112961153D01*
X134198488Y-113077145D01*
X134400000Y-113117952D01*
X135600000Y-113117952D01*
X135698524Y-113099414D01*
X135696957Y-113100978D01*
X135635420Y-113249174D01*
X135381488Y-113248953D01*
X135068634Y-113378222D01*
X134829063Y-113617375D01*
X134699248Y-113930003D01*
X134698953Y-114268512D01*
X134828222Y-114581366D01*
X135067375Y-114820937D01*
X135380003Y-114950752D01*
X135574738Y-114950922D01*
X136995800Y-116371984D01*
X136995800Y-121105566D01*
X136610132Y-121363261D01*
X136312807Y-121808240D01*
X136208400Y-122333129D01*
X136208400Y-122386871D01*
X136312807Y-122911760D01*
X136610132Y-123356739D01*
X136925466Y-123567438D01*
X136805053Y-123617312D01*
X136373179Y-124011510D01*
X136125032Y-124540973D01*
X136245531Y-124773000D01*
X137453000Y-124773000D01*
X137453000Y-124753000D01*
X137707000Y-124753000D01*
X137707000Y-124773000D01*
X139993000Y-124773000D01*
X139993000Y-124753000D01*
X140247000Y-124753000D01*
X140247000Y-124773000D01*
X142533000Y-124773000D01*
X142533000Y-124753000D01*
X142787000Y-124753000D01*
X142787000Y-124773000D01*
X145073000Y-124773000D01*
X145073000Y-124753000D01*
X145327000Y-124753000D01*
X145327000Y-124773000D01*
X146539850Y-124773000D01*
X146698600Y-124614250D01*
X146698600Y-124296188D01*
X146830003Y-124350752D01*
X147168512Y-124351047D01*
X147481366Y-124221778D01*
X147516203Y-124187002D01*
X147553698Y-124187002D01*
X147394950Y-124345750D01*
X147394950Y-125086740D01*
X147491623Y-125320129D01*
X147588495Y-125417000D01*
X146698600Y-125417000D01*
X146698600Y-125185750D01*
X146539850Y-125027000D01*
X145327000Y-125027000D01*
X145327000Y-125047000D01*
X145073000Y-125047000D01*
X145073000Y-125027000D01*
X142787000Y-125027000D01*
X142787000Y-125047000D01*
X142533000Y-125047000D01*
X142533000Y-125027000D01*
X140247000Y-125027000D01*
X140247000Y-125047000D01*
X139993000Y-125047000D01*
X139993000Y-125027000D01*
X137707000Y-125027000D01*
X137707000Y-125047000D01*
X137453000Y-125047000D01*
X137453000Y-125027000D01*
X136245531Y-125027000D01*
X136125032Y-125259027D01*
X136199070Y-125417000D01*
X132807421Y-125417000D01*
X131925095Y-125241495D01*
X131225777Y-124774225D01*
X130758505Y-124074904D01*
X130673522Y-123647664D01*
X130741652Y-123647664D01*
X131046708Y-124385955D01*
X131611074Y-124951307D01*
X132348832Y-125257651D01*
X133147664Y-125258348D01*
X133885955Y-124953292D01*
X134451307Y-124388926D01*
X134757651Y-123651168D01*
X134758348Y-122852336D01*
X134453292Y-122114045D01*
X133888926Y-121548693D01*
X133151168Y-121242349D01*
X132352336Y-121241652D01*
X131614045Y-121546708D01*
X131048693Y-122111074D01*
X130742349Y-122848832D01*
X130741652Y-123647664D01*
X130673522Y-123647664D01*
X130583000Y-123192578D01*
X130583000Y-117168512D01*
X132091353Y-117168512D01*
X132220622Y-117481366D01*
X132459775Y-117720937D01*
X132772403Y-117850752D01*
X133110912Y-117851047D01*
X133423766Y-117721778D01*
X133663337Y-117482625D01*
X133793152Y-117169997D01*
X133793447Y-116831488D01*
X133664178Y-116518634D01*
X133425025Y-116279063D01*
X133112397Y-116149248D01*
X132773888Y-116148953D01*
X132461034Y-116278222D01*
X132221463Y-116517375D01*
X132091648Y-116830003D01*
X132091353Y-117168512D01*
X130583000Y-117168512D01*
X130583000Y-103836327D01*
X130717375Y-103970937D01*
X131030003Y-104100752D01*
X131368512Y-104101047D01*
X131681366Y-103971778D01*
X131920937Y-103732625D01*
X132050752Y-103419997D01*
X132051047Y-103081488D01*
X131921778Y-102768634D01*
X131682625Y-102529063D01*
X131369997Y-102399248D01*
X131031488Y-102398953D01*
X130718634Y-102528222D01*
X130583000Y-102663619D01*
X130583000Y-97023691D01*
X136190000Y-97023691D01*
X136190000Y-97464250D01*
X136348750Y-97623000D01*
X137073000Y-97623000D01*
X137073000Y-96673750D01*
X137327000Y-96673750D01*
X137327000Y-97623000D01*
X138051250Y-97623000D01*
X138210000Y-97464250D01*
X138210000Y-97023691D01*
X138113327Y-96790302D01*
X137934699Y-96611673D01*
X137701310Y-96515000D01*
X137485750Y-96515000D01*
X137327000Y-96673750D01*
X137073000Y-96673750D01*
X136914250Y-96515000D01*
X136698690Y-96515000D01*
X136465301Y-96611673D01*
X136286673Y-96790302D01*
X136190000Y-97023691D01*
X130583000Y-97023691D01*
X130583000Y-96023691D01*
X138340000Y-96023691D01*
X138340000Y-96464250D01*
X138498750Y-96623000D01*
X139223000Y-96623000D01*
X139223000Y-95673750D01*
X139477000Y-95673750D01*
X139477000Y-96623000D01*
X140201250Y-96623000D01*
X140360000Y-96464250D01*
X140360000Y-96023691D01*
X140263327Y-95790302D01*
X140084699Y-95611673D01*
X139851310Y-95515000D01*
X139635750Y-95515000D01*
X139477000Y-95673750D01*
X139223000Y-95673750D01*
X139064250Y-95515000D01*
X138848690Y-95515000D01*
X138615301Y-95611673D01*
X138436673Y-95790302D01*
X138340000Y-96023691D01*
X130583000Y-96023691D01*
X130583000Y-93147664D01*
X130741652Y-93147664D01*
X131046708Y-93885955D01*
X131611074Y-94451307D01*
X132348832Y-94757651D01*
X133147664Y-94758348D01*
X133885955Y-94453292D01*
X134153964Y-94185750D01*
X137665000Y-94185750D01*
X137665000Y-94726310D01*
X137761673Y-94959699D01*
X137940302Y-95138327D01*
X138173691Y-95235000D01*
X138814250Y-95235000D01*
X138973000Y-95076250D01*
X138973000Y-94027000D01*
X137823750Y-94027000D01*
X137665000Y-94185750D01*
X134153964Y-94185750D01*
X134451307Y-93888926D01*
X134757651Y-93151168D01*
X134758348Y-92352336D01*
X134453292Y-91614045D01*
X133888926Y-91048693D01*
X133151168Y-90742349D01*
X132352336Y-90741652D01*
X131614045Y-91046708D01*
X131048693Y-91611074D01*
X130742349Y-92348832D01*
X130741652Y-93147664D01*
X130583000Y-93147664D01*
X130583000Y-92807422D01*
X130758505Y-91925096D01*
X131225777Y-91225775D01*
X131925095Y-90758505D01*
X132807421Y-90583000D01*
X137953392Y-90583000D01*
X137992253Y-90621861D01*
G36*
X148618797Y-119786018D02*
X148502805Y-119955778D01*
X148461998Y-120157290D01*
X148461998Y-121958150D01*
X148497420Y-122146403D01*
X148587876Y-122286976D01*
X148549248Y-122380003D01*
X148548953Y-122718512D01*
X148557000Y-122737987D01*
X148557000Y-123933000D01*
X148577000Y-123933000D01*
X148577000Y-124187000D01*
X148557000Y-124187000D01*
X148557000Y-124207000D01*
X148303000Y-124207000D01*
X148303000Y-124187000D01*
X148283000Y-124187000D01*
X148283000Y-123933000D01*
X148303000Y-123933000D01*
X148303000Y-122683320D01*
X148144250Y-122524570D01*
X147903641Y-122524570D01*
X147670252Y-122621243D01*
X147497515Y-122793979D01*
X147482625Y-122779063D01*
X147169997Y-122649248D01*
X146831488Y-122648953D01*
X146518634Y-122778222D01*
X146487591Y-122809210D01*
X146571600Y-122386871D01*
X146571600Y-122333129D01*
X146467193Y-121808240D01*
X146169868Y-121363261D01*
X145724889Y-121065936D01*
X145200000Y-120961529D01*
X144722661Y-121056478D01*
X143414816Y-119748633D01*
X148676895Y-119748633D01*
X148618797Y-119786018D01*
X148618797Y-119786018D01*
G37*
X148618797Y-119786018D02*
X148502805Y-119955778D01*
X148461998Y-120157290D01*
X148461998Y-121958150D01*
X148497420Y-122146403D01*
X148587876Y-122286976D01*
X148549248Y-122380003D01*
X148548953Y-122718512D01*
X148557000Y-122737987D01*
X148557000Y-123933000D01*
X148577000Y-123933000D01*
X148577000Y-124187000D01*
X148557000Y-124187000D01*
X148557000Y-124207000D01*
X148303000Y-124207000D01*
X148303000Y-124187000D01*
X148283000Y-124187000D01*
X148283000Y-123933000D01*
X148303000Y-123933000D01*
X148303000Y-122683320D01*
X148144250Y-122524570D01*
X147903641Y-122524570D01*
X147670252Y-122621243D01*
X147497515Y-122793979D01*
X147482625Y-122779063D01*
X147169997Y-122649248D01*
X146831488Y-122648953D01*
X146518634Y-122778222D01*
X146487591Y-122809210D01*
X146571600Y-122386871D01*
X146571600Y-122333129D01*
X146467193Y-121808240D01*
X146169868Y-121363261D01*
X145724889Y-121065936D01*
X145200000Y-120961529D01*
X144722661Y-121056478D01*
X143414816Y-119748633D01*
X148676895Y-119748633D01*
X148618797Y-119786018D01*
G36*
X147189248Y-113830003D02*
X147188953Y-114168512D01*
X147318222Y-114481366D01*
X147372998Y-114536238D01*
X147372998Y-114548748D01*
X147214250Y-114390000D01*
X146773691Y-114390000D01*
X146540302Y-114486673D01*
X146361673Y-114665301D01*
X146265000Y-114898690D01*
X146265000Y-115114250D01*
X146423750Y-115273000D01*
X147373000Y-115273000D01*
X147373000Y-115253000D01*
X147627000Y-115253000D01*
X147627000Y-115273000D01*
X147647000Y-115273000D01*
X147647000Y-115527000D01*
X147627000Y-115527000D01*
X147627000Y-115547000D01*
X147373000Y-115547000D01*
X147373000Y-115527000D01*
X146423750Y-115527000D01*
X146265000Y-115685750D01*
X146265000Y-115901310D01*
X146361673Y-116134699D01*
X146540302Y-116313327D01*
X146773691Y-116410000D01*
X147157554Y-116410000D01*
X147149248Y-116430003D01*
X147149051Y-116656178D01*
X145813383Y-116656178D01*
X144784491Y-115627286D01*
X144708213Y-115576319D01*
X144651367Y-115538335D01*
X146505502Y-113684200D01*
X147249791Y-113684200D01*
X147189248Y-113830003D01*
X147189248Y-113830003D01*
G37*
X147189248Y-113830003D02*
X147188953Y-114168512D01*
X147318222Y-114481366D01*
X147372998Y-114536238D01*
X147372998Y-114548748D01*
X147214250Y-114390000D01*
X146773691Y-114390000D01*
X146540302Y-114486673D01*
X146361673Y-114665301D01*
X146265000Y-114898690D01*
X146265000Y-115114250D01*
X146423750Y-115273000D01*
X147373000Y-115273000D01*
X147373000Y-115253000D01*
X147627000Y-115253000D01*
X147627000Y-115273000D01*
X147647000Y-115273000D01*
X147647000Y-115527000D01*
X147627000Y-115527000D01*
X147627000Y-115547000D01*
X147373000Y-115547000D01*
X147373000Y-115527000D01*
X146423750Y-115527000D01*
X146265000Y-115685750D01*
X146265000Y-115901310D01*
X146361673Y-116134699D01*
X146540302Y-116313327D01*
X146773691Y-116410000D01*
X147157554Y-116410000D01*
X147149248Y-116430003D01*
X147149051Y-116656178D01*
X145813383Y-116656178D01*
X144784491Y-115627286D01*
X144708213Y-115576319D01*
X144651367Y-115538335D01*
X146505502Y-113684200D01*
X147249791Y-113684200D01*
X147189248Y-113830003D01*
G36*
X151944009Y-108470193D02*
X151949036Y-108473552D01*
X151948953Y-108568512D01*
X152078222Y-108881366D01*
X152317375Y-109120937D01*
X152630003Y-109250752D01*
X152968512Y-109251047D01*
X153030786Y-109225316D01*
X153030786Y-109441006D01*
X152991276Y-109424600D01*
X152749336Y-109424389D01*
X152701944Y-109392723D01*
X152478380Y-109348253D01*
X149417547Y-109348253D01*
X149193983Y-109392723D01*
X149010982Y-109515000D01*
X149004455Y-109519361D01*
X147301740Y-111222076D01*
X147178178Y-110923034D01*
X147085000Y-110829693D01*
X147085000Y-110535750D01*
X146926250Y-110377000D01*
X146127000Y-110377000D01*
X146127000Y-110397000D01*
X145873000Y-110397000D01*
X145873000Y-110377000D01*
X145853000Y-110377000D01*
X145853000Y-110123000D01*
X145873000Y-110123000D01*
X145873000Y-110103000D01*
X146127000Y-110103000D01*
X146127000Y-110123000D01*
X146926250Y-110123000D01*
X147085000Y-109964250D01*
X147085000Y-109523691D01*
X146988327Y-109290302D01*
X146850894Y-109152868D01*
X146851047Y-108976790D01*
X146847467Y-108968125D01*
X146927145Y-108851512D01*
X146967952Y-108650000D01*
X146967952Y-108494857D01*
X147015492Y-108463092D01*
X147437520Y-108041064D01*
X147517375Y-108121058D01*
X147830003Y-108250873D01*
X148168512Y-108251168D01*
X148481366Y-108121899D01*
X148720937Y-107882746D01*
X148850752Y-107570118D01*
X148850889Y-107412801D01*
X150886617Y-107412801D01*
X151944009Y-108470193D01*
X151944009Y-108470193D01*
G37*
X151944009Y-108470193D02*
X151949036Y-108473552D01*
X151948953Y-108568512D01*
X152078222Y-108881366D01*
X152317375Y-109120937D01*
X152630003Y-109250752D01*
X152968512Y-109251047D01*
X153030786Y-109225316D01*
X153030786Y-109441006D01*
X152991276Y-109424600D01*
X152749336Y-109424389D01*
X152701944Y-109392723D01*
X152478380Y-109348253D01*
X149417547Y-109348253D01*
X149193983Y-109392723D01*
X149010982Y-109515000D01*
X149004455Y-109519361D01*
X147301740Y-111222076D01*
X147178178Y-110923034D01*
X147085000Y-110829693D01*
X147085000Y-110535750D01*
X146926250Y-110377000D01*
X146127000Y-110377000D01*
X146127000Y-110397000D01*
X145873000Y-110397000D01*
X145873000Y-110377000D01*
X145853000Y-110377000D01*
X145853000Y-110123000D01*
X145873000Y-110123000D01*
X145873000Y-110103000D01*
X146127000Y-110103000D01*
X146127000Y-110123000D01*
X146926250Y-110123000D01*
X147085000Y-109964250D01*
X147085000Y-109523691D01*
X146988327Y-109290302D01*
X146850894Y-109152868D01*
X146851047Y-108976790D01*
X146847467Y-108968125D01*
X146927145Y-108851512D01*
X146967952Y-108650000D01*
X146967952Y-108494857D01*
X147015492Y-108463092D01*
X147437520Y-108041064D01*
X147517375Y-108121058D01*
X147830003Y-108250873D01*
X148168512Y-108251168D01*
X148481366Y-108121899D01*
X148720937Y-107882746D01*
X148850752Y-107570118D01*
X148850889Y-107412801D01*
X150886617Y-107412801D01*
X151944009Y-108470193D01*
G36*
X161388458Y-100552886D02*
X161526036Y-100690704D01*
X161526036Y-101312471D01*
X161570506Y-101536035D01*
X161653790Y-101660679D01*
X161697144Y-101725563D01*
X162615800Y-102644219D01*
X162615800Y-110009056D01*
X162322954Y-109887455D01*
X161984445Y-109887160D01*
X161941507Y-109904902D01*
X161901162Y-109807500D01*
X161970000Y-109641310D01*
X161970000Y-109616250D01*
X161953750Y-109600000D01*
X161970000Y-109583750D01*
X161970000Y-109558690D01*
X161904268Y-109400000D01*
X161970000Y-109241310D01*
X161970000Y-109216250D01*
X161953750Y-109200000D01*
X161970000Y-109183750D01*
X161970000Y-109158690D01*
X161904268Y-109000000D01*
X161970000Y-108841310D01*
X161970000Y-108816250D01*
X161953750Y-108800000D01*
X161970000Y-108783750D01*
X161970000Y-108758690D01*
X161904268Y-108600000D01*
X161970000Y-108441310D01*
X161970000Y-108416250D01*
X161953750Y-108400000D01*
X161970000Y-108383750D01*
X161970000Y-108358690D01*
X161904268Y-108200000D01*
X161970000Y-108041310D01*
X161970000Y-108016250D01*
X161953750Y-108000000D01*
X161970000Y-107983750D01*
X161970000Y-107958690D01*
X161904268Y-107800000D01*
X161970000Y-107641310D01*
X161970000Y-107616250D01*
X161953750Y-107600000D01*
X161970000Y-107583750D01*
X161970000Y-107558690D01*
X161904268Y-107400000D01*
X161970000Y-107241310D01*
X161970000Y-107216250D01*
X161953750Y-107200000D01*
X161970000Y-107183750D01*
X161970000Y-107158690D01*
X161904268Y-107000000D01*
X161970000Y-106841310D01*
X161970000Y-106816250D01*
X161953750Y-106800000D01*
X161970000Y-106783750D01*
X161970000Y-106758690D01*
X161904268Y-106600000D01*
X161970000Y-106441310D01*
X161970000Y-106416250D01*
X161953750Y-106400000D01*
X161970000Y-106383750D01*
X161970000Y-106358690D01*
X161901162Y-106192500D01*
X161970000Y-106026310D01*
X161970000Y-105958690D01*
X161873327Y-105725301D01*
X161785526Y-105637500D01*
X161811250Y-105637500D01*
X161970000Y-105478750D01*
X161970000Y-105423690D01*
X161873327Y-105190301D01*
X161694698Y-105011673D01*
X161461309Y-104915000D01*
X161290750Y-104915000D01*
X161132000Y-105073750D01*
X161132000Y-105383205D01*
X160878000Y-105434005D01*
X160878000Y-105073750D01*
X160719250Y-104915000D01*
X160584200Y-104915000D01*
X160584200Y-101291984D01*
X161369406Y-100506778D01*
X161388458Y-100552886D01*
X161388458Y-100552886D01*
G37*
X161388458Y-100552886D02*
X161526036Y-100690704D01*
X161526036Y-101312471D01*
X161570506Y-101536035D01*
X161653790Y-101660679D01*
X161697144Y-101725563D01*
X162615800Y-102644219D01*
X162615800Y-110009056D01*
X162322954Y-109887455D01*
X161984445Y-109887160D01*
X161941507Y-109904902D01*
X161901162Y-109807500D01*
X161970000Y-109641310D01*
X161970000Y-109616250D01*
X161953750Y-109600000D01*
X161970000Y-109583750D01*
X161970000Y-109558690D01*
X161904268Y-109400000D01*
X161970000Y-109241310D01*
X161970000Y-109216250D01*
X161953750Y-109200000D01*
X161970000Y-109183750D01*
X161970000Y-109158690D01*
X161904268Y-109000000D01*
X161970000Y-108841310D01*
X161970000Y-108816250D01*
X161953750Y-108800000D01*
X161970000Y-108783750D01*
X161970000Y-108758690D01*
X161904268Y-108600000D01*
X161970000Y-108441310D01*
X161970000Y-108416250D01*
X161953750Y-108400000D01*
X161970000Y-108383750D01*
X161970000Y-108358690D01*
X161904268Y-108200000D01*
X161970000Y-108041310D01*
X161970000Y-108016250D01*
X161953750Y-108000000D01*
X161970000Y-107983750D01*
X161970000Y-107958690D01*
X161904268Y-107800000D01*
X161970000Y-107641310D01*
X161970000Y-107616250D01*
X161953750Y-107600000D01*
X161970000Y-107583750D01*
X161970000Y-107558690D01*
X161904268Y-107400000D01*
X161970000Y-107241310D01*
X161970000Y-107216250D01*
X161953750Y-107200000D01*
X161970000Y-107183750D01*
X161970000Y-107158690D01*
X161904268Y-107000000D01*
X161970000Y-106841310D01*
X161970000Y-106816250D01*
X161953750Y-106800000D01*
X161970000Y-106783750D01*
X161970000Y-106758690D01*
X161904268Y-106600000D01*
X161970000Y-106441310D01*
X161970000Y-106416250D01*
X161953750Y-106400000D01*
X161970000Y-106383750D01*
X161970000Y-106358690D01*
X161901162Y-106192500D01*
X161970000Y-106026310D01*
X161970000Y-105958690D01*
X161873327Y-105725301D01*
X161785526Y-105637500D01*
X161811250Y-105637500D01*
X161970000Y-105478750D01*
X161970000Y-105423690D01*
X161873327Y-105190301D01*
X161694698Y-105011673D01*
X161461309Y-104915000D01*
X161290750Y-104915000D01*
X161132000Y-105073750D01*
X161132000Y-105383205D01*
X160878000Y-105434005D01*
X160878000Y-105073750D01*
X160719250Y-104915000D01*
X160584200Y-104915000D01*
X160584200Y-101291984D01*
X161369406Y-100506778D01*
X161388458Y-100552886D01*
G36*
X151689182Y-104899467D02*
X151495975Y-104899299D01*
X151183121Y-105028568D01*
X150943550Y-105267721D01*
X150813735Y-105580349D01*
X150813440Y-105918858D01*
X150942709Y-106231712D01*
X150955376Y-106244401D01*
X148568651Y-106244401D01*
X148451250Y-106127000D01*
X147727000Y-106127000D01*
X147727000Y-106147000D01*
X147473000Y-106147000D01*
X147473000Y-106127000D01*
X146748750Y-106127000D01*
X146631349Y-106244401D01*
X145172985Y-106244401D01*
X144865492Y-105936908D01*
X144858350Y-105932136D01*
X144790966Y-105887112D01*
X144893285Y-105887201D01*
X145206139Y-105757932D01*
X145231152Y-105732963D01*
X145344951Y-105755599D01*
X146631349Y-105755599D01*
X146748750Y-105873000D01*
X147473000Y-105873000D01*
X147473000Y-105853000D01*
X147727000Y-105853000D01*
X147727000Y-105873000D01*
X148451250Y-105873000D01*
X148610000Y-105714250D01*
X148610000Y-105316855D01*
X149980841Y-103946014D01*
X152642636Y-103946014D01*
X151689182Y-104899467D01*
X151689182Y-104899467D01*
G37*
X151689182Y-104899467D02*
X151495975Y-104899299D01*
X151183121Y-105028568D01*
X150943550Y-105267721D01*
X150813735Y-105580349D01*
X150813440Y-105918858D01*
X150942709Y-106231712D01*
X150955376Y-106244401D01*
X148568651Y-106244401D01*
X148451250Y-106127000D01*
X147727000Y-106127000D01*
X147727000Y-106147000D01*
X147473000Y-106147000D01*
X147473000Y-106127000D01*
X146748750Y-106127000D01*
X146631349Y-106244401D01*
X145172985Y-106244401D01*
X144865492Y-105936908D01*
X144858350Y-105932136D01*
X144790966Y-105887112D01*
X144893285Y-105887201D01*
X145206139Y-105757932D01*
X145231152Y-105732963D01*
X145344951Y-105755599D01*
X146631349Y-105755599D01*
X146748750Y-105873000D01*
X147473000Y-105873000D01*
X147473000Y-105853000D01*
X147727000Y-105853000D01*
X147727000Y-105873000D01*
X148451250Y-105873000D01*
X148610000Y-105714250D01*
X148610000Y-105316855D01*
X149980841Y-103946014D01*
X152642636Y-103946014D01*
X151689182Y-104899467D01*
G36*
X153230431Y-99459335D02*
X153230136Y-99797844D01*
X153230684Y-99799170D01*
X152981488Y-99798953D01*
X152668634Y-99928222D01*
X152429063Y-100167375D01*
X152348114Y-100362321D01*
X152065872Y-100245123D01*
X151727363Y-100244828D01*
X151414509Y-100374097D01*
X151174938Y-100613250D01*
X151045123Y-100925878D01*
X151045099Y-100953306D01*
X149225161Y-100953306D01*
X149088663Y-100816569D01*
X148776035Y-100686754D01*
X148437526Y-100686459D01*
X148124672Y-100815728D01*
X147885101Y-101054881D01*
X147755286Y-101367509D01*
X147754991Y-101706018D01*
X147780020Y-101766594D01*
X147679063Y-101867375D01*
X147549248Y-102180003D01*
X147549001Y-102463170D01*
X145947761Y-102463170D01*
X145724197Y-102507640D01*
X145669073Y-102544472D01*
X145431307Y-102544265D01*
X145118453Y-102673534D01*
X145012132Y-102779669D01*
X144959147Y-102757668D01*
X144620638Y-102757373D01*
X144307784Y-102886642D01*
X144068213Y-103125795D01*
X143938398Y-103438423D01*
X143938336Y-103510000D01*
X143935750Y-103510000D01*
X143777000Y-103668750D01*
X143777000Y-104393000D01*
X143797000Y-104393000D01*
X143797000Y-104647000D01*
X143777000Y-104647000D01*
X143777000Y-105371250D01*
X143935750Y-105530000D01*
X144015453Y-105530000D01*
X144217149Y-105732048D01*
X143310826Y-105732048D01*
X143294541Y-105650180D01*
X143214240Y-105530000D01*
X143364250Y-105530000D01*
X143523000Y-105371250D01*
X143523000Y-104647000D01*
X143503000Y-104647000D01*
X143503000Y-104393000D01*
X143523000Y-104393000D01*
X143523000Y-103668750D01*
X143364250Y-103510000D01*
X142923691Y-103510000D01*
X142690302Y-103606673D01*
X142597617Y-103699357D01*
X142551512Y-103667855D01*
X142350000Y-103627048D01*
X142194857Y-103627048D01*
X142163092Y-103579508D01*
X142163089Y-103579506D01*
X142120492Y-103536908D01*
X142095524Y-103520225D01*
X141930964Y-103410270D01*
X141781553Y-103380550D01*
X141781629Y-103293819D01*
X141652360Y-102980965D01*
X141413207Y-102741394D01*
X141100579Y-102611579D01*
X140905844Y-102611409D01*
X140384200Y-102089765D01*
X140384200Y-101755474D01*
X140587616Y-101755651D01*
X140635008Y-101787317D01*
X140858572Y-101831787D01*
X141639297Y-101831787D01*
X141862861Y-101787317D01*
X142052389Y-101660679D01*
X142052390Y-101660678D01*
X144528867Y-99184200D01*
X153344677Y-99184200D01*
X153230431Y-99459335D01*
X153230431Y-99459335D01*
G37*
X153230431Y-99459335D02*
X153230136Y-99797844D01*
X153230684Y-99799170D01*
X152981488Y-99798953D01*
X152668634Y-99928222D01*
X152429063Y-100167375D01*
X152348114Y-100362321D01*
X152065872Y-100245123D01*
X151727363Y-100244828D01*
X151414509Y-100374097D01*
X151174938Y-100613250D01*
X151045123Y-100925878D01*
X151045099Y-100953306D01*
X149225161Y-100953306D01*
X149088663Y-100816569D01*
X148776035Y-100686754D01*
X148437526Y-100686459D01*
X148124672Y-100815728D01*
X147885101Y-101054881D01*
X147755286Y-101367509D01*
X147754991Y-101706018D01*
X147780020Y-101766594D01*
X147679063Y-101867375D01*
X147549248Y-102180003D01*
X147549001Y-102463170D01*
X145947761Y-102463170D01*
X145724197Y-102507640D01*
X145669073Y-102544472D01*
X145431307Y-102544265D01*
X145118453Y-102673534D01*
X145012132Y-102779669D01*
X144959147Y-102757668D01*
X144620638Y-102757373D01*
X144307784Y-102886642D01*
X144068213Y-103125795D01*
X143938398Y-103438423D01*
X143938336Y-103510000D01*
X143935750Y-103510000D01*
X143777000Y-103668750D01*
X143777000Y-104393000D01*
X143797000Y-104393000D01*
X143797000Y-104647000D01*
X143777000Y-104647000D01*
X143777000Y-105371250D01*
X143935750Y-105530000D01*
X144015453Y-105530000D01*
X144217149Y-105732048D01*
X143310826Y-105732048D01*
X143294541Y-105650180D01*
X143214240Y-105530000D01*
X143364250Y-105530000D01*
X143523000Y-105371250D01*
X143523000Y-104647000D01*
X143503000Y-104647000D01*
X143503000Y-104393000D01*
X143523000Y-104393000D01*
X143523000Y-103668750D01*
X143364250Y-103510000D01*
X142923691Y-103510000D01*
X142690302Y-103606673D01*
X142597617Y-103699357D01*
X142551512Y-103667855D01*
X142350000Y-103627048D01*
X142194857Y-103627048D01*
X142163092Y-103579508D01*
X142163089Y-103579506D01*
X142120492Y-103536908D01*
X142095524Y-103520225D01*
X141930964Y-103410270D01*
X141781553Y-103380550D01*
X141781629Y-103293819D01*
X141652360Y-102980965D01*
X141413207Y-102741394D01*
X141100579Y-102611579D01*
X140905844Y-102611409D01*
X140384200Y-102089765D01*
X140384200Y-101755474D01*
X140587616Y-101755651D01*
X140635008Y-101787317D01*
X140858572Y-101831787D01*
X141639297Y-101831787D01*
X141862861Y-101787317D01*
X142052389Y-101660679D01*
X142052390Y-101660678D01*
X144528867Y-99184200D01*
X153344677Y-99184200D01*
X153230431Y-99459335D01*
G36*
X149667375Y-92170937D02*
X149980003Y-92300752D01*
X150318512Y-92301047D01*
X150631366Y-92171778D01*
X150670212Y-92133000D01*
X151663000Y-92133000D01*
X151663000Y-92113000D01*
X151917000Y-92113000D01*
X151917000Y-92133000D01*
X152966250Y-92133000D01*
X153060893Y-92038357D01*
X153079800Y-92050990D01*
X153079800Y-92068650D01*
X153238550Y-92227400D01*
X154187800Y-92227400D01*
X154187800Y-92207400D01*
X154441800Y-92207400D01*
X154441800Y-92227400D01*
X154461800Y-92227400D01*
X154461800Y-92481400D01*
X154441800Y-92481400D01*
X154441800Y-93280650D01*
X154600550Y-93439400D01*
X155041109Y-93439400D01*
X155274498Y-93342727D01*
X155453127Y-93164099D01*
X155488163Y-93079514D01*
X155543528Y-93165553D01*
X155713288Y-93281545D01*
X155914800Y-93322352D01*
X157114800Y-93322352D01*
X157303053Y-93286930D01*
X157464876Y-93182800D01*
X157568157Y-93182800D01*
X157568690Y-93185633D01*
X157679948Y-93358533D01*
X157849708Y-93474525D01*
X158051220Y-93515332D01*
X158848780Y-93515332D01*
X159037033Y-93479910D01*
X159209933Y-93368652D01*
X159325925Y-93198892D01*
X159366732Y-92997380D01*
X159366732Y-92481400D01*
X159955216Y-92481400D01*
X160565800Y-93091984D01*
X160565800Y-94300000D01*
X160610270Y-94523564D01*
X160660492Y-94598727D01*
X160736908Y-94713092D01*
X163205815Y-97181998D01*
X163182303Y-97181998D01*
X162651293Y-96650987D01*
X162445284Y-96513336D01*
X162222409Y-96469004D01*
X162132625Y-96379063D01*
X161819997Y-96249248D01*
X161481488Y-96248953D01*
X161347849Y-96304172D01*
X161301942Y-96272805D01*
X161100430Y-96231998D01*
X159299570Y-96231998D01*
X159111317Y-96267420D01*
X158938417Y-96378678D01*
X158831607Y-96535000D01*
X145741184Y-96535000D01*
X147040802Y-95235382D01*
X147090400Y-95161153D01*
X147167440Y-95045854D01*
X147211910Y-94822290D01*
X147211910Y-93357130D01*
X147363691Y-93420000D01*
X147904250Y-93420000D01*
X148063000Y-93261250D01*
X148063000Y-92387000D01*
X148317000Y-92387000D01*
X148317000Y-93261250D01*
X148475750Y-93420000D01*
X149016309Y-93420000D01*
X149249698Y-93323327D01*
X149428327Y-93144699D01*
X149525000Y-92911310D01*
X149525000Y-92545750D01*
X150455000Y-92545750D01*
X150455000Y-92911310D01*
X150551673Y-93144699D01*
X150730302Y-93323327D01*
X150963691Y-93420000D01*
X151504250Y-93420000D01*
X151663000Y-93261250D01*
X151663000Y-92387000D01*
X151917000Y-92387000D01*
X151917000Y-93261250D01*
X152075750Y-93420000D01*
X152616309Y-93420000D01*
X152849698Y-93323327D01*
X153028327Y-93144699D01*
X153098382Y-92975571D01*
X153176473Y-93164099D01*
X153355102Y-93342727D01*
X153588491Y-93439400D01*
X154029050Y-93439400D01*
X154187800Y-93280650D01*
X154187800Y-92481400D01*
X153238550Y-92481400D01*
X153125000Y-92594950D01*
X153125000Y-92545750D01*
X152966250Y-92387000D01*
X151917000Y-92387000D01*
X151663000Y-92387000D01*
X150613750Y-92387000D01*
X150455000Y-92545750D01*
X149525000Y-92545750D01*
X149366250Y-92387000D01*
X148317000Y-92387000D01*
X148063000Y-92387000D01*
X148043000Y-92387000D01*
X148043000Y-92133000D01*
X148063000Y-92133000D01*
X148063000Y-92113000D01*
X148317000Y-92113000D01*
X148317000Y-92133000D01*
X149366250Y-92133000D01*
X149497992Y-92001258D01*
X149667375Y-92170937D01*
X149667375Y-92170937D01*
G37*
X149667375Y-92170937D02*
X149980003Y-92300752D01*
X150318512Y-92301047D01*
X150631366Y-92171778D01*
X150670212Y-92133000D01*
X151663000Y-92133000D01*
X151663000Y-92113000D01*
X151917000Y-92113000D01*
X151917000Y-92133000D01*
X152966250Y-92133000D01*
X153060893Y-92038357D01*
X153079800Y-92050990D01*
X153079800Y-92068650D01*
X153238550Y-92227400D01*
X154187800Y-92227400D01*
X154187800Y-92207400D01*
X154441800Y-92207400D01*
X154441800Y-92227400D01*
X154461800Y-92227400D01*
X154461800Y-92481400D01*
X154441800Y-92481400D01*
X154441800Y-93280650D01*
X154600550Y-93439400D01*
X155041109Y-93439400D01*
X155274498Y-93342727D01*
X155453127Y-93164099D01*
X155488163Y-93079514D01*
X155543528Y-93165553D01*
X155713288Y-93281545D01*
X155914800Y-93322352D01*
X157114800Y-93322352D01*
X157303053Y-93286930D01*
X157464876Y-93182800D01*
X157568157Y-93182800D01*
X157568690Y-93185633D01*
X157679948Y-93358533D01*
X157849708Y-93474525D01*
X158051220Y-93515332D01*
X158848780Y-93515332D01*
X159037033Y-93479910D01*
X159209933Y-93368652D01*
X159325925Y-93198892D01*
X159366732Y-92997380D01*
X159366732Y-92481400D01*
X159955216Y-92481400D01*
X160565800Y-93091984D01*
X160565800Y-94300000D01*
X160610270Y-94523564D01*
X160660492Y-94598727D01*
X160736908Y-94713092D01*
X163205815Y-97181998D01*
X163182303Y-97181998D01*
X162651293Y-96650987D01*
X162445284Y-96513336D01*
X162222409Y-96469004D01*
X162132625Y-96379063D01*
X161819997Y-96249248D01*
X161481488Y-96248953D01*
X161347849Y-96304172D01*
X161301942Y-96272805D01*
X161100430Y-96231998D01*
X159299570Y-96231998D01*
X159111317Y-96267420D01*
X158938417Y-96378678D01*
X158831607Y-96535000D01*
X145741184Y-96535000D01*
X147040802Y-95235382D01*
X147090400Y-95161153D01*
X147167440Y-95045854D01*
X147211910Y-94822290D01*
X147211910Y-93357130D01*
X147363691Y-93420000D01*
X147904250Y-93420000D01*
X148063000Y-93261250D01*
X148063000Y-92387000D01*
X148317000Y-92387000D01*
X148317000Y-93261250D01*
X148475750Y-93420000D01*
X149016309Y-93420000D01*
X149249698Y-93323327D01*
X149428327Y-93144699D01*
X149525000Y-92911310D01*
X149525000Y-92545750D01*
X150455000Y-92545750D01*
X150455000Y-92911310D01*
X150551673Y-93144699D01*
X150730302Y-93323327D01*
X150963691Y-93420000D01*
X151504250Y-93420000D01*
X151663000Y-93261250D01*
X151663000Y-92387000D01*
X151917000Y-92387000D01*
X151917000Y-93261250D01*
X152075750Y-93420000D01*
X152616309Y-93420000D01*
X152849698Y-93323327D01*
X153028327Y-93144699D01*
X153098382Y-92975571D01*
X153176473Y-93164099D01*
X153355102Y-93342727D01*
X153588491Y-93439400D01*
X154029050Y-93439400D01*
X154187800Y-93280650D01*
X154187800Y-92481400D01*
X153238550Y-92481400D01*
X153125000Y-92594950D01*
X153125000Y-92545750D01*
X152966250Y-92387000D01*
X151917000Y-92387000D01*
X151663000Y-92387000D01*
X150613750Y-92387000D01*
X150455000Y-92545750D01*
X149525000Y-92545750D01*
X149366250Y-92387000D01*
X148317000Y-92387000D01*
X148063000Y-92387000D01*
X148043000Y-92387000D01*
X148043000Y-92133000D01*
X148063000Y-92133000D01*
X148063000Y-92113000D01*
X148317000Y-92113000D01*
X148317000Y-92133000D01*
X149366250Y-92133000D01*
X149497992Y-92001258D01*
X149667375Y-92170937D01*
G36*
X141227000Y-91323000D02*
X143373000Y-91323000D01*
X143373000Y-91303000D01*
X143627000Y-91303000D01*
X143627000Y-91323000D01*
X143647000Y-91323000D01*
X143647000Y-91577000D01*
X143627000Y-91577000D01*
X143627000Y-92876250D01*
X143712250Y-92961500D01*
X143700000Y-92973750D01*
X143700000Y-93998000D01*
X143747000Y-93998000D01*
X143747000Y-94252000D01*
X143700000Y-94252000D01*
X143700000Y-95276250D01*
X143858750Y-95435000D01*
X143926309Y-95435000D01*
X144159698Y-95338327D01*
X144338327Y-95159699D01*
X144346172Y-95140759D01*
X144573691Y-95235000D01*
X145214250Y-95235000D01*
X145372998Y-95076252D01*
X145372998Y-95235000D01*
X145388816Y-95235000D01*
X143800880Y-96822936D01*
X143801047Y-96631488D01*
X143671778Y-96318634D01*
X143432625Y-96079063D01*
X143119997Y-95949248D01*
X142983300Y-95949129D01*
X142983300Y-95317952D01*
X143019927Y-95317952D01*
X143040302Y-95338327D01*
X143273691Y-95435000D01*
X143341250Y-95435000D01*
X143500000Y-95276250D01*
X143500000Y-95178449D01*
X143511153Y-95171272D01*
X143627145Y-95001512D01*
X143667952Y-94800000D01*
X143667952Y-93450000D01*
X143632530Y-93261747D01*
X143521272Y-93088847D01*
X143500000Y-93074312D01*
X143500000Y-92973750D01*
X143373000Y-92846750D01*
X143373000Y-91577000D01*
X141227000Y-91577000D01*
X141227000Y-91597000D01*
X140973000Y-91597000D01*
X140973000Y-91577000D01*
X140953000Y-91577000D01*
X140953000Y-91323000D01*
X140973000Y-91323000D01*
X140973000Y-91303000D01*
X141227000Y-91303000D01*
X141227000Y-91323000D01*
X141227000Y-91323000D01*
G37*
X141227000Y-91323000D02*
X143373000Y-91323000D01*
X143373000Y-91303000D01*
X143627000Y-91303000D01*
X143627000Y-91323000D01*
X143647000Y-91323000D01*
X143647000Y-91577000D01*
X143627000Y-91577000D01*
X143627000Y-92876250D01*
X143712250Y-92961500D01*
X143700000Y-92973750D01*
X143700000Y-93998000D01*
X143747000Y-93998000D01*
X143747000Y-94252000D01*
X143700000Y-94252000D01*
X143700000Y-95276250D01*
X143858750Y-95435000D01*
X143926309Y-95435000D01*
X144159698Y-95338327D01*
X144338327Y-95159699D01*
X144346172Y-95140759D01*
X144573691Y-95235000D01*
X145214250Y-95235000D01*
X145372998Y-95076252D01*
X145372998Y-95235000D01*
X145388816Y-95235000D01*
X143800880Y-96822936D01*
X143801047Y-96631488D01*
X143671778Y-96318634D01*
X143432625Y-96079063D01*
X143119997Y-95949248D01*
X142983300Y-95949129D01*
X142983300Y-95317952D01*
X143019927Y-95317952D01*
X143040302Y-95338327D01*
X143273691Y-95435000D01*
X143341250Y-95435000D01*
X143500000Y-95276250D01*
X143500000Y-95178449D01*
X143511153Y-95171272D01*
X143627145Y-95001512D01*
X143667952Y-94800000D01*
X143667952Y-93450000D01*
X143632530Y-93261747D01*
X143521272Y-93088847D01*
X143500000Y-93074312D01*
X143500000Y-92973750D01*
X143373000Y-92846750D01*
X143373000Y-91577000D01*
X141227000Y-91577000D01*
X141227000Y-91597000D01*
X140973000Y-91597000D01*
X140973000Y-91577000D01*
X140953000Y-91577000D01*
X140953000Y-91323000D01*
X140973000Y-91323000D01*
X140973000Y-91303000D01*
X141227000Y-91303000D01*
X141227000Y-91323000D01*
G36*
X145627000Y-93773000D02*
X145647000Y-93773000D01*
X145647000Y-94027000D01*
X145627000Y-94027000D01*
X145627000Y-94047000D01*
X145373000Y-94047000D01*
X145373000Y-94027000D01*
X145353000Y-94027000D01*
X145353000Y-93773000D01*
X145373000Y-93773000D01*
X145373000Y-93753000D01*
X145627000Y-93753000D01*
X145627000Y-93773000D01*
X145627000Y-93773000D01*
G37*
X145627000Y-93773000D02*
X145647000Y-93773000D01*
X145647000Y-94027000D01*
X145627000Y-94027000D01*
X145627000Y-94047000D01*
X145373000Y-94047000D01*
X145373000Y-94027000D01*
X145353000Y-94027000D01*
X145353000Y-93773000D01*
X145373000Y-93773000D01*
X145373000Y-93753000D01*
X145627000Y-93753000D01*
X145627000Y-93773000D01*
G36*
X145793748Y-91435858D02*
X145779605Y-91450000D01*
X145793748Y-91464143D01*
X145614142Y-91643748D01*
X145600000Y-91629605D01*
X145585858Y-91643748D01*
X145406253Y-91464143D01*
X145420395Y-91450000D01*
X145406253Y-91435858D01*
X145585858Y-91256252D01*
X145600000Y-91270395D01*
X145614142Y-91256252D01*
X145793748Y-91435858D01*
X145793748Y-91435858D01*
G37*
X145793748Y-91435858D02*
X145779605Y-91450000D01*
X145793748Y-91464143D01*
X145614142Y-91643748D01*
X145600000Y-91629605D01*
X145585858Y-91643748D01*
X145406253Y-91464143D01*
X145420395Y-91450000D01*
X145406253Y-91435858D01*
X145585858Y-91256252D01*
X145600000Y-91270395D01*
X145614142Y-91256252D01*
X145793748Y-91435858D01*
M02*
