G04 #@! TF.FileFunction,Legend,Bot*
%FSLAX46Y46*%
G04 Gerber Fmt 4.6, Leading zero omitted, Abs format (unit mm)*
G04 Created by KiCad (PCBNEW 4.0.1-stable) date Monday, March 07, 2016 'PMt' 11:58:59 PM*
%MOMM*%
G01*
G04 APERTURE LIST*
%ADD10C,0.100000*%
%ADD11C,0.150000*%
%ADD12C,0.300000*%
%ADD13C,0.175000*%
G04 APERTURE END LIST*
D10*
D11*
X164180000Y-96031905D02*
X164132381Y-95936667D01*
X164132381Y-95793810D01*
X164180000Y-95650952D01*
X164275238Y-95555714D01*
X164370476Y-95508095D01*
X164560952Y-95460476D01*
X164703810Y-95460476D01*
X164894286Y-95508095D01*
X164989524Y-95555714D01*
X165084762Y-95650952D01*
X165132381Y-95793810D01*
X165132381Y-95889048D01*
X165084762Y-96031905D01*
X165037143Y-96079524D01*
X164703810Y-96079524D01*
X164703810Y-95889048D01*
D12*
X139385715Y-101321429D02*
X139385715Y-100321429D01*
X139028572Y-101892857D02*
X138671429Y-100821429D01*
X139600001Y-100821429D01*
X141050001Y-101821429D02*
X141978572Y-101821429D01*
X141478572Y-101250000D01*
X141692858Y-101250000D01*
X141835715Y-101178571D01*
X141907144Y-101107143D01*
X141978572Y-100964286D01*
X141978572Y-100607143D01*
X141907144Y-100464286D01*
X141835715Y-100392857D01*
X141692858Y-100321429D01*
X141264286Y-100321429D01*
X141121429Y-100392857D01*
X141050001Y-100464286D01*
X143721429Y-101678571D02*
X143792858Y-101750000D01*
X143935715Y-101821429D01*
X144292858Y-101821429D01*
X144435715Y-101750000D01*
X144507144Y-101678571D01*
X144578572Y-101535714D01*
X144578572Y-101392857D01*
X144507144Y-101178571D01*
X143650001Y-100321429D01*
X144578572Y-100321429D01*
X147078572Y-100321429D02*
X146221429Y-100321429D01*
X146650001Y-100321429D02*
X146650001Y-101821429D01*
X146507144Y-101607143D01*
X146364286Y-101464286D01*
X146221429Y-101392857D01*
D11*
X139288876Y-107357143D02*
X139336495Y-107404762D01*
X139479352Y-107452381D01*
X139574590Y-107452381D01*
X139717448Y-107404762D01*
X139812686Y-107309524D01*
X139860305Y-107214286D01*
X139907924Y-107023810D01*
X139907924Y-106880952D01*
X139860305Y-106690476D01*
X139812686Y-106595238D01*
X139717448Y-106500000D01*
X139574590Y-106452381D01*
X139479352Y-106452381D01*
X139336495Y-106500000D01*
X139288876Y-106547619D01*
X141961905Y-107552381D02*
X141961905Y-106552381D01*
X141723810Y-106552381D01*
X141580952Y-106600000D01*
X141485714Y-106695238D01*
X141438095Y-106790476D01*
X141390476Y-106980952D01*
X141390476Y-107123810D01*
X141438095Y-107314286D01*
X141485714Y-107409524D01*
X141580952Y-107504762D01*
X141723810Y-107552381D01*
X141961905Y-107552381D01*
D13*
X162148876Y-121000781D02*
X162482210Y-120524590D01*
X162720305Y-121000781D02*
X162720305Y-120000781D01*
X162339352Y-120000781D01*
X162244114Y-120048400D01*
X162196495Y-120096019D01*
X162148876Y-120191257D01*
X162148876Y-120334114D01*
X162196495Y-120429352D01*
X162244114Y-120476971D01*
X162339352Y-120524590D01*
X162720305Y-120524590D01*
X164438571Y-120498571D02*
X164295714Y-120546190D01*
X164248095Y-120593810D01*
X164200476Y-120689048D01*
X164200476Y-120831905D01*
X164248095Y-120927143D01*
X164295714Y-120974762D01*
X164390952Y-121022381D01*
X164771905Y-121022381D01*
X164771905Y-120022381D01*
X164438571Y-120022381D01*
X164343333Y-120070000D01*
X164295714Y-120117619D01*
X164248095Y-120212857D01*
X164248095Y-120308095D01*
X164295714Y-120403333D01*
X164343333Y-120450952D01*
X164438571Y-120498571D01*
X164771905Y-120498571D01*
D11*
X153035714Y-97262381D02*
X152416666Y-97262381D01*
X152750000Y-97643333D01*
X152607142Y-97643333D01*
X152511904Y-97690952D01*
X152464285Y-97738571D01*
X152416666Y-97833810D01*
X152416666Y-98071905D01*
X152464285Y-98167143D01*
X152511904Y-98214762D01*
X152607142Y-98262381D01*
X152892857Y-98262381D01*
X152988095Y-98214762D01*
X153035714Y-98167143D01*
X151797619Y-97262381D02*
X151702380Y-97262381D01*
X151607142Y-97310000D01*
X151559523Y-97357619D01*
X151511904Y-97452857D01*
X151464285Y-97643333D01*
X151464285Y-97881429D01*
X151511904Y-98071905D01*
X151559523Y-98167143D01*
X151607142Y-98214762D01*
X151702380Y-98262381D01*
X151797619Y-98262381D01*
X151892857Y-98214762D01*
X151940476Y-98167143D01*
X151988095Y-98071905D01*
X152035714Y-97881429D01*
X152035714Y-97643333D01*
X151988095Y-97452857D01*
X151940476Y-97357619D01*
X151892857Y-97310000D01*
X151797619Y-97262381D01*
X150845238Y-97262381D02*
X150749999Y-97262381D01*
X150654761Y-97310000D01*
X150607142Y-97357619D01*
X150559523Y-97452857D01*
X150511904Y-97643333D01*
X150511904Y-97881429D01*
X150559523Y-98071905D01*
X150607142Y-98167143D01*
X150654761Y-98214762D01*
X150749999Y-98262381D01*
X150845238Y-98262381D01*
X150940476Y-98214762D01*
X150988095Y-98167143D01*
X151035714Y-98071905D01*
X151083333Y-97881429D01*
X151083333Y-97643333D01*
X151035714Y-97452857D01*
X150988095Y-97357619D01*
X150940476Y-97310000D01*
X150845238Y-97262381D01*
X150083333Y-98262381D02*
X150083333Y-97595714D01*
X150083333Y-97690952D02*
X150035714Y-97643333D01*
X149940476Y-97595714D01*
X149797618Y-97595714D01*
X149702380Y-97643333D01*
X149654761Y-97738571D01*
X149654761Y-98262381D01*
X149654761Y-97738571D02*
X149607142Y-97643333D01*
X149511904Y-97595714D01*
X149369047Y-97595714D01*
X149273809Y-97643333D01*
X149226190Y-97738571D01*
X149226190Y-98262381D01*
X148797619Y-97976667D02*
X148321428Y-97976667D01*
X148892857Y-98262381D02*
X148559524Y-97262381D01*
X148226190Y-98262381D01*
X147130952Y-98262381D02*
X147130952Y-97595714D01*
X147130952Y-97690952D02*
X147083333Y-97643333D01*
X146988095Y-97595714D01*
X146845237Y-97595714D01*
X146749999Y-97643333D01*
X146702380Y-97738571D01*
X146702380Y-98262381D01*
X146702380Y-97738571D02*
X146654761Y-97643333D01*
X146559523Y-97595714D01*
X146416666Y-97595714D01*
X146321428Y-97643333D01*
X146273809Y-97738571D01*
X146273809Y-98262381D01*
X145369047Y-98262381D02*
X145369047Y-97738571D01*
X145416666Y-97643333D01*
X145511904Y-97595714D01*
X145702381Y-97595714D01*
X145797619Y-97643333D01*
X145369047Y-98214762D02*
X145464285Y-98262381D01*
X145702381Y-98262381D01*
X145797619Y-98214762D01*
X145845238Y-98119524D01*
X145845238Y-98024286D01*
X145797619Y-97929048D01*
X145702381Y-97881429D01*
X145464285Y-97881429D01*
X145369047Y-97833810D01*
X144988095Y-98262381D02*
X144464285Y-97595714D01*
X144988095Y-97595714D02*
X144464285Y-98262381D01*
X131178571Y-109892857D02*
X131178571Y-109559523D01*
X131702381Y-109559523D02*
X130702381Y-109559523D01*
X130702381Y-110035714D01*
X131702381Y-110416666D02*
X131035714Y-110416666D01*
X131226190Y-110416666D02*
X131130952Y-110464285D01*
X131083333Y-110511904D01*
X131035714Y-110607142D01*
X131035714Y-110702381D01*
X131702381Y-111178571D02*
X131654762Y-111083333D01*
X131607143Y-111035714D01*
X131511905Y-110988095D01*
X131226190Y-110988095D01*
X131130952Y-111035714D01*
X131083333Y-111083333D01*
X131035714Y-111178571D01*
X131035714Y-111321429D01*
X131083333Y-111416667D01*
X131130952Y-111464286D01*
X131226190Y-111511905D01*
X131511905Y-111511905D01*
X131607143Y-111464286D01*
X131654762Y-111416667D01*
X131702381Y-111321429D01*
X131702381Y-111178571D01*
X131035714Y-111940476D02*
X131702381Y-111940476D01*
X131130952Y-111940476D02*
X131083333Y-111988095D01*
X131035714Y-112083333D01*
X131035714Y-112226191D01*
X131083333Y-112321429D01*
X131178571Y-112369048D01*
X131702381Y-112369048D01*
X131035714Y-112702381D02*
X131035714Y-113083333D01*
X130702381Y-112845238D02*
X131559524Y-112845238D01*
X131654762Y-112892857D01*
X131702381Y-112988095D01*
X131702381Y-113083333D01*
D12*
X165257143Y-99270000D02*
X165328571Y-99127143D01*
X165328571Y-98841429D01*
X165257143Y-98698571D01*
X165185714Y-98627143D01*
X165042857Y-98555714D01*
X164614286Y-98555714D01*
X164471429Y-98627143D01*
X164400000Y-98698571D01*
X164328571Y-98841429D01*
X164328571Y-99127143D01*
X164400000Y-99270000D01*
X165328571Y-99912857D02*
X163828571Y-99912857D01*
X164757143Y-100055714D02*
X165328571Y-100484285D01*
X164328571Y-100484285D02*
X164900000Y-99912857D01*
X165328571Y-101770000D02*
X163828571Y-101770000D01*
X165257143Y-101770000D02*
X165328571Y-101627143D01*
X165328571Y-101341429D01*
X165257143Y-101198571D01*
X165185714Y-101127143D01*
X165042857Y-101055714D01*
X164614286Y-101055714D01*
X164471429Y-101127143D01*
X164400000Y-101198571D01*
X164328571Y-101341429D01*
X164328571Y-101627143D01*
X164400000Y-101770000D01*
X165185714Y-102484286D02*
X165257143Y-102555714D01*
X165328571Y-102484286D01*
X165257143Y-102412857D01*
X165185714Y-102484286D01*
X165328571Y-102484286D01*
X164328571Y-102984286D02*
X164328571Y-103555715D01*
X163828571Y-103198572D02*
X165114286Y-103198572D01*
X165257143Y-103270000D01*
X165328571Y-103412858D01*
X165328571Y-103555715D01*
X165257143Y-104627143D02*
X165328571Y-104484286D01*
X165328571Y-104198572D01*
X165257143Y-104055715D01*
X165114286Y-103984286D01*
X164542857Y-103984286D01*
X164400000Y-104055715D01*
X164328571Y-104198572D01*
X164328571Y-104484286D01*
X164400000Y-104627143D01*
X164542857Y-104698572D01*
X164685714Y-104698572D01*
X164828571Y-103984286D01*
X165257143Y-105984286D02*
X165328571Y-105841429D01*
X165328571Y-105555715D01*
X165257143Y-105412857D01*
X165185714Y-105341429D01*
X165042857Y-105270000D01*
X164614286Y-105270000D01*
X164471429Y-105341429D01*
X164400000Y-105412857D01*
X164328571Y-105555715D01*
X164328571Y-105841429D01*
X164400000Y-105984286D01*
X165328571Y-106627143D02*
X163828571Y-106627143D01*
X165328571Y-107270000D02*
X164542857Y-107270000D01*
X164400000Y-107198571D01*
X164328571Y-107055714D01*
X164328571Y-106841429D01*
X164400000Y-106698571D01*
X164471429Y-106627143D01*
X163757143Y-109055714D02*
X165685714Y-107770000D01*
X164328571Y-109341429D02*
X164328571Y-109912858D01*
X165328571Y-109555715D02*
X164042857Y-109555715D01*
X163900000Y-109627143D01*
X163828571Y-109770001D01*
X163828571Y-109912858D01*
X163828571Y-110270001D02*
X163828571Y-111198572D01*
X164400000Y-110698572D01*
X164400000Y-110912858D01*
X164471429Y-111055715D01*
X164542857Y-111127144D01*
X164685714Y-111198572D01*
X165042857Y-111198572D01*
X165185714Y-111127144D01*
X165257143Y-111055715D01*
X165328571Y-110912858D01*
X165328571Y-110484286D01*
X165257143Y-110341429D01*
X165185714Y-110270001D01*
X164328571Y-111627143D02*
X164328571Y-112198572D01*
X165328571Y-111841429D02*
X164042857Y-111841429D01*
X163900000Y-111912857D01*
X163828571Y-112055715D01*
X163828571Y-112198572D01*
X165257143Y-113341429D02*
X165328571Y-113198572D01*
X165328571Y-112912858D01*
X165257143Y-112770000D01*
X165185714Y-112698572D01*
X165042857Y-112627143D01*
X164614286Y-112627143D01*
X164471429Y-112698572D01*
X164400000Y-112770000D01*
X164328571Y-112912858D01*
X164328571Y-113198572D01*
X164400000Y-113341429D01*
X163757143Y-115055714D02*
X165685714Y-113770000D01*
X164328571Y-115412858D02*
X165328571Y-115770001D01*
X164328571Y-116127143D01*
X163828571Y-116555715D02*
X163828571Y-117555715D01*
X165328571Y-116912858D01*
D11*
X137723809Y-122904762D02*
X137580952Y-122952381D01*
X137342856Y-122952381D01*
X137247618Y-122904762D01*
X137199999Y-122857143D01*
X137152380Y-122761905D01*
X137152380Y-122666667D01*
X137199999Y-122571429D01*
X137247618Y-122523810D01*
X137342856Y-122476190D01*
X137533333Y-122428571D01*
X137628571Y-122380952D01*
X137676190Y-122333333D01*
X137723809Y-122238095D01*
X137723809Y-122142857D01*
X137676190Y-122047619D01*
X137628571Y-122000000D01*
X137533333Y-121952381D01*
X137295237Y-121952381D01*
X137152380Y-122000000D01*
X136723809Y-122952381D02*
X136723809Y-121952381D01*
X135723809Y-122000000D02*
X135819047Y-121952381D01*
X135961904Y-121952381D01*
X136104762Y-122000000D01*
X136200000Y-122095238D01*
X136247619Y-122190476D01*
X136295238Y-122380952D01*
X136295238Y-122523810D01*
X136247619Y-122714286D01*
X136200000Y-122809524D01*
X136104762Y-122904762D01*
X135961904Y-122952381D01*
X135866666Y-122952381D01*
X135723809Y-122904762D01*
X135676190Y-122857143D01*
X135676190Y-122523810D01*
X135866666Y-122523810D01*
D12*
X138814285Y-119278571D02*
X138814285Y-120278571D01*
X139171428Y-118707143D02*
X139528571Y-119778571D01*
X138599999Y-119778571D01*
X142049999Y-118828571D02*
X141121428Y-118828571D01*
X141621428Y-119400000D01*
X141407142Y-119400000D01*
X141264285Y-119471429D01*
X141192856Y-119542857D01*
X141121428Y-119685714D01*
X141121428Y-120042857D01*
X141192856Y-120185714D01*
X141264285Y-120257143D01*
X141407142Y-120328571D01*
X141835714Y-120328571D01*
X141978571Y-120257143D01*
X142049999Y-120185714D01*
X144578571Y-118921429D02*
X144507142Y-118850000D01*
X144364285Y-118778571D01*
X144007142Y-118778571D01*
X143864285Y-118850000D01*
X143792856Y-118921429D01*
X143721428Y-119064286D01*
X143721428Y-119207143D01*
X143792856Y-119421429D01*
X144649999Y-120278571D01*
X143721428Y-120278571D01*
X146221428Y-120278571D02*
X147078571Y-120278571D01*
X146649999Y-120278571D02*
X146649999Y-118778571D01*
X146792856Y-118992857D01*
X146935714Y-119135714D01*
X147078571Y-119207143D01*
D11*
X137261904Y-124500000D02*
X137357142Y-124452381D01*
X137499999Y-124452381D01*
X137642857Y-124500000D01*
X137738095Y-124595238D01*
X137785714Y-124690476D01*
X137833333Y-124880952D01*
X137833333Y-125023810D01*
X137785714Y-125214286D01*
X137738095Y-125309524D01*
X137642857Y-125404762D01*
X137499999Y-125452381D01*
X137404761Y-125452381D01*
X137261904Y-125404762D01*
X137214285Y-125357143D01*
X137214285Y-125023810D01*
X137404761Y-125023810D01*
X136785714Y-125452381D02*
X136785714Y-124452381D01*
X136214285Y-125452381D01*
X136214285Y-124452381D01*
X135738095Y-125452381D02*
X135738095Y-124452381D01*
X135500000Y-124452381D01*
X135357142Y-124500000D01*
X135261904Y-124595238D01*
X135214285Y-124690476D01*
X135166666Y-124880952D01*
X135166666Y-125023810D01*
X135214285Y-125214286D01*
X135261904Y-125309524D01*
X135357142Y-125404762D01*
X135500000Y-125452381D01*
X135738095Y-125452381D01*
X155579050Y-94449762D02*
X155436193Y-94497381D01*
X155198097Y-94497381D01*
X155102859Y-94449762D01*
X155055240Y-94402143D01*
X155007621Y-94306905D01*
X155007621Y-94211667D01*
X155055240Y-94116429D01*
X155102859Y-94068810D01*
X155198097Y-94021190D01*
X155388574Y-93973571D01*
X155483812Y-93925952D01*
X155531431Y-93878333D01*
X155579050Y-93783095D01*
X155579050Y-93687857D01*
X155531431Y-93592619D01*
X155483812Y-93545000D01*
X155388574Y-93497381D01*
X155150478Y-93497381D01*
X155007621Y-93545000D01*
X154579050Y-94497381D02*
X154579050Y-93497381D01*
X154150478Y-94497381D02*
X154150478Y-93973571D01*
X154198097Y-93878333D01*
X154293335Y-93830714D01*
X154436193Y-93830714D01*
X154531431Y-93878333D01*
X154579050Y-93925952D01*
X153531431Y-94497381D02*
X153626669Y-94449762D01*
X153674288Y-94402143D01*
X153721907Y-94306905D01*
X153721907Y-94021190D01*
X153674288Y-93925952D01*
X153626669Y-93878333D01*
X153531431Y-93830714D01*
X153388573Y-93830714D01*
X153293335Y-93878333D01*
X153245716Y-93925952D01*
X153198097Y-94021190D01*
X153198097Y-94306905D01*
X153245716Y-94402143D01*
X153293335Y-94449762D01*
X153388573Y-94497381D01*
X153531431Y-94497381D01*
X152769526Y-94497381D02*
X152769526Y-93830714D01*
X152769526Y-94021190D02*
X152721907Y-93925952D01*
X152674288Y-93878333D01*
X152579050Y-93830714D01*
X152483811Y-93830714D01*
X152293335Y-93830714D02*
X151912383Y-93830714D01*
X152150478Y-93497381D02*
X152150478Y-94354524D01*
X152102859Y-94449762D01*
X152007621Y-94497381D01*
X151912383Y-94497381D01*
X150245715Y-94497381D02*
X150579049Y-94021190D01*
X150817144Y-94497381D02*
X150817144Y-93497381D01*
X150436191Y-93497381D01*
X150340953Y-93545000D01*
X150293334Y-93592619D01*
X150245715Y-93687857D01*
X150245715Y-93830714D01*
X150293334Y-93925952D01*
X150340953Y-93973571D01*
X150436191Y-94021190D01*
X150817144Y-94021190D01*
X149436191Y-94449762D02*
X149531429Y-94497381D01*
X149721906Y-94497381D01*
X149817144Y-94449762D01*
X149864763Y-94354524D01*
X149864763Y-93973571D01*
X149817144Y-93878333D01*
X149721906Y-93830714D01*
X149531429Y-93830714D01*
X149436191Y-93878333D01*
X149388572Y-93973571D01*
X149388572Y-94068810D01*
X149864763Y-94164048D01*
X149007620Y-94449762D02*
X148912382Y-94497381D01*
X148721906Y-94497381D01*
X148626667Y-94449762D01*
X148579048Y-94354524D01*
X148579048Y-94306905D01*
X148626667Y-94211667D01*
X148721906Y-94164048D01*
X148864763Y-94164048D01*
X148960001Y-94116429D01*
X149007620Y-94021190D01*
X149007620Y-93973571D01*
X148960001Y-93878333D01*
X148864763Y-93830714D01*
X148721906Y-93830714D01*
X148626667Y-93878333D01*
X147769524Y-94449762D02*
X147864762Y-94497381D01*
X148055239Y-94497381D01*
X148150477Y-94449762D01*
X148198096Y-94354524D01*
X148198096Y-93973571D01*
X148150477Y-93878333D01*
X148055239Y-93830714D01*
X147864762Y-93830714D01*
X147769524Y-93878333D01*
X147721905Y-93973571D01*
X147721905Y-94068810D01*
X148198096Y-94164048D01*
X147436191Y-93830714D02*
X147055239Y-93830714D01*
X147293334Y-93497381D02*
X147293334Y-94354524D01*
X147245715Y-94449762D01*
X147150477Y-94497381D01*
X147055239Y-94497381D01*
X158626669Y-96047381D02*
X159102860Y-96047381D01*
X159102860Y-95047381D01*
X158150479Y-96047381D02*
X158245717Y-95999762D01*
X158293336Y-95952143D01*
X158340955Y-95856905D01*
X158340955Y-95571190D01*
X158293336Y-95475952D01*
X158245717Y-95428333D01*
X158150479Y-95380714D01*
X158007621Y-95380714D01*
X157912383Y-95428333D01*
X157864764Y-95475952D01*
X157817145Y-95571190D01*
X157817145Y-95856905D01*
X157864764Y-95952143D01*
X157912383Y-95999762D01*
X158007621Y-96047381D01*
X158150479Y-96047381D01*
X157388574Y-95380714D02*
X157388574Y-96047381D01*
X157388574Y-95475952D02*
X157340955Y-95428333D01*
X157245717Y-95380714D01*
X157102859Y-95380714D01*
X157007621Y-95428333D01*
X156960002Y-95523571D01*
X156960002Y-96047381D01*
X156055240Y-95380714D02*
X156055240Y-96190238D01*
X156102859Y-96285476D01*
X156150478Y-96333095D01*
X156245717Y-96380714D01*
X156388574Y-96380714D01*
X156483812Y-96333095D01*
X156055240Y-95999762D02*
X156150478Y-96047381D01*
X156340955Y-96047381D01*
X156436193Y-95999762D01*
X156483812Y-95952143D01*
X156531431Y-95856905D01*
X156531431Y-95571190D01*
X156483812Y-95475952D01*
X156436193Y-95428333D01*
X156340955Y-95380714D01*
X156150478Y-95380714D01*
X156055240Y-95428333D01*
X154483811Y-95523571D02*
X154340954Y-95571190D01*
X154293335Y-95618810D01*
X154245716Y-95714048D01*
X154245716Y-95856905D01*
X154293335Y-95952143D01*
X154340954Y-95999762D01*
X154436192Y-96047381D01*
X154817145Y-96047381D01*
X154817145Y-95047381D01*
X154483811Y-95047381D01*
X154388573Y-95095000D01*
X154340954Y-95142619D01*
X154293335Y-95237857D01*
X154293335Y-95333095D01*
X154340954Y-95428333D01*
X154388573Y-95475952D01*
X154483811Y-95523571D01*
X154817145Y-95523571D01*
X153674288Y-96047381D02*
X153769526Y-95999762D01*
X153817145Y-95952143D01*
X153864764Y-95856905D01*
X153864764Y-95571190D01*
X153817145Y-95475952D01*
X153769526Y-95428333D01*
X153674288Y-95380714D01*
X153531430Y-95380714D01*
X153436192Y-95428333D01*
X153388573Y-95475952D01*
X153340954Y-95571190D01*
X153340954Y-95856905D01*
X153388573Y-95952143D01*
X153436192Y-95999762D01*
X153531430Y-96047381D01*
X153674288Y-96047381D01*
X152769526Y-96047381D02*
X152864764Y-95999762D01*
X152912383Y-95952143D01*
X152960002Y-95856905D01*
X152960002Y-95571190D01*
X152912383Y-95475952D01*
X152864764Y-95428333D01*
X152769526Y-95380714D01*
X152626668Y-95380714D01*
X152531430Y-95428333D01*
X152483811Y-95475952D01*
X152436192Y-95571190D01*
X152436192Y-95856905D01*
X152483811Y-95952143D01*
X152531430Y-95999762D01*
X152626668Y-96047381D01*
X152769526Y-96047381D01*
X152150478Y-95380714D02*
X151769526Y-95380714D01*
X152007621Y-95047381D02*
X152007621Y-95904524D01*
X151960002Y-95999762D01*
X151864764Y-96047381D01*
X151769526Y-96047381D01*
X151293335Y-96047381D02*
X151388573Y-95999762D01*
X151436192Y-95904524D01*
X151436192Y-95047381D01*
X150769525Y-96047381D02*
X150864763Y-95999762D01*
X150912382Y-95952143D01*
X150960001Y-95856905D01*
X150960001Y-95571190D01*
X150912382Y-95475952D01*
X150864763Y-95428333D01*
X150769525Y-95380714D01*
X150626667Y-95380714D01*
X150531429Y-95428333D01*
X150483810Y-95475952D01*
X150436191Y-95571190D01*
X150436191Y-95856905D01*
X150483810Y-95952143D01*
X150531429Y-95999762D01*
X150626667Y-96047381D01*
X150769525Y-96047381D01*
X149579048Y-96047381D02*
X149579048Y-95523571D01*
X149626667Y-95428333D01*
X149721905Y-95380714D01*
X149912382Y-95380714D01*
X150007620Y-95428333D01*
X149579048Y-95999762D02*
X149674286Y-96047381D01*
X149912382Y-96047381D01*
X150007620Y-95999762D01*
X150055239Y-95904524D01*
X150055239Y-95809286D01*
X150007620Y-95714048D01*
X149912382Y-95666429D01*
X149674286Y-95666429D01*
X149579048Y-95618810D01*
X148674286Y-96047381D02*
X148674286Y-95047381D01*
X148674286Y-95999762D02*
X148769524Y-96047381D01*
X148960001Y-96047381D01*
X149055239Y-95999762D01*
X149102858Y-95952143D01*
X149150477Y-95856905D01*
X149150477Y-95571190D01*
X149102858Y-95475952D01*
X149055239Y-95428333D01*
X148960001Y-95380714D01*
X148769524Y-95380714D01*
X148674286Y-95428333D01*
X147817143Y-95999762D02*
X147912381Y-96047381D01*
X148102858Y-96047381D01*
X148198096Y-95999762D01*
X148245715Y-95904524D01*
X148245715Y-95523571D01*
X148198096Y-95428333D01*
X148102858Y-95380714D01*
X147912381Y-95380714D01*
X147817143Y-95428333D01*
X147769524Y-95523571D01*
X147769524Y-95618810D01*
X148245715Y-95714048D01*
X147340953Y-96047381D02*
X147340953Y-95380714D01*
X147340953Y-95571190D02*
X147293334Y-95475952D01*
X147245715Y-95428333D01*
X147150477Y-95380714D01*
X147055238Y-95380714D01*
X158725000Y-105240000D02*
X160575000Y-105240000D01*
X158725000Y-110760000D02*
X160575000Y-110760000D01*
X159650000Y-109800000D02*
X159650000Y-106200000D01*
X148250000Y-124900000D02*
X148250000Y-126050000D01*
X148250000Y-126050000D02*
X146700000Y-126050000D01*
X138826000Y-123376000D02*
X138826000Y-123884000D01*
X139334000Y-123376000D02*
X139334000Y-123884000D01*
X141366000Y-123376000D02*
X141366000Y-123884000D01*
X141874000Y-123376000D02*
X141874000Y-123884000D01*
X143906000Y-123376000D02*
X143906000Y-123884000D01*
X144414000Y-123376000D02*
X144414000Y-123884000D01*
X146446000Y-123376000D02*
X146446000Y-123884000D01*
X146954000Y-123376000D02*
X146954000Y-123884000D01*
X146954000Y-120836000D02*
X146954000Y-121344000D01*
X146446000Y-120836000D02*
X146446000Y-121344000D01*
X144414000Y-120836000D02*
X144414000Y-121344000D01*
X143906000Y-120836000D02*
X143906000Y-121344000D01*
X138826000Y-120836000D02*
X138826000Y-121344000D01*
X139334000Y-120836000D02*
X139334000Y-121344000D01*
X141366000Y-120836000D02*
X141366000Y-121344000D01*
X141874000Y-120836000D02*
X141874000Y-121344000D01*
X146827000Y-118296000D02*
X146827000Y-112327000D01*
X146827000Y-112327000D02*
X146573000Y-112327000D01*
X146573000Y-112327000D02*
X146573000Y-118169000D01*
X146573000Y-118169000D02*
X146700000Y-118169000D01*
X146700000Y-118169000D02*
X146700000Y-112327000D01*
X137810000Y-120836000D02*
X137810000Y-118296000D01*
X142890000Y-120836000D02*
X142890000Y-118296000D01*
X142890000Y-120836000D02*
X140350000Y-120836000D01*
X140350000Y-120836000D02*
X140350000Y-118296000D01*
X141874000Y-118296000D02*
X141874000Y-112200000D01*
X141874000Y-112200000D02*
X141366000Y-112200000D01*
X141366000Y-112200000D02*
X141366000Y-118296000D01*
X140350000Y-118296000D02*
X142890000Y-118296000D01*
X137810000Y-118296000D02*
X140350000Y-118296000D01*
X138826000Y-112200000D02*
X138826000Y-118296000D01*
X139334000Y-112200000D02*
X138826000Y-112200000D01*
X139334000Y-118296000D02*
X139334000Y-112200000D01*
X137810000Y-120836000D02*
X137810000Y-118296000D01*
X140350000Y-120836000D02*
X137810000Y-120836000D01*
X140350000Y-120836000D02*
X140350000Y-118296000D01*
X145430000Y-120836000D02*
X145430000Y-118296000D01*
X145430000Y-120836000D02*
X142890000Y-120836000D01*
X142890000Y-120836000D02*
X142890000Y-118296000D01*
X144414000Y-118296000D02*
X144414000Y-112200000D01*
X144414000Y-112200000D02*
X143906000Y-112200000D01*
X143906000Y-112200000D02*
X143906000Y-118296000D01*
X142890000Y-118296000D02*
X145430000Y-118296000D01*
X145430000Y-118296000D02*
X147970000Y-118296000D01*
X146446000Y-112200000D02*
X146446000Y-118296000D01*
X146954000Y-112200000D02*
X146446000Y-112200000D01*
X146954000Y-118296000D02*
X146954000Y-112200000D01*
X145430000Y-120836000D02*
X145430000Y-118296000D01*
X147970000Y-120836000D02*
X145430000Y-120836000D01*
X147970000Y-120836000D02*
X147970000Y-118296000D01*
X147075000Y-106510000D02*
X147075000Y-105510000D01*
X145725000Y-105510000D02*
X145725000Y-106510000D01*
X142350000Y-105120000D02*
X143050000Y-105120000D01*
X143050000Y-103920000D02*
X142350000Y-103920000D01*
X150840000Y-89985000D02*
X150840000Y-89435000D01*
X150840000Y-89435000D02*
X149140000Y-89435000D01*
X149140000Y-89435000D02*
X149140000Y-89985000D01*
X148240000Y-93085000D02*
X151740000Y-93085000D01*
X151740000Y-89985000D02*
X148240000Y-89985000D01*
X157900000Y-92949300D02*
X157900000Y-91049300D01*
X159000000Y-92949300D02*
X159000000Y-91049300D01*
X158450000Y-92049300D02*
X158450000Y-91599300D01*
X158700000Y-92099300D02*
X158200000Y-92099300D01*
X158450000Y-92099300D02*
X158700000Y-91849300D01*
X158700000Y-91849300D02*
X158200000Y-91849300D01*
X158200000Y-91849300D02*
X158450000Y-92099300D01*
X134400000Y-109675000D02*
X133400000Y-109675000D01*
X133400000Y-111025000D02*
X134400000Y-111025000D01*
X134400000Y-111475000D02*
X133400000Y-111475000D01*
X133400000Y-112825000D02*
X134400000Y-112825000D01*
X154914800Y-93029400D02*
X155914800Y-93029400D01*
X155914800Y-91679400D02*
X154914800Y-91679400D01*
X158624160Y-124650240D02*
X158575900Y-124650240D01*
X155825180Y-123949200D02*
X155825180Y-124650240D01*
X155825180Y-124650240D02*
X156074100Y-124650240D01*
X158624160Y-124650240D02*
X158824820Y-124650240D01*
X158824820Y-124650240D02*
X158824820Y-123949200D01*
X156825000Y-122025000D02*
X157825000Y-122025000D01*
X157825000Y-120675000D02*
X156825000Y-120675000D01*
X162351380Y-96800840D02*
X162351380Y-96849100D01*
X161650340Y-99599820D02*
X162351380Y-99599820D01*
X162351380Y-99599820D02*
X162351380Y-99350900D01*
X162351380Y-96800840D02*
X162351380Y-96600180D01*
X162351380Y-96600180D02*
X161650340Y-96600180D01*
X152625840Y-123349760D02*
X152674100Y-123349760D01*
X155424820Y-124050800D02*
X155424820Y-123349760D01*
X155424820Y-123349760D02*
X155175900Y-123349760D01*
X152625840Y-123349760D02*
X152425180Y-123349760D01*
X152425180Y-123349760D02*
X152425180Y-124050800D01*
X151549160Y-124701000D02*
X151500900Y-124701000D01*
X148750180Y-123999960D02*
X148750180Y-124701000D01*
X148750180Y-124701000D02*
X148999100Y-124701000D01*
X151549160Y-124701000D02*
X151749820Y-124701000D01*
X151749820Y-124701000D02*
X151749820Y-123999960D01*
X136763333Y-119018571D02*
X137096667Y-119018571D01*
X137096667Y-119542381D02*
X137096667Y-118542381D01*
X136620476Y-118542381D01*
X135810952Y-118875714D02*
X135810952Y-119542381D01*
X136049048Y-118494762D02*
X136287143Y-119209048D01*
X135668095Y-119209048D01*
X160808333Y-122678571D02*
X161141667Y-122678571D01*
X161141667Y-123202381D02*
X161141667Y-122202381D01*
X160665476Y-122202381D01*
X159808333Y-122202381D02*
X160284524Y-122202381D01*
X160332143Y-122678571D01*
X160284524Y-122630952D01*
X160189286Y-122583333D01*
X159951190Y-122583333D01*
X159855952Y-122630952D01*
X159808333Y-122678571D01*
X159760714Y-122773810D01*
X159760714Y-123011905D01*
X159808333Y-123107143D01*
X159855952Y-123154762D01*
X159951190Y-123202381D01*
X160189286Y-123202381D01*
X160284524Y-123154762D01*
X160332143Y-123107143D01*
X162473333Y-95238571D02*
X162806667Y-95238571D01*
X162806667Y-95762381D02*
X162806667Y-94762381D01*
X162330476Y-94762381D01*
X161520952Y-94762381D02*
X161711429Y-94762381D01*
X161806667Y-94810000D01*
X161854286Y-94857619D01*
X161949524Y-95000476D01*
X161997143Y-95190952D01*
X161997143Y-95571905D01*
X161949524Y-95667143D01*
X161901905Y-95714762D01*
X161806667Y-95762381D01*
X161616190Y-95762381D01*
X161520952Y-95714762D01*
X161473333Y-95667143D01*
X161425714Y-95571905D01*
X161425714Y-95333810D01*
X161473333Y-95238571D01*
X161520952Y-95190952D01*
X161616190Y-95143333D01*
X161806667Y-95143333D01*
X161901905Y-95190952D01*
X161949524Y-95238571D01*
X161997143Y-95333810D01*
X144952381Y-105843334D02*
X144476190Y-105510000D01*
X144952381Y-105271905D02*
X143952381Y-105271905D01*
X143952381Y-105652858D01*
X144000000Y-105748096D01*
X144047619Y-105795715D01*
X144142857Y-105843334D01*
X144285714Y-105843334D01*
X144380952Y-105795715D01*
X144428571Y-105748096D01*
X144476190Y-105652858D01*
X144476190Y-105271905D01*
X143952381Y-106748096D02*
X143952381Y-106271905D01*
X144428571Y-106224286D01*
X144380952Y-106271905D01*
X144333333Y-106367143D01*
X144333333Y-106605239D01*
X144380952Y-106700477D01*
X144428571Y-106748096D01*
X144523810Y-106795715D01*
X144761905Y-106795715D01*
X144857143Y-106748096D01*
X144904762Y-106700477D01*
X144952381Y-106605239D01*
X144952381Y-106367143D01*
X144904762Y-106271905D01*
X144857143Y-106224286D01*
X143342857Y-103457143D02*
X143390476Y-103504762D01*
X143533333Y-103552381D01*
X143628571Y-103552381D01*
X143771429Y-103504762D01*
X143866667Y-103409524D01*
X143914286Y-103314286D01*
X143961905Y-103123810D01*
X143961905Y-102980952D01*
X143914286Y-102790476D01*
X143866667Y-102695238D01*
X143771429Y-102600000D01*
X143628571Y-102552381D01*
X143533333Y-102552381D01*
X143390476Y-102600000D01*
X143342857Y-102647619D01*
X142390476Y-103552381D02*
X142961905Y-103552381D01*
X142676191Y-103552381D02*
X142676191Y-102552381D01*
X142771429Y-102695238D01*
X142866667Y-102790476D01*
X142961905Y-102838095D01*
X142057143Y-102552381D02*
X141438095Y-102552381D01*
X141771429Y-102933333D01*
X141628571Y-102933333D01*
X141533333Y-102980952D01*
X141485714Y-103028571D01*
X141438095Y-103123810D01*
X141438095Y-103361905D01*
X141485714Y-103457143D01*
X141533333Y-103504762D01*
X141628571Y-103552381D01*
X141914286Y-103552381D01*
X142009524Y-103504762D01*
X142057143Y-103457143D01*
X160402381Y-91111205D02*
X159402381Y-91111205D01*
X159402381Y-91349300D01*
X159450000Y-91492158D01*
X159545238Y-91587396D01*
X159640476Y-91635015D01*
X159830952Y-91682634D01*
X159973810Y-91682634D01*
X160164286Y-91635015D01*
X160259524Y-91587396D01*
X160354762Y-91492158D01*
X160402381Y-91349300D01*
X160402381Y-91111205D01*
X159402381Y-92587396D02*
X159402381Y-92111205D01*
X159878571Y-92063586D01*
X159830952Y-92111205D01*
X159783333Y-92206443D01*
X159783333Y-92444539D01*
X159830952Y-92539777D01*
X159878571Y-92587396D01*
X159973810Y-92635015D01*
X160211905Y-92635015D01*
X160307143Y-92587396D01*
X160354762Y-92539777D01*
X160402381Y-92444539D01*
X160402381Y-92206443D01*
X160354762Y-92111205D01*
X160307143Y-92063586D01*
X134066666Y-109265981D02*
X134400000Y-108789790D01*
X134638095Y-109265981D02*
X134638095Y-108265981D01*
X134257142Y-108265981D01*
X134161904Y-108313600D01*
X134114285Y-108361219D01*
X134066666Y-108456457D01*
X134066666Y-108599314D01*
X134114285Y-108694552D01*
X134161904Y-108742171D01*
X134257142Y-108789790D01*
X134638095Y-108789790D01*
X133209523Y-108599314D02*
X133209523Y-109265981D01*
X133447619Y-108218362D02*
X133685714Y-108932648D01*
X133066666Y-108932648D01*
X134542857Y-114502381D02*
X134876191Y-114026190D01*
X135114286Y-114502381D02*
X135114286Y-113502381D01*
X134733333Y-113502381D01*
X134638095Y-113550000D01*
X134590476Y-113597619D01*
X134542857Y-113692857D01*
X134542857Y-113835714D01*
X134590476Y-113930952D01*
X134638095Y-113978571D01*
X134733333Y-114026190D01*
X135114286Y-114026190D01*
X133590476Y-114502381D02*
X134161905Y-114502381D01*
X133876191Y-114502381D02*
X133876191Y-113502381D01*
X133971429Y-113645238D01*
X134066667Y-113740476D01*
X134161905Y-113788095D01*
X132638095Y-114502381D02*
X133209524Y-114502381D01*
X132923810Y-114502381D02*
X132923810Y-113502381D01*
X133019048Y-113645238D01*
X133114286Y-113740476D01*
X133209524Y-113788095D01*
X158472857Y-94692381D02*
X158806191Y-94216190D01*
X159044286Y-94692381D02*
X159044286Y-93692381D01*
X158663333Y-93692381D01*
X158568095Y-93740000D01*
X158520476Y-93787619D01*
X158472857Y-93882857D01*
X158472857Y-94025714D01*
X158520476Y-94120952D01*
X158568095Y-94168571D01*
X158663333Y-94216190D01*
X159044286Y-94216190D01*
X157520476Y-94692381D02*
X158091905Y-94692381D01*
X157806191Y-94692381D02*
X157806191Y-93692381D01*
X157901429Y-93835238D01*
X157996667Y-93930476D01*
X158091905Y-93978095D01*
X157139524Y-93787619D02*
X157091905Y-93740000D01*
X156996667Y-93692381D01*
X156758571Y-93692381D01*
X156663333Y-93740000D01*
X156615714Y-93787619D01*
X156568095Y-93882857D01*
X156568095Y-93978095D01*
X156615714Y-94120952D01*
X157187143Y-94692381D01*
X156568095Y-94692381D01*
X159197619Y-124629762D02*
X159150000Y-124534524D01*
X159054762Y-124439286D01*
X158911905Y-124296429D01*
X158864286Y-124201190D01*
X158864286Y-124105952D01*
X159102381Y-124153571D02*
X159054762Y-124058333D01*
X158959524Y-123963095D01*
X158769048Y-123915476D01*
X158435714Y-123915476D01*
X158245238Y-123963095D01*
X158150000Y-124058333D01*
X158102381Y-124153571D01*
X158102381Y-124344048D01*
X158150000Y-124439286D01*
X158245238Y-124534524D01*
X158435714Y-124582143D01*
X158769048Y-124582143D01*
X158959524Y-124534524D01*
X159054762Y-124439286D01*
X159102381Y-124344048D01*
X159102381Y-124153571D01*
X159102381Y-125534524D02*
X159102381Y-124963095D01*
X159102381Y-125248809D02*
X158102381Y-125248809D01*
X158245238Y-125153571D01*
X158340476Y-125058333D01*
X158388095Y-124963095D01*
X158641666Y-120427381D02*
X158975000Y-119951190D01*
X159213095Y-120427381D02*
X159213095Y-119427381D01*
X158832142Y-119427381D01*
X158736904Y-119475000D01*
X158689285Y-119522619D01*
X158641666Y-119617857D01*
X158641666Y-119760714D01*
X158689285Y-119855952D01*
X158736904Y-119903571D01*
X158832142Y-119951190D01*
X159213095Y-119951190D01*
X158308333Y-119427381D02*
X157641666Y-119427381D01*
X158070238Y-120427381D01*
X159802381Y-96686905D02*
X158802381Y-96686905D01*
X158802381Y-96925000D01*
X158850000Y-97067858D01*
X158945238Y-97163096D01*
X159040476Y-97210715D01*
X159230952Y-97258334D01*
X159373810Y-97258334D01*
X159564286Y-97210715D01*
X159659524Y-97163096D01*
X159754762Y-97067858D01*
X159802381Y-96925000D01*
X159802381Y-96686905D01*
X159135714Y-98115477D02*
X159802381Y-98115477D01*
X158754762Y-97877381D02*
X159469048Y-97639286D01*
X159469048Y-98258334D01*
X154020238Y-122297619D02*
X154115476Y-122250000D01*
X154210714Y-122154762D01*
X154353571Y-122011905D01*
X154448810Y-121964286D01*
X154544048Y-121964286D01*
X154496429Y-122202381D02*
X154591667Y-122154762D01*
X154686905Y-122059524D01*
X154734524Y-121869048D01*
X154734524Y-121535714D01*
X154686905Y-121345238D01*
X154591667Y-121250000D01*
X154496429Y-121202381D01*
X154305952Y-121202381D01*
X154210714Y-121250000D01*
X154115476Y-121345238D01*
X154067857Y-121535714D01*
X154067857Y-121869048D01*
X154115476Y-122059524D01*
X154210714Y-122154762D01*
X154305952Y-122202381D01*
X154496429Y-122202381D01*
X153210714Y-121535714D02*
X153210714Y-122202381D01*
X153448810Y-121154762D02*
X153686905Y-121869048D01*
X153067857Y-121869048D01*
X149497619Y-124704762D02*
X149450000Y-124609524D01*
X149354762Y-124514286D01*
X149211905Y-124371429D01*
X149164286Y-124276190D01*
X149164286Y-124180952D01*
X149402381Y-124228571D02*
X149354762Y-124133333D01*
X149259524Y-124038095D01*
X149069048Y-123990476D01*
X148735714Y-123990476D01*
X148545238Y-124038095D01*
X148450000Y-124133333D01*
X148402381Y-124228571D01*
X148402381Y-124419048D01*
X148450000Y-124514286D01*
X148545238Y-124609524D01*
X148735714Y-124657143D01*
X149069048Y-124657143D01*
X149259524Y-124609524D01*
X149354762Y-124514286D01*
X149402381Y-124419048D01*
X149402381Y-124228571D01*
X148402381Y-124990476D02*
X148402381Y-125609524D01*
X148783333Y-125276190D01*
X148783333Y-125419048D01*
X148830952Y-125514286D01*
X148878571Y-125561905D01*
X148973810Y-125609524D01*
X149211905Y-125609524D01*
X149307143Y-125561905D01*
X149354762Y-125514286D01*
X149402381Y-125419048D01*
X149402381Y-125133333D01*
X149354762Y-125038095D01*
X149307143Y-124990476D01*
M02*
