M48
INCH,TZ
T1C0.013
T2C0.013
T3C0.040
T4C0.047
T5C0.118
%
G90
G05
T1
X51654Y-40650
X51654Y-42382
X51673Y-44843
X52067Y-42972
X52340Y-46063
X52598Y-40689
X53366Y-44921
X53708Y-44718
X53740Y-39705
X53819Y-41535
X53992Y-44932
X54016Y-39724
X54297Y-44762
X54326Y-42854
X54378Y-39627
X54390Y-38484
X54429Y-38209
X54617Y-45306
X54953Y-45643
X55028Y-41559
X55187Y-45876
X55321Y-39726
X55380Y-43200
X55484Y-40733
X55513Y-45827
X55611Y-39569
X55668Y-38187
X55669Y-44587
X55740Y-43620
X55945Y-45807
X55974Y-39073
X56220Y-43740
X56280Y-38110
X56299Y-45925
X56339Y-44488
X56341Y-44903
X56562Y-45149
X56830Y-42741
X56880Y-43380
X56978Y-41353
X57004Y-40791
X57008Y-42461
X57047Y-36498
X57196Y-41774
X57323Y-40707
X57480Y-42971
X57539Y-36496
X57660Y-43860
X57705Y-45866
X57874Y-48622
X57933Y-43594
X57989Y-41181
X58268Y-42284
X58268Y-45906
X58283Y-44882
X58425Y-40295
X58506Y-39975
X58819Y-48248
X59114Y-36004
X59307Y-44030
X59449Y-40984
X59592Y-44215
X59646Y-43563
X59710Y-41634
X59746Y-41987
X59764Y-44528
X59802Y-39802
X60017Y-43807
X60026Y-47482
X60055Y-45878
X60157Y-42677
X60166Y-43415
X60184Y-48482
X60255Y-41922
X60295Y-39626
X60482Y-47622
X60505Y-41544
X60506Y-48552
X60610Y-36870
X60664Y-44790
X60691Y-47367
X60718Y-43783
X60802Y-48698
X60902Y-45198
X60943Y-35835
X60992Y-47502
X61035Y-43625
X61165Y-43307
X61243Y-47287
X61260Y-48826
X61280Y-35835
X61417Y-41339
X61417Y-41339
X61482Y-43482
X61614Y-35835
X61614Y-42421
X61693Y-47272
X61811Y-41969
X61890Y-42303
X61890Y-42598
X61988Y-36811
X62028Y-38976
X62480Y-38957
X62728Y-48512
X62946Y-49098
X62992Y-43740
X63002Y-48236
X63091Y-47854
X63563Y-47638
X63642Y-38228
X63823Y-39398
X63826Y-43927
X63840Y-43598
X63841Y-44257
T2
X60662Y-39224
X60856Y-44356
X61057Y-45495
X61093Y-44083
X61102Y-40694
X61117Y-44560
X61118Y-45819
X61129Y-40365
X61201Y-39124
X61215Y-41599
X61326Y-44986
X61411Y-44203
X61465Y-45789
X61634Y-43071
X61634Y-42756
X61752Y-45986
X61890Y-42913
X61890Y-43248
X61928Y-45707
X62272Y-45809
X63839Y-42028
X63839Y-42323
X63839Y-42618
X63839Y-43248
X63839Y-42913
X64217Y-39449
X64531Y-39922
X64543Y-39501
T3
X54165Y-48173
X54165Y-49173
X55165Y-48173
X55165Y-49173
X56165Y-48173
X56165Y-49173
X57165Y-48173
X57165Y-49173
T4
X54724Y-36004
X57323Y-36004
T5
X52264Y-36516
X52264Y-48524
X64272Y-36516
X64272Y-48524
T0
M30
