G04 #@! TF.FileFunction,Copper,L4,Bot,Signal*
%FSLAX46Y46*%
G04 Gerber Fmt 4.6, Leading zero omitted, Abs format (unit mm)*
G04 Created by KiCad (PCBNEW 4.0.1-stable) date Sunday, January 31, 2016 'PMt' 10:38:10 PM*
%MOMM*%
G01*
G04 APERTURE LIST*
%ADD10C,0.100000*%
%ADD11R,0.660000X0.230000*%
%ADD12R,0.660000X0.350000*%
%ADD13R,1.727200X1.727200*%
%ADD14O,1.727200X1.727200*%
%ADD15R,0.900000X1.200000*%
%ADD16R,1.200000X0.750000*%
%ADD17R,0.800100X1.800860*%
%ADD18R,1.400000X1.050000*%
%ADD19R,0.797560X0.797560*%
%ADD20R,1.600000X1.400000*%
%ADD21R,0.400000X1.350000*%
%ADD22R,1.900000X1.900000*%
%ADD23C,1.600000*%
%ADD24C,1.524000*%
%ADD25R,1.200000X0.900000*%
%ADD26R,1.800860X0.800100*%
%ADD27C,0.685800*%
%ADD28C,0.685801*%
%ADD29C,0.152400*%
%ADD30C,0.175000*%
%ADD31C,0.254000*%
G04 APERTURE END LIST*
D10*
D11*
X161005000Y-106200000D03*
X158295000Y-106200000D03*
X161005000Y-109800000D03*
X158295000Y-109800000D03*
D12*
X161005000Y-105725000D03*
X158295000Y-105725000D03*
X161005000Y-110275000D03*
X158295000Y-110275000D03*
D11*
X158295000Y-109400000D03*
X161005000Y-109400000D03*
X158295000Y-109000000D03*
X161005000Y-109000000D03*
X158295000Y-108600000D03*
X161005000Y-108600000D03*
X158295000Y-108200000D03*
X161005000Y-108200000D03*
X158295000Y-107800000D03*
X161005000Y-107800000D03*
X158295000Y-107400000D03*
X161005000Y-107400000D03*
X158295000Y-107000000D03*
X161005000Y-107000000D03*
X158295000Y-106600000D03*
X161005000Y-106600000D03*
D13*
X146700000Y-124900000D03*
D14*
X146700000Y-122360000D03*
X144160000Y-124900000D03*
X144160000Y-122360000D03*
X141620000Y-124900000D03*
X141620000Y-122360000D03*
X139080000Y-124900000D03*
X139080000Y-122360000D03*
D15*
X146400000Y-104910000D03*
X146400000Y-107110000D03*
D16*
X141750000Y-104520000D03*
X143650000Y-104520000D03*
D17*
X150330000Y-124060000D03*
X148430000Y-124060000D03*
X149380000Y-121057720D03*
X158780000Y-124042280D03*
X156880000Y-124042280D03*
X157830000Y-121040000D03*
D18*
X151790000Y-92260000D03*
X148190000Y-92260000D03*
X151790000Y-90810000D03*
X148190000Y-90810000D03*
D19*
X158450000Y-91100000D03*
X158450000Y-92598600D03*
D20*
X139100000Y-93900000D03*
X145500000Y-93900000D03*
D21*
X141000000Y-94125000D03*
X141650000Y-94125000D03*
X142300000Y-94125000D03*
X142950000Y-94125000D03*
X143600000Y-94125000D03*
D22*
X141100000Y-91450000D03*
X143500000Y-91450000D03*
D23*
X139000000Y-91450000D03*
X145600000Y-91450000D03*
D24*
X164100000Y-120450000D03*
X164100000Y-118400000D03*
D25*
X132800000Y-110350000D03*
X135000000Y-110350000D03*
X132800000Y-112150000D03*
X135000000Y-112150000D03*
X156514800Y-92354400D03*
X154314800Y-92354400D03*
D26*
X160200000Y-99050000D03*
X160200000Y-97150000D03*
X163202280Y-98100000D03*
D24*
X141732000Y-108813600D03*
X139598400Y-108813600D03*
D27*
X148096331Y-105082274D03*
X151480000Y-122610000D03*
X138060000Y-97440000D03*
X136860000Y-91140000D03*
X130920000Y-96180000D03*
X132252297Y-109155135D03*
X130940000Y-103140000D03*
X149450000Y-117162320D03*
X152740000Y-102460000D03*
X154795302Y-91020880D03*
X156500000Y-91020880D03*
X155650000Y-91020880D03*
X160250000Y-121550000D03*
X144789150Y-103608420D03*
X144900000Y-92704672D03*
X150150000Y-91450000D03*
X132942400Y-117000000D03*
D28*
X155484831Y-105661094D03*
D27*
X145050000Y-104690000D03*
X131030000Y-108710000D03*
X150920000Y-116980000D03*
X138530000Y-96360000D03*
X140450000Y-99330000D03*
X133430000Y-95030000D03*
X157550000Y-97760000D03*
X130890000Y-100610000D03*
X152750000Y-104140000D03*
X159881635Y-124710115D03*
X146150000Y-92700000D03*
X157450000Y-93500000D03*
X153950000Y-93650000D03*
X131250000Y-113900000D03*
X156000058Y-104999926D03*
X156000057Y-104999927D03*
D28*
X162150000Y-109849998D03*
X162150000Y-106750000D03*
X162150000Y-107500006D03*
X162150000Y-108250000D03*
X162150004Y-109000000D03*
D27*
X161650000Y-97100000D03*
X139740000Y-96250000D03*
X144330001Y-96140001D03*
X157200000Y-107450000D03*
X156500000Y-107750000D03*
X157200000Y-108200000D03*
D28*
X157199998Y-109000000D03*
X157199998Y-109850000D03*
X156550004Y-108600000D03*
X156550000Y-109400000D03*
D27*
X144329862Y-108591942D03*
X144770874Y-107879126D03*
X141478264Y-95592105D03*
X137913185Y-113696704D03*
X137138634Y-114127893D03*
X136417894Y-113583603D03*
X135550000Y-114100000D03*
X162110236Y-100071520D03*
X143000000Y-116650000D03*
D28*
X163112236Y-100200276D03*
D27*
X142100000Y-116350000D03*
D28*
X163939920Y-100332709D03*
D27*
X141003006Y-116399407D03*
D28*
X163908480Y-101402757D03*
D27*
X140174437Y-116526186D03*
X154920077Y-120654938D03*
X155600000Y-124017076D03*
X154436651Y-123694153D03*
X154155520Y-120311351D03*
X153686037Y-123321089D03*
X153623186Y-120958823D03*
X152866253Y-123145303D03*
X152466973Y-120604681D03*
X140567692Y-104121520D03*
X158699998Y-98950000D03*
X157620588Y-98912234D03*
X139220000Y-103550000D03*
X156164716Y-110444858D03*
X162152957Y-110738207D03*
X155358534Y-109999543D03*
X162118150Y-111575696D03*
X155028501Y-110807125D03*
X162156514Y-112413029D03*
X154085953Y-113766036D03*
D28*
X155236520Y-113183346D03*
D27*
X154690742Y-114803827D03*
D28*
X155768513Y-114264986D03*
D27*
X153670000Y-107880000D03*
D28*
X155083600Y-115556054D03*
D27*
X152312518Y-107127500D03*
D28*
X155238794Y-116379773D03*
D27*
X152442830Y-111269513D03*
D28*
X156121678Y-116305139D03*
D27*
X151500000Y-110650000D03*
D28*
X156850162Y-116804780D03*
D27*
X138726019Y-115077767D03*
D28*
X157298385Y-116096476D03*
D27*
X139580652Y-115932401D03*
D28*
X158170500Y-116353781D03*
D27*
X137988623Y-108849879D03*
X141400000Y-113250000D03*
X133600000Y-103350000D03*
X151800000Y-113100000D03*
X157070000Y-101080000D03*
X152821279Y-110377285D03*
X143100000Y-113000000D03*
X154224771Y-111209680D03*
D28*
X155983285Y-112276038D03*
D27*
X143667109Y-114677791D03*
X151363221Y-112306208D03*
X143107184Y-114054025D03*
X150639823Y-111836527D03*
D28*
X154991864Y-102801273D03*
D27*
X144475196Y-110185200D03*
X145599819Y-103395312D03*
X144100000Y-105670000D03*
D28*
X155228192Y-103605480D03*
D27*
X142798800Y-111099600D03*
X140353197Y-105264542D03*
X156935875Y-106535875D03*
X152760566Y-108624642D03*
X156984125Y-99925875D03*
X151521564Y-107990621D03*
X156030000Y-99780000D03*
X151166979Y-107220657D03*
X142529659Y-103529659D03*
X160000000Y-111100000D03*
X159330000Y-123220000D03*
X148096331Y-107400121D03*
X160024371Y-122519605D03*
X156700000Y-120071482D03*
X161450000Y-121000000D03*
X155556978Y-120110000D03*
X152540000Y-116530000D03*
X148040000Y-114000000D03*
X148138480Y-102624464D03*
X153175516Y-100164047D03*
X146000000Y-109145302D03*
X149210000Y-122570000D03*
X134587355Y-95360282D03*
X132120000Y-106320000D03*
X132190000Y-96250000D03*
X132250000Y-108210000D03*
X135470000Y-95260000D03*
X134120000Y-101470000D03*
X146456400Y-111404400D03*
X140665200Y-109728000D03*
X141579600Y-110794800D03*
X148380000Y-101620000D03*
X150090000Y-100390000D03*
D29*
X144789150Y-103608420D02*
X145190730Y-104010000D01*
X145190730Y-104010000D02*
X147430000Y-104010000D01*
X147430000Y-104010000D02*
X148096331Y-104676331D01*
X148096331Y-104676331D02*
X148096331Y-105082274D01*
X132595196Y-109498034D02*
X132252297Y-109155135D01*
X132800000Y-109702838D02*
X132595196Y-109498034D01*
X132800000Y-110350000D02*
X132800000Y-109702838D01*
X158450000Y-91100000D02*
X156579120Y-91100000D01*
X156579120Y-91100000D02*
X156500000Y-91020880D01*
X157830000Y-121040000D02*
X159740000Y-121040000D01*
X159740000Y-121040000D02*
X160250000Y-121550000D01*
X132800000Y-110350000D02*
X132800000Y-112150000D01*
X146400000Y-104910000D02*
X145270000Y-104910000D01*
X145270000Y-104910000D02*
X145050000Y-104690000D01*
X143650000Y-104520000D02*
X144880000Y-104520000D01*
X144880000Y-104520000D02*
X145050000Y-104690000D01*
D30*
X161005000Y-106200000D02*
X161780000Y-106200000D01*
X161780000Y-106200000D02*
X161810000Y-106230000D01*
X161810000Y-106230000D02*
X161810000Y-106410000D01*
X161810000Y-106410000D02*
X162150000Y-106750000D01*
X161005000Y-105800000D02*
X161850000Y-105800000D01*
X161850000Y-105800000D02*
X162150000Y-106100000D01*
X162150000Y-106100000D02*
X162150000Y-106750000D01*
D29*
X153950000Y-93650000D02*
X153950000Y-92719200D01*
X153950000Y-92719200D02*
X154314800Y-92354400D01*
X148430000Y-124060000D02*
X147877550Y-124060000D01*
X147877550Y-124060000D02*
X147037550Y-124900000D01*
X147037550Y-124900000D02*
X146216000Y-124900000D01*
X146216000Y-124900000D02*
X145200000Y-124900000D01*
X143500000Y-91450000D02*
X145600000Y-91450000D01*
X141100000Y-91450000D02*
X142202400Y-91450000D01*
X142202400Y-91450000D02*
X143500000Y-91450000D01*
X139000000Y-91450000D02*
X141100000Y-91450000D01*
X145500000Y-93047600D02*
X145847600Y-92700000D01*
X145847600Y-92700000D02*
X146150000Y-92700000D01*
X145500000Y-93900000D02*
X145500000Y-93047600D01*
X143600000Y-94125000D02*
X145275000Y-94125000D01*
X145275000Y-94125000D02*
X145500000Y-93900000D01*
X151790000Y-92260000D02*
X148190000Y-92260000D01*
X153950000Y-93650000D02*
X152560000Y-92260000D01*
X152560000Y-92260000D02*
X151790000Y-92260000D01*
X161005000Y-110200000D02*
X161799998Y-110200000D01*
X161799998Y-110200000D02*
X162150000Y-109849998D01*
D30*
X161807101Y-109792899D02*
X162092901Y-109792899D01*
X161005000Y-109800000D02*
X161800000Y-109800000D01*
X161800000Y-109800000D02*
X161807101Y-109792899D01*
X162092901Y-109792899D02*
X162150000Y-109849998D01*
X161005000Y-106600000D02*
X162000000Y-106600000D01*
X162000000Y-106600000D02*
X162150000Y-106750000D01*
X161005000Y-107000000D02*
X161900000Y-107000000D01*
X161900000Y-107000000D02*
X162150000Y-106750000D01*
X161005000Y-107400000D02*
X162049994Y-107400000D01*
X162049994Y-107400000D02*
X162150000Y-107500006D01*
X161005000Y-107800000D02*
X161850006Y-107800000D01*
X161850006Y-107800000D02*
X162150000Y-107500006D01*
X161005000Y-108200000D02*
X162100000Y-108200000D01*
X162100000Y-108200000D02*
X162150000Y-108250000D01*
X161005000Y-108600000D02*
X161800000Y-108600000D01*
X161800000Y-108600000D02*
X162150000Y-108250000D01*
X161005000Y-109000000D02*
X162150004Y-109000000D01*
X161005000Y-109400000D02*
X161750004Y-109400000D01*
X161750004Y-109400000D02*
X162150004Y-109000000D01*
D29*
X162150004Y-108515067D02*
X162150004Y-109000000D01*
X162150004Y-107583804D02*
X162150004Y-108515067D01*
X148430000Y-124060000D02*
X148430000Y-123559620D01*
D31*
X161650000Y-97100000D02*
X162202280Y-97100000D01*
X162202280Y-97100000D02*
X163202280Y-98100000D01*
X139740000Y-95860000D02*
X139740000Y-96250000D01*
X141000000Y-94600000D02*
X139740000Y-95860000D01*
X141000000Y-94125000D02*
X141000000Y-94600000D01*
X159148861Y-96140001D02*
X144814934Y-96140001D01*
X160178860Y-97170000D02*
X159148861Y-96140001D01*
X144814934Y-96140001D02*
X144330001Y-96140001D01*
D29*
X158295000Y-110200000D02*
X159350000Y-110200000D01*
D31*
X159600000Y-109400000D02*
X159600000Y-109810000D01*
X159600000Y-109810000D02*
X159600000Y-109950000D01*
D29*
X158295000Y-109800000D02*
X159590000Y-109800000D01*
X159590000Y-109800000D02*
X159600000Y-109810000D01*
X158295000Y-109400000D02*
X159600000Y-109400000D01*
X158295000Y-109000000D02*
X159600000Y-109000000D01*
X158295000Y-108600000D02*
X159600000Y-108600000D01*
X158295000Y-108200000D02*
X159600000Y-108200000D01*
X158295000Y-107800000D02*
X159600000Y-107800000D01*
X158295000Y-107400000D02*
X159550000Y-107400000D01*
X158295000Y-107000000D02*
X159600000Y-107000000D01*
X158295000Y-106600000D02*
X159600000Y-106600000D01*
X158295000Y-106600000D02*
X157680000Y-106600000D01*
X157680000Y-106600000D02*
X157200000Y-107080000D01*
X157200000Y-107080000D02*
X157200000Y-107450000D01*
D31*
X160200000Y-99050000D02*
X159950000Y-99050000D01*
X159950000Y-99050000D02*
X159600000Y-99400000D01*
D29*
X156550004Y-108600000D02*
X156799998Y-108600000D01*
X156799998Y-108600000D02*
X157199998Y-109000000D01*
X157200000Y-108200000D02*
X157200000Y-107450000D01*
X157199998Y-109850000D02*
X157199998Y-109000000D01*
X158295000Y-107800000D02*
X157550000Y-107800000D01*
X157550000Y-107800000D02*
X157200000Y-107450000D01*
X158295000Y-107000000D02*
X157650000Y-107000000D01*
X157650000Y-107000000D02*
X157200000Y-107450000D01*
X158295000Y-107400000D02*
X157250000Y-107400000D01*
X157250000Y-107400000D02*
X157200000Y-107450000D01*
X158295000Y-108200000D02*
X157200000Y-108200000D01*
D31*
X159600000Y-106600000D02*
X159600000Y-99400000D01*
D29*
X157034937Y-108600000D02*
X156550004Y-108600000D01*
X158295000Y-108200000D02*
X157812600Y-108200000D01*
X157812600Y-108200000D02*
X157412600Y-108600000D01*
X157412600Y-108600000D02*
X157034937Y-108600000D01*
D31*
X159350000Y-110200000D02*
X159600000Y-109950000D01*
X159600000Y-109000000D02*
X159600000Y-109400000D01*
X159600000Y-108600000D02*
X159600000Y-109000000D01*
X159600000Y-108200000D02*
X159600000Y-108600000D01*
X159600000Y-107800000D02*
X159600000Y-108200000D01*
D29*
X158295000Y-109400000D02*
X157649998Y-109400000D01*
X157649998Y-109400000D02*
X157199998Y-109850000D01*
X157599998Y-108600000D02*
X157542897Y-108657101D01*
X158295000Y-108600000D02*
X157599998Y-108600000D01*
X158295000Y-109400000D02*
X157599998Y-109400000D01*
X157542897Y-108657101D02*
X157199998Y-109000000D01*
X157599998Y-109400000D02*
X157542897Y-109342899D01*
X157542897Y-109342899D02*
X157199998Y-109000000D01*
X158295000Y-109800000D02*
X157249998Y-109800000D01*
X157249998Y-109800000D02*
X157199998Y-109850000D01*
X158295000Y-109000000D02*
X156950000Y-109000000D01*
X156950000Y-109000000D02*
X156550000Y-109400000D01*
D31*
X159600000Y-107450000D02*
X159600000Y-107800000D01*
X159600000Y-106600000D02*
X159600000Y-107000000D01*
X159600000Y-107000000D02*
X159600000Y-107450000D01*
D30*
X159550000Y-107400000D02*
X159600000Y-107450000D01*
D29*
X143986963Y-108249043D02*
X144329862Y-108591942D01*
X141650000Y-94125000D02*
X141650000Y-94761482D01*
X138038876Y-104227110D02*
X141272833Y-107461067D01*
X140904067Y-96013799D02*
X138038876Y-98878990D01*
X140904067Y-95301858D02*
X140904067Y-96013799D01*
X141177324Y-95028601D02*
X140904067Y-95301858D01*
X141650000Y-94761482D02*
X141382881Y-95028601D01*
X141272833Y-107461067D02*
X143198987Y-107461067D01*
X141382881Y-95028601D02*
X141177324Y-95028601D01*
X138038876Y-98878990D02*
X138038876Y-104227110D01*
X143198987Y-107461067D02*
X143986963Y-108249043D01*
X138343687Y-104072354D02*
X140107376Y-105836043D01*
X142727791Y-105836043D02*
X144427975Y-107536227D01*
X138343687Y-99005246D02*
X138343687Y-104072354D01*
X141478264Y-95870669D02*
X138343687Y-99005246D01*
X141478264Y-95592105D02*
X141478264Y-95870669D01*
X144427975Y-107536227D02*
X144770874Y-107879126D01*
X140107376Y-105836043D02*
X142727791Y-105836043D01*
X142300000Y-94952400D02*
X141660295Y-95592105D01*
X142300000Y-94125000D02*
X142300000Y-94952400D01*
X141660295Y-95592105D02*
X141478264Y-95592105D01*
X137913185Y-113696704D02*
X137913185Y-115083185D01*
X137913185Y-115083185D02*
X143470000Y-120640000D01*
X143470000Y-120640000D02*
X144980000Y-120640000D01*
X144980000Y-120640000D02*
X146700000Y-122360000D01*
X137138634Y-114127893D02*
X137138634Y-114807567D01*
X137138634Y-114807567D02*
X142660000Y-120328933D01*
X142660000Y-120328933D02*
X142660000Y-120860000D01*
X142660000Y-120860000D02*
X144160000Y-122360000D01*
X136417894Y-113583603D02*
X136417894Y-114517894D01*
X136417894Y-114517894D02*
X140120000Y-118220000D01*
X140120000Y-118220000D02*
X140120000Y-120860000D01*
X140120000Y-120860000D02*
X141620000Y-122360000D01*
X135550000Y-114100000D02*
X137580000Y-116130000D01*
X137580000Y-116130000D02*
X137580000Y-120860000D01*
X137580000Y-120860000D02*
X139080000Y-122360000D01*
X143000000Y-116650000D02*
X144600000Y-118250000D01*
X163200000Y-102402235D02*
X162110236Y-101312471D01*
X163200000Y-113575736D02*
X163200000Y-102402235D01*
X162110236Y-100556453D02*
X162110236Y-100071520D01*
X162110236Y-101312471D02*
X162110236Y-100556453D01*
X158432293Y-118343443D02*
X163200000Y-113575736D01*
X148753765Y-118343443D02*
X158432293Y-118343443D01*
X148660322Y-118250000D02*
X148753765Y-118343443D01*
X144600000Y-118250000D02*
X148660322Y-118250000D01*
X162769337Y-101540506D02*
X162769337Y-100543175D01*
X142100000Y-116350000D02*
X142100000Y-116834933D01*
X163504811Y-102275979D02*
X162769337Y-101540506D01*
X148534067Y-118554811D02*
X148627510Y-118648254D01*
X158558549Y-118648254D02*
X163504811Y-113701992D01*
X162769337Y-100543175D02*
X163112236Y-100200276D01*
X148627510Y-118648254D02*
X158558549Y-118648254D01*
X143819878Y-118554811D02*
X148534067Y-118554811D01*
X163504811Y-113701992D02*
X163504811Y-102275979D01*
X142100000Y-116834933D02*
X143819878Y-118554811D01*
X141003006Y-116399407D02*
X143556664Y-118953065D01*
X163597021Y-100675608D02*
X163939920Y-100332709D01*
X158684805Y-118953065D02*
X163809622Y-113828248D01*
X163336978Y-100935651D02*
X163597021Y-100675608D01*
X143556664Y-118953065D02*
X158684805Y-118953065D01*
X163336978Y-101677079D02*
X163336978Y-100935651D01*
X163809622Y-113828248D02*
X163809622Y-102149723D01*
X163809622Y-102149723D02*
X163336978Y-101677079D01*
X164251379Y-101745656D02*
X163908480Y-101402757D01*
X158811058Y-119257876D02*
X164251379Y-113817555D01*
X142906127Y-119257876D02*
X158811058Y-119257876D01*
X164251379Y-113817555D02*
X164251379Y-101745656D01*
X140174437Y-116526186D02*
X142906127Y-119257876D01*
X155600000Y-124017076D02*
X154920077Y-123337153D01*
X154920077Y-121139871D02*
X154920077Y-120654938D01*
X154920077Y-123337153D02*
X154920077Y-121139871D01*
X154436651Y-121002222D02*
X154436651Y-123209220D01*
X154155520Y-120721091D02*
X154436651Y-121002222D01*
X154155520Y-120311351D02*
X154155520Y-120721091D01*
X154436651Y-123209220D02*
X154436651Y-123694153D01*
X153623186Y-123258238D02*
X153686037Y-123321089D01*
X153623186Y-120958823D02*
X153623186Y-123258238D01*
X152466973Y-122746023D02*
X152523354Y-122802404D01*
X152523354Y-122802404D02*
X152866253Y-123145303D01*
X152466973Y-120604681D02*
X152466973Y-122746023D01*
X158699998Y-98950000D02*
X158078497Y-99571501D01*
X157475573Y-99571501D02*
X157258446Y-99354374D01*
X157258446Y-99354374D02*
X156709804Y-99354374D01*
X140834401Y-103854811D02*
X140567692Y-104121520D01*
X146651066Y-98600000D02*
X141396256Y-103854811D01*
X158078497Y-99571501D02*
X157475573Y-99571501D01*
X155955430Y-98600000D02*
X146651066Y-98600000D01*
X141396256Y-103854811D02*
X140834401Y-103854811D01*
X156709804Y-99354374D02*
X155955430Y-98600000D01*
X139220000Y-103550000D02*
X141270000Y-103550000D01*
X157277689Y-98569335D02*
X157620588Y-98912234D01*
X141270000Y-103550000D02*
X146626915Y-98193085D01*
X146626915Y-98193085D02*
X156901439Y-98193085D01*
X156901439Y-98193085D02*
X157277689Y-98569335D01*
X156942998Y-110738207D02*
X156649649Y-110444858D01*
X162152957Y-110738207D02*
X161207617Y-110738207D01*
X159725678Y-111671502D02*
X158792383Y-110738207D01*
X160274322Y-111671502D02*
X159725678Y-111671502D01*
X158792383Y-110738207D02*
X156942998Y-110738207D01*
X161207617Y-110738207D02*
X160274322Y-111671502D01*
X156649649Y-110444858D02*
X156164716Y-110444858D01*
X155600003Y-110532803D02*
X155358534Y-110291334D01*
X155600003Y-110726174D02*
X155600003Y-110532803D01*
X155358534Y-110291334D02*
X155358534Y-109999543D01*
X155985411Y-111016387D02*
X155890216Y-111016387D01*
X155890216Y-111016387D02*
X155600003Y-110726174D01*
X156544720Y-111575696D02*
X155985411Y-111016387D01*
X159198805Y-111575696D02*
X156544720Y-111575696D01*
X162118150Y-111575696D02*
X161717533Y-111976313D01*
X161717533Y-111976313D02*
X159599422Y-111976313D01*
X159599422Y-111976313D02*
X159198805Y-111575696D01*
X162156514Y-112413029D02*
X156950540Y-112413029D01*
X155249887Y-110807125D02*
X155028501Y-110807125D01*
X155858709Y-111321198D02*
X155763960Y-111321198D01*
X156950540Y-112413029D02*
X155858709Y-111321198D01*
X155763960Y-111321198D02*
X155249887Y-110807125D01*
X154570886Y-113766036D02*
X154085953Y-113766036D01*
X155236520Y-113183346D02*
X154653830Y-113766036D01*
X154653830Y-113766036D02*
X154570886Y-113766036D01*
X155229672Y-114803827D02*
X155175675Y-114803827D01*
X155768513Y-114264986D02*
X155229672Y-114803827D01*
X155175675Y-114803827D02*
X154690742Y-114803827D01*
X154012899Y-110447554D02*
X154012899Y-108222899D01*
X155083600Y-115556054D02*
X154598667Y-115556054D01*
X154598667Y-115556054D02*
X153514433Y-114471820D01*
X153514433Y-114471820D02*
X153514433Y-110946020D01*
X153514433Y-110946020D02*
X154012899Y-110447554D01*
X154012899Y-108222899D02*
X153670000Y-107880000D01*
X153209622Y-110819765D02*
X153392781Y-110636606D01*
X153209622Y-114835534D02*
X153209622Y-110819765D01*
X154753861Y-116379773D02*
X153209622Y-114835534D01*
X153392781Y-110636606D02*
X153392781Y-108438603D01*
X152655417Y-107701239D02*
X152655417Y-107470399D01*
X152655417Y-107470399D02*
X152312518Y-107127500D01*
X153392781Y-108438603D02*
X152655417Y-107701239D01*
X155238794Y-116379773D02*
X154753861Y-116379773D01*
X152904811Y-115088086D02*
X152904811Y-111731494D01*
X152785729Y-111612412D02*
X152442830Y-111269513D01*
X156121678Y-116305139D02*
X155446060Y-116980756D01*
X154797481Y-116980756D02*
X152904811Y-115088086D01*
X155446060Y-116980756D02*
X154797481Y-116980756D01*
X152904811Y-111731494D02*
X152785729Y-111612412D01*
X155987074Y-117285567D02*
X156659011Y-116613630D01*
X152600001Y-112234934D02*
X152600002Y-115214343D01*
X151500000Y-111134933D02*
X152600001Y-112234934D01*
X154671226Y-117285567D02*
X155987074Y-117285567D01*
X151500000Y-110650000D02*
X151500000Y-111134933D01*
X152600002Y-115214343D02*
X154671226Y-117285567D01*
X156850162Y-116804780D02*
X156850162Y-116800162D01*
X156850162Y-116800162D02*
X156661321Y-116611321D01*
X148512835Y-117240378D02*
X145571399Y-117240378D01*
X143790378Y-116040378D02*
X142827767Y-115077767D01*
X157598999Y-116397090D02*
X157598999Y-117449937D01*
X149006278Y-117733821D02*
X148512835Y-117240378D01*
X144371399Y-116040378D02*
X143790378Y-116040378D01*
X139210952Y-115077767D02*
X138726019Y-115077767D01*
X145571399Y-117240378D02*
X144371399Y-116040378D01*
X157315115Y-117733821D02*
X149006278Y-117733821D01*
X157598999Y-117449937D02*
X157315115Y-117733821D01*
X157298385Y-116096476D02*
X157598999Y-116397090D01*
X142827767Y-115077767D02*
X139210952Y-115077767D01*
X157441370Y-118038632D02*
X148880022Y-118038632D01*
X143576256Y-116345189D02*
X142820569Y-115589502D01*
X145377640Y-117545189D02*
X144177640Y-116345189D01*
X148880022Y-118038632D02*
X148386579Y-117545189D01*
X158170500Y-116353781D02*
X158170500Y-117309502D01*
X144177640Y-116345189D02*
X143576256Y-116345189D01*
X148386579Y-117545189D02*
X145377640Y-117545189D01*
X142820569Y-115589502D02*
X139923551Y-115589502D01*
X139923551Y-115589502D02*
X139580652Y-115932401D01*
X158170500Y-117309502D02*
X157441370Y-118038632D01*
X137645724Y-108506980D02*
X137988623Y-108849879D01*
X133600000Y-104461256D02*
X137645724Y-108506980D01*
X133600000Y-103350000D02*
X133600000Y-104461256D01*
X141981067Y-113800000D02*
X141950000Y-113800000D01*
X141950000Y-113800000D02*
X141400000Y-113250000D01*
X144371399Y-114992119D02*
X143968329Y-115395189D01*
X143968329Y-115395189D02*
X143576256Y-115395189D01*
X143576256Y-115395189D02*
X141981067Y-113800000D01*
X146263518Y-113100000D02*
X144371399Y-114992119D01*
X151800000Y-113100000D02*
X146263518Y-113100000D01*
X144371399Y-114992119D02*
X144357881Y-114992119D01*
X157040000Y-105190000D02*
X157040000Y-101110000D01*
X157040000Y-101110000D02*
X157070000Y-101080000D01*
X154600000Y-107630000D02*
X157040000Y-105190000D01*
X154600000Y-110349518D02*
X154600000Y-107630000D01*
X154224771Y-111209680D02*
X154224771Y-110724747D01*
X154224771Y-110724747D02*
X154600000Y-110349518D01*
X147374099Y-111975901D02*
X149315614Y-110034386D01*
X144124099Y-111975901D02*
X147374099Y-111975901D01*
X143100000Y-113000000D02*
X144124099Y-111975901D01*
X149315614Y-110034386D02*
X152478380Y-110034386D01*
X152478380Y-110034386D02*
X152821279Y-110377285D01*
X154393736Y-111378645D02*
X154224771Y-111209680D01*
X155983285Y-111971589D02*
X155390341Y-111378645D01*
X155390341Y-111378645D02*
X154393736Y-111378645D01*
X155983285Y-112276038D02*
X155983285Y-111971589D01*
X144010008Y-114334892D02*
X143667109Y-114677791D01*
X151363221Y-112306208D02*
X151020322Y-112649107D01*
X145695793Y-112649107D02*
X144010008Y-114334892D01*
X151020322Y-112649107D02*
X145695793Y-112649107D01*
X150195638Y-112280712D02*
X144880497Y-112280712D01*
X144880497Y-112280712D02*
X143450083Y-113711126D01*
X143450083Y-113711126D02*
X143107184Y-114054025D01*
X150639823Y-111836527D02*
X150195638Y-112280712D01*
X148934620Y-103144172D02*
X154648965Y-103144172D01*
X154648965Y-103144172D02*
X154991864Y-102801273D01*
X145599819Y-103395312D02*
X148683480Y-103395312D01*
X148683480Y-103395312D02*
X148934620Y-103144172D01*
X143990263Y-110185200D02*
X144475196Y-110185200D01*
X136310000Y-110400000D02*
X141128576Y-110400000D01*
X135000000Y-110350000D02*
X136260000Y-110350000D01*
X141343376Y-110185200D02*
X143990263Y-110185200D01*
X141128576Y-110400000D02*
X141343376Y-110185200D01*
X136260000Y-110350000D02*
X136310000Y-110400000D01*
X148667833Y-105166596D02*
X148667833Y-105356596D01*
X144442899Y-106012899D02*
X144100000Y-105670000D01*
X148011530Y-106012899D02*
X144442899Y-106012899D01*
X150354242Y-103480187D02*
X148667833Y-105166596D01*
X155228192Y-103605480D02*
X154743259Y-103605480D01*
X154743259Y-103605480D02*
X154617966Y-103480187D01*
X154617966Y-103480187D02*
X150354242Y-103480187D01*
X148667833Y-105356596D02*
X148011530Y-106012899D01*
X142455901Y-111442499D02*
X142798800Y-111099600D01*
X141748400Y-112150000D02*
X142455901Y-111442499D01*
X135000000Y-112150000D02*
X141748400Y-112150000D01*
X140838130Y-105264542D02*
X140353197Y-105264542D01*
X143911502Y-106211502D02*
X143785678Y-106211502D01*
X146324642Y-108624642D02*
X143911502Y-106211502D01*
X143785678Y-106211502D02*
X142838718Y-105264542D01*
X152760566Y-108624642D02*
X146324642Y-108624642D01*
X142838718Y-105264542D02*
X140838130Y-105264542D01*
X158295000Y-105800000D02*
X157540000Y-105800000D01*
X157540000Y-105800000D02*
X157400000Y-105940000D01*
X157400000Y-105940000D02*
X157400000Y-106200000D01*
X157278774Y-106192976D02*
X156935875Y-106535875D01*
X157392976Y-106192976D02*
X157278774Y-106192976D01*
X157400000Y-106200000D02*
X157392976Y-106192976D01*
X158295000Y-106200000D02*
X157400000Y-106200000D01*
X156641226Y-100268774D02*
X156984125Y-99925875D01*
X155628770Y-104481793D02*
X156498498Y-103612065D01*
X151738499Y-107773686D02*
X151738499Y-106514225D01*
X151521564Y-107990621D02*
X151738499Y-107773686D01*
X156498498Y-103612065D02*
X156498498Y-100411502D01*
X151738499Y-106514225D02*
X153770931Y-104481793D01*
X153770931Y-104481793D02*
X155628770Y-104481793D01*
X156498498Y-100411502D02*
X156641226Y-100268774D01*
X151166979Y-106735724D02*
X151166979Y-107220657D01*
X155502514Y-104176982D02*
X153639041Y-104176982D01*
X156030000Y-99780000D02*
X156030000Y-103649496D01*
X151166979Y-106649044D02*
X151166979Y-106735724D01*
X153639041Y-104176982D02*
X151166979Y-106649044D01*
X156030000Y-103649496D02*
X155502514Y-104176982D01*
X141750000Y-104520000D02*
X141750000Y-104309318D01*
X141750000Y-104309318D02*
X142529659Y-103529659D01*
X139517198Y-104693022D02*
X140824578Y-104693022D01*
X140824578Y-104693022D02*
X140997600Y-104520000D01*
X140997600Y-104520000D02*
X141750000Y-104520000D01*
X141794319Y-104334998D02*
X141794319Y-104264999D01*
X138648498Y-103824322D02*
X139517198Y-104693022D01*
X145734321Y-95548499D02*
X142311501Y-95548499D01*
X142049766Y-95810234D02*
X142049766Y-95866427D01*
X141750000Y-104520000D02*
X141750000Y-104379317D01*
X148190000Y-90810000D02*
X148015000Y-90810000D01*
X142049766Y-95866427D02*
X141752586Y-96163607D01*
X148015000Y-90810000D02*
X146721502Y-92103498D01*
X138648498Y-99211502D02*
X138648498Y-103824322D01*
X146721502Y-94561318D02*
X145734321Y-95548499D01*
X146721502Y-92103498D02*
X146721502Y-94561318D01*
X141750000Y-104379317D02*
X141794319Y-104334998D01*
X141752586Y-96163607D02*
X141696393Y-96163607D01*
X141696393Y-96163607D02*
X138648498Y-99211502D01*
X142311501Y-95548499D02*
X142049766Y-95810234D01*
X164650000Y-99500000D02*
X164650000Y-97800000D01*
X164650000Y-97800000D02*
X161150000Y-94300000D01*
X161150000Y-94300000D02*
X161150000Y-92850000D01*
X161150000Y-92850000D02*
X160197200Y-91897200D01*
X160197200Y-91897200D02*
X157734000Y-91897200D01*
X157734000Y-91897200D02*
X157429200Y-91592400D01*
X157429200Y-91592400D02*
X153424800Y-91592400D01*
X153424800Y-91592400D02*
X152642400Y-90810000D01*
X152642400Y-90810000D02*
X151790000Y-90810000D01*
X160871502Y-122878498D02*
X160871502Y-117728498D01*
X160871502Y-117728498D02*
X164650000Y-113950000D01*
X164650000Y-113950000D02*
X164650000Y-99500000D01*
X160650000Y-123100000D02*
X160871502Y-122878498D01*
X160650000Y-124750000D02*
X160650000Y-123100000D01*
X164100000Y-120450000D02*
X163022370Y-120450000D01*
X163022370Y-120450000D02*
X160650000Y-122822370D01*
X160650000Y-122822370D02*
X160650000Y-123100000D01*
X161550000Y-99500000D02*
X160000000Y-101050000D01*
X160000000Y-101050000D02*
X160000000Y-111100000D01*
X164650000Y-99500000D02*
X161550000Y-99500000D01*
X160100000Y-125300000D02*
X160650000Y-124750000D01*
X152122450Y-125300000D02*
X160100000Y-125300000D01*
X150330000Y-124060000D02*
X150882450Y-124060000D01*
X150882450Y-124060000D02*
X152122450Y-125300000D01*
X151790000Y-90810000D02*
X148190000Y-90810000D01*
X159330000Y-123220000D02*
X159330000Y-123492280D01*
X159330000Y-123492280D02*
X158780000Y-124042280D01*
X146400000Y-107110000D02*
X147806210Y-107110000D01*
X147806210Y-107110000D02*
X148096331Y-107400121D01*
X159539438Y-122519605D02*
X160024371Y-122519605D01*
X156880000Y-124042280D02*
X156880000Y-123541900D01*
X156880000Y-123541900D02*
X157902295Y-122519605D01*
X157902295Y-122519605D02*
X159539438Y-122519605D01*
X156880000Y-124042280D02*
X156880000Y-120251482D01*
X156661482Y-120110000D02*
X156700000Y-120071482D01*
X155556978Y-120110000D02*
X156661482Y-120110000D01*
X156880000Y-120251482D02*
X156700000Y-120071482D01*
X161450000Y-121000000D02*
X164050000Y-118400000D01*
X164050000Y-118400000D02*
X164100000Y-118400000D01*
X148040000Y-114000000D02*
X149750000Y-114000000D01*
X149750000Y-114000000D02*
X152280000Y-116530000D01*
X152280000Y-116530000D02*
X152540000Y-116530000D01*
X158450000Y-92598600D02*
X156759000Y-92598600D01*
X156759000Y-92598600D02*
X156514800Y-92354400D01*
X142406601Y-109488201D02*
X141732000Y-108813600D01*
X146000000Y-109145302D02*
X145657101Y-109488201D01*
X145657101Y-109488201D02*
X142406601Y-109488201D01*
X148623413Y-102624464D02*
X148138480Y-102624464D01*
X153175516Y-100164047D02*
X150715099Y-102624464D01*
X150715099Y-102624464D02*
X148623413Y-102624464D01*
X149380000Y-122400000D02*
X149210000Y-122570000D01*
X149380000Y-121057720D02*
X149380000Y-122400000D01*
X149380000Y-121057720D02*
X149242280Y-121057720D01*
X132120000Y-106320000D02*
X132120000Y-97460000D01*
X132120000Y-97460000D02*
X133876819Y-95703181D01*
X133876819Y-95703181D02*
X134244456Y-95703181D01*
X134244456Y-95703181D02*
X134587355Y-95360282D01*
X131548499Y-96891501D02*
X131847101Y-96592899D01*
X131548499Y-107508499D02*
X131548499Y-96891501D01*
X132250000Y-108210000D02*
X131548499Y-107508499D01*
X131847101Y-96592899D02*
X132190000Y-96250000D01*
X136310000Y-100340000D02*
X136310000Y-96100000D01*
X136310000Y-96100000D02*
X135470000Y-95260000D01*
X135522899Y-101127101D02*
X136310000Y-100340000D01*
X134120000Y-101470000D02*
X134462899Y-101127101D01*
X134462899Y-101127101D02*
X135522899Y-101127101D01*
X146456400Y-111404400D02*
X143949424Y-111404400D01*
X142064533Y-110794800D02*
X141579600Y-110794800D01*
X143949424Y-111404400D02*
X143073122Y-110528098D01*
X143073122Y-110528098D02*
X142331235Y-110528098D01*
X142331235Y-110528098D02*
X142064533Y-110794800D01*
X140665200Y-109728000D02*
X140512800Y-109728000D01*
X140512800Y-109728000D02*
X139598400Y-108813600D01*
X150090000Y-100390000D02*
X148860000Y-101620000D01*
X148860000Y-101620000D02*
X148380000Y-101620000D01*
D31*
G36*
X130770003Y-103990752D02*
X130964299Y-103990921D01*
X130964299Y-107508499D01*
X131008769Y-107732063D01*
X131109452Y-107882746D01*
X131135407Y-107921591D01*
X131399121Y-108185305D01*
X131398953Y-108378512D01*
X131525882Y-108685703D01*
X131401545Y-108985138D01*
X131401250Y-109323647D01*
X131530519Y-109636501D01*
X131700854Y-109807134D01*
X131682048Y-109900000D01*
X131682048Y-110800000D01*
X131717470Y-110988253D01*
X131828728Y-111161153D01*
X131959940Y-111250807D01*
X131838847Y-111328728D01*
X131722855Y-111498488D01*
X131682048Y-111700000D01*
X131682048Y-112600000D01*
X131717470Y-112788253D01*
X131828728Y-112961153D01*
X131998488Y-113077145D01*
X132200000Y-113117952D01*
X133400000Y-113117952D01*
X133588253Y-113082530D01*
X133761153Y-112971272D01*
X133877145Y-112801512D01*
X133899341Y-112691905D01*
X133917470Y-112788253D01*
X134028728Y-112961153D01*
X134198488Y-113077145D01*
X134400000Y-113117952D01*
X135600000Y-113117952D01*
X135698524Y-113099414D01*
X135696957Y-113100978D01*
X135635420Y-113249174D01*
X135381488Y-113248953D01*
X135068634Y-113378222D01*
X134829063Y-113617375D01*
X134699248Y-113930003D01*
X134698953Y-114268512D01*
X134828222Y-114581366D01*
X135067375Y-114820937D01*
X135380003Y-114950752D01*
X135574738Y-114950922D01*
X136995800Y-116371983D01*
X136995800Y-120860000D01*
X137040270Y-121083564D01*
X137098250Y-121170337D01*
X137166908Y-121273092D01*
X137794432Y-121900616D01*
X137708400Y-122333129D01*
X137708400Y-122386871D01*
X137812807Y-122911760D01*
X138110132Y-123356739D01*
X138425466Y-123567438D01*
X138305053Y-123617312D01*
X137873179Y-124011510D01*
X137625032Y-124540973D01*
X137745531Y-124773000D01*
X138953000Y-124773000D01*
X138953000Y-124753000D01*
X139207000Y-124753000D01*
X139207000Y-124773000D01*
X141493000Y-124773000D01*
X141493000Y-124753000D01*
X141747000Y-124753000D01*
X141747000Y-124773000D01*
X144033000Y-124773000D01*
X144033000Y-124753000D01*
X144287000Y-124753000D01*
X144287000Y-124773000D01*
X146573000Y-124773000D01*
X146573000Y-124753000D01*
X146827000Y-124753000D01*
X146827000Y-124773000D01*
X146847000Y-124773000D01*
X146847000Y-125027000D01*
X146827000Y-125027000D01*
X146827000Y-125047000D01*
X146573000Y-125047000D01*
X146573000Y-125027000D01*
X144287000Y-125027000D01*
X144287000Y-125047000D01*
X144033000Y-125047000D01*
X144033000Y-125027000D01*
X141747000Y-125027000D01*
X141747000Y-125047000D01*
X141493000Y-125047000D01*
X141493000Y-125027000D01*
X139207000Y-125027000D01*
X139207000Y-125047000D01*
X138953000Y-125047000D01*
X138953000Y-125027000D01*
X137745531Y-125027000D01*
X137625032Y-125259027D01*
X137699070Y-125417000D01*
X132807421Y-125417000D01*
X131925095Y-125241495D01*
X131225777Y-124774225D01*
X130758505Y-124074904D01*
X130673522Y-123647664D01*
X130741652Y-123647664D01*
X131046708Y-124385955D01*
X131611074Y-124951307D01*
X132348832Y-125257651D01*
X133147664Y-125258348D01*
X133885955Y-124953292D01*
X134451307Y-124388926D01*
X134757651Y-123651168D01*
X134758348Y-122852336D01*
X134453292Y-122114045D01*
X133888926Y-121548693D01*
X133151168Y-121242349D01*
X132352336Y-121241652D01*
X131614045Y-121546708D01*
X131048693Y-122111074D01*
X130742349Y-122848832D01*
X130741652Y-123647664D01*
X130673522Y-123647664D01*
X130583000Y-123192578D01*
X130583000Y-117168512D01*
X132091353Y-117168512D01*
X132220622Y-117481366D01*
X132459775Y-117720937D01*
X132772403Y-117850752D01*
X133110912Y-117851047D01*
X133423766Y-117721778D01*
X133663337Y-117482625D01*
X133793152Y-117169997D01*
X133793447Y-116831488D01*
X133664178Y-116518634D01*
X133425025Y-116279063D01*
X133112397Y-116149248D01*
X132773888Y-116148953D01*
X132461034Y-116278222D01*
X132221463Y-116517375D01*
X132091648Y-116830003D01*
X132091353Y-117168512D01*
X130583000Y-117168512D01*
X130583000Y-103913101D01*
X130770003Y-103990752D01*
X130770003Y-103990752D01*
G37*
X130770003Y-103990752D02*
X130964299Y-103990921D01*
X130964299Y-107508499D01*
X131008769Y-107732063D01*
X131109452Y-107882746D01*
X131135407Y-107921591D01*
X131399121Y-108185305D01*
X131398953Y-108378512D01*
X131525882Y-108685703D01*
X131401545Y-108985138D01*
X131401250Y-109323647D01*
X131530519Y-109636501D01*
X131700854Y-109807134D01*
X131682048Y-109900000D01*
X131682048Y-110800000D01*
X131717470Y-110988253D01*
X131828728Y-111161153D01*
X131959940Y-111250807D01*
X131838847Y-111328728D01*
X131722855Y-111498488D01*
X131682048Y-111700000D01*
X131682048Y-112600000D01*
X131717470Y-112788253D01*
X131828728Y-112961153D01*
X131998488Y-113077145D01*
X132200000Y-113117952D01*
X133400000Y-113117952D01*
X133588253Y-113082530D01*
X133761153Y-112971272D01*
X133877145Y-112801512D01*
X133899341Y-112691905D01*
X133917470Y-112788253D01*
X134028728Y-112961153D01*
X134198488Y-113077145D01*
X134400000Y-113117952D01*
X135600000Y-113117952D01*
X135698524Y-113099414D01*
X135696957Y-113100978D01*
X135635420Y-113249174D01*
X135381488Y-113248953D01*
X135068634Y-113378222D01*
X134829063Y-113617375D01*
X134699248Y-113930003D01*
X134698953Y-114268512D01*
X134828222Y-114581366D01*
X135067375Y-114820937D01*
X135380003Y-114950752D01*
X135574738Y-114950922D01*
X136995800Y-116371983D01*
X136995800Y-120860000D01*
X137040270Y-121083564D01*
X137098250Y-121170337D01*
X137166908Y-121273092D01*
X137794432Y-121900616D01*
X137708400Y-122333129D01*
X137708400Y-122386871D01*
X137812807Y-122911760D01*
X138110132Y-123356739D01*
X138425466Y-123567438D01*
X138305053Y-123617312D01*
X137873179Y-124011510D01*
X137625032Y-124540973D01*
X137745531Y-124773000D01*
X138953000Y-124773000D01*
X138953000Y-124753000D01*
X139207000Y-124753000D01*
X139207000Y-124773000D01*
X141493000Y-124773000D01*
X141493000Y-124753000D01*
X141747000Y-124753000D01*
X141747000Y-124773000D01*
X144033000Y-124773000D01*
X144033000Y-124753000D01*
X144287000Y-124753000D01*
X144287000Y-124773000D01*
X146573000Y-124773000D01*
X146573000Y-124753000D01*
X146827000Y-124753000D01*
X146827000Y-124773000D01*
X146847000Y-124773000D01*
X146847000Y-125027000D01*
X146827000Y-125027000D01*
X146827000Y-125047000D01*
X146573000Y-125047000D01*
X146573000Y-125027000D01*
X144287000Y-125027000D01*
X144287000Y-125047000D01*
X144033000Y-125047000D01*
X144033000Y-125027000D01*
X141747000Y-125027000D01*
X141747000Y-125047000D01*
X141493000Y-125047000D01*
X141493000Y-125027000D01*
X139207000Y-125027000D01*
X139207000Y-125047000D01*
X138953000Y-125047000D01*
X138953000Y-125027000D01*
X137745531Y-125027000D01*
X137625032Y-125259027D01*
X137699070Y-125417000D01*
X132807421Y-125417000D01*
X131925095Y-125241495D01*
X131225777Y-124774225D01*
X130758505Y-124074904D01*
X130673522Y-123647664D01*
X130741652Y-123647664D01*
X131046708Y-124385955D01*
X131611074Y-124951307D01*
X132348832Y-125257651D01*
X133147664Y-125258348D01*
X133885955Y-124953292D01*
X134451307Y-124388926D01*
X134757651Y-123651168D01*
X134758348Y-122852336D01*
X134453292Y-122114045D01*
X133888926Y-121548693D01*
X133151168Y-121242349D01*
X132352336Y-121241652D01*
X131614045Y-121546708D01*
X131048693Y-122111074D01*
X130742349Y-122848832D01*
X130741652Y-123647664D01*
X130673522Y-123647664D01*
X130583000Y-123192578D01*
X130583000Y-117168512D01*
X132091353Y-117168512D01*
X132220622Y-117481366D01*
X132459775Y-117720937D01*
X132772403Y-117850752D01*
X133110912Y-117851047D01*
X133423766Y-117721778D01*
X133663337Y-117482625D01*
X133793152Y-117169997D01*
X133793447Y-116831488D01*
X133664178Y-116518634D01*
X133425025Y-116279063D01*
X133112397Y-116149248D01*
X132773888Y-116148953D01*
X132461034Y-116278222D01*
X132221463Y-116517375D01*
X132091648Y-116830003D01*
X132091353Y-117168512D01*
X130583000Y-117168512D01*
X130583000Y-103913101D01*
X130770003Y-103990752D01*
G36*
X148557000Y-123933000D02*
X148577000Y-123933000D01*
X148577000Y-124187000D01*
X148557000Y-124187000D01*
X148557000Y-124207000D01*
X148303000Y-124207000D01*
X148303000Y-124187000D01*
X148283000Y-124187000D01*
X148283000Y-123933000D01*
X148303000Y-123933000D01*
X148303000Y-123913000D01*
X148557000Y-123913000D01*
X148557000Y-123933000D01*
X148557000Y-123933000D01*
G37*
X148557000Y-123933000D02*
X148577000Y-123933000D01*
X148577000Y-124187000D01*
X148557000Y-124187000D01*
X148557000Y-124207000D01*
X148303000Y-124207000D01*
X148303000Y-124187000D01*
X148283000Y-124187000D01*
X148283000Y-123933000D01*
X148303000Y-123933000D01*
X148303000Y-123913000D01*
X148557000Y-123913000D01*
X148557000Y-123933000D01*
G36*
X147189248Y-113830003D02*
X147188953Y-114168512D01*
X147318222Y-114481366D01*
X147557375Y-114720937D01*
X147870003Y-114850752D01*
X148208512Y-114851047D01*
X148521366Y-114721778D01*
X148659184Y-114584200D01*
X149508016Y-114584200D01*
X151735866Y-116812050D01*
X151818222Y-117011366D01*
X151956236Y-117149621D01*
X150300911Y-117149621D01*
X150301047Y-116993808D01*
X150171778Y-116680954D01*
X149932625Y-116441383D01*
X149619997Y-116311568D01*
X149281488Y-116311273D01*
X148968634Y-116440542D01*
X148729063Y-116679695D01*
X148721586Y-116697701D01*
X148512835Y-116656178D01*
X145813383Y-116656178D01*
X144784491Y-115627286D01*
X144708213Y-115576319D01*
X144651367Y-115538335D01*
X146505502Y-113684200D01*
X147249791Y-113684200D01*
X147189248Y-113830003D01*
X147189248Y-113830003D01*
G37*
X147189248Y-113830003D02*
X147188953Y-114168512D01*
X147318222Y-114481366D01*
X147557375Y-114720937D01*
X147870003Y-114850752D01*
X148208512Y-114851047D01*
X148521366Y-114721778D01*
X148659184Y-114584200D01*
X149508016Y-114584200D01*
X151735866Y-116812050D01*
X151818222Y-117011366D01*
X151956236Y-117149621D01*
X150300911Y-117149621D01*
X150301047Y-116993808D01*
X150171778Y-116680954D01*
X149932625Y-116441383D01*
X149619997Y-116311568D01*
X149281488Y-116311273D01*
X148968634Y-116440542D01*
X148729063Y-116679695D01*
X148721586Y-116697701D01*
X148512835Y-116656178D01*
X145813383Y-116656178D01*
X144784491Y-115627286D01*
X144708213Y-115576319D01*
X144651367Y-115538335D01*
X146505502Y-113684200D01*
X147249791Y-113684200D01*
X147189248Y-113830003D01*
G36*
X161388458Y-100552886D02*
X161526036Y-100690704D01*
X161526036Y-101312471D01*
X161570506Y-101536035D01*
X161697144Y-101725563D01*
X162615800Y-102644219D01*
X162615800Y-110009056D01*
X162322954Y-109887455D01*
X161984445Y-109887160D01*
X161941507Y-109904902D01*
X161901162Y-109807500D01*
X161970000Y-109641310D01*
X161970000Y-109616250D01*
X161953750Y-109600000D01*
X161970000Y-109583750D01*
X161970000Y-109558690D01*
X161904268Y-109400000D01*
X161970000Y-109241310D01*
X161970000Y-109216250D01*
X161953750Y-109200000D01*
X161970000Y-109183750D01*
X161970000Y-109158690D01*
X161904268Y-109000000D01*
X161970000Y-108841310D01*
X161970000Y-108816250D01*
X161953750Y-108800000D01*
X161970000Y-108783750D01*
X161970000Y-108758690D01*
X161904268Y-108600000D01*
X161970000Y-108441310D01*
X161970000Y-108416250D01*
X161953750Y-108400000D01*
X161970000Y-108383750D01*
X161970000Y-108358690D01*
X161904268Y-108200000D01*
X161970000Y-108041310D01*
X161970000Y-108016250D01*
X161953750Y-108000000D01*
X161970000Y-107983750D01*
X161970000Y-107958690D01*
X161904268Y-107800000D01*
X161970000Y-107641310D01*
X161970000Y-107616250D01*
X161953750Y-107600000D01*
X161970000Y-107583750D01*
X161970000Y-107558690D01*
X161904268Y-107400000D01*
X161970000Y-107241310D01*
X161970000Y-107216250D01*
X161953750Y-107200000D01*
X161970000Y-107183750D01*
X161970000Y-107158690D01*
X161904268Y-107000000D01*
X161970000Y-106841310D01*
X161970000Y-106816250D01*
X161953750Y-106800000D01*
X161970000Y-106783750D01*
X161970000Y-106758690D01*
X161904268Y-106600000D01*
X161970000Y-106441310D01*
X161970000Y-106416250D01*
X161953750Y-106400000D01*
X161970000Y-106383750D01*
X161970000Y-106358690D01*
X161901162Y-106192500D01*
X161970000Y-106026310D01*
X161970000Y-105958690D01*
X161873327Y-105725301D01*
X161785526Y-105637500D01*
X161811250Y-105637500D01*
X161970000Y-105478750D01*
X161970000Y-105423690D01*
X161873327Y-105190301D01*
X161694698Y-105011673D01*
X161461309Y-104915000D01*
X161290750Y-104915000D01*
X161132000Y-105073750D01*
X161132000Y-105383205D01*
X160878000Y-105434005D01*
X160878000Y-105073750D01*
X160719250Y-104915000D01*
X160584200Y-104915000D01*
X160584200Y-101291984D01*
X161369406Y-100506778D01*
X161388458Y-100552886D01*
X161388458Y-100552886D01*
G37*
X161388458Y-100552886D02*
X161526036Y-100690704D01*
X161526036Y-101312471D01*
X161570506Y-101536035D01*
X161697144Y-101725563D01*
X162615800Y-102644219D01*
X162615800Y-110009056D01*
X162322954Y-109887455D01*
X161984445Y-109887160D01*
X161941507Y-109904902D01*
X161901162Y-109807500D01*
X161970000Y-109641310D01*
X161970000Y-109616250D01*
X161953750Y-109600000D01*
X161970000Y-109583750D01*
X161970000Y-109558690D01*
X161904268Y-109400000D01*
X161970000Y-109241310D01*
X161970000Y-109216250D01*
X161953750Y-109200000D01*
X161970000Y-109183750D01*
X161970000Y-109158690D01*
X161904268Y-109000000D01*
X161970000Y-108841310D01*
X161970000Y-108816250D01*
X161953750Y-108800000D01*
X161970000Y-108783750D01*
X161970000Y-108758690D01*
X161904268Y-108600000D01*
X161970000Y-108441310D01*
X161970000Y-108416250D01*
X161953750Y-108400000D01*
X161970000Y-108383750D01*
X161970000Y-108358690D01*
X161904268Y-108200000D01*
X161970000Y-108041310D01*
X161970000Y-108016250D01*
X161953750Y-108000000D01*
X161970000Y-107983750D01*
X161970000Y-107958690D01*
X161904268Y-107800000D01*
X161970000Y-107641310D01*
X161970000Y-107616250D01*
X161953750Y-107600000D01*
X161970000Y-107583750D01*
X161970000Y-107558690D01*
X161904268Y-107400000D01*
X161970000Y-107241310D01*
X161970000Y-107216250D01*
X161953750Y-107200000D01*
X161970000Y-107183750D01*
X161970000Y-107158690D01*
X161904268Y-107000000D01*
X161970000Y-106841310D01*
X161970000Y-106816250D01*
X161953750Y-106800000D01*
X161970000Y-106783750D01*
X161970000Y-106758690D01*
X161904268Y-106600000D01*
X161970000Y-106441310D01*
X161970000Y-106416250D01*
X161953750Y-106400000D01*
X161970000Y-106383750D01*
X161970000Y-106358690D01*
X161901162Y-106192500D01*
X161970000Y-106026310D01*
X161970000Y-105958690D01*
X161873327Y-105725301D01*
X161785526Y-105637500D01*
X161811250Y-105637500D01*
X161970000Y-105478750D01*
X161970000Y-105423690D01*
X161873327Y-105190301D01*
X161694698Y-105011673D01*
X161461309Y-104915000D01*
X161290750Y-104915000D01*
X161132000Y-105073750D01*
X161132000Y-105383205D01*
X160878000Y-105434005D01*
X160878000Y-105073750D01*
X160719250Y-104915000D01*
X160584200Y-104915000D01*
X160584200Y-101291984D01*
X161369406Y-100506778D01*
X161388458Y-100552886D01*
G36*
X136139063Y-90657375D02*
X136009248Y-90970003D01*
X136008953Y-91308512D01*
X136138222Y-91621366D01*
X136377375Y-91860937D01*
X136690003Y-91990752D01*
X137028512Y-91991047D01*
X137341366Y-91861778D01*
X137572025Y-91631522D01*
X137580222Y-91803454D01*
X137746136Y-92204005D01*
X137992255Y-92278139D01*
X138820395Y-91450000D01*
X138806252Y-91435858D01*
X138985858Y-91256252D01*
X139000000Y-91270395D01*
X139014142Y-91256252D01*
X139193748Y-91435858D01*
X139179605Y-91450000D01*
X139193748Y-91464143D01*
X139014142Y-91643748D01*
X139000000Y-91629605D01*
X138171861Y-92457745D01*
X138204167Y-92565000D01*
X138173691Y-92565000D01*
X137940302Y-92661673D01*
X137761673Y-92840301D01*
X137665000Y-93073690D01*
X137665000Y-93614250D01*
X137823750Y-93773000D01*
X138973000Y-93773000D01*
X138973000Y-93753000D01*
X139227000Y-93753000D01*
X139227000Y-93773000D01*
X139247000Y-93773000D01*
X139247000Y-94027000D01*
X139227000Y-94027000D01*
X139227000Y-95076250D01*
X139385750Y-95235000D01*
X139466974Y-95235000D01*
X139290987Y-95410987D01*
X139153336Y-95616996D01*
X139149280Y-95637385D01*
X139019063Y-95767375D01*
X138889248Y-96080003D01*
X138888953Y-96418512D01*
X139018222Y-96731366D01*
X139189120Y-96902562D01*
X138884483Y-97207199D01*
X138781778Y-96958634D01*
X138542625Y-96719063D01*
X138229997Y-96589248D01*
X137891488Y-96588953D01*
X137578634Y-96718222D01*
X137339063Y-96957375D01*
X137209248Y-97270003D01*
X137208953Y-97608512D01*
X137338222Y-97921366D01*
X137577375Y-98160937D01*
X137827064Y-98264618D01*
X137625784Y-98465898D01*
X137499146Y-98655426D01*
X137454676Y-98878990D01*
X137454676Y-104227110D01*
X137499146Y-104450674D01*
X137606996Y-104612084D01*
X137625784Y-104640202D01*
X140859741Y-107874159D01*
X140869158Y-107880451D01*
X140664906Y-108084347D01*
X140318737Y-107737574D01*
X139852127Y-107543821D01*
X139346890Y-107543380D01*
X138879942Y-107736318D01*
X138522374Y-108093263D01*
X138496892Y-108154631D01*
X138471248Y-108128942D01*
X138158620Y-107999127D01*
X137963885Y-107998957D01*
X134184200Y-104219272D01*
X134184200Y-103969123D01*
X134320937Y-103832625D01*
X134450752Y-103519997D01*
X134451047Y-103181488D01*
X134321778Y-102868634D01*
X134082625Y-102629063D01*
X133769997Y-102499248D01*
X133431488Y-102498953D01*
X133118634Y-102628222D01*
X132879063Y-102867375D01*
X132749248Y-103180003D01*
X132748953Y-103518512D01*
X132878222Y-103831366D01*
X133015800Y-103969184D01*
X133015800Y-104461256D01*
X133060270Y-104684820D01*
X133150092Y-104819248D01*
X133186908Y-104874348D01*
X137137744Y-108825184D01*
X137137576Y-109018391D01*
X137266845Y-109331245D01*
X137505998Y-109570816D01*
X137818626Y-109700631D01*
X138157135Y-109700926D01*
X138469989Y-109571657D01*
X138517771Y-109523958D01*
X138521118Y-109532058D01*
X138804366Y-109815800D01*
X136491840Y-109815800D01*
X136483564Y-109810270D01*
X136260000Y-109765800D01*
X136092701Y-109765800D01*
X136082530Y-109711747D01*
X135971272Y-109538847D01*
X135801512Y-109422855D01*
X135600000Y-109382048D01*
X134400000Y-109382048D01*
X134211747Y-109417470D01*
X134038847Y-109528728D01*
X133922855Y-109698488D01*
X133900659Y-109808095D01*
X133882530Y-109711747D01*
X133771272Y-109538847D01*
X133601512Y-109422855D01*
X133400000Y-109382048D01*
X133274766Y-109382048D01*
X133213092Y-109289746D01*
X133213089Y-109289744D01*
X133103176Y-109179830D01*
X133103344Y-108986623D01*
X132976415Y-108679432D01*
X133100752Y-108379997D01*
X133101047Y-108041488D01*
X132971778Y-107728634D01*
X132732625Y-107489063D01*
X132419997Y-107359248D01*
X132225262Y-107359078D01*
X132132699Y-107266515D01*
X132132699Y-107170911D01*
X132288512Y-107171047D01*
X132601366Y-107041778D01*
X132840937Y-106802625D01*
X132970752Y-106489997D01*
X132971047Y-106151488D01*
X132841778Y-105838634D01*
X132704200Y-105700816D01*
X132704200Y-97701984D01*
X134118803Y-96287381D01*
X134244456Y-96287381D01*
X134468020Y-96242911D01*
X134515599Y-96211120D01*
X134755867Y-96211329D01*
X135068721Y-96082060D01*
X135116365Y-96034499D01*
X135300003Y-96110752D01*
X135494738Y-96110922D01*
X135725800Y-96341984D01*
X135725800Y-100098016D01*
X135280915Y-100542901D01*
X134462899Y-100542901D01*
X134239335Y-100587371D01*
X134191756Y-100619162D01*
X133951488Y-100618953D01*
X133638634Y-100748222D01*
X133399063Y-100987375D01*
X133269248Y-101300003D01*
X133268953Y-101638512D01*
X133398222Y-101951366D01*
X133637375Y-102190937D01*
X133950003Y-102320752D01*
X134288512Y-102321047D01*
X134601366Y-102191778D01*
X134840937Y-101952625D01*
X134941144Y-101711301D01*
X135522899Y-101711301D01*
X135746463Y-101666831D01*
X135935991Y-101540193D01*
X136723092Y-100753092D01*
X136750490Y-100712088D01*
X136849730Y-100563564D01*
X136894200Y-100340000D01*
X136894200Y-96100000D01*
X136849730Y-95876436D01*
X136723092Y-95686908D01*
X136320879Y-95284695D01*
X136321047Y-95091488D01*
X136191778Y-94778634D01*
X135952625Y-94539063D01*
X135639997Y-94409248D01*
X135301488Y-94408953D01*
X134988634Y-94538222D01*
X134940990Y-94585783D01*
X134757352Y-94509530D01*
X134418843Y-94509235D01*
X134105989Y-94638504D01*
X133866418Y-94877657D01*
X133756253Y-95142963D01*
X133653255Y-95163451D01*
X133559593Y-95226034D01*
X133463727Y-95290089D01*
X132933240Y-95820576D01*
X132911778Y-95768634D01*
X132672625Y-95529063D01*
X132359997Y-95399248D01*
X132021488Y-95398953D01*
X131708634Y-95528222D01*
X131589942Y-95646707D01*
X131402625Y-95459063D01*
X131089997Y-95329248D01*
X130751488Y-95328953D01*
X130583000Y-95398571D01*
X130583000Y-93147664D01*
X130741652Y-93147664D01*
X131046708Y-93885955D01*
X131611074Y-94451307D01*
X132348832Y-94757651D01*
X133147664Y-94758348D01*
X133885955Y-94453292D01*
X134153964Y-94185750D01*
X137665000Y-94185750D01*
X137665000Y-94726310D01*
X137761673Y-94959699D01*
X137940302Y-95138327D01*
X138173691Y-95235000D01*
X138814250Y-95235000D01*
X138973000Y-95076250D01*
X138973000Y-94027000D01*
X137823750Y-94027000D01*
X137665000Y-94185750D01*
X134153964Y-94185750D01*
X134451307Y-93888926D01*
X134757651Y-93151168D01*
X134758348Y-92352336D01*
X134453292Y-91614045D01*
X133888926Y-91048693D01*
X133151168Y-90742349D01*
X132352336Y-90741652D01*
X131614045Y-91046708D01*
X131048693Y-91611074D01*
X130742349Y-92348832D01*
X130741652Y-93147664D01*
X130583000Y-93147664D01*
X130583000Y-92807422D01*
X130758505Y-91925096D01*
X131225777Y-91225775D01*
X131925095Y-90758505D01*
X132807421Y-90583000D01*
X136213568Y-90583000D01*
X136139063Y-90657375D01*
X136139063Y-90657375D01*
G37*
X136139063Y-90657375D02*
X136009248Y-90970003D01*
X136008953Y-91308512D01*
X136138222Y-91621366D01*
X136377375Y-91860937D01*
X136690003Y-91990752D01*
X137028512Y-91991047D01*
X137341366Y-91861778D01*
X137572025Y-91631522D01*
X137580222Y-91803454D01*
X137746136Y-92204005D01*
X137992255Y-92278139D01*
X138820395Y-91450000D01*
X138806252Y-91435858D01*
X138985858Y-91256252D01*
X139000000Y-91270395D01*
X139014142Y-91256252D01*
X139193748Y-91435858D01*
X139179605Y-91450000D01*
X139193748Y-91464143D01*
X139014142Y-91643748D01*
X139000000Y-91629605D01*
X138171861Y-92457745D01*
X138204167Y-92565000D01*
X138173691Y-92565000D01*
X137940302Y-92661673D01*
X137761673Y-92840301D01*
X137665000Y-93073690D01*
X137665000Y-93614250D01*
X137823750Y-93773000D01*
X138973000Y-93773000D01*
X138973000Y-93753000D01*
X139227000Y-93753000D01*
X139227000Y-93773000D01*
X139247000Y-93773000D01*
X139247000Y-94027000D01*
X139227000Y-94027000D01*
X139227000Y-95076250D01*
X139385750Y-95235000D01*
X139466974Y-95235000D01*
X139290987Y-95410987D01*
X139153336Y-95616996D01*
X139149280Y-95637385D01*
X139019063Y-95767375D01*
X138889248Y-96080003D01*
X138888953Y-96418512D01*
X139018222Y-96731366D01*
X139189120Y-96902562D01*
X138884483Y-97207199D01*
X138781778Y-96958634D01*
X138542625Y-96719063D01*
X138229997Y-96589248D01*
X137891488Y-96588953D01*
X137578634Y-96718222D01*
X137339063Y-96957375D01*
X137209248Y-97270003D01*
X137208953Y-97608512D01*
X137338222Y-97921366D01*
X137577375Y-98160937D01*
X137827064Y-98264618D01*
X137625784Y-98465898D01*
X137499146Y-98655426D01*
X137454676Y-98878990D01*
X137454676Y-104227110D01*
X137499146Y-104450674D01*
X137606996Y-104612084D01*
X137625784Y-104640202D01*
X140859741Y-107874159D01*
X140869158Y-107880451D01*
X140664906Y-108084347D01*
X140318737Y-107737574D01*
X139852127Y-107543821D01*
X139346890Y-107543380D01*
X138879942Y-107736318D01*
X138522374Y-108093263D01*
X138496892Y-108154631D01*
X138471248Y-108128942D01*
X138158620Y-107999127D01*
X137963885Y-107998957D01*
X134184200Y-104219272D01*
X134184200Y-103969123D01*
X134320937Y-103832625D01*
X134450752Y-103519997D01*
X134451047Y-103181488D01*
X134321778Y-102868634D01*
X134082625Y-102629063D01*
X133769997Y-102499248D01*
X133431488Y-102498953D01*
X133118634Y-102628222D01*
X132879063Y-102867375D01*
X132749248Y-103180003D01*
X132748953Y-103518512D01*
X132878222Y-103831366D01*
X133015800Y-103969184D01*
X133015800Y-104461256D01*
X133060270Y-104684820D01*
X133150092Y-104819248D01*
X133186908Y-104874348D01*
X137137744Y-108825184D01*
X137137576Y-109018391D01*
X137266845Y-109331245D01*
X137505998Y-109570816D01*
X137818626Y-109700631D01*
X138157135Y-109700926D01*
X138469989Y-109571657D01*
X138517771Y-109523958D01*
X138521118Y-109532058D01*
X138804366Y-109815800D01*
X136491840Y-109815800D01*
X136483564Y-109810270D01*
X136260000Y-109765800D01*
X136092701Y-109765800D01*
X136082530Y-109711747D01*
X135971272Y-109538847D01*
X135801512Y-109422855D01*
X135600000Y-109382048D01*
X134400000Y-109382048D01*
X134211747Y-109417470D01*
X134038847Y-109528728D01*
X133922855Y-109698488D01*
X133900659Y-109808095D01*
X133882530Y-109711747D01*
X133771272Y-109538847D01*
X133601512Y-109422855D01*
X133400000Y-109382048D01*
X133274766Y-109382048D01*
X133213092Y-109289746D01*
X133213089Y-109289744D01*
X133103176Y-109179830D01*
X133103344Y-108986623D01*
X132976415Y-108679432D01*
X133100752Y-108379997D01*
X133101047Y-108041488D01*
X132971778Y-107728634D01*
X132732625Y-107489063D01*
X132419997Y-107359248D01*
X132225262Y-107359078D01*
X132132699Y-107266515D01*
X132132699Y-107170911D01*
X132288512Y-107171047D01*
X132601366Y-107041778D01*
X132840937Y-106802625D01*
X132970752Y-106489997D01*
X132971047Y-106151488D01*
X132841778Y-105838634D01*
X132704200Y-105700816D01*
X132704200Y-97701984D01*
X134118803Y-96287381D01*
X134244456Y-96287381D01*
X134468020Y-96242911D01*
X134515599Y-96211120D01*
X134755867Y-96211329D01*
X135068721Y-96082060D01*
X135116365Y-96034499D01*
X135300003Y-96110752D01*
X135494738Y-96110922D01*
X135725800Y-96341984D01*
X135725800Y-100098016D01*
X135280915Y-100542901D01*
X134462899Y-100542901D01*
X134239335Y-100587371D01*
X134191756Y-100619162D01*
X133951488Y-100618953D01*
X133638634Y-100748222D01*
X133399063Y-100987375D01*
X133269248Y-101300003D01*
X133268953Y-101638512D01*
X133398222Y-101951366D01*
X133637375Y-102190937D01*
X133950003Y-102320752D01*
X134288512Y-102321047D01*
X134601366Y-102191778D01*
X134840937Y-101952625D01*
X134941144Y-101711301D01*
X135522899Y-101711301D01*
X135746463Y-101666831D01*
X135935991Y-101540193D01*
X136723092Y-100753092D01*
X136750490Y-100712088D01*
X136849730Y-100563564D01*
X136894200Y-100340000D01*
X136894200Y-96100000D01*
X136849730Y-95876436D01*
X136723092Y-95686908D01*
X136320879Y-95284695D01*
X136321047Y-95091488D01*
X136191778Y-94778634D01*
X135952625Y-94539063D01*
X135639997Y-94409248D01*
X135301488Y-94408953D01*
X134988634Y-94538222D01*
X134940990Y-94585783D01*
X134757352Y-94509530D01*
X134418843Y-94509235D01*
X134105989Y-94638504D01*
X133866418Y-94877657D01*
X133756253Y-95142963D01*
X133653255Y-95163451D01*
X133559593Y-95226034D01*
X133463727Y-95290089D01*
X132933240Y-95820576D01*
X132911778Y-95768634D01*
X132672625Y-95529063D01*
X132359997Y-95399248D01*
X132021488Y-95398953D01*
X131708634Y-95528222D01*
X131589942Y-95646707D01*
X131402625Y-95459063D01*
X131089997Y-95329248D01*
X130751488Y-95328953D01*
X130583000Y-95398571D01*
X130583000Y-93147664D01*
X130741652Y-93147664D01*
X131046708Y-93885955D01*
X131611074Y-94451307D01*
X132348832Y-94757651D01*
X133147664Y-94758348D01*
X133885955Y-94453292D01*
X134153964Y-94185750D01*
X137665000Y-94185750D01*
X137665000Y-94726310D01*
X137761673Y-94959699D01*
X137940302Y-95138327D01*
X138173691Y-95235000D01*
X138814250Y-95235000D01*
X138973000Y-95076250D01*
X138973000Y-94027000D01*
X137823750Y-94027000D01*
X137665000Y-94185750D01*
X134153964Y-94185750D01*
X134451307Y-93888926D01*
X134757651Y-93151168D01*
X134758348Y-92352336D01*
X134453292Y-91614045D01*
X133888926Y-91048693D01*
X133151168Y-90742349D01*
X132352336Y-90741652D01*
X131614045Y-91046708D01*
X131048693Y-91611074D01*
X130742349Y-92348832D01*
X130741652Y-93147664D01*
X130583000Y-93147664D01*
X130583000Y-92807422D01*
X130758505Y-91925096D01*
X131225777Y-91225775D01*
X131925095Y-90758505D01*
X132807421Y-90583000D01*
X136213568Y-90583000D01*
X136139063Y-90657375D01*
G36*
X150753887Y-106235952D02*
X150627249Y-106425480D01*
X150594571Y-106589762D01*
X150446042Y-106738032D01*
X150316227Y-107050660D01*
X150315932Y-107389169D01*
X150445201Y-107702023D01*
X150670718Y-107927935D01*
X150670620Y-108040442D01*
X148659296Y-108040442D01*
X148817268Y-107882746D01*
X148947083Y-107570118D01*
X148947378Y-107231609D01*
X148818109Y-106918755D01*
X148578956Y-106679184D01*
X148266328Y-106549369D01*
X148240007Y-106549346D01*
X148424622Y-106425991D01*
X149080925Y-105769688D01*
X149207564Y-105580159D01*
X149239126Y-105421487D01*
X150596225Y-104064387D01*
X152925452Y-104064387D01*
X150753887Y-106235952D01*
X150753887Y-106235952D01*
G37*
X150753887Y-106235952D02*
X150627249Y-106425480D01*
X150594571Y-106589762D01*
X150446042Y-106738032D01*
X150316227Y-107050660D01*
X150315932Y-107389169D01*
X150445201Y-107702023D01*
X150670718Y-107927935D01*
X150670620Y-108040442D01*
X148659296Y-108040442D01*
X148817268Y-107882746D01*
X148947083Y-107570118D01*
X148947378Y-107231609D01*
X148818109Y-106918755D01*
X148578956Y-106679184D01*
X148266328Y-106549369D01*
X148240007Y-106549346D01*
X148424622Y-106425991D01*
X149080925Y-105769688D01*
X149207564Y-105580159D01*
X149239126Y-105421487D01*
X150596225Y-104064387D01*
X152925452Y-104064387D01*
X150753887Y-106235952D01*
G36*
X155309063Y-99297375D02*
X155179248Y-99610003D01*
X155178953Y-99948512D01*
X155308222Y-100261366D01*
X155445800Y-100399184D01*
X155445800Y-102068423D01*
X155161861Y-101950521D01*
X154823352Y-101950226D01*
X154510498Y-102079495D01*
X154270927Y-102318648D01*
X154170720Y-102559972D01*
X153590813Y-102559972D01*
X153591047Y-102291488D01*
X153461778Y-101978634D01*
X153222625Y-101739063D01*
X152909997Y-101609248D01*
X152571488Y-101608953D01*
X152546447Y-101619300D01*
X153150821Y-101014926D01*
X153344028Y-101015094D01*
X153656882Y-100885825D01*
X153896453Y-100646672D01*
X154026268Y-100334044D01*
X154026563Y-99995535D01*
X153897294Y-99682681D01*
X153658141Y-99443110D01*
X153345513Y-99313295D01*
X153007004Y-99313000D01*
X152694150Y-99442269D01*
X152454579Y-99681422D01*
X152324764Y-99994050D01*
X152324594Y-100188785D01*
X150473115Y-102040264D01*
X149262358Y-102040264D01*
X149273092Y-102033092D01*
X150065305Y-101240879D01*
X150258512Y-101241047D01*
X150571366Y-101111778D01*
X150810937Y-100872625D01*
X150940752Y-100559997D01*
X150941047Y-100221488D01*
X150811778Y-99908634D01*
X150572625Y-99669063D01*
X150259997Y-99539248D01*
X149921488Y-99538953D01*
X149608634Y-99668222D01*
X149369063Y-99907375D01*
X149239248Y-100220003D01*
X149239078Y-100414738D01*
X148786403Y-100867413D01*
X148549997Y-100769248D01*
X148211488Y-100768953D01*
X147898634Y-100898222D01*
X147659063Y-101137375D01*
X147529248Y-101450003D01*
X147528953Y-101788512D01*
X147599778Y-101959922D01*
X147417543Y-102141839D01*
X147287728Y-102454467D01*
X147287433Y-102792976D01*
X147294927Y-102811112D01*
X146218942Y-102811112D01*
X146082444Y-102674375D01*
X145769816Y-102544560D01*
X145431307Y-102544265D01*
X145118453Y-102673534D01*
X145012132Y-102779669D01*
X144959147Y-102757668D01*
X144620638Y-102757373D01*
X144307784Y-102886642D01*
X144068213Y-103125795D01*
X143938398Y-103438423D01*
X143938336Y-103510000D01*
X143935750Y-103510000D01*
X143777000Y-103668750D01*
X143777000Y-104393000D01*
X144459794Y-104393000D01*
X144619153Y-104459172D01*
X144831913Y-104459357D01*
X144967166Y-104549730D01*
X145190730Y-104594200D01*
X145315000Y-104594200D01*
X145315000Y-104624250D01*
X145473750Y-104783000D01*
X146273000Y-104783000D01*
X146273000Y-104763000D01*
X146527000Y-104763000D01*
X146527000Y-104783000D01*
X146547000Y-104783000D01*
X146547000Y-105037000D01*
X146527000Y-105037000D01*
X146527000Y-105057000D01*
X146273000Y-105057000D01*
X146273000Y-105037000D01*
X145473750Y-105037000D01*
X145315000Y-105195750D01*
X145315000Y-105428699D01*
X144920971Y-105428699D01*
X144821778Y-105188634D01*
X144817477Y-105184325D01*
X144885000Y-105021310D01*
X144885000Y-104805750D01*
X144726250Y-104647000D01*
X143777000Y-104647000D01*
X143777000Y-104667000D01*
X143523000Y-104667000D01*
X143523000Y-104647000D01*
X143503000Y-104647000D01*
X143503000Y-104393000D01*
X143523000Y-104393000D01*
X143523000Y-103668750D01*
X143380562Y-103526312D01*
X143380706Y-103361147D01*
X143251437Y-103048293D01*
X143140295Y-102936956D01*
X146893050Y-99184200D01*
X155422436Y-99184200D01*
X155309063Y-99297375D01*
X155309063Y-99297375D01*
G37*
X155309063Y-99297375D02*
X155179248Y-99610003D01*
X155178953Y-99948512D01*
X155308222Y-100261366D01*
X155445800Y-100399184D01*
X155445800Y-102068423D01*
X155161861Y-101950521D01*
X154823352Y-101950226D01*
X154510498Y-102079495D01*
X154270927Y-102318648D01*
X154170720Y-102559972D01*
X153590813Y-102559972D01*
X153591047Y-102291488D01*
X153461778Y-101978634D01*
X153222625Y-101739063D01*
X152909997Y-101609248D01*
X152571488Y-101608953D01*
X152546447Y-101619300D01*
X153150821Y-101014926D01*
X153344028Y-101015094D01*
X153656882Y-100885825D01*
X153896453Y-100646672D01*
X154026268Y-100334044D01*
X154026563Y-99995535D01*
X153897294Y-99682681D01*
X153658141Y-99443110D01*
X153345513Y-99313295D01*
X153007004Y-99313000D01*
X152694150Y-99442269D01*
X152454579Y-99681422D01*
X152324764Y-99994050D01*
X152324594Y-100188785D01*
X150473115Y-102040264D01*
X149262358Y-102040264D01*
X149273092Y-102033092D01*
X150065305Y-101240879D01*
X150258512Y-101241047D01*
X150571366Y-101111778D01*
X150810937Y-100872625D01*
X150940752Y-100559997D01*
X150941047Y-100221488D01*
X150811778Y-99908634D01*
X150572625Y-99669063D01*
X150259997Y-99539248D01*
X149921488Y-99538953D01*
X149608634Y-99668222D01*
X149369063Y-99907375D01*
X149239248Y-100220003D01*
X149239078Y-100414738D01*
X148786403Y-100867413D01*
X148549997Y-100769248D01*
X148211488Y-100768953D01*
X147898634Y-100898222D01*
X147659063Y-101137375D01*
X147529248Y-101450003D01*
X147528953Y-101788512D01*
X147599778Y-101959922D01*
X147417543Y-102141839D01*
X147287728Y-102454467D01*
X147287433Y-102792976D01*
X147294927Y-102811112D01*
X146218942Y-102811112D01*
X146082444Y-102674375D01*
X145769816Y-102544560D01*
X145431307Y-102544265D01*
X145118453Y-102673534D01*
X145012132Y-102779669D01*
X144959147Y-102757668D01*
X144620638Y-102757373D01*
X144307784Y-102886642D01*
X144068213Y-103125795D01*
X143938398Y-103438423D01*
X143938336Y-103510000D01*
X143935750Y-103510000D01*
X143777000Y-103668750D01*
X143777000Y-104393000D01*
X144459794Y-104393000D01*
X144619153Y-104459172D01*
X144831913Y-104459357D01*
X144967166Y-104549730D01*
X145190730Y-104594200D01*
X145315000Y-104594200D01*
X145315000Y-104624250D01*
X145473750Y-104783000D01*
X146273000Y-104783000D01*
X146273000Y-104763000D01*
X146527000Y-104763000D01*
X146527000Y-104783000D01*
X146547000Y-104783000D01*
X146547000Y-105037000D01*
X146527000Y-105037000D01*
X146527000Y-105057000D01*
X146273000Y-105057000D01*
X146273000Y-105037000D01*
X145473750Y-105037000D01*
X145315000Y-105195750D01*
X145315000Y-105428699D01*
X144920971Y-105428699D01*
X144821778Y-105188634D01*
X144817477Y-105184325D01*
X144885000Y-105021310D01*
X144885000Y-104805750D01*
X144726250Y-104647000D01*
X143777000Y-104647000D01*
X143777000Y-104667000D01*
X143523000Y-104667000D01*
X143523000Y-104647000D01*
X143503000Y-104647000D01*
X143503000Y-104393000D01*
X143523000Y-104393000D01*
X143523000Y-103668750D01*
X143380562Y-103526312D01*
X143380706Y-103361147D01*
X143251437Y-103048293D01*
X143140295Y-102936956D01*
X146893050Y-99184200D01*
X155422436Y-99184200D01*
X155309063Y-99297375D01*
G36*
X143478954Y-96308513D02*
X143608223Y-96621367D01*
X143847376Y-96860938D01*
X144160004Y-96990753D01*
X144498513Y-96991048D01*
X144811367Y-96861779D01*
X144898297Y-96775001D01*
X158781618Y-96775001D01*
X158781618Y-97550050D01*
X158817040Y-97738303D01*
X158928298Y-97911203D01*
X159098058Y-98027195D01*
X159299570Y-98068002D01*
X161100430Y-98068002D01*
X161288683Y-98032580D01*
X161441010Y-97934561D01*
X161480003Y-97950752D01*
X161783898Y-97951017D01*
X161783898Y-98500050D01*
X161819320Y-98688303D01*
X161930578Y-98861203D01*
X162010483Y-98915800D01*
X161618382Y-98915800D01*
X161618382Y-98649950D01*
X161582960Y-98461697D01*
X161471702Y-98288797D01*
X161301942Y-98172805D01*
X161100430Y-98131998D01*
X159299570Y-98131998D01*
X159111317Y-98167420D01*
X159081060Y-98186890D01*
X158869995Y-98099248D01*
X158531486Y-98098953D01*
X158218632Y-98228222D01*
X158179284Y-98267501D01*
X158103213Y-98191297D01*
X157790585Y-98061482D01*
X157595850Y-98061312D01*
X157314531Y-97779993D01*
X157125003Y-97653355D01*
X156901439Y-97608885D01*
X146626915Y-97608885D01*
X146403351Y-97653355D01*
X146213823Y-97779993D01*
X141028016Y-102965800D01*
X139839123Y-102965800D01*
X139702625Y-102829063D01*
X139389997Y-102699248D01*
X139232698Y-102699111D01*
X139232698Y-99453486D01*
X141996329Y-96689854D01*
X142165678Y-96576699D01*
X142462858Y-96279519D01*
X142483281Y-96248953D01*
X142560960Y-96132699D01*
X143479107Y-96132699D01*
X143478954Y-96308513D01*
X143478954Y-96308513D01*
G37*
X143478954Y-96308513D02*
X143608223Y-96621367D01*
X143847376Y-96860938D01*
X144160004Y-96990753D01*
X144498513Y-96991048D01*
X144811367Y-96861779D01*
X144898297Y-96775001D01*
X158781618Y-96775001D01*
X158781618Y-97550050D01*
X158817040Y-97738303D01*
X158928298Y-97911203D01*
X159098058Y-98027195D01*
X159299570Y-98068002D01*
X161100430Y-98068002D01*
X161288683Y-98032580D01*
X161441010Y-97934561D01*
X161480003Y-97950752D01*
X161783898Y-97951017D01*
X161783898Y-98500050D01*
X161819320Y-98688303D01*
X161930578Y-98861203D01*
X162010483Y-98915800D01*
X161618382Y-98915800D01*
X161618382Y-98649950D01*
X161582960Y-98461697D01*
X161471702Y-98288797D01*
X161301942Y-98172805D01*
X161100430Y-98131998D01*
X159299570Y-98131998D01*
X159111317Y-98167420D01*
X159081060Y-98186890D01*
X158869995Y-98099248D01*
X158531486Y-98098953D01*
X158218632Y-98228222D01*
X158179284Y-98267501D01*
X158103213Y-98191297D01*
X157790585Y-98061482D01*
X157595850Y-98061312D01*
X157314531Y-97779993D01*
X157125003Y-97653355D01*
X156901439Y-97608885D01*
X146626915Y-97608885D01*
X146403351Y-97653355D01*
X146213823Y-97779993D01*
X141028016Y-102965800D01*
X139839123Y-102965800D01*
X139702625Y-102829063D01*
X139389997Y-102699248D01*
X139232698Y-102699111D01*
X139232698Y-99453486D01*
X141996329Y-96689854D01*
X142165678Y-96576699D01*
X142462858Y-96279519D01*
X142483281Y-96248953D01*
X142560960Y-96132699D01*
X143479107Y-96132699D01*
X143478954Y-96308513D01*
G36*
X130750003Y-97030752D02*
X130964299Y-97030939D01*
X130964299Y-102289121D01*
X130771488Y-102288953D01*
X130583000Y-102366835D01*
X130583000Y-96961406D01*
X130750003Y-97030752D01*
X130750003Y-97030752D01*
G37*
X130750003Y-97030752D02*
X130964299Y-97030939D01*
X130964299Y-102289121D01*
X130771488Y-102288953D01*
X130583000Y-102366835D01*
X130583000Y-96961406D01*
X130750003Y-97030752D01*
G36*
X149667375Y-92170937D02*
X149980003Y-92300752D01*
X150318512Y-92301047D01*
X150631366Y-92171778D01*
X150670212Y-92133000D01*
X151663000Y-92133000D01*
X151663000Y-92113000D01*
X151917000Y-92113000D01*
X151917000Y-92133000D01*
X152966250Y-92133000D01*
X153060893Y-92038357D01*
X153079800Y-92050990D01*
X153079800Y-92068650D01*
X153238550Y-92227400D01*
X154187800Y-92227400D01*
X154187800Y-92207400D01*
X154441800Y-92207400D01*
X154441800Y-92227400D01*
X154461800Y-92227400D01*
X154461800Y-92481400D01*
X154441800Y-92481400D01*
X154441800Y-93280650D01*
X154600550Y-93439400D01*
X155041109Y-93439400D01*
X155274498Y-93342727D01*
X155453127Y-93164099D01*
X155488163Y-93079514D01*
X155543528Y-93165553D01*
X155713288Y-93281545D01*
X155914800Y-93322352D01*
X157114800Y-93322352D01*
X157303053Y-93286930D01*
X157464876Y-93182800D01*
X157568157Y-93182800D01*
X157568690Y-93185633D01*
X157679948Y-93358533D01*
X157849708Y-93474525D01*
X158051220Y-93515332D01*
X158848780Y-93515332D01*
X159037033Y-93479910D01*
X159209933Y-93368652D01*
X159325925Y-93198892D01*
X159366732Y-92997380D01*
X159366732Y-92481400D01*
X159955216Y-92481400D01*
X160565800Y-93091984D01*
X160565800Y-94300000D01*
X160610270Y-94523564D01*
X160736908Y-94713092D01*
X163205815Y-97181998D01*
X163182303Y-97181998D01*
X162651293Y-96650987D01*
X162445284Y-96513336D01*
X162222409Y-96469004D01*
X162132625Y-96379063D01*
X161819997Y-96249248D01*
X161481488Y-96248953D01*
X161347849Y-96304172D01*
X161301942Y-96272805D01*
X161100430Y-96231998D01*
X160138883Y-96231998D01*
X159597874Y-95690988D01*
X159391865Y-95553337D01*
X159148861Y-95505001D01*
X146604003Y-95505001D01*
X147134594Y-94974410D01*
X147261233Y-94784881D01*
X147305702Y-94561318D01*
X147305702Y-93395980D01*
X147363691Y-93420000D01*
X147904250Y-93420000D01*
X148063000Y-93261250D01*
X148063000Y-92387000D01*
X148317000Y-92387000D01*
X148317000Y-93261250D01*
X148475750Y-93420000D01*
X149016309Y-93420000D01*
X149249698Y-93323327D01*
X149428327Y-93144699D01*
X149525000Y-92911310D01*
X149525000Y-92545750D01*
X150455000Y-92545750D01*
X150455000Y-92911310D01*
X150551673Y-93144699D01*
X150730302Y-93323327D01*
X150963691Y-93420000D01*
X151504250Y-93420000D01*
X151663000Y-93261250D01*
X151663000Y-92387000D01*
X151917000Y-92387000D01*
X151917000Y-93261250D01*
X152075750Y-93420000D01*
X152616309Y-93420000D01*
X152849698Y-93323327D01*
X153028327Y-93144699D01*
X153098382Y-92975571D01*
X153176473Y-93164099D01*
X153355102Y-93342727D01*
X153588491Y-93439400D01*
X154029050Y-93439400D01*
X154187800Y-93280650D01*
X154187800Y-92481400D01*
X153238550Y-92481400D01*
X153125000Y-92594950D01*
X153125000Y-92545750D01*
X152966250Y-92387000D01*
X151917000Y-92387000D01*
X151663000Y-92387000D01*
X150613750Y-92387000D01*
X150455000Y-92545750D01*
X149525000Y-92545750D01*
X149366250Y-92387000D01*
X148317000Y-92387000D01*
X148063000Y-92387000D01*
X148043000Y-92387000D01*
X148043000Y-92133000D01*
X148063000Y-92133000D01*
X148063000Y-92113000D01*
X148317000Y-92113000D01*
X148317000Y-92133000D01*
X149366250Y-92133000D01*
X149497992Y-92001258D01*
X149667375Y-92170937D01*
X149667375Y-92170937D01*
G37*
X149667375Y-92170937D02*
X149980003Y-92300752D01*
X150318512Y-92301047D01*
X150631366Y-92171778D01*
X150670212Y-92133000D01*
X151663000Y-92133000D01*
X151663000Y-92113000D01*
X151917000Y-92113000D01*
X151917000Y-92133000D01*
X152966250Y-92133000D01*
X153060893Y-92038357D01*
X153079800Y-92050990D01*
X153079800Y-92068650D01*
X153238550Y-92227400D01*
X154187800Y-92227400D01*
X154187800Y-92207400D01*
X154441800Y-92207400D01*
X154441800Y-92227400D01*
X154461800Y-92227400D01*
X154461800Y-92481400D01*
X154441800Y-92481400D01*
X154441800Y-93280650D01*
X154600550Y-93439400D01*
X155041109Y-93439400D01*
X155274498Y-93342727D01*
X155453127Y-93164099D01*
X155488163Y-93079514D01*
X155543528Y-93165553D01*
X155713288Y-93281545D01*
X155914800Y-93322352D01*
X157114800Y-93322352D01*
X157303053Y-93286930D01*
X157464876Y-93182800D01*
X157568157Y-93182800D01*
X157568690Y-93185633D01*
X157679948Y-93358533D01*
X157849708Y-93474525D01*
X158051220Y-93515332D01*
X158848780Y-93515332D01*
X159037033Y-93479910D01*
X159209933Y-93368652D01*
X159325925Y-93198892D01*
X159366732Y-92997380D01*
X159366732Y-92481400D01*
X159955216Y-92481400D01*
X160565800Y-93091984D01*
X160565800Y-94300000D01*
X160610270Y-94523564D01*
X160736908Y-94713092D01*
X163205815Y-97181998D01*
X163182303Y-97181998D01*
X162651293Y-96650987D01*
X162445284Y-96513336D01*
X162222409Y-96469004D01*
X162132625Y-96379063D01*
X161819997Y-96249248D01*
X161481488Y-96248953D01*
X161347849Y-96304172D01*
X161301942Y-96272805D01*
X161100430Y-96231998D01*
X160138883Y-96231998D01*
X159597874Y-95690988D01*
X159391865Y-95553337D01*
X159148861Y-95505001D01*
X146604003Y-95505001D01*
X147134594Y-94974410D01*
X147261233Y-94784881D01*
X147305702Y-94561318D01*
X147305702Y-93395980D01*
X147363691Y-93420000D01*
X147904250Y-93420000D01*
X148063000Y-93261250D01*
X148063000Y-92387000D01*
X148317000Y-92387000D01*
X148317000Y-93261250D01*
X148475750Y-93420000D01*
X149016309Y-93420000D01*
X149249698Y-93323327D01*
X149428327Y-93144699D01*
X149525000Y-92911310D01*
X149525000Y-92545750D01*
X150455000Y-92545750D01*
X150455000Y-92911310D01*
X150551673Y-93144699D01*
X150730302Y-93323327D01*
X150963691Y-93420000D01*
X151504250Y-93420000D01*
X151663000Y-93261250D01*
X151663000Y-92387000D01*
X151917000Y-92387000D01*
X151917000Y-93261250D01*
X152075750Y-93420000D01*
X152616309Y-93420000D01*
X152849698Y-93323327D01*
X153028327Y-93144699D01*
X153098382Y-92975571D01*
X153176473Y-93164099D01*
X153355102Y-93342727D01*
X153588491Y-93439400D01*
X154029050Y-93439400D01*
X154187800Y-93280650D01*
X154187800Y-92481400D01*
X153238550Y-92481400D01*
X153125000Y-92594950D01*
X153125000Y-92545750D01*
X152966250Y-92387000D01*
X151917000Y-92387000D01*
X151663000Y-92387000D01*
X150613750Y-92387000D01*
X150455000Y-92545750D01*
X149525000Y-92545750D01*
X149366250Y-92387000D01*
X148317000Y-92387000D01*
X148063000Y-92387000D01*
X148043000Y-92387000D01*
X148043000Y-92133000D01*
X148063000Y-92133000D01*
X148063000Y-92113000D01*
X148317000Y-92113000D01*
X148317000Y-92133000D01*
X149366250Y-92133000D01*
X149497992Y-92001258D01*
X149667375Y-92170937D01*
G36*
X141227000Y-91323000D02*
X143373000Y-91323000D01*
X143373000Y-91303000D01*
X143627000Y-91303000D01*
X143627000Y-91323000D01*
X143647000Y-91323000D01*
X143647000Y-91577000D01*
X143627000Y-91577000D01*
X143627000Y-92876250D01*
X143712250Y-92961500D01*
X143700000Y-92973750D01*
X143700000Y-93998000D01*
X143747000Y-93998000D01*
X143747000Y-94252000D01*
X143700000Y-94252000D01*
X143700000Y-94272000D01*
X143667952Y-94272000D01*
X143667952Y-93450000D01*
X143632530Y-93261747D01*
X143521272Y-93088847D01*
X143500000Y-93074312D01*
X143500000Y-92973750D01*
X143373000Y-92846750D01*
X143373000Y-91577000D01*
X141227000Y-91577000D01*
X141227000Y-91597000D01*
X140973000Y-91597000D01*
X140973000Y-91577000D01*
X140953000Y-91577000D01*
X140953000Y-91323000D01*
X140973000Y-91323000D01*
X140973000Y-91303000D01*
X141227000Y-91303000D01*
X141227000Y-91323000D01*
X141227000Y-91323000D01*
G37*
X141227000Y-91323000D02*
X143373000Y-91323000D01*
X143373000Y-91303000D01*
X143627000Y-91303000D01*
X143627000Y-91323000D01*
X143647000Y-91323000D01*
X143647000Y-91577000D01*
X143627000Y-91577000D01*
X143627000Y-92876250D01*
X143712250Y-92961500D01*
X143700000Y-92973750D01*
X143700000Y-93998000D01*
X143747000Y-93998000D01*
X143747000Y-94252000D01*
X143700000Y-94252000D01*
X143700000Y-94272000D01*
X143667952Y-94272000D01*
X143667952Y-93450000D01*
X143632530Y-93261747D01*
X143521272Y-93088847D01*
X143500000Y-93074312D01*
X143500000Y-92973750D01*
X143373000Y-92846750D01*
X143373000Y-91577000D01*
X141227000Y-91577000D01*
X141227000Y-91597000D01*
X140973000Y-91597000D01*
X140973000Y-91577000D01*
X140953000Y-91577000D01*
X140953000Y-91323000D01*
X140973000Y-91323000D01*
X140973000Y-91303000D01*
X141227000Y-91303000D01*
X141227000Y-91323000D01*
G36*
X145627000Y-93773000D02*
X145647000Y-93773000D01*
X145647000Y-94027000D01*
X145627000Y-94027000D01*
X145627000Y-94047000D01*
X145373000Y-94047000D01*
X145373000Y-94027000D01*
X145353000Y-94027000D01*
X145353000Y-93773000D01*
X145373000Y-93773000D01*
X145373000Y-93753000D01*
X145627000Y-93753000D01*
X145627000Y-93773000D01*
X145627000Y-93773000D01*
G37*
X145627000Y-93773000D02*
X145647000Y-93773000D01*
X145647000Y-94027000D01*
X145627000Y-94027000D01*
X145627000Y-94047000D01*
X145373000Y-94047000D01*
X145373000Y-94027000D01*
X145353000Y-94027000D01*
X145353000Y-93773000D01*
X145373000Y-93773000D01*
X145373000Y-93753000D01*
X145627000Y-93753000D01*
X145627000Y-93773000D01*
G36*
X145793748Y-91435858D02*
X145779605Y-91450000D01*
X145793748Y-91464143D01*
X145614142Y-91643748D01*
X145600000Y-91629605D01*
X145585858Y-91643748D01*
X145406253Y-91464143D01*
X145420395Y-91450000D01*
X145406253Y-91435858D01*
X145585858Y-91256252D01*
X145600000Y-91270395D01*
X145614142Y-91256252D01*
X145793748Y-91435858D01*
X145793748Y-91435858D01*
G37*
X145793748Y-91435858D02*
X145779605Y-91450000D01*
X145793748Y-91464143D01*
X145614142Y-91643748D01*
X145600000Y-91629605D01*
X145585858Y-91643748D01*
X145406253Y-91464143D01*
X145420395Y-91450000D01*
X145406253Y-91435858D01*
X145585858Y-91256252D01*
X145600000Y-91270395D01*
X145614142Y-91256252D01*
X145793748Y-91435858D01*
M02*
