G04 #@! TF.FileFunction,Copper,L3,Inr,Signal*
%FSLAX46Y46*%
G04 Gerber Fmt 4.6, Leading zero omitted, Abs format (unit mm)*
G04 Created by KiCad (PCBNEW (2015-11-03 BZR 6296)-product) date Sunday, November 08, 2015 'AMt' 09:49:25 AM*
%MOMM*%
G01*
G04 APERTURE LIST*
%ADD10C,0.100000*%
%ADD11C,1.600000*%
%ADD12R,1.727200X1.727200*%
%ADD13O,1.727200X1.727200*%
%ADD14C,0.685800*%
%ADD15C,0.685801*%
%ADD16C,0.152400*%
%ADD17C,0.254000*%
G04 APERTURE END LIST*
D10*
D11*
X139000000Y-91450000D03*
X145600000Y-91450000D03*
D12*
X145200000Y-124900000D03*
D13*
X145200000Y-122360000D03*
X142660000Y-124900000D03*
X142660000Y-122360000D03*
X140120000Y-124900000D03*
X140120000Y-122360000D03*
X137580000Y-124900000D03*
X137580000Y-122360000D03*
D14*
X144900000Y-92704672D03*
X150150000Y-91450000D03*
X156500000Y-91100000D03*
X155650000Y-91100000D03*
X155950000Y-121300000D03*
X147000000Y-123500000D03*
X131297963Y-101109677D03*
X136500000Y-100850000D03*
X134800000Y-99850000D03*
X131200000Y-103250000D03*
X137200000Y-100900000D03*
X148000000Y-116600000D03*
X132942400Y-117000000D03*
D15*
X155484831Y-105661094D03*
D14*
X145000000Y-103600000D03*
X146600000Y-104599956D03*
X154795302Y-91100000D03*
X146150000Y-92700000D03*
X138250000Y-97050000D03*
X148500000Y-121800000D03*
X145800000Y-106000000D03*
X157450000Y-93500000D03*
X153950000Y-93650000D03*
X159900000Y-124900000D03*
X147123669Y-111240000D03*
X138118860Y-100652772D03*
X136700000Y-105500000D03*
X131000000Y-96500000D03*
X133405953Y-101223562D03*
X138150000Y-97750000D03*
X131250000Y-113900000D03*
X131200000Y-107650000D03*
X134103781Y-97226350D03*
X146500000Y-116500000D03*
X151000000Y-104100000D03*
X156000058Y-104999926D03*
X156000057Y-104999927D03*
D15*
X162150000Y-109849998D03*
X162150000Y-106750000D03*
X162150000Y-107500006D03*
X162150000Y-108250000D03*
X162150004Y-109000000D03*
D14*
X132570122Y-101325370D03*
X161650000Y-97100000D03*
X142174351Y-99246033D03*
X141395866Y-96995884D03*
X157200000Y-107450000D03*
X156500000Y-107750000D03*
X157200000Y-108200000D03*
D15*
X157199998Y-109000000D03*
X157199998Y-109850000D03*
X156550004Y-108600000D03*
X156550000Y-109400000D03*
D14*
X144928480Y-108350000D03*
X145450000Y-107650000D03*
X142950000Y-96800000D03*
X135275482Y-111534250D03*
X135211561Y-112386804D03*
X135120000Y-113220000D03*
X134950000Y-114070000D03*
X162718203Y-99409070D03*
X143000000Y-116650000D03*
D15*
X163086722Y-100161927D03*
D14*
X142100000Y-116350000D03*
D15*
X163908480Y-100327191D03*
D14*
X141003006Y-116399407D03*
D15*
X163908480Y-101402757D03*
D14*
X140174437Y-116526186D03*
X155600000Y-124017076D03*
X154928555Y-120647684D03*
X154159917Y-120313327D03*
X154436257Y-123693957D03*
X153623999Y-120957834D03*
X153686037Y-123320099D03*
X152866253Y-123145303D03*
X152466973Y-120604681D03*
X140515673Y-100904688D03*
X158699998Y-98950000D03*
X141252762Y-100505566D03*
X157550000Y-99000000D03*
X156164716Y-110444858D03*
X162152957Y-110738207D03*
X155358534Y-109999543D03*
X162118150Y-111575696D03*
X155028501Y-110807125D03*
X162156514Y-112413029D03*
X154085953Y-113766036D03*
D15*
X155236520Y-113183346D03*
D14*
X154690742Y-114803827D03*
D15*
X155768513Y-114264986D03*
D14*
X153047701Y-106481914D03*
D15*
X155083600Y-115556054D03*
D14*
X153682687Y-105522576D03*
D15*
X155238794Y-116379773D03*
D14*
X152442830Y-111269513D03*
D15*
X156121678Y-116305139D03*
D14*
X151500000Y-110650000D03*
D15*
X156850162Y-116804780D03*
D14*
X138726019Y-115077767D03*
D15*
X157298385Y-116096476D03*
D14*
X139580652Y-115932401D03*
D15*
X158170500Y-116353781D03*
D14*
X133600000Y-103350000D03*
X151800000Y-113100000D03*
D15*
X154573456Y-112664263D03*
D14*
X152821279Y-110275352D03*
X154224771Y-111209680D03*
X143150000Y-109200000D03*
D15*
X155983285Y-112276038D03*
X155175337Y-111971893D03*
D14*
X143667109Y-114677791D03*
X151363221Y-112306208D03*
X143107184Y-114054025D03*
X150639823Y-111836527D03*
X145835271Y-103670153D03*
D15*
X155266806Y-102471889D03*
D14*
X144775386Y-105377364D03*
D15*
X155203574Y-103307713D03*
D14*
X157000000Y-106600000D03*
X152800000Y-108400000D03*
X151754125Y-106645875D03*
D15*
X154050000Y-99750000D03*
X155400000Y-99500000D03*
D14*
X151664487Y-105750346D03*
X152150000Y-101350000D03*
X148350000Y-102250000D03*
X139870000Y-105460000D03*
X132300000Y-103800000D03*
X132300000Y-106152400D03*
X134200000Y-100445302D03*
X132247558Y-106988970D03*
X140930582Y-103462331D03*
X159330000Y-123220000D03*
X151310000Y-123660000D03*
X155590000Y-120110000D03*
X152540000Y-116530000D03*
X148040000Y-114000000D03*
X148000000Y-107400121D03*
D16*
X145104672Y-92704672D02*
X144900000Y-92704672D01*
X145342899Y-92942899D02*
X145104672Y-92704672D01*
X150150000Y-91450000D02*
X150150000Y-91934933D01*
X155950000Y-121300000D02*
X155950000Y-120850000D01*
X147000000Y-123500000D02*
X147000000Y-123015067D01*
X131297963Y-101109677D02*
X130909677Y-101109677D01*
X134800000Y-99850000D02*
X134800000Y-99400000D01*
X131200000Y-103250000D02*
X130715067Y-103250000D01*
X155361094Y-105661094D02*
X155000000Y-105300000D01*
X155484831Y-105661094D02*
X155361094Y-105661094D01*
X154795302Y-91100000D02*
X154795302Y-91595302D01*
D17*
X138250000Y-97050000D02*
X138250000Y-97650000D01*
X138250000Y-97650000D02*
X138150000Y-97750000D01*
M02*
