G04 #@! TF.FileFunction,Paste,Top*
%FSLAX46Y46*%
G04 Gerber Fmt 4.6, Leading zero omitted, Abs format (unit mm)*
G04 Created by KiCad (PCBNEW (2015-11-03 BZR 6296)-product) date Monday, November 09, 2015 'PMt' 11:48:40 PM*
%MOMM*%
G01*
G04 APERTURE LIST*
%ADD10C,0.100000*%
%ADD11R,0.550000X0.200000*%
%ADD12R,0.200000X0.550000*%
%ADD13R,0.525000X0.480000*%
%ADD14R,1.200000X0.750000*%
%ADD15R,0.750000X1.200000*%
%ADD16R,0.797560X0.797560*%
%ADD17R,0.900000X1.200000*%
%ADD18R,1.200000X0.900000*%
%ADD19R,0.280000X1.500000*%
%ADD20R,1.500000X0.280000*%
%ADD21R,1.900000X2.600000*%
%ADD22R,0.700000X0.200000*%
%ADD23R,0.650000X1.060000*%
%ADD24R,0.500000X0.600000*%
%ADD25R,2.000000X1.600000*%
G04 APERTURE END LIST*
D10*
D11*
X131000000Y-97850000D03*
X131000000Y-98250000D03*
X131000000Y-98650000D03*
X131000000Y-99050000D03*
X131000000Y-99450000D03*
X131000000Y-99850000D03*
D12*
X131500000Y-100350000D03*
X131900000Y-100350000D03*
X132300000Y-100350000D03*
X132700000Y-100350000D03*
X133100000Y-100350000D03*
X133500000Y-100350000D03*
D11*
X134000000Y-99850000D03*
X134000000Y-99450000D03*
X134000000Y-99050000D03*
X134000000Y-98650000D03*
X134000000Y-98250000D03*
X134000000Y-97850000D03*
D12*
X133500000Y-97350000D03*
X133100000Y-97350000D03*
X132700000Y-97350000D03*
X132300000Y-97350000D03*
X131900000Y-97350000D03*
X131500000Y-97350000D03*
D13*
X132935000Y-99250000D03*
X132935000Y-98450000D03*
X132065000Y-99250000D03*
X132065000Y-98450000D03*
D14*
X131350000Y-102300000D03*
X133250000Y-102300000D03*
D15*
X131200000Y-104550000D03*
X131200000Y-106450000D03*
X131250000Y-117000000D03*
X131250000Y-115100000D03*
X155070000Y-92640000D03*
X155070000Y-94540000D03*
D16*
X153300000Y-91100000D03*
X153300000Y-92598600D03*
X151150000Y-91100000D03*
X151150000Y-92598600D03*
X149100000Y-91100000D03*
X149100000Y-92598600D03*
D17*
X153450000Y-98000000D03*
X153450000Y-95800000D03*
X151250000Y-98000000D03*
X151250000Y-95800000D03*
X149050000Y-98000000D03*
X149050000Y-95800000D03*
D18*
X141250000Y-93200000D03*
X143450000Y-93200000D03*
D19*
X147500000Y-102150000D03*
X147000000Y-102150000D03*
X146500000Y-102150000D03*
X146000000Y-102150000D03*
X145500000Y-102150000D03*
X145000000Y-102150000D03*
X144500000Y-102150000D03*
X144000000Y-102150000D03*
X143500000Y-102150000D03*
X143000000Y-102150000D03*
X142500000Y-102150000D03*
X142000000Y-102150000D03*
X141500000Y-102150000D03*
X141000000Y-102150000D03*
X140500000Y-102150000D03*
X140000000Y-102150000D03*
X139500000Y-102150000D03*
X139000000Y-102150000D03*
X138500000Y-102150000D03*
X138000000Y-102150000D03*
X137500000Y-102150000D03*
X137000000Y-102150000D03*
X136500000Y-102150000D03*
X136000000Y-102150000D03*
X135500000Y-102150000D03*
D20*
X133600000Y-104050000D03*
X133600000Y-104550000D03*
X133600000Y-105050000D03*
X133600000Y-105550000D03*
X133600000Y-106050000D03*
X133600000Y-106550000D03*
X133600000Y-107050000D03*
X133600000Y-107550000D03*
X133600000Y-108050000D03*
X133600000Y-108550000D03*
X133600000Y-109050000D03*
X133600000Y-109550000D03*
X133600000Y-110050000D03*
X133600000Y-110550000D03*
X133600000Y-111050000D03*
X133600000Y-111550000D03*
X133600000Y-112050000D03*
X133600000Y-112550000D03*
X133600000Y-113050000D03*
X133600000Y-113550000D03*
X133600000Y-114050000D03*
X133600000Y-114550000D03*
X133600000Y-115050000D03*
X133600000Y-115550000D03*
X133600000Y-116050000D03*
D19*
X135500000Y-117950000D03*
X136000000Y-117950000D03*
X136500000Y-117950000D03*
X137000000Y-117950000D03*
X137500000Y-117950000D03*
X138000000Y-117950000D03*
X138500000Y-117950000D03*
X139000000Y-117950000D03*
X139500000Y-117950000D03*
X140000000Y-117950000D03*
X140500000Y-117950000D03*
X141000000Y-117950000D03*
X141500000Y-117950000D03*
X142000000Y-117950000D03*
X142500000Y-117950000D03*
X143000000Y-117950000D03*
X143500000Y-117950000D03*
X144000000Y-117950000D03*
X144500000Y-117950000D03*
X145000000Y-117950000D03*
X145500000Y-117950000D03*
X146000000Y-117950000D03*
X146500000Y-117950000D03*
X147000000Y-117950000D03*
X147500000Y-117950000D03*
D20*
X149400000Y-116050000D03*
X149400000Y-115550000D03*
X149400000Y-115050000D03*
X149400000Y-114550000D03*
X149400000Y-114050000D03*
X149400000Y-113550000D03*
X149400000Y-113050000D03*
X149400000Y-112550000D03*
X149400000Y-112050000D03*
X149400000Y-111550000D03*
X149400000Y-111050000D03*
X149400000Y-110550000D03*
X149400000Y-110050000D03*
X149400000Y-109550000D03*
X149400000Y-109050000D03*
X149400000Y-108550000D03*
X149400000Y-108050000D03*
X149400000Y-107550000D03*
X149400000Y-107050000D03*
X149400000Y-106550000D03*
X149400000Y-106050000D03*
X149400000Y-105550000D03*
X149400000Y-105050000D03*
X149400000Y-104550000D03*
X149400000Y-104050000D03*
D21*
X139800000Y-98600000D03*
X144100000Y-98600000D03*
D14*
X156780000Y-124900000D03*
X158680000Y-124900000D03*
D22*
X161190000Y-100200000D03*
X161190000Y-100600000D03*
X161190000Y-101000000D03*
X161190000Y-101400000D03*
X161190000Y-101800000D03*
X161190000Y-102200000D03*
X161190000Y-102600000D03*
X161190000Y-103000000D03*
X161190000Y-103400000D03*
X161190000Y-103800000D03*
X161190000Y-107800000D03*
X161190000Y-107400000D03*
X161190000Y-107000000D03*
X161190000Y-106600000D03*
X161190000Y-106200000D03*
X161190000Y-105800000D03*
X161190000Y-105400000D03*
X161190000Y-105000000D03*
X161190000Y-104600000D03*
X161190000Y-104200000D03*
X161190000Y-108200000D03*
X161190000Y-108600000D03*
X161190000Y-109000000D03*
X161190000Y-109400000D03*
X161190000Y-109800000D03*
X161190000Y-110200000D03*
X161190000Y-110600000D03*
X161190000Y-111000000D03*
X161190000Y-111400000D03*
X161190000Y-111800000D03*
X161190000Y-115800000D03*
X161190000Y-115400000D03*
X161190000Y-115000000D03*
X161190000Y-114600000D03*
X161190000Y-114200000D03*
X161190000Y-113800000D03*
X161190000Y-113400000D03*
X161190000Y-113000000D03*
X161190000Y-112600000D03*
X161190000Y-112200000D03*
X158110000Y-112200000D03*
X158110000Y-112600000D03*
X158110000Y-113000000D03*
X158110000Y-113400000D03*
X158110000Y-113800000D03*
X158110000Y-114200000D03*
X158110000Y-114600000D03*
X158110000Y-115000000D03*
X158110000Y-115400000D03*
X158110000Y-115800000D03*
X158110000Y-111800000D03*
X158110000Y-111400000D03*
X158110000Y-111000000D03*
X158110000Y-110600000D03*
X158110000Y-110200000D03*
X158110000Y-109800000D03*
X158110000Y-109400000D03*
X158110000Y-109000000D03*
X158110000Y-108600000D03*
X158110000Y-108200000D03*
X158110000Y-104200000D03*
X158110000Y-104600000D03*
X158110000Y-105000000D03*
X158110000Y-105400000D03*
X158110000Y-105800000D03*
X158110000Y-106200000D03*
X158110000Y-106600000D03*
X158110000Y-107000000D03*
X158110000Y-107400000D03*
X158110000Y-107800000D03*
X158110000Y-103800000D03*
X158110000Y-103400000D03*
X158110000Y-103000000D03*
X158110000Y-102600000D03*
X158110000Y-102200000D03*
X158110000Y-101800000D03*
X158110000Y-101400000D03*
X158110000Y-101000000D03*
X158110000Y-100600000D03*
X158110000Y-100200000D03*
D18*
X147860000Y-124950000D03*
X150060000Y-124950000D03*
X154290000Y-124960000D03*
X152090000Y-124960000D03*
D23*
X156580000Y-94660000D03*
X157530000Y-94660000D03*
X158480000Y-94660000D03*
X158480000Y-92460000D03*
X156580000Y-92460000D03*
D24*
X146550000Y-97150000D03*
X146550000Y-98250000D03*
X137200000Y-99250000D03*
X137200000Y-98150000D03*
D25*
X159800000Y-96900000D03*
X155800000Y-96900000D03*
M02*
